<?xml version="1.0" encoding="utf-8"?>
<xmeml version="5">
  <sequence id="video">
    <name>街ブラ恵比寿02修正文字起こし</name>
    <duration>22166.1117</duration>
    <rate>
      <timebase>30</timebase>
      <ntsc>true</ntsc>
    </rate>
    <media>
      <video>
        <format>
          <samplecharacteristics>
            <width>720</width>
            <height>480</height>
            <anamorphic>false</anamorphic>
            <pixelaspectratio>square</pixelaspectratio>
            <fielddominance>none</fielddominance>
          </samplecharacteristics>
        </format>
        <track>
          <clipitem>
            <name>街ブラ恵比寿02修正文字起こし.mp4</name>
            <enabled>true</enabled>
            <rate>
              <timebase>30</timebase>
              <ntsc>true</ntsc>
            </rate>
            <in>0</in>
            <out>150.7491</out>
            <start>0</start>
            <end>150.7491</end>
            <file id="街ブラ恵比寿02修正文字起こし.mp4">
              <name>街ブラ恵比寿02修正文字起こし.mp4</name>
              <pathurl>/Volumes/SSD naoki2/街ブラ恵比寿02修正文字起こし.mp4</pathurl>
              <media>
                <video>
                  <samplecharacteristics>
                    <width>720</width>
                    <height>480</height>
                    <anamorphic>false</anamorphic>
                    <pixelaspectratio>square</pixelaspectratio>
                    <fielddominance>none</fielddominance>
                  </samplecharacteristics>
                </video>
                <audio>
                  <in>0</in>
                  <out>22166.1117</out>
                  <channelcount>2</channelcount>
                  <duration>22166.1117</duration>
                </audio>
              </media>
            </file>
            <link>
              <mediatype>video</mediatype>
              <trackindex>1</trackindex>
              <clipindex>1</clipindex>
            </link>
            <link>
              <mediatype>audio</mediatype>
              <trackindex>1</trackindex>
              <clipindex>1</clipindex>
              <groupindex>1</groupindex>
            </link>
            <link>
              <mediatype>audio</mediatype>
              <trackindex>2</trackindex>
              <clipindex>1</clipindex>
              <groupindex>1</groupindex>
            </link>
          </clipitem>
          <clipitem>
            <name>街ブラ恵比寿02修正文字起こし.mp4</name>
            <enabled>true</enabled>
            <rate>
              <timebase>30</timebase>
              <ntsc>true</ntsc>
            </rate>
            <in>150.7491</in>
            <out>287.712</out>
            <start>150.7491</start>
            <end>287.712</end>
            <file id="街ブラ恵比寿02修正文字起こし.mp4">
              <name>街ブラ恵比寿02修正文字起こし.mp4</name>
              <pathurl>/Volumes/SSD naoki2/街ブラ恵比寿02修正文字起こし.mp4</pathurl>
              <media>
                <video>
                  <samplecharacteristics>
                    <width>720</width>
                    <height>480</height>
                    <anamorphic>false</anamorphic>
                    <pixelaspectratio>square</pixelaspectratio>
                    <fielddominance>none</fielddominance>
                  </samplecharacteristics>
                </video>
                <audio>
                  <in>0</in>
                  <out>22166.1117</out>
                  <channelcount>2</channelcount>
                  <duration>22166.1117</duration>
                </audio>
              </media>
            </file>
            <link>
              <mediatype>video</mediatype>
              <trackindex>1</trackindex>
              <clipindex>2</clipindex>
            </link>
            <link>
              <mediatype>audio</mediatype>
              <trackindex>1</trackindex>
              <clipindex>2</clipindex>
              <groupindex>2</groupindex>
            </link>
            <link>
              <mediatype>audio</mediatype>
              <trackindex>2</trackindex>
              <clipindex>2</clipindex>
              <groupindex>2</groupindex>
            </link>
          </clipitem>
          <clipitem>
            <name>街ブラ恵比寿02修正文字起こし.mp4</name>
            <enabled>true</enabled>
            <rate>
              <timebase>30</timebase>
              <ntsc>true</ntsc>
            </rate>
            <in>287.712</in>
            <out>362.9366999999999</out>
            <start>287.712</start>
            <end>362.9366999999999</end>
            <file id="街ブラ恵比寿02修正文字起こし.mp4">
              <name>街ブラ恵比寿02修正文字起こし.mp4</name>
              <pathurl>/Volumes/SSD naoki2/街ブラ恵比寿02修正文字起こし.mp4</pathurl>
              <media>
                <video>
                  <samplecharacteristics>
                    <width>720</width>
                    <height>480</height>
                    <anamorphic>false</anamorphic>
                    <pixelaspectratio>square</pixelaspectratio>
                    <fielddominance>none</fielddominance>
                  </samplecharacteristics>
                </video>
                <audio>
                  <in>0</in>
                  <out>22166.1117</out>
                  <channelcount>2</channelcount>
                  <duration>22166.1117</duration>
                </audio>
              </media>
            </file>
            <link>
              <mediatype>video</mediatype>
              <trackindex>1</trackindex>
              <clipindex>3</clipindex>
            </link>
            <link>
              <mediatype>audio</mediatype>
              <trackindex>1</trackindex>
              <clipindex>3</clipindex>
              <groupindex>3</groupindex>
            </link>
            <link>
              <mediatype>audio</mediatype>
              <trackindex>2</trackindex>
              <clipindex>3</clipindex>
              <groupindex>3</groupindex>
            </link>
          </clipitem>
          <clipitem>
            <name>街ブラ恵比寿02修正文字起こし.mp4</name>
            <enabled>true</enabled>
            <rate>
              <timebase>30</timebase>
              <ntsc>true</ntsc>
            </rate>
            <in>362.9367</in>
            <out>424.0754999999999</out>
            <start>362.9366999999999</start>
            <end>424.07549999999986</end>
            <file id="街ブラ恵比寿02修正文字起こし.mp4">
              <name>街ブラ恵比寿02修正文字起こし.mp4</name>
              <pathurl>/Volumes/SSD naoki2/街ブラ恵比寿02修正文字起こし.mp4</pathurl>
              <media>
                <video>
                  <samplecharacteristics>
                    <width>720</width>
                    <height>480</height>
                    <anamorphic>false</anamorphic>
                    <pixelaspectratio>square</pixelaspectratio>
                    <fielddominance>none</fielddominance>
                  </samplecharacteristics>
                </video>
                <audio>
                  <in>0</in>
                  <out>22166.1117</out>
                  <channelcount>2</channelcount>
                  <duration>22166.1117</duration>
                </audio>
              </media>
            </file>
            <link>
              <mediatype>video</mediatype>
              <trackindex>1</trackindex>
              <clipindex>4</clipindex>
            </link>
            <link>
              <mediatype>audio</mediatype>
              <trackindex>1</trackindex>
              <clipindex>4</clipindex>
              <groupindex>4</groupindex>
            </link>
            <link>
              <mediatype>audio</mediatype>
              <trackindex>2</trackindex>
              <clipindex>4</clipindex>
              <groupindex>4</groupindex>
            </link>
          </clipitem>
          <clipitem>
            <name>街ブラ恵比寿02修正文字起こし.mp4</name>
            <enabled>true</enabled>
            <rate>
              <timebase>30</timebase>
              <ntsc>true</ntsc>
            </rate>
            <in>424.0755</in>
            <out>741.4577999999999</out>
            <start>424.07549999999986</start>
            <end>741.4577999999998</end>
            <file id="街ブラ恵比寿02修正文字起こし.mp4">
              <name>街ブラ恵比寿02修正文字起こし.mp4</name>
              <pathurl>/Volumes/SSD naoki2/街ブラ恵比寿02修正文字起こし.mp4</pathurl>
              <media>
                <video>
                  <samplecharacteristics>
                    <width>720</width>
                    <height>480</height>
                    <anamorphic>false</anamorphic>
                    <pixelaspectratio>square</pixelaspectratio>
                    <fielddominance>none</fielddominance>
                  </samplecharacteristics>
                </video>
                <audio>
                  <in>0</in>
                  <out>22166.1117</out>
                  <channelcount>2</channelcount>
                  <duration>22166.1117</duration>
                </audio>
              </media>
            </file>
            <link>
              <mediatype>video</mediatype>
              <trackindex>1</trackindex>
              <clipindex>5</clipindex>
            </link>
            <link>
              <mediatype>audio</mediatype>
              <trackindex>1</trackindex>
              <clipindex>5</clipindex>
              <groupindex>5</groupindex>
            </link>
            <link>
              <mediatype>audio</mediatype>
              <trackindex>2</trackindex>
              <clipindex>5</clipindex>
              <groupindex>5</groupindex>
            </link>
          </clipitem>
          <clipitem>
            <name>街ブラ恵比寿02修正文字起こし.mp4</name>
            <enabled>true</enabled>
            <rate>
              <timebase>30</timebase>
              <ntsc>true</ntsc>
            </rate>
            <in>741.4577999999999</in>
            <out>824.4747</out>
            <start>741.4577999999998</start>
            <end>824.4746999999999</end>
            <file id="街ブラ恵比寿02修正文字起こし.mp4">
              <name>街ブラ恵比寿02修正文字起こし.mp4</name>
              <pathurl>/Volumes/SSD naoki2/街ブラ恵比寿02修正文字起こし.mp4</pathurl>
              <media>
                <video>
                  <samplecharacteristics>
                    <width>720</width>
                    <height>480</height>
                    <anamorphic>false</anamorphic>
                    <pixelaspectratio>square</pixelaspectratio>
                    <fielddominance>none</fielddominance>
                  </samplecharacteristics>
                </video>
                <audio>
                  <in>0</in>
                  <out>22166.1117</out>
                  <channelcount>2</channelcount>
                  <duration>22166.1117</duration>
                </audio>
              </media>
            </file>
            <link>
              <mediatype>video</mediatype>
              <trackindex>1</trackindex>
              <clipindex>6</clipindex>
            </link>
            <link>
              <mediatype>audio</mediatype>
              <trackindex>1</trackindex>
              <clipindex>6</clipindex>
              <groupindex>6</groupindex>
            </link>
            <link>
              <mediatype>audio</mediatype>
              <trackindex>2</trackindex>
              <clipindex>6</clipindex>
              <groupindex>6</groupindex>
            </link>
          </clipitem>
          <clipitem>
            <name>街ブラ恵比寿02修正文字起こし.mp4</name>
            <enabled>true</enabled>
            <rate>
              <timebase>30</timebase>
              <ntsc>true</ntsc>
            </rate>
            <in>824.4747</in>
            <out>871.5276</out>
            <start>824.4746999999999</start>
            <end>871.5275999999999</end>
            <file id="街ブラ恵比寿02修正文字起こし.mp4">
              <name>街ブラ恵比寿02修正文字起こし.mp4</name>
              <pathurl>/Volumes/SSD naoki2/街ブラ恵比寿02修正文字起こし.mp4</pathurl>
              <media>
                <video>
                  <samplecharacteristics>
                    <width>720</width>
                    <height>480</height>
                    <anamorphic>false</anamorphic>
                    <pixelaspectratio>square</pixelaspectratio>
                    <fielddominance>none</fielddominance>
                  </samplecharacteristics>
                </video>
                <audio>
                  <in>0</in>
                  <out>22166.1117</out>
                  <channelcount>2</channelcount>
                  <duration>22166.1117</duration>
                </audio>
              </media>
            </file>
            <link>
              <mediatype>video</mediatype>
              <trackindex>1</trackindex>
              <clipindex>7</clipindex>
            </link>
            <link>
              <mediatype>audio</mediatype>
              <trackindex>1</trackindex>
              <clipindex>7</clipindex>
              <groupindex>7</groupindex>
            </link>
            <link>
              <mediatype>audio</mediatype>
              <trackindex>2</trackindex>
              <clipindex>7</clipindex>
              <groupindex>7</groupindex>
            </link>
          </clipitem>
          <clipitem>
            <name>街ブラ恵比寿02修正文字起こし.mp4</name>
            <enabled>true</enabled>
            <rate>
              <timebase>30</timebase>
              <ntsc>true</ntsc>
            </rate>
            <in>871.5275999999999</in>
            <out>1139.4594000000002</out>
            <start>871.5275999999999</start>
            <end>1139.4594000000002</end>
            <file id="街ブラ恵比寿02修正文字起こし.mp4">
              <name>街ブラ恵比寿02修正文字起こし.mp4</name>
              <pathurl>/Volumes/SSD naoki2/街ブラ恵比寿02修正文字起こし.mp4</pathurl>
              <media>
                <video>
                  <samplecharacteristics>
                    <width>720</width>
                    <height>480</height>
                    <anamorphic>false</anamorphic>
                    <pixelaspectratio>square</pixelaspectratio>
                    <fielddominance>none</fielddominance>
                  </samplecharacteristics>
                </video>
                <audio>
                  <in>0</in>
                  <out>22166.1117</out>
                  <channelcount>2</channelcount>
                  <duration>22166.1117</duration>
                </audio>
              </media>
            </file>
            <link>
              <mediatype>video</mediatype>
              <trackindex>1</trackindex>
              <clipindex>8</clipindex>
            </link>
            <link>
              <mediatype>audio</mediatype>
              <trackindex>1</trackindex>
              <clipindex>8</clipindex>
              <groupindex>8</groupindex>
            </link>
            <link>
              <mediatype>audio</mediatype>
              <trackindex>2</trackindex>
              <clipindex>8</clipindex>
              <groupindex>8</groupindex>
            </link>
          </clipitem>
          <clipitem>
            <name>街ブラ恵比寿02修正文字起こし.mp4</name>
            <enabled>true</enabled>
            <rate>
              <timebase>30</timebase>
              <ntsc>true</ntsc>
            </rate>
            <in>1139.4594</in>
            <out>1272.8258999999998</out>
            <start>1139.4594000000002</start>
            <end>1272.8259</end>
            <file id="街ブラ恵比寿02修正文字起こし.mp4">
              <name>街ブラ恵比寿02修正文字起こし.mp4</name>
              <pathurl>/Volumes/SSD naoki2/街ブラ恵比寿02修正文字起こし.mp4</pathurl>
              <media>
                <video>
                  <samplecharacteristics>
                    <width>720</width>
                    <height>480</height>
                    <anamorphic>false</anamorphic>
                    <pixelaspectratio>square</pixelaspectratio>
                    <fielddominance>none</fielddominance>
                  </samplecharacteristics>
                </video>
                <audio>
                  <in>0</in>
                  <out>22166.1117</out>
                  <channelcount>2</channelcount>
                  <duration>22166.1117</duration>
                </audio>
              </media>
            </file>
            <link>
              <mediatype>video</mediatype>
              <trackindex>1</trackindex>
              <clipindex>9</clipindex>
            </link>
            <link>
              <mediatype>audio</mediatype>
              <trackindex>1</trackindex>
              <clipindex>9</clipindex>
              <groupindex>9</groupindex>
            </link>
            <link>
              <mediatype>audio</mediatype>
              <trackindex>2</trackindex>
              <clipindex>9</clipindex>
              <groupindex>9</groupindex>
            </link>
          </clipitem>
          <clipitem>
            <name>街ブラ恵比寿02修正文字起こし.mp4</name>
            <enabled>true</enabled>
            <rate>
              <timebase>30</timebase>
              <ntsc>true</ntsc>
            </rate>
            <in>1272.8258999999998</in>
            <out>1405.8927</out>
            <start>1272.8259</start>
            <end>1405.8927000000003</end>
            <file id="街ブラ恵比寿02修正文字起こし.mp4">
              <name>街ブラ恵比寿02修正文字起こし.mp4</name>
              <pathurl>/Volumes/SSD naoki2/街ブラ恵比寿02修正文字起こし.mp4</pathurl>
              <media>
                <video>
                  <samplecharacteristics>
                    <width>720</width>
                    <height>480</height>
                    <anamorphic>false</anamorphic>
                    <pixelaspectratio>square</pixelaspectratio>
                    <fielddominance>none</fielddominance>
                  </samplecharacteristics>
                </video>
                <audio>
                  <in>0</in>
                  <out>22166.1117</out>
                  <channelcount>2</channelcount>
                  <duration>22166.1117</duration>
                </audio>
              </media>
            </file>
            <link>
              <mediatype>video</mediatype>
              <trackindex>1</trackindex>
              <clipindex>10</clipindex>
            </link>
            <link>
              <mediatype>audio</mediatype>
              <trackindex>1</trackindex>
              <clipindex>10</clipindex>
              <groupindex>10</groupindex>
            </link>
            <link>
              <mediatype>audio</mediatype>
              <trackindex>2</trackindex>
              <clipindex>10</clipindex>
              <groupindex>10</groupindex>
            </link>
          </clipitem>
          <clipitem>
            <name>街ブラ恵比寿02修正文字起こし.mp4</name>
            <enabled>true</enabled>
            <rate>
              <timebase>30</timebase>
              <ntsc>true</ntsc>
            </rate>
            <in>1405.8926999999999</in>
            <out>1443.3551999999997</out>
            <start>1405.8927000000003</start>
            <end>1443.3552000000002</end>
            <file id="街ブラ恵比寿02修正文字起こし.mp4">
              <name>街ブラ恵比寿02修正文字起こし.mp4</name>
              <pathurl>/Volumes/SSD naoki2/街ブラ恵比寿02修正文字起こし.mp4</pathurl>
              <media>
                <video>
                  <samplecharacteristics>
                    <width>720</width>
                    <height>480</height>
                    <anamorphic>false</anamorphic>
                    <pixelaspectratio>square</pixelaspectratio>
                    <fielddominance>none</fielddominance>
                  </samplecharacteristics>
                </video>
                <audio>
                  <in>0</in>
                  <out>22166.1117</out>
                  <channelcount>2</channelcount>
                  <duration>22166.1117</duration>
                </audio>
              </media>
            </file>
            <link>
              <mediatype>video</mediatype>
              <trackindex>1</trackindex>
              <clipindex>11</clipindex>
            </link>
            <link>
              <mediatype>audio</mediatype>
              <trackindex>1</trackindex>
              <clipindex>11</clipindex>
              <groupindex>11</groupindex>
            </link>
            <link>
              <mediatype>audio</mediatype>
              <trackindex>2</trackindex>
              <clipindex>11</clipindex>
              <groupindex>11</groupindex>
            </link>
          </clipitem>
          <clipitem>
            <name>街ブラ恵比寿02修正文字起こし.mp4</name>
            <enabled>true</enabled>
            <rate>
              <timebase>30</timebase>
              <ntsc>true</ntsc>
            </rate>
            <in>1443.3551999999997</in>
            <out>1624.0743</out>
            <start>1443.3552000000002</start>
            <end>1624.0743000000004</end>
            <file id="街ブラ恵比寿02修正文字起こし.mp4">
              <name>街ブラ恵比寿02修正文字起こし.mp4</name>
              <pathurl>/Volumes/SSD naoki2/街ブラ恵比寿02修正文字起こし.mp4</pathurl>
              <media>
                <video>
                  <samplecharacteristics>
                    <width>720</width>
                    <height>480</height>
                    <anamorphic>false</anamorphic>
                    <pixelaspectratio>square</pixelaspectratio>
                    <fielddominance>none</fielddominance>
                  </samplecharacteristics>
                </video>
                <audio>
                  <in>0</in>
                  <out>22166.1117</out>
                  <channelcount>2</channelcount>
                  <duration>22166.1117</duration>
                </audio>
              </media>
            </file>
            <link>
              <mediatype>video</mediatype>
              <trackindex>1</trackindex>
              <clipindex>12</clipindex>
            </link>
            <link>
              <mediatype>audio</mediatype>
              <trackindex>1</trackindex>
              <clipindex>12</clipindex>
              <groupindex>12</groupindex>
            </link>
            <link>
              <mediatype>audio</mediatype>
              <trackindex>2</trackindex>
              <clipindex>12</clipindex>
              <groupindex>12</groupindex>
            </link>
          </clipitem>
          <clipitem>
            <name>街ブラ恵比寿02修正文字起こし.mp4</name>
            <enabled>true</enabled>
            <rate>
              <timebase>30</timebase>
              <ntsc>true</ntsc>
            </rate>
            <in>1624.0742999999998</in>
            <out>1760.1381000000001</out>
            <start>1624.0743000000004</start>
            <end>1760.1381000000008</end>
            <file id="街ブラ恵比寿02修正文字起こし.mp4">
              <name>街ブラ恵比寿02修正文字起こし.mp4</name>
              <pathurl>/Volumes/SSD naoki2/街ブラ恵比寿02修正文字起こし.mp4</pathurl>
              <media>
                <video>
                  <samplecharacteristics>
                    <width>720</width>
                    <height>480</height>
                    <anamorphic>false</anamorphic>
                    <pixelaspectratio>square</pixelaspectratio>
                    <fielddominance>none</fielddominance>
                  </samplecharacteristics>
                </video>
                <audio>
                  <in>0</in>
                  <out>22166.1117</out>
                  <channelcount>2</channelcount>
                  <duration>22166.1117</duration>
                </audio>
              </media>
            </file>
            <link>
              <mediatype>video</mediatype>
              <trackindex>1</trackindex>
              <clipindex>13</clipindex>
            </link>
            <link>
              <mediatype>audio</mediatype>
              <trackindex>1</trackindex>
              <clipindex>13</clipindex>
              <groupindex>13</groupindex>
            </link>
            <link>
              <mediatype>audio</mediatype>
              <trackindex>2</trackindex>
              <clipindex>13</clipindex>
              <groupindex>13</groupindex>
            </link>
          </clipitem>
          <clipitem>
            <name>街ブラ恵比寿02修正文字起こし.mp4</name>
            <enabled>true</enabled>
            <rate>
              <timebase>30</timebase>
              <ntsc>true</ntsc>
            </rate>
            <in>1760.1381</in>
            <out>1909.3887000000002</out>
            <start>1760.1381000000008</start>
            <end>1909.388700000001</end>
            <file id="街ブラ恵比寿02修正文字起こし.mp4">
              <name>街ブラ恵比寿02修正文字起こし.mp4</name>
              <pathurl>/Volumes/SSD naoki2/街ブラ恵比寿02修正文字起こし.mp4</pathurl>
              <media>
                <video>
                  <samplecharacteristics>
                    <width>720</width>
                    <height>480</height>
                    <anamorphic>false</anamorphic>
                    <pixelaspectratio>square</pixelaspectratio>
                    <fielddominance>none</fielddominance>
                  </samplecharacteristics>
                </video>
                <audio>
                  <in>0</in>
                  <out>22166.1117</out>
                  <channelcount>2</channelcount>
                  <duration>22166.1117</duration>
                </audio>
              </media>
            </file>
            <link>
              <mediatype>video</mediatype>
              <trackindex>1</trackindex>
              <clipindex>14</clipindex>
            </link>
            <link>
              <mediatype>audio</mediatype>
              <trackindex>1</trackindex>
              <clipindex>14</clipindex>
              <groupindex>14</groupindex>
            </link>
            <link>
              <mediatype>audio</mediatype>
              <trackindex>2</trackindex>
              <clipindex>14</clipindex>
              <groupindex>14</groupindex>
            </link>
          </clipitem>
          <clipitem>
            <name>街ブラ恵比寿02修正文字起こし.mp4</name>
            <enabled>true</enabled>
            <rate>
              <timebase>30</timebase>
              <ntsc>true</ntsc>
            </rate>
            <in>1909.3887</in>
            <out>2031.966</out>
            <start>1909.388700000001</start>
            <end>2031.966000000001</end>
            <file id="街ブラ恵比寿02修正文字起こし.mp4">
              <name>街ブラ恵比寿02修正文字起こし.mp4</name>
              <pathurl>/Volumes/SSD naoki2/街ブラ恵比寿02修正文字起こし.mp4</pathurl>
              <media>
                <video>
                  <samplecharacteristics>
                    <width>720</width>
                    <height>480</height>
                    <anamorphic>false</anamorphic>
                    <pixelaspectratio>square</pixelaspectratio>
                    <fielddominance>none</fielddominance>
                  </samplecharacteristics>
                </video>
                <audio>
                  <in>0</in>
                  <out>22166.1117</out>
                  <channelcount>2</channelcount>
                  <duration>22166.1117</duration>
                </audio>
              </media>
            </file>
            <link>
              <mediatype>video</mediatype>
              <trackindex>1</trackindex>
              <clipindex>15</clipindex>
            </link>
            <link>
              <mediatype>audio</mediatype>
              <trackindex>1</trackindex>
              <clipindex>15</clipindex>
              <groupindex>15</groupindex>
            </link>
            <link>
              <mediatype>audio</mediatype>
              <trackindex>2</trackindex>
              <clipindex>15</clipindex>
              <groupindex>15</groupindex>
            </link>
          </clipitem>
          <clipitem>
            <name>街ブラ恵比寿02修正文字起こし.mp4</name>
            <enabled>true</enabled>
            <rate>
              <timebase>30</timebase>
              <ntsc>true</ntsc>
            </rate>
            <in>2031.966</in>
            <out>2317.879800000001</out>
            <start>2031.966000000001</start>
            <end>2317.879800000002</end>
            <file id="街ブラ恵比寿02修正文字起こし.mp4">
              <name>街ブラ恵比寿02修正文字起こし.mp4</name>
              <pathurl>/Volumes/SSD naoki2/街ブラ恵比寿02修正文字起こし.mp4</pathurl>
              <media>
                <video>
                  <samplecharacteristics>
                    <width>720</width>
                    <height>480</height>
                    <anamorphic>false</anamorphic>
                    <pixelaspectratio>square</pixelaspectratio>
                    <fielddominance>none</fielddominance>
                  </samplecharacteristics>
                </video>
                <audio>
                  <in>0</in>
                  <out>22166.1117</out>
                  <channelcount>2</channelcount>
                  <duration>22166.1117</duration>
                </audio>
              </media>
            </file>
            <link>
              <mediatype>video</mediatype>
              <trackindex>1</trackindex>
              <clipindex>16</clipindex>
            </link>
            <link>
              <mediatype>audio</mediatype>
              <trackindex>1</trackindex>
              <clipindex>16</clipindex>
              <groupindex>16</groupindex>
            </link>
            <link>
              <mediatype>audio</mediatype>
              <trackindex>2</trackindex>
              <clipindex>16</clipindex>
              <groupindex>16</groupindex>
            </link>
          </clipitem>
          <clipitem>
            <name>街ブラ恵比寿02修正文字起こし.mp4</name>
            <enabled>true</enabled>
            <rate>
              <timebase>30</timebase>
              <ntsc>true</ntsc>
            </rate>
            <in>2317.8798</in>
            <out>2377.8198</out>
            <start>2317.879800000002</start>
            <end>2377.819800000002</end>
            <file id="街ブラ恵比寿02修正文字起こし.mp4">
              <name>街ブラ恵比寿02修正文字起こし.mp4</name>
              <pathurl>/Volumes/SSD naoki2/街ブラ恵比寿02修正文字起こし.mp4</pathurl>
              <media>
                <video>
                  <samplecharacteristics>
                    <width>720</width>
                    <height>480</height>
                    <anamorphic>false</anamorphic>
                    <pixelaspectratio>square</pixelaspectratio>
                    <fielddominance>none</fielddominance>
                  </samplecharacteristics>
                </video>
                <audio>
                  <in>0</in>
                  <out>22166.1117</out>
                  <channelcount>2</channelcount>
                  <duration>22166.1117</duration>
                </audio>
              </media>
            </file>
            <link>
              <mediatype>video</mediatype>
              <trackindex>1</trackindex>
              <clipindex>17</clipindex>
            </link>
            <link>
              <mediatype>audio</mediatype>
              <trackindex>1</trackindex>
              <clipindex>17</clipindex>
              <groupindex>17</groupindex>
            </link>
            <link>
              <mediatype>audio</mediatype>
              <trackindex>2</trackindex>
              <clipindex>17</clipindex>
              <groupindex>17</groupindex>
            </link>
          </clipitem>
          <clipitem>
            <name>街ブラ恵比寿02修正文字起こし.mp4</name>
            <enabled>true</enabled>
            <rate>
              <timebase>30</timebase>
              <ntsc>true</ntsc>
            </rate>
            <in>2377.8198</in>
            <out>2458.1394</out>
            <start>2377.819800000002</start>
            <end>2458.1394000000023</end>
            <file id="街ブラ恵比寿02修正文字起こし.mp4">
              <name>街ブラ恵比寿02修正文字起こし.mp4</name>
              <pathurl>/Volumes/SSD naoki2/街ブラ恵比寿02修正文字起こし.mp4</pathurl>
              <media>
                <video>
                  <samplecharacteristics>
                    <width>720</width>
                    <height>480</height>
                    <anamorphic>false</anamorphic>
                    <pixelaspectratio>square</pixelaspectratio>
                    <fielddominance>none</fielddominance>
                  </samplecharacteristics>
                </video>
                <audio>
                  <in>0</in>
                  <out>22166.1117</out>
                  <channelcount>2</channelcount>
                  <duration>22166.1117</duration>
                </audio>
              </media>
            </file>
            <link>
              <mediatype>video</mediatype>
              <trackindex>1</trackindex>
              <clipindex>18</clipindex>
            </link>
            <link>
              <mediatype>audio</mediatype>
              <trackindex>1</trackindex>
              <clipindex>18</clipindex>
              <groupindex>18</groupindex>
            </link>
            <link>
              <mediatype>audio</mediatype>
              <trackindex>2</trackindex>
              <clipindex>18</clipindex>
              <groupindex>18</groupindex>
            </link>
          </clipitem>
          <clipitem>
            <name>街ブラ恵比寿02修正文字起こし.mp4</name>
            <enabled>true</enabled>
            <rate>
              <timebase>30</timebase>
              <ntsc>true</ntsc>
            </rate>
            <in>2458.1393999999996</in>
            <out>2548.9484999999995</out>
            <start>2458.1394000000023</start>
            <end>2548.948500000002</end>
            <file id="街ブラ恵比寿02修正文字起こし.mp4">
              <name>街ブラ恵比寿02修正文字起こし.mp4</name>
              <pathurl>/Volumes/SSD naoki2/街ブラ恵比寿02修正文字起こし.mp4</pathurl>
              <media>
                <video>
                  <samplecharacteristics>
                    <width>720</width>
                    <height>480</height>
                    <anamorphic>false</anamorphic>
                    <pixelaspectratio>square</pixelaspectratio>
                    <fielddominance>none</fielddominance>
                  </samplecharacteristics>
                </video>
                <audio>
                  <in>0</in>
                  <out>22166.1117</out>
                  <channelcount>2</channelcount>
                  <duration>22166.1117</duration>
                </audio>
              </media>
            </file>
            <link>
              <mediatype>video</mediatype>
              <trackindex>1</trackindex>
              <clipindex>19</clipindex>
            </link>
            <link>
              <mediatype>audio</mediatype>
              <trackindex>1</trackindex>
              <clipindex>19</clipindex>
              <groupindex>19</groupindex>
            </link>
            <link>
              <mediatype>audio</mediatype>
              <trackindex>2</trackindex>
              <clipindex>19</clipindex>
              <groupindex>19</groupindex>
            </link>
          </clipitem>
          <clipitem>
            <name>街ブラ恵比寿02修正文字起こし.mp4</name>
            <enabled>true</enabled>
            <rate>
              <timebase>30</timebase>
              <ntsc>true</ntsc>
            </rate>
            <in>2548.9485</in>
            <out>2720.6765999999993</out>
            <start>2548.948500000002</start>
            <end>2720.6766000000016</end>
            <file id="街ブラ恵比寿02修正文字起こし.mp4">
              <name>街ブラ恵比寿02修正文字起こし.mp4</name>
              <pathurl>/Volumes/SSD naoki2/街ブラ恵比寿02修正文字起こし.mp4</pathurl>
              <media>
                <video>
                  <samplecharacteristics>
                    <width>720</width>
                    <height>480</height>
                    <anamorphic>false</anamorphic>
                    <pixelaspectratio>square</pixelaspectratio>
                    <fielddominance>none</fielddominance>
                  </samplecharacteristics>
                </video>
                <audio>
                  <in>0</in>
                  <out>22166.1117</out>
                  <channelcount>2</channelcount>
                  <duration>22166.1117</duration>
                </audio>
              </media>
            </file>
            <link>
              <mediatype>video</mediatype>
              <trackindex>1</trackindex>
              <clipindex>20</clipindex>
            </link>
            <link>
              <mediatype>audio</mediatype>
              <trackindex>1</trackindex>
              <clipindex>20</clipindex>
              <groupindex>20</groupindex>
            </link>
            <link>
              <mediatype>audio</mediatype>
              <trackindex>2</trackindex>
              <clipindex>20</clipindex>
              <groupindex>20</groupindex>
            </link>
          </clipitem>
          <clipitem>
            <name>街ブラ恵比寿02修正文字起こし.mp4</name>
            <enabled>true</enabled>
            <rate>
              <timebase>30</timebase>
              <ntsc>true</ntsc>
            </rate>
            <in>2720.6766</in>
            <out>2805.192</out>
            <start>2720.6766000000016</start>
            <end>2805.192000000002</end>
            <file id="街ブラ恵比寿02修正文字起こし.mp4">
              <name>街ブラ恵比寿02修正文字起こし.mp4</name>
              <pathurl>/Volumes/SSD naoki2/街ブラ恵比寿02修正文字起こし.mp4</pathurl>
              <media>
                <video>
                  <samplecharacteristics>
                    <width>720</width>
                    <height>480</height>
                    <anamorphic>false</anamorphic>
                    <pixelaspectratio>square</pixelaspectratio>
                    <fielddominance>none</fielddominance>
                  </samplecharacteristics>
                </video>
                <audio>
                  <in>0</in>
                  <out>22166.1117</out>
                  <channelcount>2</channelcount>
                  <duration>22166.1117</duration>
                </audio>
              </media>
            </file>
            <link>
              <mediatype>video</mediatype>
              <trackindex>1</trackindex>
              <clipindex>21</clipindex>
            </link>
            <link>
              <mediatype>audio</mediatype>
              <trackindex>1</trackindex>
              <clipindex>21</clipindex>
              <groupindex>21</groupindex>
            </link>
            <link>
              <mediatype>audio</mediatype>
              <trackindex>2</trackindex>
              <clipindex>21</clipindex>
              <groupindex>21</groupindex>
            </link>
          </clipitem>
          <clipitem>
            <name>街ブラ恵比寿02修正文字起こし.mp4</name>
            <enabled>true</enabled>
            <rate>
              <timebase>30</timebase>
              <ntsc>true</ntsc>
            </rate>
            <in>2805.1919999999996</in>
            <out>2895.7014000000004</out>
            <start>2805.192000000002</start>
            <end>2895.7014000000026</end>
            <file id="街ブラ恵比寿02修正文字起こし.mp4">
              <name>街ブラ恵比寿02修正文字起こし.mp4</name>
              <pathurl>/Volumes/SSD naoki2/街ブラ恵比寿02修正文字起こし.mp4</pathurl>
              <media>
                <video>
                  <samplecharacteristics>
                    <width>720</width>
                    <height>480</height>
                    <anamorphic>false</anamorphic>
                    <pixelaspectratio>square</pixelaspectratio>
                    <fielddominance>none</fielddominance>
                  </samplecharacteristics>
                </video>
                <audio>
                  <in>0</in>
                  <out>22166.1117</out>
                  <channelcount>2</channelcount>
                  <duration>22166.1117</duration>
                </audio>
              </media>
            </file>
            <link>
              <mediatype>video</mediatype>
              <trackindex>1</trackindex>
              <clipindex>22</clipindex>
            </link>
            <link>
              <mediatype>audio</mediatype>
              <trackindex>1</trackindex>
              <clipindex>22</clipindex>
              <groupindex>22</groupindex>
            </link>
            <link>
              <mediatype>audio</mediatype>
              <trackindex>2</trackindex>
              <clipindex>22</clipindex>
              <groupindex>22</groupindex>
            </link>
          </clipitem>
          <clipitem>
            <name>街ブラ恵比寿02修正文字起こし.mp4</name>
            <enabled>true</enabled>
            <rate>
              <timebase>30</timebase>
              <ntsc>true</ntsc>
            </rate>
            <in>2895.7014</in>
            <out>2943.6533999999997</out>
            <start>2895.7014000000026</start>
            <end>2943.6534000000024</end>
            <file id="街ブラ恵比寿02修正文字起こし.mp4">
              <name>街ブラ恵比寿02修正文字起こし.mp4</name>
              <pathurl>/Volumes/SSD naoki2/街ブラ恵比寿02修正文字起こし.mp4</pathurl>
              <media>
                <video>
                  <samplecharacteristics>
                    <width>720</width>
                    <height>480</height>
                    <anamorphic>false</anamorphic>
                    <pixelaspectratio>square</pixelaspectratio>
                    <fielddominance>none</fielddominance>
                  </samplecharacteristics>
                </video>
                <audio>
                  <in>0</in>
                  <out>22166.1117</out>
                  <channelcount>2</channelcount>
                  <duration>22166.1117</duration>
                </audio>
              </media>
            </file>
            <link>
              <mediatype>video</mediatype>
              <trackindex>1</trackindex>
              <clipindex>23</clipindex>
            </link>
            <link>
              <mediatype>audio</mediatype>
              <trackindex>1</trackindex>
              <clipindex>23</clipindex>
              <groupindex>23</groupindex>
            </link>
            <link>
              <mediatype>audio</mediatype>
              <trackindex>2</trackindex>
              <clipindex>23</clipindex>
              <groupindex>23</groupindex>
            </link>
          </clipitem>
          <clipitem>
            <name>街ブラ恵比寿02修正文字起こし.mp4</name>
            <enabled>true</enabled>
            <rate>
              <timebase>30</timebase>
              <ntsc>true</ntsc>
            </rate>
            <in>2943.6533999999997</in>
            <out>3019.7772</out>
            <start>2943.6534000000024</start>
            <end>3019.7772000000027</end>
            <file id="街ブラ恵比寿02修正文字起こし.mp4">
              <name>街ブラ恵比寿02修正文字起こし.mp4</name>
              <pathurl>/Volumes/SSD naoki2/街ブラ恵比寿02修正文字起こし.mp4</pathurl>
              <media>
                <video>
                  <samplecharacteristics>
                    <width>720</width>
                    <height>480</height>
                    <anamorphic>false</anamorphic>
                    <pixelaspectratio>square</pixelaspectratio>
                    <fielddominance>none</fielddominance>
                  </samplecharacteristics>
                </video>
                <audio>
                  <in>0</in>
                  <out>22166.1117</out>
                  <channelcount>2</channelcount>
                  <duration>22166.1117</duration>
                </audio>
              </media>
            </file>
            <link>
              <mediatype>video</mediatype>
              <trackindex>1</trackindex>
              <clipindex>24</clipindex>
            </link>
            <link>
              <mediatype>audio</mediatype>
              <trackindex>1</trackindex>
              <clipindex>24</clipindex>
              <groupindex>24</groupindex>
            </link>
            <link>
              <mediatype>audio</mediatype>
              <trackindex>2</trackindex>
              <clipindex>24</clipindex>
              <groupindex>24</groupindex>
            </link>
          </clipitem>
          <clipitem>
            <name>街ブラ恵比寿02修正文字起こし.mp4</name>
            <enabled>true</enabled>
            <rate>
              <timebase>30</timebase>
              <ntsc>true</ntsc>
            </rate>
            <in>3019.7772</in>
            <out>3077.6193</out>
            <start>3019.7772000000027</start>
            <end>3077.6193000000026</end>
            <file id="街ブラ恵比寿02修正文字起こし.mp4">
              <name>街ブラ恵比寿02修正文字起こし.mp4</name>
              <pathurl>/Volumes/SSD naoki2/街ブラ恵比寿02修正文字起こし.mp4</pathurl>
              <media>
                <video>
                  <samplecharacteristics>
                    <width>720</width>
                    <height>480</height>
                    <anamorphic>false</anamorphic>
                    <pixelaspectratio>square</pixelaspectratio>
                    <fielddominance>none</fielddominance>
                  </samplecharacteristics>
                </video>
                <audio>
                  <in>0</in>
                  <out>22166.1117</out>
                  <channelcount>2</channelcount>
                  <duration>22166.1117</duration>
                </audio>
              </media>
            </file>
            <link>
              <mediatype>video</mediatype>
              <trackindex>1</trackindex>
              <clipindex>25</clipindex>
            </link>
            <link>
              <mediatype>audio</mediatype>
              <trackindex>1</trackindex>
              <clipindex>25</clipindex>
              <groupindex>25</groupindex>
            </link>
            <link>
              <mediatype>audio</mediatype>
              <trackindex>2</trackindex>
              <clipindex>25</clipindex>
              <groupindex>25</groupindex>
            </link>
          </clipitem>
          <clipitem>
            <name>街ブラ恵比寿02修正文字起こし.mp4</name>
            <enabled>true</enabled>
            <rate>
              <timebase>30</timebase>
              <ntsc>true</ntsc>
            </rate>
            <in>3077.6193</in>
            <out>3145.6512</out>
            <start>3077.6193000000026</start>
            <end>3145.651200000002</end>
            <file id="街ブラ恵比寿02修正文字起こし.mp4">
              <name>街ブラ恵比寿02修正文字起こし.mp4</name>
              <pathurl>/Volumes/SSD naoki2/街ブラ恵比寿02修正文字起こし.mp4</pathurl>
              <media>
                <video>
                  <samplecharacteristics>
                    <width>720</width>
                    <height>480</height>
                    <anamorphic>false</anamorphic>
                    <pixelaspectratio>square</pixelaspectratio>
                    <fielddominance>none</fielddominance>
                  </samplecharacteristics>
                </video>
                <audio>
                  <in>0</in>
                  <out>22166.1117</out>
                  <channelcount>2</channelcount>
                  <duration>22166.1117</duration>
                </audio>
              </media>
            </file>
            <link>
              <mediatype>video</mediatype>
              <trackindex>1</trackindex>
              <clipindex>26</clipindex>
            </link>
            <link>
              <mediatype>audio</mediatype>
              <trackindex>1</trackindex>
              <clipindex>26</clipindex>
              <groupindex>26</groupindex>
            </link>
            <link>
              <mediatype>audio</mediatype>
              <trackindex>2</trackindex>
              <clipindex>26</clipindex>
              <groupindex>26</groupindex>
            </link>
          </clipitem>
          <clipitem>
            <name>街ブラ恵比寿02修正文字起こし.mp4</name>
            <enabled>true</enabled>
            <rate>
              <timebase>30</timebase>
              <ntsc>true</ntsc>
            </rate>
            <in>3145.6512</in>
            <out>3262.234499999999</out>
            <start>3145.651200000002</start>
            <end>3262.234500000002</end>
            <file id="街ブラ恵比寿02修正文字起こし.mp4">
              <name>街ブラ恵比寿02修正文字起こし.mp4</name>
              <pathurl>/Volumes/SSD naoki2/街ブラ恵比寿02修正文字起こし.mp4</pathurl>
              <media>
                <video>
                  <samplecharacteristics>
                    <width>720</width>
                    <height>480</height>
                    <anamorphic>false</anamorphic>
                    <pixelaspectratio>square</pixelaspectratio>
                    <fielddominance>none</fielddominance>
                  </samplecharacteristics>
                </video>
                <audio>
                  <in>0</in>
                  <out>22166.1117</out>
                  <channelcount>2</channelcount>
                  <duration>22166.1117</duration>
                </audio>
              </media>
            </file>
            <link>
              <mediatype>video</mediatype>
              <trackindex>1</trackindex>
              <clipindex>27</clipindex>
            </link>
            <link>
              <mediatype>audio</mediatype>
              <trackindex>1</trackindex>
              <clipindex>27</clipindex>
              <groupindex>27</groupindex>
            </link>
            <link>
              <mediatype>audio</mediatype>
              <trackindex>2</trackindex>
              <clipindex>27</clipindex>
              <groupindex>27</groupindex>
            </link>
          </clipitem>
          <clipitem>
            <name>街ブラ恵比寿02修正文字起こし.mp4</name>
            <enabled>true</enabled>
            <rate>
              <timebase>30</timebase>
              <ntsc>true</ntsc>
            </rate>
            <in>3262.2344999999996</in>
            <out>3286.2104999999992</out>
            <start>3262.234500000002</start>
            <end>3286.2105000000015</end>
            <file id="街ブラ恵比寿02修正文字起こし.mp4">
              <name>街ブラ恵比寿02修正文字起こし.mp4</name>
              <pathurl>/Volumes/SSD naoki2/街ブラ恵比寿02修正文字起こし.mp4</pathurl>
              <media>
                <video>
                  <samplecharacteristics>
                    <width>720</width>
                    <height>480</height>
                    <anamorphic>false</anamorphic>
                    <pixelaspectratio>square</pixelaspectratio>
                    <fielddominance>none</fielddominance>
                  </samplecharacteristics>
                </video>
                <audio>
                  <in>0</in>
                  <out>22166.1117</out>
                  <channelcount>2</channelcount>
                  <duration>22166.1117</duration>
                </audio>
              </media>
            </file>
            <link>
              <mediatype>video</mediatype>
              <trackindex>1</trackindex>
              <clipindex>28</clipindex>
            </link>
            <link>
              <mediatype>audio</mediatype>
              <trackindex>1</trackindex>
              <clipindex>28</clipindex>
              <groupindex>28</groupindex>
            </link>
            <link>
              <mediatype>audio</mediatype>
              <trackindex>2</trackindex>
              <clipindex>28</clipindex>
              <groupindex>28</groupindex>
            </link>
          </clipitem>
          <clipitem>
            <name>街ブラ恵比寿02修正文字起こし.mp4</name>
            <enabled>true</enabled>
            <rate>
              <timebase>30</timebase>
              <ntsc>true</ntsc>
            </rate>
            <in>3286.2105</in>
            <out>3341.6549999999997</out>
            <start>3286.2105000000015</start>
            <end>3341.655000000001</end>
            <file id="街ブラ恵比寿02修正文字起こし.mp4">
              <name>街ブラ恵比寿02修正文字起こし.mp4</name>
              <pathurl>/Volumes/SSD naoki2/街ブラ恵比寿02修正文字起こし.mp4</pathurl>
              <media>
                <video>
                  <samplecharacteristics>
                    <width>720</width>
                    <height>480</height>
                    <anamorphic>false</anamorphic>
                    <pixelaspectratio>square</pixelaspectratio>
                    <fielddominance>none</fielddominance>
                  </samplecharacteristics>
                </video>
                <audio>
                  <in>0</in>
                  <out>22166.1117</out>
                  <channelcount>2</channelcount>
                  <duration>22166.1117</duration>
                </audio>
              </media>
            </file>
            <link>
              <mediatype>video</mediatype>
              <trackindex>1</trackindex>
              <clipindex>29</clipindex>
            </link>
            <link>
              <mediatype>audio</mediatype>
              <trackindex>1</trackindex>
              <clipindex>29</clipindex>
              <groupindex>29</groupindex>
            </link>
            <link>
              <mediatype>audio</mediatype>
              <trackindex>2</trackindex>
              <clipindex>29</clipindex>
              <groupindex>29</groupindex>
            </link>
          </clipitem>
          <clipitem>
            <name>街ブラ恵比寿02修正文字起こし.mp4</name>
            <enabled>true</enabled>
            <rate>
              <timebase>30</timebase>
              <ntsc>true</ntsc>
            </rate>
            <in>3341.6549999999997</in>
            <out>3380.0165999999995</out>
            <start>3341.655000000001</start>
            <end>3380.016600000001</end>
            <file id="街ブラ恵比寿02修正文字起こし.mp4">
              <name>街ブラ恵比寿02修正文字起こし.mp4</name>
              <pathurl>/Volumes/SSD naoki2/街ブラ恵比寿02修正文字起こし.mp4</pathurl>
              <media>
                <video>
                  <samplecharacteristics>
                    <width>720</width>
                    <height>480</height>
                    <anamorphic>false</anamorphic>
                    <pixelaspectratio>square</pixelaspectratio>
                    <fielddominance>none</fielddominance>
                  </samplecharacteristics>
                </video>
                <audio>
                  <in>0</in>
                  <out>22166.1117</out>
                  <channelcount>2</channelcount>
                  <duration>22166.1117</duration>
                </audio>
              </media>
            </file>
            <link>
              <mediatype>video</mediatype>
              <trackindex>1</trackindex>
              <clipindex>30</clipindex>
            </link>
            <link>
              <mediatype>audio</mediatype>
              <trackindex>1</trackindex>
              <clipindex>30</clipindex>
              <groupindex>30</groupindex>
            </link>
            <link>
              <mediatype>audio</mediatype>
              <trackindex>2</trackindex>
              <clipindex>30</clipindex>
              <groupindex>30</groupindex>
            </link>
          </clipitem>
          <clipitem>
            <name>街ブラ恵比寿02修正文字起こし.mp4</name>
            <enabled>true</enabled>
            <rate>
              <timebase>30</timebase>
              <ntsc>true</ntsc>
            </rate>
            <in>3380.0166</in>
            <out>3414.1824</out>
            <start>3380.016600000001</start>
            <end>3414.1824000000006</end>
            <file id="街ブラ恵比寿02修正文字起こし.mp4">
              <name>街ブラ恵比寿02修正文字起こし.mp4</name>
              <pathurl>/Volumes/SSD naoki2/街ブラ恵比寿02修正文字起こし.mp4</pathurl>
              <media>
                <video>
                  <samplecharacteristics>
                    <width>720</width>
                    <height>480</height>
                    <anamorphic>false</anamorphic>
                    <pixelaspectratio>square</pixelaspectratio>
                    <fielddominance>none</fielddominance>
                  </samplecharacteristics>
                </video>
                <audio>
                  <in>0</in>
                  <out>22166.1117</out>
                  <channelcount>2</channelcount>
                  <duration>22166.1117</duration>
                </audio>
              </media>
            </file>
            <link>
              <mediatype>video</mediatype>
              <trackindex>1</trackindex>
              <clipindex>31</clipindex>
            </link>
            <link>
              <mediatype>audio</mediatype>
              <trackindex>1</trackindex>
              <clipindex>31</clipindex>
              <groupindex>31</groupindex>
            </link>
            <link>
              <mediatype>audio</mediatype>
              <trackindex>2</trackindex>
              <clipindex>31</clipindex>
              <groupindex>31</groupindex>
            </link>
          </clipitem>
          <clipitem>
            <name>街ブラ恵比寿02修正文字起こし.mp4</name>
            <enabled>true</enabled>
            <rate>
              <timebase>30</timebase>
              <ntsc>true</ntsc>
            </rate>
            <in>3414.1824</in>
            <out>3445.3511999999996</out>
            <start>3414.1824000000006</start>
            <end>3445.3512000000005</end>
            <file id="街ブラ恵比寿02修正文字起こし.mp4">
              <name>街ブラ恵比寿02修正文字起こし.mp4</name>
              <pathurl>/Volumes/SSD naoki2/街ブラ恵比寿02修正文字起こし.mp4</pathurl>
              <media>
                <video>
                  <samplecharacteristics>
                    <width>720</width>
                    <height>480</height>
                    <anamorphic>false</anamorphic>
                    <pixelaspectratio>square</pixelaspectratio>
                    <fielddominance>none</fielddominance>
                  </samplecharacteristics>
                </video>
                <audio>
                  <in>0</in>
                  <out>22166.1117</out>
                  <channelcount>2</channelcount>
                  <duration>22166.1117</duration>
                </audio>
              </media>
            </file>
            <link>
              <mediatype>video</mediatype>
              <trackindex>1</trackindex>
              <clipindex>32</clipindex>
            </link>
            <link>
              <mediatype>audio</mediatype>
              <trackindex>1</trackindex>
              <clipindex>32</clipindex>
              <groupindex>32</groupindex>
            </link>
            <link>
              <mediatype>audio</mediatype>
              <trackindex>2</trackindex>
              <clipindex>32</clipindex>
              <groupindex>32</groupindex>
            </link>
          </clipitem>
          <clipitem>
            <name>街ブラ恵比寿02修正文字起こし.mp4</name>
            <enabled>true</enabled>
            <rate>
              <timebase>30</timebase>
              <ntsc>true</ntsc>
            </rate>
            <in>3445.3511999999996</in>
            <out>3602.6937000000003</out>
            <start>3445.3512000000005</start>
            <end>3602.693700000001</end>
            <file id="街ブラ恵比寿02修正文字起こし.mp4">
              <name>街ブラ恵比寿02修正文字起こし.mp4</name>
              <pathurl>/Volumes/SSD naoki2/街ブラ恵比寿02修正文字起こし.mp4</pathurl>
              <media>
                <video>
                  <samplecharacteristics>
                    <width>720</width>
                    <height>480</height>
                    <anamorphic>false</anamorphic>
                    <pixelaspectratio>square</pixelaspectratio>
                    <fielddominance>none</fielddominance>
                  </samplecharacteristics>
                </video>
                <audio>
                  <in>0</in>
                  <out>22166.1117</out>
                  <channelcount>2</channelcount>
                  <duration>22166.1117</duration>
                </audio>
              </media>
            </file>
            <link>
              <mediatype>video</mediatype>
              <trackindex>1</trackindex>
              <clipindex>33</clipindex>
            </link>
            <link>
              <mediatype>audio</mediatype>
              <trackindex>1</trackindex>
              <clipindex>33</clipindex>
              <groupindex>33</groupindex>
            </link>
            <link>
              <mediatype>audio</mediatype>
              <trackindex>2</trackindex>
              <clipindex>33</clipindex>
              <groupindex>33</groupindex>
            </link>
          </clipitem>
          <clipitem>
            <name>街ブラ恵比寿02修正文字起こし.mp4</name>
            <enabled>true</enabled>
            <rate>
              <timebase>30</timebase>
              <ntsc>true</ntsc>
            </rate>
            <in>3602.6937</in>
            <out>3648.8474999999994</out>
            <start>3602.693700000001</start>
            <end>3648.8475000000008</end>
            <file id="街ブラ恵比寿02修正文字起こし.mp4">
              <name>街ブラ恵比寿02修正文字起こし.mp4</name>
              <pathurl>/Volumes/SSD naoki2/街ブラ恵比寿02修正文字起こし.mp4</pathurl>
              <media>
                <video>
                  <samplecharacteristics>
                    <width>720</width>
                    <height>480</height>
                    <anamorphic>false</anamorphic>
                    <pixelaspectratio>square</pixelaspectratio>
                    <fielddominance>none</fielddominance>
                  </samplecharacteristics>
                </video>
                <audio>
                  <in>0</in>
                  <out>22166.1117</out>
                  <channelcount>2</channelcount>
                  <duration>22166.1117</duration>
                </audio>
              </media>
            </file>
            <link>
              <mediatype>video</mediatype>
              <trackindex>1</trackindex>
              <clipindex>34</clipindex>
            </link>
            <link>
              <mediatype>audio</mediatype>
              <trackindex>1</trackindex>
              <clipindex>34</clipindex>
              <groupindex>34</groupindex>
            </link>
            <link>
              <mediatype>audio</mediatype>
              <trackindex>2</trackindex>
              <clipindex>34</clipindex>
              <groupindex>34</groupindex>
            </link>
          </clipitem>
          <clipitem>
            <name>街ブラ恵比寿02修正文字起こし.mp4</name>
            <enabled>true</enabled>
            <rate>
              <timebase>30</timebase>
              <ntsc>true</ntsc>
            </rate>
            <in>3648.8475</in>
            <out>3764.831399999999</out>
            <start>3648.8475000000008</start>
            <end>3764.8314</end>
            <file id="街ブラ恵比寿02修正文字起こし.mp4">
              <name>街ブラ恵比寿02修正文字起こし.mp4</name>
              <pathurl>/Volumes/SSD naoki2/街ブラ恵比寿02修正文字起こし.mp4</pathurl>
              <media>
                <video>
                  <samplecharacteristics>
                    <width>720</width>
                    <height>480</height>
                    <anamorphic>false</anamorphic>
                    <pixelaspectratio>square</pixelaspectratio>
                    <fielddominance>none</fielddominance>
                  </samplecharacteristics>
                </video>
                <audio>
                  <in>0</in>
                  <out>22166.1117</out>
                  <channelcount>2</channelcount>
                  <duration>22166.1117</duration>
                </audio>
              </media>
            </file>
            <link>
              <mediatype>video</mediatype>
              <trackindex>1</trackindex>
              <clipindex>35</clipindex>
            </link>
            <link>
              <mediatype>audio</mediatype>
              <trackindex>1</trackindex>
              <clipindex>35</clipindex>
              <groupindex>35</groupindex>
            </link>
            <link>
              <mediatype>audio</mediatype>
              <trackindex>2</trackindex>
              <clipindex>35</clipindex>
              <groupindex>35</groupindex>
            </link>
          </clipitem>
          <clipitem>
            <name>街ブラ恵比寿02修正文字起こし.mp4</name>
            <enabled>true</enabled>
            <rate>
              <timebase>30</timebase>
              <ntsc>true</ntsc>
            </rate>
            <in>3764.8314</in>
            <out>3879.3167999999996</out>
            <start>3764.8314</start>
            <end>3879.3167999999996</end>
            <file id="街ブラ恵比寿02修正文字起こし.mp4">
              <name>街ブラ恵比寿02修正文字起こし.mp4</name>
              <pathurl>/Volumes/SSD naoki2/街ブラ恵比寿02修正文字起こし.mp4</pathurl>
              <media>
                <video>
                  <samplecharacteristics>
                    <width>720</width>
                    <height>480</height>
                    <anamorphic>false</anamorphic>
                    <pixelaspectratio>square</pixelaspectratio>
                    <fielddominance>none</fielddominance>
                  </samplecharacteristics>
                </video>
                <audio>
                  <in>0</in>
                  <out>22166.1117</out>
                  <channelcount>2</channelcount>
                  <duration>22166.1117</duration>
                </audio>
              </media>
            </file>
            <link>
              <mediatype>video</mediatype>
              <trackindex>1</trackindex>
              <clipindex>36</clipindex>
            </link>
            <link>
              <mediatype>audio</mediatype>
              <trackindex>1</trackindex>
              <clipindex>36</clipindex>
              <groupindex>36</groupindex>
            </link>
            <link>
              <mediatype>audio</mediatype>
              <trackindex>2</trackindex>
              <clipindex>36</clipindex>
              <groupindex>36</groupindex>
            </link>
          </clipitem>
          <clipitem>
            <name>街ブラ恵比寿02修正文字起こし.mp4</name>
            <enabled>true</enabled>
            <rate>
              <timebase>30</timebase>
              <ntsc>true</ntsc>
            </rate>
            <in>3879.3167999999996</in>
            <out>3966.229799999999</out>
            <start>3879.3167999999996</start>
            <end>3966.229799999999</end>
            <file id="街ブラ恵比寿02修正文字起こし.mp4">
              <name>街ブラ恵比寿02修正文字起こし.mp4</name>
              <pathurl>/Volumes/SSD naoki2/街ブラ恵比寿02修正文字起こし.mp4</pathurl>
              <media>
                <video>
                  <samplecharacteristics>
                    <width>720</width>
                    <height>480</height>
                    <anamorphic>false</anamorphic>
                    <pixelaspectratio>square</pixelaspectratio>
                    <fielddominance>none</fielddominance>
                  </samplecharacteristics>
                </video>
                <audio>
                  <in>0</in>
                  <out>22166.1117</out>
                  <channelcount>2</channelcount>
                  <duration>22166.1117</duration>
                </audio>
              </media>
            </file>
            <link>
              <mediatype>video</mediatype>
              <trackindex>1</trackindex>
              <clipindex>37</clipindex>
            </link>
            <link>
              <mediatype>audio</mediatype>
              <trackindex>1</trackindex>
              <clipindex>37</clipindex>
              <groupindex>37</groupindex>
            </link>
            <link>
              <mediatype>audio</mediatype>
              <trackindex>2</trackindex>
              <clipindex>37</clipindex>
              <groupindex>37</groupindex>
            </link>
          </clipitem>
          <clipitem>
            <name>街ブラ恵比寿02修正文字起こし.mp4</name>
            <enabled>true</enabled>
            <rate>
              <timebase>30</timebase>
              <ntsc>true</ntsc>
            </rate>
            <in>3966.2298</in>
            <out>3991.4046</out>
            <start>3966.229799999999</start>
            <end>3991.4045999999994</end>
            <file id="街ブラ恵比寿02修正文字起こし.mp4">
              <name>街ブラ恵比寿02修正文字起こし.mp4</name>
              <pathurl>/Volumes/SSD naoki2/街ブラ恵比寿02修正文字起こし.mp4</pathurl>
              <media>
                <video>
                  <samplecharacteristics>
                    <width>720</width>
                    <height>480</height>
                    <anamorphic>false</anamorphic>
                    <pixelaspectratio>square</pixelaspectratio>
                    <fielddominance>none</fielddominance>
                  </samplecharacteristics>
                </video>
                <audio>
                  <in>0</in>
                  <out>22166.1117</out>
                  <channelcount>2</channelcount>
                  <duration>22166.1117</duration>
                </audio>
              </media>
            </file>
            <link>
              <mediatype>video</mediatype>
              <trackindex>1</trackindex>
              <clipindex>38</clipindex>
            </link>
            <link>
              <mediatype>audio</mediatype>
              <trackindex>1</trackindex>
              <clipindex>38</clipindex>
              <groupindex>38</groupindex>
            </link>
            <link>
              <mediatype>audio</mediatype>
              <trackindex>2</trackindex>
              <clipindex>38</clipindex>
              <groupindex>38</groupindex>
            </link>
          </clipitem>
          <clipitem>
            <name>街ブラ恵比寿02修正文字起こし.mp4</name>
            <enabled>true</enabled>
            <rate>
              <timebase>30</timebase>
              <ntsc>true</ntsc>
            </rate>
            <in>3991.4046</in>
            <out>4076.519400000001</out>
            <start>3991.4045999999994</start>
            <end>4076.5194</end>
            <file id="街ブラ恵比寿02修正文字起こし.mp4">
              <name>街ブラ恵比寿02修正文字起こし.mp4</name>
              <pathurl>/Volumes/SSD naoki2/街ブラ恵比寿02修正文字起こし.mp4</pathurl>
              <media>
                <video>
                  <samplecharacteristics>
                    <width>720</width>
                    <height>480</height>
                    <anamorphic>false</anamorphic>
                    <pixelaspectratio>square</pixelaspectratio>
                    <fielddominance>none</fielddominance>
                  </samplecharacteristics>
                </video>
                <audio>
                  <in>0</in>
                  <out>22166.1117</out>
                  <channelcount>2</channelcount>
                  <duration>22166.1117</duration>
                </audio>
              </media>
            </file>
            <link>
              <mediatype>video</mediatype>
              <trackindex>1</trackindex>
              <clipindex>39</clipindex>
            </link>
            <link>
              <mediatype>audio</mediatype>
              <trackindex>1</trackindex>
              <clipindex>39</clipindex>
              <groupindex>39</groupindex>
            </link>
            <link>
              <mediatype>audio</mediatype>
              <trackindex>2</trackindex>
              <clipindex>39</clipindex>
              <groupindex>39</groupindex>
            </link>
          </clipitem>
          <clipitem>
            <name>街ブラ恵比寿02修正文字起こし.mp4</name>
            <enabled>true</enabled>
            <rate>
              <timebase>30</timebase>
              <ntsc>true</ntsc>
            </rate>
            <in>4076.5194</in>
            <out>4152.942899999999</out>
            <start>4076.5194</start>
            <end>4152.942899999999</end>
            <file id="街ブラ恵比寿02修正文字起こし.mp4">
              <name>街ブラ恵比寿02修正文字起こし.mp4</name>
              <pathurl>/Volumes/SSD naoki2/街ブラ恵比寿02修正文字起こし.mp4</pathurl>
              <media>
                <video>
                  <samplecharacteristics>
                    <width>720</width>
                    <height>480</height>
                    <anamorphic>false</anamorphic>
                    <pixelaspectratio>square</pixelaspectratio>
                    <fielddominance>none</fielddominance>
                  </samplecharacteristics>
                </video>
                <audio>
                  <in>0</in>
                  <out>22166.1117</out>
                  <channelcount>2</channelcount>
                  <duration>22166.1117</duration>
                </audio>
              </media>
            </file>
            <link>
              <mediatype>video</mediatype>
              <trackindex>1</trackindex>
              <clipindex>40</clipindex>
            </link>
            <link>
              <mediatype>audio</mediatype>
              <trackindex>1</trackindex>
              <clipindex>40</clipindex>
              <groupindex>40</groupindex>
            </link>
            <link>
              <mediatype>audio</mediatype>
              <trackindex>2</trackindex>
              <clipindex>40</clipindex>
              <groupindex>40</groupindex>
            </link>
          </clipitem>
          <clipitem>
            <name>街ブラ恵比寿02修正文字起こし.mp4</name>
            <enabled>true</enabled>
            <rate>
              <timebase>30</timebase>
              <ntsc>true</ntsc>
            </rate>
            <in>4152.9429</in>
            <out>4253.042700000001</out>
            <start>4152.942899999999</start>
            <end>4253.0427</end>
            <file id="街ブラ恵比寿02修正文字起こし.mp4">
              <name>街ブラ恵比寿02修正文字起こし.mp4</name>
              <pathurl>/Volumes/SSD naoki2/街ブラ恵比寿02修正文字起こし.mp4</pathurl>
              <media>
                <video>
                  <samplecharacteristics>
                    <width>720</width>
                    <height>480</height>
                    <anamorphic>false</anamorphic>
                    <pixelaspectratio>square</pixelaspectratio>
                    <fielddominance>none</fielddominance>
                  </samplecharacteristics>
                </video>
                <audio>
                  <in>0</in>
                  <out>22166.1117</out>
                  <channelcount>2</channelcount>
                  <duration>22166.1117</duration>
                </audio>
              </media>
            </file>
            <link>
              <mediatype>video</mediatype>
              <trackindex>1</trackindex>
              <clipindex>41</clipindex>
            </link>
            <link>
              <mediatype>audio</mediatype>
              <trackindex>1</trackindex>
              <clipindex>41</clipindex>
              <groupindex>41</groupindex>
            </link>
            <link>
              <mediatype>audio</mediatype>
              <trackindex>2</trackindex>
              <clipindex>41</clipindex>
              <groupindex>41</groupindex>
            </link>
          </clipitem>
          <clipitem>
            <name>街ブラ恵比寿02修正文字起こし.mp4</name>
            <enabled>true</enabled>
            <rate>
              <timebase>30</timebase>
              <ntsc>true</ntsc>
            </rate>
            <in>4253.0427</in>
            <out>4411.284300000001</out>
            <start>4253.0427</start>
            <end>4411.284300000001</end>
            <file id="街ブラ恵比寿02修正文字起こし.mp4">
              <name>街ブラ恵比寿02修正文字起こし.mp4</name>
              <pathurl>/Volumes/SSD naoki2/街ブラ恵比寿02修正文字起こし.mp4</pathurl>
              <media>
                <video>
                  <samplecharacteristics>
                    <width>720</width>
                    <height>480</height>
                    <anamorphic>false</anamorphic>
                    <pixelaspectratio>square</pixelaspectratio>
                    <fielddominance>none</fielddominance>
                  </samplecharacteristics>
                </video>
                <audio>
                  <in>0</in>
                  <out>22166.1117</out>
                  <channelcount>2</channelcount>
                  <duration>22166.1117</duration>
                </audio>
              </media>
            </file>
            <link>
              <mediatype>video</mediatype>
              <trackindex>1</trackindex>
              <clipindex>42</clipindex>
            </link>
            <link>
              <mediatype>audio</mediatype>
              <trackindex>1</trackindex>
              <clipindex>42</clipindex>
              <groupindex>42</groupindex>
            </link>
            <link>
              <mediatype>audio</mediatype>
              <trackindex>2</trackindex>
              <clipindex>42</clipindex>
              <groupindex>42</groupindex>
            </link>
          </clipitem>
          <clipitem>
            <name>街ブラ恵比寿02修正文字起こし.mp4</name>
            <enabled>true</enabled>
            <rate>
              <timebase>30</timebase>
              <ntsc>true</ntsc>
            </rate>
            <in>4411.284299999999</in>
            <out>4682.2131</out>
            <start>4411.284300000001</start>
            <end>4682.213100000001</end>
            <file id="街ブラ恵比寿02修正文字起こし.mp4">
              <name>街ブラ恵比寿02修正文字起こし.mp4</name>
              <pathurl>/Volumes/SSD naoki2/街ブラ恵比寿02修正文字起こし.mp4</pathurl>
              <media>
                <video>
                  <samplecharacteristics>
                    <width>720</width>
                    <height>480</height>
                    <anamorphic>false</anamorphic>
                    <pixelaspectratio>square</pixelaspectratio>
                    <fielddominance>none</fielddominance>
                  </samplecharacteristics>
                </video>
                <audio>
                  <in>0</in>
                  <out>22166.1117</out>
                  <channelcount>2</channelcount>
                  <duration>22166.1117</duration>
                </audio>
              </media>
            </file>
            <link>
              <mediatype>video</mediatype>
              <trackindex>1</trackindex>
              <clipindex>43</clipindex>
            </link>
            <link>
              <mediatype>audio</mediatype>
              <trackindex>1</trackindex>
              <clipindex>43</clipindex>
              <groupindex>43</groupindex>
            </link>
            <link>
              <mediatype>audio</mediatype>
              <trackindex>2</trackindex>
              <clipindex>43</clipindex>
              <groupindex>43</groupindex>
            </link>
          </clipitem>
          <clipitem>
            <name>街ブラ恵比寿02修正文字起こし.mp4</name>
            <enabled>true</enabled>
            <rate>
              <timebase>30</timebase>
              <ntsc>true</ntsc>
            </rate>
            <in>4682.2131</in>
            <out>4748.746499999999</out>
            <start>4682.213100000001</start>
            <end>4748.746500000001</end>
            <file id="街ブラ恵比寿02修正文字起こし.mp4">
              <name>街ブラ恵比寿02修正文字起こし.mp4</name>
              <pathurl>/Volumes/SSD naoki2/街ブラ恵比寿02修正文字起こし.mp4</pathurl>
              <media>
                <video>
                  <samplecharacteristics>
                    <width>720</width>
                    <height>480</height>
                    <anamorphic>false</anamorphic>
                    <pixelaspectratio>square</pixelaspectratio>
                    <fielddominance>none</fielddominance>
                  </samplecharacteristics>
                </video>
                <audio>
                  <in>0</in>
                  <out>22166.1117</out>
                  <channelcount>2</channelcount>
                  <duration>22166.1117</duration>
                </audio>
              </media>
            </file>
            <link>
              <mediatype>video</mediatype>
              <trackindex>1</trackindex>
              <clipindex>44</clipindex>
            </link>
            <link>
              <mediatype>audio</mediatype>
              <trackindex>1</trackindex>
              <clipindex>44</clipindex>
              <groupindex>44</groupindex>
            </link>
            <link>
              <mediatype>audio</mediatype>
              <trackindex>2</trackindex>
              <clipindex>44</clipindex>
              <groupindex>44</groupindex>
            </link>
          </clipitem>
          <clipitem>
            <name>街ブラ恵比寿02修正文字起こし.mp4</name>
            <enabled>true</enabled>
            <rate>
              <timebase>30</timebase>
              <ntsc>true</ntsc>
            </rate>
            <in>4748.746499999999</in>
            <out>5004.390600000001</out>
            <start>4748.746500000001</start>
            <end>5004.390600000002</end>
            <file id="街ブラ恵比寿02修正文字起こし.mp4">
              <name>街ブラ恵比寿02修正文字起こし.mp4</name>
              <pathurl>/Volumes/SSD naoki2/街ブラ恵比寿02修正文字起こし.mp4</pathurl>
              <media>
                <video>
                  <samplecharacteristics>
                    <width>720</width>
                    <height>480</height>
                    <anamorphic>false</anamorphic>
                    <pixelaspectratio>square</pixelaspectratio>
                    <fielddominance>none</fielddominance>
                  </samplecharacteristics>
                </video>
                <audio>
                  <in>0</in>
                  <out>22166.1117</out>
                  <channelcount>2</channelcount>
                  <duration>22166.1117</duration>
                </audio>
              </media>
            </file>
            <link>
              <mediatype>video</mediatype>
              <trackindex>1</trackindex>
              <clipindex>45</clipindex>
            </link>
            <link>
              <mediatype>audio</mediatype>
              <trackindex>1</trackindex>
              <clipindex>45</clipindex>
              <groupindex>45</groupindex>
            </link>
            <link>
              <mediatype>audio</mediatype>
              <trackindex>2</trackindex>
              <clipindex>45</clipindex>
              <groupindex>45</groupindex>
            </link>
          </clipitem>
          <clipitem>
            <name>街ブラ恵比寿02修正文字起こし.mp4</name>
            <enabled>true</enabled>
            <rate>
              <timebase>30</timebase>
              <ntsc>true</ntsc>
            </rate>
            <in>5004.3906</in>
            <out>5151.5433</out>
            <start>5004.390600000002</start>
            <end>5151.543300000003</end>
            <file id="街ブラ恵比寿02修正文字起こし.mp4">
              <name>街ブラ恵比寿02修正文字起こし.mp4</name>
              <pathurl>/Volumes/SSD naoki2/街ブラ恵比寿02修正文字起こし.mp4</pathurl>
              <media>
                <video>
                  <samplecharacteristics>
                    <width>720</width>
                    <height>480</height>
                    <anamorphic>false</anamorphic>
                    <pixelaspectratio>square</pixelaspectratio>
                    <fielddominance>none</fielddominance>
                  </samplecharacteristics>
                </video>
                <audio>
                  <in>0</in>
                  <out>22166.1117</out>
                  <channelcount>2</channelcount>
                  <duration>22166.1117</duration>
                </audio>
              </media>
            </file>
            <link>
              <mediatype>video</mediatype>
              <trackindex>1</trackindex>
              <clipindex>46</clipindex>
            </link>
            <link>
              <mediatype>audio</mediatype>
              <trackindex>1</trackindex>
              <clipindex>46</clipindex>
              <groupindex>46</groupindex>
            </link>
            <link>
              <mediatype>audio</mediatype>
              <trackindex>2</trackindex>
              <clipindex>46</clipindex>
              <groupindex>46</groupindex>
            </link>
          </clipitem>
          <clipitem>
            <name>街ブラ恵比寿02修正文字起こし.mp4</name>
            <enabled>true</enabled>
            <rate>
              <timebase>30</timebase>
              <ntsc>true</ntsc>
            </rate>
            <in>5151.543299999999</in>
            <out>5229.465299999999</out>
            <start>5151.543300000003</start>
            <end>5229.465300000003</end>
            <file id="街ブラ恵比寿02修正文字起こし.mp4">
              <name>街ブラ恵比寿02修正文字起こし.mp4</name>
              <pathurl>/Volumes/SSD naoki2/街ブラ恵比寿02修正文字起こし.mp4</pathurl>
              <media>
                <video>
                  <samplecharacteristics>
                    <width>720</width>
                    <height>480</height>
                    <anamorphic>false</anamorphic>
                    <pixelaspectratio>square</pixelaspectratio>
                    <fielddominance>none</fielddominance>
                  </samplecharacteristics>
                </video>
                <audio>
                  <in>0</in>
                  <out>22166.1117</out>
                  <channelcount>2</channelcount>
                  <duration>22166.1117</duration>
                </audio>
              </media>
            </file>
            <link>
              <mediatype>video</mediatype>
              <trackindex>1</trackindex>
              <clipindex>47</clipindex>
            </link>
            <link>
              <mediatype>audio</mediatype>
              <trackindex>1</trackindex>
              <clipindex>47</clipindex>
              <groupindex>47</groupindex>
            </link>
            <link>
              <mediatype>audio</mediatype>
              <trackindex>2</trackindex>
              <clipindex>47</clipindex>
              <groupindex>47</groupindex>
            </link>
          </clipitem>
          <clipitem>
            <name>街ブラ恵比寿02修正文字起こし.mp4</name>
            <enabled>true</enabled>
            <rate>
              <timebase>30</timebase>
              <ntsc>true</ntsc>
            </rate>
            <in>5229.4653</in>
            <out>5296.598100000001</out>
            <start>5229.465300000003</start>
            <end>5296.598100000004</end>
            <file id="街ブラ恵比寿02修正文字起こし.mp4">
              <name>街ブラ恵比寿02修正文字起こし.mp4</name>
              <pathurl>/Volumes/SSD naoki2/街ブラ恵比寿02修正文字起こし.mp4</pathurl>
              <media>
                <video>
                  <samplecharacteristics>
                    <width>720</width>
                    <height>480</height>
                    <anamorphic>false</anamorphic>
                    <pixelaspectratio>square</pixelaspectratio>
                    <fielddominance>none</fielddominance>
                  </samplecharacteristics>
                </video>
                <audio>
                  <in>0</in>
                  <out>22166.1117</out>
                  <channelcount>2</channelcount>
                  <duration>22166.1117</duration>
                </audio>
              </media>
            </file>
            <link>
              <mediatype>video</mediatype>
              <trackindex>1</trackindex>
              <clipindex>48</clipindex>
            </link>
            <link>
              <mediatype>audio</mediatype>
              <trackindex>1</trackindex>
              <clipindex>48</clipindex>
              <groupindex>48</groupindex>
            </link>
            <link>
              <mediatype>audio</mediatype>
              <trackindex>2</trackindex>
              <clipindex>48</clipindex>
              <groupindex>48</groupindex>
            </link>
          </clipitem>
          <clipitem>
            <name>街ブラ恵比寿02修正文字起こし.mp4</name>
            <enabled>true</enabled>
            <rate>
              <timebase>30</timebase>
              <ntsc>true</ntsc>
            </rate>
            <in>5296.598099999999</in>
            <out>5348.446199999999</out>
            <start>5296.598100000004</start>
            <end>5348.446200000003</end>
            <file id="街ブラ恵比寿02修正文字起こし.mp4">
              <name>街ブラ恵比寿02修正文字起こし.mp4</name>
              <pathurl>/Volumes/SSD naoki2/街ブラ恵比寿02修正文字起こし.mp4</pathurl>
              <media>
                <video>
                  <samplecharacteristics>
                    <width>720</width>
                    <height>480</height>
                    <anamorphic>false</anamorphic>
                    <pixelaspectratio>square</pixelaspectratio>
                    <fielddominance>none</fielddominance>
                  </samplecharacteristics>
                </video>
                <audio>
                  <in>0</in>
                  <out>22166.1117</out>
                  <channelcount>2</channelcount>
                  <duration>22166.1117</duration>
                </audio>
              </media>
            </file>
            <link>
              <mediatype>video</mediatype>
              <trackindex>1</trackindex>
              <clipindex>49</clipindex>
            </link>
            <link>
              <mediatype>audio</mediatype>
              <trackindex>1</trackindex>
              <clipindex>49</clipindex>
              <groupindex>49</groupindex>
            </link>
            <link>
              <mediatype>audio</mediatype>
              <trackindex>2</trackindex>
              <clipindex>49</clipindex>
              <groupindex>49</groupindex>
            </link>
          </clipitem>
          <clipitem>
            <name>街ブラ恵比寿02修正文字起こし.mp4</name>
            <enabled>true</enabled>
            <rate>
              <timebase>30</timebase>
              <ntsc>true</ntsc>
            </rate>
            <in>5348.4462</in>
            <out>5429.9646</out>
            <start>5348.446200000003</start>
            <end>5429.964600000003</end>
            <file id="街ブラ恵比寿02修正文字起こし.mp4">
              <name>街ブラ恵比寿02修正文字起こし.mp4</name>
              <pathurl>/Volumes/SSD naoki2/街ブラ恵比寿02修正文字起こし.mp4</pathurl>
              <media>
                <video>
                  <samplecharacteristics>
                    <width>720</width>
                    <height>480</height>
                    <anamorphic>false</anamorphic>
                    <pixelaspectratio>square</pixelaspectratio>
                    <fielddominance>none</fielddominance>
                  </samplecharacteristics>
                </video>
                <audio>
                  <in>0</in>
                  <out>22166.1117</out>
                  <channelcount>2</channelcount>
                  <duration>22166.1117</duration>
                </audio>
              </media>
            </file>
            <link>
              <mediatype>video</mediatype>
              <trackindex>1</trackindex>
              <clipindex>50</clipindex>
            </link>
            <link>
              <mediatype>audio</mediatype>
              <trackindex>1</trackindex>
              <clipindex>50</clipindex>
              <groupindex>50</groupindex>
            </link>
            <link>
              <mediatype>audio</mediatype>
              <trackindex>2</trackindex>
              <clipindex>50</clipindex>
              <groupindex>50</groupindex>
            </link>
          </clipitem>
          <clipitem>
            <name>街ブラ恵比寿02修正文字起こし.mp4</name>
            <enabled>true</enabled>
            <rate>
              <timebase>30</timebase>
              <ntsc>true</ntsc>
            </rate>
            <in>5429.9646</in>
            <out>5474.919599999999</out>
            <start>5429.964600000003</start>
            <end>5474.919600000003</end>
            <file id="街ブラ恵比寿02修正文字起こし.mp4">
              <name>街ブラ恵比寿02修正文字起こし.mp4</name>
              <pathurl>/Volumes/SSD naoki2/街ブラ恵比寿02修正文字起こし.mp4</pathurl>
              <media>
                <video>
                  <samplecharacteristics>
                    <width>720</width>
                    <height>480</height>
                    <anamorphic>false</anamorphic>
                    <pixelaspectratio>square</pixelaspectratio>
                    <fielddominance>none</fielddominance>
                  </samplecharacteristics>
                </video>
                <audio>
                  <in>0</in>
                  <out>22166.1117</out>
                  <channelcount>2</channelcount>
                  <duration>22166.1117</duration>
                </audio>
              </media>
            </file>
            <link>
              <mediatype>video</mediatype>
              <trackindex>1</trackindex>
              <clipindex>51</clipindex>
            </link>
            <link>
              <mediatype>audio</mediatype>
              <trackindex>1</trackindex>
              <clipindex>51</clipindex>
              <groupindex>51</groupindex>
            </link>
            <link>
              <mediatype>audio</mediatype>
              <trackindex>2</trackindex>
              <clipindex>51</clipindex>
              <groupindex>51</groupindex>
            </link>
          </clipitem>
          <clipitem>
            <name>街ブラ恵比寿02修正文字起こし.mp4</name>
            <enabled>true</enabled>
            <rate>
              <timebase>30</timebase>
              <ntsc>true</ntsc>
            </rate>
            <in>5474.9196</in>
            <out>5617.576799999998</out>
            <start>5474.919600000003</start>
            <end>5617.576800000001</end>
            <file id="街ブラ恵比寿02修正文字起こし.mp4">
              <name>街ブラ恵比寿02修正文字起こし.mp4</name>
              <pathurl>/Volumes/SSD naoki2/街ブラ恵比寿02修正文字起こし.mp4</pathurl>
              <media>
                <video>
                  <samplecharacteristics>
                    <width>720</width>
                    <height>480</height>
                    <anamorphic>false</anamorphic>
                    <pixelaspectratio>square</pixelaspectratio>
                    <fielddominance>none</fielddominance>
                  </samplecharacteristics>
                </video>
                <audio>
                  <in>0</in>
                  <out>22166.1117</out>
                  <channelcount>2</channelcount>
                  <duration>22166.1117</duration>
                </audio>
              </media>
            </file>
            <link>
              <mediatype>video</mediatype>
              <trackindex>1</trackindex>
              <clipindex>52</clipindex>
            </link>
            <link>
              <mediatype>audio</mediatype>
              <trackindex>1</trackindex>
              <clipindex>52</clipindex>
              <groupindex>52</groupindex>
            </link>
            <link>
              <mediatype>audio</mediatype>
              <trackindex>2</trackindex>
              <clipindex>52</clipindex>
              <groupindex>52</groupindex>
            </link>
          </clipitem>
          <clipitem>
            <name>街ブラ恵比寿02修正文字起こし.mp4</name>
            <enabled>true</enabled>
            <rate>
              <timebase>30</timebase>
              <ntsc>true</ntsc>
            </rate>
            <in>5617.5768</in>
            <out>5693.4009</out>
            <start>5617.576800000001</start>
            <end>5693.400900000001</end>
            <file id="街ブラ恵比寿02修正文字起こし.mp4">
              <name>街ブラ恵比寿02修正文字起こし.mp4</name>
              <pathurl>/Volumes/SSD naoki2/街ブラ恵比寿02修正文字起こし.mp4</pathurl>
              <media>
                <video>
                  <samplecharacteristics>
                    <width>720</width>
                    <height>480</height>
                    <anamorphic>false</anamorphic>
                    <pixelaspectratio>square</pixelaspectratio>
                    <fielddominance>none</fielddominance>
                  </samplecharacteristics>
                </video>
                <audio>
                  <in>0</in>
                  <out>22166.1117</out>
                  <channelcount>2</channelcount>
                  <duration>22166.1117</duration>
                </audio>
              </media>
            </file>
            <link>
              <mediatype>video</mediatype>
              <trackindex>1</trackindex>
              <clipindex>53</clipindex>
            </link>
            <link>
              <mediatype>audio</mediatype>
              <trackindex>1</trackindex>
              <clipindex>53</clipindex>
              <groupindex>53</groupindex>
            </link>
            <link>
              <mediatype>audio</mediatype>
              <trackindex>2</trackindex>
              <clipindex>53</clipindex>
              <groupindex>53</groupindex>
            </link>
          </clipitem>
          <clipitem>
            <name>街ブラ恵比寿02修正文字起こし.mp4</name>
            <enabled>true</enabled>
            <rate>
              <timebase>30</timebase>
              <ntsc>true</ntsc>
            </rate>
            <in>5693.4009</in>
            <out>5787.206999999999</out>
            <start>5693.400900000001</start>
            <end>5787.207</end>
            <file id="街ブラ恵比寿02修正文字起こし.mp4">
              <name>街ブラ恵比寿02修正文字起こし.mp4</name>
              <pathurl>/Volumes/SSD naoki2/街ブラ恵比寿02修正文字起こし.mp4</pathurl>
              <media>
                <video>
                  <samplecharacteristics>
                    <width>720</width>
                    <height>480</height>
                    <anamorphic>false</anamorphic>
                    <pixelaspectratio>square</pixelaspectratio>
                    <fielddominance>none</fielddominance>
                  </samplecharacteristics>
                </video>
                <audio>
                  <in>0</in>
                  <out>22166.1117</out>
                  <channelcount>2</channelcount>
                  <duration>22166.1117</duration>
                </audio>
              </media>
            </file>
            <link>
              <mediatype>video</mediatype>
              <trackindex>1</trackindex>
              <clipindex>54</clipindex>
            </link>
            <link>
              <mediatype>audio</mediatype>
              <trackindex>1</trackindex>
              <clipindex>54</clipindex>
              <groupindex>54</groupindex>
            </link>
            <link>
              <mediatype>audio</mediatype>
              <trackindex>2</trackindex>
              <clipindex>54</clipindex>
              <groupindex>54</groupindex>
            </link>
          </clipitem>
          <clipitem>
            <name>街ブラ恵比寿02修正文字起こし.mp4</name>
            <enabled>true</enabled>
            <rate>
              <timebase>30</timebase>
              <ntsc>true</ntsc>
            </rate>
            <in>5787.206999999999</in>
            <out>5823.170999999999</out>
            <start>5787.207</start>
            <end>5823.171</end>
            <file id="街ブラ恵比寿02修正文字起こし.mp4">
              <name>街ブラ恵比寿02修正文字起こし.mp4</name>
              <pathurl>/Volumes/SSD naoki2/街ブラ恵比寿02修正文字起こし.mp4</pathurl>
              <media>
                <video>
                  <samplecharacteristics>
                    <width>720</width>
                    <height>480</height>
                    <anamorphic>false</anamorphic>
                    <pixelaspectratio>square</pixelaspectratio>
                    <fielddominance>none</fielddominance>
                  </samplecharacteristics>
                </video>
                <audio>
                  <in>0</in>
                  <out>22166.1117</out>
                  <channelcount>2</channelcount>
                  <duration>22166.1117</duration>
                </audio>
              </media>
            </file>
            <link>
              <mediatype>video</mediatype>
              <trackindex>1</trackindex>
              <clipindex>55</clipindex>
            </link>
            <link>
              <mediatype>audio</mediatype>
              <trackindex>1</trackindex>
              <clipindex>55</clipindex>
              <groupindex>55</groupindex>
            </link>
            <link>
              <mediatype>audio</mediatype>
              <trackindex>2</trackindex>
              <clipindex>55</clipindex>
              <groupindex>55</groupindex>
            </link>
          </clipitem>
          <clipitem>
            <name>街ブラ恵比寿02修正文字起こし.mp4</name>
            <enabled>true</enabled>
            <rate>
              <timebase>30</timebase>
              <ntsc>true</ntsc>
            </rate>
            <in>5823.171</in>
            <out>6072.5214000000005</out>
            <start>5823.171</start>
            <end>6072.5214000000005</end>
            <file id="街ブラ恵比寿02修正文字起こし.mp4">
              <name>街ブラ恵比寿02修正文字起こし.mp4</name>
              <pathurl>/Volumes/SSD naoki2/街ブラ恵比寿02修正文字起こし.mp4</pathurl>
              <media>
                <video>
                  <samplecharacteristics>
                    <width>720</width>
                    <height>480</height>
                    <anamorphic>false</anamorphic>
                    <pixelaspectratio>square</pixelaspectratio>
                    <fielddominance>none</fielddominance>
                  </samplecharacteristics>
                </video>
                <audio>
                  <in>0</in>
                  <out>22166.1117</out>
                  <channelcount>2</channelcount>
                  <duration>22166.1117</duration>
                </audio>
              </media>
            </file>
            <link>
              <mediatype>video</mediatype>
              <trackindex>1</trackindex>
              <clipindex>56</clipindex>
            </link>
            <link>
              <mediatype>audio</mediatype>
              <trackindex>1</trackindex>
              <clipindex>56</clipindex>
              <groupindex>56</groupindex>
            </link>
            <link>
              <mediatype>audio</mediatype>
              <trackindex>2</trackindex>
              <clipindex>56</clipindex>
              <groupindex>56</groupindex>
            </link>
          </clipitem>
          <clipitem>
            <name>街ブラ恵比寿02修正文字起こし.mp4</name>
            <enabled>true</enabled>
            <rate>
              <timebase>30</timebase>
              <ntsc>true</ntsc>
            </rate>
            <in>6072.5214</in>
            <out>6121.072799999998</out>
            <start>6072.5214000000005</start>
            <end>6121.072799999999</end>
            <file id="街ブラ恵比寿02修正文字起こし.mp4">
              <name>街ブラ恵比寿02修正文字起こし.mp4</name>
              <pathurl>/Volumes/SSD naoki2/街ブラ恵比寿02修正文字起こし.mp4</pathurl>
              <media>
                <video>
                  <samplecharacteristics>
                    <width>720</width>
                    <height>480</height>
                    <anamorphic>false</anamorphic>
                    <pixelaspectratio>square</pixelaspectratio>
                    <fielddominance>none</fielddominance>
                  </samplecharacteristics>
                </video>
                <audio>
                  <in>0</in>
                  <out>22166.1117</out>
                  <channelcount>2</channelcount>
                  <duration>22166.1117</duration>
                </audio>
              </media>
            </file>
            <link>
              <mediatype>video</mediatype>
              <trackindex>1</trackindex>
              <clipindex>57</clipindex>
            </link>
            <link>
              <mediatype>audio</mediatype>
              <trackindex>1</trackindex>
              <clipindex>57</clipindex>
              <groupindex>57</groupindex>
            </link>
            <link>
              <mediatype>audio</mediatype>
              <trackindex>2</trackindex>
              <clipindex>57</clipindex>
              <groupindex>57</groupindex>
            </link>
          </clipitem>
          <clipitem>
            <name>街ブラ恵比寿02修正文字起こし.mp4</name>
            <enabled>true</enabled>
            <rate>
              <timebase>30</timebase>
              <ntsc>true</ntsc>
            </rate>
            <in>6121.0728</in>
            <out>6163.0307999999995</out>
            <start>6121.072799999999</start>
            <end>6163.030799999999</end>
            <file id="街ブラ恵比寿02修正文字起こし.mp4">
              <name>街ブラ恵比寿02修正文字起こし.mp4</name>
              <pathurl>/Volumes/SSD naoki2/街ブラ恵比寿02修正文字起こし.mp4</pathurl>
              <media>
                <video>
                  <samplecharacteristics>
                    <width>720</width>
                    <height>480</height>
                    <anamorphic>false</anamorphic>
                    <pixelaspectratio>square</pixelaspectratio>
                    <fielddominance>none</fielddominance>
                  </samplecharacteristics>
                </video>
                <audio>
                  <in>0</in>
                  <out>22166.1117</out>
                  <channelcount>2</channelcount>
                  <duration>22166.1117</duration>
                </audio>
              </media>
            </file>
            <link>
              <mediatype>video</mediatype>
              <trackindex>1</trackindex>
              <clipindex>58</clipindex>
            </link>
            <link>
              <mediatype>audio</mediatype>
              <trackindex>1</trackindex>
              <clipindex>58</clipindex>
              <groupindex>58</groupindex>
            </link>
            <link>
              <mediatype>audio</mediatype>
              <trackindex>2</trackindex>
              <clipindex>58</clipindex>
              <groupindex>58</groupindex>
            </link>
          </clipitem>
          <clipitem>
            <name>街ブラ恵比寿02修正文字起こし.mp4</name>
            <enabled>true</enabled>
            <rate>
              <timebase>30</timebase>
              <ntsc>true</ntsc>
            </rate>
            <in>6163.0307999999995</in>
            <out>6223.5702</out>
            <start>6163.030799999999</start>
            <end>6223.570199999999</end>
            <file id="街ブラ恵比寿02修正文字起こし.mp4">
              <name>街ブラ恵比寿02修正文字起こし.mp4</name>
              <pathurl>/Volumes/SSD naoki2/街ブラ恵比寿02修正文字起こし.mp4</pathurl>
              <media>
                <video>
                  <samplecharacteristics>
                    <width>720</width>
                    <height>480</height>
                    <anamorphic>false</anamorphic>
                    <pixelaspectratio>square</pixelaspectratio>
                    <fielddominance>none</fielddominance>
                  </samplecharacteristics>
                </video>
                <audio>
                  <in>0</in>
                  <out>22166.1117</out>
                  <channelcount>2</channelcount>
                  <duration>22166.1117</duration>
                </audio>
              </media>
            </file>
            <link>
              <mediatype>video</mediatype>
              <trackindex>1</trackindex>
              <clipindex>59</clipindex>
            </link>
            <link>
              <mediatype>audio</mediatype>
              <trackindex>1</trackindex>
              <clipindex>59</clipindex>
              <groupindex>59</groupindex>
            </link>
            <link>
              <mediatype>audio</mediatype>
              <trackindex>2</trackindex>
              <clipindex>59</clipindex>
              <groupindex>59</groupindex>
            </link>
          </clipitem>
          <clipitem>
            <name>街ブラ恵比寿02修正文字起こし.mp4</name>
            <enabled>true</enabled>
            <rate>
              <timebase>30</timebase>
              <ntsc>true</ntsc>
            </rate>
            <in>6223.5702</in>
            <out>6360.5331</out>
            <start>6223.570199999999</start>
            <end>6360.533099999999</end>
            <file id="街ブラ恵比寿02修正文字起こし.mp4">
              <name>街ブラ恵比寿02修正文字起こし.mp4</name>
              <pathurl>/Volumes/SSD naoki2/街ブラ恵比寿02修正文字起こし.mp4</pathurl>
              <media>
                <video>
                  <samplecharacteristics>
                    <width>720</width>
                    <height>480</height>
                    <anamorphic>false</anamorphic>
                    <pixelaspectratio>square</pixelaspectratio>
                    <fielddominance>none</fielddominance>
                  </samplecharacteristics>
                </video>
                <audio>
                  <in>0</in>
                  <out>22166.1117</out>
                  <channelcount>2</channelcount>
                  <duration>22166.1117</duration>
                </audio>
              </media>
            </file>
            <link>
              <mediatype>video</mediatype>
              <trackindex>1</trackindex>
              <clipindex>60</clipindex>
            </link>
            <link>
              <mediatype>audio</mediatype>
              <trackindex>1</trackindex>
              <clipindex>60</clipindex>
              <groupindex>60</groupindex>
            </link>
            <link>
              <mediatype>audio</mediatype>
              <trackindex>2</trackindex>
              <clipindex>60</clipindex>
              <groupindex>60</groupindex>
            </link>
          </clipitem>
          <clipitem>
            <name>街ブラ恵比寿02修正文字起こし.mp4</name>
            <enabled>true</enabled>
            <rate>
              <timebase>30</timebase>
              <ntsc>true</ntsc>
            </rate>
            <in>6360.5331</in>
            <out>6477.715800000001</out>
            <start>6360.533099999999</start>
            <end>6477.7158</end>
            <file id="街ブラ恵比寿02修正文字起こし.mp4">
              <name>街ブラ恵比寿02修正文字起こし.mp4</name>
              <pathurl>/Volumes/SSD naoki2/街ブラ恵比寿02修正文字起こし.mp4</pathurl>
              <media>
                <video>
                  <samplecharacteristics>
                    <width>720</width>
                    <height>480</height>
                    <anamorphic>false</anamorphic>
                    <pixelaspectratio>square</pixelaspectratio>
                    <fielddominance>none</fielddominance>
                  </samplecharacteristics>
                </video>
                <audio>
                  <in>0</in>
                  <out>22166.1117</out>
                  <channelcount>2</channelcount>
                  <duration>22166.1117</duration>
                </audio>
              </media>
            </file>
            <link>
              <mediatype>video</mediatype>
              <trackindex>1</trackindex>
              <clipindex>61</clipindex>
            </link>
            <link>
              <mediatype>audio</mediatype>
              <trackindex>1</trackindex>
              <clipindex>61</clipindex>
              <groupindex>61</groupindex>
            </link>
            <link>
              <mediatype>audio</mediatype>
              <trackindex>2</trackindex>
              <clipindex>61</clipindex>
              <groupindex>61</groupindex>
            </link>
          </clipitem>
          <clipitem>
            <name>街ブラ恵比寿02修正文字起こし.mp4</name>
            <enabled>true</enabled>
            <rate>
              <timebase>30</timebase>
              <ntsc>true</ntsc>
            </rate>
            <in>6477.715799999999</in>
            <out>6585.607799999999</out>
            <start>6477.7158</start>
            <end>6585.6078</end>
            <file id="街ブラ恵比寿02修正文字起こし.mp4">
              <name>街ブラ恵比寿02修正文字起こし.mp4</name>
              <pathurl>/Volumes/SSD naoki2/街ブラ恵比寿02修正文字起こし.mp4</pathurl>
              <media>
                <video>
                  <samplecharacteristics>
                    <width>720</width>
                    <height>480</height>
                    <anamorphic>false</anamorphic>
                    <pixelaspectratio>square</pixelaspectratio>
                    <fielddominance>none</fielddominance>
                  </samplecharacteristics>
                </video>
                <audio>
                  <in>0</in>
                  <out>22166.1117</out>
                  <channelcount>2</channelcount>
                  <duration>22166.1117</duration>
                </audio>
              </media>
            </file>
            <link>
              <mediatype>video</mediatype>
              <trackindex>1</trackindex>
              <clipindex>62</clipindex>
            </link>
            <link>
              <mediatype>audio</mediatype>
              <trackindex>1</trackindex>
              <clipindex>62</clipindex>
              <groupindex>62</groupindex>
            </link>
            <link>
              <mediatype>audio</mediatype>
              <trackindex>2</trackindex>
              <clipindex>62</clipindex>
              <groupindex>62</groupindex>
            </link>
          </clipitem>
          <clipitem>
            <name>街ブラ恵比寿02修正文字起こし.mp4</name>
            <enabled>true</enabled>
            <rate>
              <timebase>30</timebase>
              <ntsc>true</ntsc>
            </rate>
            <in>6585.6078</in>
            <out>6677.915400000001</out>
            <start>6585.6078</start>
            <end>6677.915400000001</end>
            <file id="街ブラ恵比寿02修正文字起こし.mp4">
              <name>街ブラ恵比寿02修正文字起こし.mp4</name>
              <pathurl>/Volumes/SSD naoki2/街ブラ恵比寿02修正文字起こし.mp4</pathurl>
              <media>
                <video>
                  <samplecharacteristics>
                    <width>720</width>
                    <height>480</height>
                    <anamorphic>false</anamorphic>
                    <pixelaspectratio>square</pixelaspectratio>
                    <fielddominance>none</fielddominance>
                  </samplecharacteristics>
                </video>
                <audio>
                  <in>0</in>
                  <out>22166.1117</out>
                  <channelcount>2</channelcount>
                  <duration>22166.1117</duration>
                </audio>
              </media>
            </file>
            <link>
              <mediatype>video</mediatype>
              <trackindex>1</trackindex>
              <clipindex>63</clipindex>
            </link>
            <link>
              <mediatype>audio</mediatype>
              <trackindex>1</trackindex>
              <clipindex>63</clipindex>
              <groupindex>63</groupindex>
            </link>
            <link>
              <mediatype>audio</mediatype>
              <trackindex>2</trackindex>
              <clipindex>63</clipindex>
              <groupindex>63</groupindex>
            </link>
          </clipitem>
          <clipitem>
            <name>街ブラ恵比寿02修正文字起こし.mp4</name>
            <enabled>true</enabled>
            <rate>
              <timebase>30</timebase>
              <ntsc>true</ntsc>
            </rate>
            <in>6677.9154</in>
            <out>6849.6435</out>
            <start>6677.915400000001</start>
            <end>6849.643500000001</end>
            <file id="街ブラ恵比寿02修正文字起こし.mp4">
              <name>街ブラ恵比寿02修正文字起こし.mp4</name>
              <pathurl>/Volumes/SSD naoki2/街ブラ恵比寿02修正文字起こし.mp4</pathurl>
              <media>
                <video>
                  <samplecharacteristics>
                    <width>720</width>
                    <height>480</height>
                    <anamorphic>false</anamorphic>
                    <pixelaspectratio>square</pixelaspectratio>
                    <fielddominance>none</fielddominance>
                  </samplecharacteristics>
                </video>
                <audio>
                  <in>0</in>
                  <out>22166.1117</out>
                  <channelcount>2</channelcount>
                  <duration>22166.1117</duration>
                </audio>
              </media>
            </file>
            <link>
              <mediatype>video</mediatype>
              <trackindex>1</trackindex>
              <clipindex>64</clipindex>
            </link>
            <link>
              <mediatype>audio</mediatype>
              <trackindex>1</trackindex>
              <clipindex>64</clipindex>
              <groupindex>64</groupindex>
            </link>
            <link>
              <mediatype>audio</mediatype>
              <trackindex>2</trackindex>
              <clipindex>64</clipindex>
              <groupindex>64</groupindex>
            </link>
          </clipitem>
          <clipitem>
            <name>街ブラ恵比寿02修正文字起こし.mp4</name>
            <enabled>true</enabled>
            <rate>
              <timebase>30</timebase>
              <ntsc>true</ntsc>
            </rate>
            <in>6849.6435</in>
            <out>6927.2658</out>
            <start>6849.643500000001</start>
            <end>6927.265800000001</end>
            <file id="街ブラ恵比寿02修正文字起こし.mp4">
              <name>街ブラ恵比寿02修正文字起こし.mp4</name>
              <pathurl>/Volumes/SSD naoki2/街ブラ恵比寿02修正文字起こし.mp4</pathurl>
              <media>
                <video>
                  <samplecharacteristics>
                    <width>720</width>
                    <height>480</height>
                    <anamorphic>false</anamorphic>
                    <pixelaspectratio>square</pixelaspectratio>
                    <fielddominance>none</fielddominance>
                  </samplecharacteristics>
                </video>
                <audio>
                  <in>0</in>
                  <out>22166.1117</out>
                  <channelcount>2</channelcount>
                  <duration>22166.1117</duration>
                </audio>
              </media>
            </file>
            <link>
              <mediatype>video</mediatype>
              <trackindex>1</trackindex>
              <clipindex>65</clipindex>
            </link>
            <link>
              <mediatype>audio</mediatype>
              <trackindex>1</trackindex>
              <clipindex>65</clipindex>
              <groupindex>65</groupindex>
            </link>
            <link>
              <mediatype>audio</mediatype>
              <trackindex>2</trackindex>
              <clipindex>65</clipindex>
              <groupindex>65</groupindex>
            </link>
          </clipitem>
          <clipitem>
            <name>街ブラ恵比寿02修正文字起こし.mp4</name>
            <enabled>true</enabled>
            <rate>
              <timebase>30</timebase>
              <ntsc>true</ntsc>
            </rate>
            <in>6927.265799999999</in>
            <out>6961.731299999999</out>
            <start>6927.265800000001</start>
            <end>6961.7313</end>
            <file id="街ブラ恵比寿02修正文字起こし.mp4">
              <name>街ブラ恵比寿02修正文字起こし.mp4</name>
              <pathurl>/Volumes/SSD naoki2/街ブラ恵比寿02修正文字起こし.mp4</pathurl>
              <media>
                <video>
                  <samplecharacteristics>
                    <width>720</width>
                    <height>480</height>
                    <anamorphic>false</anamorphic>
                    <pixelaspectratio>square</pixelaspectratio>
                    <fielddominance>none</fielddominance>
                  </samplecharacteristics>
                </video>
                <audio>
                  <in>0</in>
                  <out>22166.1117</out>
                  <channelcount>2</channelcount>
                  <duration>22166.1117</duration>
                </audio>
              </media>
            </file>
            <link>
              <mediatype>video</mediatype>
              <trackindex>1</trackindex>
              <clipindex>66</clipindex>
            </link>
            <link>
              <mediatype>audio</mediatype>
              <trackindex>1</trackindex>
              <clipindex>66</clipindex>
              <groupindex>66</groupindex>
            </link>
            <link>
              <mediatype>audio</mediatype>
              <trackindex>2</trackindex>
              <clipindex>66</clipindex>
              <groupindex>66</groupindex>
            </link>
          </clipitem>
          <clipitem>
            <name>街ブラ恵比寿02修正文字起こし.mp4</name>
            <enabled>true</enabled>
            <rate>
              <timebase>30</timebase>
              <ntsc>true</ntsc>
            </rate>
            <in>6961.7312999999995</in>
            <out>7223.9688</out>
            <start>6961.7313</start>
            <end>7223.968800000001</end>
            <file id="街ブラ恵比寿02修正文字起こし.mp4">
              <name>街ブラ恵比寿02修正文字起こし.mp4</name>
              <pathurl>/Volumes/SSD naoki2/街ブラ恵比寿02修正文字起こし.mp4</pathurl>
              <media>
                <video>
                  <samplecharacteristics>
                    <width>720</width>
                    <height>480</height>
                    <anamorphic>false</anamorphic>
                    <pixelaspectratio>square</pixelaspectratio>
                    <fielddominance>none</fielddominance>
                  </samplecharacteristics>
                </video>
                <audio>
                  <in>0</in>
                  <out>22166.1117</out>
                  <channelcount>2</channelcount>
                  <duration>22166.1117</duration>
                </audio>
              </media>
            </file>
            <link>
              <mediatype>video</mediatype>
              <trackindex>1</trackindex>
              <clipindex>67</clipindex>
            </link>
            <link>
              <mediatype>audio</mediatype>
              <trackindex>1</trackindex>
              <clipindex>67</clipindex>
              <groupindex>67</groupindex>
            </link>
            <link>
              <mediatype>audio</mediatype>
              <trackindex>2</trackindex>
              <clipindex>67</clipindex>
              <groupindex>67</groupindex>
            </link>
          </clipitem>
          <clipitem>
            <name>街ブラ恵比寿02修正文字起こし.mp4</name>
            <enabled>true</enabled>
            <rate>
              <timebase>30</timebase>
              <ntsc>true</ntsc>
            </rate>
            <in>7223.9688</in>
            <out>7309.982699999999</out>
            <start>7223.968800000001</start>
            <end>7309.9827</end>
            <file id="街ブラ恵比寿02修正文字起こし.mp4">
              <name>街ブラ恵比寿02修正文字起こし.mp4</name>
              <pathurl>/Volumes/SSD naoki2/街ブラ恵比寿02修正文字起こし.mp4</pathurl>
              <media>
                <video>
                  <samplecharacteristics>
                    <width>720</width>
                    <height>480</height>
                    <anamorphic>false</anamorphic>
                    <pixelaspectratio>square</pixelaspectratio>
                    <fielddominance>none</fielddominance>
                  </samplecharacteristics>
                </video>
                <audio>
                  <in>0</in>
                  <out>22166.1117</out>
                  <channelcount>2</channelcount>
                  <duration>22166.1117</duration>
                </audio>
              </media>
            </file>
            <link>
              <mediatype>video</mediatype>
              <trackindex>1</trackindex>
              <clipindex>68</clipindex>
            </link>
            <link>
              <mediatype>audio</mediatype>
              <trackindex>1</trackindex>
              <clipindex>68</clipindex>
              <groupindex>68</groupindex>
            </link>
            <link>
              <mediatype>audio</mediatype>
              <trackindex>2</trackindex>
              <clipindex>68</clipindex>
              <groupindex>68</groupindex>
            </link>
          </clipitem>
          <clipitem>
            <name>街ブラ恵比寿02修正文字起こし.mp4</name>
            <enabled>true</enabled>
            <rate>
              <timebase>30</timebase>
              <ntsc>true</ntsc>
            </rate>
            <in>7309.9827</in>
            <out>7330.961700000001</out>
            <start>7309.9827</start>
            <end>7330.961700000001</end>
            <file id="街ブラ恵比寿02修正文字起こし.mp4">
              <name>街ブラ恵比寿02修正文字起こし.mp4</name>
              <pathurl>/Volumes/SSD naoki2/街ブラ恵比寿02修正文字起こし.mp4</pathurl>
              <media>
                <video>
                  <samplecharacteristics>
                    <width>720</width>
                    <height>480</height>
                    <anamorphic>false</anamorphic>
                    <pixelaspectratio>square</pixelaspectratio>
                    <fielddominance>none</fielddominance>
                  </samplecharacteristics>
                </video>
                <audio>
                  <in>0</in>
                  <out>22166.1117</out>
                  <channelcount>2</channelcount>
                  <duration>22166.1117</duration>
                </audio>
              </media>
            </file>
            <link>
              <mediatype>video</mediatype>
              <trackindex>1</trackindex>
              <clipindex>69</clipindex>
            </link>
            <link>
              <mediatype>audio</mediatype>
              <trackindex>1</trackindex>
              <clipindex>69</clipindex>
              <groupindex>69</groupindex>
            </link>
            <link>
              <mediatype>audio</mediatype>
              <trackindex>2</trackindex>
              <clipindex>69</clipindex>
              <groupindex>69</groupindex>
            </link>
          </clipitem>
          <clipitem>
            <name>街ブラ恵比寿02修正文字起こし.mp4</name>
            <enabled>true</enabled>
            <rate>
              <timebase>30</timebase>
              <ntsc>true</ntsc>
            </rate>
            <in>7330.9617</in>
            <out>7347.744900000001</out>
            <start>7330.961700000001</start>
            <end>7347.744900000001</end>
            <file id="街ブラ恵比寿02修正文字起こし.mp4">
              <name>街ブラ恵比寿02修正文字起こし.mp4</name>
              <pathurl>/Volumes/SSD naoki2/街ブラ恵比寿02修正文字起こし.mp4</pathurl>
              <media>
                <video>
                  <samplecharacteristics>
                    <width>720</width>
                    <height>480</height>
                    <anamorphic>false</anamorphic>
                    <pixelaspectratio>square</pixelaspectratio>
                    <fielddominance>none</fielddominance>
                  </samplecharacteristics>
                </video>
                <audio>
                  <in>0</in>
                  <out>22166.1117</out>
                  <channelcount>2</channelcount>
                  <duration>22166.1117</duration>
                </audio>
              </media>
            </file>
            <link>
              <mediatype>video</mediatype>
              <trackindex>1</trackindex>
              <clipindex>70</clipindex>
            </link>
            <link>
              <mediatype>audio</mediatype>
              <trackindex>1</trackindex>
              <clipindex>70</clipindex>
              <groupindex>70</groupindex>
            </link>
            <link>
              <mediatype>audio</mediatype>
              <trackindex>2</trackindex>
              <clipindex>70</clipindex>
              <groupindex>70</groupindex>
            </link>
          </clipitem>
          <clipitem>
            <name>街ブラ恵比寿02修正文字起こし.mp4</name>
            <enabled>true</enabled>
            <rate>
              <timebase>30</timebase>
              <ntsc>true</ntsc>
            </rate>
            <in>7347.7449</in>
            <out>7414.278299999998</out>
            <start>7347.744900000001</start>
            <end>7414.2783</end>
            <file id="街ブラ恵比寿02修正文字起こし.mp4">
              <name>街ブラ恵比寿02修正文字起こし.mp4</name>
              <pathurl>/Volumes/SSD naoki2/街ブラ恵比寿02修正文字起こし.mp4</pathurl>
              <media>
                <video>
                  <samplecharacteristics>
                    <width>720</width>
                    <height>480</height>
                    <anamorphic>false</anamorphic>
                    <pixelaspectratio>square</pixelaspectratio>
                    <fielddominance>none</fielddominance>
                  </samplecharacteristics>
                </video>
                <audio>
                  <in>0</in>
                  <out>22166.1117</out>
                  <channelcount>2</channelcount>
                  <duration>22166.1117</duration>
                </audio>
              </media>
            </file>
            <link>
              <mediatype>video</mediatype>
              <trackindex>1</trackindex>
              <clipindex>71</clipindex>
            </link>
            <link>
              <mediatype>audio</mediatype>
              <trackindex>1</trackindex>
              <clipindex>71</clipindex>
              <groupindex>71</groupindex>
            </link>
            <link>
              <mediatype>audio</mediatype>
              <trackindex>2</trackindex>
              <clipindex>71</clipindex>
              <groupindex>71</groupindex>
            </link>
          </clipitem>
          <clipitem>
            <name>街ブラ恵比寿02修正文字起こし.mp4</name>
            <enabled>true</enabled>
            <rate>
              <timebase>30</timebase>
              <ntsc>true</ntsc>
            </rate>
            <in>7414.278299999999</in>
            <out>7474.2182999999995</out>
            <start>7414.2783</start>
            <end>7474.2183</end>
            <file id="街ブラ恵比寿02修正文字起こし.mp4">
              <name>街ブラ恵比寿02修正文字起こし.mp4</name>
              <pathurl>/Volumes/SSD naoki2/街ブラ恵比寿02修正文字起こし.mp4</pathurl>
              <media>
                <video>
                  <samplecharacteristics>
                    <width>720</width>
                    <height>480</height>
                    <anamorphic>false</anamorphic>
                    <pixelaspectratio>square</pixelaspectratio>
                    <fielddominance>none</fielddominance>
                  </samplecharacteristics>
                </video>
                <audio>
                  <in>0</in>
                  <out>22166.1117</out>
                  <channelcount>2</channelcount>
                  <duration>22166.1117</duration>
                </audio>
              </media>
            </file>
            <link>
              <mediatype>video</mediatype>
              <trackindex>1</trackindex>
              <clipindex>72</clipindex>
            </link>
            <link>
              <mediatype>audio</mediatype>
              <trackindex>1</trackindex>
              <clipindex>72</clipindex>
              <groupindex>72</groupindex>
            </link>
            <link>
              <mediatype>audio</mediatype>
              <trackindex>2</trackindex>
              <clipindex>72</clipindex>
              <groupindex>72</groupindex>
            </link>
          </clipitem>
          <clipitem>
            <name>街ブラ恵比寿02修正文字起こし.mp4</name>
            <enabled>true</enabled>
            <rate>
              <timebase>30</timebase>
              <ntsc>true</ntsc>
            </rate>
            <in>7474.2182999999995</in>
            <out>7523.0694</out>
            <start>7474.2183</start>
            <end>7523.069400000001</end>
            <file id="街ブラ恵比寿02修正文字起こし.mp4">
              <name>街ブラ恵比寿02修正文字起こし.mp4</name>
              <pathurl>/Volumes/SSD naoki2/街ブラ恵比寿02修正文字起こし.mp4</pathurl>
              <media>
                <video>
                  <samplecharacteristics>
                    <width>720</width>
                    <height>480</height>
                    <anamorphic>false</anamorphic>
                    <pixelaspectratio>square</pixelaspectratio>
                    <fielddominance>none</fielddominance>
                  </samplecharacteristics>
                </video>
                <audio>
                  <in>0</in>
                  <out>22166.1117</out>
                  <channelcount>2</channelcount>
                  <duration>22166.1117</duration>
                </audio>
              </media>
            </file>
            <link>
              <mediatype>video</mediatype>
              <trackindex>1</trackindex>
              <clipindex>73</clipindex>
            </link>
            <link>
              <mediatype>audio</mediatype>
              <trackindex>1</trackindex>
              <clipindex>73</clipindex>
              <groupindex>73</groupindex>
            </link>
            <link>
              <mediatype>audio</mediatype>
              <trackindex>2</trackindex>
              <clipindex>73</clipindex>
              <groupindex>73</groupindex>
            </link>
          </clipitem>
          <clipitem>
            <name>街ブラ恵比寿02修正文字起こし.mp4</name>
            <enabled>true</enabled>
            <rate>
              <timebase>30</timebase>
              <ntsc>true</ntsc>
            </rate>
            <in>7523.0694</in>
            <out>7604.587799999999</out>
            <start>7523.069400000001</start>
            <end>7604.5878</end>
            <file id="街ブラ恵比寿02修正文字起こし.mp4">
              <name>街ブラ恵比寿02修正文字起こし.mp4</name>
              <pathurl>/Volumes/SSD naoki2/街ブラ恵比寿02修正文字起こし.mp4</pathurl>
              <media>
                <video>
                  <samplecharacteristics>
                    <width>720</width>
                    <height>480</height>
                    <anamorphic>false</anamorphic>
                    <pixelaspectratio>square</pixelaspectratio>
                    <fielddominance>none</fielddominance>
                  </samplecharacteristics>
                </video>
                <audio>
                  <in>0</in>
                  <out>22166.1117</out>
                  <channelcount>2</channelcount>
                  <duration>22166.1117</duration>
                </audio>
              </media>
            </file>
            <link>
              <mediatype>video</mediatype>
              <trackindex>1</trackindex>
              <clipindex>74</clipindex>
            </link>
            <link>
              <mediatype>audio</mediatype>
              <trackindex>1</trackindex>
              <clipindex>74</clipindex>
              <groupindex>74</groupindex>
            </link>
            <link>
              <mediatype>audio</mediatype>
              <trackindex>2</trackindex>
              <clipindex>74</clipindex>
              <groupindex>74</groupindex>
            </link>
          </clipitem>
          <clipitem>
            <name>街ブラ恵比寿02修正文字起こし.mp4</name>
            <enabled>true</enabled>
            <rate>
              <timebase>30</timebase>
              <ntsc>true</ntsc>
            </rate>
            <in>7604.5878</in>
            <out>7838.3538</out>
            <start>7604.5878</start>
            <end>7838.3538</end>
            <file id="街ブラ恵比寿02修正文字起こし.mp4">
              <name>街ブラ恵比寿02修正文字起こし.mp4</name>
              <pathurl>/Volumes/SSD naoki2/街ブラ恵比寿02修正文字起こし.mp4</pathurl>
              <media>
                <video>
                  <samplecharacteristics>
                    <width>720</width>
                    <height>480</height>
                    <anamorphic>false</anamorphic>
                    <pixelaspectratio>square</pixelaspectratio>
                    <fielddominance>none</fielddominance>
                  </samplecharacteristics>
                </video>
                <audio>
                  <in>0</in>
                  <out>22166.1117</out>
                  <channelcount>2</channelcount>
                  <duration>22166.1117</duration>
                </audio>
              </media>
            </file>
            <link>
              <mediatype>video</mediatype>
              <trackindex>1</trackindex>
              <clipindex>75</clipindex>
            </link>
            <link>
              <mediatype>audio</mediatype>
              <trackindex>1</trackindex>
              <clipindex>75</clipindex>
              <groupindex>75</groupindex>
            </link>
            <link>
              <mediatype>audio</mediatype>
              <trackindex>2</trackindex>
              <clipindex>75</clipindex>
              <groupindex>75</groupindex>
            </link>
          </clipitem>
          <clipitem>
            <name>街ブラ恵比寿02修正文字起こし.mp4</name>
            <enabled>true</enabled>
            <rate>
              <timebase>30</timebase>
              <ntsc>true</ntsc>
            </rate>
            <in>7838.3538</in>
            <out>8019.072900000003</out>
            <start>7838.3538</start>
            <end>8019.072900000003</end>
            <file id="街ブラ恵比寿02修正文字起こし.mp4">
              <name>街ブラ恵比寿02修正文字起こし.mp4</name>
              <pathurl>/Volumes/SSD naoki2/街ブラ恵比寿02修正文字起こし.mp4</pathurl>
              <media>
                <video>
                  <samplecharacteristics>
                    <width>720</width>
                    <height>480</height>
                    <anamorphic>false</anamorphic>
                    <pixelaspectratio>square</pixelaspectratio>
                    <fielddominance>none</fielddominance>
                  </samplecharacteristics>
                </video>
                <audio>
                  <in>0</in>
                  <out>22166.1117</out>
                  <channelcount>2</channelcount>
                  <duration>22166.1117</duration>
                </audio>
              </media>
            </file>
            <link>
              <mediatype>video</mediatype>
              <trackindex>1</trackindex>
              <clipindex>76</clipindex>
            </link>
            <link>
              <mediatype>audio</mediatype>
              <trackindex>1</trackindex>
              <clipindex>76</clipindex>
              <groupindex>76</groupindex>
            </link>
            <link>
              <mediatype>audio</mediatype>
              <trackindex>2</trackindex>
              <clipindex>76</clipindex>
              <groupindex>76</groupindex>
            </link>
          </clipitem>
          <clipitem>
            <name>街ブラ恵比寿02修正文字起こし.mp4</name>
            <enabled>true</enabled>
            <rate>
              <timebase>30</timebase>
              <ntsc>true</ntsc>
            </rate>
            <in>8019.072899999999</in>
            <out>8172.8189999999995</out>
            <start>8019.072900000003</start>
            <end>8172.819000000003</end>
            <file id="街ブラ恵比寿02修正文字起こし.mp4">
              <name>街ブラ恵比寿02修正文字起こし.mp4</name>
              <pathurl>/Volumes/SSD naoki2/街ブラ恵比寿02修正文字起こし.mp4</pathurl>
              <media>
                <video>
                  <samplecharacteristics>
                    <width>720</width>
                    <height>480</height>
                    <anamorphic>false</anamorphic>
                    <pixelaspectratio>square</pixelaspectratio>
                    <fielddominance>none</fielddominance>
                  </samplecharacteristics>
                </video>
                <audio>
                  <in>0</in>
                  <out>22166.1117</out>
                  <channelcount>2</channelcount>
                  <duration>22166.1117</duration>
                </audio>
              </media>
            </file>
            <link>
              <mediatype>video</mediatype>
              <trackindex>1</trackindex>
              <clipindex>77</clipindex>
            </link>
            <link>
              <mediatype>audio</mediatype>
              <trackindex>1</trackindex>
              <clipindex>77</clipindex>
              <groupindex>77</groupindex>
            </link>
            <link>
              <mediatype>audio</mediatype>
              <trackindex>2</trackindex>
              <clipindex>77</clipindex>
              <groupindex>77</groupindex>
            </link>
          </clipitem>
          <clipitem>
            <name>街ブラ恵比寿02修正文字起こし.mp4</name>
            <enabled>true</enabled>
            <rate>
              <timebase>30</timebase>
              <ntsc>true</ntsc>
            </rate>
            <in>8172.8189999999995</in>
            <out>8298.393300000002</out>
            <start>8172.819000000003</start>
            <end>8298.393300000005</end>
            <file id="街ブラ恵比寿02修正文字起こし.mp4">
              <name>街ブラ恵比寿02修正文字起こし.mp4</name>
              <pathurl>/Volumes/SSD naoki2/街ブラ恵比寿02修正文字起こし.mp4</pathurl>
              <media>
                <video>
                  <samplecharacteristics>
                    <width>720</width>
                    <height>480</height>
                    <anamorphic>false</anamorphic>
                    <pixelaspectratio>square</pixelaspectratio>
                    <fielddominance>none</fielddominance>
                  </samplecharacteristics>
                </video>
                <audio>
                  <in>0</in>
                  <out>22166.1117</out>
                  <channelcount>2</channelcount>
                  <duration>22166.1117</duration>
                </audio>
              </media>
            </file>
            <link>
              <mediatype>video</mediatype>
              <trackindex>1</trackindex>
              <clipindex>78</clipindex>
            </link>
            <link>
              <mediatype>audio</mediatype>
              <trackindex>1</trackindex>
              <clipindex>78</clipindex>
              <groupindex>78</groupindex>
            </link>
            <link>
              <mediatype>audio</mediatype>
              <trackindex>2</trackindex>
              <clipindex>78</clipindex>
              <groupindex>78</groupindex>
            </link>
          </clipitem>
          <clipitem>
            <name>街ブラ恵比寿02修正文字起こし.mp4</name>
            <enabled>true</enabled>
            <rate>
              <timebase>30</timebase>
              <ntsc>true</ntsc>
            </rate>
            <in>8298.3933</in>
            <out>8501.889600000004</out>
            <start>8298.393300000005</start>
            <end>8501.889600000008</end>
            <file id="街ブラ恵比寿02修正文字起こし.mp4">
              <name>街ブラ恵比寿02修正文字起こし.mp4</name>
              <pathurl>/Volumes/SSD naoki2/街ブラ恵比寿02修正文字起こし.mp4</pathurl>
              <media>
                <video>
                  <samplecharacteristics>
                    <width>720</width>
                    <height>480</height>
                    <anamorphic>false</anamorphic>
                    <pixelaspectratio>square</pixelaspectratio>
                    <fielddominance>none</fielddominance>
                  </samplecharacteristics>
                </video>
                <audio>
                  <in>0</in>
                  <out>22166.1117</out>
                  <channelcount>2</channelcount>
                  <duration>22166.1117</duration>
                </audio>
              </media>
            </file>
            <link>
              <mediatype>video</mediatype>
              <trackindex>1</trackindex>
              <clipindex>79</clipindex>
            </link>
            <link>
              <mediatype>audio</mediatype>
              <trackindex>1</trackindex>
              <clipindex>79</clipindex>
              <groupindex>79</groupindex>
            </link>
            <link>
              <mediatype>audio</mediatype>
              <trackindex>2</trackindex>
              <clipindex>79</clipindex>
              <groupindex>79</groupindex>
            </link>
          </clipitem>
          <clipitem>
            <name>街ブラ恵比寿02修正文字起こし.mp4</name>
            <enabled>true</enabled>
            <rate>
              <timebase>30</timebase>
              <ntsc>true</ntsc>
            </rate>
            <in>8501.8896</in>
            <out>8629.561800000001</out>
            <start>8501.889600000008</start>
            <end>8629.56180000001</end>
            <file id="街ブラ恵比寿02修正文字起こし.mp4">
              <name>街ブラ恵比寿02修正文字起こし.mp4</name>
              <pathurl>/Volumes/SSD naoki2/街ブラ恵比寿02修正文字起こし.mp4</pathurl>
              <media>
                <video>
                  <samplecharacteristics>
                    <width>720</width>
                    <height>480</height>
                    <anamorphic>false</anamorphic>
                    <pixelaspectratio>square</pixelaspectratio>
                    <fielddominance>none</fielddominance>
                  </samplecharacteristics>
                </video>
                <audio>
                  <in>0</in>
                  <out>22166.1117</out>
                  <channelcount>2</channelcount>
                  <duration>22166.1117</duration>
                </audio>
              </media>
            </file>
            <link>
              <mediatype>video</mediatype>
              <trackindex>1</trackindex>
              <clipindex>80</clipindex>
            </link>
            <link>
              <mediatype>audio</mediatype>
              <trackindex>1</trackindex>
              <clipindex>80</clipindex>
              <groupindex>80</groupindex>
            </link>
            <link>
              <mediatype>audio</mediatype>
              <trackindex>2</trackindex>
              <clipindex>80</clipindex>
              <groupindex>80</groupindex>
            </link>
          </clipitem>
          <clipitem>
            <name>街ブラ恵比寿02修正文字起こし.mp4</name>
            <enabled>true</enabled>
            <rate>
              <timebase>30</timebase>
              <ntsc>true</ntsc>
            </rate>
            <in>8629.5618</in>
            <out>8815.375800000002</out>
            <start>8629.56180000001</start>
            <end>8815.37580000001</end>
            <file id="街ブラ恵比寿02修正文字起こし.mp4">
              <name>街ブラ恵比寿02修正文字起こし.mp4</name>
              <pathurl>/Volumes/SSD naoki2/街ブラ恵比寿02修正文字起こし.mp4</pathurl>
              <media>
                <video>
                  <samplecharacteristics>
                    <width>720</width>
                    <height>480</height>
                    <anamorphic>false</anamorphic>
                    <pixelaspectratio>square</pixelaspectratio>
                    <fielddominance>none</fielddominance>
                  </samplecharacteristics>
                </video>
                <audio>
                  <in>0</in>
                  <out>22166.1117</out>
                  <channelcount>2</channelcount>
                  <duration>22166.1117</duration>
                </audio>
              </media>
            </file>
            <link>
              <mediatype>video</mediatype>
              <trackindex>1</trackindex>
              <clipindex>81</clipindex>
            </link>
            <link>
              <mediatype>audio</mediatype>
              <trackindex>1</trackindex>
              <clipindex>81</clipindex>
              <groupindex>81</groupindex>
            </link>
            <link>
              <mediatype>audio</mediatype>
              <trackindex>2</trackindex>
              <clipindex>81</clipindex>
              <groupindex>81</groupindex>
            </link>
          </clipitem>
          <clipitem>
            <name>街ブラ恵比寿02修正文字起こし.mp4</name>
            <enabled>true</enabled>
            <rate>
              <timebase>30</timebase>
              <ntsc>true</ntsc>
            </rate>
            <in>8815.3758</in>
            <out>8906.484599999998</out>
            <start>8815.37580000001</start>
            <end>8906.48460000001</end>
            <file id="街ブラ恵比寿02修正文字起こし.mp4">
              <name>街ブラ恵比寿02修正文字起こし.mp4</name>
              <pathurl>/Volumes/SSD naoki2/街ブラ恵比寿02修正文字起こし.mp4</pathurl>
              <media>
                <video>
                  <samplecharacteristics>
                    <width>720</width>
                    <height>480</height>
                    <anamorphic>false</anamorphic>
                    <pixelaspectratio>square</pixelaspectratio>
                    <fielddominance>none</fielddominance>
                  </samplecharacteristics>
                </video>
                <audio>
                  <in>0</in>
                  <out>22166.1117</out>
                  <channelcount>2</channelcount>
                  <duration>22166.1117</duration>
                </audio>
              </media>
            </file>
            <link>
              <mediatype>video</mediatype>
              <trackindex>1</trackindex>
              <clipindex>82</clipindex>
            </link>
            <link>
              <mediatype>audio</mediatype>
              <trackindex>1</trackindex>
              <clipindex>82</clipindex>
              <groupindex>82</groupindex>
            </link>
            <link>
              <mediatype>audio</mediatype>
              <trackindex>2</trackindex>
              <clipindex>82</clipindex>
              <groupindex>82</groupindex>
            </link>
          </clipitem>
          <clipitem>
            <name>街ブラ恵比寿02修正文字起こし.mp4</name>
            <enabled>true</enabled>
            <rate>
              <timebase>30</timebase>
              <ntsc>true</ntsc>
            </rate>
            <in>8906.4846</in>
            <out>9076.714200000004</out>
            <start>8906.48460000001</start>
            <end>9076.714200000013</end>
            <file id="街ブラ恵比寿02修正文字起こし.mp4">
              <name>街ブラ恵比寿02修正文字起こし.mp4</name>
              <pathurl>/Volumes/SSD naoki2/街ブラ恵比寿02修正文字起こし.mp4</pathurl>
              <media>
                <video>
                  <samplecharacteristics>
                    <width>720</width>
                    <height>480</height>
                    <anamorphic>false</anamorphic>
                    <pixelaspectratio>square</pixelaspectratio>
                    <fielddominance>none</fielddominance>
                  </samplecharacteristics>
                </video>
                <audio>
                  <in>0</in>
                  <out>22166.1117</out>
                  <channelcount>2</channelcount>
                  <duration>22166.1117</duration>
                </audio>
              </media>
            </file>
            <link>
              <mediatype>video</mediatype>
              <trackindex>1</trackindex>
              <clipindex>83</clipindex>
            </link>
            <link>
              <mediatype>audio</mediatype>
              <trackindex>1</trackindex>
              <clipindex>83</clipindex>
              <groupindex>83</groupindex>
            </link>
            <link>
              <mediatype>audio</mediatype>
              <trackindex>2</trackindex>
              <clipindex>83</clipindex>
              <groupindex>83</groupindex>
            </link>
          </clipitem>
          <clipitem>
            <name>街ブラ恵比寿02修正文字起こし.mp4</name>
            <enabled>true</enabled>
            <rate>
              <timebase>30</timebase>
              <ntsc>true</ntsc>
            </rate>
            <in>9076.7142</in>
            <out>9136.6542</out>
            <start>9076.714200000013</start>
            <end>9136.654200000014</end>
            <file id="街ブラ恵比寿02修正文字起こし.mp4">
              <name>街ブラ恵比寿02修正文字起こし.mp4</name>
              <pathurl>/Volumes/SSD naoki2/街ブラ恵比寿02修正文字起こし.mp4</pathurl>
              <media>
                <video>
                  <samplecharacteristics>
                    <width>720</width>
                    <height>480</height>
                    <anamorphic>false</anamorphic>
                    <pixelaspectratio>square</pixelaspectratio>
                    <fielddominance>none</fielddominance>
                  </samplecharacteristics>
                </video>
                <audio>
                  <in>0</in>
                  <out>22166.1117</out>
                  <channelcount>2</channelcount>
                  <duration>22166.1117</duration>
                </audio>
              </media>
            </file>
            <link>
              <mediatype>video</mediatype>
              <trackindex>1</trackindex>
              <clipindex>84</clipindex>
            </link>
            <link>
              <mediatype>audio</mediatype>
              <trackindex>1</trackindex>
              <clipindex>84</clipindex>
              <groupindex>84</groupindex>
            </link>
            <link>
              <mediatype>audio</mediatype>
              <trackindex>2</trackindex>
              <clipindex>84</clipindex>
              <groupindex>84</groupindex>
            </link>
          </clipitem>
          <clipitem>
            <name>街ブラ恵比寿02修正文字起こし.mp4</name>
            <enabled>true</enabled>
            <rate>
              <timebase>30</timebase>
              <ntsc>true</ntsc>
            </rate>
            <in>9136.6542</in>
            <out>9187.902900000001</out>
            <start>9136.654200000014</start>
            <end>9187.902900000016</end>
            <file id="街ブラ恵比寿02修正文字起こし.mp4">
              <name>街ブラ恵比寿02修正文字起こし.mp4</name>
              <pathurl>/Volumes/SSD naoki2/街ブラ恵比寿02修正文字起こし.mp4</pathurl>
              <media>
                <video>
                  <samplecharacteristics>
                    <width>720</width>
                    <height>480</height>
                    <anamorphic>false</anamorphic>
                    <pixelaspectratio>square</pixelaspectratio>
                    <fielddominance>none</fielddominance>
                  </samplecharacteristics>
                </video>
                <audio>
                  <in>0</in>
                  <out>22166.1117</out>
                  <channelcount>2</channelcount>
                  <duration>22166.1117</duration>
                </audio>
              </media>
            </file>
            <link>
              <mediatype>video</mediatype>
              <trackindex>1</trackindex>
              <clipindex>85</clipindex>
            </link>
            <link>
              <mediatype>audio</mediatype>
              <trackindex>1</trackindex>
              <clipindex>85</clipindex>
              <groupindex>85</groupindex>
            </link>
            <link>
              <mediatype>audio</mediatype>
              <trackindex>2</trackindex>
              <clipindex>85</clipindex>
              <groupindex>85</groupindex>
            </link>
          </clipitem>
          <clipitem>
            <name>街ブラ恵比寿02修正文字起こし.mp4</name>
            <enabled>true</enabled>
            <rate>
              <timebase>30</timebase>
              <ntsc>true</ntsc>
            </rate>
            <in>9187.9029</in>
            <out>9250.839900000003</out>
            <start>9187.902900000016</start>
            <end>9250.839900000017</end>
            <file id="街ブラ恵比寿02修正文字起こし.mp4">
              <name>街ブラ恵比寿02修正文字起こし.mp4</name>
              <pathurl>/Volumes/SSD naoki2/街ブラ恵比寿02修正文字起こし.mp4</pathurl>
              <media>
                <video>
                  <samplecharacteristics>
                    <width>720</width>
                    <height>480</height>
                    <anamorphic>false</anamorphic>
                    <pixelaspectratio>square</pixelaspectratio>
                    <fielddominance>none</fielddominance>
                  </samplecharacteristics>
                </video>
                <audio>
                  <in>0</in>
                  <out>22166.1117</out>
                  <channelcount>2</channelcount>
                  <duration>22166.1117</duration>
                </audio>
              </media>
            </file>
            <link>
              <mediatype>video</mediatype>
              <trackindex>1</trackindex>
              <clipindex>86</clipindex>
            </link>
            <link>
              <mediatype>audio</mediatype>
              <trackindex>1</trackindex>
              <clipindex>86</clipindex>
              <groupindex>86</groupindex>
            </link>
            <link>
              <mediatype>audio</mediatype>
              <trackindex>2</trackindex>
              <clipindex>86</clipindex>
              <groupindex>86</groupindex>
            </link>
          </clipitem>
          <clipitem>
            <name>街ブラ恵比寿02修正文字起こし.mp4</name>
            <enabled>true</enabled>
            <rate>
              <timebase>30</timebase>
              <ntsc>true</ntsc>
            </rate>
            <in>9250.8399</in>
            <out>9314.975699999997</out>
            <start>9250.839900000017</start>
            <end>9314.975700000015</end>
            <file id="街ブラ恵比寿02修正文字起こし.mp4">
              <name>街ブラ恵比寿02修正文字起こし.mp4</name>
              <pathurl>/Volumes/SSD naoki2/街ブラ恵比寿02修正文字起こし.mp4</pathurl>
              <media>
                <video>
                  <samplecharacteristics>
                    <width>720</width>
                    <height>480</height>
                    <anamorphic>false</anamorphic>
                    <pixelaspectratio>square</pixelaspectratio>
                    <fielddominance>none</fielddominance>
                  </samplecharacteristics>
                </video>
                <audio>
                  <in>0</in>
                  <out>22166.1117</out>
                  <channelcount>2</channelcount>
                  <duration>22166.1117</duration>
                </audio>
              </media>
            </file>
            <link>
              <mediatype>video</mediatype>
              <trackindex>1</trackindex>
              <clipindex>87</clipindex>
            </link>
            <link>
              <mediatype>audio</mediatype>
              <trackindex>1</trackindex>
              <clipindex>87</clipindex>
              <groupindex>87</groupindex>
            </link>
            <link>
              <mediatype>audio</mediatype>
              <trackindex>2</trackindex>
              <clipindex>87</clipindex>
              <groupindex>87</groupindex>
            </link>
          </clipitem>
          <clipitem>
            <name>街ブラ恵比寿02修正文字起こし.mp4</name>
            <enabled>true</enabled>
            <rate>
              <timebase>30</timebase>
              <ntsc>true</ntsc>
            </rate>
            <in>9314.975699999999</in>
            <out>9333.5571</out>
            <start>9314.975700000015</start>
            <end>9333.557100000015</end>
            <file id="街ブラ恵比寿02修正文字起こし.mp4">
              <name>街ブラ恵比寿02修正文字起こし.mp4</name>
              <pathurl>/Volumes/SSD naoki2/街ブラ恵比寿02修正文字起こし.mp4</pathurl>
              <media>
                <video>
                  <samplecharacteristics>
                    <width>720</width>
                    <height>480</height>
                    <anamorphic>false</anamorphic>
                    <pixelaspectratio>square</pixelaspectratio>
                    <fielddominance>none</fielddominance>
                  </samplecharacteristics>
                </video>
                <audio>
                  <in>0</in>
                  <out>22166.1117</out>
                  <channelcount>2</channelcount>
                  <duration>22166.1117</duration>
                </audio>
              </media>
            </file>
            <link>
              <mediatype>video</mediatype>
              <trackindex>1</trackindex>
              <clipindex>88</clipindex>
            </link>
            <link>
              <mediatype>audio</mediatype>
              <trackindex>1</trackindex>
              <clipindex>88</clipindex>
              <groupindex>88</groupindex>
            </link>
            <link>
              <mediatype>audio</mediatype>
              <trackindex>2</trackindex>
              <clipindex>88</clipindex>
              <groupindex>88</groupindex>
            </link>
          </clipitem>
          <clipitem>
            <name>街ブラ恵比寿02修正文字起こし.mp4</name>
            <enabled>true</enabled>
            <rate>
              <timebase>30</timebase>
              <ntsc>true</ntsc>
            </rate>
            <in>9333.5571</in>
            <out>9369.820800000001</out>
            <start>9333.557100000015</start>
            <end>9369.820800000016</end>
            <file id="街ブラ恵比寿02修正文字起こし.mp4">
              <name>街ブラ恵比寿02修正文字起こし.mp4</name>
              <pathurl>/Volumes/SSD naoki2/街ブラ恵比寿02修正文字起こし.mp4</pathurl>
              <media>
                <video>
                  <samplecharacteristics>
                    <width>720</width>
                    <height>480</height>
                    <anamorphic>false</anamorphic>
                    <pixelaspectratio>square</pixelaspectratio>
                    <fielddominance>none</fielddominance>
                  </samplecharacteristics>
                </video>
                <audio>
                  <in>0</in>
                  <out>22166.1117</out>
                  <channelcount>2</channelcount>
                  <duration>22166.1117</duration>
                </audio>
              </media>
            </file>
            <link>
              <mediatype>video</mediatype>
              <trackindex>1</trackindex>
              <clipindex>89</clipindex>
            </link>
            <link>
              <mediatype>audio</mediatype>
              <trackindex>1</trackindex>
              <clipindex>89</clipindex>
              <groupindex>89</groupindex>
            </link>
            <link>
              <mediatype>audio</mediatype>
              <trackindex>2</trackindex>
              <clipindex>89</clipindex>
              <groupindex>89</groupindex>
            </link>
          </clipitem>
          <clipitem>
            <name>街ブラ恵比寿02修正文字起こし.mp4</name>
            <enabled>true</enabled>
            <rate>
              <timebase>30</timebase>
              <ntsc>true</ntsc>
            </rate>
            <in>9369.8208</in>
            <out>10016.273699999998</out>
            <start>9369.820800000016</start>
            <end>10016.273700000014</end>
            <file id="街ブラ恵比寿02修正文字起こし.mp4">
              <name>街ブラ恵比寿02修正文字起こし.mp4</name>
              <pathurl>/Volumes/SSD naoki2/街ブラ恵比寿02修正文字起こし.mp4</pathurl>
              <media>
                <video>
                  <samplecharacteristics>
                    <width>720</width>
                    <height>480</height>
                    <anamorphic>false</anamorphic>
                    <pixelaspectratio>square</pixelaspectratio>
                    <fielddominance>none</fielddominance>
                  </samplecharacteristics>
                </video>
                <audio>
                  <in>0</in>
                  <out>22166.1117</out>
                  <channelcount>2</channelcount>
                  <duration>22166.1117</duration>
                </audio>
              </media>
            </file>
            <link>
              <mediatype>video</mediatype>
              <trackindex>1</trackindex>
              <clipindex>90</clipindex>
            </link>
            <link>
              <mediatype>audio</mediatype>
              <trackindex>1</trackindex>
              <clipindex>90</clipindex>
              <groupindex>90</groupindex>
            </link>
            <link>
              <mediatype>audio</mediatype>
              <trackindex>2</trackindex>
              <clipindex>90</clipindex>
              <groupindex>90</groupindex>
            </link>
          </clipitem>
          <clipitem>
            <name>街ブラ恵比寿02修正文字起こし.mp4</name>
            <enabled>true</enabled>
            <rate>
              <timebase>30</timebase>
              <ntsc>true</ntsc>
            </rate>
            <in>10016.2737</in>
            <out>10212.8769</out>
            <start>10016.273700000014</start>
            <end>10212.876900000014</end>
            <file id="街ブラ恵比寿02修正文字起こし.mp4">
              <name>街ブラ恵比寿02修正文字起こし.mp4</name>
              <pathurl>/Volumes/SSD naoki2/街ブラ恵比寿02修正文字起こし.mp4</pathurl>
              <media>
                <video>
                  <samplecharacteristics>
                    <width>720</width>
                    <height>480</height>
                    <anamorphic>false</anamorphic>
                    <pixelaspectratio>square</pixelaspectratio>
                    <fielddominance>none</fielddominance>
                  </samplecharacteristics>
                </video>
                <audio>
                  <in>0</in>
                  <out>22166.1117</out>
                  <channelcount>2</channelcount>
                  <duration>22166.1117</duration>
                </audio>
              </media>
            </file>
            <link>
              <mediatype>video</mediatype>
              <trackindex>1</trackindex>
              <clipindex>91</clipindex>
            </link>
            <link>
              <mediatype>audio</mediatype>
              <trackindex>1</trackindex>
              <clipindex>91</clipindex>
              <groupindex>91</groupindex>
            </link>
            <link>
              <mediatype>audio</mediatype>
              <trackindex>2</trackindex>
              <clipindex>91</clipindex>
              <groupindex>91</groupindex>
            </link>
          </clipitem>
          <clipitem>
            <name>街ブラ恵比寿02修正文字起こし.mp4</name>
            <enabled>true</enabled>
            <rate>
              <timebase>30</timebase>
              <ntsc>true</ntsc>
            </rate>
            <in>10212.8769</in>
            <out>10277.012699999997</out>
            <start>10212.876900000014</start>
            <end>10277.012700000012</end>
            <file id="街ブラ恵比寿02修正文字起こし.mp4">
              <name>街ブラ恵比寿02修正文字起こし.mp4</name>
              <pathurl>/Volumes/SSD naoki2/街ブラ恵比寿02修正文字起こし.mp4</pathurl>
              <media>
                <video>
                  <samplecharacteristics>
                    <width>720</width>
                    <height>480</height>
                    <anamorphic>false</anamorphic>
                    <pixelaspectratio>square</pixelaspectratio>
                    <fielddominance>none</fielddominance>
                  </samplecharacteristics>
                </video>
                <audio>
                  <in>0</in>
                  <out>22166.1117</out>
                  <channelcount>2</channelcount>
                  <duration>22166.1117</duration>
                </audio>
              </media>
            </file>
            <link>
              <mediatype>video</mediatype>
              <trackindex>1</trackindex>
              <clipindex>92</clipindex>
            </link>
            <link>
              <mediatype>audio</mediatype>
              <trackindex>1</trackindex>
              <clipindex>92</clipindex>
              <groupindex>92</groupindex>
            </link>
            <link>
              <mediatype>audio</mediatype>
              <trackindex>2</trackindex>
              <clipindex>92</clipindex>
              <groupindex>92</groupindex>
            </link>
          </clipitem>
          <clipitem>
            <name>街ブラ恵比寿02修正文字起こし.mp4</name>
            <enabled>true</enabled>
            <rate>
              <timebase>30</timebase>
              <ntsc>true</ntsc>
            </rate>
            <in>10277.012700000001</in>
            <out>10407.082499999999</out>
            <start>10277.012700000012</start>
            <end>10407.08250000001</end>
            <file id="街ブラ恵比寿02修正文字起こし.mp4">
              <name>街ブラ恵比寿02修正文字起こし.mp4</name>
              <pathurl>/Volumes/SSD naoki2/街ブラ恵比寿02修正文字起こし.mp4</pathurl>
              <media>
                <video>
                  <samplecharacteristics>
                    <width>720</width>
                    <height>480</height>
                    <anamorphic>false</anamorphic>
                    <pixelaspectratio>square</pixelaspectratio>
                    <fielddominance>none</fielddominance>
                  </samplecharacteristics>
                </video>
                <audio>
                  <in>0</in>
                  <out>22166.1117</out>
                  <channelcount>2</channelcount>
                  <duration>22166.1117</duration>
                </audio>
              </media>
            </file>
            <link>
              <mediatype>video</mediatype>
              <trackindex>1</trackindex>
              <clipindex>93</clipindex>
            </link>
            <link>
              <mediatype>audio</mediatype>
              <trackindex>1</trackindex>
              <clipindex>93</clipindex>
              <groupindex>93</groupindex>
            </link>
            <link>
              <mediatype>audio</mediatype>
              <trackindex>2</trackindex>
              <clipindex>93</clipindex>
              <groupindex>93</groupindex>
            </link>
          </clipitem>
          <clipitem>
            <name>街ブラ恵比寿02修正文字起こし.mp4</name>
            <enabled>true</enabled>
            <rate>
              <timebase>30</timebase>
              <ntsc>true</ntsc>
            </rate>
            <in>10407.0825</in>
            <out>10460.129399999998</out>
            <start>10407.08250000001</start>
            <end>10460.129400000007</end>
            <file id="街ブラ恵比寿02修正文字起こし.mp4">
              <name>街ブラ恵比寿02修正文字起こし.mp4</name>
              <pathurl>/Volumes/SSD naoki2/街ブラ恵比寿02修正文字起こし.mp4</pathurl>
              <media>
                <video>
                  <samplecharacteristics>
                    <width>720</width>
                    <height>480</height>
                    <anamorphic>false</anamorphic>
                    <pixelaspectratio>square</pixelaspectratio>
                    <fielddominance>none</fielddominance>
                  </samplecharacteristics>
                </video>
                <audio>
                  <in>0</in>
                  <out>22166.1117</out>
                  <channelcount>2</channelcount>
                  <duration>22166.1117</duration>
                </audio>
              </media>
            </file>
            <link>
              <mediatype>video</mediatype>
              <trackindex>1</trackindex>
              <clipindex>94</clipindex>
            </link>
            <link>
              <mediatype>audio</mediatype>
              <trackindex>1</trackindex>
              <clipindex>94</clipindex>
              <groupindex>94</groupindex>
            </link>
            <link>
              <mediatype>audio</mediatype>
              <trackindex>2</trackindex>
              <clipindex>94</clipindex>
              <groupindex>94</groupindex>
            </link>
          </clipitem>
          <clipitem>
            <name>街ブラ恵比寿02修正文字起こし.mp4</name>
            <enabled>true</enabled>
            <rate>
              <timebase>30</timebase>
              <ntsc>true</ntsc>
            </rate>
            <in>10460.1294</in>
            <out>10529.6598</out>
            <start>10460.129400000007</start>
            <end>10529.659800000007</end>
            <file id="街ブラ恵比寿02修正文字起こし.mp4">
              <name>街ブラ恵比寿02修正文字起こし.mp4</name>
              <pathurl>/Volumes/SSD naoki2/街ブラ恵比寿02修正文字起こし.mp4</pathurl>
              <media>
                <video>
                  <samplecharacteristics>
                    <width>720</width>
                    <height>480</height>
                    <anamorphic>false</anamorphic>
                    <pixelaspectratio>square</pixelaspectratio>
                    <fielddominance>none</fielddominance>
                  </samplecharacteristics>
                </video>
                <audio>
                  <in>0</in>
                  <out>22166.1117</out>
                  <channelcount>2</channelcount>
                  <duration>22166.1117</duration>
                </audio>
              </media>
            </file>
            <link>
              <mediatype>video</mediatype>
              <trackindex>1</trackindex>
              <clipindex>95</clipindex>
            </link>
            <link>
              <mediatype>audio</mediatype>
              <trackindex>1</trackindex>
              <clipindex>95</clipindex>
              <groupindex>95</groupindex>
            </link>
            <link>
              <mediatype>audio</mediatype>
              <trackindex>2</trackindex>
              <clipindex>95</clipindex>
              <groupindex>95</groupindex>
            </link>
          </clipitem>
          <clipitem>
            <name>街ブラ恵比寿02修正文字起こし.mp4</name>
            <enabled>true</enabled>
            <rate>
              <timebase>30</timebase>
              <ntsc>true</ntsc>
            </rate>
            <in>10529.6598</in>
            <out>10594.095299999999</out>
            <start>10529.659800000007</start>
            <end>10594.095300000008</end>
            <file id="街ブラ恵比寿02修正文字起こし.mp4">
              <name>街ブラ恵比寿02修正文字起こし.mp4</name>
              <pathurl>/Volumes/SSD naoki2/街ブラ恵比寿02修正文字起こし.mp4</pathurl>
              <media>
                <video>
                  <samplecharacteristics>
                    <width>720</width>
                    <height>480</height>
                    <anamorphic>false</anamorphic>
                    <pixelaspectratio>square</pixelaspectratio>
                    <fielddominance>none</fielddominance>
                  </samplecharacteristics>
                </video>
                <audio>
                  <in>0</in>
                  <out>22166.1117</out>
                  <channelcount>2</channelcount>
                  <duration>22166.1117</duration>
                </audio>
              </media>
            </file>
            <link>
              <mediatype>video</mediatype>
              <trackindex>1</trackindex>
              <clipindex>96</clipindex>
            </link>
            <link>
              <mediatype>audio</mediatype>
              <trackindex>1</trackindex>
              <clipindex>96</clipindex>
              <groupindex>96</groupindex>
            </link>
            <link>
              <mediatype>audio</mediatype>
              <trackindex>2</trackindex>
              <clipindex>96</clipindex>
              <groupindex>96</groupindex>
            </link>
          </clipitem>
          <clipitem>
            <name>街ブラ恵比寿02修正文字起こし.mp4</name>
            <enabled>true</enabled>
            <rate>
              <timebase>30</timebase>
              <ntsc>true</ntsc>
            </rate>
            <in>10594.095299999999</in>
            <out>10908.480600000003</out>
            <start>10594.095300000008</start>
            <end>10908.48060000001</end>
            <file id="街ブラ恵比寿02修正文字起こし.mp4">
              <name>街ブラ恵比寿02修正文字起こし.mp4</name>
              <pathurl>/Volumes/SSD naoki2/街ブラ恵比寿02修正文字起こし.mp4</pathurl>
              <media>
                <video>
                  <samplecharacteristics>
                    <width>720</width>
                    <height>480</height>
                    <anamorphic>false</anamorphic>
                    <pixelaspectratio>square</pixelaspectratio>
                    <fielddominance>none</fielddominance>
                  </samplecharacteristics>
                </video>
                <audio>
                  <in>0</in>
                  <out>22166.1117</out>
                  <channelcount>2</channelcount>
                  <duration>22166.1117</duration>
                </audio>
              </media>
            </file>
            <link>
              <mediatype>video</mediatype>
              <trackindex>1</trackindex>
              <clipindex>97</clipindex>
            </link>
            <link>
              <mediatype>audio</mediatype>
              <trackindex>1</trackindex>
              <clipindex>97</clipindex>
              <groupindex>97</groupindex>
            </link>
            <link>
              <mediatype>audio</mediatype>
              <trackindex>2</trackindex>
              <clipindex>97</clipindex>
              <groupindex>97</groupindex>
            </link>
          </clipitem>
          <clipitem>
            <name>街ブラ恵比寿02修正文字起こし.mp4</name>
            <enabled>true</enabled>
            <rate>
              <timebase>30</timebase>
              <ntsc>true</ntsc>
            </rate>
            <in>10908.4806</in>
            <out>10947.141899999999</out>
            <start>10908.48060000001</start>
            <end>10947.14190000001</end>
            <file id="街ブラ恵比寿02修正文字起こし.mp4">
              <name>街ブラ恵比寿02修正文字起こし.mp4</name>
              <pathurl>/Volumes/SSD naoki2/街ブラ恵比寿02修正文字起こし.mp4</pathurl>
              <media>
                <video>
                  <samplecharacteristics>
                    <width>720</width>
                    <height>480</height>
                    <anamorphic>false</anamorphic>
                    <pixelaspectratio>square</pixelaspectratio>
                    <fielddominance>none</fielddominance>
                  </samplecharacteristics>
                </video>
                <audio>
                  <in>0</in>
                  <out>22166.1117</out>
                  <channelcount>2</channelcount>
                  <duration>22166.1117</duration>
                </audio>
              </media>
            </file>
            <link>
              <mediatype>video</mediatype>
              <trackindex>1</trackindex>
              <clipindex>98</clipindex>
            </link>
            <link>
              <mediatype>audio</mediatype>
              <trackindex>1</trackindex>
              <clipindex>98</clipindex>
              <groupindex>98</groupindex>
            </link>
            <link>
              <mediatype>audio</mediatype>
              <trackindex>2</trackindex>
              <clipindex>98</clipindex>
              <groupindex>98</groupindex>
            </link>
          </clipitem>
          <clipitem>
            <name>街ブラ恵比寿02修正文字起こし.mp4</name>
            <enabled>true</enabled>
            <rate>
              <timebase>30</timebase>
              <ntsc>true</ntsc>
            </rate>
            <in>10947.141899999999</in>
            <out>10961.527499999998</out>
            <start>10947.14190000001</start>
            <end>10961.527500000007</end>
            <file id="街ブラ恵比寿02修正文字起こし.mp4">
              <name>街ブラ恵比寿02修正文字起こし.mp4</name>
              <pathurl>/Volumes/SSD naoki2/街ブラ恵比寿02修正文字起こし.mp4</pathurl>
              <media>
                <video>
                  <samplecharacteristics>
                    <width>720</width>
                    <height>480</height>
                    <anamorphic>false</anamorphic>
                    <pixelaspectratio>square</pixelaspectratio>
                    <fielddominance>none</fielddominance>
                  </samplecharacteristics>
                </video>
                <audio>
                  <in>0</in>
                  <out>22166.1117</out>
                  <channelcount>2</channelcount>
                  <duration>22166.1117</duration>
                </audio>
              </media>
            </file>
            <link>
              <mediatype>video</mediatype>
              <trackindex>1</trackindex>
              <clipindex>99</clipindex>
            </link>
            <link>
              <mediatype>audio</mediatype>
              <trackindex>1</trackindex>
              <clipindex>99</clipindex>
              <groupindex>99</groupindex>
            </link>
            <link>
              <mediatype>audio</mediatype>
              <trackindex>2</trackindex>
              <clipindex>99</clipindex>
              <groupindex>99</groupindex>
            </link>
          </clipitem>
          <clipitem>
            <name>街ブラ恵比寿02修正文字起こし.mp4</name>
            <enabled>true</enabled>
            <rate>
              <timebase>30</timebase>
              <ntsc>true</ntsc>
            </rate>
            <in>10961.5275</in>
            <out>11029.259699999999</out>
            <start>10961.527500000007</start>
            <end>11029.259700000008</end>
            <file id="街ブラ恵比寿02修正文字起こし.mp4">
              <name>街ブラ恵比寿02修正文字起こし.mp4</name>
              <pathurl>/Volumes/SSD naoki2/街ブラ恵比寿02修正文字起こし.mp4</pathurl>
              <media>
                <video>
                  <samplecharacteristics>
                    <width>720</width>
                    <height>480</height>
                    <anamorphic>false</anamorphic>
                    <pixelaspectratio>square</pixelaspectratio>
                    <fielddominance>none</fielddominance>
                  </samplecharacteristics>
                </video>
                <audio>
                  <in>0</in>
                  <out>22166.1117</out>
                  <channelcount>2</channelcount>
                  <duration>22166.1117</duration>
                </audio>
              </media>
            </file>
            <link>
              <mediatype>video</mediatype>
              <trackindex>1</trackindex>
              <clipindex>100</clipindex>
            </link>
            <link>
              <mediatype>audio</mediatype>
              <trackindex>1</trackindex>
              <clipindex>100</clipindex>
              <groupindex>100</groupindex>
            </link>
            <link>
              <mediatype>audio</mediatype>
              <trackindex>2</trackindex>
              <clipindex>100</clipindex>
              <groupindex>100</groupindex>
            </link>
          </clipitem>
          <clipitem>
            <name>街ブラ恵比寿02修正文字起こし.mp4</name>
            <enabled>true</enabled>
            <rate>
              <timebase>30</timebase>
              <ntsc>true</ntsc>
            </rate>
            <in>11029.259699999999</in>
            <out>11122.766099999999</out>
            <start>11029.259700000008</start>
            <end>11122.766100000008</end>
            <file id="街ブラ恵比寿02修正文字起こし.mp4">
              <name>街ブラ恵比寿02修正文字起こし.mp4</name>
              <pathurl>/Volumes/SSD naoki2/街ブラ恵比寿02修正文字起こし.mp4</pathurl>
              <media>
                <video>
                  <samplecharacteristics>
                    <width>720</width>
                    <height>480</height>
                    <anamorphic>false</anamorphic>
                    <pixelaspectratio>square</pixelaspectratio>
                    <fielddominance>none</fielddominance>
                  </samplecharacteristics>
                </video>
                <audio>
                  <in>0</in>
                  <out>22166.1117</out>
                  <channelcount>2</channelcount>
                  <duration>22166.1117</duration>
                </audio>
              </media>
            </file>
            <link>
              <mediatype>video</mediatype>
              <trackindex>1</trackindex>
              <clipindex>101</clipindex>
            </link>
            <link>
              <mediatype>audio</mediatype>
              <trackindex>1</trackindex>
              <clipindex>101</clipindex>
              <groupindex>101</groupindex>
            </link>
            <link>
              <mediatype>audio</mediatype>
              <trackindex>2</trackindex>
              <clipindex>101</clipindex>
              <groupindex>101</groupindex>
            </link>
          </clipitem>
          <clipitem>
            <name>街ブラ恵比寿02修正文字起こし.mp4</name>
            <enabled>true</enabled>
            <rate>
              <timebase>30</timebase>
              <ntsc>true</ntsc>
            </rate>
            <in>11122.766099999999</in>
            <out>11278.610099999998</out>
            <start>11122.766100000008</start>
            <end>11278.610100000005</end>
            <file id="街ブラ恵比寿02修正文字起こし.mp4">
              <name>街ブラ恵比寿02修正文字起こし.mp4</name>
              <pathurl>/Volumes/SSD naoki2/街ブラ恵比寿02修正文字起こし.mp4</pathurl>
              <media>
                <video>
                  <samplecharacteristics>
                    <width>720</width>
                    <height>480</height>
                    <anamorphic>false</anamorphic>
                    <pixelaspectratio>square</pixelaspectratio>
                    <fielddominance>none</fielddominance>
                  </samplecharacteristics>
                </video>
                <audio>
                  <in>0</in>
                  <out>22166.1117</out>
                  <channelcount>2</channelcount>
                  <duration>22166.1117</duration>
                </audio>
              </media>
            </file>
            <link>
              <mediatype>video</mediatype>
              <trackindex>1</trackindex>
              <clipindex>102</clipindex>
            </link>
            <link>
              <mediatype>audio</mediatype>
              <trackindex>1</trackindex>
              <clipindex>102</clipindex>
              <groupindex>102</groupindex>
            </link>
            <link>
              <mediatype>audio</mediatype>
              <trackindex>2</trackindex>
              <clipindex>102</clipindex>
              <groupindex>102</groupindex>
            </link>
          </clipitem>
          <clipitem>
            <name>街ブラ恵比寿02修正文字起こし.mp4</name>
            <enabled>true</enabled>
            <rate>
              <timebase>30</timebase>
              <ntsc>true</ntsc>
            </rate>
            <in>11278.6101</in>
            <out>11339.748899999997</out>
            <start>11278.610100000005</start>
            <end>11339.748900000002</end>
            <file id="街ブラ恵比寿02修正文字起こし.mp4">
              <name>街ブラ恵比寿02修正文字起こし.mp4</name>
              <pathurl>/Volumes/SSD naoki2/街ブラ恵比寿02修正文字起こし.mp4</pathurl>
              <media>
                <video>
                  <samplecharacteristics>
                    <width>720</width>
                    <height>480</height>
                    <anamorphic>false</anamorphic>
                    <pixelaspectratio>square</pixelaspectratio>
                    <fielddominance>none</fielddominance>
                  </samplecharacteristics>
                </video>
                <audio>
                  <in>0</in>
                  <out>22166.1117</out>
                  <channelcount>2</channelcount>
                  <duration>22166.1117</duration>
                </audio>
              </media>
            </file>
            <link>
              <mediatype>video</mediatype>
              <trackindex>1</trackindex>
              <clipindex>103</clipindex>
            </link>
            <link>
              <mediatype>audio</mediatype>
              <trackindex>1</trackindex>
              <clipindex>103</clipindex>
              <groupindex>103</groupindex>
            </link>
            <link>
              <mediatype>audio</mediatype>
              <trackindex>2</trackindex>
              <clipindex>103</clipindex>
              <groupindex>103</groupindex>
            </link>
          </clipitem>
          <clipitem>
            <name>街ブラ恵比寿02修正文字起こし.mp4</name>
            <enabled>true</enabled>
            <rate>
              <timebase>30</timebase>
              <ntsc>true</ntsc>
            </rate>
            <in>11339.7489</in>
            <out>11437.1514</out>
            <start>11339.748900000002</start>
            <end>11437.151400000004</end>
            <file id="街ブラ恵比寿02修正文字起こし.mp4">
              <name>街ブラ恵比寿02修正文字起こし.mp4</name>
              <pathurl>/Volumes/SSD naoki2/街ブラ恵比寿02修正文字起こし.mp4</pathurl>
              <media>
                <video>
                  <samplecharacteristics>
                    <width>720</width>
                    <height>480</height>
                    <anamorphic>false</anamorphic>
                    <pixelaspectratio>square</pixelaspectratio>
                    <fielddominance>none</fielddominance>
                  </samplecharacteristics>
                </video>
                <audio>
                  <in>0</in>
                  <out>22166.1117</out>
                  <channelcount>2</channelcount>
                  <duration>22166.1117</duration>
                </audio>
              </media>
            </file>
            <link>
              <mediatype>video</mediatype>
              <trackindex>1</trackindex>
              <clipindex>104</clipindex>
            </link>
            <link>
              <mediatype>audio</mediatype>
              <trackindex>1</trackindex>
              <clipindex>104</clipindex>
              <groupindex>104</groupindex>
            </link>
            <link>
              <mediatype>audio</mediatype>
              <trackindex>2</trackindex>
              <clipindex>104</clipindex>
              <groupindex>104</groupindex>
            </link>
          </clipitem>
          <clipitem>
            <name>街ブラ恵比寿02修正文字起こし.mp4</name>
            <enabled>true</enabled>
            <rate>
              <timebase>30</timebase>
              <ntsc>true</ntsc>
            </rate>
            <in>11437.151399999999</in>
            <out>11512.376100000003</out>
            <start>11437.151400000004</start>
            <end>11512.376100000009</end>
            <file id="街ブラ恵比寿02修正文字起こし.mp4">
              <name>街ブラ恵比寿02修正文字起こし.mp4</name>
              <pathurl>/Volumes/SSD naoki2/街ブラ恵比寿02修正文字起こし.mp4</pathurl>
              <media>
                <video>
                  <samplecharacteristics>
                    <width>720</width>
                    <height>480</height>
                    <anamorphic>false</anamorphic>
                    <pixelaspectratio>square</pixelaspectratio>
                    <fielddominance>none</fielddominance>
                  </samplecharacteristics>
                </video>
                <audio>
                  <in>0</in>
                  <out>22166.1117</out>
                  <channelcount>2</channelcount>
                  <duration>22166.1117</duration>
                </audio>
              </media>
            </file>
            <link>
              <mediatype>video</mediatype>
              <trackindex>1</trackindex>
              <clipindex>105</clipindex>
            </link>
            <link>
              <mediatype>audio</mediatype>
              <trackindex>1</trackindex>
              <clipindex>105</clipindex>
              <groupindex>105</groupindex>
            </link>
            <link>
              <mediatype>audio</mediatype>
              <trackindex>2</trackindex>
              <clipindex>105</clipindex>
              <groupindex>105</groupindex>
            </link>
          </clipitem>
          <clipitem>
            <name>街ブラ恵比寿02修正文字起こし.mp4</name>
            <enabled>true</enabled>
            <rate>
              <timebase>30</timebase>
              <ntsc>true</ntsc>
            </rate>
            <in>11512.3761</in>
            <out>11565.7227</out>
            <start>11512.376100000009</start>
            <end>11565.72270000001</end>
            <file id="街ブラ恵比寿02修正文字起こし.mp4">
              <name>街ブラ恵比寿02修正文字起こし.mp4</name>
              <pathurl>/Volumes/SSD naoki2/街ブラ恵比寿02修正文字起こし.mp4</pathurl>
              <media>
                <video>
                  <samplecharacteristics>
                    <width>720</width>
                    <height>480</height>
                    <anamorphic>false</anamorphic>
                    <pixelaspectratio>square</pixelaspectratio>
                    <fielddominance>none</fielddominance>
                  </samplecharacteristics>
                </video>
                <audio>
                  <in>0</in>
                  <out>22166.1117</out>
                  <channelcount>2</channelcount>
                  <duration>22166.1117</duration>
                </audio>
              </media>
            </file>
            <link>
              <mediatype>video</mediatype>
              <trackindex>1</trackindex>
              <clipindex>106</clipindex>
            </link>
            <link>
              <mediatype>audio</mediatype>
              <trackindex>1</trackindex>
              <clipindex>106</clipindex>
              <groupindex>106</groupindex>
            </link>
            <link>
              <mediatype>audio</mediatype>
              <trackindex>2</trackindex>
              <clipindex>106</clipindex>
              <groupindex>106</groupindex>
            </link>
          </clipitem>
          <clipitem>
            <name>街ブラ恵比寿02修正文字起こし.mp4</name>
            <enabled>true</enabled>
            <rate>
              <timebase>30</timebase>
              <ntsc>true</ntsc>
            </rate>
            <in>11565.7227</in>
            <out>11638.849499999998</out>
            <start>11565.72270000001</start>
            <end>11638.849500000008</end>
            <file id="街ブラ恵比寿02修正文字起こし.mp4">
              <name>街ブラ恵比寿02修正文字起こし.mp4</name>
              <pathurl>/Volumes/SSD naoki2/街ブラ恵比寿02修正文字起こし.mp4</pathurl>
              <media>
                <video>
                  <samplecharacteristics>
                    <width>720</width>
                    <height>480</height>
                    <anamorphic>false</anamorphic>
                    <pixelaspectratio>square</pixelaspectratio>
                    <fielddominance>none</fielddominance>
                  </samplecharacteristics>
                </video>
                <audio>
                  <in>0</in>
                  <out>22166.1117</out>
                  <channelcount>2</channelcount>
                  <duration>22166.1117</duration>
                </audio>
              </media>
            </file>
            <link>
              <mediatype>video</mediatype>
              <trackindex>1</trackindex>
              <clipindex>107</clipindex>
            </link>
            <link>
              <mediatype>audio</mediatype>
              <trackindex>1</trackindex>
              <clipindex>107</clipindex>
              <groupindex>107</groupindex>
            </link>
            <link>
              <mediatype>audio</mediatype>
              <trackindex>2</trackindex>
              <clipindex>107</clipindex>
              <groupindex>107</groupindex>
            </link>
          </clipitem>
          <clipitem>
            <name>街ブラ恵比寿02修正文字起こし.mp4</name>
            <enabled>true</enabled>
            <rate>
              <timebase>30</timebase>
              <ntsc>true</ntsc>
            </rate>
            <in>11638.8495</in>
            <out>11724.264000000001</out>
            <start>11638.849500000008</start>
            <end>11724.264000000008</end>
            <file id="街ブラ恵比寿02修正文字起こし.mp4">
              <name>街ブラ恵比寿02修正文字起こし.mp4</name>
              <pathurl>/Volumes/SSD naoki2/街ブラ恵比寿02修正文字起こし.mp4</pathurl>
              <media>
                <video>
                  <samplecharacteristics>
                    <width>720</width>
                    <height>480</height>
                    <anamorphic>false</anamorphic>
                    <pixelaspectratio>square</pixelaspectratio>
                    <fielddominance>none</fielddominance>
                  </samplecharacteristics>
                </video>
                <audio>
                  <in>0</in>
                  <out>22166.1117</out>
                  <channelcount>2</channelcount>
                  <duration>22166.1117</duration>
                </audio>
              </media>
            </file>
            <link>
              <mediatype>video</mediatype>
              <trackindex>1</trackindex>
              <clipindex>108</clipindex>
            </link>
            <link>
              <mediatype>audio</mediatype>
              <trackindex>1</trackindex>
              <clipindex>108</clipindex>
              <groupindex>108</groupindex>
            </link>
            <link>
              <mediatype>audio</mediatype>
              <trackindex>2</trackindex>
              <clipindex>108</clipindex>
              <groupindex>108</groupindex>
            </link>
          </clipitem>
          <clipitem>
            <name>街ブラ恵比寿02修正文字起こし.mp4</name>
            <enabled>true</enabled>
            <rate>
              <timebase>30</timebase>
              <ntsc>true</ntsc>
            </rate>
            <in>11724.264</in>
            <out>11781.506699999998</out>
            <start>11724.264000000008</start>
            <end>11781.506700000007</end>
            <file id="街ブラ恵比寿02修正文字起こし.mp4">
              <name>街ブラ恵比寿02修正文字起こし.mp4</name>
              <pathurl>/Volumes/SSD naoki2/街ブラ恵比寿02修正文字起こし.mp4</pathurl>
              <media>
                <video>
                  <samplecharacteristics>
                    <width>720</width>
                    <height>480</height>
                    <anamorphic>false</anamorphic>
                    <pixelaspectratio>square</pixelaspectratio>
                    <fielddominance>none</fielddominance>
                  </samplecharacteristics>
                </video>
                <audio>
                  <in>0</in>
                  <out>22166.1117</out>
                  <channelcount>2</channelcount>
                  <duration>22166.1117</duration>
                </audio>
              </media>
            </file>
            <link>
              <mediatype>video</mediatype>
              <trackindex>1</trackindex>
              <clipindex>109</clipindex>
            </link>
            <link>
              <mediatype>audio</mediatype>
              <trackindex>1</trackindex>
              <clipindex>109</clipindex>
              <groupindex>109</groupindex>
            </link>
            <link>
              <mediatype>audio</mediatype>
              <trackindex>2</trackindex>
              <clipindex>109</clipindex>
              <groupindex>109</groupindex>
            </link>
          </clipitem>
          <clipitem>
            <name>街ブラ恵比寿02修正文字起こし.mp4</name>
            <enabled>true</enabled>
            <rate>
              <timebase>30</timebase>
              <ntsc>true</ntsc>
            </rate>
            <in>11781.5067</in>
            <out>11889.3987</out>
            <start>11781.506700000007</start>
            <end>11889.398700000007</end>
            <file id="街ブラ恵比寿02修正文字起こし.mp4">
              <name>街ブラ恵比寿02修正文字起こし.mp4</name>
              <pathurl>/Volumes/SSD naoki2/街ブラ恵比寿02修正文字起こし.mp4</pathurl>
              <media>
                <video>
                  <samplecharacteristics>
                    <width>720</width>
                    <height>480</height>
                    <anamorphic>false</anamorphic>
                    <pixelaspectratio>square</pixelaspectratio>
                    <fielddominance>none</fielddominance>
                  </samplecharacteristics>
                </video>
                <audio>
                  <in>0</in>
                  <out>22166.1117</out>
                  <channelcount>2</channelcount>
                  <duration>22166.1117</duration>
                </audio>
              </media>
            </file>
            <link>
              <mediatype>video</mediatype>
              <trackindex>1</trackindex>
              <clipindex>110</clipindex>
            </link>
            <link>
              <mediatype>audio</mediatype>
              <trackindex>1</trackindex>
              <clipindex>110</clipindex>
              <groupindex>110</groupindex>
            </link>
            <link>
              <mediatype>audio</mediatype>
              <trackindex>2</trackindex>
              <clipindex>110</clipindex>
              <groupindex>110</groupindex>
            </link>
          </clipitem>
          <clipitem>
            <name>街ブラ恵比寿02修正文字起こし.mp4</name>
            <enabled>true</enabled>
            <rate>
              <timebase>30</timebase>
              <ntsc>true</ntsc>
            </rate>
            <in>11889.3987</in>
            <out>11953.234799999998</out>
            <start>11889.398700000007</start>
            <end>11953.234800000007</end>
            <file id="街ブラ恵比寿02修正文字起こし.mp4">
              <name>街ブラ恵比寿02修正文字起こし.mp4</name>
              <pathurl>/Volumes/SSD naoki2/街ブラ恵比寿02修正文字起こし.mp4</pathurl>
              <media>
                <video>
                  <samplecharacteristics>
                    <width>720</width>
                    <height>480</height>
                    <anamorphic>false</anamorphic>
                    <pixelaspectratio>square</pixelaspectratio>
                    <fielddominance>none</fielddominance>
                  </samplecharacteristics>
                </video>
                <audio>
                  <in>0</in>
                  <out>22166.1117</out>
                  <channelcount>2</channelcount>
                  <duration>22166.1117</duration>
                </audio>
              </media>
            </file>
            <link>
              <mediatype>video</mediatype>
              <trackindex>1</trackindex>
              <clipindex>111</clipindex>
            </link>
            <link>
              <mediatype>audio</mediatype>
              <trackindex>1</trackindex>
              <clipindex>111</clipindex>
              <groupindex>111</groupindex>
            </link>
            <link>
              <mediatype>audio</mediatype>
              <trackindex>2</trackindex>
              <clipindex>111</clipindex>
              <groupindex>111</groupindex>
            </link>
          </clipitem>
          <clipitem>
            <name>街ブラ恵比寿02修正文字起こし.mp4</name>
            <enabled>true</enabled>
            <rate>
              <timebase>30</timebase>
              <ntsc>true</ntsc>
            </rate>
            <in>11953.234799999998</in>
            <out>12120.167699999995</out>
            <start>11953.234800000007</start>
            <end>12120.167700000004</end>
            <file id="街ブラ恵比寿02修正文字起こし.mp4">
              <name>街ブラ恵比寿02修正文字起こし.mp4</name>
              <pathurl>/Volumes/SSD naoki2/街ブラ恵比寿02修正文字起こし.mp4</pathurl>
              <media>
                <video>
                  <samplecharacteristics>
                    <width>720</width>
                    <height>480</height>
                    <anamorphic>false</anamorphic>
                    <pixelaspectratio>square</pixelaspectratio>
                    <fielddominance>none</fielddominance>
                  </samplecharacteristics>
                </video>
                <audio>
                  <in>0</in>
                  <out>22166.1117</out>
                  <channelcount>2</channelcount>
                  <duration>22166.1117</duration>
                </audio>
              </media>
            </file>
            <link>
              <mediatype>video</mediatype>
              <trackindex>1</trackindex>
              <clipindex>112</clipindex>
            </link>
            <link>
              <mediatype>audio</mediatype>
              <trackindex>1</trackindex>
              <clipindex>112</clipindex>
              <groupindex>112</groupindex>
            </link>
            <link>
              <mediatype>audio</mediatype>
              <trackindex>2</trackindex>
              <clipindex>112</clipindex>
              <groupindex>112</groupindex>
            </link>
          </clipitem>
          <clipitem>
            <name>街ブラ恵比寿02修正文字起こし.mp4</name>
            <enabled>true</enabled>
            <rate>
              <timebase>30</timebase>
              <ntsc>true</ntsc>
            </rate>
            <in>12120.1677</in>
            <out>12289.198499999999</out>
            <start>12120.167700000004</start>
            <end>12289.198500000002</end>
            <file id="街ブラ恵比寿02修正文字起こし.mp4">
              <name>街ブラ恵比寿02修正文字起こし.mp4</name>
              <pathurl>/Volumes/SSD naoki2/街ブラ恵比寿02修正文字起こし.mp4</pathurl>
              <media>
                <video>
                  <samplecharacteristics>
                    <width>720</width>
                    <height>480</height>
                    <anamorphic>false</anamorphic>
                    <pixelaspectratio>square</pixelaspectratio>
                    <fielddominance>none</fielddominance>
                  </samplecharacteristics>
                </video>
                <audio>
                  <in>0</in>
                  <out>22166.1117</out>
                  <channelcount>2</channelcount>
                  <duration>22166.1117</duration>
                </audio>
              </media>
            </file>
            <link>
              <mediatype>video</mediatype>
              <trackindex>1</trackindex>
              <clipindex>113</clipindex>
            </link>
            <link>
              <mediatype>audio</mediatype>
              <trackindex>1</trackindex>
              <clipindex>113</clipindex>
              <groupindex>113</groupindex>
            </link>
            <link>
              <mediatype>audio</mediatype>
              <trackindex>2</trackindex>
              <clipindex>113</clipindex>
              <groupindex>113</groupindex>
            </link>
          </clipitem>
          <clipitem>
            <name>街ブラ恵比寿02修正文字起こし.mp4</name>
            <enabled>true</enabled>
            <rate>
              <timebase>30</timebase>
              <ntsc>true</ntsc>
            </rate>
            <in>12289.1985</in>
            <out>12370.7169</out>
            <start>12289.198500000002</start>
            <end>12370.716900000001</end>
            <file id="街ブラ恵比寿02修正文字起こし.mp4">
              <name>街ブラ恵比寿02修正文字起こし.mp4</name>
              <pathurl>/Volumes/SSD naoki2/街ブラ恵比寿02修正文字起こし.mp4</pathurl>
              <media>
                <video>
                  <samplecharacteristics>
                    <width>720</width>
                    <height>480</height>
                    <anamorphic>false</anamorphic>
                    <pixelaspectratio>square</pixelaspectratio>
                    <fielddominance>none</fielddominance>
                  </samplecharacteristics>
                </video>
                <audio>
                  <in>0</in>
                  <out>22166.1117</out>
                  <channelcount>2</channelcount>
                  <duration>22166.1117</duration>
                </audio>
              </media>
            </file>
            <link>
              <mediatype>video</mediatype>
              <trackindex>1</trackindex>
              <clipindex>114</clipindex>
            </link>
            <link>
              <mediatype>audio</mediatype>
              <trackindex>1</trackindex>
              <clipindex>114</clipindex>
              <groupindex>114</groupindex>
            </link>
            <link>
              <mediatype>audio</mediatype>
              <trackindex>2</trackindex>
              <clipindex>114</clipindex>
              <groupindex>114</groupindex>
            </link>
          </clipitem>
          <clipitem>
            <name>街ブラ恵比寿02修正文字起こし.mp4</name>
            <enabled>true</enabled>
            <rate>
              <timebase>30</timebase>
              <ntsc>true</ntsc>
            </rate>
            <in>12370.7169</in>
            <out>12425.561999999998</out>
            <start>12370.716900000001</start>
            <end>12425.562</end>
            <file id="街ブラ恵比寿02修正文字起こし.mp4">
              <name>街ブラ恵比寿02修正文字起こし.mp4</name>
              <pathurl>/Volumes/SSD naoki2/街ブラ恵比寿02修正文字起こし.mp4</pathurl>
              <media>
                <video>
                  <samplecharacteristics>
                    <width>720</width>
                    <height>480</height>
                    <anamorphic>false</anamorphic>
                    <pixelaspectratio>square</pixelaspectratio>
                    <fielddominance>none</fielddominance>
                  </samplecharacteristics>
                </video>
                <audio>
                  <in>0</in>
                  <out>22166.1117</out>
                  <channelcount>2</channelcount>
                  <duration>22166.1117</duration>
                </audio>
              </media>
            </file>
            <link>
              <mediatype>video</mediatype>
              <trackindex>1</trackindex>
              <clipindex>115</clipindex>
            </link>
            <link>
              <mediatype>audio</mediatype>
              <trackindex>1</trackindex>
              <clipindex>115</clipindex>
              <groupindex>115</groupindex>
            </link>
            <link>
              <mediatype>audio</mediatype>
              <trackindex>2</trackindex>
              <clipindex>115</clipindex>
              <groupindex>115</groupindex>
            </link>
          </clipitem>
          <clipitem>
            <name>街ブラ恵比寿02修正文字起こし.mp4</name>
            <enabled>true</enabled>
            <rate>
              <timebase>30</timebase>
              <ntsc>true</ntsc>
            </rate>
            <in>12425.562</in>
            <out>12493.2942</out>
            <start>12425.562</start>
            <end>12493.2942</end>
            <file id="街ブラ恵比寿02修正文字起こし.mp4">
              <name>街ブラ恵比寿02修正文字起こし.mp4</name>
              <pathurl>/Volumes/SSD naoki2/街ブラ恵比寿02修正文字起こし.mp4</pathurl>
              <media>
                <video>
                  <samplecharacteristics>
                    <width>720</width>
                    <height>480</height>
                    <anamorphic>false</anamorphic>
                    <pixelaspectratio>square</pixelaspectratio>
                    <fielddominance>none</fielddominance>
                  </samplecharacteristics>
                </video>
                <audio>
                  <in>0</in>
                  <out>22166.1117</out>
                  <channelcount>2</channelcount>
                  <duration>22166.1117</duration>
                </audio>
              </media>
            </file>
            <link>
              <mediatype>video</mediatype>
              <trackindex>1</trackindex>
              <clipindex>116</clipindex>
            </link>
            <link>
              <mediatype>audio</mediatype>
              <trackindex>1</trackindex>
              <clipindex>116</clipindex>
              <groupindex>116</groupindex>
            </link>
            <link>
              <mediatype>audio</mediatype>
              <trackindex>2</trackindex>
              <clipindex>116</clipindex>
              <groupindex>116</groupindex>
            </link>
          </clipitem>
          <clipitem>
            <name>街ブラ恵比寿02修正文字起こし.mp4</name>
            <enabled>true</enabled>
            <rate>
              <timebase>30</timebase>
              <ntsc>true</ntsc>
            </rate>
            <in>12493.2942</in>
            <out>12530.7567</out>
            <start>12493.2942</start>
            <end>12530.7567</end>
            <file id="街ブラ恵比寿02修正文字起こし.mp4">
              <name>街ブラ恵比寿02修正文字起こし.mp4</name>
              <pathurl>/Volumes/SSD naoki2/街ブラ恵比寿02修正文字起こし.mp4</pathurl>
              <media>
                <video>
                  <samplecharacteristics>
                    <width>720</width>
                    <height>480</height>
                    <anamorphic>false</anamorphic>
                    <pixelaspectratio>square</pixelaspectratio>
                    <fielddominance>none</fielddominance>
                  </samplecharacteristics>
                </video>
                <audio>
                  <in>0</in>
                  <out>22166.1117</out>
                  <channelcount>2</channelcount>
                  <duration>22166.1117</duration>
                </audio>
              </media>
            </file>
            <link>
              <mediatype>video</mediatype>
              <trackindex>1</trackindex>
              <clipindex>117</clipindex>
            </link>
            <link>
              <mediatype>audio</mediatype>
              <trackindex>1</trackindex>
              <clipindex>117</clipindex>
              <groupindex>117</groupindex>
            </link>
            <link>
              <mediatype>audio</mediatype>
              <trackindex>2</trackindex>
              <clipindex>117</clipindex>
              <groupindex>117</groupindex>
            </link>
          </clipitem>
          <clipitem>
            <name>街ブラ恵比寿02修正文字起こし.mp4</name>
            <enabled>true</enabled>
            <rate>
              <timebase>30</timebase>
              <ntsc>true</ntsc>
            </rate>
            <in>12530.7567</in>
            <out>12559.527900000001</out>
            <start>12530.7567</start>
            <end>12559.527900000001</end>
            <file id="街ブラ恵比寿02修正文字起こし.mp4">
              <name>街ブラ恵比寿02修正文字起こし.mp4</name>
              <pathurl>/Volumes/SSD naoki2/街ブラ恵比寿02修正文字起こし.mp4</pathurl>
              <media>
                <video>
                  <samplecharacteristics>
                    <width>720</width>
                    <height>480</height>
                    <anamorphic>false</anamorphic>
                    <pixelaspectratio>square</pixelaspectratio>
                    <fielddominance>none</fielddominance>
                  </samplecharacteristics>
                </video>
                <audio>
                  <in>0</in>
                  <out>22166.1117</out>
                  <channelcount>2</channelcount>
                  <duration>22166.1117</duration>
                </audio>
              </media>
            </file>
            <link>
              <mediatype>video</mediatype>
              <trackindex>1</trackindex>
              <clipindex>118</clipindex>
            </link>
            <link>
              <mediatype>audio</mediatype>
              <trackindex>1</trackindex>
              <clipindex>118</clipindex>
              <groupindex>118</groupindex>
            </link>
            <link>
              <mediatype>audio</mediatype>
              <trackindex>2</trackindex>
              <clipindex>118</clipindex>
              <groupindex>118</groupindex>
            </link>
          </clipitem>
          <clipitem>
            <name>街ブラ恵比寿02修正文字起こし.mp4</name>
            <enabled>true</enabled>
            <rate>
              <timebase>30</timebase>
              <ntsc>true</ntsc>
            </rate>
            <in>12559.5279</in>
            <out>12611.0763</out>
            <start>12559.527900000001</start>
            <end>12611.076300000002</end>
            <file id="街ブラ恵比寿02修正文字起こし.mp4">
              <name>街ブラ恵比寿02修正文字起こし.mp4</name>
              <pathurl>/Volumes/SSD naoki2/街ブラ恵比寿02修正文字起こし.mp4</pathurl>
              <media>
                <video>
                  <samplecharacteristics>
                    <width>720</width>
                    <height>480</height>
                    <anamorphic>false</anamorphic>
                    <pixelaspectratio>square</pixelaspectratio>
                    <fielddominance>none</fielddominance>
                  </samplecharacteristics>
                </video>
                <audio>
                  <in>0</in>
                  <out>22166.1117</out>
                  <channelcount>2</channelcount>
                  <duration>22166.1117</duration>
                </audio>
              </media>
            </file>
            <link>
              <mediatype>video</mediatype>
              <trackindex>1</trackindex>
              <clipindex>119</clipindex>
            </link>
            <link>
              <mediatype>audio</mediatype>
              <trackindex>1</trackindex>
              <clipindex>119</clipindex>
              <groupindex>119</groupindex>
            </link>
            <link>
              <mediatype>audio</mediatype>
              <trackindex>2</trackindex>
              <clipindex>119</clipindex>
              <groupindex>119</groupindex>
            </link>
          </clipitem>
          <clipitem>
            <name>街ブラ恵比寿02修正文字起こし.mp4</name>
            <enabled>true</enabled>
            <rate>
              <timebase>30</timebase>
              <ntsc>true</ntsc>
            </rate>
            <in>12611.0763</in>
            <out>12686.0013</out>
            <start>12611.076300000002</start>
            <end>12686.001300000002</end>
            <file id="街ブラ恵比寿02修正文字起こし.mp4">
              <name>街ブラ恵比寿02修正文字起こし.mp4</name>
              <pathurl>/Volumes/SSD naoki2/街ブラ恵比寿02修正文字起こし.mp4</pathurl>
              <media>
                <video>
                  <samplecharacteristics>
                    <width>720</width>
                    <height>480</height>
                    <anamorphic>false</anamorphic>
                    <pixelaspectratio>square</pixelaspectratio>
                    <fielddominance>none</fielddominance>
                  </samplecharacteristics>
                </video>
                <audio>
                  <in>0</in>
                  <out>22166.1117</out>
                  <channelcount>2</channelcount>
                  <duration>22166.1117</duration>
                </audio>
              </media>
            </file>
            <link>
              <mediatype>video</mediatype>
              <trackindex>1</trackindex>
              <clipindex>120</clipindex>
            </link>
            <link>
              <mediatype>audio</mediatype>
              <trackindex>1</trackindex>
              <clipindex>120</clipindex>
              <groupindex>120</groupindex>
            </link>
            <link>
              <mediatype>audio</mediatype>
              <trackindex>2</trackindex>
              <clipindex>120</clipindex>
              <groupindex>120</groupindex>
            </link>
          </clipitem>
          <clipitem>
            <name>街ブラ恵比寿02修正文字起こし.mp4</name>
            <enabled>true</enabled>
            <rate>
              <timebase>30</timebase>
              <ntsc>true</ntsc>
            </rate>
            <in>12686.0013</in>
            <out>12736.650599999999</out>
            <start>12686.001300000002</start>
            <end>12736.6506</end>
            <file id="街ブラ恵比寿02修正文字起こし.mp4">
              <name>街ブラ恵比寿02修正文字起こし.mp4</name>
              <pathurl>/Volumes/SSD naoki2/街ブラ恵比寿02修正文字起こし.mp4</pathurl>
              <media>
                <video>
                  <samplecharacteristics>
                    <width>720</width>
                    <height>480</height>
                    <anamorphic>false</anamorphic>
                    <pixelaspectratio>square</pixelaspectratio>
                    <fielddominance>none</fielddominance>
                  </samplecharacteristics>
                </video>
                <audio>
                  <in>0</in>
                  <out>22166.1117</out>
                  <channelcount>2</channelcount>
                  <duration>22166.1117</duration>
                </audio>
              </media>
            </file>
            <link>
              <mediatype>video</mediatype>
              <trackindex>1</trackindex>
              <clipindex>121</clipindex>
            </link>
            <link>
              <mediatype>audio</mediatype>
              <trackindex>1</trackindex>
              <clipindex>121</clipindex>
              <groupindex>121</groupindex>
            </link>
            <link>
              <mediatype>audio</mediatype>
              <trackindex>2</trackindex>
              <clipindex>121</clipindex>
              <groupindex>121</groupindex>
            </link>
          </clipitem>
          <clipitem>
            <name>街ブラ恵比寿02修正文字起こし.mp4</name>
            <enabled>true</enabled>
            <rate>
              <timebase>30</timebase>
              <ntsc>true</ntsc>
            </rate>
            <in>12736.6506</in>
            <out>12940.1469</out>
            <start>12736.6506</start>
            <end>12940.1469</end>
            <file id="街ブラ恵比寿02修正文字起こし.mp4">
              <name>街ブラ恵比寿02修正文字起こし.mp4</name>
              <pathurl>/Volumes/SSD naoki2/街ブラ恵比寿02修正文字起こし.mp4</pathurl>
              <media>
                <video>
                  <samplecharacteristics>
                    <width>720</width>
                    <height>480</height>
                    <anamorphic>false</anamorphic>
                    <pixelaspectratio>square</pixelaspectratio>
                    <fielddominance>none</fielddominance>
                  </samplecharacteristics>
                </video>
                <audio>
                  <in>0</in>
                  <out>22166.1117</out>
                  <channelcount>2</channelcount>
                  <duration>22166.1117</duration>
                </audio>
              </media>
            </file>
            <link>
              <mediatype>video</mediatype>
              <trackindex>1</trackindex>
              <clipindex>122</clipindex>
            </link>
            <link>
              <mediatype>audio</mediatype>
              <trackindex>1</trackindex>
              <clipindex>122</clipindex>
              <groupindex>122</groupindex>
            </link>
            <link>
              <mediatype>audio</mediatype>
              <trackindex>2</trackindex>
              <clipindex>122</clipindex>
              <groupindex>122</groupindex>
            </link>
          </clipitem>
          <clipitem>
            <name>街ブラ恵比寿02修正文字起こし.mp4</name>
            <enabled>true</enabled>
            <rate>
              <timebase>30</timebase>
              <ntsc>true</ntsc>
            </rate>
            <in>12940.1469</in>
            <out>13007.2797</out>
            <start>12940.1469</start>
            <end>13007.2797</end>
            <file id="街ブラ恵比寿02修正文字起こし.mp4">
              <name>街ブラ恵比寿02修正文字起こし.mp4</name>
              <pathurl>/Volumes/SSD naoki2/街ブラ恵比寿02修正文字起こし.mp4</pathurl>
              <media>
                <video>
                  <samplecharacteristics>
                    <width>720</width>
                    <height>480</height>
                    <anamorphic>false</anamorphic>
                    <pixelaspectratio>square</pixelaspectratio>
                    <fielddominance>none</fielddominance>
                  </samplecharacteristics>
                </video>
                <audio>
                  <in>0</in>
                  <out>22166.1117</out>
                  <channelcount>2</channelcount>
                  <duration>22166.1117</duration>
                </audio>
              </media>
            </file>
            <link>
              <mediatype>video</mediatype>
              <trackindex>1</trackindex>
              <clipindex>123</clipindex>
            </link>
            <link>
              <mediatype>audio</mediatype>
              <trackindex>1</trackindex>
              <clipindex>123</clipindex>
              <groupindex>123</groupindex>
            </link>
            <link>
              <mediatype>audio</mediatype>
              <trackindex>2</trackindex>
              <clipindex>123</clipindex>
              <groupindex>123</groupindex>
            </link>
          </clipitem>
          <clipitem>
            <name>街ブラ恵比寿02修正文字起こし.mp4</name>
            <enabled>true</enabled>
            <rate>
              <timebase>30</timebase>
              <ntsc>true</ntsc>
            </rate>
            <in>13007.2797</in>
            <out>13122.963899999997</out>
            <start>13007.2797</start>
            <end>13122.963899999997</end>
            <file id="街ブラ恵比寿02修正文字起こし.mp4">
              <name>街ブラ恵比寿02修正文字起こし.mp4</name>
              <pathurl>/Volumes/SSD naoki2/街ブラ恵比寿02修正文字起こし.mp4</pathurl>
              <media>
                <video>
                  <samplecharacteristics>
                    <width>720</width>
                    <height>480</height>
                    <anamorphic>false</anamorphic>
                    <pixelaspectratio>square</pixelaspectratio>
                    <fielddominance>none</fielddominance>
                  </samplecharacteristics>
                </video>
                <audio>
                  <in>0</in>
                  <out>22166.1117</out>
                  <channelcount>2</channelcount>
                  <duration>22166.1117</duration>
                </audio>
              </media>
            </file>
            <link>
              <mediatype>video</mediatype>
              <trackindex>1</trackindex>
              <clipindex>124</clipindex>
            </link>
            <link>
              <mediatype>audio</mediatype>
              <trackindex>1</trackindex>
              <clipindex>124</clipindex>
              <groupindex>124</groupindex>
            </link>
            <link>
              <mediatype>audio</mediatype>
              <trackindex>2</trackindex>
              <clipindex>124</clipindex>
              <groupindex>124</groupindex>
            </link>
          </clipitem>
          <clipitem>
            <name>街ブラ恵比寿02修正文字起こし.mp4</name>
            <enabled>true</enabled>
            <rate>
              <timebase>30</timebase>
              <ntsc>true</ntsc>
            </rate>
            <in>13122.963899999999</in>
            <out>13209.277499999998</out>
            <start>13122.963899999997</start>
            <end>13209.277499999995</end>
            <file id="街ブラ恵比寿02修正文字起こし.mp4">
              <name>街ブラ恵比寿02修正文字起こし.mp4</name>
              <pathurl>/Volumes/SSD naoki2/街ブラ恵比寿02修正文字起こし.mp4</pathurl>
              <media>
                <video>
                  <samplecharacteristics>
                    <width>720</width>
                    <height>480</height>
                    <anamorphic>false</anamorphic>
                    <pixelaspectratio>square</pixelaspectratio>
                    <fielddominance>none</fielddominance>
                  </samplecharacteristics>
                </video>
                <audio>
                  <in>0</in>
                  <out>22166.1117</out>
                  <channelcount>2</channelcount>
                  <duration>22166.1117</duration>
                </audio>
              </media>
            </file>
            <link>
              <mediatype>video</mediatype>
              <trackindex>1</trackindex>
              <clipindex>125</clipindex>
            </link>
            <link>
              <mediatype>audio</mediatype>
              <trackindex>1</trackindex>
              <clipindex>125</clipindex>
              <groupindex>125</groupindex>
            </link>
            <link>
              <mediatype>audio</mediatype>
              <trackindex>2</trackindex>
              <clipindex>125</clipindex>
              <groupindex>125</groupindex>
            </link>
          </clipitem>
          <clipitem>
            <name>街ブラ恵比寿02修正文字起こし.mp4</name>
            <enabled>true</enabled>
            <rate>
              <timebase>30</timebase>
              <ntsc>true</ntsc>
            </rate>
            <in>13209.2775</in>
            <out>13256.630099999998</out>
            <start>13209.277499999995</start>
            <end>13256.630099999993</end>
            <file id="街ブラ恵比寿02修正文字起こし.mp4">
              <name>街ブラ恵比寿02修正文字起こし.mp4</name>
              <pathurl>/Volumes/SSD naoki2/街ブラ恵比寿02修正文字起こし.mp4</pathurl>
              <media>
                <video>
                  <samplecharacteristics>
                    <width>720</width>
                    <height>480</height>
                    <anamorphic>false</anamorphic>
                    <pixelaspectratio>square</pixelaspectratio>
                    <fielddominance>none</fielddominance>
                  </samplecharacteristics>
                </video>
                <audio>
                  <in>0</in>
                  <out>22166.1117</out>
                  <channelcount>2</channelcount>
                  <duration>22166.1117</duration>
                </audio>
              </media>
            </file>
            <link>
              <mediatype>video</mediatype>
              <trackindex>1</trackindex>
              <clipindex>126</clipindex>
            </link>
            <link>
              <mediatype>audio</mediatype>
              <trackindex>1</trackindex>
              <clipindex>126</clipindex>
              <groupindex>126</groupindex>
            </link>
            <link>
              <mediatype>audio</mediatype>
              <trackindex>2</trackindex>
              <clipindex>126</clipindex>
              <groupindex>126</groupindex>
            </link>
          </clipitem>
          <clipitem>
            <name>街ブラ恵比寿02修正文字起こし.mp4</name>
            <enabled>true</enabled>
            <rate>
              <timebase>30</timebase>
              <ntsc>true</ntsc>
            </rate>
            <in>13256.630099999998</in>
            <out>13345.341300000002</out>
            <start>13256.630099999993</start>
            <end>13345.341299999996</end>
            <file id="街ブラ恵比寿02修正文字起こし.mp4">
              <name>街ブラ恵比寿02修正文字起こし.mp4</name>
              <pathurl>/Volumes/SSD naoki2/街ブラ恵比寿02修正文字起こし.mp4</pathurl>
              <media>
                <video>
                  <samplecharacteristics>
                    <width>720</width>
                    <height>480</height>
                    <anamorphic>false</anamorphic>
                    <pixelaspectratio>square</pixelaspectratio>
                    <fielddominance>none</fielddominance>
                  </samplecharacteristics>
                </video>
                <audio>
                  <in>0</in>
                  <out>22166.1117</out>
                  <channelcount>2</channelcount>
                  <duration>22166.1117</duration>
                </audio>
              </media>
            </file>
            <link>
              <mediatype>video</mediatype>
              <trackindex>1</trackindex>
              <clipindex>127</clipindex>
            </link>
            <link>
              <mediatype>audio</mediatype>
              <trackindex>1</trackindex>
              <clipindex>127</clipindex>
              <groupindex>127</groupindex>
            </link>
            <link>
              <mediatype>audio</mediatype>
              <trackindex>2</trackindex>
              <clipindex>127</clipindex>
              <groupindex>127</groupindex>
            </link>
          </clipitem>
          <clipitem>
            <name>街ブラ恵比寿02修正文字起こし.mp4</name>
            <enabled>true</enabled>
            <rate>
              <timebase>30</timebase>
              <ntsc>true</ntsc>
            </rate>
            <in>13345.3413</in>
            <out>13447.2393</out>
            <start>13345.341299999996</start>
            <end>13447.239299999996</end>
            <file id="街ブラ恵比寿02修正文字起こし.mp4">
              <name>街ブラ恵比寿02修正文字起こし.mp4</name>
              <pathurl>/Volumes/SSD naoki2/街ブラ恵比寿02修正文字起こし.mp4</pathurl>
              <media>
                <video>
                  <samplecharacteristics>
                    <width>720</width>
                    <height>480</height>
                    <anamorphic>false</anamorphic>
                    <pixelaspectratio>square</pixelaspectratio>
                    <fielddominance>none</fielddominance>
                  </samplecharacteristics>
                </video>
                <audio>
                  <in>0</in>
                  <out>22166.1117</out>
                  <channelcount>2</channelcount>
                  <duration>22166.1117</duration>
                </audio>
              </media>
            </file>
            <link>
              <mediatype>video</mediatype>
              <trackindex>1</trackindex>
              <clipindex>128</clipindex>
            </link>
            <link>
              <mediatype>audio</mediatype>
              <trackindex>1</trackindex>
              <clipindex>128</clipindex>
              <groupindex>128</groupindex>
            </link>
            <link>
              <mediatype>audio</mediatype>
              <trackindex>2</trackindex>
              <clipindex>128</clipindex>
              <groupindex>128</groupindex>
            </link>
          </clipitem>
          <clipitem>
            <name>街ブラ恵比寿02修正文字起こし.mp4</name>
            <enabled>true</enabled>
            <rate>
              <timebase>30</timebase>
              <ntsc>true</ntsc>
            </rate>
            <in>13447.2393</in>
            <out>13705.280999999997</out>
            <start>13447.239299999996</start>
            <end>13705.280999999995</end>
            <file id="街ブラ恵比寿02修正文字起こし.mp4">
              <name>街ブラ恵比寿02修正文字起こし.mp4</name>
              <pathurl>/Volumes/SSD naoki2/街ブラ恵比寿02修正文字起こし.mp4</pathurl>
              <media>
                <video>
                  <samplecharacteristics>
                    <width>720</width>
                    <height>480</height>
                    <anamorphic>false</anamorphic>
                    <pixelaspectratio>square</pixelaspectratio>
                    <fielddominance>none</fielddominance>
                  </samplecharacteristics>
                </video>
                <audio>
                  <in>0</in>
                  <out>22166.1117</out>
                  <channelcount>2</channelcount>
                  <duration>22166.1117</duration>
                </audio>
              </media>
            </file>
            <link>
              <mediatype>video</mediatype>
              <trackindex>1</trackindex>
              <clipindex>129</clipindex>
            </link>
            <link>
              <mediatype>audio</mediatype>
              <trackindex>1</trackindex>
              <clipindex>129</clipindex>
              <groupindex>129</groupindex>
            </link>
            <link>
              <mediatype>audio</mediatype>
              <trackindex>2</trackindex>
              <clipindex>129</clipindex>
              <groupindex>129</groupindex>
            </link>
          </clipitem>
          <clipitem>
            <name>街ブラ恵比寿02修正文字起こし.mp4</name>
            <enabled>true</enabled>
            <rate>
              <timebase>30</timebase>
              <ntsc>true</ntsc>
            </rate>
            <in>13705.280999999999</in>
            <out>13716.0702</out>
            <start>13705.280999999995</start>
            <end>13716.070199999995</end>
            <file id="街ブラ恵比寿02修正文字起こし.mp4">
              <name>街ブラ恵比寿02修正文字起こし.mp4</name>
              <pathurl>/Volumes/SSD naoki2/街ブラ恵比寿02修正文字起こし.mp4</pathurl>
              <media>
                <video>
                  <samplecharacteristics>
                    <width>720</width>
                    <height>480</height>
                    <anamorphic>false</anamorphic>
                    <pixelaspectratio>square</pixelaspectratio>
                    <fielddominance>none</fielddominance>
                  </samplecharacteristics>
                </video>
                <audio>
                  <in>0</in>
                  <out>22166.1117</out>
                  <channelcount>2</channelcount>
                  <duration>22166.1117</duration>
                </audio>
              </media>
            </file>
            <link>
              <mediatype>video</mediatype>
              <trackindex>1</trackindex>
              <clipindex>130</clipindex>
            </link>
            <link>
              <mediatype>audio</mediatype>
              <trackindex>1</trackindex>
              <clipindex>130</clipindex>
              <groupindex>130</groupindex>
            </link>
            <link>
              <mediatype>audio</mediatype>
              <trackindex>2</trackindex>
              <clipindex>130</clipindex>
              <groupindex>130</groupindex>
            </link>
          </clipitem>
          <clipitem>
            <name>街ブラ恵比寿02修正文字起こし.mp4</name>
            <enabled>true</enabled>
            <rate>
              <timebase>30</timebase>
              <ntsc>true</ntsc>
            </rate>
            <in>13716.0702</in>
            <out>13756.529700000001</out>
            <start>13716.070199999995</start>
            <end>13756.529699999996</end>
            <file id="街ブラ恵比寿02修正文字起こし.mp4">
              <name>街ブラ恵比寿02修正文字起こし.mp4</name>
              <pathurl>/Volumes/SSD naoki2/街ブラ恵比寿02修正文字起こし.mp4</pathurl>
              <media>
                <video>
                  <samplecharacteristics>
                    <width>720</width>
                    <height>480</height>
                    <anamorphic>false</anamorphic>
                    <pixelaspectratio>square</pixelaspectratio>
                    <fielddominance>none</fielddominance>
                  </samplecharacteristics>
                </video>
                <audio>
                  <in>0</in>
                  <out>22166.1117</out>
                  <channelcount>2</channelcount>
                  <duration>22166.1117</duration>
                </audio>
              </media>
            </file>
            <link>
              <mediatype>video</mediatype>
              <trackindex>1</trackindex>
              <clipindex>131</clipindex>
            </link>
            <link>
              <mediatype>audio</mediatype>
              <trackindex>1</trackindex>
              <clipindex>131</clipindex>
              <groupindex>131</groupindex>
            </link>
            <link>
              <mediatype>audio</mediatype>
              <trackindex>2</trackindex>
              <clipindex>131</clipindex>
              <groupindex>131</groupindex>
            </link>
          </clipitem>
          <clipitem>
            <name>街ブラ恵比寿02修正文字起こし.mp4</name>
            <enabled>true</enabled>
            <rate>
              <timebase>30</timebase>
              <ntsc>true</ntsc>
            </rate>
            <in>13756.5297</in>
            <out>14000.785199999998</out>
            <start>13756.529699999996</start>
            <end>14000.785199999995</end>
            <file id="街ブラ恵比寿02修正文字起こし.mp4">
              <name>街ブラ恵比寿02修正文字起こし.mp4</name>
              <pathurl>/Volumes/SSD naoki2/街ブラ恵比寿02修正文字起こし.mp4</pathurl>
              <media>
                <video>
                  <samplecharacteristics>
                    <width>720</width>
                    <height>480</height>
                    <anamorphic>false</anamorphic>
                    <pixelaspectratio>square</pixelaspectratio>
                    <fielddominance>none</fielddominance>
                  </samplecharacteristics>
                </video>
                <audio>
                  <in>0</in>
                  <out>22166.1117</out>
                  <channelcount>2</channelcount>
                  <duration>22166.1117</duration>
                </audio>
              </media>
            </file>
            <link>
              <mediatype>video</mediatype>
              <trackindex>1</trackindex>
              <clipindex>132</clipindex>
            </link>
            <link>
              <mediatype>audio</mediatype>
              <trackindex>1</trackindex>
              <clipindex>132</clipindex>
              <groupindex>132</groupindex>
            </link>
            <link>
              <mediatype>audio</mediatype>
              <trackindex>2</trackindex>
              <clipindex>132</clipindex>
              <groupindex>132</groupindex>
            </link>
          </clipitem>
          <clipitem>
            <name>街ブラ恵比寿02修正文字起こし.mp4</name>
            <enabled>true</enabled>
            <rate>
              <timebase>30</timebase>
              <ntsc>true</ntsc>
            </rate>
            <in>14000.7852</in>
            <out>14061.624300000001</out>
            <start>14000.785199999995</start>
            <end>14061.624299999996</end>
            <file id="街ブラ恵比寿02修正文字起こし.mp4">
              <name>街ブラ恵比寿02修正文字起こし.mp4</name>
              <pathurl>/Volumes/SSD naoki2/街ブラ恵比寿02修正文字起こし.mp4</pathurl>
              <media>
                <video>
                  <samplecharacteristics>
                    <width>720</width>
                    <height>480</height>
                    <anamorphic>false</anamorphic>
                    <pixelaspectratio>square</pixelaspectratio>
                    <fielddominance>none</fielddominance>
                  </samplecharacteristics>
                </video>
                <audio>
                  <in>0</in>
                  <out>22166.1117</out>
                  <channelcount>2</channelcount>
                  <duration>22166.1117</duration>
                </audio>
              </media>
            </file>
            <link>
              <mediatype>video</mediatype>
              <trackindex>1</trackindex>
              <clipindex>133</clipindex>
            </link>
            <link>
              <mediatype>audio</mediatype>
              <trackindex>1</trackindex>
              <clipindex>133</clipindex>
              <groupindex>133</groupindex>
            </link>
            <link>
              <mediatype>audio</mediatype>
              <trackindex>2</trackindex>
              <clipindex>133</clipindex>
              <groupindex>133</groupindex>
            </link>
          </clipitem>
          <clipitem>
            <name>街ブラ恵比寿02修正文字起こし.mp4</name>
            <enabled>true</enabled>
            <rate>
              <timebase>30</timebase>
              <ntsc>true</ntsc>
            </rate>
            <in>14061.6243</in>
            <out>14441.044499999998</out>
            <start>14061.624299999996</start>
            <end>14441.044499999995</end>
            <file id="街ブラ恵比寿02修正文字起こし.mp4">
              <name>街ブラ恵比寿02修正文字起こし.mp4</name>
              <pathurl>/Volumes/SSD naoki2/街ブラ恵比寿02修正文字起こし.mp4</pathurl>
              <media>
                <video>
                  <samplecharacteristics>
                    <width>720</width>
                    <height>480</height>
                    <anamorphic>false</anamorphic>
                    <pixelaspectratio>square</pixelaspectratio>
                    <fielddominance>none</fielddominance>
                  </samplecharacteristics>
                </video>
                <audio>
                  <in>0</in>
                  <out>22166.1117</out>
                  <channelcount>2</channelcount>
                  <duration>22166.1117</duration>
                </audio>
              </media>
            </file>
            <link>
              <mediatype>video</mediatype>
              <trackindex>1</trackindex>
              <clipindex>134</clipindex>
            </link>
            <link>
              <mediatype>audio</mediatype>
              <trackindex>1</trackindex>
              <clipindex>134</clipindex>
              <groupindex>134</groupindex>
            </link>
            <link>
              <mediatype>audio</mediatype>
              <trackindex>2</trackindex>
              <clipindex>134</clipindex>
              <groupindex>134</groupindex>
            </link>
          </clipitem>
          <clipitem>
            <name>街ブラ恵比寿02修正文字起こし.mp4</name>
            <enabled>true</enabled>
            <rate>
              <timebase>30</timebase>
              <ntsc>true</ntsc>
            </rate>
            <in>14441.0445</in>
            <out>14532.1533</out>
            <start>14441.044499999995</start>
            <end>14532.153299999994</end>
            <file id="街ブラ恵比寿02修正文字起こし.mp4">
              <name>街ブラ恵比寿02修正文字起こし.mp4</name>
              <pathurl>/Volumes/SSD naoki2/街ブラ恵比寿02修正文字起こし.mp4</pathurl>
              <media>
                <video>
                  <samplecharacteristics>
                    <width>720</width>
                    <height>480</height>
                    <anamorphic>false</anamorphic>
                    <pixelaspectratio>square</pixelaspectratio>
                    <fielddominance>none</fielddominance>
                  </samplecharacteristics>
                </video>
                <audio>
                  <in>0</in>
                  <out>22166.1117</out>
                  <channelcount>2</channelcount>
                  <duration>22166.1117</duration>
                </audio>
              </media>
            </file>
            <link>
              <mediatype>video</mediatype>
              <trackindex>1</trackindex>
              <clipindex>135</clipindex>
            </link>
            <link>
              <mediatype>audio</mediatype>
              <trackindex>1</trackindex>
              <clipindex>135</clipindex>
              <groupindex>135</groupindex>
            </link>
            <link>
              <mediatype>audio</mediatype>
              <trackindex>2</trackindex>
              <clipindex>135</clipindex>
              <groupindex>135</groupindex>
            </link>
          </clipitem>
          <clipitem>
            <name>街ブラ恵比寿02修正文字起こし.mp4</name>
            <enabled>true</enabled>
            <rate>
              <timebase>30</timebase>
              <ntsc>true</ntsc>
            </rate>
            <in>14532.1533</in>
            <out>14554.930499999999</out>
            <start>14532.153299999994</start>
            <end>14554.930499999993</end>
            <file id="街ブラ恵比寿02修正文字起こし.mp4">
              <name>街ブラ恵比寿02修正文字起こし.mp4</name>
              <pathurl>/Volumes/SSD naoki2/街ブラ恵比寿02修正文字起こし.mp4</pathurl>
              <media>
                <video>
                  <samplecharacteristics>
                    <width>720</width>
                    <height>480</height>
                    <anamorphic>false</anamorphic>
                    <pixelaspectratio>square</pixelaspectratio>
                    <fielddominance>none</fielddominance>
                  </samplecharacteristics>
                </video>
                <audio>
                  <in>0</in>
                  <out>22166.1117</out>
                  <channelcount>2</channelcount>
                  <duration>22166.1117</duration>
                </audio>
              </media>
            </file>
            <link>
              <mediatype>video</mediatype>
              <trackindex>1</trackindex>
              <clipindex>136</clipindex>
            </link>
            <link>
              <mediatype>audio</mediatype>
              <trackindex>1</trackindex>
              <clipindex>136</clipindex>
              <groupindex>136</groupindex>
            </link>
            <link>
              <mediatype>audio</mediatype>
              <trackindex>2</trackindex>
              <clipindex>136</clipindex>
              <groupindex>136</groupindex>
            </link>
          </clipitem>
          <clipitem>
            <name>街ブラ恵比寿02修正文字起こし.mp4</name>
            <enabled>true</enabled>
            <rate>
              <timebase>30</timebase>
              <ntsc>true</ntsc>
            </rate>
            <in>14554.930499999999</in>
            <out>14777.607599999992</out>
            <start>14554.930499999993</start>
            <end>14777.607599999987</end>
            <file id="街ブラ恵比寿02修正文字起こし.mp4">
              <name>街ブラ恵比寿02修正文字起こし.mp4</name>
              <pathurl>/Volumes/SSD naoki2/街ブラ恵比寿02修正文字起こし.mp4</pathurl>
              <media>
                <video>
                  <samplecharacteristics>
                    <width>720</width>
                    <height>480</height>
                    <anamorphic>false</anamorphic>
                    <pixelaspectratio>square</pixelaspectratio>
                    <fielddominance>none</fielddominance>
                  </samplecharacteristics>
                </video>
                <audio>
                  <in>0</in>
                  <out>22166.1117</out>
                  <channelcount>2</channelcount>
                  <duration>22166.1117</duration>
                </audio>
              </media>
            </file>
            <link>
              <mediatype>video</mediatype>
              <trackindex>1</trackindex>
              <clipindex>137</clipindex>
            </link>
            <link>
              <mediatype>audio</mediatype>
              <trackindex>1</trackindex>
              <clipindex>137</clipindex>
              <groupindex>137</groupindex>
            </link>
            <link>
              <mediatype>audio</mediatype>
              <trackindex>2</trackindex>
              <clipindex>137</clipindex>
              <groupindex>137</groupindex>
            </link>
          </clipitem>
          <clipitem>
            <name>街ブラ恵比寿02修正文字起こし.mp4</name>
            <enabled>true</enabled>
            <rate>
              <timebase>30</timebase>
              <ntsc>true</ntsc>
            </rate>
            <in>14777.6076</in>
            <out>14812.073099999998</out>
            <start>14777.607599999987</start>
            <end>14812.073099999987</end>
            <file id="街ブラ恵比寿02修正文字起こし.mp4">
              <name>街ブラ恵比寿02修正文字起こし.mp4</name>
              <pathurl>/Volumes/SSD naoki2/街ブラ恵比寿02修正文字起こし.mp4</pathurl>
              <media>
                <video>
                  <samplecharacteristics>
                    <width>720</width>
                    <height>480</height>
                    <anamorphic>false</anamorphic>
                    <pixelaspectratio>square</pixelaspectratio>
                    <fielddominance>none</fielddominance>
                  </samplecharacteristics>
                </video>
                <audio>
                  <in>0</in>
                  <out>22166.1117</out>
                  <channelcount>2</channelcount>
                  <duration>22166.1117</duration>
                </audio>
              </media>
            </file>
            <link>
              <mediatype>video</mediatype>
              <trackindex>1</trackindex>
              <clipindex>138</clipindex>
            </link>
            <link>
              <mediatype>audio</mediatype>
              <trackindex>1</trackindex>
              <clipindex>138</clipindex>
              <groupindex>138</groupindex>
            </link>
            <link>
              <mediatype>audio</mediatype>
              <trackindex>2</trackindex>
              <clipindex>138</clipindex>
              <groupindex>138</groupindex>
            </link>
          </clipitem>
          <clipitem>
            <name>街ブラ恵比寿02修正文字起こし.mp4</name>
            <enabled>true</enabled>
            <rate>
              <timebase>30</timebase>
              <ntsc>true</ntsc>
            </rate>
            <in>14812.0731</in>
            <out>14840.2449</out>
            <start>14812.073099999987</start>
            <end>14840.244899999987</end>
            <file id="街ブラ恵比寿02修正文字起こし.mp4">
              <name>街ブラ恵比寿02修正文字起こし.mp4</name>
              <pathurl>/Volumes/SSD naoki2/街ブラ恵比寿02修正文字起こし.mp4</pathurl>
              <media>
                <video>
                  <samplecharacteristics>
                    <width>720</width>
                    <height>480</height>
                    <anamorphic>false</anamorphic>
                    <pixelaspectratio>square</pixelaspectratio>
                    <fielddominance>none</fielddominance>
                  </samplecharacteristics>
                </video>
                <audio>
                  <in>0</in>
                  <out>22166.1117</out>
                  <channelcount>2</channelcount>
                  <duration>22166.1117</duration>
                </audio>
              </media>
            </file>
            <link>
              <mediatype>video</mediatype>
              <trackindex>1</trackindex>
              <clipindex>139</clipindex>
            </link>
            <link>
              <mediatype>audio</mediatype>
              <trackindex>1</trackindex>
              <clipindex>139</clipindex>
              <groupindex>139</groupindex>
            </link>
            <link>
              <mediatype>audio</mediatype>
              <trackindex>2</trackindex>
              <clipindex>139</clipindex>
              <groupindex>139</groupindex>
            </link>
          </clipitem>
          <clipitem>
            <name>街ブラ恵比寿02修正文字起こし.mp4</name>
            <enabled>true</enabled>
            <rate>
              <timebase>30</timebase>
              <ntsc>true</ntsc>
            </rate>
            <in>14840.2449</in>
            <out>14931.053999999998</out>
            <start>14840.244899999987</start>
            <end>14931.053999999986</end>
            <file id="街ブラ恵比寿02修正文字起こし.mp4">
              <name>街ブラ恵比寿02修正文字起こし.mp4</name>
              <pathurl>/Volumes/SSD naoki2/街ブラ恵比寿02修正文字起こし.mp4</pathurl>
              <media>
                <video>
                  <samplecharacteristics>
                    <width>720</width>
                    <height>480</height>
                    <anamorphic>false</anamorphic>
                    <pixelaspectratio>square</pixelaspectratio>
                    <fielddominance>none</fielddominance>
                  </samplecharacteristics>
                </video>
                <audio>
                  <in>0</in>
                  <out>22166.1117</out>
                  <channelcount>2</channelcount>
                  <duration>22166.1117</duration>
                </audio>
              </media>
            </file>
            <link>
              <mediatype>video</mediatype>
              <trackindex>1</trackindex>
              <clipindex>140</clipindex>
            </link>
            <link>
              <mediatype>audio</mediatype>
              <trackindex>1</trackindex>
              <clipindex>140</clipindex>
              <groupindex>140</groupindex>
            </link>
            <link>
              <mediatype>audio</mediatype>
              <trackindex>2</trackindex>
              <clipindex>140</clipindex>
              <groupindex>140</groupindex>
            </link>
          </clipitem>
          <clipitem>
            <name>街ブラ恵比寿02修正文字起こし.mp4</name>
            <enabled>true</enabled>
            <rate>
              <timebase>30</timebase>
              <ntsc>true</ntsc>
            </rate>
            <in>14931.053999999998</in>
            <out>15041.643299999998</out>
            <start>14931.053999999986</start>
            <end>15041.643299999983</end>
            <file id="街ブラ恵比寿02修正文字起こし.mp4">
              <name>街ブラ恵比寿02修正文字起こし.mp4</name>
              <pathurl>/Volumes/SSD naoki2/街ブラ恵比寿02修正文字起こし.mp4</pathurl>
              <media>
                <video>
                  <samplecharacteristics>
                    <width>720</width>
                    <height>480</height>
                    <anamorphic>false</anamorphic>
                    <pixelaspectratio>square</pixelaspectratio>
                    <fielddominance>none</fielddominance>
                  </samplecharacteristics>
                </video>
                <audio>
                  <in>0</in>
                  <out>22166.1117</out>
                  <channelcount>2</channelcount>
                  <duration>22166.1117</duration>
                </audio>
              </media>
            </file>
            <link>
              <mediatype>video</mediatype>
              <trackindex>1</trackindex>
              <clipindex>141</clipindex>
            </link>
            <link>
              <mediatype>audio</mediatype>
              <trackindex>1</trackindex>
              <clipindex>141</clipindex>
              <groupindex>141</groupindex>
            </link>
            <link>
              <mediatype>audio</mediatype>
              <trackindex>2</trackindex>
              <clipindex>141</clipindex>
              <groupindex>141</groupindex>
            </link>
          </clipitem>
          <clipitem>
            <name>街ブラ恵比寿02修正文字起こし.mp4</name>
            <enabled>true</enabled>
            <rate>
              <timebase>30</timebase>
              <ntsc>true</ntsc>
            </rate>
            <in>15041.6433</in>
            <out>15050.034899999999</out>
            <start>15041.643299999983</start>
            <end>15050.034899999982</end>
            <file id="街ブラ恵比寿02修正文字起こし.mp4">
              <name>街ブラ恵比寿02修正文字起こし.mp4</name>
              <pathurl>/Volumes/SSD naoki2/街ブラ恵比寿02修正文字起こし.mp4</pathurl>
              <media>
                <video>
                  <samplecharacteristics>
                    <width>720</width>
                    <height>480</height>
                    <anamorphic>false</anamorphic>
                    <pixelaspectratio>square</pixelaspectratio>
                    <fielddominance>none</fielddominance>
                  </samplecharacteristics>
                </video>
                <audio>
                  <in>0</in>
                  <out>22166.1117</out>
                  <channelcount>2</channelcount>
                  <duration>22166.1117</duration>
                </audio>
              </media>
            </file>
            <link>
              <mediatype>video</mediatype>
              <trackindex>1</trackindex>
              <clipindex>142</clipindex>
            </link>
            <link>
              <mediatype>audio</mediatype>
              <trackindex>1</trackindex>
              <clipindex>142</clipindex>
              <groupindex>142</groupindex>
            </link>
            <link>
              <mediatype>audio</mediatype>
              <trackindex>2</trackindex>
              <clipindex>142</clipindex>
              <groupindex>142</groupindex>
            </link>
          </clipitem>
          <clipitem>
            <name>街ブラ恵比寿02修正文字起こし.mp4</name>
            <enabled>true</enabled>
            <rate>
              <timebase>30</timebase>
              <ntsc>true</ntsc>
            </rate>
            <in>15050.0349</in>
            <out>15174.7101</out>
            <start>15050.034899999982</start>
            <end>15174.710099999984</end>
            <file id="街ブラ恵比寿02修正文字起こし.mp4">
              <name>街ブラ恵比寿02修正文字起こし.mp4</name>
              <pathurl>/Volumes/SSD naoki2/街ブラ恵比寿02修正文字起こし.mp4</pathurl>
              <media>
                <video>
                  <samplecharacteristics>
                    <width>720</width>
                    <height>480</height>
                    <anamorphic>false</anamorphic>
                    <pixelaspectratio>square</pixelaspectratio>
                    <fielddominance>none</fielddominance>
                  </samplecharacteristics>
                </video>
                <audio>
                  <in>0</in>
                  <out>22166.1117</out>
                  <channelcount>2</channelcount>
                  <duration>22166.1117</duration>
                </audio>
              </media>
            </file>
            <link>
              <mediatype>video</mediatype>
              <trackindex>1</trackindex>
              <clipindex>143</clipindex>
            </link>
            <link>
              <mediatype>audio</mediatype>
              <trackindex>1</trackindex>
              <clipindex>143</clipindex>
              <groupindex>143</groupindex>
            </link>
            <link>
              <mediatype>audio</mediatype>
              <trackindex>2</trackindex>
              <clipindex>143</clipindex>
              <groupindex>143</groupindex>
            </link>
          </clipitem>
          <clipitem>
            <name>街ブラ恵比寿02修正文字起こし.mp4</name>
            <enabled>true</enabled>
            <rate>
              <timebase>30</timebase>
              <ntsc>true</ntsc>
            </rate>
            <in>15174.710099999998</in>
            <out>15289.495199999998</out>
            <start>15174.710099999984</start>
            <end>15289.495199999983</end>
            <file id="街ブラ恵比寿02修正文字起こし.mp4">
              <name>街ブラ恵比寿02修正文字起こし.mp4</name>
              <pathurl>/Volumes/SSD naoki2/街ブラ恵比寿02修正文字起こし.mp4</pathurl>
              <media>
                <video>
                  <samplecharacteristics>
                    <width>720</width>
                    <height>480</height>
                    <anamorphic>false</anamorphic>
                    <pixelaspectratio>square</pixelaspectratio>
                    <fielddominance>none</fielddominance>
                  </samplecharacteristics>
                </video>
                <audio>
                  <in>0</in>
                  <out>22166.1117</out>
                  <channelcount>2</channelcount>
                  <duration>22166.1117</duration>
                </audio>
              </media>
            </file>
            <link>
              <mediatype>video</mediatype>
              <trackindex>1</trackindex>
              <clipindex>144</clipindex>
            </link>
            <link>
              <mediatype>audio</mediatype>
              <trackindex>1</trackindex>
              <clipindex>144</clipindex>
              <groupindex>144</groupindex>
            </link>
            <link>
              <mediatype>audio</mediatype>
              <trackindex>2</trackindex>
              <clipindex>144</clipindex>
              <groupindex>144</groupindex>
            </link>
          </clipitem>
          <clipitem>
            <name>街ブラ恵比寿02修正文字起こし.mp4</name>
            <enabled>true</enabled>
            <rate>
              <timebase>30</timebase>
              <ntsc>true</ntsc>
            </rate>
            <in>15289.4952</in>
            <out>15355.4292</out>
            <start>15289.495199999983</start>
            <end>15355.429199999982</end>
            <file id="街ブラ恵比寿02修正文字起こし.mp4">
              <name>街ブラ恵比寿02修正文字起こし.mp4</name>
              <pathurl>/Volumes/SSD naoki2/街ブラ恵比寿02修正文字起こし.mp4</pathurl>
              <media>
                <video>
                  <samplecharacteristics>
                    <width>720</width>
                    <height>480</height>
                    <anamorphic>false</anamorphic>
                    <pixelaspectratio>square</pixelaspectratio>
                    <fielddominance>none</fielddominance>
                  </samplecharacteristics>
                </video>
                <audio>
                  <in>0</in>
                  <out>22166.1117</out>
                  <channelcount>2</channelcount>
                  <duration>22166.1117</duration>
                </audio>
              </media>
            </file>
            <link>
              <mediatype>video</mediatype>
              <trackindex>1</trackindex>
              <clipindex>145</clipindex>
            </link>
            <link>
              <mediatype>audio</mediatype>
              <trackindex>1</trackindex>
              <clipindex>145</clipindex>
              <groupindex>145</groupindex>
            </link>
            <link>
              <mediatype>audio</mediatype>
              <trackindex>2</trackindex>
              <clipindex>145</clipindex>
              <groupindex>145</groupindex>
            </link>
          </clipitem>
          <clipitem>
            <name>街ブラ恵比寿02修正文字起こし.mp4</name>
            <enabled>true</enabled>
            <rate>
              <timebase>30</timebase>
              <ntsc>true</ntsc>
            </rate>
            <in>15355.4292</in>
            <out>15498.685800000007</out>
            <start>15355.429199999982</start>
            <end>15498.685799999988</end>
            <file id="街ブラ恵比寿02修正文字起こし.mp4">
              <name>街ブラ恵比寿02修正文字起こし.mp4</name>
              <pathurl>/Volumes/SSD naoki2/街ブラ恵比寿02修正文字起こし.mp4</pathurl>
              <media>
                <video>
                  <samplecharacteristics>
                    <width>720</width>
                    <height>480</height>
                    <anamorphic>false</anamorphic>
                    <pixelaspectratio>square</pixelaspectratio>
                    <fielddominance>none</fielddominance>
                  </samplecharacteristics>
                </video>
                <audio>
                  <in>0</in>
                  <out>22166.1117</out>
                  <channelcount>2</channelcount>
                  <duration>22166.1117</duration>
                </audio>
              </media>
            </file>
            <link>
              <mediatype>video</mediatype>
              <trackindex>1</trackindex>
              <clipindex>146</clipindex>
            </link>
            <link>
              <mediatype>audio</mediatype>
              <trackindex>1</trackindex>
              <clipindex>146</clipindex>
              <groupindex>146</groupindex>
            </link>
            <link>
              <mediatype>audio</mediatype>
              <trackindex>2</trackindex>
              <clipindex>146</clipindex>
              <groupindex>146</groupindex>
            </link>
          </clipitem>
          <clipitem>
            <name>街ブラ恵比寿02修正文字起こし.mp4</name>
            <enabled>true</enabled>
            <rate>
              <timebase>30</timebase>
              <ntsc>true</ntsc>
            </rate>
            <in>15498.6858</in>
            <out>15641.043300000003</out>
            <start>15498.685799999988</start>
            <end>15641.043299999992</end>
            <file id="街ブラ恵比寿02修正文字起こし.mp4">
              <name>街ブラ恵比寿02修正文字起こし.mp4</name>
              <pathurl>/Volumes/SSD naoki2/街ブラ恵比寿02修正文字起こし.mp4</pathurl>
              <media>
                <video>
                  <samplecharacteristics>
                    <width>720</width>
                    <height>480</height>
                    <anamorphic>false</anamorphic>
                    <pixelaspectratio>square</pixelaspectratio>
                    <fielddominance>none</fielddominance>
                  </samplecharacteristics>
                </video>
                <audio>
                  <in>0</in>
                  <out>22166.1117</out>
                  <channelcount>2</channelcount>
                  <duration>22166.1117</duration>
                </audio>
              </media>
            </file>
            <link>
              <mediatype>video</mediatype>
              <trackindex>1</trackindex>
              <clipindex>147</clipindex>
            </link>
            <link>
              <mediatype>audio</mediatype>
              <trackindex>1</trackindex>
              <clipindex>147</clipindex>
              <groupindex>147</groupindex>
            </link>
            <link>
              <mediatype>audio</mediatype>
              <trackindex>2</trackindex>
              <clipindex>147</clipindex>
              <groupindex>147</groupindex>
            </link>
          </clipitem>
          <clipitem>
            <name>街ブラ恵比寿02修正文字起こし.mp4</name>
            <enabled>true</enabled>
            <rate>
              <timebase>30</timebase>
              <ntsc>true</ntsc>
            </rate>
            <in>15641.0433</in>
            <out>15884.6994</out>
            <start>15641.043299999992</start>
            <end>15884.699399999992</end>
            <file id="街ブラ恵比寿02修正文字起こし.mp4">
              <name>街ブラ恵比寿02修正文字起こし.mp4</name>
              <pathurl>/Volumes/SSD naoki2/街ブラ恵比寿02修正文字起こし.mp4</pathurl>
              <media>
                <video>
                  <samplecharacteristics>
                    <width>720</width>
                    <height>480</height>
                    <anamorphic>false</anamorphic>
                    <pixelaspectratio>square</pixelaspectratio>
                    <fielddominance>none</fielddominance>
                  </samplecharacteristics>
                </video>
                <audio>
                  <in>0</in>
                  <out>22166.1117</out>
                  <channelcount>2</channelcount>
                  <duration>22166.1117</duration>
                </audio>
              </media>
            </file>
            <link>
              <mediatype>video</mediatype>
              <trackindex>1</trackindex>
              <clipindex>148</clipindex>
            </link>
            <link>
              <mediatype>audio</mediatype>
              <trackindex>1</trackindex>
              <clipindex>148</clipindex>
              <groupindex>148</groupindex>
            </link>
            <link>
              <mediatype>audio</mediatype>
              <trackindex>2</trackindex>
              <clipindex>148</clipindex>
              <groupindex>148</groupindex>
            </link>
          </clipitem>
          <clipitem>
            <name>街ブラ恵比寿02修正文字起こし.mp4</name>
            <enabled>true</enabled>
            <rate>
              <timebase>30</timebase>
              <ntsc>true</ntsc>
            </rate>
            <in>15884.6994</in>
            <out>15924.859199999999</out>
            <start>15884.699399999992</start>
            <end>15924.859199999994</end>
            <file id="街ブラ恵比寿02修正文字起こし.mp4">
              <name>街ブラ恵比寿02修正文字起こし.mp4</name>
              <pathurl>/Volumes/SSD naoki2/街ブラ恵比寿02修正文字起こし.mp4</pathurl>
              <media>
                <video>
                  <samplecharacteristics>
                    <width>720</width>
                    <height>480</height>
                    <anamorphic>false</anamorphic>
                    <pixelaspectratio>square</pixelaspectratio>
                    <fielddominance>none</fielddominance>
                  </samplecharacteristics>
                </video>
                <audio>
                  <in>0</in>
                  <out>22166.1117</out>
                  <channelcount>2</channelcount>
                  <duration>22166.1117</duration>
                </audio>
              </media>
            </file>
            <link>
              <mediatype>video</mediatype>
              <trackindex>1</trackindex>
              <clipindex>149</clipindex>
            </link>
            <link>
              <mediatype>audio</mediatype>
              <trackindex>1</trackindex>
              <clipindex>149</clipindex>
              <groupindex>149</groupindex>
            </link>
            <link>
              <mediatype>audio</mediatype>
              <trackindex>2</trackindex>
              <clipindex>149</clipindex>
              <groupindex>149</groupindex>
            </link>
          </clipitem>
          <clipitem>
            <name>街ブラ恵比寿02修正文字起こし.mp4</name>
            <enabled>true</enabled>
            <rate>
              <timebase>30</timebase>
              <ntsc>true</ntsc>
            </rate>
            <in>15924.859199999999</in>
            <out>16054.029899999998</out>
            <start>15924.859199999994</start>
            <end>16054.02989999999</end>
            <file id="街ブラ恵比寿02修正文字起こし.mp4">
              <name>街ブラ恵比寿02修正文字起こし.mp4</name>
              <pathurl>/Volumes/SSD naoki2/街ブラ恵比寿02修正文字起こし.mp4</pathurl>
              <media>
                <video>
                  <samplecharacteristics>
                    <width>720</width>
                    <height>480</height>
                    <anamorphic>false</anamorphic>
                    <pixelaspectratio>square</pixelaspectratio>
                    <fielddominance>none</fielddominance>
                  </samplecharacteristics>
                </video>
                <audio>
                  <in>0</in>
                  <out>22166.1117</out>
                  <channelcount>2</channelcount>
                  <duration>22166.1117</duration>
                </audio>
              </media>
            </file>
            <link>
              <mediatype>video</mediatype>
              <trackindex>1</trackindex>
              <clipindex>150</clipindex>
            </link>
            <link>
              <mediatype>audio</mediatype>
              <trackindex>1</trackindex>
              <clipindex>150</clipindex>
              <groupindex>150</groupindex>
            </link>
            <link>
              <mediatype>audio</mediatype>
              <trackindex>2</trackindex>
              <clipindex>150</clipindex>
              <groupindex>150</groupindex>
            </link>
          </clipitem>
          <clipitem>
            <name>街ブラ恵比寿02修正文字起こし.mp4</name>
            <enabled>true</enabled>
            <rate>
              <timebase>30</timebase>
              <ntsc>true</ntsc>
            </rate>
            <in>16054.029899999998</in>
            <out>16187.096699999996</out>
            <start>16054.02989999999</start>
            <end>16187.09669999999</end>
            <file id="街ブラ恵比寿02修正文字起こし.mp4">
              <name>街ブラ恵比寿02修正文字起こし.mp4</name>
              <pathurl>/Volumes/SSD naoki2/街ブラ恵比寿02修正文字起こし.mp4</pathurl>
              <media>
                <video>
                  <samplecharacteristics>
                    <width>720</width>
                    <height>480</height>
                    <anamorphic>false</anamorphic>
                    <pixelaspectratio>square</pixelaspectratio>
                    <fielddominance>none</fielddominance>
                  </samplecharacteristics>
                </video>
                <audio>
                  <in>0</in>
                  <out>22166.1117</out>
                  <channelcount>2</channelcount>
                  <duration>22166.1117</duration>
                </audio>
              </media>
            </file>
            <link>
              <mediatype>video</mediatype>
              <trackindex>1</trackindex>
              <clipindex>151</clipindex>
            </link>
            <link>
              <mediatype>audio</mediatype>
              <trackindex>1</trackindex>
              <clipindex>151</clipindex>
              <groupindex>151</groupindex>
            </link>
            <link>
              <mediatype>audio</mediatype>
              <trackindex>2</trackindex>
              <clipindex>151</clipindex>
              <groupindex>151</groupindex>
            </link>
          </clipitem>
          <clipitem>
            <name>街ブラ恵比寿02修正文字起こし.mp4</name>
            <enabled>true</enabled>
            <rate>
              <timebase>30</timebase>
              <ntsc>true</ntsc>
            </rate>
            <in>16187.0967</in>
            <out>16272.511199999997</out>
            <start>16187.09669999999</start>
            <end>16272.511199999986</end>
            <file id="街ブラ恵比寿02修正文字起こし.mp4">
              <name>街ブラ恵比寿02修正文字起こし.mp4</name>
              <pathurl>/Volumes/SSD naoki2/街ブラ恵比寿02修正文字起こし.mp4</pathurl>
              <media>
                <video>
                  <samplecharacteristics>
                    <width>720</width>
                    <height>480</height>
                    <anamorphic>false</anamorphic>
                    <pixelaspectratio>square</pixelaspectratio>
                    <fielddominance>none</fielddominance>
                  </samplecharacteristics>
                </video>
                <audio>
                  <in>0</in>
                  <out>22166.1117</out>
                  <channelcount>2</channelcount>
                  <duration>22166.1117</duration>
                </audio>
              </media>
            </file>
            <link>
              <mediatype>video</mediatype>
              <trackindex>1</trackindex>
              <clipindex>152</clipindex>
            </link>
            <link>
              <mediatype>audio</mediatype>
              <trackindex>1</trackindex>
              <clipindex>152</clipindex>
              <groupindex>152</groupindex>
            </link>
            <link>
              <mediatype>audio</mediatype>
              <trackindex>2</trackindex>
              <clipindex>152</clipindex>
              <groupindex>152</groupindex>
            </link>
          </clipitem>
          <clipitem>
            <name>街ブラ恵比寿02修正文字起こし.mp4</name>
            <enabled>true</enabled>
            <rate>
              <timebase>30</timebase>
              <ntsc>true</ntsc>
            </rate>
            <in>16272.5112</in>
            <out>16322.860799999999</out>
            <start>16272.511199999986</start>
            <end>16322.860799999986</end>
            <file id="街ブラ恵比寿02修正文字起こし.mp4">
              <name>街ブラ恵比寿02修正文字起こし.mp4</name>
              <pathurl>/Volumes/SSD naoki2/街ブラ恵比寿02修正文字起こし.mp4</pathurl>
              <media>
                <video>
                  <samplecharacteristics>
                    <width>720</width>
                    <height>480</height>
                    <anamorphic>false</anamorphic>
                    <pixelaspectratio>square</pixelaspectratio>
                    <fielddominance>none</fielddominance>
                  </samplecharacteristics>
                </video>
                <audio>
                  <in>0</in>
                  <out>22166.1117</out>
                  <channelcount>2</channelcount>
                  <duration>22166.1117</duration>
                </audio>
              </media>
            </file>
            <link>
              <mediatype>video</mediatype>
              <trackindex>1</trackindex>
              <clipindex>153</clipindex>
            </link>
            <link>
              <mediatype>audio</mediatype>
              <trackindex>1</trackindex>
              <clipindex>153</clipindex>
              <groupindex>153</groupindex>
            </link>
            <link>
              <mediatype>audio</mediatype>
              <trackindex>2</trackindex>
              <clipindex>153</clipindex>
              <groupindex>153</groupindex>
            </link>
          </clipitem>
          <clipitem>
            <name>街ブラ恵比寿02修正文字起こし.mp4</name>
            <enabled>true</enabled>
            <rate>
              <timebase>30</timebase>
              <ntsc>true</ntsc>
            </rate>
            <in>16322.860799999999</in>
            <out>16387.2963</out>
            <start>16322.860799999986</start>
            <end>16387.296299999987</end>
            <file id="街ブラ恵比寿02修正文字起こし.mp4">
              <name>街ブラ恵比寿02修正文字起こし.mp4</name>
              <pathurl>/Volumes/SSD naoki2/街ブラ恵比寿02修正文字起こし.mp4</pathurl>
              <media>
                <video>
                  <samplecharacteristics>
                    <width>720</width>
                    <height>480</height>
                    <anamorphic>false</anamorphic>
                    <pixelaspectratio>square</pixelaspectratio>
                    <fielddominance>none</fielddominance>
                  </samplecharacteristics>
                </video>
                <audio>
                  <in>0</in>
                  <out>22166.1117</out>
                  <channelcount>2</channelcount>
                  <duration>22166.1117</duration>
                </audio>
              </media>
            </file>
            <link>
              <mediatype>video</mediatype>
              <trackindex>1</trackindex>
              <clipindex>154</clipindex>
            </link>
            <link>
              <mediatype>audio</mediatype>
              <trackindex>1</trackindex>
              <clipindex>154</clipindex>
              <groupindex>154</groupindex>
            </link>
            <link>
              <mediatype>audio</mediatype>
              <trackindex>2</trackindex>
              <clipindex>154</clipindex>
              <groupindex>154</groupindex>
            </link>
          </clipitem>
          <clipitem>
            <name>街ブラ恵比寿02修正文字起こし.mp4</name>
            <enabled>true</enabled>
            <rate>
              <timebase>30</timebase>
              <ntsc>true</ntsc>
            </rate>
            <in>16387.296299999998</in>
            <out>16437.9456</out>
            <start>16387.296299999987</start>
            <end>16437.94559999999</end>
            <file id="街ブラ恵比寿02修正文字起こし.mp4">
              <name>街ブラ恵比寿02修正文字起こし.mp4</name>
              <pathurl>/Volumes/SSD naoki2/街ブラ恵比寿02修正文字起こし.mp4</pathurl>
              <media>
                <video>
                  <samplecharacteristics>
                    <width>720</width>
                    <height>480</height>
                    <anamorphic>false</anamorphic>
                    <pixelaspectratio>square</pixelaspectratio>
                    <fielddominance>none</fielddominance>
                  </samplecharacteristics>
                </video>
                <audio>
                  <in>0</in>
                  <out>22166.1117</out>
                  <channelcount>2</channelcount>
                  <duration>22166.1117</duration>
                </audio>
              </media>
            </file>
            <link>
              <mediatype>video</mediatype>
              <trackindex>1</trackindex>
              <clipindex>155</clipindex>
            </link>
            <link>
              <mediatype>audio</mediatype>
              <trackindex>1</trackindex>
              <clipindex>155</clipindex>
              <groupindex>155</groupindex>
            </link>
            <link>
              <mediatype>audio</mediatype>
              <trackindex>2</trackindex>
              <clipindex>155</clipindex>
              <groupindex>155</groupindex>
            </link>
          </clipitem>
          <clipitem>
            <name>街ブラ恵比寿02修正文字起こし.mp4</name>
            <enabled>true</enabled>
            <rate>
              <timebase>30</timebase>
              <ntsc>true</ntsc>
            </rate>
            <in>16437.9456</in>
            <out>16624.958399999996</out>
            <start>16437.94559999999</start>
            <end>16624.958399999985</end>
            <file id="街ブラ恵比寿02修正文字起こし.mp4">
              <name>街ブラ恵比寿02修正文字起こし.mp4</name>
              <pathurl>/Volumes/SSD naoki2/街ブラ恵比寿02修正文字起こし.mp4</pathurl>
              <media>
                <video>
                  <samplecharacteristics>
                    <width>720</width>
                    <height>480</height>
                    <anamorphic>false</anamorphic>
                    <pixelaspectratio>square</pixelaspectratio>
                    <fielddominance>none</fielddominance>
                  </samplecharacteristics>
                </video>
                <audio>
                  <in>0</in>
                  <out>22166.1117</out>
                  <channelcount>2</channelcount>
                  <duration>22166.1117</duration>
                </audio>
              </media>
            </file>
            <link>
              <mediatype>video</mediatype>
              <trackindex>1</trackindex>
              <clipindex>156</clipindex>
            </link>
            <link>
              <mediatype>audio</mediatype>
              <trackindex>1</trackindex>
              <clipindex>156</clipindex>
              <groupindex>156</groupindex>
            </link>
            <link>
              <mediatype>audio</mediatype>
              <trackindex>2</trackindex>
              <clipindex>156</clipindex>
              <groupindex>156</groupindex>
            </link>
          </clipitem>
          <clipitem>
            <name>街ブラ恵比寿02修正文字起こし.mp4</name>
            <enabled>true</enabled>
            <rate>
              <timebase>30</timebase>
              <ntsc>true</ntsc>
            </rate>
            <in>16624.9584</in>
            <out>16634.249099999997</out>
            <start>16624.958399999985</start>
            <end>16634.249099999986</end>
            <file id="街ブラ恵比寿02修正文字起こし.mp4">
              <name>街ブラ恵比寿02修正文字起こし.mp4</name>
              <pathurl>/Volumes/SSD naoki2/街ブラ恵比寿02修正文字起こし.mp4</pathurl>
              <media>
                <video>
                  <samplecharacteristics>
                    <width>720</width>
                    <height>480</height>
                    <anamorphic>false</anamorphic>
                    <pixelaspectratio>square</pixelaspectratio>
                    <fielddominance>none</fielddominance>
                  </samplecharacteristics>
                </video>
                <audio>
                  <in>0</in>
                  <out>22166.1117</out>
                  <channelcount>2</channelcount>
                  <duration>22166.1117</duration>
                </audio>
              </media>
            </file>
            <link>
              <mediatype>video</mediatype>
              <trackindex>1</trackindex>
              <clipindex>157</clipindex>
            </link>
            <link>
              <mediatype>audio</mediatype>
              <trackindex>1</trackindex>
              <clipindex>157</clipindex>
              <groupindex>157</groupindex>
            </link>
            <link>
              <mediatype>audio</mediatype>
              <trackindex>2</trackindex>
              <clipindex>157</clipindex>
              <groupindex>157</groupindex>
            </link>
          </clipitem>
          <clipitem>
            <name>街ブラ恵比寿02修正文字起こし.mp4</name>
            <enabled>true</enabled>
            <rate>
              <timebase>30</timebase>
              <ntsc>true</ntsc>
            </rate>
            <in>16634.249099999997</in>
            <out>16835.947199999995</out>
            <start>16634.249099999986</start>
            <end>16835.94719999998</end>
            <file id="街ブラ恵比寿02修正文字起こし.mp4">
              <name>街ブラ恵比寿02修正文字起こし.mp4</name>
              <pathurl>/Volumes/SSD naoki2/街ブラ恵比寿02修正文字起こし.mp4</pathurl>
              <media>
                <video>
                  <samplecharacteristics>
                    <width>720</width>
                    <height>480</height>
                    <anamorphic>false</anamorphic>
                    <pixelaspectratio>square</pixelaspectratio>
                    <fielddominance>none</fielddominance>
                  </samplecharacteristics>
                </video>
                <audio>
                  <in>0</in>
                  <out>22166.1117</out>
                  <channelcount>2</channelcount>
                  <duration>22166.1117</duration>
                </audio>
              </media>
            </file>
            <link>
              <mediatype>video</mediatype>
              <trackindex>1</trackindex>
              <clipindex>158</clipindex>
            </link>
            <link>
              <mediatype>audio</mediatype>
              <trackindex>1</trackindex>
              <clipindex>158</clipindex>
              <groupindex>158</groupindex>
            </link>
            <link>
              <mediatype>audio</mediatype>
              <trackindex>2</trackindex>
              <clipindex>158</clipindex>
              <groupindex>158</groupindex>
            </link>
          </clipitem>
          <clipitem>
            <name>街ブラ恵比寿02修正文字起こし.mp4</name>
            <enabled>true</enabled>
            <rate>
              <timebase>30</timebase>
              <ntsc>true</ntsc>
            </rate>
            <in>16835.9472</in>
            <out>16893.7893</out>
            <start>16835.94719999998</start>
            <end>16893.789299999982</end>
            <file id="街ブラ恵比寿02修正文字起こし.mp4">
              <name>街ブラ恵比寿02修正文字起こし.mp4</name>
              <pathurl>/Volumes/SSD naoki2/街ブラ恵比寿02修正文字起こし.mp4</pathurl>
              <media>
                <video>
                  <samplecharacteristics>
                    <width>720</width>
                    <height>480</height>
                    <anamorphic>false</anamorphic>
                    <pixelaspectratio>square</pixelaspectratio>
                    <fielddominance>none</fielddominance>
                  </samplecharacteristics>
                </video>
                <audio>
                  <in>0</in>
                  <out>22166.1117</out>
                  <channelcount>2</channelcount>
                  <duration>22166.1117</duration>
                </audio>
              </media>
            </file>
            <link>
              <mediatype>video</mediatype>
              <trackindex>1</trackindex>
              <clipindex>159</clipindex>
            </link>
            <link>
              <mediatype>audio</mediatype>
              <trackindex>1</trackindex>
              <clipindex>159</clipindex>
              <groupindex>159</groupindex>
            </link>
            <link>
              <mediatype>audio</mediatype>
              <trackindex>2</trackindex>
              <clipindex>159</clipindex>
              <groupindex>159</groupindex>
            </link>
          </clipitem>
          <clipitem>
            <name>街ブラ恵比寿02修正文字起こし.mp4</name>
            <enabled>true</enabled>
            <rate>
              <timebase>30</timebase>
              <ntsc>true</ntsc>
            </rate>
            <in>16893.7893</in>
            <out>16960.322699999997</out>
            <start>16893.789299999982</start>
            <end>16960.322699999982</end>
            <file id="街ブラ恵比寿02修正文字起こし.mp4">
              <name>街ブラ恵比寿02修正文字起こし.mp4</name>
              <pathurl>/Volumes/SSD naoki2/街ブラ恵比寿02修正文字起こし.mp4</pathurl>
              <media>
                <video>
                  <samplecharacteristics>
                    <width>720</width>
                    <height>480</height>
                    <anamorphic>false</anamorphic>
                    <pixelaspectratio>square</pixelaspectratio>
                    <fielddominance>none</fielddominance>
                  </samplecharacteristics>
                </video>
                <audio>
                  <in>0</in>
                  <out>22166.1117</out>
                  <channelcount>2</channelcount>
                  <duration>22166.1117</duration>
                </audio>
              </media>
            </file>
            <link>
              <mediatype>video</mediatype>
              <trackindex>1</trackindex>
              <clipindex>160</clipindex>
            </link>
            <link>
              <mediatype>audio</mediatype>
              <trackindex>1</trackindex>
              <clipindex>160</clipindex>
              <groupindex>160</groupindex>
            </link>
            <link>
              <mediatype>audio</mediatype>
              <trackindex>2</trackindex>
              <clipindex>160</clipindex>
              <groupindex>160</groupindex>
            </link>
          </clipitem>
          <clipitem>
            <name>街ブラ恵比寿02修正文字起こし.mp4</name>
            <enabled>true</enabled>
            <rate>
              <timebase>30</timebase>
              <ntsc>true</ntsc>
            </rate>
            <in>16960.322699999997</in>
            <out>16992.090899999996</out>
            <start>16960.322699999982</start>
            <end>16992.09089999998</end>
            <file id="街ブラ恵比寿02修正文字起こし.mp4">
              <name>街ブラ恵比寿02修正文字起こし.mp4</name>
              <pathurl>/Volumes/SSD naoki2/街ブラ恵比寿02修正文字起こし.mp4</pathurl>
              <media>
                <video>
                  <samplecharacteristics>
                    <width>720</width>
                    <height>480</height>
                    <anamorphic>false</anamorphic>
                    <pixelaspectratio>square</pixelaspectratio>
                    <fielddominance>none</fielddominance>
                  </samplecharacteristics>
                </video>
                <audio>
                  <in>0</in>
                  <out>22166.1117</out>
                  <channelcount>2</channelcount>
                  <duration>22166.1117</duration>
                </audio>
              </media>
            </file>
            <link>
              <mediatype>video</mediatype>
              <trackindex>1</trackindex>
              <clipindex>161</clipindex>
            </link>
            <link>
              <mediatype>audio</mediatype>
              <trackindex>1</trackindex>
              <clipindex>161</clipindex>
              <groupindex>161</groupindex>
            </link>
            <link>
              <mediatype>audio</mediatype>
              <trackindex>2</trackindex>
              <clipindex>161</clipindex>
              <groupindex>161</groupindex>
            </link>
          </clipitem>
          <clipitem>
            <name>街ブラ恵比寿02修正文字起こし.mp4</name>
            <enabled>true</enabled>
            <rate>
              <timebase>30</timebase>
              <ntsc>true</ntsc>
            </rate>
            <in>16992.0909</in>
            <out>17022.6603</out>
            <start>16992.09089999998</start>
            <end>17022.660299999978</end>
            <file id="街ブラ恵比寿02修正文字起こし.mp4">
              <name>街ブラ恵比寿02修正文字起こし.mp4</name>
              <pathurl>/Volumes/SSD naoki2/街ブラ恵比寿02修正文字起こし.mp4</pathurl>
              <media>
                <video>
                  <samplecharacteristics>
                    <width>720</width>
                    <height>480</height>
                    <anamorphic>false</anamorphic>
                    <pixelaspectratio>square</pixelaspectratio>
                    <fielddominance>none</fielddominance>
                  </samplecharacteristics>
                </video>
                <audio>
                  <in>0</in>
                  <out>22166.1117</out>
                  <channelcount>2</channelcount>
                  <duration>22166.1117</duration>
                </audio>
              </media>
            </file>
            <link>
              <mediatype>video</mediatype>
              <trackindex>1</trackindex>
              <clipindex>162</clipindex>
            </link>
            <link>
              <mediatype>audio</mediatype>
              <trackindex>1</trackindex>
              <clipindex>162</clipindex>
              <groupindex>162</groupindex>
            </link>
            <link>
              <mediatype>audio</mediatype>
              <trackindex>2</trackindex>
              <clipindex>162</clipindex>
              <groupindex>162</groupindex>
            </link>
          </clipitem>
          <clipitem>
            <name>街ブラ恵比寿02修正文字起こし.mp4</name>
            <enabled>true</enabled>
            <rate>
              <timebase>30</timebase>
              <ntsc>true</ntsc>
            </rate>
            <in>17022.6603</in>
            <out>17064.3186</out>
            <start>17022.660299999978</start>
            <end>17064.31859999998</end>
            <file id="街ブラ恵比寿02修正文字起こし.mp4">
              <name>街ブラ恵比寿02修正文字起こし.mp4</name>
              <pathurl>/Volumes/SSD naoki2/街ブラ恵比寿02修正文字起こし.mp4</pathurl>
              <media>
                <video>
                  <samplecharacteristics>
                    <width>720</width>
                    <height>480</height>
                    <anamorphic>false</anamorphic>
                    <pixelaspectratio>square</pixelaspectratio>
                    <fielddominance>none</fielddominance>
                  </samplecharacteristics>
                </video>
                <audio>
                  <in>0</in>
                  <out>22166.1117</out>
                  <channelcount>2</channelcount>
                  <duration>22166.1117</duration>
                </audio>
              </media>
            </file>
            <link>
              <mediatype>video</mediatype>
              <trackindex>1</trackindex>
              <clipindex>163</clipindex>
            </link>
            <link>
              <mediatype>audio</mediatype>
              <trackindex>1</trackindex>
              <clipindex>163</clipindex>
              <groupindex>163</groupindex>
            </link>
            <link>
              <mediatype>audio</mediatype>
              <trackindex>2</trackindex>
              <clipindex>163</clipindex>
              <groupindex>163</groupindex>
            </link>
          </clipitem>
          <clipitem>
            <name>街ブラ恵比寿02修正文字起こし.mp4</name>
            <enabled>true</enabled>
            <rate>
              <timebase>30</timebase>
              <ntsc>true</ntsc>
            </rate>
            <in>17064.3186</in>
            <out>17090.991899999994</out>
            <start>17064.31859999998</start>
            <end>17090.991899999975</end>
            <file id="街ブラ恵比寿02修正文字起こし.mp4">
              <name>街ブラ恵比寿02修正文字起こし.mp4</name>
              <pathurl>/Volumes/SSD naoki2/街ブラ恵比寿02修正文字起こし.mp4</pathurl>
              <media>
                <video>
                  <samplecharacteristics>
                    <width>720</width>
                    <height>480</height>
                    <anamorphic>false</anamorphic>
                    <pixelaspectratio>square</pixelaspectratio>
                    <fielddominance>none</fielddominance>
                  </samplecharacteristics>
                </video>
                <audio>
                  <in>0</in>
                  <out>22166.1117</out>
                  <channelcount>2</channelcount>
                  <duration>22166.1117</duration>
                </audio>
              </media>
            </file>
            <link>
              <mediatype>video</mediatype>
              <trackindex>1</trackindex>
              <clipindex>164</clipindex>
            </link>
            <link>
              <mediatype>audio</mediatype>
              <trackindex>1</trackindex>
              <clipindex>164</clipindex>
              <groupindex>164</groupindex>
            </link>
            <link>
              <mediatype>audio</mediatype>
              <trackindex>2</trackindex>
              <clipindex>164</clipindex>
              <groupindex>164</groupindex>
            </link>
          </clipitem>
          <clipitem>
            <name>街ブラ恵比寿02修正文字起こし.mp4</name>
            <enabled>true</enabled>
            <rate>
              <timebase>30</timebase>
              <ntsc>true</ntsc>
            </rate>
            <in>17090.991899999997</in>
            <out>17184.797999999995</out>
            <start>17090.991899999975</start>
            <end>17184.79799999997</end>
            <file id="街ブラ恵比寿02修正文字起こし.mp4">
              <name>街ブラ恵比寿02修正文字起こし.mp4</name>
              <pathurl>/Volumes/SSD naoki2/街ブラ恵比寿02修正文字起こし.mp4</pathurl>
              <media>
                <video>
                  <samplecharacteristics>
                    <width>720</width>
                    <height>480</height>
                    <anamorphic>false</anamorphic>
                    <pixelaspectratio>square</pixelaspectratio>
                    <fielddominance>none</fielddominance>
                  </samplecharacteristics>
                </video>
                <audio>
                  <in>0</in>
                  <out>22166.1117</out>
                  <channelcount>2</channelcount>
                  <duration>22166.1117</duration>
                </audio>
              </media>
            </file>
            <link>
              <mediatype>video</mediatype>
              <trackindex>1</trackindex>
              <clipindex>165</clipindex>
            </link>
            <link>
              <mediatype>audio</mediatype>
              <trackindex>1</trackindex>
              <clipindex>165</clipindex>
              <groupindex>165</groupindex>
            </link>
            <link>
              <mediatype>audio</mediatype>
              <trackindex>2</trackindex>
              <clipindex>165</clipindex>
              <groupindex>165</groupindex>
            </link>
          </clipitem>
          <clipitem>
            <name>街ブラ恵比寿02修正文字起こし.mp4</name>
            <enabled>true</enabled>
            <rate>
              <timebase>30</timebase>
              <ntsc>true</ntsc>
            </rate>
            <in>17184.798</in>
            <out>17275.007699999995</out>
            <start>17184.79799999997</start>
            <end>17275.00769999997</end>
            <file id="街ブラ恵比寿02修正文字起こし.mp4">
              <name>街ブラ恵比寿02修正文字起こし.mp4</name>
              <pathurl>/Volumes/SSD naoki2/街ブラ恵比寿02修正文字起こし.mp4</pathurl>
              <media>
                <video>
                  <samplecharacteristics>
                    <width>720</width>
                    <height>480</height>
                    <anamorphic>false</anamorphic>
                    <pixelaspectratio>square</pixelaspectratio>
                    <fielddominance>none</fielddominance>
                  </samplecharacteristics>
                </video>
                <audio>
                  <in>0</in>
                  <out>22166.1117</out>
                  <channelcount>2</channelcount>
                  <duration>22166.1117</duration>
                </audio>
              </media>
            </file>
            <link>
              <mediatype>video</mediatype>
              <trackindex>1</trackindex>
              <clipindex>166</clipindex>
            </link>
            <link>
              <mediatype>audio</mediatype>
              <trackindex>1</trackindex>
              <clipindex>166</clipindex>
              <groupindex>166</groupindex>
            </link>
            <link>
              <mediatype>audio</mediatype>
              <trackindex>2</trackindex>
              <clipindex>166</clipindex>
              <groupindex>166</groupindex>
            </link>
          </clipitem>
          <clipitem>
            <name>街ブラ恵比寿02修正文字起こし.mp4</name>
            <enabled>true</enabled>
            <rate>
              <timebase>30</timebase>
              <ntsc>true</ntsc>
            </rate>
            <in>17275.0077</in>
            <out>17346.036599999996</out>
            <start>17275.00769999997</start>
            <end>17346.036599999963</end>
            <file id="街ブラ恵比寿02修正文字起こし.mp4">
              <name>街ブラ恵比寿02修正文字起こし.mp4</name>
              <pathurl>/Volumes/SSD naoki2/街ブラ恵比寿02修正文字起こし.mp4</pathurl>
              <media>
                <video>
                  <samplecharacteristics>
                    <width>720</width>
                    <height>480</height>
                    <anamorphic>false</anamorphic>
                    <pixelaspectratio>square</pixelaspectratio>
                    <fielddominance>none</fielddominance>
                  </samplecharacteristics>
                </video>
                <audio>
                  <in>0</in>
                  <out>22166.1117</out>
                  <channelcount>2</channelcount>
                  <duration>22166.1117</duration>
                </audio>
              </media>
            </file>
            <link>
              <mediatype>video</mediatype>
              <trackindex>1</trackindex>
              <clipindex>167</clipindex>
            </link>
            <link>
              <mediatype>audio</mediatype>
              <trackindex>1</trackindex>
              <clipindex>167</clipindex>
              <groupindex>167</groupindex>
            </link>
            <link>
              <mediatype>audio</mediatype>
              <trackindex>2</trackindex>
              <clipindex>167</clipindex>
              <groupindex>167</groupindex>
            </link>
          </clipitem>
          <clipitem>
            <name>街ブラ恵比寿02修正文字起こし.mp4</name>
            <enabled>true</enabled>
            <rate>
              <timebase>30</timebase>
              <ntsc>true</ntsc>
            </rate>
            <in>17346.0366</in>
            <out>17420.362199999996</out>
            <start>17346.036599999963</start>
            <end>17420.362199999963</end>
            <file id="街ブラ恵比寿02修正文字起こし.mp4">
              <name>街ブラ恵比寿02修正文字起こし.mp4</name>
              <pathurl>/Volumes/SSD naoki2/街ブラ恵比寿02修正文字起こし.mp4</pathurl>
              <media>
                <video>
                  <samplecharacteristics>
                    <width>720</width>
                    <height>480</height>
                    <anamorphic>false</anamorphic>
                    <pixelaspectratio>square</pixelaspectratio>
                    <fielddominance>none</fielddominance>
                  </samplecharacteristics>
                </video>
                <audio>
                  <in>0</in>
                  <out>22166.1117</out>
                  <channelcount>2</channelcount>
                  <duration>22166.1117</duration>
                </audio>
              </media>
            </file>
            <link>
              <mediatype>video</mediatype>
              <trackindex>1</trackindex>
              <clipindex>168</clipindex>
            </link>
            <link>
              <mediatype>audio</mediatype>
              <trackindex>1</trackindex>
              <clipindex>168</clipindex>
              <groupindex>168</groupindex>
            </link>
            <link>
              <mediatype>audio</mediatype>
              <trackindex>2</trackindex>
              <clipindex>168</clipindex>
              <groupindex>168</groupindex>
            </link>
          </clipitem>
          <clipitem>
            <name>街ブラ恵比寿02修正文字起こし.mp4</name>
            <enabled>true</enabled>
            <rate>
              <timebase>30</timebase>
              <ntsc>true</ntsc>
            </rate>
            <in>17420.3622</in>
            <out>17546.53589999999</out>
            <start>17420.362199999963</start>
            <end>17546.535899999955</end>
            <file id="街ブラ恵比寿02修正文字起こし.mp4">
              <name>街ブラ恵比寿02修正文字起こし.mp4</name>
              <pathurl>/Volumes/SSD naoki2/街ブラ恵比寿02修正文字起こし.mp4</pathurl>
              <media>
                <video>
                  <samplecharacteristics>
                    <width>720</width>
                    <height>480</height>
                    <anamorphic>false</anamorphic>
                    <pixelaspectratio>square</pixelaspectratio>
                    <fielddominance>none</fielddominance>
                  </samplecharacteristics>
                </video>
                <audio>
                  <in>0</in>
                  <out>22166.1117</out>
                  <channelcount>2</channelcount>
                  <duration>22166.1117</duration>
                </audio>
              </media>
            </file>
            <link>
              <mediatype>video</mediatype>
              <trackindex>1</trackindex>
              <clipindex>169</clipindex>
            </link>
            <link>
              <mediatype>audio</mediatype>
              <trackindex>1</trackindex>
              <clipindex>169</clipindex>
              <groupindex>169</groupindex>
            </link>
            <link>
              <mediatype>audio</mediatype>
              <trackindex>2</trackindex>
              <clipindex>169</clipindex>
              <groupindex>169</groupindex>
            </link>
          </clipitem>
          <clipitem>
            <name>街ブラ恵比寿02修正文字起こし.mp4</name>
            <enabled>true</enabled>
            <rate>
              <timebase>30</timebase>
              <ntsc>true</ntsc>
            </rate>
            <in>17546.5359</in>
            <out>17727.8544</out>
            <start>17546.535899999955</start>
            <end>17727.854399999953</end>
            <file id="街ブラ恵比寿02修正文字起こし.mp4">
              <name>街ブラ恵比寿02修正文字起こし.mp4</name>
              <pathurl>/Volumes/SSD naoki2/街ブラ恵比寿02修正文字起こし.mp4</pathurl>
              <media>
                <video>
                  <samplecharacteristics>
                    <width>720</width>
                    <height>480</height>
                    <anamorphic>false</anamorphic>
                    <pixelaspectratio>square</pixelaspectratio>
                    <fielddominance>none</fielddominance>
                  </samplecharacteristics>
                </video>
                <audio>
                  <in>0</in>
                  <out>22166.1117</out>
                  <channelcount>2</channelcount>
                  <duration>22166.1117</duration>
                </audio>
              </media>
            </file>
            <link>
              <mediatype>video</mediatype>
              <trackindex>1</trackindex>
              <clipindex>170</clipindex>
            </link>
            <link>
              <mediatype>audio</mediatype>
              <trackindex>1</trackindex>
              <clipindex>170</clipindex>
              <groupindex>170</groupindex>
            </link>
            <link>
              <mediatype>audio</mediatype>
              <trackindex>2</trackindex>
              <clipindex>170</clipindex>
              <groupindex>170</groupindex>
            </link>
          </clipitem>
          <clipitem>
            <name>街ブラ恵比寿02修正文字起こし.mp4</name>
            <enabled>true</enabled>
            <rate>
              <timebase>30</timebase>
              <ntsc>true</ntsc>
            </rate>
            <in>17727.8544</in>
            <out>17790.7914</out>
            <start>17727.854399999953</start>
            <end>17790.791399999955</end>
            <file id="街ブラ恵比寿02修正文字起こし.mp4">
              <name>街ブラ恵比寿02修正文字起こし.mp4</name>
              <pathurl>/Volumes/SSD naoki2/街ブラ恵比寿02修正文字起こし.mp4</pathurl>
              <media>
                <video>
                  <samplecharacteristics>
                    <width>720</width>
                    <height>480</height>
                    <anamorphic>false</anamorphic>
                    <pixelaspectratio>square</pixelaspectratio>
                    <fielddominance>none</fielddominance>
                  </samplecharacteristics>
                </video>
                <audio>
                  <in>0</in>
                  <out>22166.1117</out>
                  <channelcount>2</channelcount>
                  <duration>22166.1117</duration>
                </audio>
              </media>
            </file>
            <link>
              <mediatype>video</mediatype>
              <trackindex>1</trackindex>
              <clipindex>171</clipindex>
            </link>
            <link>
              <mediatype>audio</mediatype>
              <trackindex>1</trackindex>
              <clipindex>171</clipindex>
              <groupindex>171</groupindex>
            </link>
            <link>
              <mediatype>audio</mediatype>
              <trackindex>2</trackindex>
              <clipindex>171</clipindex>
              <groupindex>171</groupindex>
            </link>
          </clipitem>
          <clipitem>
            <name>街ブラ恵比寿02修正文字起こし.mp4</name>
            <enabled>true</enabled>
            <rate>
              <timebase>30</timebase>
              <ntsc>true</ntsc>
            </rate>
            <in>17790.7914</in>
            <out>18178.902899999997</out>
            <start>17790.791399999955</start>
            <end>18178.902899999954</end>
            <file id="街ブラ恵比寿02修正文字起こし.mp4">
              <name>街ブラ恵比寿02修正文字起こし.mp4</name>
              <pathurl>/Volumes/SSD naoki2/街ブラ恵比寿02修正文字起こし.mp4</pathurl>
              <media>
                <video>
                  <samplecharacteristics>
                    <width>720</width>
                    <height>480</height>
                    <anamorphic>false</anamorphic>
                    <pixelaspectratio>square</pixelaspectratio>
                    <fielddominance>none</fielddominance>
                  </samplecharacteristics>
                </video>
                <audio>
                  <in>0</in>
                  <out>22166.1117</out>
                  <channelcount>2</channelcount>
                  <duration>22166.1117</duration>
                </audio>
              </media>
            </file>
            <link>
              <mediatype>video</mediatype>
              <trackindex>1</trackindex>
              <clipindex>172</clipindex>
            </link>
            <link>
              <mediatype>audio</mediatype>
              <trackindex>1</trackindex>
              <clipindex>172</clipindex>
              <groupindex>172</groupindex>
            </link>
            <link>
              <mediatype>audio</mediatype>
              <trackindex>2</trackindex>
              <clipindex>172</clipindex>
              <groupindex>172</groupindex>
            </link>
          </clipitem>
          <clipitem>
            <name>街ブラ恵比寿02修正文字起こし.mp4</name>
            <enabled>true</enabled>
            <rate>
              <timebase>30</timebase>
              <ntsc>true</ntsc>
            </rate>
            <in>18178.9029</in>
            <out>18457.324200000003</out>
            <start>18178.902899999954</start>
            <end>18457.324199999955</end>
            <file id="街ブラ恵比寿02修正文字起こし.mp4">
              <name>街ブラ恵比寿02修正文字起こし.mp4</name>
              <pathurl>/Volumes/SSD naoki2/街ブラ恵比寿02修正文字起こし.mp4</pathurl>
              <media>
                <video>
                  <samplecharacteristics>
                    <width>720</width>
                    <height>480</height>
                    <anamorphic>false</anamorphic>
                    <pixelaspectratio>square</pixelaspectratio>
                    <fielddominance>none</fielddominance>
                  </samplecharacteristics>
                </video>
                <audio>
                  <in>0</in>
                  <out>22166.1117</out>
                  <channelcount>2</channelcount>
                  <duration>22166.1117</duration>
                </audio>
              </media>
            </file>
            <link>
              <mediatype>video</mediatype>
              <trackindex>1</trackindex>
              <clipindex>173</clipindex>
            </link>
            <link>
              <mediatype>audio</mediatype>
              <trackindex>1</trackindex>
              <clipindex>173</clipindex>
              <groupindex>173</groupindex>
            </link>
            <link>
              <mediatype>audio</mediatype>
              <trackindex>2</trackindex>
              <clipindex>173</clipindex>
              <groupindex>173</groupindex>
            </link>
          </clipitem>
          <clipitem>
            <name>街ブラ恵比寿02修正文字起こし.mp4</name>
            <enabled>true</enabled>
            <rate>
              <timebase>30</timebase>
              <ntsc>true</ntsc>
            </rate>
            <in>18457.3242</in>
            <out>18689.5917</out>
            <start>18457.324199999955</start>
            <end>18689.591699999957</end>
            <file id="街ブラ恵比寿02修正文字起こし.mp4">
              <name>街ブラ恵比寿02修正文字起こし.mp4</name>
              <pathurl>/Volumes/SSD naoki2/街ブラ恵比寿02修正文字起こし.mp4</pathurl>
              <media>
                <video>
                  <samplecharacteristics>
                    <width>720</width>
                    <height>480</height>
                    <anamorphic>false</anamorphic>
                    <pixelaspectratio>square</pixelaspectratio>
                    <fielddominance>none</fielddominance>
                  </samplecharacteristics>
                </video>
                <audio>
                  <in>0</in>
                  <out>22166.1117</out>
                  <channelcount>2</channelcount>
                  <duration>22166.1117</duration>
                </audio>
              </media>
            </file>
            <link>
              <mediatype>video</mediatype>
              <trackindex>1</trackindex>
              <clipindex>174</clipindex>
            </link>
            <link>
              <mediatype>audio</mediatype>
              <trackindex>1</trackindex>
              <clipindex>174</clipindex>
              <groupindex>174</groupindex>
            </link>
            <link>
              <mediatype>audio</mediatype>
              <trackindex>2</trackindex>
              <clipindex>174</clipindex>
              <groupindex>174</groupindex>
            </link>
          </clipitem>
          <clipitem>
            <name>街ブラ恵比寿02修正文字起こし.mp4</name>
            <enabled>true</enabled>
            <rate>
              <timebase>30</timebase>
              <ntsc>true</ntsc>
            </rate>
            <in>18689.5917</in>
            <out>18764.516700000004</out>
            <start>18689.591699999957</start>
            <end>18764.51669999996</end>
            <file id="街ブラ恵比寿02修正文字起こし.mp4">
              <name>街ブラ恵比寿02修正文字起こし.mp4</name>
              <pathurl>/Volumes/SSD naoki2/街ブラ恵比寿02修正文字起こし.mp4</pathurl>
              <media>
                <video>
                  <samplecharacteristics>
                    <width>720</width>
                    <height>480</height>
                    <anamorphic>false</anamorphic>
                    <pixelaspectratio>square</pixelaspectratio>
                    <fielddominance>none</fielddominance>
                  </samplecharacteristics>
                </video>
                <audio>
                  <in>0</in>
                  <out>22166.1117</out>
                  <channelcount>2</channelcount>
                  <duration>22166.1117</duration>
                </audio>
              </media>
            </file>
            <link>
              <mediatype>video</mediatype>
              <trackindex>1</trackindex>
              <clipindex>175</clipindex>
            </link>
            <link>
              <mediatype>audio</mediatype>
              <trackindex>1</trackindex>
              <clipindex>175</clipindex>
              <groupindex>175</groupindex>
            </link>
            <link>
              <mediatype>audio</mediatype>
              <trackindex>2</trackindex>
              <clipindex>175</clipindex>
              <groupindex>175</groupindex>
            </link>
          </clipitem>
          <clipitem>
            <name>街ブラ恵比寿02修正文字起こし.mp4</name>
            <enabled>true</enabled>
            <rate>
              <timebase>30</timebase>
              <ntsc>true</ntsc>
            </rate>
            <in>18764.5167</in>
            <out>18861.6195</out>
            <start>18764.51669999996</start>
            <end>18861.61949999996</end>
            <file id="街ブラ恵比寿02修正文字起こし.mp4">
              <name>街ブラ恵比寿02修正文字起こし.mp4</name>
              <pathurl>/Volumes/SSD naoki2/街ブラ恵比寿02修正文字起こし.mp4</pathurl>
              <media>
                <video>
                  <samplecharacteristics>
                    <width>720</width>
                    <height>480</height>
                    <anamorphic>false</anamorphic>
                    <pixelaspectratio>square</pixelaspectratio>
                    <fielddominance>none</fielddominance>
                  </samplecharacteristics>
                </video>
                <audio>
                  <in>0</in>
                  <out>22166.1117</out>
                  <channelcount>2</channelcount>
                  <duration>22166.1117</duration>
                </audio>
              </media>
            </file>
            <link>
              <mediatype>video</mediatype>
              <trackindex>1</trackindex>
              <clipindex>176</clipindex>
            </link>
            <link>
              <mediatype>audio</mediatype>
              <trackindex>1</trackindex>
              <clipindex>176</clipindex>
              <groupindex>176</groupindex>
            </link>
            <link>
              <mediatype>audio</mediatype>
              <trackindex>2</trackindex>
              <clipindex>176</clipindex>
              <groupindex>176</groupindex>
            </link>
          </clipitem>
          <clipitem>
            <name>街ブラ恵比寿02修正文字起こし.mp4</name>
            <enabled>true</enabled>
            <rate>
              <timebase>30</timebase>
              <ntsc>true</ntsc>
            </rate>
            <in>18861.6195</in>
            <out>18982.998000000007</out>
            <start>18861.61949999996</start>
            <end>18982.997999999963</end>
            <file id="街ブラ恵比寿02修正文字起こし.mp4">
              <name>街ブラ恵比寿02修正文字起こし.mp4</name>
              <pathurl>/Volumes/SSD naoki2/街ブラ恵比寿02修正文字起こし.mp4</pathurl>
              <media>
                <video>
                  <samplecharacteristics>
                    <width>720</width>
                    <height>480</height>
                    <anamorphic>false</anamorphic>
                    <pixelaspectratio>square</pixelaspectratio>
                    <fielddominance>none</fielddominance>
                  </samplecharacteristics>
                </video>
                <audio>
                  <in>0</in>
                  <out>22166.1117</out>
                  <channelcount>2</channelcount>
                  <duration>22166.1117</duration>
                </audio>
              </media>
            </file>
            <link>
              <mediatype>video</mediatype>
              <trackindex>1</trackindex>
              <clipindex>177</clipindex>
            </link>
            <link>
              <mediatype>audio</mediatype>
              <trackindex>1</trackindex>
              <clipindex>177</clipindex>
              <groupindex>177</groupindex>
            </link>
            <link>
              <mediatype>audio</mediatype>
              <trackindex>2</trackindex>
              <clipindex>177</clipindex>
              <groupindex>177</groupindex>
            </link>
          </clipitem>
          <clipitem>
            <name>街ブラ恵比寿02修正文字起こし.mp4</name>
            <enabled>true</enabled>
            <rate>
              <timebase>30</timebase>
              <ntsc>true</ntsc>
            </rate>
            <in>18982.998</in>
            <out>19047.4335</out>
            <start>18982.997999999963</start>
            <end>19047.433499999963</end>
            <file id="街ブラ恵比寿02修正文字起こし.mp4">
              <name>街ブラ恵比寿02修正文字起こし.mp4</name>
              <pathurl>/Volumes/SSD naoki2/街ブラ恵比寿02修正文字起こし.mp4</pathurl>
              <media>
                <video>
                  <samplecharacteristics>
                    <width>720</width>
                    <height>480</height>
                    <anamorphic>false</anamorphic>
                    <pixelaspectratio>square</pixelaspectratio>
                    <fielddominance>none</fielddominance>
                  </samplecharacteristics>
                </video>
                <audio>
                  <in>0</in>
                  <out>22166.1117</out>
                  <channelcount>2</channelcount>
                  <duration>22166.1117</duration>
                </audio>
              </media>
            </file>
            <link>
              <mediatype>video</mediatype>
              <trackindex>1</trackindex>
              <clipindex>178</clipindex>
            </link>
            <link>
              <mediatype>audio</mediatype>
              <trackindex>1</trackindex>
              <clipindex>178</clipindex>
              <groupindex>178</groupindex>
            </link>
            <link>
              <mediatype>audio</mediatype>
              <trackindex>2</trackindex>
              <clipindex>178</clipindex>
              <groupindex>178</groupindex>
            </link>
          </clipitem>
          <clipitem>
            <name>街ブラ恵比寿02修正文字起こし.mp4</name>
            <enabled>true</enabled>
            <rate>
              <timebase>30</timebase>
              <ntsc>true</ntsc>
            </rate>
            <in>19047.4335</in>
            <out>19118.162699999997</out>
            <start>19047.433499999963</start>
            <end>19118.162699999964</end>
            <file id="街ブラ恵比寿02修正文字起こし.mp4">
              <name>街ブラ恵比寿02修正文字起こし.mp4</name>
              <pathurl>/Volumes/SSD naoki2/街ブラ恵比寿02修正文字起こし.mp4</pathurl>
              <media>
                <video>
                  <samplecharacteristics>
                    <width>720</width>
                    <height>480</height>
                    <anamorphic>false</anamorphic>
                    <pixelaspectratio>square</pixelaspectratio>
                    <fielddominance>none</fielddominance>
                  </samplecharacteristics>
                </video>
                <audio>
                  <in>0</in>
                  <out>22166.1117</out>
                  <channelcount>2</channelcount>
                  <duration>22166.1117</duration>
                </audio>
              </media>
            </file>
            <link>
              <mediatype>video</mediatype>
              <trackindex>1</trackindex>
              <clipindex>179</clipindex>
            </link>
            <link>
              <mediatype>audio</mediatype>
              <trackindex>1</trackindex>
              <clipindex>179</clipindex>
              <groupindex>179</groupindex>
            </link>
            <link>
              <mediatype>audio</mediatype>
              <trackindex>2</trackindex>
              <clipindex>179</clipindex>
              <groupindex>179</groupindex>
            </link>
          </clipitem>
          <clipitem>
            <name>街ブラ恵比寿02修正文字起こし.mp4</name>
            <enabled>true</enabled>
            <rate>
              <timebase>30</timebase>
              <ntsc>true</ntsc>
            </rate>
            <in>19118.162699999997</in>
            <out>19167.6132</out>
            <start>19118.162699999964</start>
            <end>19167.613199999967</end>
            <file id="街ブラ恵比寿02修正文字起こし.mp4">
              <name>街ブラ恵比寿02修正文字起こし.mp4</name>
              <pathurl>/Volumes/SSD naoki2/街ブラ恵比寿02修正文字起こし.mp4</pathurl>
              <media>
                <video>
                  <samplecharacteristics>
                    <width>720</width>
                    <height>480</height>
                    <anamorphic>false</anamorphic>
                    <pixelaspectratio>square</pixelaspectratio>
                    <fielddominance>none</fielddominance>
                  </samplecharacteristics>
                </video>
                <audio>
                  <in>0</in>
                  <out>22166.1117</out>
                  <channelcount>2</channelcount>
                  <duration>22166.1117</duration>
                </audio>
              </media>
            </file>
            <link>
              <mediatype>video</mediatype>
              <trackindex>1</trackindex>
              <clipindex>180</clipindex>
            </link>
            <link>
              <mediatype>audio</mediatype>
              <trackindex>1</trackindex>
              <clipindex>180</clipindex>
              <groupindex>180</groupindex>
            </link>
            <link>
              <mediatype>audio</mediatype>
              <trackindex>2</trackindex>
              <clipindex>180</clipindex>
              <groupindex>180</groupindex>
            </link>
          </clipitem>
          <clipitem>
            <name>街ブラ恵比寿02修正文字起こし.mp4</name>
            <enabled>true</enabled>
            <rate>
              <timebase>30</timebase>
              <ntsc>true</ntsc>
            </rate>
            <in>19167.613199999996</in>
            <out>19268.012699999996</out>
            <start>19167.613199999967</start>
            <end>19268.012699999963</end>
            <file id="街ブラ恵比寿02修正文字起こし.mp4">
              <name>街ブラ恵比寿02修正文字起こし.mp4</name>
              <pathurl>/Volumes/SSD naoki2/街ブラ恵比寿02修正文字起こし.mp4</pathurl>
              <media>
                <video>
                  <samplecharacteristics>
                    <width>720</width>
                    <height>480</height>
                    <anamorphic>false</anamorphic>
                    <pixelaspectratio>square</pixelaspectratio>
                    <fielddominance>none</fielddominance>
                  </samplecharacteristics>
                </video>
                <audio>
                  <in>0</in>
                  <out>22166.1117</out>
                  <channelcount>2</channelcount>
                  <duration>22166.1117</duration>
                </audio>
              </media>
            </file>
            <link>
              <mediatype>video</mediatype>
              <trackindex>1</trackindex>
              <clipindex>181</clipindex>
            </link>
            <link>
              <mediatype>audio</mediatype>
              <trackindex>1</trackindex>
              <clipindex>181</clipindex>
              <groupindex>181</groupindex>
            </link>
            <link>
              <mediatype>audio</mediatype>
              <trackindex>2</trackindex>
              <clipindex>181</clipindex>
              <groupindex>181</groupindex>
            </link>
          </clipitem>
          <clipitem>
            <name>街ブラ恵比寿02修正文字起こし.mp4</name>
            <enabled>true</enabled>
            <rate>
              <timebase>30</timebase>
              <ntsc>true</ntsc>
            </rate>
            <in>19268.0127</in>
            <out>19307.5731</out>
            <start>19268.012699999963</start>
            <end>19307.573099999965</end>
            <file id="街ブラ恵比寿02修正文字起こし.mp4">
              <name>街ブラ恵比寿02修正文字起こし.mp4</name>
              <pathurl>/Volumes/SSD naoki2/街ブラ恵比寿02修正文字起こし.mp4</pathurl>
              <media>
                <video>
                  <samplecharacteristics>
                    <width>720</width>
                    <height>480</height>
                    <anamorphic>false</anamorphic>
                    <pixelaspectratio>square</pixelaspectratio>
                    <fielddominance>none</fielddominance>
                  </samplecharacteristics>
                </video>
                <audio>
                  <in>0</in>
                  <out>22166.1117</out>
                  <channelcount>2</channelcount>
                  <duration>22166.1117</duration>
                </audio>
              </media>
            </file>
            <link>
              <mediatype>video</mediatype>
              <trackindex>1</trackindex>
              <clipindex>182</clipindex>
            </link>
            <link>
              <mediatype>audio</mediatype>
              <trackindex>1</trackindex>
              <clipindex>182</clipindex>
              <groupindex>182</groupindex>
            </link>
            <link>
              <mediatype>audio</mediatype>
              <trackindex>2</trackindex>
              <clipindex>182</clipindex>
              <groupindex>182</groupindex>
            </link>
          </clipitem>
          <clipitem>
            <name>街ブラ恵比寿02修正文字起こし.mp4</name>
            <enabled>true</enabled>
            <rate>
              <timebase>30</timebase>
              <ntsc>true</ntsc>
            </rate>
            <in>19307.5731</in>
            <out>19372.308300000004</out>
            <start>19307.573099999965</start>
            <end>19372.30829999997</end>
            <file id="街ブラ恵比寿02修正文字起こし.mp4">
              <name>街ブラ恵比寿02修正文字起こし.mp4</name>
              <pathurl>/Volumes/SSD naoki2/街ブラ恵比寿02修正文字起こし.mp4</pathurl>
              <media>
                <video>
                  <samplecharacteristics>
                    <width>720</width>
                    <height>480</height>
                    <anamorphic>false</anamorphic>
                    <pixelaspectratio>square</pixelaspectratio>
                    <fielddominance>none</fielddominance>
                  </samplecharacteristics>
                </video>
                <audio>
                  <in>0</in>
                  <out>22166.1117</out>
                  <channelcount>2</channelcount>
                  <duration>22166.1117</duration>
                </audio>
              </media>
            </file>
            <link>
              <mediatype>video</mediatype>
              <trackindex>1</trackindex>
              <clipindex>183</clipindex>
            </link>
            <link>
              <mediatype>audio</mediatype>
              <trackindex>1</trackindex>
              <clipindex>183</clipindex>
              <groupindex>183</groupindex>
            </link>
            <link>
              <mediatype>audio</mediatype>
              <trackindex>2</trackindex>
              <clipindex>183</clipindex>
              <groupindex>183</groupindex>
            </link>
          </clipitem>
          <clipitem>
            <name>街ブラ恵比寿02修正文字起こし.mp4</name>
            <enabled>true</enabled>
            <rate>
              <timebase>30</timebase>
              <ntsc>true</ntsc>
            </rate>
            <in>19372.3083</in>
            <out>19502.378099999998</out>
            <start>19372.30829999997</start>
            <end>19502.37809999997</end>
            <file id="街ブラ恵比寿02修正文字起こし.mp4">
              <name>街ブラ恵比寿02修正文字起こし.mp4</name>
              <pathurl>/Volumes/SSD naoki2/街ブラ恵比寿02修正文字起こし.mp4</pathurl>
              <media>
                <video>
                  <samplecharacteristics>
                    <width>720</width>
                    <height>480</height>
                    <anamorphic>false</anamorphic>
                    <pixelaspectratio>square</pixelaspectratio>
                    <fielddominance>none</fielddominance>
                  </samplecharacteristics>
                </video>
                <audio>
                  <in>0</in>
                  <out>22166.1117</out>
                  <channelcount>2</channelcount>
                  <duration>22166.1117</duration>
                </audio>
              </media>
            </file>
            <link>
              <mediatype>video</mediatype>
              <trackindex>1</trackindex>
              <clipindex>184</clipindex>
            </link>
            <link>
              <mediatype>audio</mediatype>
              <trackindex>1</trackindex>
              <clipindex>184</clipindex>
              <groupindex>184</groupindex>
            </link>
            <link>
              <mediatype>audio</mediatype>
              <trackindex>2</trackindex>
              <clipindex>184</clipindex>
              <groupindex>184</groupindex>
            </link>
          </clipitem>
          <clipitem>
            <name>街ブラ恵比寿02修正文字起こし.mp4</name>
            <enabled>true</enabled>
            <rate>
              <timebase>30</timebase>
              <ntsc>true</ntsc>
            </rate>
            <in>19502.378099999998</in>
            <out>19581.1992</out>
            <start>19502.37809999997</start>
            <end>19581.19919999997</end>
            <file id="街ブラ恵比寿02修正文字起こし.mp4">
              <name>街ブラ恵比寿02修正文字起こし.mp4</name>
              <pathurl>/Volumes/SSD naoki2/街ブラ恵比寿02修正文字起こし.mp4</pathurl>
              <media>
                <video>
                  <samplecharacteristics>
                    <width>720</width>
                    <height>480</height>
                    <anamorphic>false</anamorphic>
                    <pixelaspectratio>square</pixelaspectratio>
                    <fielddominance>none</fielddominance>
                  </samplecharacteristics>
                </video>
                <audio>
                  <in>0</in>
                  <out>22166.1117</out>
                  <channelcount>2</channelcount>
                  <duration>22166.1117</duration>
                </audio>
              </media>
            </file>
            <link>
              <mediatype>video</mediatype>
              <trackindex>1</trackindex>
              <clipindex>185</clipindex>
            </link>
            <link>
              <mediatype>audio</mediatype>
              <trackindex>1</trackindex>
              <clipindex>185</clipindex>
              <groupindex>185</groupindex>
            </link>
            <link>
              <mediatype>audio</mediatype>
              <trackindex>2</trackindex>
              <clipindex>185</clipindex>
              <groupindex>185</groupindex>
            </link>
          </clipitem>
          <clipitem>
            <name>街ブラ恵比寿02修正文字起こし.mp4</name>
            <enabled>true</enabled>
            <rate>
              <timebase>30</timebase>
              <ntsc>true</ntsc>
            </rate>
            <in>19581.1992</in>
            <out>19744.835399999996</out>
            <start>19581.19919999997</start>
            <end>19744.835399999967</end>
            <file id="街ブラ恵比寿02修正文字起こし.mp4">
              <name>街ブラ恵比寿02修正文字起こし.mp4</name>
              <pathurl>/Volumes/SSD naoki2/街ブラ恵比寿02修正文字起こし.mp4</pathurl>
              <media>
                <video>
                  <samplecharacteristics>
                    <width>720</width>
                    <height>480</height>
                    <anamorphic>false</anamorphic>
                    <pixelaspectratio>square</pixelaspectratio>
                    <fielddominance>none</fielddominance>
                  </samplecharacteristics>
                </video>
                <audio>
                  <in>0</in>
                  <out>22166.1117</out>
                  <channelcount>2</channelcount>
                  <duration>22166.1117</duration>
                </audio>
              </media>
            </file>
            <link>
              <mediatype>video</mediatype>
              <trackindex>1</trackindex>
              <clipindex>186</clipindex>
            </link>
            <link>
              <mediatype>audio</mediatype>
              <trackindex>1</trackindex>
              <clipindex>186</clipindex>
              <groupindex>186</groupindex>
            </link>
            <link>
              <mediatype>audio</mediatype>
              <trackindex>2</trackindex>
              <clipindex>186</clipindex>
              <groupindex>186</groupindex>
            </link>
          </clipitem>
          <clipitem>
            <name>街ブラ恵比寿02修正文字起こし.mp4</name>
            <enabled>true</enabled>
            <rate>
              <timebase>30</timebase>
              <ntsc>true</ntsc>
            </rate>
            <in>19744.8354</in>
            <out>19805.6745</out>
            <start>19744.835399999967</start>
            <end>19805.674499999965</end>
            <file id="街ブラ恵比寿02修正文字起こし.mp4">
              <name>街ブラ恵比寿02修正文字起こし.mp4</name>
              <pathurl>/Volumes/SSD naoki2/街ブラ恵比寿02修正文字起こし.mp4</pathurl>
              <media>
                <video>
                  <samplecharacteristics>
                    <width>720</width>
                    <height>480</height>
                    <anamorphic>false</anamorphic>
                    <pixelaspectratio>square</pixelaspectratio>
                    <fielddominance>none</fielddominance>
                  </samplecharacteristics>
                </video>
                <audio>
                  <in>0</in>
                  <out>22166.1117</out>
                  <channelcount>2</channelcount>
                  <duration>22166.1117</duration>
                </audio>
              </media>
            </file>
            <link>
              <mediatype>video</mediatype>
              <trackindex>1</trackindex>
              <clipindex>187</clipindex>
            </link>
            <link>
              <mediatype>audio</mediatype>
              <trackindex>1</trackindex>
              <clipindex>187</clipindex>
              <groupindex>187</groupindex>
            </link>
            <link>
              <mediatype>audio</mediatype>
              <trackindex>2</trackindex>
              <clipindex>187</clipindex>
              <groupindex>187</groupindex>
            </link>
          </clipitem>
          <clipitem>
            <name>街ブラ恵比寿02修正文字起こし.mp4</name>
            <enabled>true</enabled>
            <rate>
              <timebase>30</timebase>
              <ntsc>true</ntsc>
            </rate>
            <in>19805.6745</in>
            <out>19893.4866</out>
            <start>19805.674499999965</start>
            <end>19893.486599999964</end>
            <file id="街ブラ恵比寿02修正文字起こし.mp4">
              <name>街ブラ恵比寿02修正文字起こし.mp4</name>
              <pathurl>/Volumes/SSD naoki2/街ブラ恵比寿02修正文字起こし.mp4</pathurl>
              <media>
                <video>
                  <samplecharacteristics>
                    <width>720</width>
                    <height>480</height>
                    <anamorphic>false</anamorphic>
                    <pixelaspectratio>square</pixelaspectratio>
                    <fielddominance>none</fielddominance>
                  </samplecharacteristics>
                </video>
                <audio>
                  <in>0</in>
                  <out>22166.1117</out>
                  <channelcount>2</channelcount>
                  <duration>22166.1117</duration>
                </audio>
              </media>
            </file>
            <link>
              <mediatype>video</mediatype>
              <trackindex>1</trackindex>
              <clipindex>188</clipindex>
            </link>
            <link>
              <mediatype>audio</mediatype>
              <trackindex>1</trackindex>
              <clipindex>188</clipindex>
              <groupindex>188</groupindex>
            </link>
            <link>
              <mediatype>audio</mediatype>
              <trackindex>2</trackindex>
              <clipindex>188</clipindex>
              <groupindex>188</groupindex>
            </link>
          </clipitem>
          <clipitem>
            <name>街ブラ恵比寿02修正文字起こし.mp4</name>
            <enabled>true</enabled>
            <rate>
              <timebase>30</timebase>
              <ntsc>true</ntsc>
            </rate>
            <in>19893.4866</in>
            <out>20114.065800000004</out>
            <start>19893.486599999964</start>
            <end>20114.065799999968</end>
            <file id="街ブラ恵比寿02修正文字起こし.mp4">
              <name>街ブラ恵比寿02修正文字起こし.mp4</name>
              <pathurl>/Volumes/SSD naoki2/街ブラ恵比寿02修正文字起こし.mp4</pathurl>
              <media>
                <video>
                  <samplecharacteristics>
                    <width>720</width>
                    <height>480</height>
                    <anamorphic>false</anamorphic>
                    <pixelaspectratio>square</pixelaspectratio>
                    <fielddominance>none</fielddominance>
                  </samplecharacteristics>
                </video>
                <audio>
                  <in>0</in>
                  <out>22166.1117</out>
                  <channelcount>2</channelcount>
                  <duration>22166.1117</duration>
                </audio>
              </media>
            </file>
            <link>
              <mediatype>video</mediatype>
              <trackindex>1</trackindex>
              <clipindex>189</clipindex>
            </link>
            <link>
              <mediatype>audio</mediatype>
              <trackindex>1</trackindex>
              <clipindex>189</clipindex>
              <groupindex>189</groupindex>
            </link>
            <link>
              <mediatype>audio</mediatype>
              <trackindex>2</trackindex>
              <clipindex>189</clipindex>
              <groupindex>189</groupindex>
            </link>
          </clipitem>
          <clipitem>
            <name>街ブラ恵比寿02修正文字起こし.mp4</name>
            <enabled>true</enabled>
            <rate>
              <timebase>30</timebase>
              <ntsc>true</ntsc>
            </rate>
            <in>20114.0658</in>
            <out>20244.4353</out>
            <start>20114.065799999968</start>
            <end>20244.43529999997</end>
            <file id="街ブラ恵比寿02修正文字起こし.mp4">
              <name>街ブラ恵比寿02修正文字起こし.mp4</name>
              <pathurl>/Volumes/SSD naoki2/街ブラ恵比寿02修正文字起こし.mp4</pathurl>
              <media>
                <video>
                  <samplecharacteristics>
                    <width>720</width>
                    <height>480</height>
                    <anamorphic>false</anamorphic>
                    <pixelaspectratio>square</pixelaspectratio>
                    <fielddominance>none</fielddominance>
                  </samplecharacteristics>
                </video>
                <audio>
                  <in>0</in>
                  <out>22166.1117</out>
                  <channelcount>2</channelcount>
                  <duration>22166.1117</duration>
                </audio>
              </media>
            </file>
            <link>
              <mediatype>video</mediatype>
              <trackindex>1</trackindex>
              <clipindex>190</clipindex>
            </link>
            <link>
              <mediatype>audio</mediatype>
              <trackindex>1</trackindex>
              <clipindex>190</clipindex>
              <groupindex>190</groupindex>
            </link>
            <link>
              <mediatype>audio</mediatype>
              <trackindex>2</trackindex>
              <clipindex>190</clipindex>
              <groupindex>190</groupindex>
            </link>
          </clipitem>
          <clipitem>
            <name>街ブラ恵比寿02修正文字起こし.mp4</name>
            <enabled>true</enabled>
            <rate>
              <timebase>30</timebase>
              <ntsc>true</ntsc>
            </rate>
            <in>20244.4353</in>
            <out>20295.084600000002</out>
            <start>20244.43529999997</start>
            <end>20295.08459999997</end>
            <file id="街ブラ恵比寿02修正文字起こし.mp4">
              <name>街ブラ恵比寿02修正文字起こし.mp4</name>
              <pathurl>/Volumes/SSD naoki2/街ブラ恵比寿02修正文字起こし.mp4</pathurl>
              <media>
                <video>
                  <samplecharacteristics>
                    <width>720</width>
                    <height>480</height>
                    <anamorphic>false</anamorphic>
                    <pixelaspectratio>square</pixelaspectratio>
                    <fielddominance>none</fielddominance>
                  </samplecharacteristics>
                </video>
                <audio>
                  <in>0</in>
                  <out>22166.1117</out>
                  <channelcount>2</channelcount>
                  <duration>22166.1117</duration>
                </audio>
              </media>
            </file>
            <link>
              <mediatype>video</mediatype>
              <trackindex>1</trackindex>
              <clipindex>191</clipindex>
            </link>
            <link>
              <mediatype>audio</mediatype>
              <trackindex>1</trackindex>
              <clipindex>191</clipindex>
              <groupindex>191</groupindex>
            </link>
            <link>
              <mediatype>audio</mediatype>
              <trackindex>2</trackindex>
              <clipindex>191</clipindex>
              <groupindex>191</groupindex>
            </link>
          </clipitem>
          <clipitem>
            <name>街ブラ恵比寿02修正文字起こし.mp4</name>
            <enabled>true</enabled>
            <rate>
              <timebase>30</timebase>
              <ntsc>true</ntsc>
            </rate>
            <in>20295.0846</in>
            <out>20531.847599999994</out>
            <start>20295.08459999997</start>
            <end>20531.847599999965</end>
            <file id="街ブラ恵比寿02修正文字起こし.mp4">
              <name>街ブラ恵比寿02修正文字起こし.mp4</name>
              <pathurl>/Volumes/SSD naoki2/街ブラ恵比寿02修正文字起こし.mp4</pathurl>
              <media>
                <video>
                  <samplecharacteristics>
                    <width>720</width>
                    <height>480</height>
                    <anamorphic>false</anamorphic>
                    <pixelaspectratio>square</pixelaspectratio>
                    <fielddominance>none</fielddominance>
                  </samplecharacteristics>
                </video>
                <audio>
                  <in>0</in>
                  <out>22166.1117</out>
                  <channelcount>2</channelcount>
                  <duration>22166.1117</duration>
                </audio>
              </media>
            </file>
            <link>
              <mediatype>video</mediatype>
              <trackindex>1</trackindex>
              <clipindex>192</clipindex>
            </link>
            <link>
              <mediatype>audio</mediatype>
              <trackindex>1</trackindex>
              <clipindex>192</clipindex>
              <groupindex>192</groupindex>
            </link>
            <link>
              <mediatype>audio</mediatype>
              <trackindex>2</trackindex>
              <clipindex>192</clipindex>
              <groupindex>192</groupindex>
            </link>
          </clipitem>
          <clipitem>
            <name>街ブラ恵比寿02修正文字起こし.mp4</name>
            <enabled>true</enabled>
            <rate>
              <timebase>30</timebase>
              <ntsc>true</ntsc>
            </rate>
            <in>20531.8476</in>
            <out>20590.5888</out>
            <start>20531.847599999965</start>
            <end>20590.58879999997</end>
            <file id="街ブラ恵比寿02修正文字起こし.mp4">
              <name>街ブラ恵比寿02修正文字起こし.mp4</name>
              <pathurl>/Volumes/SSD naoki2/街ブラ恵比寿02修正文字起こし.mp4</pathurl>
              <media>
                <video>
                  <samplecharacteristics>
                    <width>720</width>
                    <height>480</height>
                    <anamorphic>false</anamorphic>
                    <pixelaspectratio>square</pixelaspectratio>
                    <fielddominance>none</fielddominance>
                  </samplecharacteristics>
                </video>
                <audio>
                  <in>0</in>
                  <out>22166.1117</out>
                  <channelcount>2</channelcount>
                  <duration>22166.1117</duration>
                </audio>
              </media>
            </file>
            <link>
              <mediatype>video</mediatype>
              <trackindex>1</trackindex>
              <clipindex>193</clipindex>
            </link>
            <link>
              <mediatype>audio</mediatype>
              <trackindex>1</trackindex>
              <clipindex>193</clipindex>
              <groupindex>193</groupindex>
            </link>
            <link>
              <mediatype>audio</mediatype>
              <trackindex>2</trackindex>
              <clipindex>193</clipindex>
              <groupindex>193</groupindex>
            </link>
          </clipitem>
          <clipitem>
            <name>街ブラ恵比寿02修正文字起こし.mp4</name>
            <enabled>true</enabled>
            <rate>
              <timebase>30</timebase>
              <ntsc>true</ntsc>
            </rate>
            <in>20590.588799999998</in>
            <out>20636.742599999998</out>
            <start>20590.58879999997</start>
            <end>20636.742599999965</end>
            <file id="街ブラ恵比寿02修正文字起こし.mp4">
              <name>街ブラ恵比寿02修正文字起こし.mp4</name>
              <pathurl>/Volumes/SSD naoki2/街ブラ恵比寿02修正文字起こし.mp4</pathurl>
              <media>
                <video>
                  <samplecharacteristics>
                    <width>720</width>
                    <height>480</height>
                    <anamorphic>false</anamorphic>
                    <pixelaspectratio>square</pixelaspectratio>
                    <fielddominance>none</fielddominance>
                  </samplecharacteristics>
                </video>
                <audio>
                  <in>0</in>
                  <out>22166.1117</out>
                  <channelcount>2</channelcount>
                  <duration>22166.1117</duration>
                </audio>
              </media>
            </file>
            <link>
              <mediatype>video</mediatype>
              <trackindex>1</trackindex>
              <clipindex>194</clipindex>
            </link>
            <link>
              <mediatype>audio</mediatype>
              <trackindex>1</trackindex>
              <clipindex>194</clipindex>
              <groupindex>194</groupindex>
            </link>
            <link>
              <mediatype>audio</mediatype>
              <trackindex>2</trackindex>
              <clipindex>194</clipindex>
              <groupindex>194</groupindex>
            </link>
          </clipitem>
          <clipitem>
            <name>街ブラ恵比寿02修正文字起こし.mp4</name>
            <enabled>true</enabled>
            <rate>
              <timebase>30</timebase>
              <ntsc>true</ntsc>
            </rate>
            <in>20636.7426</in>
            <out>20930.748300000003</out>
            <start>20636.742599999965</start>
            <end>20930.748299999967</end>
            <file id="街ブラ恵比寿02修正文字起こし.mp4">
              <name>街ブラ恵比寿02修正文字起こし.mp4</name>
              <pathurl>/Volumes/SSD naoki2/街ブラ恵比寿02修正文字起こし.mp4</pathurl>
              <media>
                <video>
                  <samplecharacteristics>
                    <width>720</width>
                    <height>480</height>
                    <anamorphic>false</anamorphic>
                    <pixelaspectratio>square</pixelaspectratio>
                    <fielddominance>none</fielddominance>
                  </samplecharacteristics>
                </video>
                <audio>
                  <in>0</in>
                  <out>22166.1117</out>
                  <channelcount>2</channelcount>
                  <duration>22166.1117</duration>
                </audio>
              </media>
            </file>
            <link>
              <mediatype>video</mediatype>
              <trackindex>1</trackindex>
              <clipindex>195</clipindex>
            </link>
            <link>
              <mediatype>audio</mediatype>
              <trackindex>1</trackindex>
              <clipindex>195</clipindex>
              <groupindex>195</groupindex>
            </link>
            <link>
              <mediatype>audio</mediatype>
              <trackindex>2</trackindex>
              <clipindex>195</clipindex>
              <groupindex>195</groupindex>
            </link>
          </clipitem>
          <clipitem>
            <name>街ブラ恵比寿02修正文字起こし.mp4</name>
            <enabled>true</enabled>
            <rate>
              <timebase>30</timebase>
              <ntsc>true</ntsc>
            </rate>
            <in>20930.7483</in>
            <out>21412.366199999997</out>
            <start>20930.748299999967</start>
            <end>21412.366199999968</end>
            <file id="街ブラ恵比寿02修正文字起こし.mp4">
              <name>街ブラ恵比寿02修正文字起こし.mp4</name>
              <pathurl>/Volumes/SSD naoki2/街ブラ恵比寿02修正文字起こし.mp4</pathurl>
              <media>
                <video>
                  <samplecharacteristics>
                    <width>720</width>
                    <height>480</height>
                    <anamorphic>false</anamorphic>
                    <pixelaspectratio>square</pixelaspectratio>
                    <fielddominance>none</fielddominance>
                  </samplecharacteristics>
                </video>
                <audio>
                  <in>0</in>
                  <out>22166.1117</out>
                  <channelcount>2</channelcount>
                  <duration>22166.1117</duration>
                </audio>
              </media>
            </file>
            <link>
              <mediatype>video</mediatype>
              <trackindex>1</trackindex>
              <clipindex>196</clipindex>
            </link>
            <link>
              <mediatype>audio</mediatype>
              <trackindex>1</trackindex>
              <clipindex>196</clipindex>
              <groupindex>196</groupindex>
            </link>
            <link>
              <mediatype>audio</mediatype>
              <trackindex>2</trackindex>
              <clipindex>196</clipindex>
              <groupindex>196</groupindex>
            </link>
          </clipitem>
          <clipitem>
            <name>街ブラ恵比寿02修正文字起こし.mp4</name>
            <enabled>true</enabled>
            <rate>
              <timebase>30</timebase>
              <ntsc>true</ntsc>
            </rate>
            <in>21412.3662</in>
            <out>21483.095400000002</out>
            <start>21412.366199999968</start>
            <end>21483.095399999966</end>
            <file id="街ブラ恵比寿02修正文字起こし.mp4">
              <name>街ブラ恵比寿02修正文字起こし.mp4</name>
              <pathurl>/Volumes/SSD naoki2/街ブラ恵比寿02修正文字起こし.mp4</pathurl>
              <media>
                <video>
                  <samplecharacteristics>
                    <width>720</width>
                    <height>480</height>
                    <anamorphic>false</anamorphic>
                    <pixelaspectratio>square</pixelaspectratio>
                    <fielddominance>none</fielddominance>
                  </samplecharacteristics>
                </video>
                <audio>
                  <in>0</in>
                  <out>22166.1117</out>
                  <channelcount>2</channelcount>
                  <duration>22166.1117</duration>
                </audio>
              </media>
            </file>
            <link>
              <mediatype>video</mediatype>
              <trackindex>1</trackindex>
              <clipindex>197</clipindex>
            </link>
            <link>
              <mediatype>audio</mediatype>
              <trackindex>1</trackindex>
              <clipindex>197</clipindex>
              <groupindex>197</groupindex>
            </link>
            <link>
              <mediatype>audio</mediatype>
              <trackindex>2</trackindex>
              <clipindex>197</clipindex>
              <groupindex>197</groupindex>
            </link>
          </clipitem>
          <clipitem>
            <name>街ブラ恵比寿02修正文字起こし.mp4</name>
            <enabled>true</enabled>
            <rate>
              <timebase>30</timebase>
              <ntsc>true</ntsc>
            </rate>
            <in>21483.095400000002</in>
            <out>21581.996400000004</out>
            <start>21483.095399999966</start>
            <end>21581.996399999967</end>
            <file id="街ブラ恵比寿02修正文字起こし.mp4">
              <name>街ブラ恵比寿02修正文字起こし.mp4</name>
              <pathurl>/Volumes/SSD naoki2/街ブラ恵比寿02修正文字起こし.mp4</pathurl>
              <media>
                <video>
                  <samplecharacteristics>
                    <width>720</width>
                    <height>480</height>
                    <anamorphic>false</anamorphic>
                    <pixelaspectratio>square</pixelaspectratio>
                    <fielddominance>none</fielddominance>
                  </samplecharacteristics>
                </video>
                <audio>
                  <in>0</in>
                  <out>22166.1117</out>
                  <channelcount>2</channelcount>
                  <duration>22166.1117</duration>
                </audio>
              </media>
            </file>
            <link>
              <mediatype>video</mediatype>
              <trackindex>1</trackindex>
              <clipindex>198</clipindex>
            </link>
            <link>
              <mediatype>audio</mediatype>
              <trackindex>1</trackindex>
              <clipindex>198</clipindex>
              <groupindex>198</groupindex>
            </link>
            <link>
              <mediatype>audio</mediatype>
              <trackindex>2</trackindex>
              <clipindex>198</clipindex>
              <groupindex>198</groupindex>
            </link>
          </clipitem>
          <clipitem>
            <name>街ブラ恵比寿02修正文字起こし.mp4</name>
            <enabled>true</enabled>
            <rate>
              <timebase>30</timebase>
              <ntsc>true</ntsc>
            </rate>
            <in>21581.9964</in>
            <out>21653.325000000008</out>
            <start>21581.996399999967</start>
            <end>21653.32499999998</end>
            <file id="街ブラ恵比寿02修正文字起こし.mp4">
              <name>街ブラ恵比寿02修正文字起こし.mp4</name>
              <pathurl>/Volumes/SSD naoki2/街ブラ恵比寿02修正文字起こし.mp4</pathurl>
              <media>
                <video>
                  <samplecharacteristics>
                    <width>720</width>
                    <height>480</height>
                    <anamorphic>false</anamorphic>
                    <pixelaspectratio>square</pixelaspectratio>
                    <fielddominance>none</fielddominance>
                  </samplecharacteristics>
                </video>
                <audio>
                  <in>0</in>
                  <out>22166.1117</out>
                  <channelcount>2</channelcount>
                  <duration>22166.1117</duration>
                </audio>
              </media>
            </file>
            <link>
              <mediatype>video</mediatype>
              <trackindex>1</trackindex>
              <clipindex>199</clipindex>
            </link>
            <link>
              <mediatype>audio</mediatype>
              <trackindex>1</trackindex>
              <clipindex>199</clipindex>
              <groupindex>199</groupindex>
            </link>
            <link>
              <mediatype>audio</mediatype>
              <trackindex>2</trackindex>
              <clipindex>199</clipindex>
              <groupindex>199</groupindex>
            </link>
          </clipitem>
          <clipitem>
            <name>街ブラ恵比寿02修正文字起こし.mp4</name>
            <enabled>true</enabled>
            <rate>
              <timebase>30</timebase>
              <ntsc>true</ntsc>
            </rate>
            <in>21653.325</in>
            <out>21742.335900000002</out>
            <start>21653.32499999998</start>
            <end>21742.335899999984</end>
            <file id="街ブラ恵比寿02修正文字起こし.mp4">
              <name>街ブラ恵比寿02修正文字起こし.mp4</name>
              <pathurl>/Volumes/SSD naoki2/街ブラ恵比寿02修正文字起こし.mp4</pathurl>
              <media>
                <video>
                  <samplecharacteristics>
                    <width>720</width>
                    <height>480</height>
                    <anamorphic>false</anamorphic>
                    <pixelaspectratio>square</pixelaspectratio>
                    <fielddominance>none</fielddominance>
                  </samplecharacteristics>
                </video>
                <audio>
                  <in>0</in>
                  <out>22166.1117</out>
                  <channelcount>2</channelcount>
                  <duration>22166.1117</duration>
                </audio>
              </media>
            </file>
            <link>
              <mediatype>video</mediatype>
              <trackindex>1</trackindex>
              <clipindex>200</clipindex>
            </link>
            <link>
              <mediatype>audio</mediatype>
              <trackindex>1</trackindex>
              <clipindex>200</clipindex>
              <groupindex>200</groupindex>
            </link>
            <link>
              <mediatype>audio</mediatype>
              <trackindex>2</trackindex>
              <clipindex>200</clipindex>
              <groupindex>200</groupindex>
            </link>
          </clipitem>
          <clipitem>
            <name>街ブラ恵比寿02修正文字起こし.mp4</name>
            <enabled>true</enabled>
            <rate>
              <timebase>30</timebase>
              <ntsc>true</ntsc>
            </rate>
            <in>21742.3359</in>
            <out>21804.07410000001</out>
            <start>21742.335899999984</start>
            <end>21804.07409999999</end>
            <file id="街ブラ恵比寿02修正文字起こし.mp4">
              <name>街ブラ恵比寿02修正文字起こし.mp4</name>
              <pathurl>/Volumes/SSD naoki2/街ブラ恵比寿02修正文字起こし.mp4</pathurl>
              <media>
                <video>
                  <samplecharacteristics>
                    <width>720</width>
                    <height>480</height>
                    <anamorphic>false</anamorphic>
                    <pixelaspectratio>square</pixelaspectratio>
                    <fielddominance>none</fielddominance>
                  </samplecharacteristics>
                </video>
                <audio>
                  <in>0</in>
                  <out>22166.1117</out>
                  <channelcount>2</channelcount>
                  <duration>22166.1117</duration>
                </audio>
              </media>
            </file>
            <link>
              <mediatype>video</mediatype>
              <trackindex>1</trackindex>
              <clipindex>201</clipindex>
            </link>
            <link>
              <mediatype>audio</mediatype>
              <trackindex>1</trackindex>
              <clipindex>201</clipindex>
              <groupindex>201</groupindex>
            </link>
            <link>
              <mediatype>audio</mediatype>
              <trackindex>2</trackindex>
              <clipindex>201</clipindex>
              <groupindex>201</groupindex>
            </link>
          </clipitem>
          <clipitem>
            <name>街ブラ恵比寿02修正文字起こし.mp4</name>
            <enabled>true</enabled>
            <rate>
              <timebase>30</timebase>
              <ntsc>true</ntsc>
            </rate>
            <in>21804.074099999998</in>
            <out>21868.2099</out>
            <start>21804.07409999999</start>
            <end>21868.209899999994</end>
            <file id="街ブラ恵比寿02修正文字起こし.mp4">
              <name>街ブラ恵比寿02修正文字起こし.mp4</name>
              <pathurl>/Volumes/SSD naoki2/街ブラ恵比寿02修正文字起こし.mp4</pathurl>
              <media>
                <video>
                  <samplecharacteristics>
                    <width>720</width>
                    <height>480</height>
                    <anamorphic>false</anamorphic>
                    <pixelaspectratio>square</pixelaspectratio>
                    <fielddominance>none</fielddominance>
                  </samplecharacteristics>
                </video>
                <audio>
                  <in>0</in>
                  <out>22166.1117</out>
                  <channelcount>2</channelcount>
                  <duration>22166.1117</duration>
                </audio>
              </media>
            </file>
            <link>
              <mediatype>video</mediatype>
              <trackindex>1</trackindex>
              <clipindex>202</clipindex>
            </link>
            <link>
              <mediatype>audio</mediatype>
              <trackindex>1</trackindex>
              <clipindex>202</clipindex>
              <groupindex>202</groupindex>
            </link>
            <link>
              <mediatype>audio</mediatype>
              <trackindex>2</trackindex>
              <clipindex>202</clipindex>
              <groupindex>202</groupindex>
            </link>
          </clipitem>
          <clipitem>
            <name>街ブラ恵比寿02修正文字起こし.mp4</name>
            <enabled>true</enabled>
            <rate>
              <timebase>30</timebase>
              <ntsc>true</ntsc>
            </rate>
            <in>21868.209899999998</in>
            <out>21931.1469</out>
            <start>21868.209899999994</start>
            <end>21931.146899999996</end>
            <file id="街ブラ恵比寿02修正文字起こし.mp4">
              <name>街ブラ恵比寿02修正文字起こし.mp4</name>
              <pathurl>/Volumes/SSD naoki2/街ブラ恵比寿02修正文字起こし.mp4</pathurl>
              <media>
                <video>
                  <samplecharacteristics>
                    <width>720</width>
                    <height>480</height>
                    <anamorphic>false</anamorphic>
                    <pixelaspectratio>square</pixelaspectratio>
                    <fielddominance>none</fielddominance>
                  </samplecharacteristics>
                </video>
                <audio>
                  <in>0</in>
                  <out>22166.1117</out>
                  <channelcount>2</channelcount>
                  <duration>22166.1117</duration>
                </audio>
              </media>
            </file>
            <link>
              <mediatype>video</mediatype>
              <trackindex>1</trackindex>
              <clipindex>203</clipindex>
            </link>
            <link>
              <mediatype>audio</mediatype>
              <trackindex>1</trackindex>
              <clipindex>203</clipindex>
              <groupindex>203</groupindex>
            </link>
            <link>
              <mediatype>audio</mediatype>
              <trackindex>2</trackindex>
              <clipindex>203</clipindex>
              <groupindex>203</groupindex>
            </link>
          </clipitem>
          <clipitem>
            <name>街ブラ恵比寿02修正文字起こし.mp4</name>
            <enabled>true</enabled>
            <rate>
              <timebase>30</timebase>
              <ntsc>true</ntsc>
            </rate>
            <in>21931.1469</in>
            <out>22040.2377</out>
            <start>21931.146899999996</start>
            <end>22040.237699999998</end>
            <file id="街ブラ恵比寿02修正文字起こし.mp4">
              <name>街ブラ恵比寿02修正文字起こし.mp4</name>
              <pathurl>/Volumes/SSD naoki2/街ブラ恵比寿02修正文字起こし.mp4</pathurl>
              <media>
                <video>
                  <samplecharacteristics>
                    <width>720</width>
                    <height>480</height>
                    <anamorphic>false</anamorphic>
                    <pixelaspectratio>square</pixelaspectratio>
                    <fielddominance>none</fielddominance>
                  </samplecharacteristics>
                </video>
                <audio>
                  <in>0</in>
                  <out>22166.1117</out>
                  <channelcount>2</channelcount>
                  <duration>22166.1117</duration>
                </audio>
              </media>
            </file>
            <link>
              <mediatype>video</mediatype>
              <trackindex>1</trackindex>
              <clipindex>204</clipindex>
            </link>
            <link>
              <mediatype>audio</mediatype>
              <trackindex>1</trackindex>
              <clipindex>204</clipindex>
              <groupindex>204</groupindex>
            </link>
            <link>
              <mediatype>audio</mediatype>
              <trackindex>2</trackindex>
              <clipindex>204</clipindex>
              <groupindex>204</groupindex>
            </link>
          </clipitem>
          <clipitem>
            <name>街ブラ恵比寿02修正文字起こし.mp4</name>
            <enabled>true</enabled>
            <rate>
              <timebase>30</timebase>
              <ntsc>true</ntsc>
            </rate>
            <in>22040.237699999998</in>
            <out>22129.5483</out>
            <start>22040.237699999998</start>
            <end>22129.5483</end>
            <file id="街ブラ恵比寿02修正文字起こし.mp4">
              <name>街ブラ恵比寿02修正文字起こし.mp4</name>
              <pathurl>/Volumes/SSD naoki2/街ブラ恵比寿02修正文字起こし.mp4</pathurl>
              <media>
                <video>
                  <samplecharacteristics>
                    <width>720</width>
                    <height>480</height>
                    <anamorphic>false</anamorphic>
                    <pixelaspectratio>square</pixelaspectratio>
                    <fielddominance>none</fielddominance>
                  </samplecharacteristics>
                </video>
                <audio>
                  <in>0</in>
                  <out>22166.1117</out>
                  <channelcount>2</channelcount>
                  <duration>22166.1117</duration>
                </audio>
              </media>
            </file>
            <link>
              <mediatype>video</mediatype>
              <trackindex>1</trackindex>
              <clipindex>205</clipindex>
            </link>
            <link>
              <mediatype>audio</mediatype>
              <trackindex>1</trackindex>
              <clipindex>205</clipindex>
              <groupindex>205</groupindex>
            </link>
            <link>
              <mediatype>audio</mediatype>
              <trackindex>2</trackindex>
              <clipindex>205</clipindex>
              <groupindex>205</groupindex>
            </link>
          </clipitem>
          <clipitem>
            <name>街ブラ恵比寿02修正文字起こし.mp4</name>
            <enabled>true</enabled>
            <rate>
              <timebase>30</timebase>
              <ntsc>true</ntsc>
            </rate>
            <in>22129.5483</in>
            <out>22166.1117</out>
            <start>22129.5483</start>
            <end>22166.1117</end>
            <file id="街ブラ恵比寿02修正文字起こし.mp4">
              <name>街ブラ恵比寿02修正文字起こし.mp4</name>
              <pathurl>/Volumes/SSD naoki2/街ブラ恵比寿02修正文字起こし.mp4</pathurl>
              <media>
                <video>
                  <samplecharacteristics>
                    <width>720</width>
                    <height>480</height>
                    <anamorphic>false</anamorphic>
                    <pixelaspectratio>square</pixelaspectratio>
                    <fielddominance>none</fielddominance>
                  </samplecharacteristics>
                </video>
                <audio>
                  <in>0</in>
                  <out>22166.1117</out>
                  <channelcount>2</channelcount>
                  <duration>22166.1117</duration>
                </audio>
              </media>
            </file>
            <link>
              <mediatype>video</mediatype>
              <trackindex>1</trackindex>
              <clipindex>206</clipindex>
            </link>
            <link>
              <mediatype>audio</mediatype>
              <trackindex>1</trackindex>
              <clipindex>206</clipindex>
              <groupindex>206</groupindex>
            </link>
            <link>
              <mediatype>audio</mediatype>
              <trackindex>2</trackindex>
              <clipindex>206</clipindex>
              <groupindex>206</groupindex>
            </link>
          </clipitem>
        </track>
        <track>
          <generatoritem id="Outline Text1">
            <name>夏のさお日様が出ててさ映えそうだし</name>
            <duration>22166.1117</duration>
            <rate>
              <timebase>30</timebase>
              <ntsc>true</ntsc>
            </rate>
            <start>0</start>
            <end>150.7491</end>
            <in>0</in>
            <out>150.7491</out>
            <enabled>true</enabled>
            <anamorphic>false</anamorphic>
            <alphatype>black</alphatype>
            <masterclipid>Outline Text1</masterclipid>
            <effect>
              <name>Outline Text</name>
              <effectid>Outline Text</effectid>
              <effectcategory>Text</effectcategory>
              <effecttype>generator</effecttype>
              <mediatype>video</mediatype>
              <parameter>
                <parameterid>part1</parameterid>
                <name>Text Settings</name>
                <value/>
              </parameter>
              <parameter>
                <parameterid>str</parameterid>
                <name>Text</name>
                <value>夏のさお日様が出ててさ映えそうだし</value>
              </parameter>
              <parameter>
                <parameterid>font</parameterid>
                <name>Font</name>
                <value>HiraginoSans-W6</value>
              </parameter>
              <parameter>
                <parameterid>style</parameterid>
                <name>Style</name>
                <valuemin>1</valuemin>
                <valuemax>1</valuemax>
                <valuelist>
                  <valueentry>
                    <name>Regular</name>
                    <value>1</value>
                  </valueentry>
                </valuelist>
                <value>1</value>
              </parameter>
              <parameter>
                <parameterid>align</parameterid>
                <name>Alignment</name>
                <valuemin>1</valuemin>
                <valuemax>3</valuemax>
                <valuelist>
                  <valueentry>
                    <name>Left</name>
                    <value>1</value>
                  </valueentry>
                  <valueentry>
                    <name>Center</name>
                    <value>2</value>
                  </valueentry>
                  <valueentry>
                    <name>Right</name>
                    <value>3</value>
                  </valueentry>
                </valuelist>
                <value>2</value>
              </parameter>
              <parameter>
                <parameterid>size</parameterid>
                <name>Size</name>
                <valuemin>0</valuemin>
                <valuemax>200</valuemax>
                <value>24</value>
              </parameter>
              <parameter>
                <parameterid>track</parameterid>
                <name>Tracking</name>
                <valuemin>0</valuemin>
                <valuemax>100</valuemax>
                <value>1</value>
              </parameter>
              <parameter>
                <parameterid>lead</parameterid>
                <name>Leading</name>
                <valuemin>-100</valuemin>
                <valuemax>100</valuemax>
                <value>0</value>
              </parameter>
              <parameter>
                <parameterid>aspect</parameterid>
                <name>Aspect</name>
                <valuemin>0</valuemin>
                <valuemax>4</valuemax>
                <value>1</value>
              </parameter>
              <parameter>
                <parameterid>linewidth</parameterid>
                <name>Line Width</name>
                <valuemin>0</valuemin>
                <valuemax>200</valuemax>
                <value>2</value>
              </parameter>
              <parameter>
                <parameterid>linesoft</parameterid>
                <name>Line Softness</name>
                <valuemin>0</valuemin>
                <valuemax>100</valuemax>
                <value>5</value>
              </parameter>
              <parameter>
                <parameterid>textopacity</parameterid>
                <name>Text Opacity</name>
                <valuemin>0</valuemin>
                <valuemax>100</valuemax>
                <value>100</value>
              </parameter>
              <parameter>
                <parameterid>center</parameterid>
                <name>Center</name>
                <value>
                  <horiz>0</horiz>
                  <vert>0.4703703703703703</vert>
                </value>
              </parameter>
              <parameter>
                <parameterid>textcolor</parameterid>
                <name>Text Color</name>
                <value>
                  <alpha>255</alpha>
                  <red>255</red>
                  <green>255</green>
                  <blue>255</blue>
                </value>
              </parameter>
              <parameter>
                <parameterid>supertext</parameterid>
                <name>Text Graphic</name>
              </parameter>
              <parameter>
                <parameterid>linecolor</parameterid>
                <name>Line Color</name>
                <value>
                  <alpha>255</alpha>
                  <red>0</red>
                  <green>0</green>
                  <blue>0</blue>
                </value>
              </parameter>
              <parameter>
                <parameterid>superline</parameterid>
                <name>Line Graphic</name>
              </parameter>
              <parameter>
                <parameterid>part2</parameterid>
                <name>Background Settings</name>
              </parameter>
              <parameter>
                <parameterid>xscale</parameterid>
                <name>Horizontal Size</name>
                <valuemin>0</valuemin>
                <valuemax>200</valuemax>
                <value>0</value>
              </parameter>
              <parameter>
                <parameterid>yscale</parameterid>
                <name>Vertical Size</name>
                <valuemin>0</valuemin>
                <valuemax>200</valuemax>
                <value>0</value>
              </parameter>
              <parameter>
                <parameterid>xoffset</parameterid>
                <name>Horizontal Offset</name>
                <valuemin>-100</valuemin>
                <valuemax>100</valuemax>
                <value>0</value>
              </parameter>
              <parameter>
                <parameterid>yoffset</parameterid>
                <name>Vertical Offset</name>
                <valuemin>-100</valuemin>
                <valuemax>100</valuemax>
                <value>0</value>
              </parameter>
              <parameter>
                <parameterid>backsoft</parameterid>
                <name>Back Soft</name>
                <valuemin>0</valuemin>
                <valuemax>100</valuemax>
                <value>0</value>
              </parameter>
              <parameter>
                <parameterid>backopacity</parameterid>
                <name>Back Opacity</name>
                <valuemin>0</valuemin>
                <valuemax>100</valuemax>
                <value>50</value>
              </parameter>
              <parameter>
                <parameterid>backcolor</parameterid>
                <name>Back Color</name>
                <value>
                  <alpha>255</alpha>
                  <red>255</red>
                  <green>255</green>
                  <blue>255</blue>
                </value>
              </parameter>
              <parameter>
                <parameterid>superback</parameterid>
                <name>Back Graphic</name>
              </parameter>
              <parameter>
                <parameterid>crop</parameterid>
                <name>Crop</name>
                <value>false</value>
              </parameter>
              <parameter>
                <parameterid>autokern</parameterid>
                <name>Auto Kerning</name>
                <value>true</value>
              </parameter>
            </effect>
            <sourcetrack>
              <mediatype>video</mediatype>
            </sourcetrack>
          </generatoritem>
          <generatoritem id="Outline Text1">
            <name>ここで5人で愛さまと写真撮ったりさ絶対可愛いよね</name>
            <duration>22166.1117</duration>
            <rate>
              <timebase>30</timebase>
              <ntsc>true</ntsc>
            </rate>
            <start>150.7491</start>
            <end>287.712</end>
            <in>150.7491</in>
            <out>287.712</out>
            <enabled>true</enabled>
            <anamorphic>false</anamorphic>
            <alphatype>black</alphatype>
            <masterclipid>Outline Text1</masterclipid>
            <effect>
              <name>Outline Text</name>
              <effectid>Outline Text</effectid>
              <effectcategory>Text</effectcategory>
              <effecttype>generator</effecttype>
              <mediatype>video</mediatype>
              <parameter>
                <parameterid>part1</parameterid>
                <name>Text Settings</name>
                <value/>
              </parameter>
              <parameter>
                <parameterid>str</parameterid>
                <name>Text</name>
                <value>ここで5人で愛さまと写真撮ったりさ絶対可愛いよね</value>
              </parameter>
              <parameter>
                <parameterid>font</parameterid>
                <name>Font</name>
                <value>HiraginoSans-W6</value>
              </parameter>
              <parameter>
                <parameterid>style</parameterid>
                <name>Style</name>
                <valuemin>1</valuemin>
                <valuemax>1</valuemax>
                <valuelist>
                  <valueentry>
                    <name>Regular</name>
                    <value>1</value>
                  </valueentry>
                </valuelist>
                <value>1</value>
              </parameter>
              <parameter>
                <parameterid>align</parameterid>
                <name>Alignment</name>
                <valuemin>1</valuemin>
                <valuemax>3</valuemax>
                <valuelist>
                  <valueentry>
                    <name>Left</name>
                    <value>1</value>
                  </valueentry>
                  <valueentry>
                    <name>Center</name>
                    <value>2</value>
                  </valueentry>
                  <valueentry>
                    <name>Right</name>
                    <value>3</value>
                  </valueentry>
                </valuelist>
                <value>2</value>
              </parameter>
              <parameter>
                <parameterid>size</parameterid>
                <name>Size</name>
                <valuemin>0</valuemin>
                <valuemax>200</valuemax>
                <value>24</value>
              </parameter>
              <parameter>
                <parameterid>track</parameterid>
                <name>Tracking</name>
                <valuemin>0</valuemin>
                <valuemax>100</valuemax>
                <value>1</value>
              </parameter>
              <parameter>
                <parameterid>lead</parameterid>
                <name>Leading</name>
                <valuemin>-100</valuemin>
                <valuemax>100</valuemax>
                <value>0</value>
              </parameter>
              <parameter>
                <parameterid>aspect</parameterid>
                <name>Aspect</name>
                <valuemin>0</valuemin>
                <valuemax>4</valuemax>
                <value>1</value>
              </parameter>
              <parameter>
                <parameterid>linewidth</parameterid>
                <name>Line Width</name>
                <valuemin>0</valuemin>
                <valuemax>200</valuemax>
                <value>2</value>
              </parameter>
              <parameter>
                <parameterid>linesoft</parameterid>
                <name>Line Softness</name>
                <valuemin>0</valuemin>
                <valuemax>100</valuemax>
                <value>5</value>
              </parameter>
              <parameter>
                <parameterid>textopacity</parameterid>
                <name>Text Opacity</name>
                <valuemin>0</valuemin>
                <valuemax>100</valuemax>
                <value>100</value>
              </parameter>
              <parameter>
                <parameterid>center</parameterid>
                <name>Center</name>
                <value>
                  <horiz>0</horiz>
                  <vert>0.4703703703703703</vert>
                </value>
              </parameter>
              <parameter>
                <parameterid>textcolor</parameterid>
                <name>Text Color</name>
                <value>
                  <alpha>255</alpha>
                  <red>255</red>
                  <green>255</green>
                  <blue>255</blue>
                </value>
              </parameter>
              <parameter>
                <parameterid>supertext</parameterid>
                <name>Text Graphic</name>
              </parameter>
              <parameter>
                <parameterid>linecolor</parameterid>
                <name>Line Color</name>
                <value>
                  <alpha>255</alpha>
                  <red>0</red>
                  <green>0</green>
                  <blue>0</blue>
                </value>
              </parameter>
              <parameter>
                <parameterid>superline</parameterid>
                <name>Line Graphic</name>
              </parameter>
              <parameter>
                <parameterid>part2</parameterid>
                <name>Background Settings</name>
              </parameter>
              <parameter>
                <parameterid>xscale</parameterid>
                <name>Horizontal Size</name>
                <valuemin>0</valuemin>
                <valuemax>200</valuemax>
                <value>0</value>
              </parameter>
              <parameter>
                <parameterid>yscale</parameterid>
                <name>Vertical Size</name>
                <valuemin>0</valuemin>
                <valuemax>200</valuemax>
                <value>0</value>
              </parameter>
              <parameter>
                <parameterid>xoffset</parameterid>
                <name>Horizontal Offset</name>
                <valuemin>-100</valuemin>
                <valuemax>100</valuemax>
                <value>0</value>
              </parameter>
              <parameter>
                <parameterid>yoffset</parameterid>
                <name>Vertical Offset</name>
                <valuemin>-100</valuemin>
                <valuemax>100</valuemax>
                <value>0</value>
              </parameter>
              <parameter>
                <parameterid>backsoft</parameterid>
                <name>Back Soft</name>
                <valuemin>0</valuemin>
                <valuemax>100</valuemax>
                <value>0</value>
              </parameter>
              <parameter>
                <parameterid>backopacity</parameterid>
                <name>Back Opacity</name>
                <valuemin>0</valuemin>
                <valuemax>100</valuemax>
                <value>50</value>
              </parameter>
              <parameter>
                <parameterid>backcolor</parameterid>
                <name>Back Color</name>
                <value>
                  <alpha>255</alpha>
                  <red>255</red>
                  <green>255</green>
                  <blue>255</blue>
                </value>
              </parameter>
              <parameter>
                <parameterid>superback</parameterid>
                <name>Back Graphic</name>
              </parameter>
              <parameter>
                <parameterid>crop</parameterid>
                <name>Crop</name>
                <value>false</value>
              </parameter>
              <parameter>
                <parameterid>autokern</parameterid>
                <name>Auto Kerning</name>
                <value>true</value>
              </parameter>
            </effect>
            <sourcetrack>
              <mediatype>video</mediatype>
            </sourcetrack>
          </generatoritem>
          <generatoritem id="Outline Text1">
            <name>駅からもだって歩く歩道があるんで</name>
            <duration>22166.1117</duration>
            <rate>
              <timebase>30</timebase>
              <ntsc>true</ntsc>
            </rate>
            <start>287.712</start>
            <end>362.9366999999999</end>
            <in>287.712</in>
            <out>362.9366999999999</out>
            <enabled>true</enabled>
            <anamorphic>false</anamorphic>
            <alphatype>black</alphatype>
            <masterclipid>Outline Text1</masterclipid>
            <effect>
              <name>Outline Text</name>
              <effectid>Outline Text</effectid>
              <effectcategory>Text</effectcategory>
              <effecttype>generator</effecttype>
              <mediatype>video</mediatype>
              <parameter>
                <parameterid>part1</parameterid>
                <name>Text Settings</name>
                <value/>
              </parameter>
              <parameter>
                <parameterid>str</parameterid>
                <name>Text</name>
                <value>駅からもだって歩く歩道があるんで</value>
              </parameter>
              <parameter>
                <parameterid>font</parameterid>
                <name>Font</name>
                <value>HiraginoSans-W6</value>
              </parameter>
              <parameter>
                <parameterid>style</parameterid>
                <name>Style</name>
                <valuemin>1</valuemin>
                <valuemax>1</valuemax>
                <valuelist>
                  <valueentry>
                    <name>Regular</name>
                    <value>1</value>
                  </valueentry>
                </valuelist>
                <value>1</value>
              </parameter>
              <parameter>
                <parameterid>align</parameterid>
                <name>Alignment</name>
                <valuemin>1</valuemin>
                <valuemax>3</valuemax>
                <valuelist>
                  <valueentry>
                    <name>Left</name>
                    <value>1</value>
                  </valueentry>
                  <valueentry>
                    <name>Center</name>
                    <value>2</value>
                  </valueentry>
                  <valueentry>
                    <name>Right</name>
                    <value>3</value>
                  </valueentry>
                </valuelist>
                <value>2</value>
              </parameter>
              <parameter>
                <parameterid>size</parameterid>
                <name>Size</name>
                <valuemin>0</valuemin>
                <valuemax>200</valuemax>
                <value>24</value>
              </parameter>
              <parameter>
                <parameterid>track</parameterid>
                <name>Tracking</name>
                <valuemin>0</valuemin>
                <valuemax>100</valuemax>
                <value>1</value>
              </parameter>
              <parameter>
                <parameterid>lead</parameterid>
                <name>Leading</name>
                <valuemin>-100</valuemin>
                <valuemax>100</valuemax>
                <value>0</value>
              </parameter>
              <parameter>
                <parameterid>aspect</parameterid>
                <name>Aspect</name>
                <valuemin>0</valuemin>
                <valuemax>4</valuemax>
                <value>1</value>
              </parameter>
              <parameter>
                <parameterid>linewidth</parameterid>
                <name>Line Width</name>
                <valuemin>0</valuemin>
                <valuemax>200</valuemax>
                <value>2</value>
              </parameter>
              <parameter>
                <parameterid>linesoft</parameterid>
                <name>Line Softness</name>
                <valuemin>0</valuemin>
                <valuemax>100</valuemax>
                <value>5</value>
              </parameter>
              <parameter>
                <parameterid>textopacity</parameterid>
                <name>Text Opacity</name>
                <valuemin>0</valuemin>
                <valuemax>100</valuemax>
                <value>100</value>
              </parameter>
              <parameter>
                <parameterid>center</parameterid>
                <name>Center</name>
                <value>
                  <horiz>0</horiz>
                  <vert>0.4703703703703703</vert>
                </value>
              </parameter>
              <parameter>
                <parameterid>textcolor</parameterid>
                <name>Text Color</name>
                <value>
                  <alpha>255</alpha>
                  <red>255</red>
                  <green>255</green>
                  <blue>255</blue>
                </value>
              </parameter>
              <parameter>
                <parameterid>supertext</parameterid>
                <name>Text Graphic</name>
              </parameter>
              <parameter>
                <parameterid>linecolor</parameterid>
                <name>Line Color</name>
                <value>
                  <alpha>255</alpha>
                  <red>0</red>
                  <green>0</green>
                  <blue>0</blue>
                </value>
              </parameter>
              <parameter>
                <parameterid>superline</parameterid>
                <name>Line Graphic</name>
              </parameter>
              <parameter>
                <parameterid>part2</parameterid>
                <name>Background Settings</name>
              </parameter>
              <parameter>
                <parameterid>xscale</parameterid>
                <name>Horizontal Size</name>
                <valuemin>0</valuemin>
                <valuemax>200</valuemax>
                <value>0</value>
              </parameter>
              <parameter>
                <parameterid>yscale</parameterid>
                <name>Vertical Size</name>
                <valuemin>0</valuemin>
                <valuemax>200</valuemax>
                <value>0</value>
              </parameter>
              <parameter>
                <parameterid>xoffset</parameterid>
                <name>Horizontal Offset</name>
                <valuemin>-100</valuemin>
                <valuemax>100</valuemax>
                <value>0</value>
              </parameter>
              <parameter>
                <parameterid>yoffset</parameterid>
                <name>Vertical Offset</name>
                <valuemin>-100</valuemin>
                <valuemax>100</valuemax>
                <value>0</value>
              </parameter>
              <parameter>
                <parameterid>backsoft</parameterid>
                <name>Back Soft</name>
                <valuemin>0</valuemin>
                <valuemax>100</valuemax>
                <value>0</value>
              </parameter>
              <parameter>
                <parameterid>backopacity</parameterid>
                <name>Back Opacity</name>
                <valuemin>0</valuemin>
                <valuemax>100</valuemax>
                <value>50</value>
              </parameter>
              <parameter>
                <parameterid>backcolor</parameterid>
                <name>Back Color</name>
                <value>
                  <alpha>255</alpha>
                  <red>255</red>
                  <green>255</green>
                  <blue>255</blue>
                </value>
              </parameter>
              <parameter>
                <parameterid>superback</parameterid>
                <name>Back Graphic</name>
              </parameter>
              <parameter>
                <parameterid>crop</parameterid>
                <name>Crop</name>
                <value>false</value>
              </parameter>
              <parameter>
                <parameterid>autokern</parameterid>
                <name>Auto Kerning</name>
                <value>true</value>
              </parameter>
            </effect>
            <sourcetrack>
              <mediatype>video</mediatype>
            </sourcetrack>
          </generatoritem>
          <generatoritem id="Outline Text1">
            <name>なんといってもあれ早いんですよ</name>
            <duration>22166.1117</duration>
            <rate>
              <timebase>30</timebase>
              <ntsc>true</ntsc>
            </rate>
            <start>362.9366999999999</start>
            <end>424.07549999999986</end>
            <in>362.9366999999999</in>
            <out>424.07549999999986</out>
            <enabled>true</enabled>
            <anamorphic>false</anamorphic>
            <alphatype>black</alphatype>
            <masterclipid>Outline Text1</masterclipid>
            <effect>
              <name>Outline Text</name>
              <effectid>Outline Text</effectid>
              <effectcategory>Text</effectcategory>
              <effecttype>generator</effecttype>
              <mediatype>video</mediatype>
              <parameter>
                <parameterid>part1</parameterid>
                <name>Text Settings</name>
                <value/>
              </parameter>
              <parameter>
                <parameterid>str</parameterid>
                <name>Text</name>
                <value>なんといってもあれ早いんですよ</value>
              </parameter>
              <parameter>
                <parameterid>font</parameterid>
                <name>Font</name>
                <value>HiraginoSans-W6</value>
              </parameter>
              <parameter>
                <parameterid>style</parameterid>
                <name>Style</name>
                <valuemin>1</valuemin>
                <valuemax>1</valuemax>
                <valuelist>
                  <valueentry>
                    <name>Regular</name>
                    <value>1</value>
                  </valueentry>
                </valuelist>
                <value>1</value>
              </parameter>
              <parameter>
                <parameterid>align</parameterid>
                <name>Alignment</name>
                <valuemin>1</valuemin>
                <valuemax>3</valuemax>
                <valuelist>
                  <valueentry>
                    <name>Left</name>
                    <value>1</value>
                  </valueentry>
                  <valueentry>
                    <name>Center</name>
                    <value>2</value>
                  </valueentry>
                  <valueentry>
                    <name>Right</name>
                    <value>3</value>
                  </valueentry>
                </valuelist>
                <value>2</value>
              </parameter>
              <parameter>
                <parameterid>size</parameterid>
                <name>Size</name>
                <valuemin>0</valuemin>
                <valuemax>200</valuemax>
                <value>24</value>
              </parameter>
              <parameter>
                <parameterid>track</parameterid>
                <name>Tracking</name>
                <valuemin>0</valuemin>
                <valuemax>100</valuemax>
                <value>1</value>
              </parameter>
              <parameter>
                <parameterid>lead</parameterid>
                <name>Leading</name>
                <valuemin>-100</valuemin>
                <valuemax>100</valuemax>
                <value>0</value>
              </parameter>
              <parameter>
                <parameterid>aspect</parameterid>
                <name>Aspect</name>
                <valuemin>0</valuemin>
                <valuemax>4</valuemax>
                <value>1</value>
              </parameter>
              <parameter>
                <parameterid>linewidth</parameterid>
                <name>Line Width</name>
                <valuemin>0</valuemin>
                <valuemax>200</valuemax>
                <value>2</value>
              </parameter>
              <parameter>
                <parameterid>linesoft</parameterid>
                <name>Line Softness</name>
                <valuemin>0</valuemin>
                <valuemax>100</valuemax>
                <value>5</value>
              </parameter>
              <parameter>
                <parameterid>textopacity</parameterid>
                <name>Text Opacity</name>
                <valuemin>0</valuemin>
                <valuemax>100</valuemax>
                <value>100</value>
              </parameter>
              <parameter>
                <parameterid>center</parameterid>
                <name>Center</name>
                <value>
                  <horiz>0</horiz>
                  <vert>0.4703703703703703</vert>
                </value>
              </parameter>
              <parameter>
                <parameterid>textcolor</parameterid>
                <name>Text Color</name>
                <value>
                  <alpha>255</alpha>
                  <red>255</red>
                  <green>255</green>
                  <blue>255</blue>
                </value>
              </parameter>
              <parameter>
                <parameterid>supertext</parameterid>
                <name>Text Graphic</name>
              </parameter>
              <parameter>
                <parameterid>linecolor</parameterid>
                <name>Line Color</name>
                <value>
                  <alpha>255</alpha>
                  <red>0</red>
                  <green>0</green>
                  <blue>0</blue>
                </value>
              </parameter>
              <parameter>
                <parameterid>superline</parameterid>
                <name>Line Graphic</name>
              </parameter>
              <parameter>
                <parameterid>part2</parameterid>
                <name>Background Settings</name>
              </parameter>
              <parameter>
                <parameterid>xscale</parameterid>
                <name>Horizontal Size</name>
                <valuemin>0</valuemin>
                <valuemax>200</valuemax>
                <value>0</value>
              </parameter>
              <parameter>
                <parameterid>yscale</parameterid>
                <name>Vertical Size</name>
                <valuemin>0</valuemin>
                <valuemax>200</valuemax>
                <value>0</value>
              </parameter>
              <parameter>
                <parameterid>xoffset</parameterid>
                <name>Horizontal Offset</name>
                <valuemin>-100</valuemin>
                <valuemax>100</valuemax>
                <value>0</value>
              </parameter>
              <parameter>
                <parameterid>yoffset</parameterid>
                <name>Vertical Offset</name>
                <valuemin>-100</valuemin>
                <valuemax>100</valuemax>
                <value>0</value>
              </parameter>
              <parameter>
                <parameterid>backsoft</parameterid>
                <name>Back Soft</name>
                <valuemin>0</valuemin>
                <valuemax>100</valuemax>
                <value>0</value>
              </parameter>
              <parameter>
                <parameterid>backopacity</parameterid>
                <name>Back Opacity</name>
                <valuemin>0</valuemin>
                <valuemax>100</valuemax>
                <value>50</value>
              </parameter>
              <parameter>
                <parameterid>backcolor</parameterid>
                <name>Back Color</name>
                <value>
                  <alpha>255</alpha>
                  <red>255</red>
                  <green>255</green>
                  <blue>255</blue>
                </value>
              </parameter>
              <parameter>
                <parameterid>superback</parameterid>
                <name>Back Graphic</name>
              </parameter>
              <parameter>
                <parameterid>crop</parameterid>
                <name>Crop</name>
                <value>false</value>
              </parameter>
              <parameter>
                <parameterid>autokern</parameterid>
                <name>Auto Kerning</name>
                <value>true</value>
              </parameter>
            </effect>
            <sourcetrack>
              <mediatype>video</mediatype>
            </sourcetrack>
          </generatoritem>
          <generatoritem id="Outline Text1">
            <name>すぐ着くからそりゃそうですよごちそうさまでした</name>
            <duration>22166.1117</duration>
            <rate>
              <timebase>30</timebase>
              <ntsc>true</ntsc>
            </rate>
            <start>424.07549999999986</start>
            <end>741.4577999999998</end>
            <in>424.07549999999986</in>
            <out>741.4577999999998</out>
            <enabled>true</enabled>
            <anamorphic>false</anamorphic>
            <alphatype>black</alphatype>
            <masterclipid>Outline Text1</masterclipid>
            <effect>
              <name>Outline Text</name>
              <effectid>Outline Text</effectid>
              <effectcategory>Text</effectcategory>
              <effecttype>generator</effecttype>
              <mediatype>video</mediatype>
              <parameter>
                <parameterid>part1</parameterid>
                <name>Text Settings</name>
                <value/>
              </parameter>
              <parameter>
                <parameterid>str</parameterid>
                <name>Text</name>
                <value>すぐ着くからそりゃそうですよごちそうさまでした</value>
              </parameter>
              <parameter>
                <parameterid>font</parameterid>
                <name>Font</name>
                <value>HiraginoSans-W6</value>
              </parameter>
              <parameter>
                <parameterid>style</parameterid>
                <name>Style</name>
                <valuemin>1</valuemin>
                <valuemax>1</valuemax>
                <valuelist>
                  <valueentry>
                    <name>Regular</name>
                    <value>1</value>
                  </valueentry>
                </valuelist>
                <value>1</value>
              </parameter>
              <parameter>
                <parameterid>align</parameterid>
                <name>Alignment</name>
                <valuemin>1</valuemin>
                <valuemax>3</valuemax>
                <valuelist>
                  <valueentry>
                    <name>Left</name>
                    <value>1</value>
                  </valueentry>
                  <valueentry>
                    <name>Center</name>
                    <value>2</value>
                  </valueentry>
                  <valueentry>
                    <name>Right</name>
                    <value>3</value>
                  </valueentry>
                </valuelist>
                <value>2</value>
              </parameter>
              <parameter>
                <parameterid>size</parameterid>
                <name>Size</name>
                <valuemin>0</valuemin>
                <valuemax>200</valuemax>
                <value>24</value>
              </parameter>
              <parameter>
                <parameterid>track</parameterid>
                <name>Tracking</name>
                <valuemin>0</valuemin>
                <valuemax>100</valuemax>
                <value>1</value>
              </parameter>
              <parameter>
                <parameterid>lead</parameterid>
                <name>Leading</name>
                <valuemin>-100</valuemin>
                <valuemax>100</valuemax>
                <value>0</value>
              </parameter>
              <parameter>
                <parameterid>aspect</parameterid>
                <name>Aspect</name>
                <valuemin>0</valuemin>
                <valuemax>4</valuemax>
                <value>1</value>
              </parameter>
              <parameter>
                <parameterid>linewidth</parameterid>
                <name>Line Width</name>
                <valuemin>0</valuemin>
                <valuemax>200</valuemax>
                <value>2</value>
              </parameter>
              <parameter>
                <parameterid>linesoft</parameterid>
                <name>Line Softness</name>
                <valuemin>0</valuemin>
                <valuemax>100</valuemax>
                <value>5</value>
              </parameter>
              <parameter>
                <parameterid>textopacity</parameterid>
                <name>Text Opacity</name>
                <valuemin>0</valuemin>
                <valuemax>100</valuemax>
                <value>100</value>
              </parameter>
              <parameter>
                <parameterid>center</parameterid>
                <name>Center</name>
                <value>
                  <horiz>0</horiz>
                  <vert>0.4703703703703703</vert>
                </value>
              </parameter>
              <parameter>
                <parameterid>textcolor</parameterid>
                <name>Text Color</name>
                <value>
                  <alpha>255</alpha>
                  <red>255</red>
                  <green>255</green>
                  <blue>255</blue>
                </value>
              </parameter>
              <parameter>
                <parameterid>supertext</parameterid>
                <name>Text Graphic</name>
              </parameter>
              <parameter>
                <parameterid>linecolor</parameterid>
                <name>Line Color</name>
                <value>
                  <alpha>255</alpha>
                  <red>0</red>
                  <green>0</green>
                  <blue>0</blue>
                </value>
              </parameter>
              <parameter>
                <parameterid>superline</parameterid>
                <name>Line Graphic</name>
              </parameter>
              <parameter>
                <parameterid>part2</parameterid>
                <name>Background Settings</name>
              </parameter>
              <parameter>
                <parameterid>xscale</parameterid>
                <name>Horizontal Size</name>
                <valuemin>0</valuemin>
                <valuemax>200</valuemax>
                <value>0</value>
              </parameter>
              <parameter>
                <parameterid>yscale</parameterid>
                <name>Vertical Size</name>
                <valuemin>0</valuemin>
                <valuemax>200</valuemax>
                <value>0</value>
              </parameter>
              <parameter>
                <parameterid>xoffset</parameterid>
                <name>Horizontal Offset</name>
                <valuemin>-100</valuemin>
                <valuemax>100</valuemax>
                <value>0</value>
              </parameter>
              <parameter>
                <parameterid>yoffset</parameterid>
                <name>Vertical Offset</name>
                <valuemin>-100</valuemin>
                <valuemax>100</valuemax>
                <value>0</value>
              </parameter>
              <parameter>
                <parameterid>backsoft</parameterid>
                <name>Back Soft</name>
                <valuemin>0</valuemin>
                <valuemax>100</valuemax>
                <value>0</value>
              </parameter>
              <parameter>
                <parameterid>backopacity</parameterid>
                <name>Back Opacity</name>
                <valuemin>0</valuemin>
                <valuemax>100</valuemax>
                <value>50</value>
              </parameter>
              <parameter>
                <parameterid>backcolor</parameterid>
                <name>Back Color</name>
                <value>
                  <alpha>255</alpha>
                  <red>255</red>
                  <green>255</green>
                  <blue>255</blue>
                </value>
              </parameter>
              <parameter>
                <parameterid>superback</parameterid>
                <name>Back Graphic</name>
              </parameter>
              <parameter>
                <parameterid>crop</parameterid>
                <name>Crop</name>
                <value>false</value>
              </parameter>
              <parameter>
                <parameterid>autokern</parameterid>
                <name>Auto Kerning</name>
                <value>true</value>
              </parameter>
            </effect>
            <sourcetrack>
              <mediatype>video</mediatype>
            </sourcetrack>
          </generatoritem>
          <generatoritem id="Outline Text1">
            <name>アイス食べちゃいました</name>
            <duration>22166.1117</duration>
            <rate>
              <timebase>30</timebase>
              <ntsc>true</ntsc>
            </rate>
            <start>741.4577999999998</start>
            <end>824.4746999999999</end>
            <in>741.4577999999998</in>
            <out>824.4746999999999</out>
            <enabled>true</enabled>
            <anamorphic>false</anamorphic>
            <alphatype>black</alphatype>
            <masterclipid>Outline Text1</masterclipid>
            <effect>
              <name>Outline Text</name>
              <effectid>Outline Text</effectid>
              <effectcategory>Text</effectcategory>
              <effecttype>generator</effecttype>
              <mediatype>video</mediatype>
              <parameter>
                <parameterid>part1</parameterid>
                <name>Text Settings</name>
                <value/>
              </parameter>
              <parameter>
                <parameterid>str</parameterid>
                <name>Text</name>
                <value>アイス食べちゃいました</value>
              </parameter>
              <parameter>
                <parameterid>font</parameterid>
                <name>Font</name>
                <value>HiraginoSans-W6</value>
              </parameter>
              <parameter>
                <parameterid>style</parameterid>
                <name>Style</name>
                <valuemin>1</valuemin>
                <valuemax>1</valuemax>
                <valuelist>
                  <valueentry>
                    <name>Regular</name>
                    <value>1</value>
                  </valueentry>
                </valuelist>
                <value>1</value>
              </parameter>
              <parameter>
                <parameterid>align</parameterid>
                <name>Alignment</name>
                <valuemin>1</valuemin>
                <valuemax>3</valuemax>
                <valuelist>
                  <valueentry>
                    <name>Left</name>
                    <value>1</value>
                  </valueentry>
                  <valueentry>
                    <name>Center</name>
                    <value>2</value>
                  </valueentry>
                  <valueentry>
                    <name>Right</name>
                    <value>3</value>
                  </valueentry>
                </valuelist>
                <value>2</value>
              </parameter>
              <parameter>
                <parameterid>size</parameterid>
                <name>Size</name>
                <valuemin>0</valuemin>
                <valuemax>200</valuemax>
                <value>24</value>
              </parameter>
              <parameter>
                <parameterid>track</parameterid>
                <name>Tracking</name>
                <valuemin>0</valuemin>
                <valuemax>100</valuemax>
                <value>1</value>
              </parameter>
              <parameter>
                <parameterid>lead</parameterid>
                <name>Leading</name>
                <valuemin>-100</valuemin>
                <valuemax>100</valuemax>
                <value>0</value>
              </parameter>
              <parameter>
                <parameterid>aspect</parameterid>
                <name>Aspect</name>
                <valuemin>0</valuemin>
                <valuemax>4</valuemax>
                <value>1</value>
              </parameter>
              <parameter>
                <parameterid>linewidth</parameterid>
                <name>Line Width</name>
                <valuemin>0</valuemin>
                <valuemax>200</valuemax>
                <value>2</value>
              </parameter>
              <parameter>
                <parameterid>linesoft</parameterid>
                <name>Line Softness</name>
                <valuemin>0</valuemin>
                <valuemax>100</valuemax>
                <value>5</value>
              </parameter>
              <parameter>
                <parameterid>textopacity</parameterid>
                <name>Text Opacity</name>
                <valuemin>0</valuemin>
                <valuemax>100</valuemax>
                <value>100</value>
              </parameter>
              <parameter>
                <parameterid>center</parameterid>
                <name>Center</name>
                <value>
                  <horiz>0</horiz>
                  <vert>0.4703703703703703</vert>
                </value>
              </parameter>
              <parameter>
                <parameterid>textcolor</parameterid>
                <name>Text Color</name>
                <value>
                  <alpha>255</alpha>
                  <red>255</red>
                  <green>255</green>
                  <blue>255</blue>
                </value>
              </parameter>
              <parameter>
                <parameterid>supertext</parameterid>
                <name>Text Graphic</name>
              </parameter>
              <parameter>
                <parameterid>linecolor</parameterid>
                <name>Line Color</name>
                <value>
                  <alpha>255</alpha>
                  <red>0</red>
                  <green>0</green>
                  <blue>0</blue>
                </value>
              </parameter>
              <parameter>
                <parameterid>superline</parameterid>
                <name>Line Graphic</name>
              </parameter>
              <parameter>
                <parameterid>part2</parameterid>
                <name>Background Settings</name>
              </parameter>
              <parameter>
                <parameterid>xscale</parameterid>
                <name>Horizontal Size</name>
                <valuemin>0</valuemin>
                <valuemax>200</valuemax>
                <value>0</value>
              </parameter>
              <parameter>
                <parameterid>yscale</parameterid>
                <name>Vertical Size</name>
                <valuemin>0</valuemin>
                <valuemax>200</valuemax>
                <value>0</value>
              </parameter>
              <parameter>
                <parameterid>xoffset</parameterid>
                <name>Horizontal Offset</name>
                <valuemin>-100</valuemin>
                <valuemax>100</valuemax>
                <value>0</value>
              </parameter>
              <parameter>
                <parameterid>yoffset</parameterid>
                <name>Vertical Offset</name>
                <valuemin>-100</valuemin>
                <valuemax>100</valuemax>
                <value>0</value>
              </parameter>
              <parameter>
                <parameterid>backsoft</parameterid>
                <name>Back Soft</name>
                <valuemin>0</valuemin>
                <valuemax>100</valuemax>
                <value>0</value>
              </parameter>
              <parameter>
                <parameterid>backopacity</parameterid>
                <name>Back Opacity</name>
                <valuemin>0</valuemin>
                <valuemax>100</valuemax>
                <value>50</value>
              </parameter>
              <parameter>
                <parameterid>backcolor</parameterid>
                <name>Back Color</name>
                <value>
                  <alpha>255</alpha>
                  <red>255</red>
                  <green>255</green>
                  <blue>255</blue>
                </value>
              </parameter>
              <parameter>
                <parameterid>superback</parameterid>
                <name>Back Graphic</name>
              </parameter>
              <parameter>
                <parameterid>crop</parameterid>
                <name>Crop</name>
                <value>false</value>
              </parameter>
              <parameter>
                <parameterid>autokern</parameterid>
                <name>Auto Kerning</name>
                <value>true</value>
              </parameter>
            </effect>
            <sourcetrack>
              <mediatype>video</mediatype>
            </sourcetrack>
          </generatoritem>
          <generatoritem id="Outline Text1">
            <name>美味しかったね</name>
            <duration>22166.1117</duration>
            <rate>
              <timebase>30</timebase>
              <ntsc>true</ntsc>
            </rate>
            <start>824.4746999999999</start>
            <end>871.5275999999999</end>
            <in>824.4746999999999</in>
            <out>871.5275999999999</out>
            <enabled>true</enabled>
            <anamorphic>false</anamorphic>
            <alphatype>black</alphatype>
            <masterclipid>Outline Text1</masterclipid>
            <effect>
              <name>Outline Text</name>
              <effectid>Outline Text</effectid>
              <effectcategory>Text</effectcategory>
              <effecttype>generator</effecttype>
              <mediatype>video</mediatype>
              <parameter>
                <parameterid>part1</parameterid>
                <name>Text Settings</name>
                <value/>
              </parameter>
              <parameter>
                <parameterid>str</parameterid>
                <name>Text</name>
                <value>美味しかったね</value>
              </parameter>
              <parameter>
                <parameterid>font</parameterid>
                <name>Font</name>
                <value>HiraginoSans-W6</value>
              </parameter>
              <parameter>
                <parameterid>style</parameterid>
                <name>Style</name>
                <valuemin>1</valuemin>
                <valuemax>1</valuemax>
                <valuelist>
                  <valueentry>
                    <name>Regular</name>
                    <value>1</value>
                  </valueentry>
                </valuelist>
                <value>1</value>
              </parameter>
              <parameter>
                <parameterid>align</parameterid>
                <name>Alignment</name>
                <valuemin>1</valuemin>
                <valuemax>3</valuemax>
                <valuelist>
                  <valueentry>
                    <name>Left</name>
                    <value>1</value>
                  </valueentry>
                  <valueentry>
                    <name>Center</name>
                    <value>2</value>
                  </valueentry>
                  <valueentry>
                    <name>Right</name>
                    <value>3</value>
                  </valueentry>
                </valuelist>
                <value>2</value>
              </parameter>
              <parameter>
                <parameterid>size</parameterid>
                <name>Size</name>
                <valuemin>0</valuemin>
                <valuemax>200</valuemax>
                <value>24</value>
              </parameter>
              <parameter>
                <parameterid>track</parameterid>
                <name>Tracking</name>
                <valuemin>0</valuemin>
                <valuemax>100</valuemax>
                <value>1</value>
              </parameter>
              <parameter>
                <parameterid>lead</parameterid>
                <name>Leading</name>
                <valuemin>-100</valuemin>
                <valuemax>100</valuemax>
                <value>0</value>
              </parameter>
              <parameter>
                <parameterid>aspect</parameterid>
                <name>Aspect</name>
                <valuemin>0</valuemin>
                <valuemax>4</valuemax>
                <value>1</value>
              </parameter>
              <parameter>
                <parameterid>linewidth</parameterid>
                <name>Line Width</name>
                <valuemin>0</valuemin>
                <valuemax>200</valuemax>
                <value>2</value>
              </parameter>
              <parameter>
                <parameterid>linesoft</parameterid>
                <name>Line Softness</name>
                <valuemin>0</valuemin>
                <valuemax>100</valuemax>
                <value>5</value>
              </parameter>
              <parameter>
                <parameterid>textopacity</parameterid>
                <name>Text Opacity</name>
                <valuemin>0</valuemin>
                <valuemax>100</valuemax>
                <value>100</value>
              </parameter>
              <parameter>
                <parameterid>center</parameterid>
                <name>Center</name>
                <value>
                  <horiz>0</horiz>
                  <vert>0.4703703703703703</vert>
                </value>
              </parameter>
              <parameter>
                <parameterid>textcolor</parameterid>
                <name>Text Color</name>
                <value>
                  <alpha>255</alpha>
                  <red>255</red>
                  <green>255</green>
                  <blue>255</blue>
                </value>
              </parameter>
              <parameter>
                <parameterid>supertext</parameterid>
                <name>Text Graphic</name>
              </parameter>
              <parameter>
                <parameterid>linecolor</parameterid>
                <name>Line Color</name>
                <value>
                  <alpha>255</alpha>
                  <red>0</red>
                  <green>0</green>
                  <blue>0</blue>
                </value>
              </parameter>
              <parameter>
                <parameterid>superline</parameterid>
                <name>Line Graphic</name>
              </parameter>
              <parameter>
                <parameterid>part2</parameterid>
                <name>Background Settings</name>
              </parameter>
              <parameter>
                <parameterid>xscale</parameterid>
                <name>Horizontal Size</name>
                <valuemin>0</valuemin>
                <valuemax>200</valuemax>
                <value>0</value>
              </parameter>
              <parameter>
                <parameterid>yscale</parameterid>
                <name>Vertical Size</name>
                <valuemin>0</valuemin>
                <valuemax>200</valuemax>
                <value>0</value>
              </parameter>
              <parameter>
                <parameterid>xoffset</parameterid>
                <name>Horizontal Offset</name>
                <valuemin>-100</valuemin>
                <valuemax>100</valuemax>
                <value>0</value>
              </parameter>
              <parameter>
                <parameterid>yoffset</parameterid>
                <name>Vertical Offset</name>
                <valuemin>-100</valuemin>
                <valuemax>100</valuemax>
                <value>0</value>
              </parameter>
              <parameter>
                <parameterid>backsoft</parameterid>
                <name>Back Soft</name>
                <valuemin>0</valuemin>
                <valuemax>100</valuemax>
                <value>0</value>
              </parameter>
              <parameter>
                <parameterid>backopacity</parameterid>
                <name>Back Opacity</name>
                <valuemin>0</valuemin>
                <valuemax>100</valuemax>
                <value>50</value>
              </parameter>
              <parameter>
                <parameterid>backcolor</parameterid>
                <name>Back Color</name>
                <value>
                  <alpha>255</alpha>
                  <red>255</red>
                  <green>255</green>
                  <blue>255</blue>
                </value>
              </parameter>
              <parameter>
                <parameterid>superback</parameterid>
                <name>Back Graphic</name>
              </parameter>
              <parameter>
                <parameterid>crop</parameterid>
                <name>Crop</name>
                <value>false</value>
              </parameter>
              <parameter>
                <parameterid>autokern</parameterid>
                <name>Auto Kerning</name>
                <value>true</value>
              </parameter>
            </effect>
            <sourcetrack>
              <mediatype>video</mediatype>
            </sourcetrack>
          </generatoritem>
          <generatoritem id="Outline Text1">
            <name>またゆるくお散歩タイムね</name>
            <duration>22166.1117</duration>
            <rate>
              <timebase>30</timebase>
              <ntsc>true</ntsc>
            </rate>
            <start>871.5275999999999</start>
            <end>1139.4594000000002</end>
            <in>871.5275999999999</in>
            <out>1139.4594000000002</out>
            <enabled>true</enabled>
            <anamorphic>false</anamorphic>
            <alphatype>black</alphatype>
            <masterclipid>Outline Text1</masterclipid>
            <effect>
              <name>Outline Text</name>
              <effectid>Outline Text</effectid>
              <effectcategory>Text</effectcategory>
              <effecttype>generator</effecttype>
              <mediatype>video</mediatype>
              <parameter>
                <parameterid>part1</parameterid>
                <name>Text Settings</name>
                <value/>
              </parameter>
              <parameter>
                <parameterid>str</parameterid>
                <name>Text</name>
                <value>またゆるくお散歩タイムね</value>
              </parameter>
              <parameter>
                <parameterid>font</parameterid>
                <name>Font</name>
                <value>HiraginoSans-W6</value>
              </parameter>
              <parameter>
                <parameterid>style</parameterid>
                <name>Style</name>
                <valuemin>1</valuemin>
                <valuemax>1</valuemax>
                <valuelist>
                  <valueentry>
                    <name>Regular</name>
                    <value>1</value>
                  </valueentry>
                </valuelist>
                <value>1</value>
              </parameter>
              <parameter>
                <parameterid>align</parameterid>
                <name>Alignment</name>
                <valuemin>1</valuemin>
                <valuemax>3</valuemax>
                <valuelist>
                  <valueentry>
                    <name>Left</name>
                    <value>1</value>
                  </valueentry>
                  <valueentry>
                    <name>Center</name>
                    <value>2</value>
                  </valueentry>
                  <valueentry>
                    <name>Right</name>
                    <value>3</value>
                  </valueentry>
                </valuelist>
                <value>2</value>
              </parameter>
              <parameter>
                <parameterid>size</parameterid>
                <name>Size</name>
                <valuemin>0</valuemin>
                <valuemax>200</valuemax>
                <value>24</value>
              </parameter>
              <parameter>
                <parameterid>track</parameterid>
                <name>Tracking</name>
                <valuemin>0</valuemin>
                <valuemax>100</valuemax>
                <value>1</value>
              </parameter>
              <parameter>
                <parameterid>lead</parameterid>
                <name>Leading</name>
                <valuemin>-100</valuemin>
                <valuemax>100</valuemax>
                <value>0</value>
              </parameter>
              <parameter>
                <parameterid>aspect</parameterid>
                <name>Aspect</name>
                <valuemin>0</valuemin>
                <valuemax>4</valuemax>
                <value>1</value>
              </parameter>
              <parameter>
                <parameterid>linewidth</parameterid>
                <name>Line Width</name>
                <valuemin>0</valuemin>
                <valuemax>200</valuemax>
                <value>2</value>
              </parameter>
              <parameter>
                <parameterid>linesoft</parameterid>
                <name>Line Softness</name>
                <valuemin>0</valuemin>
                <valuemax>100</valuemax>
                <value>5</value>
              </parameter>
              <parameter>
                <parameterid>textopacity</parameterid>
                <name>Text Opacity</name>
                <valuemin>0</valuemin>
                <valuemax>100</valuemax>
                <value>100</value>
              </parameter>
              <parameter>
                <parameterid>center</parameterid>
                <name>Center</name>
                <value>
                  <horiz>0</horiz>
                  <vert>0.4703703703703703</vert>
                </value>
              </parameter>
              <parameter>
                <parameterid>textcolor</parameterid>
                <name>Text Color</name>
                <value>
                  <alpha>255</alpha>
                  <red>255</red>
                  <green>255</green>
                  <blue>255</blue>
                </value>
              </parameter>
              <parameter>
                <parameterid>supertext</parameterid>
                <name>Text Graphic</name>
              </parameter>
              <parameter>
                <parameterid>linecolor</parameterid>
                <name>Line Color</name>
                <value>
                  <alpha>255</alpha>
                  <red>0</red>
                  <green>0</green>
                  <blue>0</blue>
                </value>
              </parameter>
              <parameter>
                <parameterid>superline</parameterid>
                <name>Line Graphic</name>
              </parameter>
              <parameter>
                <parameterid>part2</parameterid>
                <name>Background Settings</name>
              </parameter>
              <parameter>
                <parameterid>xscale</parameterid>
                <name>Horizontal Size</name>
                <valuemin>0</valuemin>
                <valuemax>200</valuemax>
                <value>0</value>
              </parameter>
              <parameter>
                <parameterid>yscale</parameterid>
                <name>Vertical Size</name>
                <valuemin>0</valuemin>
                <valuemax>200</valuemax>
                <value>0</value>
              </parameter>
              <parameter>
                <parameterid>xoffset</parameterid>
                <name>Horizontal Offset</name>
                <valuemin>-100</valuemin>
                <valuemax>100</valuemax>
                <value>0</value>
              </parameter>
              <parameter>
                <parameterid>yoffset</parameterid>
                <name>Vertical Offset</name>
                <valuemin>-100</valuemin>
                <valuemax>100</valuemax>
                <value>0</value>
              </parameter>
              <parameter>
                <parameterid>backsoft</parameterid>
                <name>Back Soft</name>
                <valuemin>0</valuemin>
                <valuemax>100</valuemax>
                <value>0</value>
              </parameter>
              <parameter>
                <parameterid>backopacity</parameterid>
                <name>Back Opacity</name>
                <valuemin>0</valuemin>
                <valuemax>100</valuemax>
                <value>50</value>
              </parameter>
              <parameter>
                <parameterid>backcolor</parameterid>
                <name>Back Color</name>
                <value>
                  <alpha>255</alpha>
                  <red>255</red>
                  <green>255</green>
                  <blue>255</blue>
                </value>
              </parameter>
              <parameter>
                <parameterid>superback</parameterid>
                <name>Back Graphic</name>
              </parameter>
              <parameter>
                <parameterid>crop</parameterid>
                <name>Crop</name>
                <value>false</value>
              </parameter>
              <parameter>
                <parameterid>autokern</parameterid>
                <name>Auto Kerning</name>
                <value>true</value>
              </parameter>
            </effect>
            <sourcetrack>
              <mediatype>video</mediatype>
            </sourcetrack>
          </generatoritem>
          <generatoritem id="Outline Text1">
            <name>私たち外でライブやると雨降るんですよ</name>
            <duration>22166.1117</duration>
            <rate>
              <timebase>30</timebase>
              <ntsc>true</ntsc>
            </rate>
            <start>1139.4594000000002</start>
            <end>1272.8259</end>
            <in>1139.4594000000002</in>
            <out>1272.8259</out>
            <enabled>true</enabled>
            <anamorphic>false</anamorphic>
            <alphatype>black</alphatype>
            <masterclipid>Outline Text1</masterclipid>
            <effect>
              <name>Outline Text</name>
              <effectid>Outline Text</effectid>
              <effectcategory>Text</effectcategory>
              <effecttype>generator</effecttype>
              <mediatype>video</mediatype>
              <parameter>
                <parameterid>part1</parameterid>
                <name>Text Settings</name>
                <value/>
              </parameter>
              <parameter>
                <parameterid>str</parameterid>
                <name>Text</name>
                <value>私たち外でライブやると雨降るんですよ</value>
              </parameter>
              <parameter>
                <parameterid>font</parameterid>
                <name>Font</name>
                <value>HiraginoSans-W6</value>
              </parameter>
              <parameter>
                <parameterid>style</parameterid>
                <name>Style</name>
                <valuemin>1</valuemin>
                <valuemax>1</valuemax>
                <valuelist>
                  <valueentry>
                    <name>Regular</name>
                    <value>1</value>
                  </valueentry>
                </valuelist>
                <value>1</value>
              </parameter>
              <parameter>
                <parameterid>align</parameterid>
                <name>Alignment</name>
                <valuemin>1</valuemin>
                <valuemax>3</valuemax>
                <valuelist>
                  <valueentry>
                    <name>Left</name>
                    <value>1</value>
                  </valueentry>
                  <valueentry>
                    <name>Center</name>
                    <value>2</value>
                  </valueentry>
                  <valueentry>
                    <name>Right</name>
                    <value>3</value>
                  </valueentry>
                </valuelist>
                <value>2</value>
              </parameter>
              <parameter>
                <parameterid>size</parameterid>
                <name>Size</name>
                <valuemin>0</valuemin>
                <valuemax>200</valuemax>
                <value>24</value>
              </parameter>
              <parameter>
                <parameterid>track</parameterid>
                <name>Tracking</name>
                <valuemin>0</valuemin>
                <valuemax>100</valuemax>
                <value>1</value>
              </parameter>
              <parameter>
                <parameterid>lead</parameterid>
                <name>Leading</name>
                <valuemin>-100</valuemin>
                <valuemax>100</valuemax>
                <value>0</value>
              </parameter>
              <parameter>
                <parameterid>aspect</parameterid>
                <name>Aspect</name>
                <valuemin>0</valuemin>
                <valuemax>4</valuemax>
                <value>1</value>
              </parameter>
              <parameter>
                <parameterid>linewidth</parameterid>
                <name>Line Width</name>
                <valuemin>0</valuemin>
                <valuemax>200</valuemax>
                <value>2</value>
              </parameter>
              <parameter>
                <parameterid>linesoft</parameterid>
                <name>Line Softness</name>
                <valuemin>0</valuemin>
                <valuemax>100</valuemax>
                <value>5</value>
              </parameter>
              <parameter>
                <parameterid>textopacity</parameterid>
                <name>Text Opacity</name>
                <valuemin>0</valuemin>
                <valuemax>100</valuemax>
                <value>100</value>
              </parameter>
              <parameter>
                <parameterid>center</parameterid>
                <name>Center</name>
                <value>
                  <horiz>0</horiz>
                  <vert>0.4703703703703703</vert>
                </value>
              </parameter>
              <parameter>
                <parameterid>textcolor</parameterid>
                <name>Text Color</name>
                <value>
                  <alpha>255</alpha>
                  <red>255</red>
                  <green>255</green>
                  <blue>255</blue>
                </value>
              </parameter>
              <parameter>
                <parameterid>supertext</parameterid>
                <name>Text Graphic</name>
              </parameter>
              <parameter>
                <parameterid>linecolor</parameterid>
                <name>Line Color</name>
                <value>
                  <alpha>255</alpha>
                  <red>0</red>
                  <green>0</green>
                  <blue>0</blue>
                </value>
              </parameter>
              <parameter>
                <parameterid>superline</parameterid>
                <name>Line Graphic</name>
              </parameter>
              <parameter>
                <parameterid>part2</parameterid>
                <name>Background Settings</name>
              </parameter>
              <parameter>
                <parameterid>xscale</parameterid>
                <name>Horizontal Size</name>
                <valuemin>0</valuemin>
                <valuemax>200</valuemax>
                <value>0</value>
              </parameter>
              <parameter>
                <parameterid>yscale</parameterid>
                <name>Vertical Size</name>
                <valuemin>0</valuemin>
                <valuemax>200</valuemax>
                <value>0</value>
              </parameter>
              <parameter>
                <parameterid>xoffset</parameterid>
                <name>Horizontal Offset</name>
                <valuemin>-100</valuemin>
                <valuemax>100</valuemax>
                <value>0</value>
              </parameter>
              <parameter>
                <parameterid>yoffset</parameterid>
                <name>Vertical Offset</name>
                <valuemin>-100</valuemin>
                <valuemax>100</valuemax>
                <value>0</value>
              </parameter>
              <parameter>
                <parameterid>backsoft</parameterid>
                <name>Back Soft</name>
                <valuemin>0</valuemin>
                <valuemax>100</valuemax>
                <value>0</value>
              </parameter>
              <parameter>
                <parameterid>backopacity</parameterid>
                <name>Back Opacity</name>
                <valuemin>0</valuemin>
                <valuemax>100</valuemax>
                <value>50</value>
              </parameter>
              <parameter>
                <parameterid>backcolor</parameterid>
                <name>Back Color</name>
                <value>
                  <alpha>255</alpha>
                  <red>255</red>
                  <green>255</green>
                  <blue>255</blue>
                </value>
              </parameter>
              <parameter>
                <parameterid>superback</parameterid>
                <name>Back Graphic</name>
              </parameter>
              <parameter>
                <parameterid>crop</parameterid>
                <name>Crop</name>
                <value>false</value>
              </parameter>
              <parameter>
                <parameterid>autokern</parameterid>
                <name>Auto Kerning</name>
                <value>true</value>
              </parameter>
            </effect>
            <sourcetrack>
              <mediatype>video</mediatype>
            </sourcetrack>
          </generatoritem>
          <generatoritem id="Outline Text1">
            <name>だからファンの方がテルテル坊主作ってきてくれたりとか</name>
            <duration>22166.1117</duration>
            <rate>
              <timebase>30</timebase>
              <ntsc>true</ntsc>
            </rate>
            <start>1272.8259</start>
            <end>1405.8927000000003</end>
            <in>1272.8259</in>
            <out>1405.8927000000003</out>
            <enabled>true</enabled>
            <anamorphic>false</anamorphic>
            <alphatype>black</alphatype>
            <masterclipid>Outline Text1</masterclipid>
            <effect>
              <name>Outline Text</name>
              <effectid>Outline Text</effectid>
              <effectcategory>Text</effectcategory>
              <effecttype>generator</effecttype>
              <mediatype>video</mediatype>
              <parameter>
                <parameterid>part1</parameterid>
                <name>Text Settings</name>
                <value/>
              </parameter>
              <parameter>
                <parameterid>str</parameterid>
                <name>Text</name>
                <value>だからファンの方がテルテル坊主作ってきてくれたりとか</value>
              </parameter>
              <parameter>
                <parameterid>font</parameterid>
                <name>Font</name>
                <value>HiraginoSans-W6</value>
              </parameter>
              <parameter>
                <parameterid>style</parameterid>
                <name>Style</name>
                <valuemin>1</valuemin>
                <valuemax>1</valuemax>
                <valuelist>
                  <valueentry>
                    <name>Regular</name>
                    <value>1</value>
                  </valueentry>
                </valuelist>
                <value>1</value>
              </parameter>
              <parameter>
                <parameterid>align</parameterid>
                <name>Alignment</name>
                <valuemin>1</valuemin>
                <valuemax>3</valuemax>
                <valuelist>
                  <valueentry>
                    <name>Left</name>
                    <value>1</value>
                  </valueentry>
                  <valueentry>
                    <name>Center</name>
                    <value>2</value>
                  </valueentry>
                  <valueentry>
                    <name>Right</name>
                    <value>3</value>
                  </valueentry>
                </valuelist>
                <value>2</value>
              </parameter>
              <parameter>
                <parameterid>size</parameterid>
                <name>Size</name>
                <valuemin>0</valuemin>
                <valuemax>200</valuemax>
                <value>24</value>
              </parameter>
              <parameter>
                <parameterid>track</parameterid>
                <name>Tracking</name>
                <valuemin>0</valuemin>
                <valuemax>100</valuemax>
                <value>1</value>
              </parameter>
              <parameter>
                <parameterid>lead</parameterid>
                <name>Leading</name>
                <valuemin>-100</valuemin>
                <valuemax>100</valuemax>
                <value>0</value>
              </parameter>
              <parameter>
                <parameterid>aspect</parameterid>
                <name>Aspect</name>
                <valuemin>0</valuemin>
                <valuemax>4</valuemax>
                <value>1</value>
              </parameter>
              <parameter>
                <parameterid>linewidth</parameterid>
                <name>Line Width</name>
                <valuemin>0</valuemin>
                <valuemax>200</valuemax>
                <value>2</value>
              </parameter>
              <parameter>
                <parameterid>linesoft</parameterid>
                <name>Line Softness</name>
                <valuemin>0</valuemin>
                <valuemax>100</valuemax>
                <value>5</value>
              </parameter>
              <parameter>
                <parameterid>textopacity</parameterid>
                <name>Text Opacity</name>
                <valuemin>0</valuemin>
                <valuemax>100</valuemax>
                <value>100</value>
              </parameter>
              <parameter>
                <parameterid>center</parameterid>
                <name>Center</name>
                <value>
                  <horiz>0</horiz>
                  <vert>0.4703703703703703</vert>
                </value>
              </parameter>
              <parameter>
                <parameterid>textcolor</parameterid>
                <name>Text Color</name>
                <value>
                  <alpha>255</alpha>
                  <red>255</red>
                  <green>255</green>
                  <blue>255</blue>
                </value>
              </parameter>
              <parameter>
                <parameterid>supertext</parameterid>
                <name>Text Graphic</name>
              </parameter>
              <parameter>
                <parameterid>linecolor</parameterid>
                <name>Line Color</name>
                <value>
                  <alpha>255</alpha>
                  <red>0</red>
                  <green>0</green>
                  <blue>0</blue>
                </value>
              </parameter>
              <parameter>
                <parameterid>superline</parameterid>
                <name>Line Graphic</name>
              </parameter>
              <parameter>
                <parameterid>part2</parameterid>
                <name>Background Settings</name>
              </parameter>
              <parameter>
                <parameterid>xscale</parameterid>
                <name>Horizontal Size</name>
                <valuemin>0</valuemin>
                <valuemax>200</valuemax>
                <value>0</value>
              </parameter>
              <parameter>
                <parameterid>yscale</parameterid>
                <name>Vertical Size</name>
                <valuemin>0</valuemin>
                <valuemax>200</valuemax>
                <value>0</value>
              </parameter>
              <parameter>
                <parameterid>xoffset</parameterid>
                <name>Horizontal Offset</name>
                <valuemin>-100</valuemin>
                <valuemax>100</valuemax>
                <value>0</value>
              </parameter>
              <parameter>
                <parameterid>yoffset</parameterid>
                <name>Vertical Offset</name>
                <valuemin>-100</valuemin>
                <valuemax>100</valuemax>
                <value>0</value>
              </parameter>
              <parameter>
                <parameterid>backsoft</parameterid>
                <name>Back Soft</name>
                <valuemin>0</valuemin>
                <valuemax>100</valuemax>
                <value>0</value>
              </parameter>
              <parameter>
                <parameterid>backopacity</parameterid>
                <name>Back Opacity</name>
                <valuemin>0</valuemin>
                <valuemax>100</valuemax>
                <value>50</value>
              </parameter>
              <parameter>
                <parameterid>backcolor</parameterid>
                <name>Back Color</name>
                <value>
                  <alpha>255</alpha>
                  <red>255</red>
                  <green>255</green>
                  <blue>255</blue>
                </value>
              </parameter>
              <parameter>
                <parameterid>superback</parameterid>
                <name>Back Graphic</name>
              </parameter>
              <parameter>
                <parameterid>crop</parameterid>
                <name>Crop</name>
                <value>false</value>
              </parameter>
              <parameter>
                <parameterid>autokern</parameterid>
                <name>Auto Kerning</name>
                <value>true</value>
              </parameter>
            </effect>
            <sourcetrack>
              <mediatype>video</mediatype>
            </sourcetrack>
          </generatoritem>
          <generatoritem id="Outline Text1">
            <name>結構あるんですよ</name>
            <duration>22166.1117</duration>
            <rate>
              <timebase>30</timebase>
              <ntsc>true</ntsc>
            </rate>
            <start>1405.8927000000003</start>
            <end>1443.3552000000002</end>
            <in>1405.8927000000003</in>
            <out>1443.3552000000002</out>
            <enabled>true</enabled>
            <anamorphic>false</anamorphic>
            <alphatype>black</alphatype>
            <masterclipid>Outline Text1</masterclipid>
            <effect>
              <name>Outline Text</name>
              <effectid>Outline Text</effectid>
              <effectcategory>Text</effectcategory>
              <effecttype>generator</effecttype>
              <mediatype>video</mediatype>
              <parameter>
                <parameterid>part1</parameterid>
                <name>Text Settings</name>
                <value/>
              </parameter>
              <parameter>
                <parameterid>str</parameterid>
                <name>Text</name>
                <value>結構あるんですよ</value>
              </parameter>
              <parameter>
                <parameterid>font</parameterid>
                <name>Font</name>
                <value>HiraginoSans-W6</value>
              </parameter>
              <parameter>
                <parameterid>style</parameterid>
                <name>Style</name>
                <valuemin>1</valuemin>
                <valuemax>1</valuemax>
                <valuelist>
                  <valueentry>
                    <name>Regular</name>
                    <value>1</value>
                  </valueentry>
                </valuelist>
                <value>1</value>
              </parameter>
              <parameter>
                <parameterid>align</parameterid>
                <name>Alignment</name>
                <valuemin>1</valuemin>
                <valuemax>3</valuemax>
                <valuelist>
                  <valueentry>
                    <name>Left</name>
                    <value>1</value>
                  </valueentry>
                  <valueentry>
                    <name>Center</name>
                    <value>2</value>
                  </valueentry>
                  <valueentry>
                    <name>Right</name>
                    <value>3</value>
                  </valueentry>
                </valuelist>
                <value>2</value>
              </parameter>
              <parameter>
                <parameterid>size</parameterid>
                <name>Size</name>
                <valuemin>0</valuemin>
                <valuemax>200</valuemax>
                <value>24</value>
              </parameter>
              <parameter>
                <parameterid>track</parameterid>
                <name>Tracking</name>
                <valuemin>0</valuemin>
                <valuemax>100</valuemax>
                <value>1</value>
              </parameter>
              <parameter>
                <parameterid>lead</parameterid>
                <name>Leading</name>
                <valuemin>-100</valuemin>
                <valuemax>100</valuemax>
                <value>0</value>
              </parameter>
              <parameter>
                <parameterid>aspect</parameterid>
                <name>Aspect</name>
                <valuemin>0</valuemin>
                <valuemax>4</valuemax>
                <value>1</value>
              </parameter>
              <parameter>
                <parameterid>linewidth</parameterid>
                <name>Line Width</name>
                <valuemin>0</valuemin>
                <valuemax>200</valuemax>
                <value>2</value>
              </parameter>
              <parameter>
                <parameterid>linesoft</parameterid>
                <name>Line Softness</name>
                <valuemin>0</valuemin>
                <valuemax>100</valuemax>
                <value>5</value>
              </parameter>
              <parameter>
                <parameterid>textopacity</parameterid>
                <name>Text Opacity</name>
                <valuemin>0</valuemin>
                <valuemax>100</valuemax>
                <value>100</value>
              </parameter>
              <parameter>
                <parameterid>center</parameterid>
                <name>Center</name>
                <value>
                  <horiz>0</horiz>
                  <vert>0.4703703703703703</vert>
                </value>
              </parameter>
              <parameter>
                <parameterid>textcolor</parameterid>
                <name>Text Color</name>
                <value>
                  <alpha>255</alpha>
                  <red>255</red>
                  <green>255</green>
                  <blue>255</blue>
                </value>
              </parameter>
              <parameter>
                <parameterid>supertext</parameterid>
                <name>Text Graphic</name>
              </parameter>
              <parameter>
                <parameterid>linecolor</parameterid>
                <name>Line Color</name>
                <value>
                  <alpha>255</alpha>
                  <red>0</red>
                  <green>0</green>
                  <blue>0</blue>
                </value>
              </parameter>
              <parameter>
                <parameterid>superline</parameterid>
                <name>Line Graphic</name>
              </parameter>
              <parameter>
                <parameterid>part2</parameterid>
                <name>Background Settings</name>
              </parameter>
              <parameter>
                <parameterid>xscale</parameterid>
                <name>Horizontal Size</name>
                <valuemin>0</valuemin>
                <valuemax>200</valuemax>
                <value>0</value>
              </parameter>
              <parameter>
                <parameterid>yscale</parameterid>
                <name>Vertical Size</name>
                <valuemin>0</valuemin>
                <valuemax>200</valuemax>
                <value>0</value>
              </parameter>
              <parameter>
                <parameterid>xoffset</parameterid>
                <name>Horizontal Offset</name>
                <valuemin>-100</valuemin>
                <valuemax>100</valuemax>
                <value>0</value>
              </parameter>
              <parameter>
                <parameterid>yoffset</parameterid>
                <name>Vertical Offset</name>
                <valuemin>-100</valuemin>
                <valuemax>100</valuemax>
                <value>0</value>
              </parameter>
              <parameter>
                <parameterid>backsoft</parameterid>
                <name>Back Soft</name>
                <valuemin>0</valuemin>
                <valuemax>100</valuemax>
                <value>0</value>
              </parameter>
              <parameter>
                <parameterid>backopacity</parameterid>
                <name>Back Opacity</name>
                <valuemin>0</valuemin>
                <valuemax>100</valuemax>
                <value>50</value>
              </parameter>
              <parameter>
                <parameterid>backcolor</parameterid>
                <name>Back Color</name>
                <value>
                  <alpha>255</alpha>
                  <red>255</red>
                  <green>255</green>
                  <blue>255</blue>
                </value>
              </parameter>
              <parameter>
                <parameterid>superback</parameterid>
                <name>Back Graphic</name>
              </parameter>
              <parameter>
                <parameterid>crop</parameterid>
                <name>Crop</name>
                <value>false</value>
              </parameter>
              <parameter>
                <parameterid>autokern</parameterid>
                <name>Auto Kerning</name>
                <value>true</value>
              </parameter>
            </effect>
            <sourcetrack>
              <mediatype>video</mediatype>
            </sourcetrack>
          </generatoritem>
          <generatoritem id="Outline Text1">
            <name>多分メンバーかスタッフさんに雨女が多分いるんですけど</name>
            <duration>22166.1117</duration>
            <rate>
              <timebase>30</timebase>
              <ntsc>true</ntsc>
            </rate>
            <start>1443.3552000000002</start>
            <end>1624.0743000000004</end>
            <in>1443.3552000000002</in>
            <out>1624.0743000000004</out>
            <enabled>true</enabled>
            <anamorphic>false</anamorphic>
            <alphatype>black</alphatype>
            <masterclipid>Outline Text1</masterclipid>
            <effect>
              <name>Outline Text</name>
              <effectid>Outline Text</effectid>
              <effectcategory>Text</effectcategory>
              <effecttype>generator</effecttype>
              <mediatype>video</mediatype>
              <parameter>
                <parameterid>part1</parameterid>
                <name>Text Settings</name>
                <value/>
              </parameter>
              <parameter>
                <parameterid>str</parameterid>
                <name>Text</name>
                <value>多分メンバーかスタッフさんに雨女が多分いるんですけど</value>
              </parameter>
              <parameter>
                <parameterid>font</parameterid>
                <name>Font</name>
                <value>HiraginoSans-W6</value>
              </parameter>
              <parameter>
                <parameterid>style</parameterid>
                <name>Style</name>
                <valuemin>1</valuemin>
                <valuemax>1</valuemax>
                <valuelist>
                  <valueentry>
                    <name>Regular</name>
                    <value>1</value>
                  </valueentry>
                </valuelist>
                <value>1</value>
              </parameter>
              <parameter>
                <parameterid>align</parameterid>
                <name>Alignment</name>
                <valuemin>1</valuemin>
                <valuemax>3</valuemax>
                <valuelist>
                  <valueentry>
                    <name>Left</name>
                    <value>1</value>
                  </valueentry>
                  <valueentry>
                    <name>Center</name>
                    <value>2</value>
                  </valueentry>
                  <valueentry>
                    <name>Right</name>
                    <value>3</value>
                  </valueentry>
                </valuelist>
                <value>2</value>
              </parameter>
              <parameter>
                <parameterid>size</parameterid>
                <name>Size</name>
                <valuemin>0</valuemin>
                <valuemax>200</valuemax>
                <value>24</value>
              </parameter>
              <parameter>
                <parameterid>track</parameterid>
                <name>Tracking</name>
                <valuemin>0</valuemin>
                <valuemax>100</valuemax>
                <value>1</value>
              </parameter>
              <parameter>
                <parameterid>lead</parameterid>
                <name>Leading</name>
                <valuemin>-100</valuemin>
                <valuemax>100</valuemax>
                <value>0</value>
              </parameter>
              <parameter>
                <parameterid>aspect</parameterid>
                <name>Aspect</name>
                <valuemin>0</valuemin>
                <valuemax>4</valuemax>
                <value>1</value>
              </parameter>
              <parameter>
                <parameterid>linewidth</parameterid>
                <name>Line Width</name>
                <valuemin>0</valuemin>
                <valuemax>200</valuemax>
                <value>2</value>
              </parameter>
              <parameter>
                <parameterid>linesoft</parameterid>
                <name>Line Softness</name>
                <valuemin>0</valuemin>
                <valuemax>100</valuemax>
                <value>5</value>
              </parameter>
              <parameter>
                <parameterid>textopacity</parameterid>
                <name>Text Opacity</name>
                <valuemin>0</valuemin>
                <valuemax>100</valuemax>
                <value>100</value>
              </parameter>
              <parameter>
                <parameterid>center</parameterid>
                <name>Center</name>
                <value>
                  <horiz>0</horiz>
                  <vert>0.4703703703703703</vert>
                </value>
              </parameter>
              <parameter>
                <parameterid>textcolor</parameterid>
                <name>Text Color</name>
                <value>
                  <alpha>255</alpha>
                  <red>255</red>
                  <green>255</green>
                  <blue>255</blue>
                </value>
              </parameter>
              <parameter>
                <parameterid>supertext</parameterid>
                <name>Text Graphic</name>
              </parameter>
              <parameter>
                <parameterid>linecolor</parameterid>
                <name>Line Color</name>
                <value>
                  <alpha>255</alpha>
                  <red>0</red>
                  <green>0</green>
                  <blue>0</blue>
                </value>
              </parameter>
              <parameter>
                <parameterid>superline</parameterid>
                <name>Line Graphic</name>
              </parameter>
              <parameter>
                <parameterid>part2</parameterid>
                <name>Background Settings</name>
              </parameter>
              <parameter>
                <parameterid>xscale</parameterid>
                <name>Horizontal Size</name>
                <valuemin>0</valuemin>
                <valuemax>200</valuemax>
                <value>0</value>
              </parameter>
              <parameter>
                <parameterid>yscale</parameterid>
                <name>Vertical Size</name>
                <valuemin>0</valuemin>
                <valuemax>200</valuemax>
                <value>0</value>
              </parameter>
              <parameter>
                <parameterid>xoffset</parameterid>
                <name>Horizontal Offset</name>
                <valuemin>-100</valuemin>
                <valuemax>100</valuemax>
                <value>0</value>
              </parameter>
              <parameter>
                <parameterid>yoffset</parameterid>
                <name>Vertical Offset</name>
                <valuemin>-100</valuemin>
                <valuemax>100</valuemax>
                <value>0</value>
              </parameter>
              <parameter>
                <parameterid>backsoft</parameterid>
                <name>Back Soft</name>
                <valuemin>0</valuemin>
                <valuemax>100</valuemax>
                <value>0</value>
              </parameter>
              <parameter>
                <parameterid>backopacity</parameterid>
                <name>Back Opacity</name>
                <valuemin>0</valuemin>
                <valuemax>100</valuemax>
                <value>50</value>
              </parameter>
              <parameter>
                <parameterid>backcolor</parameterid>
                <name>Back Color</name>
                <value>
                  <alpha>255</alpha>
                  <red>255</red>
                  <green>255</green>
                  <blue>255</blue>
                </value>
              </parameter>
              <parameter>
                <parameterid>superback</parameterid>
                <name>Back Graphic</name>
              </parameter>
              <parameter>
                <parameterid>crop</parameterid>
                <name>Crop</name>
                <value>false</value>
              </parameter>
              <parameter>
                <parameterid>autokern</parameterid>
                <name>Auto Kerning</name>
                <value>true</value>
              </parameter>
            </effect>
            <sourcetrack>
              <mediatype>video</mediatype>
            </sourcetrack>
          </generatoritem>
          <generatoritem id="Outline Text1">
            <name>でも最近ね晴れ女のスタッフさんも来てきたので戦ってもらって</name>
            <duration>22166.1117</duration>
            <rate>
              <timebase>30</timebase>
              <ntsc>true</ntsc>
            </rate>
            <start>1624.0743000000004</start>
            <end>1760.1381000000008</end>
            <in>1624.0743000000004</in>
            <out>1760.1381000000008</out>
            <enabled>true</enabled>
            <anamorphic>false</anamorphic>
            <alphatype>black</alphatype>
            <masterclipid>Outline Text1</masterclipid>
            <effect>
              <name>Outline Text</name>
              <effectid>Outline Text</effectid>
              <effectcategory>Text</effectcategory>
              <effecttype>generator</effecttype>
              <mediatype>video</mediatype>
              <parameter>
                <parameterid>part1</parameterid>
                <name>Text Settings</name>
                <value/>
              </parameter>
              <parameter>
                <parameterid>str</parameterid>
                <name>Text</name>
                <value>でも最近ね晴れ女のスタッフさんも来てきたので戦ってもらって</value>
              </parameter>
              <parameter>
                <parameterid>font</parameterid>
                <name>Font</name>
                <value>HiraginoSans-W6</value>
              </parameter>
              <parameter>
                <parameterid>style</parameterid>
                <name>Style</name>
                <valuemin>1</valuemin>
                <valuemax>1</valuemax>
                <valuelist>
                  <valueentry>
                    <name>Regular</name>
                    <value>1</value>
                  </valueentry>
                </valuelist>
                <value>1</value>
              </parameter>
              <parameter>
                <parameterid>align</parameterid>
                <name>Alignment</name>
                <valuemin>1</valuemin>
                <valuemax>3</valuemax>
                <valuelist>
                  <valueentry>
                    <name>Left</name>
                    <value>1</value>
                  </valueentry>
                  <valueentry>
                    <name>Center</name>
                    <value>2</value>
                  </valueentry>
                  <valueentry>
                    <name>Right</name>
                    <value>3</value>
                  </valueentry>
                </valuelist>
                <value>2</value>
              </parameter>
              <parameter>
                <parameterid>size</parameterid>
                <name>Size</name>
                <valuemin>0</valuemin>
                <valuemax>200</valuemax>
                <value>24</value>
              </parameter>
              <parameter>
                <parameterid>track</parameterid>
                <name>Tracking</name>
                <valuemin>0</valuemin>
                <valuemax>100</valuemax>
                <value>1</value>
              </parameter>
              <parameter>
                <parameterid>lead</parameterid>
                <name>Leading</name>
                <valuemin>-100</valuemin>
                <valuemax>100</valuemax>
                <value>0</value>
              </parameter>
              <parameter>
                <parameterid>aspect</parameterid>
                <name>Aspect</name>
                <valuemin>0</valuemin>
                <valuemax>4</valuemax>
                <value>1</value>
              </parameter>
              <parameter>
                <parameterid>linewidth</parameterid>
                <name>Line Width</name>
                <valuemin>0</valuemin>
                <valuemax>200</valuemax>
                <value>2</value>
              </parameter>
              <parameter>
                <parameterid>linesoft</parameterid>
                <name>Line Softness</name>
                <valuemin>0</valuemin>
                <valuemax>100</valuemax>
                <value>5</value>
              </parameter>
              <parameter>
                <parameterid>textopacity</parameterid>
                <name>Text Opacity</name>
                <valuemin>0</valuemin>
                <valuemax>100</valuemax>
                <value>100</value>
              </parameter>
              <parameter>
                <parameterid>center</parameterid>
                <name>Center</name>
                <value>
                  <horiz>0</horiz>
                  <vert>0.4703703703703703</vert>
                </value>
              </parameter>
              <parameter>
                <parameterid>textcolor</parameterid>
                <name>Text Color</name>
                <value>
                  <alpha>255</alpha>
                  <red>255</red>
                  <green>255</green>
                  <blue>255</blue>
                </value>
              </parameter>
              <parameter>
                <parameterid>supertext</parameterid>
                <name>Text Graphic</name>
              </parameter>
              <parameter>
                <parameterid>linecolor</parameterid>
                <name>Line Color</name>
                <value>
                  <alpha>255</alpha>
                  <red>0</red>
                  <green>0</green>
                  <blue>0</blue>
                </value>
              </parameter>
              <parameter>
                <parameterid>superline</parameterid>
                <name>Line Graphic</name>
              </parameter>
              <parameter>
                <parameterid>part2</parameterid>
                <name>Background Settings</name>
              </parameter>
              <parameter>
                <parameterid>xscale</parameterid>
                <name>Horizontal Size</name>
                <valuemin>0</valuemin>
                <valuemax>200</valuemax>
                <value>0</value>
              </parameter>
              <parameter>
                <parameterid>yscale</parameterid>
                <name>Vertical Size</name>
                <valuemin>0</valuemin>
                <valuemax>200</valuemax>
                <value>0</value>
              </parameter>
              <parameter>
                <parameterid>xoffset</parameterid>
                <name>Horizontal Offset</name>
                <valuemin>-100</valuemin>
                <valuemax>100</valuemax>
                <value>0</value>
              </parameter>
              <parameter>
                <parameterid>yoffset</parameterid>
                <name>Vertical Offset</name>
                <valuemin>-100</valuemin>
                <valuemax>100</valuemax>
                <value>0</value>
              </parameter>
              <parameter>
                <parameterid>backsoft</parameterid>
                <name>Back Soft</name>
                <valuemin>0</valuemin>
                <valuemax>100</valuemax>
                <value>0</value>
              </parameter>
              <parameter>
                <parameterid>backopacity</parameterid>
                <name>Back Opacity</name>
                <valuemin>0</valuemin>
                <valuemax>100</valuemax>
                <value>50</value>
              </parameter>
              <parameter>
                <parameterid>backcolor</parameterid>
                <name>Back Color</name>
                <value>
                  <alpha>255</alpha>
                  <red>255</red>
                  <green>255</green>
                  <blue>255</blue>
                </value>
              </parameter>
              <parameter>
                <parameterid>superback</parameterid>
                <name>Back Graphic</name>
              </parameter>
              <parameter>
                <parameterid>crop</parameterid>
                <name>Crop</name>
                <value>false</value>
              </parameter>
              <parameter>
                <parameterid>autokern</parameterid>
                <name>Auto Kerning</name>
                <value>true</value>
              </parameter>
            </effect>
            <sourcetrack>
              <mediatype>video</mediatype>
            </sourcetrack>
          </generatoritem>
          <generatoritem id="Outline Text1">
            <name>今日はいい感じに雨降らず間を取ってくれた感じで</name>
            <duration>22166.1117</duration>
            <rate>
              <timebase>30</timebase>
              <ntsc>true</ntsc>
            </rate>
            <start>1760.1381000000008</start>
            <end>1909.388700000001</end>
            <in>1760.1381000000008</in>
            <out>1909.388700000001</out>
            <enabled>true</enabled>
            <anamorphic>false</anamorphic>
            <alphatype>black</alphatype>
            <masterclipid>Outline Text1</masterclipid>
            <effect>
              <name>Outline Text</name>
              <effectid>Outline Text</effectid>
              <effectcategory>Text</effectcategory>
              <effecttype>generator</effecttype>
              <mediatype>video</mediatype>
              <parameter>
                <parameterid>part1</parameterid>
                <name>Text Settings</name>
                <value/>
              </parameter>
              <parameter>
                <parameterid>str</parameterid>
                <name>Text</name>
                <value>今日はいい感じに雨降らず間を取ってくれた感じで</value>
              </parameter>
              <parameter>
                <parameterid>font</parameterid>
                <name>Font</name>
                <value>HiraginoSans-W6</value>
              </parameter>
              <parameter>
                <parameterid>style</parameterid>
                <name>Style</name>
                <valuemin>1</valuemin>
                <valuemax>1</valuemax>
                <valuelist>
                  <valueentry>
                    <name>Regular</name>
                    <value>1</value>
                  </valueentry>
                </valuelist>
                <value>1</value>
              </parameter>
              <parameter>
                <parameterid>align</parameterid>
                <name>Alignment</name>
                <valuemin>1</valuemin>
                <valuemax>3</valuemax>
                <valuelist>
                  <valueentry>
                    <name>Left</name>
                    <value>1</value>
                  </valueentry>
                  <valueentry>
                    <name>Center</name>
                    <value>2</value>
                  </valueentry>
                  <valueentry>
                    <name>Right</name>
                    <value>3</value>
                  </valueentry>
                </valuelist>
                <value>2</value>
              </parameter>
              <parameter>
                <parameterid>size</parameterid>
                <name>Size</name>
                <valuemin>0</valuemin>
                <valuemax>200</valuemax>
                <value>24</value>
              </parameter>
              <parameter>
                <parameterid>track</parameterid>
                <name>Tracking</name>
                <valuemin>0</valuemin>
                <valuemax>100</valuemax>
                <value>1</value>
              </parameter>
              <parameter>
                <parameterid>lead</parameterid>
                <name>Leading</name>
                <valuemin>-100</valuemin>
                <valuemax>100</valuemax>
                <value>0</value>
              </parameter>
              <parameter>
                <parameterid>aspect</parameterid>
                <name>Aspect</name>
                <valuemin>0</valuemin>
                <valuemax>4</valuemax>
                <value>1</value>
              </parameter>
              <parameter>
                <parameterid>linewidth</parameterid>
                <name>Line Width</name>
                <valuemin>0</valuemin>
                <valuemax>200</valuemax>
                <value>2</value>
              </parameter>
              <parameter>
                <parameterid>linesoft</parameterid>
                <name>Line Softness</name>
                <valuemin>0</valuemin>
                <valuemax>100</valuemax>
                <value>5</value>
              </parameter>
              <parameter>
                <parameterid>textopacity</parameterid>
                <name>Text Opacity</name>
                <valuemin>0</valuemin>
                <valuemax>100</valuemax>
                <value>100</value>
              </parameter>
              <parameter>
                <parameterid>center</parameterid>
                <name>Center</name>
                <value>
                  <horiz>0</horiz>
                  <vert>0.4703703703703703</vert>
                </value>
              </parameter>
              <parameter>
                <parameterid>textcolor</parameterid>
                <name>Text Color</name>
                <value>
                  <alpha>255</alpha>
                  <red>255</red>
                  <green>255</green>
                  <blue>255</blue>
                </value>
              </parameter>
              <parameter>
                <parameterid>supertext</parameterid>
                <name>Text Graphic</name>
              </parameter>
              <parameter>
                <parameterid>linecolor</parameterid>
                <name>Line Color</name>
                <value>
                  <alpha>255</alpha>
                  <red>0</red>
                  <green>0</green>
                  <blue>0</blue>
                </value>
              </parameter>
              <parameter>
                <parameterid>superline</parameterid>
                <name>Line Graphic</name>
              </parameter>
              <parameter>
                <parameterid>part2</parameterid>
                <name>Background Settings</name>
              </parameter>
              <parameter>
                <parameterid>xscale</parameterid>
                <name>Horizontal Size</name>
                <valuemin>0</valuemin>
                <valuemax>200</valuemax>
                <value>0</value>
              </parameter>
              <parameter>
                <parameterid>yscale</parameterid>
                <name>Vertical Size</name>
                <valuemin>0</valuemin>
                <valuemax>200</valuemax>
                <value>0</value>
              </parameter>
              <parameter>
                <parameterid>xoffset</parameterid>
                <name>Horizontal Offset</name>
                <valuemin>-100</valuemin>
                <valuemax>100</valuemax>
                <value>0</value>
              </parameter>
              <parameter>
                <parameterid>yoffset</parameterid>
                <name>Vertical Offset</name>
                <valuemin>-100</valuemin>
                <valuemax>100</valuemax>
                <value>0</value>
              </parameter>
              <parameter>
                <parameterid>backsoft</parameterid>
                <name>Back Soft</name>
                <valuemin>0</valuemin>
                <valuemax>100</valuemax>
                <value>0</value>
              </parameter>
              <parameter>
                <parameterid>backopacity</parameterid>
                <name>Back Opacity</name>
                <valuemin>0</valuemin>
                <valuemax>100</valuemax>
                <value>50</value>
              </parameter>
              <parameter>
                <parameterid>backcolor</parameterid>
                <name>Back Color</name>
                <value>
                  <alpha>255</alpha>
                  <red>255</red>
                  <green>255</green>
                  <blue>255</blue>
                </value>
              </parameter>
              <parameter>
                <parameterid>superback</parameterid>
                <name>Back Graphic</name>
              </parameter>
              <parameter>
                <parameterid>crop</parameterid>
                <name>Crop</name>
                <value>false</value>
              </parameter>
              <parameter>
                <parameterid>autokern</parameterid>
                <name>Auto Kerning</name>
                <value>true</value>
              </parameter>
            </effect>
            <sourcetrack>
              <mediatype>video</mediatype>
            </sourcetrack>
          </generatoritem>
          <generatoritem id="Outline Text1">
            <name>嬉しいよかった雨降らなくて</name>
            <duration>22166.1117</duration>
            <rate>
              <timebase>30</timebase>
              <ntsc>true</ntsc>
            </rate>
            <start>1909.388700000001</start>
            <end>2031.966000000001</end>
            <in>1909.388700000001</in>
            <out>2031.966000000001</out>
            <enabled>true</enabled>
            <anamorphic>false</anamorphic>
            <alphatype>black</alphatype>
            <masterclipid>Outline Text1</masterclipid>
            <effect>
              <name>Outline Text</name>
              <effectid>Outline Text</effectid>
              <effectcategory>Text</effectcategory>
              <effecttype>generator</effecttype>
              <mediatype>video</mediatype>
              <parameter>
                <parameterid>part1</parameterid>
                <name>Text Settings</name>
                <value/>
              </parameter>
              <parameter>
                <parameterid>str</parameterid>
                <name>Text</name>
                <value>嬉しいよかった雨降らなくて</value>
              </parameter>
              <parameter>
                <parameterid>font</parameterid>
                <name>Font</name>
                <value>HiraginoSans-W6</value>
              </parameter>
              <parameter>
                <parameterid>style</parameterid>
                <name>Style</name>
                <valuemin>1</valuemin>
                <valuemax>1</valuemax>
                <valuelist>
                  <valueentry>
                    <name>Regular</name>
                    <value>1</value>
                  </valueentry>
                </valuelist>
                <value>1</value>
              </parameter>
              <parameter>
                <parameterid>align</parameterid>
                <name>Alignment</name>
                <valuemin>1</valuemin>
                <valuemax>3</valuemax>
                <valuelist>
                  <valueentry>
                    <name>Left</name>
                    <value>1</value>
                  </valueentry>
                  <valueentry>
                    <name>Center</name>
                    <value>2</value>
                  </valueentry>
                  <valueentry>
                    <name>Right</name>
                    <value>3</value>
                  </valueentry>
                </valuelist>
                <value>2</value>
              </parameter>
              <parameter>
                <parameterid>size</parameterid>
                <name>Size</name>
                <valuemin>0</valuemin>
                <valuemax>200</valuemax>
                <value>24</value>
              </parameter>
              <parameter>
                <parameterid>track</parameterid>
                <name>Tracking</name>
                <valuemin>0</valuemin>
                <valuemax>100</valuemax>
                <value>1</value>
              </parameter>
              <parameter>
                <parameterid>lead</parameterid>
                <name>Leading</name>
                <valuemin>-100</valuemin>
                <valuemax>100</valuemax>
                <value>0</value>
              </parameter>
              <parameter>
                <parameterid>aspect</parameterid>
                <name>Aspect</name>
                <valuemin>0</valuemin>
                <valuemax>4</valuemax>
                <value>1</value>
              </parameter>
              <parameter>
                <parameterid>linewidth</parameterid>
                <name>Line Width</name>
                <valuemin>0</valuemin>
                <valuemax>200</valuemax>
                <value>2</value>
              </parameter>
              <parameter>
                <parameterid>linesoft</parameterid>
                <name>Line Softness</name>
                <valuemin>0</valuemin>
                <valuemax>100</valuemax>
                <value>5</value>
              </parameter>
              <parameter>
                <parameterid>textopacity</parameterid>
                <name>Text Opacity</name>
                <valuemin>0</valuemin>
                <valuemax>100</valuemax>
                <value>100</value>
              </parameter>
              <parameter>
                <parameterid>center</parameterid>
                <name>Center</name>
                <value>
                  <horiz>0</horiz>
                  <vert>0.4703703703703703</vert>
                </value>
              </parameter>
              <parameter>
                <parameterid>textcolor</parameterid>
                <name>Text Color</name>
                <value>
                  <alpha>255</alpha>
                  <red>255</red>
                  <green>255</green>
                  <blue>255</blue>
                </value>
              </parameter>
              <parameter>
                <parameterid>supertext</parameterid>
                <name>Text Graphic</name>
              </parameter>
              <parameter>
                <parameterid>linecolor</parameterid>
                <name>Line Color</name>
                <value>
                  <alpha>255</alpha>
                  <red>0</red>
                  <green>0</green>
                  <blue>0</blue>
                </value>
              </parameter>
              <parameter>
                <parameterid>superline</parameterid>
                <name>Line Graphic</name>
              </parameter>
              <parameter>
                <parameterid>part2</parameterid>
                <name>Background Settings</name>
              </parameter>
              <parameter>
                <parameterid>xscale</parameterid>
                <name>Horizontal Size</name>
                <valuemin>0</valuemin>
                <valuemax>200</valuemax>
                <value>0</value>
              </parameter>
              <parameter>
                <parameterid>yscale</parameterid>
                <name>Vertical Size</name>
                <valuemin>0</valuemin>
                <valuemax>200</valuemax>
                <value>0</value>
              </parameter>
              <parameter>
                <parameterid>xoffset</parameterid>
                <name>Horizontal Offset</name>
                <valuemin>-100</valuemin>
                <valuemax>100</valuemax>
                <value>0</value>
              </parameter>
              <parameter>
                <parameterid>yoffset</parameterid>
                <name>Vertical Offset</name>
                <valuemin>-100</valuemin>
                <valuemax>100</valuemax>
                <value>0</value>
              </parameter>
              <parameter>
                <parameterid>backsoft</parameterid>
                <name>Back Soft</name>
                <valuemin>0</valuemin>
                <valuemax>100</valuemax>
                <value>0</value>
              </parameter>
              <parameter>
                <parameterid>backopacity</parameterid>
                <name>Back Opacity</name>
                <valuemin>0</valuemin>
                <valuemax>100</valuemax>
                <value>50</value>
              </parameter>
              <parameter>
                <parameterid>backcolor</parameterid>
                <name>Back Color</name>
                <value>
                  <alpha>255</alpha>
                  <red>255</red>
                  <green>255</green>
                  <blue>255</blue>
                </value>
              </parameter>
              <parameter>
                <parameterid>superback</parameterid>
                <name>Back Graphic</name>
              </parameter>
              <parameter>
                <parameterid>crop</parameterid>
                <name>Crop</name>
                <value>false</value>
              </parameter>
              <parameter>
                <parameterid>autokern</parameterid>
                <name>Auto Kerning</name>
                <value>true</value>
              </parameter>
            </effect>
            <sourcetrack>
              <mediatype>video</mediatype>
            </sourcetrack>
          </generatoritem>
          <generatoritem id="Outline Text1">
            <name>雨降らなくてよかった本当に北海道さん行ってみたいんだよね行ったことない?</name>
            <duration>22166.1117</duration>
            <rate>
              <timebase>30</timebase>
              <ntsc>true</ntsc>
            </rate>
            <start>2031.966000000001</start>
            <end>2317.879800000002</end>
            <in>2031.966000000001</in>
            <out>2317.879800000002</out>
            <enabled>true</enabled>
            <anamorphic>false</anamorphic>
            <alphatype>black</alphatype>
            <masterclipid>Outline Text1</masterclipid>
            <effect>
              <name>Outline Text</name>
              <effectid>Outline Text</effectid>
              <effectcategory>Text</effectcategory>
              <effecttype>generator</effecttype>
              <mediatype>video</mediatype>
              <parameter>
                <parameterid>part1</parameterid>
                <name>Text Settings</name>
                <value/>
              </parameter>
              <parameter>
                <parameterid>str</parameterid>
                <name>Text</name>
                <value>雨降らなくてよかった本当に北海道さん行ってみたいんだよね行ったことない?</value>
              </parameter>
              <parameter>
                <parameterid>font</parameterid>
                <name>Font</name>
                <value>HiraginoSans-W6</value>
              </parameter>
              <parameter>
                <parameterid>style</parameterid>
                <name>Style</name>
                <valuemin>1</valuemin>
                <valuemax>1</valuemax>
                <valuelist>
                  <valueentry>
                    <name>Regular</name>
                    <value>1</value>
                  </valueentry>
                </valuelist>
                <value>1</value>
              </parameter>
              <parameter>
                <parameterid>align</parameterid>
                <name>Alignment</name>
                <valuemin>1</valuemin>
                <valuemax>3</valuemax>
                <valuelist>
                  <valueentry>
                    <name>Left</name>
                    <value>1</value>
                  </valueentry>
                  <valueentry>
                    <name>Center</name>
                    <value>2</value>
                  </valueentry>
                  <valueentry>
                    <name>Right</name>
                    <value>3</value>
                  </valueentry>
                </valuelist>
                <value>2</value>
              </parameter>
              <parameter>
                <parameterid>size</parameterid>
                <name>Size</name>
                <valuemin>0</valuemin>
                <valuemax>200</valuemax>
                <value>24</value>
              </parameter>
              <parameter>
                <parameterid>track</parameterid>
                <name>Tracking</name>
                <valuemin>0</valuemin>
                <valuemax>100</valuemax>
                <value>1</value>
              </parameter>
              <parameter>
                <parameterid>lead</parameterid>
                <name>Leading</name>
                <valuemin>-100</valuemin>
                <valuemax>100</valuemax>
                <value>0</value>
              </parameter>
              <parameter>
                <parameterid>aspect</parameterid>
                <name>Aspect</name>
                <valuemin>0</valuemin>
                <valuemax>4</valuemax>
                <value>1</value>
              </parameter>
              <parameter>
                <parameterid>linewidth</parameterid>
                <name>Line Width</name>
                <valuemin>0</valuemin>
                <valuemax>200</valuemax>
                <value>2</value>
              </parameter>
              <parameter>
                <parameterid>linesoft</parameterid>
                <name>Line Softness</name>
                <valuemin>0</valuemin>
                <valuemax>100</valuemax>
                <value>5</value>
              </parameter>
              <parameter>
                <parameterid>textopacity</parameterid>
                <name>Text Opacity</name>
                <valuemin>0</valuemin>
                <valuemax>100</valuemax>
                <value>100</value>
              </parameter>
              <parameter>
                <parameterid>center</parameterid>
                <name>Center</name>
                <value>
                  <horiz>0</horiz>
                  <vert>0.4703703703703703</vert>
                </value>
              </parameter>
              <parameter>
                <parameterid>textcolor</parameterid>
                <name>Text Color</name>
                <value>
                  <alpha>255</alpha>
                  <red>255</red>
                  <green>255</green>
                  <blue>255</blue>
                </value>
              </parameter>
              <parameter>
                <parameterid>supertext</parameterid>
                <name>Text Graphic</name>
              </parameter>
              <parameter>
                <parameterid>linecolor</parameterid>
                <name>Line Color</name>
                <value>
                  <alpha>255</alpha>
                  <red>0</red>
                  <green>0</green>
                  <blue>0</blue>
                </value>
              </parameter>
              <parameter>
                <parameterid>superline</parameterid>
                <name>Line Graphic</name>
              </parameter>
              <parameter>
                <parameterid>part2</parameterid>
                <name>Background Settings</name>
              </parameter>
              <parameter>
                <parameterid>xscale</parameterid>
                <name>Horizontal Size</name>
                <valuemin>0</valuemin>
                <valuemax>200</valuemax>
                <value>0</value>
              </parameter>
              <parameter>
                <parameterid>yscale</parameterid>
                <name>Vertical Size</name>
                <valuemin>0</valuemin>
                <valuemax>200</valuemax>
                <value>0</value>
              </parameter>
              <parameter>
                <parameterid>xoffset</parameterid>
                <name>Horizontal Offset</name>
                <valuemin>-100</valuemin>
                <valuemax>100</valuemax>
                <value>0</value>
              </parameter>
              <parameter>
                <parameterid>yoffset</parameterid>
                <name>Vertical Offset</name>
                <valuemin>-100</valuemin>
                <valuemax>100</valuemax>
                <value>0</value>
              </parameter>
              <parameter>
                <parameterid>backsoft</parameterid>
                <name>Back Soft</name>
                <valuemin>0</valuemin>
                <valuemax>100</valuemax>
                <value>0</value>
              </parameter>
              <parameter>
                <parameterid>backopacity</parameterid>
                <name>Back Opacity</name>
                <valuemin>0</valuemin>
                <valuemax>100</valuemax>
                <value>50</value>
              </parameter>
              <parameter>
                <parameterid>backcolor</parameterid>
                <name>Back Color</name>
                <value>
                  <alpha>255</alpha>
                  <red>255</red>
                  <green>255</green>
                  <blue>255</blue>
                </value>
              </parameter>
              <parameter>
                <parameterid>superback</parameterid>
                <name>Back Graphic</name>
              </parameter>
              <parameter>
                <parameterid>crop</parameterid>
                <name>Crop</name>
                <value>false</value>
              </parameter>
              <parameter>
                <parameterid>autokern</parameterid>
                <name>Auto Kerning</name>
                <value>true</value>
              </parameter>
            </effect>
            <sourcetrack>
              <mediatype>video</mediatype>
            </sourcetrack>
          </generatoritem>
          <generatoritem id="Outline Text1">
            <name>行ったことない上へ登ったことない</name>
            <duration>22166.1117</duration>
            <rate>
              <timebase>30</timebase>
              <ntsc>true</ntsc>
            </rate>
            <start>2317.879800000002</start>
            <end>2377.819800000002</end>
            <in>2317.879800000002</in>
            <out>2377.819800000002</out>
            <enabled>true</enabled>
            <anamorphic>false</anamorphic>
            <alphatype>black</alphatype>
            <masterclipid>Outline Text1</masterclipid>
            <effect>
              <name>Outline Text</name>
              <effectid>Outline Text</effectid>
              <effectcategory>Text</effectcategory>
              <effecttype>generator</effecttype>
              <mediatype>video</mediatype>
              <parameter>
                <parameterid>part1</parameterid>
                <name>Text Settings</name>
                <value/>
              </parameter>
              <parameter>
                <parameterid>str</parameterid>
                <name>Text</name>
                <value>行ったことない上へ登ったことない</value>
              </parameter>
              <parameter>
                <parameterid>font</parameterid>
                <name>Font</name>
                <value>HiraginoSans-W6</value>
              </parameter>
              <parameter>
                <parameterid>style</parameterid>
                <name>Style</name>
                <valuemin>1</valuemin>
                <valuemax>1</valuemax>
                <valuelist>
                  <valueentry>
                    <name>Regular</name>
                    <value>1</value>
                  </valueentry>
                </valuelist>
                <value>1</value>
              </parameter>
              <parameter>
                <parameterid>align</parameterid>
                <name>Alignment</name>
                <valuemin>1</valuemin>
                <valuemax>3</valuemax>
                <valuelist>
                  <valueentry>
                    <name>Left</name>
                    <value>1</value>
                  </valueentry>
                  <valueentry>
                    <name>Center</name>
                    <value>2</value>
                  </valueentry>
                  <valueentry>
                    <name>Right</name>
                    <value>3</value>
                  </valueentry>
                </valuelist>
                <value>2</value>
              </parameter>
              <parameter>
                <parameterid>size</parameterid>
                <name>Size</name>
                <valuemin>0</valuemin>
                <valuemax>200</valuemax>
                <value>24</value>
              </parameter>
              <parameter>
                <parameterid>track</parameterid>
                <name>Tracking</name>
                <valuemin>0</valuemin>
                <valuemax>100</valuemax>
                <value>1</value>
              </parameter>
              <parameter>
                <parameterid>lead</parameterid>
                <name>Leading</name>
                <valuemin>-100</valuemin>
                <valuemax>100</valuemax>
                <value>0</value>
              </parameter>
              <parameter>
                <parameterid>aspect</parameterid>
                <name>Aspect</name>
                <valuemin>0</valuemin>
                <valuemax>4</valuemax>
                <value>1</value>
              </parameter>
              <parameter>
                <parameterid>linewidth</parameterid>
                <name>Line Width</name>
                <valuemin>0</valuemin>
                <valuemax>200</valuemax>
                <value>2</value>
              </parameter>
              <parameter>
                <parameterid>linesoft</parameterid>
                <name>Line Softness</name>
                <valuemin>0</valuemin>
                <valuemax>100</valuemax>
                <value>5</value>
              </parameter>
              <parameter>
                <parameterid>textopacity</parameterid>
                <name>Text Opacity</name>
                <valuemin>0</valuemin>
                <valuemax>100</valuemax>
                <value>100</value>
              </parameter>
              <parameter>
                <parameterid>center</parameterid>
                <name>Center</name>
                <value>
                  <horiz>0</horiz>
                  <vert>0.4703703703703703</vert>
                </value>
              </parameter>
              <parameter>
                <parameterid>textcolor</parameterid>
                <name>Text Color</name>
                <value>
                  <alpha>255</alpha>
                  <red>255</red>
                  <green>255</green>
                  <blue>255</blue>
                </value>
              </parameter>
              <parameter>
                <parameterid>supertext</parameterid>
                <name>Text Graphic</name>
              </parameter>
              <parameter>
                <parameterid>linecolor</parameterid>
                <name>Line Color</name>
                <value>
                  <alpha>255</alpha>
                  <red>0</red>
                  <green>0</green>
                  <blue>0</blue>
                </value>
              </parameter>
              <parameter>
                <parameterid>superline</parameterid>
                <name>Line Graphic</name>
              </parameter>
              <parameter>
                <parameterid>part2</parameterid>
                <name>Background Settings</name>
              </parameter>
              <parameter>
                <parameterid>xscale</parameterid>
                <name>Horizontal Size</name>
                <valuemin>0</valuemin>
                <valuemax>200</valuemax>
                <value>0</value>
              </parameter>
              <parameter>
                <parameterid>yscale</parameterid>
                <name>Vertical Size</name>
                <valuemin>0</valuemin>
                <valuemax>200</valuemax>
                <value>0</value>
              </parameter>
              <parameter>
                <parameterid>xoffset</parameterid>
                <name>Horizontal Offset</name>
                <valuemin>-100</valuemin>
                <valuemax>100</valuemax>
                <value>0</value>
              </parameter>
              <parameter>
                <parameterid>yoffset</parameterid>
                <name>Vertical Offset</name>
                <valuemin>-100</valuemin>
                <valuemax>100</valuemax>
                <value>0</value>
              </parameter>
              <parameter>
                <parameterid>backsoft</parameterid>
                <name>Back Soft</name>
                <valuemin>0</valuemin>
                <valuemax>100</valuemax>
                <value>0</value>
              </parameter>
              <parameter>
                <parameterid>backopacity</parameterid>
                <name>Back Opacity</name>
                <valuemin>0</valuemin>
                <valuemax>100</valuemax>
                <value>50</value>
              </parameter>
              <parameter>
                <parameterid>backcolor</parameterid>
                <name>Back Color</name>
                <value>
                  <alpha>255</alpha>
                  <red>255</red>
                  <green>255</green>
                  <blue>255</blue>
                </value>
              </parameter>
              <parameter>
                <parameterid>superback</parameterid>
                <name>Back Graphic</name>
              </parameter>
              <parameter>
                <parameterid>crop</parameterid>
                <name>Crop</name>
                <value>false</value>
              </parameter>
              <parameter>
                <parameterid>autokern</parameterid>
                <name>Auto Kerning</name>
                <value>true</value>
              </parameter>
            </effect>
            <sourcetrack>
              <mediatype>video</mediatype>
            </sourcetrack>
          </generatoritem>
          <generatoritem id="Outline Text1">
            <name>東京より上へ登ったことない</name>
            <duration>22166.1117</duration>
            <rate>
              <timebase>30</timebase>
              <ntsc>true</ntsc>
            </rate>
            <start>2377.819800000002</start>
            <end>2458.1394000000023</end>
            <in>2377.819800000002</in>
            <out>2458.1394000000023</out>
            <enabled>true</enabled>
            <anamorphic>false</anamorphic>
            <alphatype>black</alphatype>
            <masterclipid>Outline Text1</masterclipid>
            <effect>
              <name>Outline Text</name>
              <effectid>Outline Text</effectid>
              <effectcategory>Text</effectcategory>
              <effecttype>generator</effecttype>
              <mediatype>video</mediatype>
              <parameter>
                <parameterid>part1</parameterid>
                <name>Text Settings</name>
                <value/>
              </parameter>
              <parameter>
                <parameterid>str</parameterid>
                <name>Text</name>
                <value>東京より上へ登ったことない</value>
              </parameter>
              <parameter>
                <parameterid>font</parameterid>
                <name>Font</name>
                <value>HiraginoSans-W6</value>
              </parameter>
              <parameter>
                <parameterid>style</parameterid>
                <name>Style</name>
                <valuemin>1</valuemin>
                <valuemax>1</valuemax>
                <valuelist>
                  <valueentry>
                    <name>Regular</name>
                    <value>1</value>
                  </valueentry>
                </valuelist>
                <value>1</value>
              </parameter>
              <parameter>
                <parameterid>align</parameterid>
                <name>Alignment</name>
                <valuemin>1</valuemin>
                <valuemax>3</valuemax>
                <valuelist>
                  <valueentry>
                    <name>Left</name>
                    <value>1</value>
                  </valueentry>
                  <valueentry>
                    <name>Center</name>
                    <value>2</value>
                  </valueentry>
                  <valueentry>
                    <name>Right</name>
                    <value>3</value>
                  </valueentry>
                </valuelist>
                <value>2</value>
              </parameter>
              <parameter>
                <parameterid>size</parameterid>
                <name>Size</name>
                <valuemin>0</valuemin>
                <valuemax>200</valuemax>
                <value>24</value>
              </parameter>
              <parameter>
                <parameterid>track</parameterid>
                <name>Tracking</name>
                <valuemin>0</valuemin>
                <valuemax>100</valuemax>
                <value>1</value>
              </parameter>
              <parameter>
                <parameterid>lead</parameterid>
                <name>Leading</name>
                <valuemin>-100</valuemin>
                <valuemax>100</valuemax>
                <value>0</value>
              </parameter>
              <parameter>
                <parameterid>aspect</parameterid>
                <name>Aspect</name>
                <valuemin>0</valuemin>
                <valuemax>4</valuemax>
                <value>1</value>
              </parameter>
              <parameter>
                <parameterid>linewidth</parameterid>
                <name>Line Width</name>
                <valuemin>0</valuemin>
                <valuemax>200</valuemax>
                <value>2</value>
              </parameter>
              <parameter>
                <parameterid>linesoft</parameterid>
                <name>Line Softness</name>
                <valuemin>0</valuemin>
                <valuemax>100</valuemax>
                <value>5</value>
              </parameter>
              <parameter>
                <parameterid>textopacity</parameterid>
                <name>Text Opacity</name>
                <valuemin>0</valuemin>
                <valuemax>100</valuemax>
                <value>100</value>
              </parameter>
              <parameter>
                <parameterid>center</parameterid>
                <name>Center</name>
                <value>
                  <horiz>0</horiz>
                  <vert>0.4703703703703703</vert>
                </value>
              </parameter>
              <parameter>
                <parameterid>textcolor</parameterid>
                <name>Text Color</name>
                <value>
                  <alpha>255</alpha>
                  <red>255</red>
                  <green>255</green>
                  <blue>255</blue>
                </value>
              </parameter>
              <parameter>
                <parameterid>supertext</parameterid>
                <name>Text Graphic</name>
              </parameter>
              <parameter>
                <parameterid>linecolor</parameterid>
                <name>Line Color</name>
                <value>
                  <alpha>255</alpha>
                  <red>0</red>
                  <green>0</green>
                  <blue>0</blue>
                </value>
              </parameter>
              <parameter>
                <parameterid>superline</parameterid>
                <name>Line Graphic</name>
              </parameter>
              <parameter>
                <parameterid>part2</parameterid>
                <name>Background Settings</name>
              </parameter>
              <parameter>
                <parameterid>xscale</parameterid>
                <name>Horizontal Size</name>
                <valuemin>0</valuemin>
                <valuemax>200</valuemax>
                <value>0</value>
              </parameter>
              <parameter>
                <parameterid>yscale</parameterid>
                <name>Vertical Size</name>
                <valuemin>0</valuemin>
                <valuemax>200</valuemax>
                <value>0</value>
              </parameter>
              <parameter>
                <parameterid>xoffset</parameterid>
                <name>Horizontal Offset</name>
                <valuemin>-100</valuemin>
                <valuemax>100</valuemax>
                <value>0</value>
              </parameter>
              <parameter>
                <parameterid>yoffset</parameterid>
                <name>Vertical Offset</name>
                <valuemin>-100</valuemin>
                <valuemax>100</valuemax>
                <value>0</value>
              </parameter>
              <parameter>
                <parameterid>backsoft</parameterid>
                <name>Back Soft</name>
                <valuemin>0</valuemin>
                <valuemax>100</valuemax>
                <value>0</value>
              </parameter>
              <parameter>
                <parameterid>backopacity</parameterid>
                <name>Back Opacity</name>
                <valuemin>0</valuemin>
                <valuemax>100</valuemax>
                <value>50</value>
              </parameter>
              <parameter>
                <parameterid>backcolor</parameterid>
                <name>Back Color</name>
                <value>
                  <alpha>255</alpha>
                  <red>255</red>
                  <green>255</green>
                  <blue>255</blue>
                </value>
              </parameter>
              <parameter>
                <parameterid>superback</parameterid>
                <name>Back Graphic</name>
              </parameter>
              <parameter>
                <parameterid>crop</parameterid>
                <name>Crop</name>
                <value>false</value>
              </parameter>
              <parameter>
                <parameterid>autokern</parameterid>
                <name>Auto Kerning</name>
                <value>true</value>
              </parameter>
            </effect>
            <sourcetrack>
              <mediatype>video</mediatype>
            </sourcetrack>
          </generatoritem>
          <generatoritem id="Outline Text1">
            <name>そうなんだ行ってみたいみんなで行きたいね</name>
            <duration>22166.1117</duration>
            <rate>
              <timebase>30</timebase>
              <ntsc>true</ntsc>
            </rate>
            <start>2458.1394000000023</start>
            <end>2548.948500000002</end>
            <in>2458.1394000000023</in>
            <out>2548.948500000002</out>
            <enabled>true</enabled>
            <anamorphic>false</anamorphic>
            <alphatype>black</alphatype>
            <masterclipid>Outline Text1</masterclipid>
            <effect>
              <name>Outline Text</name>
              <effectid>Outline Text</effectid>
              <effectcategory>Text</effectcategory>
              <effecttype>generator</effecttype>
              <mediatype>video</mediatype>
              <parameter>
                <parameterid>part1</parameterid>
                <name>Text Settings</name>
                <value/>
              </parameter>
              <parameter>
                <parameterid>str</parameterid>
                <name>Text</name>
                <value>そうなんだ行ってみたいみんなで行きたいね</value>
              </parameter>
              <parameter>
                <parameterid>font</parameterid>
                <name>Font</name>
                <value>HiraginoSans-W6</value>
              </parameter>
              <parameter>
                <parameterid>style</parameterid>
                <name>Style</name>
                <valuemin>1</valuemin>
                <valuemax>1</valuemax>
                <valuelist>
                  <valueentry>
                    <name>Regular</name>
                    <value>1</value>
                  </valueentry>
                </valuelist>
                <value>1</value>
              </parameter>
              <parameter>
                <parameterid>align</parameterid>
                <name>Alignment</name>
                <valuemin>1</valuemin>
                <valuemax>3</valuemax>
                <valuelist>
                  <valueentry>
                    <name>Left</name>
                    <value>1</value>
                  </valueentry>
                  <valueentry>
                    <name>Center</name>
                    <value>2</value>
                  </valueentry>
                  <valueentry>
                    <name>Right</name>
                    <value>3</value>
                  </valueentry>
                </valuelist>
                <value>2</value>
              </parameter>
              <parameter>
                <parameterid>size</parameterid>
                <name>Size</name>
                <valuemin>0</valuemin>
                <valuemax>200</valuemax>
                <value>24</value>
              </parameter>
              <parameter>
                <parameterid>track</parameterid>
                <name>Tracking</name>
                <valuemin>0</valuemin>
                <valuemax>100</valuemax>
                <value>1</value>
              </parameter>
              <parameter>
                <parameterid>lead</parameterid>
                <name>Leading</name>
                <valuemin>-100</valuemin>
                <valuemax>100</valuemax>
                <value>0</value>
              </parameter>
              <parameter>
                <parameterid>aspect</parameterid>
                <name>Aspect</name>
                <valuemin>0</valuemin>
                <valuemax>4</valuemax>
                <value>1</value>
              </parameter>
              <parameter>
                <parameterid>linewidth</parameterid>
                <name>Line Width</name>
                <valuemin>0</valuemin>
                <valuemax>200</valuemax>
                <value>2</value>
              </parameter>
              <parameter>
                <parameterid>linesoft</parameterid>
                <name>Line Softness</name>
                <valuemin>0</valuemin>
                <valuemax>100</valuemax>
                <value>5</value>
              </parameter>
              <parameter>
                <parameterid>textopacity</parameterid>
                <name>Text Opacity</name>
                <valuemin>0</valuemin>
                <valuemax>100</valuemax>
                <value>100</value>
              </parameter>
              <parameter>
                <parameterid>center</parameterid>
                <name>Center</name>
                <value>
                  <horiz>0</horiz>
                  <vert>0.4703703703703703</vert>
                </value>
              </parameter>
              <parameter>
                <parameterid>textcolor</parameterid>
                <name>Text Color</name>
                <value>
                  <alpha>255</alpha>
                  <red>255</red>
                  <green>255</green>
                  <blue>255</blue>
                </value>
              </parameter>
              <parameter>
                <parameterid>supertext</parameterid>
                <name>Text Graphic</name>
              </parameter>
              <parameter>
                <parameterid>linecolor</parameterid>
                <name>Line Color</name>
                <value>
                  <alpha>255</alpha>
                  <red>0</red>
                  <green>0</green>
                  <blue>0</blue>
                </value>
              </parameter>
              <parameter>
                <parameterid>superline</parameterid>
                <name>Line Graphic</name>
              </parameter>
              <parameter>
                <parameterid>part2</parameterid>
                <name>Background Settings</name>
              </parameter>
              <parameter>
                <parameterid>xscale</parameterid>
                <name>Horizontal Size</name>
                <valuemin>0</valuemin>
                <valuemax>200</valuemax>
                <value>0</value>
              </parameter>
              <parameter>
                <parameterid>yscale</parameterid>
                <name>Vertical Size</name>
                <valuemin>0</valuemin>
                <valuemax>200</valuemax>
                <value>0</value>
              </parameter>
              <parameter>
                <parameterid>xoffset</parameterid>
                <name>Horizontal Offset</name>
                <valuemin>-100</valuemin>
                <valuemax>100</valuemax>
                <value>0</value>
              </parameter>
              <parameter>
                <parameterid>yoffset</parameterid>
                <name>Vertical Offset</name>
                <valuemin>-100</valuemin>
                <valuemax>100</valuemax>
                <value>0</value>
              </parameter>
              <parameter>
                <parameterid>backsoft</parameterid>
                <name>Back Soft</name>
                <valuemin>0</valuemin>
                <valuemax>100</valuemax>
                <value>0</value>
              </parameter>
              <parameter>
                <parameterid>backopacity</parameterid>
                <name>Back Opacity</name>
                <valuemin>0</valuemin>
                <valuemax>100</valuemax>
                <value>50</value>
              </parameter>
              <parameter>
                <parameterid>backcolor</parameterid>
                <name>Back Color</name>
                <value>
                  <alpha>255</alpha>
                  <red>255</red>
                  <green>255</green>
                  <blue>255</blue>
                </value>
              </parameter>
              <parameter>
                <parameterid>superback</parameterid>
                <name>Back Graphic</name>
              </parameter>
              <parameter>
                <parameterid>crop</parameterid>
                <name>Crop</name>
                <value>false</value>
              </parameter>
              <parameter>
                <parameterid>autokern</parameterid>
                <name>Auto Kerning</name>
                <value>true</value>
              </parameter>
            </effect>
            <sourcetrack>
              <mediatype>video</mediatype>
            </sourcetrack>
          </generatoritem>
          <generatoritem id="Outline Text1">
            <name>北海道行きたい案内するみんなこないださきせんさんのラジオに出させてもらったときにか</name>
            <duration>22166.1117</duration>
            <rate>
              <timebase>30</timebase>
              <ntsc>true</ntsc>
            </rate>
            <start>2548.948500000002</start>
            <end>2720.6766000000016</end>
            <in>2548.948500000002</in>
            <out>2720.6766000000016</out>
            <enabled>true</enabled>
            <anamorphic>false</anamorphic>
            <alphatype>black</alphatype>
            <masterclipid>Outline Text1</masterclipid>
            <effect>
              <name>Outline Text</name>
              <effectid>Outline Text</effectid>
              <effectcategory>Text</effectcategory>
              <effecttype>generator</effecttype>
              <mediatype>video</mediatype>
              <parameter>
                <parameterid>part1</parameterid>
                <name>Text Settings</name>
                <value/>
              </parameter>
              <parameter>
                <parameterid>str</parameterid>
                <name>Text</name>
                <value>北海道行きたい案内するみんなこないださきせんさんのラジオに出させてもらったときにか</value>
              </parameter>
              <parameter>
                <parameterid>font</parameterid>
                <name>Font</name>
                <value>HiraginoSans-W6</value>
              </parameter>
              <parameter>
                <parameterid>style</parameterid>
                <name>Style</name>
                <valuemin>1</valuemin>
                <valuemax>1</valuemax>
                <valuelist>
                  <valueentry>
                    <name>Regular</name>
                    <value>1</value>
                  </valueentry>
                </valuelist>
                <value>1</value>
              </parameter>
              <parameter>
                <parameterid>align</parameterid>
                <name>Alignment</name>
                <valuemin>1</valuemin>
                <valuemax>3</valuemax>
                <valuelist>
                  <valueentry>
                    <name>Left</name>
                    <value>1</value>
                  </valueentry>
                  <valueentry>
                    <name>Center</name>
                    <value>2</value>
                  </valueentry>
                  <valueentry>
                    <name>Right</name>
                    <value>3</value>
                  </valueentry>
                </valuelist>
                <value>2</value>
              </parameter>
              <parameter>
                <parameterid>size</parameterid>
                <name>Size</name>
                <valuemin>0</valuemin>
                <valuemax>200</valuemax>
                <value>24</value>
              </parameter>
              <parameter>
                <parameterid>track</parameterid>
                <name>Tracking</name>
                <valuemin>0</valuemin>
                <valuemax>100</valuemax>
                <value>1</value>
              </parameter>
              <parameter>
                <parameterid>lead</parameterid>
                <name>Leading</name>
                <valuemin>-100</valuemin>
                <valuemax>100</valuemax>
                <value>0</value>
              </parameter>
              <parameter>
                <parameterid>aspect</parameterid>
                <name>Aspect</name>
                <valuemin>0</valuemin>
                <valuemax>4</valuemax>
                <value>1</value>
              </parameter>
              <parameter>
                <parameterid>linewidth</parameterid>
                <name>Line Width</name>
                <valuemin>0</valuemin>
                <valuemax>200</valuemax>
                <value>2</value>
              </parameter>
              <parameter>
                <parameterid>linesoft</parameterid>
                <name>Line Softness</name>
                <valuemin>0</valuemin>
                <valuemax>100</valuemax>
                <value>5</value>
              </parameter>
              <parameter>
                <parameterid>textopacity</parameterid>
                <name>Text Opacity</name>
                <valuemin>0</valuemin>
                <valuemax>100</valuemax>
                <value>100</value>
              </parameter>
              <parameter>
                <parameterid>center</parameterid>
                <name>Center</name>
                <value>
                  <horiz>0</horiz>
                  <vert>0.4703703703703703</vert>
                </value>
              </parameter>
              <parameter>
                <parameterid>textcolor</parameterid>
                <name>Text Color</name>
                <value>
                  <alpha>255</alpha>
                  <red>255</red>
                  <green>255</green>
                  <blue>255</blue>
                </value>
              </parameter>
              <parameter>
                <parameterid>supertext</parameterid>
                <name>Text Graphic</name>
              </parameter>
              <parameter>
                <parameterid>linecolor</parameterid>
                <name>Line Color</name>
                <value>
                  <alpha>255</alpha>
                  <red>0</red>
                  <green>0</green>
                  <blue>0</blue>
                </value>
              </parameter>
              <parameter>
                <parameterid>superline</parameterid>
                <name>Line Graphic</name>
              </parameter>
              <parameter>
                <parameterid>part2</parameterid>
                <name>Background Settings</name>
              </parameter>
              <parameter>
                <parameterid>xscale</parameterid>
                <name>Horizontal Size</name>
                <valuemin>0</valuemin>
                <valuemax>200</valuemax>
                <value>0</value>
              </parameter>
              <parameter>
                <parameterid>yscale</parameterid>
                <name>Vertical Size</name>
                <valuemin>0</valuemin>
                <valuemax>200</valuemax>
                <value>0</value>
              </parameter>
              <parameter>
                <parameterid>xoffset</parameterid>
                <name>Horizontal Offset</name>
                <valuemin>-100</valuemin>
                <valuemax>100</valuemax>
                <value>0</value>
              </parameter>
              <parameter>
                <parameterid>yoffset</parameterid>
                <name>Vertical Offset</name>
                <valuemin>-100</valuemin>
                <valuemax>100</valuemax>
                <value>0</value>
              </parameter>
              <parameter>
                <parameterid>backsoft</parameterid>
                <name>Back Soft</name>
                <valuemin>0</valuemin>
                <valuemax>100</valuemax>
                <value>0</value>
              </parameter>
              <parameter>
                <parameterid>backopacity</parameterid>
                <name>Back Opacity</name>
                <valuemin>0</valuemin>
                <valuemax>100</valuemax>
                <value>50</value>
              </parameter>
              <parameter>
                <parameterid>backcolor</parameterid>
                <name>Back Color</name>
                <value>
                  <alpha>255</alpha>
                  <red>255</red>
                  <green>255</green>
                  <blue>255</blue>
                </value>
              </parameter>
              <parameter>
                <parameterid>superback</parameterid>
                <name>Back Graphic</name>
              </parameter>
              <parameter>
                <parameterid>crop</parameterid>
                <name>Crop</name>
                <value>false</value>
              </parameter>
              <parameter>
                <parameterid>autokern</parameterid>
                <name>Auto Kerning</name>
                <value>true</value>
              </parameter>
            </effect>
            <sourcetrack>
              <mediatype>video</mediatype>
            </sourcetrack>
          </generatoritem>
          <generatoritem id="Outline Text1">
            <name>なみちゃんがすごい牛タンについて語ってて</name>
            <duration>22166.1117</duration>
            <rate>
              <timebase>30</timebase>
              <ntsc>true</ntsc>
            </rate>
            <start>2720.6766000000016</start>
            <end>2805.192000000002</end>
            <in>2720.6766000000016</in>
            <out>2805.192000000002</out>
            <enabled>true</enabled>
            <anamorphic>false</anamorphic>
            <alphatype>black</alphatype>
            <masterclipid>Outline Text1</masterclipid>
            <effect>
              <name>Outline Text</name>
              <effectid>Outline Text</effectid>
              <effectcategory>Text</effectcategory>
              <effecttype>generator</effecttype>
              <mediatype>video</mediatype>
              <parameter>
                <parameterid>part1</parameterid>
                <name>Text Settings</name>
                <value/>
              </parameter>
              <parameter>
                <parameterid>str</parameterid>
                <name>Text</name>
                <value>なみちゃんがすごい牛タンについて語ってて</value>
              </parameter>
              <parameter>
                <parameterid>font</parameterid>
                <name>Font</name>
                <value>HiraginoSans-W6</value>
              </parameter>
              <parameter>
                <parameterid>style</parameterid>
                <name>Style</name>
                <valuemin>1</valuemin>
                <valuemax>1</valuemax>
                <valuelist>
                  <valueentry>
                    <name>Regular</name>
                    <value>1</value>
                  </valueentry>
                </valuelist>
                <value>1</value>
              </parameter>
              <parameter>
                <parameterid>align</parameterid>
                <name>Alignment</name>
                <valuemin>1</valuemin>
                <valuemax>3</valuemax>
                <valuelist>
                  <valueentry>
                    <name>Left</name>
                    <value>1</value>
                  </valueentry>
                  <valueentry>
                    <name>Center</name>
                    <value>2</value>
                  </valueentry>
                  <valueentry>
                    <name>Right</name>
                    <value>3</value>
                  </valueentry>
                </valuelist>
                <value>2</value>
              </parameter>
              <parameter>
                <parameterid>size</parameterid>
                <name>Size</name>
                <valuemin>0</valuemin>
                <valuemax>200</valuemax>
                <value>24</value>
              </parameter>
              <parameter>
                <parameterid>track</parameterid>
                <name>Tracking</name>
                <valuemin>0</valuemin>
                <valuemax>100</valuemax>
                <value>1</value>
              </parameter>
              <parameter>
                <parameterid>lead</parameterid>
                <name>Leading</name>
                <valuemin>-100</valuemin>
                <valuemax>100</valuemax>
                <value>0</value>
              </parameter>
              <parameter>
                <parameterid>aspect</parameterid>
                <name>Aspect</name>
                <valuemin>0</valuemin>
                <valuemax>4</valuemax>
                <value>1</value>
              </parameter>
              <parameter>
                <parameterid>linewidth</parameterid>
                <name>Line Width</name>
                <valuemin>0</valuemin>
                <valuemax>200</valuemax>
                <value>2</value>
              </parameter>
              <parameter>
                <parameterid>linesoft</parameterid>
                <name>Line Softness</name>
                <valuemin>0</valuemin>
                <valuemax>100</valuemax>
                <value>5</value>
              </parameter>
              <parameter>
                <parameterid>textopacity</parameterid>
                <name>Text Opacity</name>
                <valuemin>0</valuemin>
                <valuemax>100</valuemax>
                <value>100</value>
              </parameter>
              <parameter>
                <parameterid>center</parameterid>
                <name>Center</name>
                <value>
                  <horiz>0</horiz>
                  <vert>0.4703703703703703</vert>
                </value>
              </parameter>
              <parameter>
                <parameterid>textcolor</parameterid>
                <name>Text Color</name>
                <value>
                  <alpha>255</alpha>
                  <red>255</red>
                  <green>255</green>
                  <blue>255</blue>
                </value>
              </parameter>
              <parameter>
                <parameterid>supertext</parameterid>
                <name>Text Graphic</name>
              </parameter>
              <parameter>
                <parameterid>linecolor</parameterid>
                <name>Line Color</name>
                <value>
                  <alpha>255</alpha>
                  <red>0</red>
                  <green>0</green>
                  <blue>0</blue>
                </value>
              </parameter>
              <parameter>
                <parameterid>superline</parameterid>
                <name>Line Graphic</name>
              </parameter>
              <parameter>
                <parameterid>part2</parameterid>
                <name>Background Settings</name>
              </parameter>
              <parameter>
                <parameterid>xscale</parameterid>
                <name>Horizontal Size</name>
                <valuemin>0</valuemin>
                <valuemax>200</valuemax>
                <value>0</value>
              </parameter>
              <parameter>
                <parameterid>yscale</parameterid>
                <name>Vertical Size</name>
                <valuemin>0</valuemin>
                <valuemax>200</valuemax>
                <value>0</value>
              </parameter>
              <parameter>
                <parameterid>xoffset</parameterid>
                <name>Horizontal Offset</name>
                <valuemin>-100</valuemin>
                <valuemax>100</valuemax>
                <value>0</value>
              </parameter>
              <parameter>
                <parameterid>yoffset</parameterid>
                <name>Vertical Offset</name>
                <valuemin>-100</valuemin>
                <valuemax>100</valuemax>
                <value>0</value>
              </parameter>
              <parameter>
                <parameterid>backsoft</parameterid>
                <name>Back Soft</name>
                <valuemin>0</valuemin>
                <valuemax>100</valuemax>
                <value>0</value>
              </parameter>
              <parameter>
                <parameterid>backopacity</parameterid>
                <name>Back Opacity</name>
                <valuemin>0</valuemin>
                <valuemax>100</valuemax>
                <value>50</value>
              </parameter>
              <parameter>
                <parameterid>backcolor</parameterid>
                <name>Back Color</name>
                <value>
                  <alpha>255</alpha>
                  <red>255</red>
                  <green>255</green>
                  <blue>255</blue>
                </value>
              </parameter>
              <parameter>
                <parameterid>superback</parameterid>
                <name>Back Graphic</name>
              </parameter>
              <parameter>
                <parameterid>crop</parameterid>
                <name>Crop</name>
                <value>false</value>
              </parameter>
              <parameter>
                <parameterid>autokern</parameterid>
                <name>Auto Kerning</name>
                <value>true</value>
              </parameter>
            </effect>
            <sourcetrack>
              <mediatype>video</mediatype>
            </sourcetrack>
          </generatoritem>
          <generatoritem id="Outline Text1">
            <name>仙台に牛タン食べに行きたいって言って</name>
            <duration>22166.1117</duration>
            <rate>
              <timebase>30</timebase>
              <ntsc>true</ntsc>
            </rate>
            <start>2805.192000000002</start>
            <end>2895.7014000000026</end>
            <in>2805.192000000002</in>
            <out>2895.7014000000026</out>
            <enabled>true</enabled>
            <anamorphic>false</anamorphic>
            <alphatype>black</alphatype>
            <masterclipid>Outline Text1</masterclipid>
            <effect>
              <name>Outline Text</name>
              <effectid>Outline Text</effectid>
              <effectcategory>Text</effectcategory>
              <effecttype>generator</effecttype>
              <mediatype>video</mediatype>
              <parameter>
                <parameterid>part1</parameterid>
                <name>Text Settings</name>
                <value/>
              </parameter>
              <parameter>
                <parameterid>str</parameterid>
                <name>Text</name>
                <value>仙台に牛タン食べに行きたいって言って</value>
              </parameter>
              <parameter>
                <parameterid>font</parameterid>
                <name>Font</name>
                <value>HiraginoSans-W6</value>
              </parameter>
              <parameter>
                <parameterid>style</parameterid>
                <name>Style</name>
                <valuemin>1</valuemin>
                <valuemax>1</valuemax>
                <valuelist>
                  <valueentry>
                    <name>Regular</name>
                    <value>1</value>
                  </valueentry>
                </valuelist>
                <value>1</value>
              </parameter>
              <parameter>
                <parameterid>align</parameterid>
                <name>Alignment</name>
                <valuemin>1</valuemin>
                <valuemax>3</valuemax>
                <valuelist>
                  <valueentry>
                    <name>Left</name>
                    <value>1</value>
                  </valueentry>
                  <valueentry>
                    <name>Center</name>
                    <value>2</value>
                  </valueentry>
                  <valueentry>
                    <name>Right</name>
                    <value>3</value>
                  </valueentry>
                </valuelist>
                <value>2</value>
              </parameter>
              <parameter>
                <parameterid>size</parameterid>
                <name>Size</name>
                <valuemin>0</valuemin>
                <valuemax>200</valuemax>
                <value>24</value>
              </parameter>
              <parameter>
                <parameterid>track</parameterid>
                <name>Tracking</name>
                <valuemin>0</valuemin>
                <valuemax>100</valuemax>
                <value>1</value>
              </parameter>
              <parameter>
                <parameterid>lead</parameterid>
                <name>Leading</name>
                <valuemin>-100</valuemin>
                <valuemax>100</valuemax>
                <value>0</value>
              </parameter>
              <parameter>
                <parameterid>aspect</parameterid>
                <name>Aspect</name>
                <valuemin>0</valuemin>
                <valuemax>4</valuemax>
                <value>1</value>
              </parameter>
              <parameter>
                <parameterid>linewidth</parameterid>
                <name>Line Width</name>
                <valuemin>0</valuemin>
                <valuemax>200</valuemax>
                <value>2</value>
              </parameter>
              <parameter>
                <parameterid>linesoft</parameterid>
                <name>Line Softness</name>
                <valuemin>0</valuemin>
                <valuemax>100</valuemax>
                <value>5</value>
              </parameter>
              <parameter>
                <parameterid>textopacity</parameterid>
                <name>Text Opacity</name>
                <valuemin>0</valuemin>
                <valuemax>100</valuemax>
                <value>100</value>
              </parameter>
              <parameter>
                <parameterid>center</parameterid>
                <name>Center</name>
                <value>
                  <horiz>0</horiz>
                  <vert>0.4703703703703703</vert>
                </value>
              </parameter>
              <parameter>
                <parameterid>textcolor</parameterid>
                <name>Text Color</name>
                <value>
                  <alpha>255</alpha>
                  <red>255</red>
                  <green>255</green>
                  <blue>255</blue>
                </value>
              </parameter>
              <parameter>
                <parameterid>supertext</parameterid>
                <name>Text Graphic</name>
              </parameter>
              <parameter>
                <parameterid>linecolor</parameterid>
                <name>Line Color</name>
                <value>
                  <alpha>255</alpha>
                  <red>0</red>
                  <green>0</green>
                  <blue>0</blue>
                </value>
              </parameter>
              <parameter>
                <parameterid>superline</parameterid>
                <name>Line Graphic</name>
              </parameter>
              <parameter>
                <parameterid>part2</parameterid>
                <name>Background Settings</name>
              </parameter>
              <parameter>
                <parameterid>xscale</parameterid>
                <name>Horizontal Size</name>
                <valuemin>0</valuemin>
                <valuemax>200</valuemax>
                <value>0</value>
              </parameter>
              <parameter>
                <parameterid>yscale</parameterid>
                <name>Vertical Size</name>
                <valuemin>0</valuemin>
                <valuemax>200</valuemax>
                <value>0</value>
              </parameter>
              <parameter>
                <parameterid>xoffset</parameterid>
                <name>Horizontal Offset</name>
                <valuemin>-100</valuemin>
                <valuemax>100</valuemax>
                <value>0</value>
              </parameter>
              <parameter>
                <parameterid>yoffset</parameterid>
                <name>Vertical Offset</name>
                <valuemin>-100</valuemin>
                <valuemax>100</valuemax>
                <value>0</value>
              </parameter>
              <parameter>
                <parameterid>backsoft</parameterid>
                <name>Back Soft</name>
                <valuemin>0</valuemin>
                <valuemax>100</valuemax>
                <value>0</value>
              </parameter>
              <parameter>
                <parameterid>backopacity</parameterid>
                <name>Back Opacity</name>
                <valuemin>0</valuemin>
                <valuemax>100</valuemax>
                <value>50</value>
              </parameter>
              <parameter>
                <parameterid>backcolor</parameterid>
                <name>Back Color</name>
                <value>
                  <alpha>255</alpha>
                  <red>255</red>
                  <green>255</green>
                  <blue>255</blue>
                </value>
              </parameter>
              <parameter>
                <parameterid>superback</parameterid>
                <name>Back Graphic</name>
              </parameter>
              <parameter>
                <parameterid>crop</parameterid>
                <name>Crop</name>
                <value>false</value>
              </parameter>
              <parameter>
                <parameterid>autokern</parameterid>
                <name>Auto Kerning</name>
                <value>true</value>
              </parameter>
            </effect>
            <sourcetrack>
              <mediatype>video</mediatype>
            </sourcetrack>
          </generatoritem>
          <generatoritem id="Outline Text1">
            <name>仙台も行ったことあるよ</name>
            <duration>22166.1117</duration>
            <rate>
              <timebase>30</timebase>
              <ntsc>true</ntsc>
            </rate>
            <start>2895.7014000000026</start>
            <end>2943.6534000000024</end>
            <in>2895.7014000000026</in>
            <out>2943.6534000000024</out>
            <enabled>true</enabled>
            <anamorphic>false</anamorphic>
            <alphatype>black</alphatype>
            <masterclipid>Outline Text1</masterclipid>
            <effect>
              <name>Outline Text</name>
              <effectid>Outline Text</effectid>
              <effectcategory>Text</effectcategory>
              <effecttype>generator</effecttype>
              <mediatype>video</mediatype>
              <parameter>
                <parameterid>part1</parameterid>
                <name>Text Settings</name>
                <value/>
              </parameter>
              <parameter>
                <parameterid>str</parameterid>
                <name>Text</name>
                <value>仙台も行ったことあるよ</value>
              </parameter>
              <parameter>
                <parameterid>font</parameterid>
                <name>Font</name>
                <value>HiraginoSans-W6</value>
              </parameter>
              <parameter>
                <parameterid>style</parameterid>
                <name>Style</name>
                <valuemin>1</valuemin>
                <valuemax>1</valuemax>
                <valuelist>
                  <valueentry>
                    <name>Regular</name>
                    <value>1</value>
                  </valueentry>
                </valuelist>
                <value>1</value>
              </parameter>
              <parameter>
                <parameterid>align</parameterid>
                <name>Alignment</name>
                <valuemin>1</valuemin>
                <valuemax>3</valuemax>
                <valuelist>
                  <valueentry>
                    <name>Left</name>
                    <value>1</value>
                  </valueentry>
                  <valueentry>
                    <name>Center</name>
                    <value>2</value>
                  </valueentry>
                  <valueentry>
                    <name>Right</name>
                    <value>3</value>
                  </valueentry>
                </valuelist>
                <value>2</value>
              </parameter>
              <parameter>
                <parameterid>size</parameterid>
                <name>Size</name>
                <valuemin>0</valuemin>
                <valuemax>200</valuemax>
                <value>24</value>
              </parameter>
              <parameter>
                <parameterid>track</parameterid>
                <name>Tracking</name>
                <valuemin>0</valuemin>
                <valuemax>100</valuemax>
                <value>1</value>
              </parameter>
              <parameter>
                <parameterid>lead</parameterid>
                <name>Leading</name>
                <valuemin>-100</valuemin>
                <valuemax>100</valuemax>
                <value>0</value>
              </parameter>
              <parameter>
                <parameterid>aspect</parameterid>
                <name>Aspect</name>
                <valuemin>0</valuemin>
                <valuemax>4</valuemax>
                <value>1</value>
              </parameter>
              <parameter>
                <parameterid>linewidth</parameterid>
                <name>Line Width</name>
                <valuemin>0</valuemin>
                <valuemax>200</valuemax>
                <value>2</value>
              </parameter>
              <parameter>
                <parameterid>linesoft</parameterid>
                <name>Line Softness</name>
                <valuemin>0</valuemin>
                <valuemax>100</valuemax>
                <value>5</value>
              </parameter>
              <parameter>
                <parameterid>textopacity</parameterid>
                <name>Text Opacity</name>
                <valuemin>0</valuemin>
                <valuemax>100</valuemax>
                <value>100</value>
              </parameter>
              <parameter>
                <parameterid>center</parameterid>
                <name>Center</name>
                <value>
                  <horiz>0</horiz>
                  <vert>0.4703703703703703</vert>
                </value>
              </parameter>
              <parameter>
                <parameterid>textcolor</parameterid>
                <name>Text Color</name>
                <value>
                  <alpha>255</alpha>
                  <red>255</red>
                  <green>255</green>
                  <blue>255</blue>
                </value>
              </parameter>
              <parameter>
                <parameterid>supertext</parameterid>
                <name>Text Graphic</name>
              </parameter>
              <parameter>
                <parameterid>linecolor</parameterid>
                <name>Line Color</name>
                <value>
                  <alpha>255</alpha>
                  <red>0</red>
                  <green>0</green>
                  <blue>0</blue>
                </value>
              </parameter>
              <parameter>
                <parameterid>superline</parameterid>
                <name>Line Graphic</name>
              </parameter>
              <parameter>
                <parameterid>part2</parameterid>
                <name>Background Settings</name>
              </parameter>
              <parameter>
                <parameterid>xscale</parameterid>
                <name>Horizontal Size</name>
                <valuemin>0</valuemin>
                <valuemax>200</valuemax>
                <value>0</value>
              </parameter>
              <parameter>
                <parameterid>yscale</parameterid>
                <name>Vertical Size</name>
                <valuemin>0</valuemin>
                <valuemax>200</valuemax>
                <value>0</value>
              </parameter>
              <parameter>
                <parameterid>xoffset</parameterid>
                <name>Horizontal Offset</name>
                <valuemin>-100</valuemin>
                <valuemax>100</valuemax>
                <value>0</value>
              </parameter>
              <parameter>
                <parameterid>yoffset</parameterid>
                <name>Vertical Offset</name>
                <valuemin>-100</valuemin>
                <valuemax>100</valuemax>
                <value>0</value>
              </parameter>
              <parameter>
                <parameterid>backsoft</parameterid>
                <name>Back Soft</name>
                <valuemin>0</valuemin>
                <valuemax>100</valuemax>
                <value>0</value>
              </parameter>
              <parameter>
                <parameterid>backopacity</parameterid>
                <name>Back Opacity</name>
                <valuemin>0</valuemin>
                <valuemax>100</valuemax>
                <value>50</value>
              </parameter>
              <parameter>
                <parameterid>backcolor</parameterid>
                <name>Back Color</name>
                <value>
                  <alpha>255</alpha>
                  <red>255</red>
                  <green>255</green>
                  <blue>255</blue>
                </value>
              </parameter>
              <parameter>
                <parameterid>superback</parameterid>
                <name>Back Graphic</name>
              </parameter>
              <parameter>
                <parameterid>crop</parameterid>
                <name>Crop</name>
                <value>false</value>
              </parameter>
              <parameter>
                <parameterid>autokern</parameterid>
                <name>Auto Kerning</name>
                <value>true</value>
              </parameter>
            </effect>
            <sourcetrack>
              <mediatype>video</mediatype>
            </sourcetrack>
          </generatoritem>
          <generatoritem id="Outline Text1">
            <name>めっちゃ牛タン美味しいんでしょ</name>
            <duration>22166.1117</duration>
            <rate>
              <timebase>30</timebase>
              <ntsc>true</ntsc>
            </rate>
            <start>2943.6534000000024</start>
            <end>3019.7772000000027</end>
            <in>2943.6534000000024</in>
            <out>3019.7772000000027</out>
            <enabled>true</enabled>
            <anamorphic>false</anamorphic>
            <alphatype>black</alphatype>
            <masterclipid>Outline Text1</masterclipid>
            <effect>
              <name>Outline Text</name>
              <effectid>Outline Text</effectid>
              <effectcategory>Text</effectcategory>
              <effecttype>generator</effecttype>
              <mediatype>video</mediatype>
              <parameter>
                <parameterid>part1</parameterid>
                <name>Text Settings</name>
                <value/>
              </parameter>
              <parameter>
                <parameterid>str</parameterid>
                <name>Text</name>
                <value>めっちゃ牛タン美味しいんでしょ</value>
              </parameter>
              <parameter>
                <parameterid>font</parameterid>
                <name>Font</name>
                <value>HiraginoSans-W6</value>
              </parameter>
              <parameter>
                <parameterid>style</parameterid>
                <name>Style</name>
                <valuemin>1</valuemin>
                <valuemax>1</valuemax>
                <valuelist>
                  <valueentry>
                    <name>Regular</name>
                    <value>1</value>
                  </valueentry>
                </valuelist>
                <value>1</value>
              </parameter>
              <parameter>
                <parameterid>align</parameterid>
                <name>Alignment</name>
                <valuemin>1</valuemin>
                <valuemax>3</valuemax>
                <valuelist>
                  <valueentry>
                    <name>Left</name>
                    <value>1</value>
                  </valueentry>
                  <valueentry>
                    <name>Center</name>
                    <value>2</value>
                  </valueentry>
                  <valueentry>
                    <name>Right</name>
                    <value>3</value>
                  </valueentry>
                </valuelist>
                <value>2</value>
              </parameter>
              <parameter>
                <parameterid>size</parameterid>
                <name>Size</name>
                <valuemin>0</valuemin>
                <valuemax>200</valuemax>
                <value>24</value>
              </parameter>
              <parameter>
                <parameterid>track</parameterid>
                <name>Tracking</name>
                <valuemin>0</valuemin>
                <valuemax>100</valuemax>
                <value>1</value>
              </parameter>
              <parameter>
                <parameterid>lead</parameterid>
                <name>Leading</name>
                <valuemin>-100</valuemin>
                <valuemax>100</valuemax>
                <value>0</value>
              </parameter>
              <parameter>
                <parameterid>aspect</parameterid>
                <name>Aspect</name>
                <valuemin>0</valuemin>
                <valuemax>4</valuemax>
                <value>1</value>
              </parameter>
              <parameter>
                <parameterid>linewidth</parameterid>
                <name>Line Width</name>
                <valuemin>0</valuemin>
                <valuemax>200</valuemax>
                <value>2</value>
              </parameter>
              <parameter>
                <parameterid>linesoft</parameterid>
                <name>Line Softness</name>
                <valuemin>0</valuemin>
                <valuemax>100</valuemax>
                <value>5</value>
              </parameter>
              <parameter>
                <parameterid>textopacity</parameterid>
                <name>Text Opacity</name>
                <valuemin>0</valuemin>
                <valuemax>100</valuemax>
                <value>100</value>
              </parameter>
              <parameter>
                <parameterid>center</parameterid>
                <name>Center</name>
                <value>
                  <horiz>0</horiz>
                  <vert>0.4703703703703703</vert>
                </value>
              </parameter>
              <parameter>
                <parameterid>textcolor</parameterid>
                <name>Text Color</name>
                <value>
                  <alpha>255</alpha>
                  <red>255</red>
                  <green>255</green>
                  <blue>255</blue>
                </value>
              </parameter>
              <parameter>
                <parameterid>supertext</parameterid>
                <name>Text Graphic</name>
              </parameter>
              <parameter>
                <parameterid>linecolor</parameterid>
                <name>Line Color</name>
                <value>
                  <alpha>255</alpha>
                  <red>0</red>
                  <green>0</green>
                  <blue>0</blue>
                </value>
              </parameter>
              <parameter>
                <parameterid>superline</parameterid>
                <name>Line Graphic</name>
              </parameter>
              <parameter>
                <parameterid>part2</parameterid>
                <name>Background Settings</name>
              </parameter>
              <parameter>
                <parameterid>xscale</parameterid>
                <name>Horizontal Size</name>
                <valuemin>0</valuemin>
                <valuemax>200</valuemax>
                <value>0</value>
              </parameter>
              <parameter>
                <parameterid>yscale</parameterid>
                <name>Vertical Size</name>
                <valuemin>0</valuemin>
                <valuemax>200</valuemax>
                <value>0</value>
              </parameter>
              <parameter>
                <parameterid>xoffset</parameterid>
                <name>Horizontal Offset</name>
                <valuemin>-100</valuemin>
                <valuemax>100</valuemax>
                <value>0</value>
              </parameter>
              <parameter>
                <parameterid>yoffset</parameterid>
                <name>Vertical Offset</name>
                <valuemin>-100</valuemin>
                <valuemax>100</valuemax>
                <value>0</value>
              </parameter>
              <parameter>
                <parameterid>backsoft</parameterid>
                <name>Back Soft</name>
                <valuemin>0</valuemin>
                <valuemax>100</valuemax>
                <value>0</value>
              </parameter>
              <parameter>
                <parameterid>backopacity</parameterid>
                <name>Back Opacity</name>
                <valuemin>0</valuemin>
                <valuemax>100</valuemax>
                <value>50</value>
              </parameter>
              <parameter>
                <parameterid>backcolor</parameterid>
                <name>Back Color</name>
                <value>
                  <alpha>255</alpha>
                  <red>255</red>
                  <green>255</green>
                  <blue>255</blue>
                </value>
              </parameter>
              <parameter>
                <parameterid>superback</parameterid>
                <name>Back Graphic</name>
              </parameter>
              <parameter>
                <parameterid>crop</parameterid>
                <name>Crop</name>
                <value>false</value>
              </parameter>
              <parameter>
                <parameterid>autokern</parameterid>
                <name>Auto Kerning</name>
                <value>true</value>
              </parameter>
            </effect>
            <sourcetrack>
              <mediatype>video</mediatype>
            </sourcetrack>
          </generatoritem>
          <generatoritem id="Outline Text1">
            <name>確かねかっかくっていう</name>
            <duration>22166.1117</duration>
            <rate>
              <timebase>30</timebase>
              <ntsc>true</ntsc>
            </rate>
            <start>3019.7772000000027</start>
            <end>3077.6193000000026</end>
            <in>3019.7772000000027</in>
            <out>3077.6193000000026</out>
            <enabled>true</enabled>
            <anamorphic>false</anamorphic>
            <alphatype>black</alphatype>
            <masterclipid>Outline Text1</masterclipid>
            <effect>
              <name>Outline Text</name>
              <effectid>Outline Text</effectid>
              <effectcategory>Text</effectcategory>
              <effecttype>generator</effecttype>
              <mediatype>video</mediatype>
              <parameter>
                <parameterid>part1</parameterid>
                <name>Text Settings</name>
                <value/>
              </parameter>
              <parameter>
                <parameterid>str</parameterid>
                <name>Text</name>
                <value>確かねかっかくっていう</value>
              </parameter>
              <parameter>
                <parameterid>font</parameterid>
                <name>Font</name>
                <value>HiraginoSans-W6</value>
              </parameter>
              <parameter>
                <parameterid>style</parameterid>
                <name>Style</name>
                <valuemin>1</valuemin>
                <valuemax>1</valuemax>
                <valuelist>
                  <valueentry>
                    <name>Regular</name>
                    <value>1</value>
                  </valueentry>
                </valuelist>
                <value>1</value>
              </parameter>
              <parameter>
                <parameterid>align</parameterid>
                <name>Alignment</name>
                <valuemin>1</valuemin>
                <valuemax>3</valuemax>
                <valuelist>
                  <valueentry>
                    <name>Left</name>
                    <value>1</value>
                  </valueentry>
                  <valueentry>
                    <name>Center</name>
                    <value>2</value>
                  </valueentry>
                  <valueentry>
                    <name>Right</name>
                    <value>3</value>
                  </valueentry>
                </valuelist>
                <value>2</value>
              </parameter>
              <parameter>
                <parameterid>size</parameterid>
                <name>Size</name>
                <valuemin>0</valuemin>
                <valuemax>200</valuemax>
                <value>24</value>
              </parameter>
              <parameter>
                <parameterid>track</parameterid>
                <name>Tracking</name>
                <valuemin>0</valuemin>
                <valuemax>100</valuemax>
                <value>1</value>
              </parameter>
              <parameter>
                <parameterid>lead</parameterid>
                <name>Leading</name>
                <valuemin>-100</valuemin>
                <valuemax>100</valuemax>
                <value>0</value>
              </parameter>
              <parameter>
                <parameterid>aspect</parameterid>
                <name>Aspect</name>
                <valuemin>0</valuemin>
                <valuemax>4</valuemax>
                <value>1</value>
              </parameter>
              <parameter>
                <parameterid>linewidth</parameterid>
                <name>Line Width</name>
                <valuemin>0</valuemin>
                <valuemax>200</valuemax>
                <value>2</value>
              </parameter>
              <parameter>
                <parameterid>linesoft</parameterid>
                <name>Line Softness</name>
                <valuemin>0</valuemin>
                <valuemax>100</valuemax>
                <value>5</value>
              </parameter>
              <parameter>
                <parameterid>textopacity</parameterid>
                <name>Text Opacity</name>
                <valuemin>0</valuemin>
                <valuemax>100</valuemax>
                <value>100</value>
              </parameter>
              <parameter>
                <parameterid>center</parameterid>
                <name>Center</name>
                <value>
                  <horiz>0</horiz>
                  <vert>0.4703703703703703</vert>
                </value>
              </parameter>
              <parameter>
                <parameterid>textcolor</parameterid>
                <name>Text Color</name>
                <value>
                  <alpha>255</alpha>
                  <red>255</red>
                  <green>255</green>
                  <blue>255</blue>
                </value>
              </parameter>
              <parameter>
                <parameterid>supertext</parameterid>
                <name>Text Graphic</name>
              </parameter>
              <parameter>
                <parameterid>linecolor</parameterid>
                <name>Line Color</name>
                <value>
                  <alpha>255</alpha>
                  <red>0</red>
                  <green>0</green>
                  <blue>0</blue>
                </value>
              </parameter>
              <parameter>
                <parameterid>superline</parameterid>
                <name>Line Graphic</name>
              </parameter>
              <parameter>
                <parameterid>part2</parameterid>
                <name>Background Settings</name>
              </parameter>
              <parameter>
                <parameterid>xscale</parameterid>
                <name>Horizontal Size</name>
                <valuemin>0</valuemin>
                <valuemax>200</valuemax>
                <value>0</value>
              </parameter>
              <parameter>
                <parameterid>yscale</parameterid>
                <name>Vertical Size</name>
                <valuemin>0</valuemin>
                <valuemax>200</valuemax>
                <value>0</value>
              </parameter>
              <parameter>
                <parameterid>xoffset</parameterid>
                <name>Horizontal Offset</name>
                <valuemin>-100</valuemin>
                <valuemax>100</valuemax>
                <value>0</value>
              </parameter>
              <parameter>
                <parameterid>yoffset</parameterid>
                <name>Vertical Offset</name>
                <valuemin>-100</valuemin>
                <valuemax>100</valuemax>
                <value>0</value>
              </parameter>
              <parameter>
                <parameterid>backsoft</parameterid>
                <name>Back Soft</name>
                <valuemin>0</valuemin>
                <valuemax>100</valuemax>
                <value>0</value>
              </parameter>
              <parameter>
                <parameterid>backopacity</parameterid>
                <name>Back Opacity</name>
                <valuemin>0</valuemin>
                <valuemax>100</valuemax>
                <value>50</value>
              </parameter>
              <parameter>
                <parameterid>backcolor</parameterid>
                <name>Back Color</name>
                <value>
                  <alpha>255</alpha>
                  <red>255</red>
                  <green>255</green>
                  <blue>255</blue>
                </value>
              </parameter>
              <parameter>
                <parameterid>superback</parameterid>
                <name>Back Graphic</name>
              </parameter>
              <parameter>
                <parameterid>crop</parameterid>
                <name>Crop</name>
                <value>false</value>
              </parameter>
              <parameter>
                <parameterid>autokern</parameterid>
                <name>Auto Kerning</name>
                <value>true</value>
              </parameter>
            </effect>
            <sourcetrack>
              <mediatype>video</mediatype>
            </sourcetrack>
          </generatoritem>
          <generatoritem id="Outline Text1">
            <name>牛タン屋さんがめっちゃ美味しいって</name>
            <duration>22166.1117</duration>
            <rate>
              <timebase>30</timebase>
              <ntsc>true</ntsc>
            </rate>
            <start>3077.6193000000026</start>
            <end>3145.651200000002</end>
            <in>3077.6193000000026</in>
            <out>3145.651200000002</out>
            <enabled>true</enabled>
            <anamorphic>false</anamorphic>
            <alphatype>black</alphatype>
            <masterclipid>Outline Text1</masterclipid>
            <effect>
              <name>Outline Text</name>
              <effectid>Outline Text</effectid>
              <effectcategory>Text</effectcategory>
              <effecttype>generator</effecttype>
              <mediatype>video</mediatype>
              <parameter>
                <parameterid>part1</parameterid>
                <name>Text Settings</name>
                <value/>
              </parameter>
              <parameter>
                <parameterid>str</parameterid>
                <name>Text</name>
                <value>牛タン屋さんがめっちゃ美味しいって</value>
              </parameter>
              <parameter>
                <parameterid>font</parameterid>
                <name>Font</name>
                <value>HiraginoSans-W6</value>
              </parameter>
              <parameter>
                <parameterid>style</parameterid>
                <name>Style</name>
                <valuemin>1</valuemin>
                <valuemax>1</valuemax>
                <valuelist>
                  <valueentry>
                    <name>Regular</name>
                    <value>1</value>
                  </valueentry>
                </valuelist>
                <value>1</value>
              </parameter>
              <parameter>
                <parameterid>align</parameterid>
                <name>Alignment</name>
                <valuemin>1</valuemin>
                <valuemax>3</valuemax>
                <valuelist>
                  <valueentry>
                    <name>Left</name>
                    <value>1</value>
                  </valueentry>
                  <valueentry>
                    <name>Center</name>
                    <value>2</value>
                  </valueentry>
                  <valueentry>
                    <name>Right</name>
                    <value>3</value>
                  </valueentry>
                </valuelist>
                <value>2</value>
              </parameter>
              <parameter>
                <parameterid>size</parameterid>
                <name>Size</name>
                <valuemin>0</valuemin>
                <valuemax>200</valuemax>
                <value>24</value>
              </parameter>
              <parameter>
                <parameterid>track</parameterid>
                <name>Tracking</name>
                <valuemin>0</valuemin>
                <valuemax>100</valuemax>
                <value>1</value>
              </parameter>
              <parameter>
                <parameterid>lead</parameterid>
                <name>Leading</name>
                <valuemin>-100</valuemin>
                <valuemax>100</valuemax>
                <value>0</value>
              </parameter>
              <parameter>
                <parameterid>aspect</parameterid>
                <name>Aspect</name>
                <valuemin>0</valuemin>
                <valuemax>4</valuemax>
                <value>1</value>
              </parameter>
              <parameter>
                <parameterid>linewidth</parameterid>
                <name>Line Width</name>
                <valuemin>0</valuemin>
                <valuemax>200</valuemax>
                <value>2</value>
              </parameter>
              <parameter>
                <parameterid>linesoft</parameterid>
                <name>Line Softness</name>
                <valuemin>0</valuemin>
                <valuemax>100</valuemax>
                <value>5</value>
              </parameter>
              <parameter>
                <parameterid>textopacity</parameterid>
                <name>Text Opacity</name>
                <valuemin>0</valuemin>
                <valuemax>100</valuemax>
                <value>100</value>
              </parameter>
              <parameter>
                <parameterid>center</parameterid>
                <name>Center</name>
                <value>
                  <horiz>0</horiz>
                  <vert>0.4703703703703703</vert>
                </value>
              </parameter>
              <parameter>
                <parameterid>textcolor</parameterid>
                <name>Text Color</name>
                <value>
                  <alpha>255</alpha>
                  <red>255</red>
                  <green>255</green>
                  <blue>255</blue>
                </value>
              </parameter>
              <parameter>
                <parameterid>supertext</parameterid>
                <name>Text Graphic</name>
              </parameter>
              <parameter>
                <parameterid>linecolor</parameterid>
                <name>Line Color</name>
                <value>
                  <alpha>255</alpha>
                  <red>0</red>
                  <green>0</green>
                  <blue>0</blue>
                </value>
              </parameter>
              <parameter>
                <parameterid>superline</parameterid>
                <name>Line Graphic</name>
              </parameter>
              <parameter>
                <parameterid>part2</parameterid>
                <name>Background Settings</name>
              </parameter>
              <parameter>
                <parameterid>xscale</parameterid>
                <name>Horizontal Size</name>
                <valuemin>0</valuemin>
                <valuemax>200</valuemax>
                <value>0</value>
              </parameter>
              <parameter>
                <parameterid>yscale</parameterid>
                <name>Vertical Size</name>
                <valuemin>0</valuemin>
                <valuemax>200</valuemax>
                <value>0</value>
              </parameter>
              <parameter>
                <parameterid>xoffset</parameterid>
                <name>Horizontal Offset</name>
                <valuemin>-100</valuemin>
                <valuemax>100</valuemax>
                <value>0</value>
              </parameter>
              <parameter>
                <parameterid>yoffset</parameterid>
                <name>Vertical Offset</name>
                <valuemin>-100</valuemin>
                <valuemax>100</valuemax>
                <value>0</value>
              </parameter>
              <parameter>
                <parameterid>backsoft</parameterid>
                <name>Back Soft</name>
                <valuemin>0</valuemin>
                <valuemax>100</valuemax>
                <value>0</value>
              </parameter>
              <parameter>
                <parameterid>backopacity</parameterid>
                <name>Back Opacity</name>
                <valuemin>0</valuemin>
                <valuemax>100</valuemax>
                <value>50</value>
              </parameter>
              <parameter>
                <parameterid>backcolor</parameterid>
                <name>Back Color</name>
                <value>
                  <alpha>255</alpha>
                  <red>255</red>
                  <green>255</green>
                  <blue>255</blue>
                </value>
              </parameter>
              <parameter>
                <parameterid>superback</parameterid>
                <name>Back Graphic</name>
              </parameter>
              <parameter>
                <parameterid>crop</parameterid>
                <name>Crop</name>
                <value>false</value>
              </parameter>
              <parameter>
                <parameterid>autokern</parameterid>
                <name>Auto Kerning</name>
                <value>true</value>
              </parameter>
            </effect>
            <sourcetrack>
              <mediatype>video</mediatype>
            </sourcetrack>
          </generatoritem>
          <generatoritem id="Outline Text1">
            <name>めっちゃ記憶にあるみんなで地方行けたらいいよね</name>
            <duration>22166.1117</duration>
            <rate>
              <timebase>30</timebase>
              <ntsc>true</ntsc>
            </rate>
            <start>3145.651200000002</start>
            <end>3262.234500000002</end>
            <in>3145.651200000002</in>
            <out>3262.234500000002</out>
            <enabled>true</enabled>
            <anamorphic>false</anamorphic>
            <alphatype>black</alphatype>
            <masterclipid>Outline Text1</masterclipid>
            <effect>
              <name>Outline Text</name>
              <effectid>Outline Text</effectid>
              <effectcategory>Text</effectcategory>
              <effecttype>generator</effecttype>
              <mediatype>video</mediatype>
              <parameter>
                <parameterid>part1</parameterid>
                <name>Text Settings</name>
                <value/>
              </parameter>
              <parameter>
                <parameterid>str</parameterid>
                <name>Text</name>
                <value>めっちゃ記憶にあるみんなで地方行けたらいいよね</value>
              </parameter>
              <parameter>
                <parameterid>font</parameterid>
                <name>Font</name>
                <value>HiraginoSans-W6</value>
              </parameter>
              <parameter>
                <parameterid>style</parameterid>
                <name>Style</name>
                <valuemin>1</valuemin>
                <valuemax>1</valuemax>
                <valuelist>
                  <valueentry>
                    <name>Regular</name>
                    <value>1</value>
                  </valueentry>
                </valuelist>
                <value>1</value>
              </parameter>
              <parameter>
                <parameterid>align</parameterid>
                <name>Alignment</name>
                <valuemin>1</valuemin>
                <valuemax>3</valuemax>
                <valuelist>
                  <valueentry>
                    <name>Left</name>
                    <value>1</value>
                  </valueentry>
                  <valueentry>
                    <name>Center</name>
                    <value>2</value>
                  </valueentry>
                  <valueentry>
                    <name>Right</name>
                    <value>3</value>
                  </valueentry>
                </valuelist>
                <value>2</value>
              </parameter>
              <parameter>
                <parameterid>size</parameterid>
                <name>Size</name>
                <valuemin>0</valuemin>
                <valuemax>200</valuemax>
                <value>24</value>
              </parameter>
              <parameter>
                <parameterid>track</parameterid>
                <name>Tracking</name>
                <valuemin>0</valuemin>
                <valuemax>100</valuemax>
                <value>1</value>
              </parameter>
              <parameter>
                <parameterid>lead</parameterid>
                <name>Leading</name>
                <valuemin>-100</valuemin>
                <valuemax>100</valuemax>
                <value>0</value>
              </parameter>
              <parameter>
                <parameterid>aspect</parameterid>
                <name>Aspect</name>
                <valuemin>0</valuemin>
                <valuemax>4</valuemax>
                <value>1</value>
              </parameter>
              <parameter>
                <parameterid>linewidth</parameterid>
                <name>Line Width</name>
                <valuemin>0</valuemin>
                <valuemax>200</valuemax>
                <value>2</value>
              </parameter>
              <parameter>
                <parameterid>linesoft</parameterid>
                <name>Line Softness</name>
                <valuemin>0</valuemin>
                <valuemax>100</valuemax>
                <value>5</value>
              </parameter>
              <parameter>
                <parameterid>textopacity</parameterid>
                <name>Text Opacity</name>
                <valuemin>0</valuemin>
                <valuemax>100</valuemax>
                <value>100</value>
              </parameter>
              <parameter>
                <parameterid>center</parameterid>
                <name>Center</name>
                <value>
                  <horiz>0</horiz>
                  <vert>0.4703703703703703</vert>
                </value>
              </parameter>
              <parameter>
                <parameterid>textcolor</parameterid>
                <name>Text Color</name>
                <value>
                  <alpha>255</alpha>
                  <red>255</red>
                  <green>255</green>
                  <blue>255</blue>
                </value>
              </parameter>
              <parameter>
                <parameterid>supertext</parameterid>
                <name>Text Graphic</name>
              </parameter>
              <parameter>
                <parameterid>linecolor</parameterid>
                <name>Line Color</name>
                <value>
                  <alpha>255</alpha>
                  <red>0</red>
                  <green>0</green>
                  <blue>0</blue>
                </value>
              </parameter>
              <parameter>
                <parameterid>superline</parameterid>
                <name>Line Graphic</name>
              </parameter>
              <parameter>
                <parameterid>part2</parameterid>
                <name>Background Settings</name>
              </parameter>
              <parameter>
                <parameterid>xscale</parameterid>
                <name>Horizontal Size</name>
                <valuemin>0</valuemin>
                <valuemax>200</valuemax>
                <value>0</value>
              </parameter>
              <parameter>
                <parameterid>yscale</parameterid>
                <name>Vertical Size</name>
                <valuemin>0</valuemin>
                <valuemax>200</valuemax>
                <value>0</value>
              </parameter>
              <parameter>
                <parameterid>xoffset</parameterid>
                <name>Horizontal Offset</name>
                <valuemin>-100</valuemin>
                <valuemax>100</valuemax>
                <value>0</value>
              </parameter>
              <parameter>
                <parameterid>yoffset</parameterid>
                <name>Vertical Offset</name>
                <valuemin>-100</valuemin>
                <valuemax>100</valuemax>
                <value>0</value>
              </parameter>
              <parameter>
                <parameterid>backsoft</parameterid>
                <name>Back Soft</name>
                <valuemin>0</valuemin>
                <valuemax>100</valuemax>
                <value>0</value>
              </parameter>
              <parameter>
                <parameterid>backopacity</parameterid>
                <name>Back Opacity</name>
                <valuemin>0</valuemin>
                <valuemax>100</valuemax>
                <value>50</value>
              </parameter>
              <parameter>
                <parameterid>backcolor</parameterid>
                <name>Back Color</name>
                <value>
                  <alpha>255</alpha>
                  <red>255</red>
                  <green>255</green>
                  <blue>255</blue>
                </value>
              </parameter>
              <parameter>
                <parameterid>superback</parameterid>
                <name>Back Graphic</name>
              </parameter>
              <parameter>
                <parameterid>crop</parameterid>
                <name>Crop</name>
                <value>false</value>
              </parameter>
              <parameter>
                <parameterid>autokern</parameterid>
                <name>Auto Kerning</name>
                <value>true</value>
              </parameter>
            </effect>
            <sourcetrack>
              <mediatype>video</mediatype>
            </sourcetrack>
          </generatoritem>
          <generatoritem id="Outline Text1">
            <name>遠征したいよね</name>
            <duration>22166.1117</duration>
            <rate>
              <timebase>30</timebase>
              <ntsc>true</ntsc>
            </rate>
            <start>3262.234500000002</start>
            <end>3286.2105000000015</end>
            <in>3262.234500000002</in>
            <out>3286.2105000000015</out>
            <enabled>true</enabled>
            <anamorphic>false</anamorphic>
            <alphatype>black</alphatype>
            <masterclipid>Outline Text1</masterclipid>
            <effect>
              <name>Outline Text</name>
              <effectid>Outline Text</effectid>
              <effectcategory>Text</effectcategory>
              <effecttype>generator</effecttype>
              <mediatype>video</mediatype>
              <parameter>
                <parameterid>part1</parameterid>
                <name>Text Settings</name>
                <value/>
              </parameter>
              <parameter>
                <parameterid>str</parameterid>
                <name>Text</name>
                <value>遠征したいよね</value>
              </parameter>
              <parameter>
                <parameterid>font</parameterid>
                <name>Font</name>
                <value>HiraginoSans-W6</value>
              </parameter>
              <parameter>
                <parameterid>style</parameterid>
                <name>Style</name>
                <valuemin>1</valuemin>
                <valuemax>1</valuemax>
                <valuelist>
                  <valueentry>
                    <name>Regular</name>
                    <value>1</value>
                  </valueentry>
                </valuelist>
                <value>1</value>
              </parameter>
              <parameter>
                <parameterid>align</parameterid>
                <name>Alignment</name>
                <valuemin>1</valuemin>
                <valuemax>3</valuemax>
                <valuelist>
                  <valueentry>
                    <name>Left</name>
                    <value>1</value>
                  </valueentry>
                  <valueentry>
                    <name>Center</name>
                    <value>2</value>
                  </valueentry>
                  <valueentry>
                    <name>Right</name>
                    <value>3</value>
                  </valueentry>
                </valuelist>
                <value>2</value>
              </parameter>
              <parameter>
                <parameterid>size</parameterid>
                <name>Size</name>
                <valuemin>0</valuemin>
                <valuemax>200</valuemax>
                <value>24</value>
              </parameter>
              <parameter>
                <parameterid>track</parameterid>
                <name>Tracking</name>
                <valuemin>0</valuemin>
                <valuemax>100</valuemax>
                <value>1</value>
              </parameter>
              <parameter>
                <parameterid>lead</parameterid>
                <name>Leading</name>
                <valuemin>-100</valuemin>
                <valuemax>100</valuemax>
                <value>0</value>
              </parameter>
              <parameter>
                <parameterid>aspect</parameterid>
                <name>Aspect</name>
                <valuemin>0</valuemin>
                <valuemax>4</valuemax>
                <value>1</value>
              </parameter>
              <parameter>
                <parameterid>linewidth</parameterid>
                <name>Line Width</name>
                <valuemin>0</valuemin>
                <valuemax>200</valuemax>
                <value>2</value>
              </parameter>
              <parameter>
                <parameterid>linesoft</parameterid>
                <name>Line Softness</name>
                <valuemin>0</valuemin>
                <valuemax>100</valuemax>
                <value>5</value>
              </parameter>
              <parameter>
                <parameterid>textopacity</parameterid>
                <name>Text Opacity</name>
                <valuemin>0</valuemin>
                <valuemax>100</valuemax>
                <value>100</value>
              </parameter>
              <parameter>
                <parameterid>center</parameterid>
                <name>Center</name>
                <value>
                  <horiz>0</horiz>
                  <vert>0.4703703703703703</vert>
                </value>
              </parameter>
              <parameter>
                <parameterid>textcolor</parameterid>
                <name>Text Color</name>
                <value>
                  <alpha>255</alpha>
                  <red>255</red>
                  <green>255</green>
                  <blue>255</blue>
                </value>
              </parameter>
              <parameter>
                <parameterid>supertext</parameterid>
                <name>Text Graphic</name>
              </parameter>
              <parameter>
                <parameterid>linecolor</parameterid>
                <name>Line Color</name>
                <value>
                  <alpha>255</alpha>
                  <red>0</red>
                  <green>0</green>
                  <blue>0</blue>
                </value>
              </parameter>
              <parameter>
                <parameterid>superline</parameterid>
                <name>Line Graphic</name>
              </parameter>
              <parameter>
                <parameterid>part2</parameterid>
                <name>Background Settings</name>
              </parameter>
              <parameter>
                <parameterid>xscale</parameterid>
                <name>Horizontal Size</name>
                <valuemin>0</valuemin>
                <valuemax>200</valuemax>
                <value>0</value>
              </parameter>
              <parameter>
                <parameterid>yscale</parameterid>
                <name>Vertical Size</name>
                <valuemin>0</valuemin>
                <valuemax>200</valuemax>
                <value>0</value>
              </parameter>
              <parameter>
                <parameterid>xoffset</parameterid>
                <name>Horizontal Offset</name>
                <valuemin>-100</valuemin>
                <valuemax>100</valuemax>
                <value>0</value>
              </parameter>
              <parameter>
                <parameterid>yoffset</parameterid>
                <name>Vertical Offset</name>
                <valuemin>-100</valuemin>
                <valuemax>100</valuemax>
                <value>0</value>
              </parameter>
              <parameter>
                <parameterid>backsoft</parameterid>
                <name>Back Soft</name>
                <valuemin>0</valuemin>
                <valuemax>100</valuemax>
                <value>0</value>
              </parameter>
              <parameter>
                <parameterid>backopacity</parameterid>
                <name>Back Opacity</name>
                <valuemin>0</valuemin>
                <valuemax>100</valuemax>
                <value>50</value>
              </parameter>
              <parameter>
                <parameterid>backcolor</parameterid>
                <name>Back Color</name>
                <value>
                  <alpha>255</alpha>
                  <red>255</red>
                  <green>255</green>
                  <blue>255</blue>
                </value>
              </parameter>
              <parameter>
                <parameterid>superback</parameterid>
                <name>Back Graphic</name>
              </parameter>
              <parameter>
                <parameterid>crop</parameterid>
                <name>Crop</name>
                <value>false</value>
              </parameter>
              <parameter>
                <parameterid>autokern</parameterid>
                <name>Auto Kerning</name>
                <value>true</value>
              </parameter>
            </effect>
            <sourcetrack>
              <mediatype>video</mediatype>
            </sourcetrack>
          </generatoritem>
          <generatoritem id="Outline Text1">
            <name>遠征したいね</name>
            <duration>22166.1117</duration>
            <rate>
              <timebase>30</timebase>
              <ntsc>true</ntsc>
            </rate>
            <start>3286.2105000000015</start>
            <end>3341.655000000001</end>
            <in>3286.2105000000015</in>
            <out>3341.655000000001</out>
            <enabled>true</enabled>
            <anamorphic>false</anamorphic>
            <alphatype>black</alphatype>
            <masterclipid>Outline Text1</masterclipid>
            <effect>
              <name>Outline Text</name>
              <effectid>Outline Text</effectid>
              <effectcategory>Text</effectcategory>
              <effecttype>generator</effecttype>
              <mediatype>video</mediatype>
              <parameter>
                <parameterid>part1</parameterid>
                <name>Text Settings</name>
                <value/>
              </parameter>
              <parameter>
                <parameterid>str</parameterid>
                <name>Text</name>
                <value>遠征したいね</value>
              </parameter>
              <parameter>
                <parameterid>font</parameterid>
                <name>Font</name>
                <value>HiraginoSans-W6</value>
              </parameter>
              <parameter>
                <parameterid>style</parameterid>
                <name>Style</name>
                <valuemin>1</valuemin>
                <valuemax>1</valuemax>
                <valuelist>
                  <valueentry>
                    <name>Regular</name>
                    <value>1</value>
                  </valueentry>
                </valuelist>
                <value>1</value>
              </parameter>
              <parameter>
                <parameterid>align</parameterid>
                <name>Alignment</name>
                <valuemin>1</valuemin>
                <valuemax>3</valuemax>
                <valuelist>
                  <valueentry>
                    <name>Left</name>
                    <value>1</value>
                  </valueentry>
                  <valueentry>
                    <name>Center</name>
                    <value>2</value>
                  </valueentry>
                  <valueentry>
                    <name>Right</name>
                    <value>3</value>
                  </valueentry>
                </valuelist>
                <value>2</value>
              </parameter>
              <parameter>
                <parameterid>size</parameterid>
                <name>Size</name>
                <valuemin>0</valuemin>
                <valuemax>200</valuemax>
                <value>24</value>
              </parameter>
              <parameter>
                <parameterid>track</parameterid>
                <name>Tracking</name>
                <valuemin>0</valuemin>
                <valuemax>100</valuemax>
                <value>1</value>
              </parameter>
              <parameter>
                <parameterid>lead</parameterid>
                <name>Leading</name>
                <valuemin>-100</valuemin>
                <valuemax>100</valuemax>
                <value>0</value>
              </parameter>
              <parameter>
                <parameterid>aspect</parameterid>
                <name>Aspect</name>
                <valuemin>0</valuemin>
                <valuemax>4</valuemax>
                <value>1</value>
              </parameter>
              <parameter>
                <parameterid>linewidth</parameterid>
                <name>Line Width</name>
                <valuemin>0</valuemin>
                <valuemax>200</valuemax>
                <value>2</value>
              </parameter>
              <parameter>
                <parameterid>linesoft</parameterid>
                <name>Line Softness</name>
                <valuemin>0</valuemin>
                <valuemax>100</valuemax>
                <value>5</value>
              </parameter>
              <parameter>
                <parameterid>textopacity</parameterid>
                <name>Text Opacity</name>
                <valuemin>0</valuemin>
                <valuemax>100</valuemax>
                <value>100</value>
              </parameter>
              <parameter>
                <parameterid>center</parameterid>
                <name>Center</name>
                <value>
                  <horiz>0</horiz>
                  <vert>0.4703703703703703</vert>
                </value>
              </parameter>
              <parameter>
                <parameterid>textcolor</parameterid>
                <name>Text Color</name>
                <value>
                  <alpha>255</alpha>
                  <red>255</red>
                  <green>255</green>
                  <blue>255</blue>
                </value>
              </parameter>
              <parameter>
                <parameterid>supertext</parameterid>
                <name>Text Graphic</name>
              </parameter>
              <parameter>
                <parameterid>linecolor</parameterid>
                <name>Line Color</name>
                <value>
                  <alpha>255</alpha>
                  <red>0</red>
                  <green>0</green>
                  <blue>0</blue>
                </value>
              </parameter>
              <parameter>
                <parameterid>superline</parameterid>
                <name>Line Graphic</name>
              </parameter>
              <parameter>
                <parameterid>part2</parameterid>
                <name>Background Settings</name>
              </parameter>
              <parameter>
                <parameterid>xscale</parameterid>
                <name>Horizontal Size</name>
                <valuemin>0</valuemin>
                <valuemax>200</valuemax>
                <value>0</value>
              </parameter>
              <parameter>
                <parameterid>yscale</parameterid>
                <name>Vertical Size</name>
                <valuemin>0</valuemin>
                <valuemax>200</valuemax>
                <value>0</value>
              </parameter>
              <parameter>
                <parameterid>xoffset</parameterid>
                <name>Horizontal Offset</name>
                <valuemin>-100</valuemin>
                <valuemax>100</valuemax>
                <value>0</value>
              </parameter>
              <parameter>
                <parameterid>yoffset</parameterid>
                <name>Vertical Offset</name>
                <valuemin>-100</valuemin>
                <valuemax>100</valuemax>
                <value>0</value>
              </parameter>
              <parameter>
                <parameterid>backsoft</parameterid>
                <name>Back Soft</name>
                <valuemin>0</valuemin>
                <valuemax>100</valuemax>
                <value>0</value>
              </parameter>
              <parameter>
                <parameterid>backopacity</parameterid>
                <name>Back Opacity</name>
                <valuemin>0</valuemin>
                <valuemax>100</valuemax>
                <value>50</value>
              </parameter>
              <parameter>
                <parameterid>backcolor</parameterid>
                <name>Back Color</name>
                <value>
                  <alpha>255</alpha>
                  <red>255</red>
                  <green>255</green>
                  <blue>255</blue>
                </value>
              </parameter>
              <parameter>
                <parameterid>superback</parameterid>
                <name>Back Graphic</name>
              </parameter>
              <parameter>
                <parameterid>crop</parameterid>
                <name>Crop</name>
                <value>false</value>
              </parameter>
              <parameter>
                <parameterid>autokern</parameterid>
                <name>Auto Kerning</name>
                <value>true</value>
              </parameter>
            </effect>
            <sourcetrack>
              <mediatype>video</mediatype>
            </sourcetrack>
          </generatoritem>
          <generatoritem id="Outline Text1">
            <name>まずはライブだね</name>
            <duration>22166.1117</duration>
            <rate>
              <timebase>30</timebase>
              <ntsc>true</ntsc>
            </rate>
            <start>3341.655000000001</start>
            <end>3380.016600000001</end>
            <in>3341.655000000001</in>
            <out>3380.016600000001</out>
            <enabled>true</enabled>
            <anamorphic>false</anamorphic>
            <alphatype>black</alphatype>
            <masterclipid>Outline Text1</masterclipid>
            <effect>
              <name>Outline Text</name>
              <effectid>Outline Text</effectid>
              <effectcategory>Text</effectcategory>
              <effecttype>generator</effecttype>
              <mediatype>video</mediatype>
              <parameter>
                <parameterid>part1</parameterid>
                <name>Text Settings</name>
                <value/>
              </parameter>
              <parameter>
                <parameterid>str</parameterid>
                <name>Text</name>
                <value>まずはライブだね</value>
              </parameter>
              <parameter>
                <parameterid>font</parameterid>
                <name>Font</name>
                <value>HiraginoSans-W6</value>
              </parameter>
              <parameter>
                <parameterid>style</parameterid>
                <name>Style</name>
                <valuemin>1</valuemin>
                <valuemax>1</valuemax>
                <valuelist>
                  <valueentry>
                    <name>Regular</name>
                    <value>1</value>
                  </valueentry>
                </valuelist>
                <value>1</value>
              </parameter>
              <parameter>
                <parameterid>align</parameterid>
                <name>Alignment</name>
                <valuemin>1</valuemin>
                <valuemax>3</valuemax>
                <valuelist>
                  <valueentry>
                    <name>Left</name>
                    <value>1</value>
                  </valueentry>
                  <valueentry>
                    <name>Center</name>
                    <value>2</value>
                  </valueentry>
                  <valueentry>
                    <name>Right</name>
                    <value>3</value>
                  </valueentry>
                </valuelist>
                <value>2</value>
              </parameter>
              <parameter>
                <parameterid>size</parameterid>
                <name>Size</name>
                <valuemin>0</valuemin>
                <valuemax>200</valuemax>
                <value>24</value>
              </parameter>
              <parameter>
                <parameterid>track</parameterid>
                <name>Tracking</name>
                <valuemin>0</valuemin>
                <valuemax>100</valuemax>
                <value>1</value>
              </parameter>
              <parameter>
                <parameterid>lead</parameterid>
                <name>Leading</name>
                <valuemin>-100</valuemin>
                <valuemax>100</valuemax>
                <value>0</value>
              </parameter>
              <parameter>
                <parameterid>aspect</parameterid>
                <name>Aspect</name>
                <valuemin>0</valuemin>
                <valuemax>4</valuemax>
                <value>1</value>
              </parameter>
              <parameter>
                <parameterid>linewidth</parameterid>
                <name>Line Width</name>
                <valuemin>0</valuemin>
                <valuemax>200</valuemax>
                <value>2</value>
              </parameter>
              <parameter>
                <parameterid>linesoft</parameterid>
                <name>Line Softness</name>
                <valuemin>0</valuemin>
                <valuemax>100</valuemax>
                <value>5</value>
              </parameter>
              <parameter>
                <parameterid>textopacity</parameterid>
                <name>Text Opacity</name>
                <valuemin>0</valuemin>
                <valuemax>100</valuemax>
                <value>100</value>
              </parameter>
              <parameter>
                <parameterid>center</parameterid>
                <name>Center</name>
                <value>
                  <horiz>0</horiz>
                  <vert>0.4703703703703703</vert>
                </value>
              </parameter>
              <parameter>
                <parameterid>textcolor</parameterid>
                <name>Text Color</name>
                <value>
                  <alpha>255</alpha>
                  <red>255</red>
                  <green>255</green>
                  <blue>255</blue>
                </value>
              </parameter>
              <parameter>
                <parameterid>supertext</parameterid>
                <name>Text Graphic</name>
              </parameter>
              <parameter>
                <parameterid>linecolor</parameterid>
                <name>Line Color</name>
                <value>
                  <alpha>255</alpha>
                  <red>0</red>
                  <green>0</green>
                  <blue>0</blue>
                </value>
              </parameter>
              <parameter>
                <parameterid>superline</parameterid>
                <name>Line Graphic</name>
              </parameter>
              <parameter>
                <parameterid>part2</parameterid>
                <name>Background Settings</name>
              </parameter>
              <parameter>
                <parameterid>xscale</parameterid>
                <name>Horizontal Size</name>
                <valuemin>0</valuemin>
                <valuemax>200</valuemax>
                <value>0</value>
              </parameter>
              <parameter>
                <parameterid>yscale</parameterid>
                <name>Vertical Size</name>
                <valuemin>0</valuemin>
                <valuemax>200</valuemax>
                <value>0</value>
              </parameter>
              <parameter>
                <parameterid>xoffset</parameterid>
                <name>Horizontal Offset</name>
                <valuemin>-100</valuemin>
                <valuemax>100</valuemax>
                <value>0</value>
              </parameter>
              <parameter>
                <parameterid>yoffset</parameterid>
                <name>Vertical Offset</name>
                <valuemin>-100</valuemin>
                <valuemax>100</valuemax>
                <value>0</value>
              </parameter>
              <parameter>
                <parameterid>backsoft</parameterid>
                <name>Back Soft</name>
                <valuemin>0</valuemin>
                <valuemax>100</valuemax>
                <value>0</value>
              </parameter>
              <parameter>
                <parameterid>backopacity</parameterid>
                <name>Back Opacity</name>
                <valuemin>0</valuemin>
                <valuemax>100</valuemax>
                <value>50</value>
              </parameter>
              <parameter>
                <parameterid>backcolor</parameterid>
                <name>Back Color</name>
                <value>
                  <alpha>255</alpha>
                  <red>255</red>
                  <green>255</green>
                  <blue>255</blue>
                </value>
              </parameter>
              <parameter>
                <parameterid>superback</parameterid>
                <name>Back Graphic</name>
              </parameter>
              <parameter>
                <parameterid>crop</parameterid>
                <name>Crop</name>
                <value>false</value>
              </parameter>
              <parameter>
                <parameterid>autokern</parameterid>
                <name>Auto Kerning</name>
                <value>true</value>
              </parameter>
            </effect>
            <sourcetrack>
              <mediatype>video</mediatype>
            </sourcetrack>
          </generatoritem>
          <generatoritem id="Outline Text1">
            <name>そうです</name>
            <duration>22166.1117</duration>
            <rate>
              <timebase>30</timebase>
              <ntsc>true</ntsc>
            </rate>
            <start>3380.016600000001</start>
            <end>3414.1824000000006</end>
            <in>3380.016600000001</in>
            <out>3414.1824000000006</out>
            <enabled>true</enabled>
            <anamorphic>false</anamorphic>
            <alphatype>black</alphatype>
            <masterclipid>Outline Text1</masterclipid>
            <effect>
              <name>Outline Text</name>
              <effectid>Outline Text</effectid>
              <effectcategory>Text</effectcategory>
              <effecttype>generator</effecttype>
              <mediatype>video</mediatype>
              <parameter>
                <parameterid>part1</parameterid>
                <name>Text Settings</name>
                <value/>
              </parameter>
              <parameter>
                <parameterid>str</parameterid>
                <name>Text</name>
                <value>そうです</value>
              </parameter>
              <parameter>
                <parameterid>font</parameterid>
                <name>Font</name>
                <value>HiraginoSans-W6</value>
              </parameter>
              <parameter>
                <parameterid>style</parameterid>
                <name>Style</name>
                <valuemin>1</valuemin>
                <valuemax>1</valuemax>
                <valuelist>
                  <valueentry>
                    <name>Regular</name>
                    <value>1</value>
                  </valueentry>
                </valuelist>
                <value>1</value>
              </parameter>
              <parameter>
                <parameterid>align</parameterid>
                <name>Alignment</name>
                <valuemin>1</valuemin>
                <valuemax>3</valuemax>
                <valuelist>
                  <valueentry>
                    <name>Left</name>
                    <value>1</value>
                  </valueentry>
                  <valueentry>
                    <name>Center</name>
                    <value>2</value>
                  </valueentry>
                  <valueentry>
                    <name>Right</name>
                    <value>3</value>
                  </valueentry>
                </valuelist>
                <value>2</value>
              </parameter>
              <parameter>
                <parameterid>size</parameterid>
                <name>Size</name>
                <valuemin>0</valuemin>
                <valuemax>200</valuemax>
                <value>24</value>
              </parameter>
              <parameter>
                <parameterid>track</parameterid>
                <name>Tracking</name>
                <valuemin>0</valuemin>
                <valuemax>100</valuemax>
                <value>1</value>
              </parameter>
              <parameter>
                <parameterid>lead</parameterid>
                <name>Leading</name>
                <valuemin>-100</valuemin>
                <valuemax>100</valuemax>
                <value>0</value>
              </parameter>
              <parameter>
                <parameterid>aspect</parameterid>
                <name>Aspect</name>
                <valuemin>0</valuemin>
                <valuemax>4</valuemax>
                <value>1</value>
              </parameter>
              <parameter>
                <parameterid>linewidth</parameterid>
                <name>Line Width</name>
                <valuemin>0</valuemin>
                <valuemax>200</valuemax>
                <value>2</value>
              </parameter>
              <parameter>
                <parameterid>linesoft</parameterid>
                <name>Line Softness</name>
                <valuemin>0</valuemin>
                <valuemax>100</valuemax>
                <value>5</value>
              </parameter>
              <parameter>
                <parameterid>textopacity</parameterid>
                <name>Text Opacity</name>
                <valuemin>0</valuemin>
                <valuemax>100</valuemax>
                <value>100</value>
              </parameter>
              <parameter>
                <parameterid>center</parameterid>
                <name>Center</name>
                <value>
                  <horiz>0</horiz>
                  <vert>0.4703703703703703</vert>
                </value>
              </parameter>
              <parameter>
                <parameterid>textcolor</parameterid>
                <name>Text Color</name>
                <value>
                  <alpha>255</alpha>
                  <red>255</red>
                  <green>255</green>
                  <blue>255</blue>
                </value>
              </parameter>
              <parameter>
                <parameterid>supertext</parameterid>
                <name>Text Graphic</name>
              </parameter>
              <parameter>
                <parameterid>linecolor</parameterid>
                <name>Line Color</name>
                <value>
                  <alpha>255</alpha>
                  <red>0</red>
                  <green>0</green>
                  <blue>0</blue>
                </value>
              </parameter>
              <parameter>
                <parameterid>superline</parameterid>
                <name>Line Graphic</name>
              </parameter>
              <parameter>
                <parameterid>part2</parameterid>
                <name>Background Settings</name>
              </parameter>
              <parameter>
                <parameterid>xscale</parameterid>
                <name>Horizontal Size</name>
                <valuemin>0</valuemin>
                <valuemax>200</valuemax>
                <value>0</value>
              </parameter>
              <parameter>
                <parameterid>yscale</parameterid>
                <name>Vertical Size</name>
                <valuemin>0</valuemin>
                <valuemax>200</valuemax>
                <value>0</value>
              </parameter>
              <parameter>
                <parameterid>xoffset</parameterid>
                <name>Horizontal Offset</name>
                <valuemin>-100</valuemin>
                <valuemax>100</valuemax>
                <value>0</value>
              </parameter>
              <parameter>
                <parameterid>yoffset</parameterid>
                <name>Vertical Offset</name>
                <valuemin>-100</valuemin>
                <valuemax>100</valuemax>
                <value>0</value>
              </parameter>
              <parameter>
                <parameterid>backsoft</parameterid>
                <name>Back Soft</name>
                <valuemin>0</valuemin>
                <valuemax>100</valuemax>
                <value>0</value>
              </parameter>
              <parameter>
                <parameterid>backopacity</parameterid>
                <name>Back Opacity</name>
                <valuemin>0</valuemin>
                <valuemax>100</valuemax>
                <value>50</value>
              </parameter>
              <parameter>
                <parameterid>backcolor</parameterid>
                <name>Back Color</name>
                <value>
                  <alpha>255</alpha>
                  <red>255</red>
                  <green>255</green>
                  <blue>255</blue>
                </value>
              </parameter>
              <parameter>
                <parameterid>superback</parameterid>
                <name>Back Graphic</name>
              </parameter>
              <parameter>
                <parameterid>crop</parameterid>
                <name>Crop</name>
                <value>false</value>
              </parameter>
              <parameter>
                <parameterid>autokern</parameterid>
                <name>Auto Kerning</name>
                <value>true</value>
              </parameter>
            </effect>
            <sourcetrack>
              <mediatype>video</mediatype>
            </sourcetrack>
          </generatoritem>
          <generatoritem id="Outline Text1">
            <name>でもまずはね</name>
            <duration>22166.1117</duration>
            <rate>
              <timebase>30</timebase>
              <ntsc>true</ntsc>
            </rate>
            <start>3414.1824000000006</start>
            <end>3445.3512000000005</end>
            <in>3414.1824000000006</in>
            <out>3445.3512000000005</out>
            <enabled>true</enabled>
            <anamorphic>false</anamorphic>
            <alphatype>black</alphatype>
            <masterclipid>Outline Text1</masterclipid>
            <effect>
              <name>Outline Text</name>
              <effectid>Outline Text</effectid>
              <effectcategory>Text</effectcategory>
              <effecttype>generator</effecttype>
              <mediatype>video</mediatype>
              <parameter>
                <parameterid>part1</parameterid>
                <name>Text Settings</name>
                <value/>
              </parameter>
              <parameter>
                <parameterid>str</parameterid>
                <name>Text</name>
                <value>でもまずはね</value>
              </parameter>
              <parameter>
                <parameterid>font</parameterid>
                <name>Font</name>
                <value>HiraginoSans-W6</value>
              </parameter>
              <parameter>
                <parameterid>style</parameterid>
                <name>Style</name>
                <valuemin>1</valuemin>
                <valuemax>1</valuemax>
                <valuelist>
                  <valueentry>
                    <name>Regular</name>
                    <value>1</value>
                  </valueentry>
                </valuelist>
                <value>1</value>
              </parameter>
              <parameter>
                <parameterid>align</parameterid>
                <name>Alignment</name>
                <valuemin>1</valuemin>
                <valuemax>3</valuemax>
                <valuelist>
                  <valueentry>
                    <name>Left</name>
                    <value>1</value>
                  </valueentry>
                  <valueentry>
                    <name>Center</name>
                    <value>2</value>
                  </valueentry>
                  <valueentry>
                    <name>Right</name>
                    <value>3</value>
                  </valueentry>
                </valuelist>
                <value>2</value>
              </parameter>
              <parameter>
                <parameterid>size</parameterid>
                <name>Size</name>
                <valuemin>0</valuemin>
                <valuemax>200</valuemax>
                <value>24</value>
              </parameter>
              <parameter>
                <parameterid>track</parameterid>
                <name>Tracking</name>
                <valuemin>0</valuemin>
                <valuemax>100</valuemax>
                <value>1</value>
              </parameter>
              <parameter>
                <parameterid>lead</parameterid>
                <name>Leading</name>
                <valuemin>-100</valuemin>
                <valuemax>100</valuemax>
                <value>0</value>
              </parameter>
              <parameter>
                <parameterid>aspect</parameterid>
                <name>Aspect</name>
                <valuemin>0</valuemin>
                <valuemax>4</valuemax>
                <value>1</value>
              </parameter>
              <parameter>
                <parameterid>linewidth</parameterid>
                <name>Line Width</name>
                <valuemin>0</valuemin>
                <valuemax>200</valuemax>
                <value>2</value>
              </parameter>
              <parameter>
                <parameterid>linesoft</parameterid>
                <name>Line Softness</name>
                <valuemin>0</valuemin>
                <valuemax>100</valuemax>
                <value>5</value>
              </parameter>
              <parameter>
                <parameterid>textopacity</parameterid>
                <name>Text Opacity</name>
                <valuemin>0</valuemin>
                <valuemax>100</valuemax>
                <value>100</value>
              </parameter>
              <parameter>
                <parameterid>center</parameterid>
                <name>Center</name>
                <value>
                  <horiz>0</horiz>
                  <vert>0.4703703703703703</vert>
                </value>
              </parameter>
              <parameter>
                <parameterid>textcolor</parameterid>
                <name>Text Color</name>
                <value>
                  <alpha>255</alpha>
                  <red>255</red>
                  <green>255</green>
                  <blue>255</blue>
                </value>
              </parameter>
              <parameter>
                <parameterid>supertext</parameterid>
                <name>Text Graphic</name>
              </parameter>
              <parameter>
                <parameterid>linecolor</parameterid>
                <name>Line Color</name>
                <value>
                  <alpha>255</alpha>
                  <red>0</red>
                  <green>0</green>
                  <blue>0</blue>
                </value>
              </parameter>
              <parameter>
                <parameterid>superline</parameterid>
                <name>Line Graphic</name>
              </parameter>
              <parameter>
                <parameterid>part2</parameterid>
                <name>Background Settings</name>
              </parameter>
              <parameter>
                <parameterid>xscale</parameterid>
                <name>Horizontal Size</name>
                <valuemin>0</valuemin>
                <valuemax>200</valuemax>
                <value>0</value>
              </parameter>
              <parameter>
                <parameterid>yscale</parameterid>
                <name>Vertical Size</name>
                <valuemin>0</valuemin>
                <valuemax>200</valuemax>
                <value>0</value>
              </parameter>
              <parameter>
                <parameterid>xoffset</parameterid>
                <name>Horizontal Offset</name>
                <valuemin>-100</valuemin>
                <valuemax>100</valuemax>
                <value>0</value>
              </parameter>
              <parameter>
                <parameterid>yoffset</parameterid>
                <name>Vertical Offset</name>
                <valuemin>-100</valuemin>
                <valuemax>100</valuemax>
                <value>0</value>
              </parameter>
              <parameter>
                <parameterid>backsoft</parameterid>
                <name>Back Soft</name>
                <valuemin>0</valuemin>
                <valuemax>100</valuemax>
                <value>0</value>
              </parameter>
              <parameter>
                <parameterid>backopacity</parameterid>
                <name>Back Opacity</name>
                <valuemin>0</valuemin>
                <valuemax>100</valuemax>
                <value>50</value>
              </parameter>
              <parameter>
                <parameterid>backcolor</parameterid>
                <name>Back Color</name>
                <value>
                  <alpha>255</alpha>
                  <red>255</red>
                  <green>255</green>
                  <blue>255</blue>
                </value>
              </parameter>
              <parameter>
                <parameterid>superback</parameterid>
                <name>Back Graphic</name>
              </parameter>
              <parameter>
                <parameterid>crop</parameterid>
                <name>Crop</name>
                <value>false</value>
              </parameter>
              <parameter>
                <parameterid>autokern</parameterid>
                <name>Auto Kerning</name>
                <value>true</value>
              </parameter>
            </effect>
            <sourcetrack>
              <mediatype>video</mediatype>
            </sourcetrack>
          </generatoritem>
          <generatoritem id="Outline Text1">
            <name>今年の夏にある渋谷の連勝ホールを埋めたいよねって</name>
            <duration>22166.1117</duration>
            <rate>
              <timebase>30</timebase>
              <ntsc>true</ntsc>
            </rate>
            <start>3445.3512000000005</start>
            <end>3602.693700000001</end>
            <in>3445.3512000000005</in>
            <out>3602.693700000001</out>
            <enabled>true</enabled>
            <anamorphic>false</anamorphic>
            <alphatype>black</alphatype>
            <masterclipid>Outline Text1</masterclipid>
            <effect>
              <name>Outline Text</name>
              <effectid>Outline Text</effectid>
              <effectcategory>Text</effectcategory>
              <effecttype>generator</effecttype>
              <mediatype>video</mediatype>
              <parameter>
                <parameterid>part1</parameterid>
                <name>Text Settings</name>
                <value/>
              </parameter>
              <parameter>
                <parameterid>str</parameterid>
                <name>Text</name>
                <value>今年の夏にある渋谷の連勝ホールを埋めたいよねって</value>
              </parameter>
              <parameter>
                <parameterid>font</parameterid>
                <name>Font</name>
                <value>HiraginoSans-W6</value>
              </parameter>
              <parameter>
                <parameterid>style</parameterid>
                <name>Style</name>
                <valuemin>1</valuemin>
                <valuemax>1</valuemax>
                <valuelist>
                  <valueentry>
                    <name>Regular</name>
                    <value>1</value>
                  </valueentry>
                </valuelist>
                <value>1</value>
              </parameter>
              <parameter>
                <parameterid>align</parameterid>
                <name>Alignment</name>
                <valuemin>1</valuemin>
                <valuemax>3</valuemax>
                <valuelist>
                  <valueentry>
                    <name>Left</name>
                    <value>1</value>
                  </valueentry>
                  <valueentry>
                    <name>Center</name>
                    <value>2</value>
                  </valueentry>
                  <valueentry>
                    <name>Right</name>
                    <value>3</value>
                  </valueentry>
                </valuelist>
                <value>2</value>
              </parameter>
              <parameter>
                <parameterid>size</parameterid>
                <name>Size</name>
                <valuemin>0</valuemin>
                <valuemax>200</valuemax>
                <value>24</value>
              </parameter>
              <parameter>
                <parameterid>track</parameterid>
                <name>Tracking</name>
                <valuemin>0</valuemin>
                <valuemax>100</valuemax>
                <value>1</value>
              </parameter>
              <parameter>
                <parameterid>lead</parameterid>
                <name>Leading</name>
                <valuemin>-100</valuemin>
                <valuemax>100</valuemax>
                <value>0</value>
              </parameter>
              <parameter>
                <parameterid>aspect</parameterid>
                <name>Aspect</name>
                <valuemin>0</valuemin>
                <valuemax>4</valuemax>
                <value>1</value>
              </parameter>
              <parameter>
                <parameterid>linewidth</parameterid>
                <name>Line Width</name>
                <valuemin>0</valuemin>
                <valuemax>200</valuemax>
                <value>2</value>
              </parameter>
              <parameter>
                <parameterid>linesoft</parameterid>
                <name>Line Softness</name>
                <valuemin>0</valuemin>
                <valuemax>100</valuemax>
                <value>5</value>
              </parameter>
              <parameter>
                <parameterid>textopacity</parameterid>
                <name>Text Opacity</name>
                <valuemin>0</valuemin>
                <valuemax>100</valuemax>
                <value>100</value>
              </parameter>
              <parameter>
                <parameterid>center</parameterid>
                <name>Center</name>
                <value>
                  <horiz>0</horiz>
                  <vert>0.4703703703703703</vert>
                </value>
              </parameter>
              <parameter>
                <parameterid>textcolor</parameterid>
                <name>Text Color</name>
                <value>
                  <alpha>255</alpha>
                  <red>255</red>
                  <green>255</green>
                  <blue>255</blue>
                </value>
              </parameter>
              <parameter>
                <parameterid>supertext</parameterid>
                <name>Text Graphic</name>
              </parameter>
              <parameter>
                <parameterid>linecolor</parameterid>
                <name>Line Color</name>
                <value>
                  <alpha>255</alpha>
                  <red>0</red>
                  <green>0</green>
                  <blue>0</blue>
                </value>
              </parameter>
              <parameter>
                <parameterid>superline</parameterid>
                <name>Line Graphic</name>
              </parameter>
              <parameter>
                <parameterid>part2</parameterid>
                <name>Background Settings</name>
              </parameter>
              <parameter>
                <parameterid>xscale</parameterid>
                <name>Horizontal Size</name>
                <valuemin>0</valuemin>
                <valuemax>200</valuemax>
                <value>0</value>
              </parameter>
              <parameter>
                <parameterid>yscale</parameterid>
                <name>Vertical Size</name>
                <valuemin>0</valuemin>
                <valuemax>200</valuemax>
                <value>0</value>
              </parameter>
              <parameter>
                <parameterid>xoffset</parameterid>
                <name>Horizontal Offset</name>
                <valuemin>-100</valuemin>
                <valuemax>100</valuemax>
                <value>0</value>
              </parameter>
              <parameter>
                <parameterid>yoffset</parameterid>
                <name>Vertical Offset</name>
                <valuemin>-100</valuemin>
                <valuemax>100</valuemax>
                <value>0</value>
              </parameter>
              <parameter>
                <parameterid>backsoft</parameterid>
                <name>Back Soft</name>
                <valuemin>0</valuemin>
                <valuemax>100</valuemax>
                <value>0</value>
              </parameter>
              <parameter>
                <parameterid>backopacity</parameterid>
                <name>Back Opacity</name>
                <valuemin>0</valuemin>
                <valuemax>100</valuemax>
                <value>50</value>
              </parameter>
              <parameter>
                <parameterid>backcolor</parameterid>
                <name>Back Color</name>
                <value>
                  <alpha>255</alpha>
                  <red>255</red>
                  <green>255</green>
                  <blue>255</blue>
                </value>
              </parameter>
              <parameter>
                <parameterid>superback</parameterid>
                <name>Back Graphic</name>
              </parameter>
              <parameter>
                <parameterid>crop</parameterid>
                <name>Crop</name>
                <value>false</value>
              </parameter>
              <parameter>
                <parameterid>autokern</parameterid>
                <name>Auto Kerning</name>
                <value>true</value>
              </parameter>
            </effect>
            <sourcetrack>
              <mediatype>video</mediatype>
            </sourcetrack>
          </generatoritem>
          <generatoritem id="Outline Text1">
            <name>みんなで話してる埋めたいです</name>
            <duration>22166.1117</duration>
            <rate>
              <timebase>30</timebase>
              <ntsc>true</ntsc>
            </rate>
            <start>3602.693700000001</start>
            <end>3648.8475000000008</end>
            <in>3602.693700000001</in>
            <out>3648.8475000000008</out>
            <enabled>true</enabled>
            <anamorphic>false</anamorphic>
            <alphatype>black</alphatype>
            <masterclipid>Outline Text1</masterclipid>
            <effect>
              <name>Outline Text</name>
              <effectid>Outline Text</effectid>
              <effectcategory>Text</effectcategory>
              <effecttype>generator</effecttype>
              <mediatype>video</mediatype>
              <parameter>
                <parameterid>part1</parameterid>
                <name>Text Settings</name>
                <value/>
              </parameter>
              <parameter>
                <parameterid>str</parameterid>
                <name>Text</name>
                <value>みんなで話してる埋めたいです</value>
              </parameter>
              <parameter>
                <parameterid>font</parameterid>
                <name>Font</name>
                <value>HiraginoSans-W6</value>
              </parameter>
              <parameter>
                <parameterid>style</parameterid>
                <name>Style</name>
                <valuemin>1</valuemin>
                <valuemax>1</valuemax>
                <valuelist>
                  <valueentry>
                    <name>Regular</name>
                    <value>1</value>
                  </valueentry>
                </valuelist>
                <value>1</value>
              </parameter>
              <parameter>
                <parameterid>align</parameterid>
                <name>Alignment</name>
                <valuemin>1</valuemin>
                <valuemax>3</valuemax>
                <valuelist>
                  <valueentry>
                    <name>Left</name>
                    <value>1</value>
                  </valueentry>
                  <valueentry>
                    <name>Center</name>
                    <value>2</value>
                  </valueentry>
                  <valueentry>
                    <name>Right</name>
                    <value>3</value>
                  </valueentry>
                </valuelist>
                <value>2</value>
              </parameter>
              <parameter>
                <parameterid>size</parameterid>
                <name>Size</name>
                <valuemin>0</valuemin>
                <valuemax>200</valuemax>
                <value>24</value>
              </parameter>
              <parameter>
                <parameterid>track</parameterid>
                <name>Tracking</name>
                <valuemin>0</valuemin>
                <valuemax>100</valuemax>
                <value>1</value>
              </parameter>
              <parameter>
                <parameterid>lead</parameterid>
                <name>Leading</name>
                <valuemin>-100</valuemin>
                <valuemax>100</valuemax>
                <value>0</value>
              </parameter>
              <parameter>
                <parameterid>aspect</parameterid>
                <name>Aspect</name>
                <valuemin>0</valuemin>
                <valuemax>4</valuemax>
                <value>1</value>
              </parameter>
              <parameter>
                <parameterid>linewidth</parameterid>
                <name>Line Width</name>
                <valuemin>0</valuemin>
                <valuemax>200</valuemax>
                <value>2</value>
              </parameter>
              <parameter>
                <parameterid>linesoft</parameterid>
                <name>Line Softness</name>
                <valuemin>0</valuemin>
                <valuemax>100</valuemax>
                <value>5</value>
              </parameter>
              <parameter>
                <parameterid>textopacity</parameterid>
                <name>Text Opacity</name>
                <valuemin>0</valuemin>
                <valuemax>100</valuemax>
                <value>100</value>
              </parameter>
              <parameter>
                <parameterid>center</parameterid>
                <name>Center</name>
                <value>
                  <horiz>0</horiz>
                  <vert>0.4703703703703703</vert>
                </value>
              </parameter>
              <parameter>
                <parameterid>textcolor</parameterid>
                <name>Text Color</name>
                <value>
                  <alpha>255</alpha>
                  <red>255</red>
                  <green>255</green>
                  <blue>255</blue>
                </value>
              </parameter>
              <parameter>
                <parameterid>supertext</parameterid>
                <name>Text Graphic</name>
              </parameter>
              <parameter>
                <parameterid>linecolor</parameterid>
                <name>Line Color</name>
                <value>
                  <alpha>255</alpha>
                  <red>0</red>
                  <green>0</green>
                  <blue>0</blue>
                </value>
              </parameter>
              <parameter>
                <parameterid>superline</parameterid>
                <name>Line Graphic</name>
              </parameter>
              <parameter>
                <parameterid>part2</parameterid>
                <name>Background Settings</name>
              </parameter>
              <parameter>
                <parameterid>xscale</parameterid>
                <name>Horizontal Size</name>
                <valuemin>0</valuemin>
                <valuemax>200</valuemax>
                <value>0</value>
              </parameter>
              <parameter>
                <parameterid>yscale</parameterid>
                <name>Vertical Size</name>
                <valuemin>0</valuemin>
                <valuemax>200</valuemax>
                <value>0</value>
              </parameter>
              <parameter>
                <parameterid>xoffset</parameterid>
                <name>Horizontal Offset</name>
                <valuemin>-100</valuemin>
                <valuemax>100</valuemax>
                <value>0</value>
              </parameter>
              <parameter>
                <parameterid>yoffset</parameterid>
                <name>Vertical Offset</name>
                <valuemin>-100</valuemin>
                <valuemax>100</valuemax>
                <value>0</value>
              </parameter>
              <parameter>
                <parameterid>backsoft</parameterid>
                <name>Back Soft</name>
                <valuemin>0</valuemin>
                <valuemax>100</valuemax>
                <value>0</value>
              </parameter>
              <parameter>
                <parameterid>backopacity</parameterid>
                <name>Back Opacity</name>
                <valuemin>0</valuemin>
                <valuemax>100</valuemax>
                <value>50</value>
              </parameter>
              <parameter>
                <parameterid>backcolor</parameterid>
                <name>Back Color</name>
                <value>
                  <alpha>255</alpha>
                  <red>255</red>
                  <green>255</green>
                  <blue>255</blue>
                </value>
              </parameter>
              <parameter>
                <parameterid>superback</parameterid>
                <name>Back Graphic</name>
              </parameter>
              <parameter>
                <parameterid>crop</parameterid>
                <name>Crop</name>
                <value>false</value>
              </parameter>
              <parameter>
                <parameterid>autokern</parameterid>
                <name>Auto Kerning</name>
                <value>true</value>
              </parameter>
            </effect>
            <sourcetrack>
              <mediatype>video</mediatype>
            </sourcetrack>
          </generatoritem>
          <generatoritem id="Outline Text1">
            <name>今もうちょっとずつちょっとずつ動き出してるので言えないこと</name>
            <duration>22166.1117</duration>
            <rate>
              <timebase>30</timebase>
              <ntsc>true</ntsc>
            </rate>
            <start>3648.8475000000008</start>
            <end>3764.8314</end>
            <in>3648.8475000000008</in>
            <out>3764.8314</out>
            <enabled>true</enabled>
            <anamorphic>false</anamorphic>
            <alphatype>black</alphatype>
            <masterclipid>Outline Text1</masterclipid>
            <effect>
              <name>Outline Text</name>
              <effectid>Outline Text</effectid>
              <effectcategory>Text</effectcategory>
              <effecttype>generator</effecttype>
              <mediatype>video</mediatype>
              <parameter>
                <parameterid>part1</parameterid>
                <name>Text Settings</name>
                <value/>
              </parameter>
              <parameter>
                <parameterid>str</parameterid>
                <name>Text</name>
                <value>今もうちょっとずつちょっとずつ動き出してるので言えないこと</value>
              </parameter>
              <parameter>
                <parameterid>font</parameterid>
                <name>Font</name>
                <value>HiraginoSans-W6</value>
              </parameter>
              <parameter>
                <parameterid>style</parameterid>
                <name>Style</name>
                <valuemin>1</valuemin>
                <valuemax>1</valuemax>
                <valuelist>
                  <valueentry>
                    <name>Regular</name>
                    <value>1</value>
                  </valueentry>
                </valuelist>
                <value>1</value>
              </parameter>
              <parameter>
                <parameterid>align</parameterid>
                <name>Alignment</name>
                <valuemin>1</valuemin>
                <valuemax>3</valuemax>
                <valuelist>
                  <valueentry>
                    <name>Left</name>
                    <value>1</value>
                  </valueentry>
                  <valueentry>
                    <name>Center</name>
                    <value>2</value>
                  </valueentry>
                  <valueentry>
                    <name>Right</name>
                    <value>3</value>
                  </valueentry>
                </valuelist>
                <value>2</value>
              </parameter>
              <parameter>
                <parameterid>size</parameterid>
                <name>Size</name>
                <valuemin>0</valuemin>
                <valuemax>200</valuemax>
                <value>24</value>
              </parameter>
              <parameter>
                <parameterid>track</parameterid>
                <name>Tracking</name>
                <valuemin>0</valuemin>
                <valuemax>100</valuemax>
                <value>1</value>
              </parameter>
              <parameter>
                <parameterid>lead</parameterid>
                <name>Leading</name>
                <valuemin>-100</valuemin>
                <valuemax>100</valuemax>
                <value>0</value>
              </parameter>
              <parameter>
                <parameterid>aspect</parameterid>
                <name>Aspect</name>
                <valuemin>0</valuemin>
                <valuemax>4</valuemax>
                <value>1</value>
              </parameter>
              <parameter>
                <parameterid>linewidth</parameterid>
                <name>Line Width</name>
                <valuemin>0</valuemin>
                <valuemax>200</valuemax>
                <value>2</value>
              </parameter>
              <parameter>
                <parameterid>linesoft</parameterid>
                <name>Line Softness</name>
                <valuemin>0</valuemin>
                <valuemax>100</valuemax>
                <value>5</value>
              </parameter>
              <parameter>
                <parameterid>textopacity</parameterid>
                <name>Text Opacity</name>
                <valuemin>0</valuemin>
                <valuemax>100</valuemax>
                <value>100</value>
              </parameter>
              <parameter>
                <parameterid>center</parameterid>
                <name>Center</name>
                <value>
                  <horiz>0</horiz>
                  <vert>0.4703703703703703</vert>
                </value>
              </parameter>
              <parameter>
                <parameterid>textcolor</parameterid>
                <name>Text Color</name>
                <value>
                  <alpha>255</alpha>
                  <red>255</red>
                  <green>255</green>
                  <blue>255</blue>
                </value>
              </parameter>
              <parameter>
                <parameterid>supertext</parameterid>
                <name>Text Graphic</name>
              </parameter>
              <parameter>
                <parameterid>linecolor</parameterid>
                <name>Line Color</name>
                <value>
                  <alpha>255</alpha>
                  <red>0</red>
                  <green>0</green>
                  <blue>0</blue>
                </value>
              </parameter>
              <parameter>
                <parameterid>superline</parameterid>
                <name>Line Graphic</name>
              </parameter>
              <parameter>
                <parameterid>part2</parameterid>
                <name>Background Settings</name>
              </parameter>
              <parameter>
                <parameterid>xscale</parameterid>
                <name>Horizontal Size</name>
                <valuemin>0</valuemin>
                <valuemax>200</valuemax>
                <value>0</value>
              </parameter>
              <parameter>
                <parameterid>yscale</parameterid>
                <name>Vertical Size</name>
                <valuemin>0</valuemin>
                <valuemax>200</valuemax>
                <value>0</value>
              </parameter>
              <parameter>
                <parameterid>xoffset</parameterid>
                <name>Horizontal Offset</name>
                <valuemin>-100</valuemin>
                <valuemax>100</valuemax>
                <value>0</value>
              </parameter>
              <parameter>
                <parameterid>yoffset</parameterid>
                <name>Vertical Offset</name>
                <valuemin>-100</valuemin>
                <valuemax>100</valuemax>
                <value>0</value>
              </parameter>
              <parameter>
                <parameterid>backsoft</parameterid>
                <name>Back Soft</name>
                <valuemin>0</valuemin>
                <valuemax>100</valuemax>
                <value>0</value>
              </parameter>
              <parameter>
                <parameterid>backopacity</parameterid>
                <name>Back Opacity</name>
                <valuemin>0</valuemin>
                <valuemax>100</valuemax>
                <value>50</value>
              </parameter>
              <parameter>
                <parameterid>backcolor</parameterid>
                <name>Back Color</name>
                <value>
                  <alpha>255</alpha>
                  <red>255</red>
                  <green>255</green>
                  <blue>255</blue>
                </value>
              </parameter>
              <parameter>
                <parameterid>superback</parameterid>
                <name>Back Graphic</name>
              </parameter>
              <parameter>
                <parameterid>crop</parameterid>
                <name>Crop</name>
                <value>false</value>
              </parameter>
              <parameter>
                <parameterid>autokern</parameterid>
                <name>Auto Kerning</name>
                <value>true</value>
              </parameter>
            </effect>
            <sourcetrack>
              <mediatype>video</mediatype>
            </sourcetrack>
          </generatoritem>
          <generatoritem id="Outline Text1">
            <name>たくさんあるし私たちも知らないことがたくさんあるんです</name>
            <duration>22166.1117</duration>
            <rate>
              <timebase>30</timebase>
              <ntsc>true</ntsc>
            </rate>
            <start>3764.8314</start>
            <end>3879.3167999999996</end>
            <in>3764.8314</in>
            <out>3879.3167999999996</out>
            <enabled>true</enabled>
            <anamorphic>false</anamorphic>
            <alphatype>black</alphatype>
            <masterclipid>Outline Text1</masterclipid>
            <effect>
              <name>Outline Text</name>
              <effectid>Outline Text</effectid>
              <effectcategory>Text</effectcategory>
              <effecttype>generator</effecttype>
              <mediatype>video</mediatype>
              <parameter>
                <parameterid>part1</parameterid>
                <name>Text Settings</name>
                <value/>
              </parameter>
              <parameter>
                <parameterid>str</parameterid>
                <name>Text</name>
                <value>たくさんあるし私たちも知らないことがたくさんあるんです</value>
              </parameter>
              <parameter>
                <parameterid>font</parameterid>
                <name>Font</name>
                <value>HiraginoSans-W6</value>
              </parameter>
              <parameter>
                <parameterid>style</parameterid>
                <name>Style</name>
                <valuemin>1</valuemin>
                <valuemax>1</valuemax>
                <valuelist>
                  <valueentry>
                    <name>Regular</name>
                    <value>1</value>
                  </valueentry>
                </valuelist>
                <value>1</value>
              </parameter>
              <parameter>
                <parameterid>align</parameterid>
                <name>Alignment</name>
                <valuemin>1</valuemin>
                <valuemax>3</valuemax>
                <valuelist>
                  <valueentry>
                    <name>Left</name>
                    <value>1</value>
                  </valueentry>
                  <valueentry>
                    <name>Center</name>
                    <value>2</value>
                  </valueentry>
                  <valueentry>
                    <name>Right</name>
                    <value>3</value>
                  </valueentry>
                </valuelist>
                <value>2</value>
              </parameter>
              <parameter>
                <parameterid>size</parameterid>
                <name>Size</name>
                <valuemin>0</valuemin>
                <valuemax>200</valuemax>
                <value>24</value>
              </parameter>
              <parameter>
                <parameterid>track</parameterid>
                <name>Tracking</name>
                <valuemin>0</valuemin>
                <valuemax>100</valuemax>
                <value>1</value>
              </parameter>
              <parameter>
                <parameterid>lead</parameterid>
                <name>Leading</name>
                <valuemin>-100</valuemin>
                <valuemax>100</valuemax>
                <value>0</value>
              </parameter>
              <parameter>
                <parameterid>aspect</parameterid>
                <name>Aspect</name>
                <valuemin>0</valuemin>
                <valuemax>4</valuemax>
                <value>1</value>
              </parameter>
              <parameter>
                <parameterid>linewidth</parameterid>
                <name>Line Width</name>
                <valuemin>0</valuemin>
                <valuemax>200</valuemax>
                <value>2</value>
              </parameter>
              <parameter>
                <parameterid>linesoft</parameterid>
                <name>Line Softness</name>
                <valuemin>0</valuemin>
                <valuemax>100</valuemax>
                <value>5</value>
              </parameter>
              <parameter>
                <parameterid>textopacity</parameterid>
                <name>Text Opacity</name>
                <valuemin>0</valuemin>
                <valuemax>100</valuemax>
                <value>100</value>
              </parameter>
              <parameter>
                <parameterid>center</parameterid>
                <name>Center</name>
                <value>
                  <horiz>0</horiz>
                  <vert>0.4703703703703703</vert>
                </value>
              </parameter>
              <parameter>
                <parameterid>textcolor</parameterid>
                <name>Text Color</name>
                <value>
                  <alpha>255</alpha>
                  <red>255</red>
                  <green>255</green>
                  <blue>255</blue>
                </value>
              </parameter>
              <parameter>
                <parameterid>supertext</parameterid>
                <name>Text Graphic</name>
              </parameter>
              <parameter>
                <parameterid>linecolor</parameterid>
                <name>Line Color</name>
                <value>
                  <alpha>255</alpha>
                  <red>0</red>
                  <green>0</green>
                  <blue>0</blue>
                </value>
              </parameter>
              <parameter>
                <parameterid>superline</parameterid>
                <name>Line Graphic</name>
              </parameter>
              <parameter>
                <parameterid>part2</parameterid>
                <name>Background Settings</name>
              </parameter>
              <parameter>
                <parameterid>xscale</parameterid>
                <name>Horizontal Size</name>
                <valuemin>0</valuemin>
                <valuemax>200</valuemax>
                <value>0</value>
              </parameter>
              <parameter>
                <parameterid>yscale</parameterid>
                <name>Vertical Size</name>
                <valuemin>0</valuemin>
                <valuemax>200</valuemax>
                <value>0</value>
              </parameter>
              <parameter>
                <parameterid>xoffset</parameterid>
                <name>Horizontal Offset</name>
                <valuemin>-100</valuemin>
                <valuemax>100</valuemax>
                <value>0</value>
              </parameter>
              <parameter>
                <parameterid>yoffset</parameterid>
                <name>Vertical Offset</name>
                <valuemin>-100</valuemin>
                <valuemax>100</valuemax>
                <value>0</value>
              </parameter>
              <parameter>
                <parameterid>backsoft</parameterid>
                <name>Back Soft</name>
                <valuemin>0</valuemin>
                <valuemax>100</valuemax>
                <value>0</value>
              </parameter>
              <parameter>
                <parameterid>backopacity</parameterid>
                <name>Back Opacity</name>
                <valuemin>0</valuemin>
                <valuemax>100</valuemax>
                <value>50</value>
              </parameter>
              <parameter>
                <parameterid>backcolor</parameterid>
                <name>Back Color</name>
                <value>
                  <alpha>255</alpha>
                  <red>255</red>
                  <green>255</green>
                  <blue>255</blue>
                </value>
              </parameter>
              <parameter>
                <parameterid>superback</parameterid>
                <name>Back Graphic</name>
              </parameter>
              <parameter>
                <parameterid>crop</parameterid>
                <name>Crop</name>
                <value>false</value>
              </parameter>
              <parameter>
                <parameterid>autokern</parameterid>
                <name>Auto Kerning</name>
                <value>true</value>
              </parameter>
            </effect>
            <sourcetrack>
              <mediatype>video</mediatype>
            </sourcetrack>
          </generatoritem>
          <generatoritem id="Outline Text1">
            <name>まだまだスタッフさんも教えてくれてないこともある</name>
            <duration>22166.1117</duration>
            <rate>
              <timebase>30</timebase>
              <ntsc>true</ntsc>
            </rate>
            <start>3879.3167999999996</start>
            <end>3966.229799999999</end>
            <in>3879.3167999999996</in>
            <out>3966.229799999999</out>
            <enabled>true</enabled>
            <anamorphic>false</anamorphic>
            <alphatype>black</alphatype>
            <masterclipid>Outline Text1</masterclipid>
            <effect>
              <name>Outline Text</name>
              <effectid>Outline Text</effectid>
              <effectcategory>Text</effectcategory>
              <effecttype>generator</effecttype>
              <mediatype>video</mediatype>
              <parameter>
                <parameterid>part1</parameterid>
                <name>Text Settings</name>
                <value/>
              </parameter>
              <parameter>
                <parameterid>str</parameterid>
                <name>Text</name>
                <value>まだまだスタッフさんも教えてくれてないこともある</value>
              </parameter>
              <parameter>
                <parameterid>font</parameterid>
                <name>Font</name>
                <value>HiraginoSans-W6</value>
              </parameter>
              <parameter>
                <parameterid>style</parameterid>
                <name>Style</name>
                <valuemin>1</valuemin>
                <valuemax>1</valuemax>
                <valuelist>
                  <valueentry>
                    <name>Regular</name>
                    <value>1</value>
                  </valueentry>
                </valuelist>
                <value>1</value>
              </parameter>
              <parameter>
                <parameterid>align</parameterid>
                <name>Alignment</name>
                <valuemin>1</valuemin>
                <valuemax>3</valuemax>
                <valuelist>
                  <valueentry>
                    <name>Left</name>
                    <value>1</value>
                  </valueentry>
                  <valueentry>
                    <name>Center</name>
                    <value>2</value>
                  </valueentry>
                  <valueentry>
                    <name>Right</name>
                    <value>3</value>
                  </valueentry>
                </valuelist>
                <value>2</value>
              </parameter>
              <parameter>
                <parameterid>size</parameterid>
                <name>Size</name>
                <valuemin>0</valuemin>
                <valuemax>200</valuemax>
                <value>24</value>
              </parameter>
              <parameter>
                <parameterid>track</parameterid>
                <name>Tracking</name>
                <valuemin>0</valuemin>
                <valuemax>100</valuemax>
                <value>1</value>
              </parameter>
              <parameter>
                <parameterid>lead</parameterid>
                <name>Leading</name>
                <valuemin>-100</valuemin>
                <valuemax>100</valuemax>
                <value>0</value>
              </parameter>
              <parameter>
                <parameterid>aspect</parameterid>
                <name>Aspect</name>
                <valuemin>0</valuemin>
                <valuemax>4</valuemax>
                <value>1</value>
              </parameter>
              <parameter>
                <parameterid>linewidth</parameterid>
                <name>Line Width</name>
                <valuemin>0</valuemin>
                <valuemax>200</valuemax>
                <value>2</value>
              </parameter>
              <parameter>
                <parameterid>linesoft</parameterid>
                <name>Line Softness</name>
                <valuemin>0</valuemin>
                <valuemax>100</valuemax>
                <value>5</value>
              </parameter>
              <parameter>
                <parameterid>textopacity</parameterid>
                <name>Text Opacity</name>
                <valuemin>0</valuemin>
                <valuemax>100</valuemax>
                <value>100</value>
              </parameter>
              <parameter>
                <parameterid>center</parameterid>
                <name>Center</name>
                <value>
                  <horiz>0</horiz>
                  <vert>0.4703703703703703</vert>
                </value>
              </parameter>
              <parameter>
                <parameterid>textcolor</parameterid>
                <name>Text Color</name>
                <value>
                  <alpha>255</alpha>
                  <red>255</red>
                  <green>255</green>
                  <blue>255</blue>
                </value>
              </parameter>
              <parameter>
                <parameterid>supertext</parameterid>
                <name>Text Graphic</name>
              </parameter>
              <parameter>
                <parameterid>linecolor</parameterid>
                <name>Line Color</name>
                <value>
                  <alpha>255</alpha>
                  <red>0</red>
                  <green>0</green>
                  <blue>0</blue>
                </value>
              </parameter>
              <parameter>
                <parameterid>superline</parameterid>
                <name>Line Graphic</name>
              </parameter>
              <parameter>
                <parameterid>part2</parameterid>
                <name>Background Settings</name>
              </parameter>
              <parameter>
                <parameterid>xscale</parameterid>
                <name>Horizontal Size</name>
                <valuemin>0</valuemin>
                <valuemax>200</valuemax>
                <value>0</value>
              </parameter>
              <parameter>
                <parameterid>yscale</parameterid>
                <name>Vertical Size</name>
                <valuemin>0</valuemin>
                <valuemax>200</valuemax>
                <value>0</value>
              </parameter>
              <parameter>
                <parameterid>xoffset</parameterid>
                <name>Horizontal Offset</name>
                <valuemin>-100</valuemin>
                <valuemax>100</valuemax>
                <value>0</value>
              </parameter>
              <parameter>
                <parameterid>yoffset</parameterid>
                <name>Vertical Offset</name>
                <valuemin>-100</valuemin>
                <valuemax>100</valuemax>
                <value>0</value>
              </parameter>
              <parameter>
                <parameterid>backsoft</parameterid>
                <name>Back Soft</name>
                <valuemin>0</valuemin>
                <valuemax>100</valuemax>
                <value>0</value>
              </parameter>
              <parameter>
                <parameterid>backopacity</parameterid>
                <name>Back Opacity</name>
                <valuemin>0</valuemin>
                <valuemax>100</valuemax>
                <value>50</value>
              </parameter>
              <parameter>
                <parameterid>backcolor</parameterid>
                <name>Back Color</name>
                <value>
                  <alpha>255</alpha>
                  <red>255</red>
                  <green>255</green>
                  <blue>255</blue>
                </value>
              </parameter>
              <parameter>
                <parameterid>superback</parameterid>
                <name>Back Graphic</name>
              </parameter>
              <parameter>
                <parameterid>crop</parameterid>
                <name>Crop</name>
                <value>false</value>
              </parameter>
              <parameter>
                <parameterid>autokern</parameterid>
                <name>Auto Kerning</name>
                <value>true</value>
              </parameter>
            </effect>
            <sourcetrack>
              <mediatype>video</mediatype>
            </sourcetrack>
          </generatoritem>
          <generatoritem id="Outline Text1">
            <name>楽しみです</name>
            <duration>22166.1117</duration>
            <rate>
              <timebase>30</timebase>
              <ntsc>true</ntsc>
            </rate>
            <start>3966.229799999999</start>
            <end>3991.4045999999994</end>
            <in>3966.229799999999</in>
            <out>3991.4045999999994</out>
            <enabled>true</enabled>
            <anamorphic>false</anamorphic>
            <alphatype>black</alphatype>
            <masterclipid>Outline Text1</masterclipid>
            <effect>
              <name>Outline Text</name>
              <effectid>Outline Text</effectid>
              <effectcategory>Text</effectcategory>
              <effecttype>generator</effecttype>
              <mediatype>video</mediatype>
              <parameter>
                <parameterid>part1</parameterid>
                <name>Text Settings</name>
                <value/>
              </parameter>
              <parameter>
                <parameterid>str</parameterid>
                <name>Text</name>
                <value>楽しみです</value>
              </parameter>
              <parameter>
                <parameterid>font</parameterid>
                <name>Font</name>
                <value>HiraginoSans-W6</value>
              </parameter>
              <parameter>
                <parameterid>style</parameterid>
                <name>Style</name>
                <valuemin>1</valuemin>
                <valuemax>1</valuemax>
                <valuelist>
                  <valueentry>
                    <name>Regular</name>
                    <value>1</value>
                  </valueentry>
                </valuelist>
                <value>1</value>
              </parameter>
              <parameter>
                <parameterid>align</parameterid>
                <name>Alignment</name>
                <valuemin>1</valuemin>
                <valuemax>3</valuemax>
                <valuelist>
                  <valueentry>
                    <name>Left</name>
                    <value>1</value>
                  </valueentry>
                  <valueentry>
                    <name>Center</name>
                    <value>2</value>
                  </valueentry>
                  <valueentry>
                    <name>Right</name>
                    <value>3</value>
                  </valueentry>
                </valuelist>
                <value>2</value>
              </parameter>
              <parameter>
                <parameterid>size</parameterid>
                <name>Size</name>
                <valuemin>0</valuemin>
                <valuemax>200</valuemax>
                <value>24</value>
              </parameter>
              <parameter>
                <parameterid>track</parameterid>
                <name>Tracking</name>
                <valuemin>0</valuemin>
                <valuemax>100</valuemax>
                <value>1</value>
              </parameter>
              <parameter>
                <parameterid>lead</parameterid>
                <name>Leading</name>
                <valuemin>-100</valuemin>
                <valuemax>100</valuemax>
                <value>0</value>
              </parameter>
              <parameter>
                <parameterid>aspect</parameterid>
                <name>Aspect</name>
                <valuemin>0</valuemin>
                <valuemax>4</valuemax>
                <value>1</value>
              </parameter>
              <parameter>
                <parameterid>linewidth</parameterid>
                <name>Line Width</name>
                <valuemin>0</valuemin>
                <valuemax>200</valuemax>
                <value>2</value>
              </parameter>
              <parameter>
                <parameterid>linesoft</parameterid>
                <name>Line Softness</name>
                <valuemin>0</valuemin>
                <valuemax>100</valuemax>
                <value>5</value>
              </parameter>
              <parameter>
                <parameterid>textopacity</parameterid>
                <name>Text Opacity</name>
                <valuemin>0</valuemin>
                <valuemax>100</valuemax>
                <value>100</value>
              </parameter>
              <parameter>
                <parameterid>center</parameterid>
                <name>Center</name>
                <value>
                  <horiz>0</horiz>
                  <vert>0.4703703703703703</vert>
                </value>
              </parameter>
              <parameter>
                <parameterid>textcolor</parameterid>
                <name>Text Color</name>
                <value>
                  <alpha>255</alpha>
                  <red>255</red>
                  <green>255</green>
                  <blue>255</blue>
                </value>
              </parameter>
              <parameter>
                <parameterid>supertext</parameterid>
                <name>Text Graphic</name>
              </parameter>
              <parameter>
                <parameterid>linecolor</parameterid>
                <name>Line Color</name>
                <value>
                  <alpha>255</alpha>
                  <red>0</red>
                  <green>0</green>
                  <blue>0</blue>
                </value>
              </parameter>
              <parameter>
                <parameterid>superline</parameterid>
                <name>Line Graphic</name>
              </parameter>
              <parameter>
                <parameterid>part2</parameterid>
                <name>Background Settings</name>
              </parameter>
              <parameter>
                <parameterid>xscale</parameterid>
                <name>Horizontal Size</name>
                <valuemin>0</valuemin>
                <valuemax>200</valuemax>
                <value>0</value>
              </parameter>
              <parameter>
                <parameterid>yscale</parameterid>
                <name>Vertical Size</name>
                <valuemin>0</valuemin>
                <valuemax>200</valuemax>
                <value>0</value>
              </parameter>
              <parameter>
                <parameterid>xoffset</parameterid>
                <name>Horizontal Offset</name>
                <valuemin>-100</valuemin>
                <valuemax>100</valuemax>
                <value>0</value>
              </parameter>
              <parameter>
                <parameterid>yoffset</parameterid>
                <name>Vertical Offset</name>
                <valuemin>-100</valuemin>
                <valuemax>100</valuemax>
                <value>0</value>
              </parameter>
              <parameter>
                <parameterid>backsoft</parameterid>
                <name>Back Soft</name>
                <valuemin>0</valuemin>
                <valuemax>100</valuemax>
                <value>0</value>
              </parameter>
              <parameter>
                <parameterid>backopacity</parameterid>
                <name>Back Opacity</name>
                <valuemin>0</valuemin>
                <valuemax>100</valuemax>
                <value>50</value>
              </parameter>
              <parameter>
                <parameterid>backcolor</parameterid>
                <name>Back Color</name>
                <value>
                  <alpha>255</alpha>
                  <red>255</red>
                  <green>255</green>
                  <blue>255</blue>
                </value>
              </parameter>
              <parameter>
                <parameterid>superback</parameterid>
                <name>Back Graphic</name>
              </parameter>
              <parameter>
                <parameterid>crop</parameterid>
                <name>Crop</name>
                <value>false</value>
              </parameter>
              <parameter>
                <parameterid>autokern</parameterid>
                <name>Auto Kerning</name>
                <value>true</value>
              </parameter>
            </effect>
            <sourcetrack>
              <mediatype>video</mediatype>
            </sourcetrack>
          </generatoritem>
          <generatoritem id="Outline Text1">
            <name>これからで劇団の名前を変えて</name>
            <duration>22166.1117</duration>
            <rate>
              <timebase>30</timebase>
              <ntsc>true</ntsc>
            </rate>
            <start>3991.4045999999994</start>
            <end>4076.5194</end>
            <in>3991.4045999999994</in>
            <out>4076.5194</out>
            <enabled>true</enabled>
            <anamorphic>false</anamorphic>
            <alphatype>black</alphatype>
            <masterclipid>Outline Text1</masterclipid>
            <effect>
              <name>Outline Text</name>
              <effectid>Outline Text</effectid>
              <effectcategory>Text</effectcategory>
              <effecttype>generator</effecttype>
              <mediatype>video</mediatype>
              <parameter>
                <parameterid>part1</parameterid>
                <name>Text Settings</name>
                <value/>
              </parameter>
              <parameter>
                <parameterid>str</parameterid>
                <name>Text</name>
                <value>これからで劇団の名前を変えて</value>
              </parameter>
              <parameter>
                <parameterid>font</parameterid>
                <name>Font</name>
                <value>HiraginoSans-W6</value>
              </parameter>
              <parameter>
                <parameterid>style</parameterid>
                <name>Style</name>
                <valuemin>1</valuemin>
                <valuemax>1</valuemax>
                <valuelist>
                  <valueentry>
                    <name>Regular</name>
                    <value>1</value>
                  </valueentry>
                </valuelist>
                <value>1</value>
              </parameter>
              <parameter>
                <parameterid>align</parameterid>
                <name>Alignment</name>
                <valuemin>1</valuemin>
                <valuemax>3</valuemax>
                <valuelist>
                  <valueentry>
                    <name>Left</name>
                    <value>1</value>
                  </valueentry>
                  <valueentry>
                    <name>Center</name>
                    <value>2</value>
                  </valueentry>
                  <valueentry>
                    <name>Right</name>
                    <value>3</value>
                  </valueentry>
                </valuelist>
                <value>2</value>
              </parameter>
              <parameter>
                <parameterid>size</parameterid>
                <name>Size</name>
                <valuemin>0</valuemin>
                <valuemax>200</valuemax>
                <value>24</value>
              </parameter>
              <parameter>
                <parameterid>track</parameterid>
                <name>Tracking</name>
                <valuemin>0</valuemin>
                <valuemax>100</valuemax>
                <value>1</value>
              </parameter>
              <parameter>
                <parameterid>lead</parameterid>
                <name>Leading</name>
                <valuemin>-100</valuemin>
                <valuemax>100</valuemax>
                <value>0</value>
              </parameter>
              <parameter>
                <parameterid>aspect</parameterid>
                <name>Aspect</name>
                <valuemin>0</valuemin>
                <valuemax>4</valuemax>
                <value>1</value>
              </parameter>
              <parameter>
                <parameterid>linewidth</parameterid>
                <name>Line Width</name>
                <valuemin>0</valuemin>
                <valuemax>200</valuemax>
                <value>2</value>
              </parameter>
              <parameter>
                <parameterid>linesoft</parameterid>
                <name>Line Softness</name>
                <valuemin>0</valuemin>
                <valuemax>100</valuemax>
                <value>5</value>
              </parameter>
              <parameter>
                <parameterid>textopacity</parameterid>
                <name>Text Opacity</name>
                <valuemin>0</valuemin>
                <valuemax>100</valuemax>
                <value>100</value>
              </parameter>
              <parameter>
                <parameterid>center</parameterid>
                <name>Center</name>
                <value>
                  <horiz>0</horiz>
                  <vert>0.4703703703703703</vert>
                </value>
              </parameter>
              <parameter>
                <parameterid>textcolor</parameterid>
                <name>Text Color</name>
                <value>
                  <alpha>255</alpha>
                  <red>255</red>
                  <green>255</green>
                  <blue>255</blue>
                </value>
              </parameter>
              <parameter>
                <parameterid>supertext</parameterid>
                <name>Text Graphic</name>
              </parameter>
              <parameter>
                <parameterid>linecolor</parameterid>
                <name>Line Color</name>
                <value>
                  <alpha>255</alpha>
                  <red>0</red>
                  <green>0</green>
                  <blue>0</blue>
                </value>
              </parameter>
              <parameter>
                <parameterid>superline</parameterid>
                <name>Line Graphic</name>
              </parameter>
              <parameter>
                <parameterid>part2</parameterid>
                <name>Background Settings</name>
              </parameter>
              <parameter>
                <parameterid>xscale</parameterid>
                <name>Horizontal Size</name>
                <valuemin>0</valuemin>
                <valuemax>200</valuemax>
                <value>0</value>
              </parameter>
              <parameter>
                <parameterid>yscale</parameterid>
                <name>Vertical Size</name>
                <valuemin>0</valuemin>
                <valuemax>200</valuemax>
                <value>0</value>
              </parameter>
              <parameter>
                <parameterid>xoffset</parameterid>
                <name>Horizontal Offset</name>
                <valuemin>-100</valuemin>
                <valuemax>100</valuemax>
                <value>0</value>
              </parameter>
              <parameter>
                <parameterid>yoffset</parameterid>
                <name>Vertical Offset</name>
                <valuemin>-100</valuemin>
                <valuemax>100</valuemax>
                <value>0</value>
              </parameter>
              <parameter>
                <parameterid>backsoft</parameterid>
                <name>Back Soft</name>
                <valuemin>0</valuemin>
                <valuemax>100</valuemax>
                <value>0</value>
              </parameter>
              <parameter>
                <parameterid>backopacity</parameterid>
                <name>Back Opacity</name>
                <valuemin>0</valuemin>
                <valuemax>100</valuemax>
                <value>50</value>
              </parameter>
              <parameter>
                <parameterid>backcolor</parameterid>
                <name>Back Color</name>
                <value>
                  <alpha>255</alpha>
                  <red>255</red>
                  <green>255</green>
                  <blue>255</blue>
                </value>
              </parameter>
              <parameter>
                <parameterid>superback</parameterid>
                <name>Back Graphic</name>
              </parameter>
              <parameter>
                <parameterid>crop</parameterid>
                <name>Crop</name>
                <value>false</value>
              </parameter>
              <parameter>
                <parameterid>autokern</parameterid>
                <name>Auto Kerning</name>
                <value>true</value>
              </parameter>
            </effect>
            <sourcetrack>
              <mediatype>video</mediatype>
            </sourcetrack>
          </generatoritem>
          <generatoritem id="Outline Text1">
            <name>今の劇団オールウェイズ選挙になってからは</name>
            <duration>22166.1117</duration>
            <rate>
              <timebase>30</timebase>
              <ntsc>true</ntsc>
            </rate>
            <start>4076.5194</start>
            <end>4152.942899999999</end>
            <in>4076.5194</in>
            <out>4152.942899999999</out>
            <enabled>true</enabled>
            <anamorphic>false</anamorphic>
            <alphatype>black</alphatype>
            <masterclipid>Outline Text1</masterclipid>
            <effect>
              <name>Outline Text</name>
              <effectid>Outline Text</effectid>
              <effectcategory>Text</effectcategory>
              <effecttype>generator</effecttype>
              <mediatype>video</mediatype>
              <parameter>
                <parameterid>part1</parameterid>
                <name>Text Settings</name>
                <value/>
              </parameter>
              <parameter>
                <parameterid>str</parameterid>
                <name>Text</name>
                <value>今の劇団オールウェイズ選挙になってからは</value>
              </parameter>
              <parameter>
                <parameterid>font</parameterid>
                <name>Font</name>
                <value>HiraginoSans-W6</value>
              </parameter>
              <parameter>
                <parameterid>style</parameterid>
                <name>Style</name>
                <valuemin>1</valuemin>
                <valuemax>1</valuemax>
                <valuelist>
                  <valueentry>
                    <name>Regular</name>
                    <value>1</value>
                  </valueentry>
                </valuelist>
                <value>1</value>
              </parameter>
              <parameter>
                <parameterid>align</parameterid>
                <name>Alignment</name>
                <valuemin>1</valuemin>
                <valuemax>3</valuemax>
                <valuelist>
                  <valueentry>
                    <name>Left</name>
                    <value>1</value>
                  </valueentry>
                  <valueentry>
                    <name>Center</name>
                    <value>2</value>
                  </valueentry>
                  <valueentry>
                    <name>Right</name>
                    <value>3</value>
                  </valueentry>
                </valuelist>
                <value>2</value>
              </parameter>
              <parameter>
                <parameterid>size</parameterid>
                <name>Size</name>
                <valuemin>0</valuemin>
                <valuemax>200</valuemax>
                <value>24</value>
              </parameter>
              <parameter>
                <parameterid>track</parameterid>
                <name>Tracking</name>
                <valuemin>0</valuemin>
                <valuemax>100</valuemax>
                <value>1</value>
              </parameter>
              <parameter>
                <parameterid>lead</parameterid>
                <name>Leading</name>
                <valuemin>-100</valuemin>
                <valuemax>100</valuemax>
                <value>0</value>
              </parameter>
              <parameter>
                <parameterid>aspect</parameterid>
                <name>Aspect</name>
                <valuemin>0</valuemin>
                <valuemax>4</valuemax>
                <value>1</value>
              </parameter>
              <parameter>
                <parameterid>linewidth</parameterid>
                <name>Line Width</name>
                <valuemin>0</valuemin>
                <valuemax>200</valuemax>
                <value>2</value>
              </parameter>
              <parameter>
                <parameterid>linesoft</parameterid>
                <name>Line Softness</name>
                <valuemin>0</valuemin>
                <valuemax>100</valuemax>
                <value>5</value>
              </parameter>
              <parameter>
                <parameterid>textopacity</parameterid>
                <name>Text Opacity</name>
                <valuemin>0</valuemin>
                <valuemax>100</valuemax>
                <value>100</value>
              </parameter>
              <parameter>
                <parameterid>center</parameterid>
                <name>Center</name>
                <value>
                  <horiz>0</horiz>
                  <vert>0.4703703703703703</vert>
                </value>
              </parameter>
              <parameter>
                <parameterid>textcolor</parameterid>
                <name>Text Color</name>
                <value>
                  <alpha>255</alpha>
                  <red>255</red>
                  <green>255</green>
                  <blue>255</blue>
                </value>
              </parameter>
              <parameter>
                <parameterid>supertext</parameterid>
                <name>Text Graphic</name>
              </parameter>
              <parameter>
                <parameterid>linecolor</parameterid>
                <name>Line Color</name>
                <value>
                  <alpha>255</alpha>
                  <red>0</red>
                  <green>0</green>
                  <blue>0</blue>
                </value>
              </parameter>
              <parameter>
                <parameterid>superline</parameterid>
                <name>Line Graphic</name>
              </parameter>
              <parameter>
                <parameterid>part2</parameterid>
                <name>Background Settings</name>
              </parameter>
              <parameter>
                <parameterid>xscale</parameterid>
                <name>Horizontal Size</name>
                <valuemin>0</valuemin>
                <valuemax>200</valuemax>
                <value>0</value>
              </parameter>
              <parameter>
                <parameterid>yscale</parameterid>
                <name>Vertical Size</name>
                <valuemin>0</valuemin>
                <valuemax>200</valuemax>
                <value>0</value>
              </parameter>
              <parameter>
                <parameterid>xoffset</parameterid>
                <name>Horizontal Offset</name>
                <valuemin>-100</valuemin>
                <valuemax>100</valuemax>
                <value>0</value>
              </parameter>
              <parameter>
                <parameterid>yoffset</parameterid>
                <name>Vertical Offset</name>
                <valuemin>-100</valuemin>
                <valuemax>100</valuemax>
                <value>0</value>
              </parameter>
              <parameter>
                <parameterid>backsoft</parameterid>
                <name>Back Soft</name>
                <valuemin>0</valuemin>
                <valuemax>100</valuemax>
                <value>0</value>
              </parameter>
              <parameter>
                <parameterid>backopacity</parameterid>
                <name>Back Opacity</name>
                <valuemin>0</valuemin>
                <valuemax>100</valuemax>
                <value>50</value>
              </parameter>
              <parameter>
                <parameterid>backcolor</parameterid>
                <name>Back Color</name>
                <value>
                  <alpha>255</alpha>
                  <red>255</red>
                  <green>255</green>
                  <blue>255</blue>
                </value>
              </parameter>
              <parameter>
                <parameterid>superback</parameterid>
                <name>Back Graphic</name>
              </parameter>
              <parameter>
                <parameterid>crop</parameterid>
                <name>Crop</name>
                <value>false</value>
              </parameter>
              <parameter>
                <parameterid>autokern</parameterid>
                <name>Auto Kerning</name>
                <value>true</value>
              </parameter>
            </effect>
            <sourcetrack>
              <mediatype>video</mediatype>
            </sourcetrack>
          </generatoritem>
          <generatoritem id="Outline Text1">
            <name>今年の夏が3回目の公演になるんですけど</name>
            <duration>22166.1117</duration>
            <rate>
              <timebase>30</timebase>
              <ntsc>true</ntsc>
            </rate>
            <start>4152.942899999999</start>
            <end>4253.0427</end>
            <in>4152.942899999999</in>
            <out>4253.0427</out>
            <enabled>true</enabled>
            <anamorphic>false</anamorphic>
            <alphatype>black</alphatype>
            <masterclipid>Outline Text1</masterclipid>
            <effect>
              <name>Outline Text</name>
              <effectid>Outline Text</effectid>
              <effectcategory>Text</effectcategory>
              <effecttype>generator</effecttype>
              <mediatype>video</mediatype>
              <parameter>
                <parameterid>part1</parameterid>
                <name>Text Settings</name>
                <value/>
              </parameter>
              <parameter>
                <parameterid>str</parameterid>
                <name>Text</name>
                <value>今年の夏が3回目の公演になるんですけど</value>
              </parameter>
              <parameter>
                <parameterid>font</parameterid>
                <name>Font</name>
                <value>HiraginoSans-W6</value>
              </parameter>
              <parameter>
                <parameterid>style</parameterid>
                <name>Style</name>
                <valuemin>1</valuemin>
                <valuemax>1</valuemax>
                <valuelist>
                  <valueentry>
                    <name>Regular</name>
                    <value>1</value>
                  </valueentry>
                </valuelist>
                <value>1</value>
              </parameter>
              <parameter>
                <parameterid>align</parameterid>
                <name>Alignment</name>
                <valuemin>1</valuemin>
                <valuemax>3</valuemax>
                <valuelist>
                  <valueentry>
                    <name>Left</name>
                    <value>1</value>
                  </valueentry>
                  <valueentry>
                    <name>Center</name>
                    <value>2</value>
                  </valueentry>
                  <valueentry>
                    <name>Right</name>
                    <value>3</value>
                  </valueentry>
                </valuelist>
                <value>2</value>
              </parameter>
              <parameter>
                <parameterid>size</parameterid>
                <name>Size</name>
                <valuemin>0</valuemin>
                <valuemax>200</valuemax>
                <value>24</value>
              </parameter>
              <parameter>
                <parameterid>track</parameterid>
                <name>Tracking</name>
                <valuemin>0</valuemin>
                <valuemax>100</valuemax>
                <value>1</value>
              </parameter>
              <parameter>
                <parameterid>lead</parameterid>
                <name>Leading</name>
                <valuemin>-100</valuemin>
                <valuemax>100</valuemax>
                <value>0</value>
              </parameter>
              <parameter>
                <parameterid>aspect</parameterid>
                <name>Aspect</name>
                <valuemin>0</valuemin>
                <valuemax>4</valuemax>
                <value>1</value>
              </parameter>
              <parameter>
                <parameterid>linewidth</parameterid>
                <name>Line Width</name>
                <valuemin>0</valuemin>
                <valuemax>200</valuemax>
                <value>2</value>
              </parameter>
              <parameter>
                <parameterid>linesoft</parameterid>
                <name>Line Softness</name>
                <valuemin>0</valuemin>
                <valuemax>100</valuemax>
                <value>5</value>
              </parameter>
              <parameter>
                <parameterid>textopacity</parameterid>
                <name>Text Opacity</name>
                <valuemin>0</valuemin>
                <valuemax>100</valuemax>
                <value>100</value>
              </parameter>
              <parameter>
                <parameterid>center</parameterid>
                <name>Center</name>
                <value>
                  <horiz>0</horiz>
                  <vert>0.4703703703703703</vert>
                </value>
              </parameter>
              <parameter>
                <parameterid>textcolor</parameterid>
                <name>Text Color</name>
                <value>
                  <alpha>255</alpha>
                  <red>255</red>
                  <green>255</green>
                  <blue>255</blue>
                </value>
              </parameter>
              <parameter>
                <parameterid>supertext</parameterid>
                <name>Text Graphic</name>
              </parameter>
              <parameter>
                <parameterid>linecolor</parameterid>
                <name>Line Color</name>
                <value>
                  <alpha>255</alpha>
                  <red>0</red>
                  <green>0</green>
                  <blue>0</blue>
                </value>
              </parameter>
              <parameter>
                <parameterid>superline</parameterid>
                <name>Line Graphic</name>
              </parameter>
              <parameter>
                <parameterid>part2</parameterid>
                <name>Background Settings</name>
              </parameter>
              <parameter>
                <parameterid>xscale</parameterid>
                <name>Horizontal Size</name>
                <valuemin>0</valuemin>
                <valuemax>200</valuemax>
                <value>0</value>
              </parameter>
              <parameter>
                <parameterid>yscale</parameterid>
                <name>Vertical Size</name>
                <valuemin>0</valuemin>
                <valuemax>200</valuemax>
                <value>0</value>
              </parameter>
              <parameter>
                <parameterid>xoffset</parameterid>
                <name>Horizontal Offset</name>
                <valuemin>-100</valuemin>
                <valuemax>100</valuemax>
                <value>0</value>
              </parameter>
              <parameter>
                <parameterid>yoffset</parameterid>
                <name>Vertical Offset</name>
                <valuemin>-100</valuemin>
                <valuemax>100</valuemax>
                <value>0</value>
              </parameter>
              <parameter>
                <parameterid>backsoft</parameterid>
                <name>Back Soft</name>
                <valuemin>0</valuemin>
                <valuemax>100</valuemax>
                <value>0</value>
              </parameter>
              <parameter>
                <parameterid>backopacity</parameterid>
                <name>Back Opacity</name>
                <valuemin>0</valuemin>
                <valuemax>100</valuemax>
                <value>50</value>
              </parameter>
              <parameter>
                <parameterid>backcolor</parameterid>
                <name>Back Color</name>
                <value>
                  <alpha>255</alpha>
                  <red>255</red>
                  <green>255</green>
                  <blue>255</blue>
                </value>
              </parameter>
              <parameter>
                <parameterid>superback</parameterid>
                <name>Back Graphic</name>
              </parameter>
              <parameter>
                <parameterid>crop</parameterid>
                <name>Crop</name>
                <value>false</value>
              </parameter>
              <parameter>
                <parameterid>autokern</parameterid>
                <name>Auto Kerning</name>
                <value>true</value>
              </parameter>
            </effect>
            <sourcetrack>
              <mediatype>video</mediatype>
            </sourcetrack>
          </generatoritem>
          <generatoritem id="Outline Text1">
            <name>そっからだもんねさっきは一緒にアイリちゃんとはそこで初めて2年前?</name>
            <duration>22166.1117</duration>
            <rate>
              <timebase>30</timebase>
              <ntsc>true</ntsc>
            </rate>
            <start>4253.0427</start>
            <end>4411.284300000001</end>
            <in>4253.0427</in>
            <out>4411.284300000001</out>
            <enabled>true</enabled>
            <anamorphic>false</anamorphic>
            <alphatype>black</alphatype>
            <masterclipid>Outline Text1</masterclipid>
            <effect>
              <name>Outline Text</name>
              <effectid>Outline Text</effectid>
              <effectcategory>Text</effectcategory>
              <effecttype>generator</effecttype>
              <mediatype>video</mediatype>
              <parameter>
                <parameterid>part1</parameterid>
                <name>Text Settings</name>
                <value/>
              </parameter>
              <parameter>
                <parameterid>str</parameterid>
                <name>Text</name>
                <value>そっからだもんねさっきは一緒にアイリちゃんとはそこで初めて2年前?</value>
              </parameter>
              <parameter>
                <parameterid>font</parameterid>
                <name>Font</name>
                <value>HiraginoSans-W6</value>
              </parameter>
              <parameter>
                <parameterid>style</parameterid>
                <name>Style</name>
                <valuemin>1</valuemin>
                <valuemax>1</valuemax>
                <valuelist>
                  <valueentry>
                    <name>Regular</name>
                    <value>1</value>
                  </valueentry>
                </valuelist>
                <value>1</value>
              </parameter>
              <parameter>
                <parameterid>align</parameterid>
                <name>Alignment</name>
                <valuemin>1</valuemin>
                <valuemax>3</valuemax>
                <valuelist>
                  <valueentry>
                    <name>Left</name>
                    <value>1</value>
                  </valueentry>
                  <valueentry>
                    <name>Center</name>
                    <value>2</value>
                  </valueentry>
                  <valueentry>
                    <name>Right</name>
                    <value>3</value>
                  </valueentry>
                </valuelist>
                <value>2</value>
              </parameter>
              <parameter>
                <parameterid>size</parameterid>
                <name>Size</name>
                <valuemin>0</valuemin>
                <valuemax>200</valuemax>
                <value>24</value>
              </parameter>
              <parameter>
                <parameterid>track</parameterid>
                <name>Tracking</name>
                <valuemin>0</valuemin>
                <valuemax>100</valuemax>
                <value>1</value>
              </parameter>
              <parameter>
                <parameterid>lead</parameterid>
                <name>Leading</name>
                <valuemin>-100</valuemin>
                <valuemax>100</valuemax>
                <value>0</value>
              </parameter>
              <parameter>
                <parameterid>aspect</parameterid>
                <name>Aspect</name>
                <valuemin>0</valuemin>
                <valuemax>4</valuemax>
                <value>1</value>
              </parameter>
              <parameter>
                <parameterid>linewidth</parameterid>
                <name>Line Width</name>
                <valuemin>0</valuemin>
                <valuemax>200</valuemax>
                <value>2</value>
              </parameter>
              <parameter>
                <parameterid>linesoft</parameterid>
                <name>Line Softness</name>
                <valuemin>0</valuemin>
                <valuemax>100</valuemax>
                <value>5</value>
              </parameter>
              <parameter>
                <parameterid>textopacity</parameterid>
                <name>Text Opacity</name>
                <valuemin>0</valuemin>
                <valuemax>100</valuemax>
                <value>100</value>
              </parameter>
              <parameter>
                <parameterid>center</parameterid>
                <name>Center</name>
                <value>
                  <horiz>0</horiz>
                  <vert>0.4703703703703703</vert>
                </value>
              </parameter>
              <parameter>
                <parameterid>textcolor</parameterid>
                <name>Text Color</name>
                <value>
                  <alpha>255</alpha>
                  <red>255</red>
                  <green>255</green>
                  <blue>255</blue>
                </value>
              </parameter>
              <parameter>
                <parameterid>supertext</parameterid>
                <name>Text Graphic</name>
              </parameter>
              <parameter>
                <parameterid>linecolor</parameterid>
                <name>Line Color</name>
                <value>
                  <alpha>255</alpha>
                  <red>0</red>
                  <green>0</green>
                  <blue>0</blue>
                </value>
              </parameter>
              <parameter>
                <parameterid>superline</parameterid>
                <name>Line Graphic</name>
              </parameter>
              <parameter>
                <parameterid>part2</parameterid>
                <name>Background Settings</name>
              </parameter>
              <parameter>
                <parameterid>xscale</parameterid>
                <name>Horizontal Size</name>
                <valuemin>0</valuemin>
                <valuemax>200</valuemax>
                <value>0</value>
              </parameter>
              <parameter>
                <parameterid>yscale</parameterid>
                <name>Vertical Size</name>
                <valuemin>0</valuemin>
                <valuemax>200</valuemax>
                <value>0</value>
              </parameter>
              <parameter>
                <parameterid>xoffset</parameterid>
                <name>Horizontal Offset</name>
                <valuemin>-100</valuemin>
                <valuemax>100</valuemax>
                <value>0</value>
              </parameter>
              <parameter>
                <parameterid>yoffset</parameterid>
                <name>Vertical Offset</name>
                <valuemin>-100</valuemin>
                <valuemax>100</valuemax>
                <value>0</value>
              </parameter>
              <parameter>
                <parameterid>backsoft</parameterid>
                <name>Back Soft</name>
                <valuemin>0</valuemin>
                <valuemax>100</valuemax>
                <value>0</value>
              </parameter>
              <parameter>
                <parameterid>backopacity</parameterid>
                <name>Back Opacity</name>
                <valuemin>0</valuemin>
                <valuemax>100</valuemax>
                <value>50</value>
              </parameter>
              <parameter>
                <parameterid>backcolor</parameterid>
                <name>Back Color</name>
                <value>
                  <alpha>255</alpha>
                  <red>255</red>
                  <green>255</green>
                  <blue>255</blue>
                </value>
              </parameter>
              <parameter>
                <parameterid>superback</parameterid>
                <name>Back Graphic</name>
              </parameter>
              <parameter>
                <parameterid>crop</parameterid>
                <name>Crop</name>
                <value>false</value>
              </parameter>
              <parameter>
                <parameterid>autokern</parameterid>
                <name>Auto Kerning</name>
                <value>true</value>
              </parameter>
            </effect>
            <sourcetrack>
              <mediatype>video</mediatype>
            </sourcetrack>
          </generatoritem>
          <generatoritem id="Outline Text1">
            <name>1回公演の時10年くらい歴史ある中で一番最初が少女劇団</name>
            <duration>22166.1117</duration>
            <rate>
              <timebase>30</timebase>
              <ntsc>true</ntsc>
            </rate>
            <start>4411.284300000001</start>
            <end>4682.213100000001</end>
            <in>4411.284300000001</in>
            <out>4682.213100000001</out>
            <enabled>true</enabled>
            <anamorphic>false</anamorphic>
            <alphatype>black</alphatype>
            <masterclipid>Outline Text1</masterclipid>
            <effect>
              <name>Outline Text</name>
              <effectid>Outline Text</effectid>
              <effectcategory>Text</effectcategory>
              <effecttype>generator</effecttype>
              <mediatype>video</mediatype>
              <parameter>
                <parameterid>part1</parameterid>
                <name>Text Settings</name>
                <value/>
              </parameter>
              <parameter>
                <parameterid>str</parameterid>
                <name>Text</name>
                <value>1回公演の時10年くらい歴史ある中で一番最初が少女劇団</value>
              </parameter>
              <parameter>
                <parameterid>font</parameterid>
                <name>Font</name>
                <value>HiraginoSans-W6</value>
              </parameter>
              <parameter>
                <parameterid>style</parameterid>
                <name>Style</name>
                <valuemin>1</valuemin>
                <valuemax>1</valuemax>
                <valuelist>
                  <valueentry>
                    <name>Regular</name>
                    <value>1</value>
                  </valueentry>
                </valuelist>
                <value>1</value>
              </parameter>
              <parameter>
                <parameterid>align</parameterid>
                <name>Alignment</name>
                <valuemin>1</valuemin>
                <valuemax>3</valuemax>
                <valuelist>
                  <valueentry>
                    <name>Left</name>
                    <value>1</value>
                  </valueentry>
                  <valueentry>
                    <name>Center</name>
                    <value>2</value>
                  </valueentry>
                  <valueentry>
                    <name>Right</name>
                    <value>3</value>
                  </valueentry>
                </valuelist>
                <value>2</value>
              </parameter>
              <parameter>
                <parameterid>size</parameterid>
                <name>Size</name>
                <valuemin>0</valuemin>
                <valuemax>200</valuemax>
                <value>24</value>
              </parameter>
              <parameter>
                <parameterid>track</parameterid>
                <name>Tracking</name>
                <valuemin>0</valuemin>
                <valuemax>100</valuemax>
                <value>1</value>
              </parameter>
              <parameter>
                <parameterid>lead</parameterid>
                <name>Leading</name>
                <valuemin>-100</valuemin>
                <valuemax>100</valuemax>
                <value>0</value>
              </parameter>
              <parameter>
                <parameterid>aspect</parameterid>
                <name>Aspect</name>
                <valuemin>0</valuemin>
                <valuemax>4</valuemax>
                <value>1</value>
              </parameter>
              <parameter>
                <parameterid>linewidth</parameterid>
                <name>Line Width</name>
                <valuemin>0</valuemin>
                <valuemax>200</valuemax>
                <value>2</value>
              </parameter>
              <parameter>
                <parameterid>linesoft</parameterid>
                <name>Line Softness</name>
                <valuemin>0</valuemin>
                <valuemax>100</valuemax>
                <value>5</value>
              </parameter>
              <parameter>
                <parameterid>textopacity</parameterid>
                <name>Text Opacity</name>
                <valuemin>0</valuemin>
                <valuemax>100</valuemax>
                <value>100</value>
              </parameter>
              <parameter>
                <parameterid>center</parameterid>
                <name>Center</name>
                <value>
                  <horiz>0</horiz>
                  <vert>0.4703703703703703</vert>
                </value>
              </parameter>
              <parameter>
                <parameterid>textcolor</parameterid>
                <name>Text Color</name>
                <value>
                  <alpha>255</alpha>
                  <red>255</red>
                  <green>255</green>
                  <blue>255</blue>
                </value>
              </parameter>
              <parameter>
                <parameterid>supertext</parameterid>
                <name>Text Graphic</name>
              </parameter>
              <parameter>
                <parameterid>linecolor</parameterid>
                <name>Line Color</name>
                <value>
                  <alpha>255</alpha>
                  <red>0</red>
                  <green>0</green>
                  <blue>0</blue>
                </value>
              </parameter>
              <parameter>
                <parameterid>superline</parameterid>
                <name>Line Graphic</name>
              </parameter>
              <parameter>
                <parameterid>part2</parameterid>
                <name>Background Settings</name>
              </parameter>
              <parameter>
                <parameterid>xscale</parameterid>
                <name>Horizontal Size</name>
                <valuemin>0</valuemin>
                <valuemax>200</valuemax>
                <value>0</value>
              </parameter>
              <parameter>
                <parameterid>yscale</parameterid>
                <name>Vertical Size</name>
                <valuemin>0</valuemin>
                <valuemax>200</valuemax>
                <value>0</value>
              </parameter>
              <parameter>
                <parameterid>xoffset</parameterid>
                <name>Horizontal Offset</name>
                <valuemin>-100</valuemin>
                <valuemax>100</valuemax>
                <value>0</value>
              </parameter>
              <parameter>
                <parameterid>yoffset</parameterid>
                <name>Vertical Offset</name>
                <valuemin>-100</valuemin>
                <valuemax>100</valuemax>
                <value>0</value>
              </parameter>
              <parameter>
                <parameterid>backsoft</parameterid>
                <name>Back Soft</name>
                <valuemin>0</valuemin>
                <valuemax>100</valuemax>
                <value>0</value>
              </parameter>
              <parameter>
                <parameterid>backopacity</parameterid>
                <name>Back Opacity</name>
                <valuemin>0</valuemin>
                <valuemax>100</valuemax>
                <value>50</value>
              </parameter>
              <parameter>
                <parameterid>backcolor</parameterid>
                <name>Back Color</name>
                <value>
                  <alpha>255</alpha>
                  <red>255</red>
                  <green>255</green>
                  <blue>255</blue>
                </value>
              </parameter>
              <parameter>
                <parameterid>superback</parameterid>
                <name>Back Graphic</name>
              </parameter>
              <parameter>
                <parameterid>crop</parameterid>
                <name>Crop</name>
                <value>false</value>
              </parameter>
              <parameter>
                <parameterid>autokern</parameterid>
                <name>Auto Kerning</name>
                <value>true</value>
              </parameter>
            </effect>
            <sourcetrack>
              <mediatype>video</mediatype>
            </sourcetrack>
          </generatoritem>
          <generatoritem id="Outline Text1">
            <name>糸岡市っていう名前だったの</name>
            <duration>22166.1117</duration>
            <rate>
              <timebase>30</timebase>
              <ntsc>true</ntsc>
            </rate>
            <start>4682.213100000001</start>
            <end>4748.746500000001</end>
            <in>4682.213100000001</in>
            <out>4748.746500000001</out>
            <enabled>true</enabled>
            <anamorphic>false</anamorphic>
            <alphatype>black</alphatype>
            <masterclipid>Outline Text1</masterclipid>
            <effect>
              <name>Outline Text</name>
              <effectid>Outline Text</effectid>
              <effectcategory>Text</effectcategory>
              <effecttype>generator</effecttype>
              <mediatype>video</mediatype>
              <parameter>
                <parameterid>part1</parameterid>
                <name>Text Settings</name>
                <value/>
              </parameter>
              <parameter>
                <parameterid>str</parameterid>
                <name>Text</name>
                <value>糸岡市っていう名前だったの</value>
              </parameter>
              <parameter>
                <parameterid>font</parameterid>
                <name>Font</name>
                <value>HiraginoSans-W6</value>
              </parameter>
              <parameter>
                <parameterid>style</parameterid>
                <name>Style</name>
                <valuemin>1</valuemin>
                <valuemax>1</valuemax>
                <valuelist>
                  <valueentry>
                    <name>Regular</name>
                    <value>1</value>
                  </valueentry>
                </valuelist>
                <value>1</value>
              </parameter>
              <parameter>
                <parameterid>align</parameterid>
                <name>Alignment</name>
                <valuemin>1</valuemin>
                <valuemax>3</valuemax>
                <valuelist>
                  <valueentry>
                    <name>Left</name>
                    <value>1</value>
                  </valueentry>
                  <valueentry>
                    <name>Center</name>
                    <value>2</value>
                  </valueentry>
                  <valueentry>
                    <name>Right</name>
                    <value>3</value>
                  </valueentry>
                </valuelist>
                <value>2</value>
              </parameter>
              <parameter>
                <parameterid>size</parameterid>
                <name>Size</name>
                <valuemin>0</valuemin>
                <valuemax>200</valuemax>
                <value>24</value>
              </parameter>
              <parameter>
                <parameterid>track</parameterid>
                <name>Tracking</name>
                <valuemin>0</valuemin>
                <valuemax>100</valuemax>
                <value>1</value>
              </parameter>
              <parameter>
                <parameterid>lead</parameterid>
                <name>Leading</name>
                <valuemin>-100</valuemin>
                <valuemax>100</valuemax>
                <value>0</value>
              </parameter>
              <parameter>
                <parameterid>aspect</parameterid>
                <name>Aspect</name>
                <valuemin>0</valuemin>
                <valuemax>4</valuemax>
                <value>1</value>
              </parameter>
              <parameter>
                <parameterid>linewidth</parameterid>
                <name>Line Width</name>
                <valuemin>0</valuemin>
                <valuemax>200</valuemax>
                <value>2</value>
              </parameter>
              <parameter>
                <parameterid>linesoft</parameterid>
                <name>Line Softness</name>
                <valuemin>0</valuemin>
                <valuemax>100</valuemax>
                <value>5</value>
              </parameter>
              <parameter>
                <parameterid>textopacity</parameterid>
                <name>Text Opacity</name>
                <valuemin>0</valuemin>
                <valuemax>100</valuemax>
                <value>100</value>
              </parameter>
              <parameter>
                <parameterid>center</parameterid>
                <name>Center</name>
                <value>
                  <horiz>0</horiz>
                  <vert>0.4703703703703703</vert>
                </value>
              </parameter>
              <parameter>
                <parameterid>textcolor</parameterid>
                <name>Text Color</name>
                <value>
                  <alpha>255</alpha>
                  <red>255</red>
                  <green>255</green>
                  <blue>255</blue>
                </value>
              </parameter>
              <parameter>
                <parameterid>supertext</parameterid>
                <name>Text Graphic</name>
              </parameter>
              <parameter>
                <parameterid>linecolor</parameterid>
                <name>Line Color</name>
                <value>
                  <alpha>255</alpha>
                  <red>0</red>
                  <green>0</green>
                  <blue>0</blue>
                </value>
              </parameter>
              <parameter>
                <parameterid>superline</parameterid>
                <name>Line Graphic</name>
              </parameter>
              <parameter>
                <parameterid>part2</parameterid>
                <name>Background Settings</name>
              </parameter>
              <parameter>
                <parameterid>xscale</parameterid>
                <name>Horizontal Size</name>
                <valuemin>0</valuemin>
                <valuemax>200</valuemax>
                <value>0</value>
              </parameter>
              <parameter>
                <parameterid>yscale</parameterid>
                <name>Vertical Size</name>
                <valuemin>0</valuemin>
                <valuemax>200</valuemax>
                <value>0</value>
              </parameter>
              <parameter>
                <parameterid>xoffset</parameterid>
                <name>Horizontal Offset</name>
                <valuemin>-100</valuemin>
                <valuemax>100</valuemax>
                <value>0</value>
              </parameter>
              <parameter>
                <parameterid>yoffset</parameterid>
                <name>Vertical Offset</name>
                <valuemin>-100</valuemin>
                <valuemax>100</valuemax>
                <value>0</value>
              </parameter>
              <parameter>
                <parameterid>backsoft</parameterid>
                <name>Back Soft</name>
                <valuemin>0</valuemin>
                <valuemax>100</valuemax>
                <value>0</value>
              </parameter>
              <parameter>
                <parameterid>backopacity</parameterid>
                <name>Back Opacity</name>
                <valuemin>0</valuemin>
                <valuemax>100</valuemax>
                <value>50</value>
              </parameter>
              <parameter>
                <parameterid>backcolor</parameterid>
                <name>Back Color</name>
                <value>
                  <alpha>255</alpha>
                  <red>255</red>
                  <green>255</green>
                  <blue>255</blue>
                </value>
              </parameter>
              <parameter>
                <parameterid>superback</parameterid>
                <name>Back Graphic</name>
              </parameter>
              <parameter>
                <parameterid>crop</parameterid>
                <name>Crop</name>
                <value>false</value>
              </parameter>
              <parameter>
                <parameterid>autokern</parameterid>
                <name>Auto Kerning</name>
                <value>true</value>
              </parameter>
            </effect>
            <sourcetrack>
              <mediatype>video</mediatype>
            </sourcetrack>
          </generatoritem>
          <generatoritem id="Outline Text1">
            <name>その時には今は超ときめき宣伝部さんにいるおはるちゃんとかひとちゃんとかかなみちゃんもだね</name>
            <duration>22166.1117</duration>
            <rate>
              <timebase>30</timebase>
              <ntsc>true</ntsc>
            </rate>
            <start>4748.746500000001</start>
            <end>5004.390600000002</end>
            <in>4748.746500000001</in>
            <out>5004.390600000002</out>
            <enabled>true</enabled>
            <anamorphic>false</anamorphic>
            <alphatype>black</alphatype>
            <masterclipid>Outline Text1</masterclipid>
            <effect>
              <name>Outline Text</name>
              <effectid>Outline Text</effectid>
              <effectcategory>Text</effectcategory>
              <effecttype>generator</effecttype>
              <mediatype>video</mediatype>
              <parameter>
                <parameterid>part1</parameterid>
                <name>Text Settings</name>
                <value/>
              </parameter>
              <parameter>
                <parameterid>str</parameterid>
                <name>Text</name>
                <value>その時には今は超ときめき宣伝部さんにいるおはるちゃんとかひとちゃんとかかなみちゃんもだね</value>
              </parameter>
              <parameter>
                <parameterid>font</parameterid>
                <name>Font</name>
                <value>HiraginoSans-W6</value>
              </parameter>
              <parameter>
                <parameterid>style</parameterid>
                <name>Style</name>
                <valuemin>1</valuemin>
                <valuemax>1</valuemax>
                <valuelist>
                  <valueentry>
                    <name>Regular</name>
                    <value>1</value>
                  </valueentry>
                </valuelist>
                <value>1</value>
              </parameter>
              <parameter>
                <parameterid>align</parameterid>
                <name>Alignment</name>
                <valuemin>1</valuemin>
                <valuemax>3</valuemax>
                <valuelist>
                  <valueentry>
                    <name>Left</name>
                    <value>1</value>
                  </valueentry>
                  <valueentry>
                    <name>Center</name>
                    <value>2</value>
                  </valueentry>
                  <valueentry>
                    <name>Right</name>
                    <value>3</value>
                  </valueentry>
                </valuelist>
                <value>2</value>
              </parameter>
              <parameter>
                <parameterid>size</parameterid>
                <name>Size</name>
                <valuemin>0</valuemin>
                <valuemax>200</valuemax>
                <value>24</value>
              </parameter>
              <parameter>
                <parameterid>track</parameterid>
                <name>Tracking</name>
                <valuemin>0</valuemin>
                <valuemax>100</valuemax>
                <value>1</value>
              </parameter>
              <parameter>
                <parameterid>lead</parameterid>
                <name>Leading</name>
                <valuemin>-100</valuemin>
                <valuemax>100</valuemax>
                <value>0</value>
              </parameter>
              <parameter>
                <parameterid>aspect</parameterid>
                <name>Aspect</name>
                <valuemin>0</valuemin>
                <valuemax>4</valuemax>
                <value>1</value>
              </parameter>
              <parameter>
                <parameterid>linewidth</parameterid>
                <name>Line Width</name>
                <valuemin>0</valuemin>
                <valuemax>200</valuemax>
                <value>2</value>
              </parameter>
              <parameter>
                <parameterid>linesoft</parameterid>
                <name>Line Softness</name>
                <valuemin>0</valuemin>
                <valuemax>100</valuemax>
                <value>5</value>
              </parameter>
              <parameter>
                <parameterid>textopacity</parameterid>
                <name>Text Opacity</name>
                <valuemin>0</valuemin>
                <valuemax>100</valuemax>
                <value>100</value>
              </parameter>
              <parameter>
                <parameterid>center</parameterid>
                <name>Center</name>
                <value>
                  <horiz>0</horiz>
                  <vert>0.4703703703703703</vert>
                </value>
              </parameter>
              <parameter>
                <parameterid>textcolor</parameterid>
                <name>Text Color</name>
                <value>
                  <alpha>255</alpha>
                  <red>255</red>
                  <green>255</green>
                  <blue>255</blue>
                </value>
              </parameter>
              <parameter>
                <parameterid>supertext</parameterid>
                <name>Text Graphic</name>
              </parameter>
              <parameter>
                <parameterid>linecolor</parameterid>
                <name>Line Color</name>
                <value>
                  <alpha>255</alpha>
                  <red>0</red>
                  <green>0</green>
                  <blue>0</blue>
                </value>
              </parameter>
              <parameter>
                <parameterid>superline</parameterid>
                <name>Line Graphic</name>
              </parameter>
              <parameter>
                <parameterid>part2</parameterid>
                <name>Background Settings</name>
              </parameter>
              <parameter>
                <parameterid>xscale</parameterid>
                <name>Horizontal Size</name>
                <valuemin>0</valuemin>
                <valuemax>200</valuemax>
                <value>0</value>
              </parameter>
              <parameter>
                <parameterid>yscale</parameterid>
                <name>Vertical Size</name>
                <valuemin>0</valuemin>
                <valuemax>200</valuemax>
                <value>0</value>
              </parameter>
              <parameter>
                <parameterid>xoffset</parameterid>
                <name>Horizontal Offset</name>
                <valuemin>-100</valuemin>
                <valuemax>100</valuemax>
                <value>0</value>
              </parameter>
              <parameter>
                <parameterid>yoffset</parameterid>
                <name>Vertical Offset</name>
                <valuemin>-100</valuemin>
                <valuemax>100</valuemax>
                <value>0</value>
              </parameter>
              <parameter>
                <parameterid>backsoft</parameterid>
                <name>Back Soft</name>
                <valuemin>0</valuemin>
                <valuemax>100</valuemax>
                <value>0</value>
              </parameter>
              <parameter>
                <parameterid>backopacity</parameterid>
                <name>Back Opacity</name>
                <valuemin>0</valuemin>
                <valuemax>100</valuemax>
                <value>50</value>
              </parameter>
              <parameter>
                <parameterid>backcolor</parameterid>
                <name>Back Color</name>
                <value>
                  <alpha>255</alpha>
                  <red>255</red>
                  <green>255</green>
                  <blue>255</blue>
                </value>
              </parameter>
              <parameter>
                <parameterid>superback</parameterid>
                <name>Back Graphic</name>
              </parameter>
              <parameter>
                <parameterid>crop</parameterid>
                <name>Crop</name>
                <value>false</value>
              </parameter>
              <parameter>
                <parameterid>autokern</parameterid>
                <name>Auto Kerning</name>
                <value>true</value>
              </parameter>
            </effect>
            <sourcetrack>
              <mediatype>video</mediatype>
            </sourcetrack>
          </generatoritem>
          <generatoritem id="Outline Text1">
            <name>結構同じ劇団出身の方々先輩とかもいっぱいいるんですよ</name>
            <duration>22166.1117</duration>
            <rate>
              <timebase>30</timebase>
              <ntsc>true</ntsc>
            </rate>
            <start>5004.390600000002</start>
            <end>5151.543300000003</end>
            <in>5004.390600000002</in>
            <out>5151.543300000003</out>
            <enabled>true</enabled>
            <anamorphic>false</anamorphic>
            <alphatype>black</alphatype>
            <masterclipid>Outline Text1</masterclipid>
            <effect>
              <name>Outline Text</name>
              <effectid>Outline Text</effectid>
              <effectcategory>Text</effectcategory>
              <effecttype>generator</effecttype>
              <mediatype>video</mediatype>
              <parameter>
                <parameterid>part1</parameterid>
                <name>Text Settings</name>
                <value/>
              </parameter>
              <parameter>
                <parameterid>str</parameterid>
                <name>Text</name>
                <value>結構同じ劇団出身の方々先輩とかもいっぱいいるんですよ</value>
              </parameter>
              <parameter>
                <parameterid>font</parameterid>
                <name>Font</name>
                <value>HiraginoSans-W6</value>
              </parameter>
              <parameter>
                <parameterid>style</parameterid>
                <name>Style</name>
                <valuemin>1</valuemin>
                <valuemax>1</valuemax>
                <valuelist>
                  <valueentry>
                    <name>Regular</name>
                    <value>1</value>
                  </valueentry>
                </valuelist>
                <value>1</value>
              </parameter>
              <parameter>
                <parameterid>align</parameterid>
                <name>Alignment</name>
                <valuemin>1</valuemin>
                <valuemax>3</valuemax>
                <valuelist>
                  <valueentry>
                    <name>Left</name>
                    <value>1</value>
                  </valueentry>
                  <valueentry>
                    <name>Center</name>
                    <value>2</value>
                  </valueentry>
                  <valueentry>
                    <name>Right</name>
                    <value>3</value>
                  </valueentry>
                </valuelist>
                <value>2</value>
              </parameter>
              <parameter>
                <parameterid>size</parameterid>
                <name>Size</name>
                <valuemin>0</valuemin>
                <valuemax>200</valuemax>
                <value>24</value>
              </parameter>
              <parameter>
                <parameterid>track</parameterid>
                <name>Tracking</name>
                <valuemin>0</valuemin>
                <valuemax>100</valuemax>
                <value>1</value>
              </parameter>
              <parameter>
                <parameterid>lead</parameterid>
                <name>Leading</name>
                <valuemin>-100</valuemin>
                <valuemax>100</valuemax>
                <value>0</value>
              </parameter>
              <parameter>
                <parameterid>aspect</parameterid>
                <name>Aspect</name>
                <valuemin>0</valuemin>
                <valuemax>4</valuemax>
                <value>1</value>
              </parameter>
              <parameter>
                <parameterid>linewidth</parameterid>
                <name>Line Width</name>
                <valuemin>0</valuemin>
                <valuemax>200</valuemax>
                <value>2</value>
              </parameter>
              <parameter>
                <parameterid>linesoft</parameterid>
                <name>Line Softness</name>
                <valuemin>0</valuemin>
                <valuemax>100</valuemax>
                <value>5</value>
              </parameter>
              <parameter>
                <parameterid>textopacity</parameterid>
                <name>Text Opacity</name>
                <valuemin>0</valuemin>
                <valuemax>100</valuemax>
                <value>100</value>
              </parameter>
              <parameter>
                <parameterid>center</parameterid>
                <name>Center</name>
                <value>
                  <horiz>0</horiz>
                  <vert>0.4703703703703703</vert>
                </value>
              </parameter>
              <parameter>
                <parameterid>textcolor</parameterid>
                <name>Text Color</name>
                <value>
                  <alpha>255</alpha>
                  <red>255</red>
                  <green>255</green>
                  <blue>255</blue>
                </value>
              </parameter>
              <parameter>
                <parameterid>supertext</parameterid>
                <name>Text Graphic</name>
              </parameter>
              <parameter>
                <parameterid>linecolor</parameterid>
                <name>Line Color</name>
                <value>
                  <alpha>255</alpha>
                  <red>0</red>
                  <green>0</green>
                  <blue>0</blue>
                </value>
              </parameter>
              <parameter>
                <parameterid>superline</parameterid>
                <name>Line Graphic</name>
              </parameter>
              <parameter>
                <parameterid>part2</parameterid>
                <name>Background Settings</name>
              </parameter>
              <parameter>
                <parameterid>xscale</parameterid>
                <name>Horizontal Size</name>
                <valuemin>0</valuemin>
                <valuemax>200</valuemax>
                <value>0</value>
              </parameter>
              <parameter>
                <parameterid>yscale</parameterid>
                <name>Vertical Size</name>
                <valuemin>0</valuemin>
                <valuemax>200</valuemax>
                <value>0</value>
              </parameter>
              <parameter>
                <parameterid>xoffset</parameterid>
                <name>Horizontal Offset</name>
                <valuemin>-100</valuemin>
                <valuemax>100</valuemax>
                <value>0</value>
              </parameter>
              <parameter>
                <parameterid>yoffset</parameterid>
                <name>Vertical Offset</name>
                <valuemin>-100</valuemin>
                <valuemax>100</valuemax>
                <value>0</value>
              </parameter>
              <parameter>
                <parameterid>backsoft</parameterid>
                <name>Back Soft</name>
                <valuemin>0</valuemin>
                <valuemax>100</valuemax>
                <value>0</value>
              </parameter>
              <parameter>
                <parameterid>backopacity</parameterid>
                <name>Back Opacity</name>
                <valuemin>0</valuemin>
                <valuemax>100</valuemax>
                <value>50</value>
              </parameter>
              <parameter>
                <parameterid>backcolor</parameterid>
                <name>Back Color</name>
                <value>
                  <alpha>255</alpha>
                  <red>255</red>
                  <green>255</green>
                  <blue>255</blue>
                </value>
              </parameter>
              <parameter>
                <parameterid>superback</parameterid>
                <name>Back Graphic</name>
              </parameter>
              <parameter>
                <parameterid>crop</parameterid>
                <name>Crop</name>
                <value>false</value>
              </parameter>
              <parameter>
                <parameterid>autokern</parameterid>
                <name>Auto Kerning</name>
                <value>true</value>
              </parameter>
            </effect>
            <sourcetrack>
              <mediatype>video</mediatype>
            </sourcetrack>
          </generatoritem>
          <generatoritem id="Outline Text1">
            <name>キセンちゃんも先輩だよね</name>
            <duration>22166.1117</duration>
            <rate>
              <timebase>30</timebase>
              <ntsc>true</ntsc>
            </rate>
            <start>5151.543300000003</start>
            <end>5229.465300000003</end>
            <in>5151.543300000003</in>
            <out>5229.465300000003</out>
            <enabled>true</enabled>
            <anamorphic>false</anamorphic>
            <alphatype>black</alphatype>
            <masterclipid>Outline Text1</masterclipid>
            <effect>
              <name>Outline Text</name>
              <effectid>Outline Text</effectid>
              <effectcategory>Text</effectcategory>
              <effecttype>generator</effecttype>
              <mediatype>video</mediatype>
              <parameter>
                <parameterid>part1</parameterid>
                <name>Text Settings</name>
                <value/>
              </parameter>
              <parameter>
                <parameterid>str</parameterid>
                <name>Text</name>
                <value>キセンちゃんも先輩だよね</value>
              </parameter>
              <parameter>
                <parameterid>font</parameterid>
                <name>Font</name>
                <value>HiraginoSans-W6</value>
              </parameter>
              <parameter>
                <parameterid>style</parameterid>
                <name>Style</name>
                <valuemin>1</valuemin>
                <valuemax>1</valuemax>
                <valuelist>
                  <valueentry>
                    <name>Regular</name>
                    <value>1</value>
                  </valueentry>
                </valuelist>
                <value>1</value>
              </parameter>
              <parameter>
                <parameterid>align</parameterid>
                <name>Alignment</name>
                <valuemin>1</valuemin>
                <valuemax>3</valuemax>
                <valuelist>
                  <valueentry>
                    <name>Left</name>
                    <value>1</value>
                  </valueentry>
                  <valueentry>
                    <name>Center</name>
                    <value>2</value>
                  </valueentry>
                  <valueentry>
                    <name>Right</name>
                    <value>3</value>
                  </valueentry>
                </valuelist>
                <value>2</value>
              </parameter>
              <parameter>
                <parameterid>size</parameterid>
                <name>Size</name>
                <valuemin>0</valuemin>
                <valuemax>200</valuemax>
                <value>24</value>
              </parameter>
              <parameter>
                <parameterid>track</parameterid>
                <name>Tracking</name>
                <valuemin>0</valuemin>
                <valuemax>100</valuemax>
                <value>1</value>
              </parameter>
              <parameter>
                <parameterid>lead</parameterid>
                <name>Leading</name>
                <valuemin>-100</valuemin>
                <valuemax>100</valuemax>
                <value>0</value>
              </parameter>
              <parameter>
                <parameterid>aspect</parameterid>
                <name>Aspect</name>
                <valuemin>0</valuemin>
                <valuemax>4</valuemax>
                <value>1</value>
              </parameter>
              <parameter>
                <parameterid>linewidth</parameterid>
                <name>Line Width</name>
                <valuemin>0</valuemin>
                <valuemax>200</valuemax>
                <value>2</value>
              </parameter>
              <parameter>
                <parameterid>linesoft</parameterid>
                <name>Line Softness</name>
                <valuemin>0</valuemin>
                <valuemax>100</valuemax>
                <value>5</value>
              </parameter>
              <parameter>
                <parameterid>textopacity</parameterid>
                <name>Text Opacity</name>
                <valuemin>0</valuemin>
                <valuemax>100</valuemax>
                <value>100</value>
              </parameter>
              <parameter>
                <parameterid>center</parameterid>
                <name>Center</name>
                <value>
                  <horiz>0</horiz>
                  <vert>0.4703703703703703</vert>
                </value>
              </parameter>
              <parameter>
                <parameterid>textcolor</parameterid>
                <name>Text Color</name>
                <value>
                  <alpha>255</alpha>
                  <red>255</red>
                  <green>255</green>
                  <blue>255</blue>
                </value>
              </parameter>
              <parameter>
                <parameterid>supertext</parameterid>
                <name>Text Graphic</name>
              </parameter>
              <parameter>
                <parameterid>linecolor</parameterid>
                <name>Line Color</name>
                <value>
                  <alpha>255</alpha>
                  <red>0</red>
                  <green>0</green>
                  <blue>0</blue>
                </value>
              </parameter>
              <parameter>
                <parameterid>superline</parameterid>
                <name>Line Graphic</name>
              </parameter>
              <parameter>
                <parameterid>part2</parameterid>
                <name>Background Settings</name>
              </parameter>
              <parameter>
                <parameterid>xscale</parameterid>
                <name>Horizontal Size</name>
                <valuemin>0</valuemin>
                <valuemax>200</valuemax>
                <value>0</value>
              </parameter>
              <parameter>
                <parameterid>yscale</parameterid>
                <name>Vertical Size</name>
                <valuemin>0</valuemin>
                <valuemax>200</valuemax>
                <value>0</value>
              </parameter>
              <parameter>
                <parameterid>xoffset</parameterid>
                <name>Horizontal Offset</name>
                <valuemin>-100</valuemin>
                <valuemax>100</valuemax>
                <value>0</value>
              </parameter>
              <parameter>
                <parameterid>yoffset</parameterid>
                <name>Vertical Offset</name>
                <valuemin>-100</valuemin>
                <valuemax>100</valuemax>
                <value>0</value>
              </parameter>
              <parameter>
                <parameterid>backsoft</parameterid>
                <name>Back Soft</name>
                <valuemin>0</valuemin>
                <valuemax>100</valuemax>
                <value>0</value>
              </parameter>
              <parameter>
                <parameterid>backopacity</parameterid>
                <name>Back Opacity</name>
                <valuemin>0</valuemin>
                <valuemax>100</valuemax>
                <value>50</value>
              </parameter>
              <parameter>
                <parameterid>backcolor</parameterid>
                <name>Back Color</name>
                <value>
                  <alpha>255</alpha>
                  <red>255</red>
                  <green>255</green>
                  <blue>255</blue>
                </value>
              </parameter>
              <parameter>
                <parameterid>superback</parameterid>
                <name>Back Graphic</name>
              </parameter>
              <parameter>
                <parameterid>crop</parameterid>
                <name>Crop</name>
                <value>false</value>
              </parameter>
              <parameter>
                <parameterid>autokern</parameterid>
                <name>Auto Kerning</name>
                <value>true</value>
              </parameter>
            </effect>
            <sourcetrack>
              <mediatype>video</mediatype>
            </sourcetrack>
          </generatoritem>
          <generatoritem id="Outline Text1">
            <name>私たちちょうど被ってない世代だけどね</name>
            <duration>22166.1117</duration>
            <rate>
              <timebase>30</timebase>
              <ntsc>true</ntsc>
            </rate>
            <start>5229.465300000003</start>
            <end>5296.598100000004</end>
            <in>5229.465300000003</in>
            <out>5296.598100000004</out>
            <enabled>true</enabled>
            <anamorphic>false</anamorphic>
            <alphatype>black</alphatype>
            <masterclipid>Outline Text1</masterclipid>
            <effect>
              <name>Outline Text</name>
              <effectid>Outline Text</effectid>
              <effectcategory>Text</effectcategory>
              <effecttype>generator</effecttype>
              <mediatype>video</mediatype>
              <parameter>
                <parameterid>part1</parameterid>
                <name>Text Settings</name>
                <value/>
              </parameter>
              <parameter>
                <parameterid>str</parameterid>
                <name>Text</name>
                <value>私たちちょうど被ってない世代だけどね</value>
              </parameter>
              <parameter>
                <parameterid>font</parameterid>
                <name>Font</name>
                <value>HiraginoSans-W6</value>
              </parameter>
              <parameter>
                <parameterid>style</parameterid>
                <name>Style</name>
                <valuemin>1</valuemin>
                <valuemax>1</valuemax>
                <valuelist>
                  <valueentry>
                    <name>Regular</name>
                    <value>1</value>
                  </valueentry>
                </valuelist>
                <value>1</value>
              </parameter>
              <parameter>
                <parameterid>align</parameterid>
                <name>Alignment</name>
                <valuemin>1</valuemin>
                <valuemax>3</valuemax>
                <valuelist>
                  <valueentry>
                    <name>Left</name>
                    <value>1</value>
                  </valueentry>
                  <valueentry>
                    <name>Center</name>
                    <value>2</value>
                  </valueentry>
                  <valueentry>
                    <name>Right</name>
                    <value>3</value>
                  </valueentry>
                </valuelist>
                <value>2</value>
              </parameter>
              <parameter>
                <parameterid>size</parameterid>
                <name>Size</name>
                <valuemin>0</valuemin>
                <valuemax>200</valuemax>
                <value>24</value>
              </parameter>
              <parameter>
                <parameterid>track</parameterid>
                <name>Tracking</name>
                <valuemin>0</valuemin>
                <valuemax>100</valuemax>
                <value>1</value>
              </parameter>
              <parameter>
                <parameterid>lead</parameterid>
                <name>Leading</name>
                <valuemin>-100</valuemin>
                <valuemax>100</valuemax>
                <value>0</value>
              </parameter>
              <parameter>
                <parameterid>aspect</parameterid>
                <name>Aspect</name>
                <valuemin>0</valuemin>
                <valuemax>4</valuemax>
                <value>1</value>
              </parameter>
              <parameter>
                <parameterid>linewidth</parameterid>
                <name>Line Width</name>
                <valuemin>0</valuemin>
                <valuemax>200</valuemax>
                <value>2</value>
              </parameter>
              <parameter>
                <parameterid>linesoft</parameterid>
                <name>Line Softness</name>
                <valuemin>0</valuemin>
                <valuemax>100</valuemax>
                <value>5</value>
              </parameter>
              <parameter>
                <parameterid>textopacity</parameterid>
                <name>Text Opacity</name>
                <valuemin>0</valuemin>
                <valuemax>100</valuemax>
                <value>100</value>
              </parameter>
              <parameter>
                <parameterid>center</parameterid>
                <name>Center</name>
                <value>
                  <horiz>0</horiz>
                  <vert>0.4703703703703703</vert>
                </value>
              </parameter>
              <parameter>
                <parameterid>textcolor</parameterid>
                <name>Text Color</name>
                <value>
                  <alpha>255</alpha>
                  <red>255</red>
                  <green>255</green>
                  <blue>255</blue>
                </value>
              </parameter>
              <parameter>
                <parameterid>supertext</parameterid>
                <name>Text Graphic</name>
              </parameter>
              <parameter>
                <parameterid>linecolor</parameterid>
                <name>Line Color</name>
                <value>
                  <alpha>255</alpha>
                  <red>0</red>
                  <green>0</green>
                  <blue>0</blue>
                </value>
              </parameter>
              <parameter>
                <parameterid>superline</parameterid>
                <name>Line Graphic</name>
              </parameter>
              <parameter>
                <parameterid>part2</parameterid>
                <name>Background Settings</name>
              </parameter>
              <parameter>
                <parameterid>xscale</parameterid>
                <name>Horizontal Size</name>
                <valuemin>0</valuemin>
                <valuemax>200</valuemax>
                <value>0</value>
              </parameter>
              <parameter>
                <parameterid>yscale</parameterid>
                <name>Vertical Size</name>
                <valuemin>0</valuemin>
                <valuemax>200</valuemax>
                <value>0</value>
              </parameter>
              <parameter>
                <parameterid>xoffset</parameterid>
                <name>Horizontal Offset</name>
                <valuemin>-100</valuemin>
                <valuemax>100</valuemax>
                <value>0</value>
              </parameter>
              <parameter>
                <parameterid>yoffset</parameterid>
                <name>Vertical Offset</name>
                <valuemin>-100</valuemin>
                <valuemax>100</valuemax>
                <value>0</value>
              </parameter>
              <parameter>
                <parameterid>backsoft</parameterid>
                <name>Back Soft</name>
                <valuemin>0</valuemin>
                <valuemax>100</valuemax>
                <value>0</value>
              </parameter>
              <parameter>
                <parameterid>backopacity</parameterid>
                <name>Back Opacity</name>
                <valuemin>0</valuemin>
                <valuemax>100</valuemax>
                <value>50</value>
              </parameter>
              <parameter>
                <parameterid>backcolor</parameterid>
                <name>Back Color</name>
                <value>
                  <alpha>255</alpha>
                  <red>255</red>
                  <green>255</green>
                  <blue>255</blue>
                </value>
              </parameter>
              <parameter>
                <parameterid>superback</parameterid>
                <name>Back Graphic</name>
              </parameter>
              <parameter>
                <parameterid>crop</parameterid>
                <name>Crop</name>
                <value>false</value>
              </parameter>
              <parameter>
                <parameterid>autokern</parameterid>
                <name>Auto Kerning</name>
                <value>true</value>
              </parameter>
            </effect>
            <sourcetrack>
              <mediatype>video</mediatype>
            </sourcetrack>
          </generatoritem>
          <generatoritem id="Outline Text1">
            <name>そうちょうど被らなかったんです</name>
            <duration>22166.1117</duration>
            <rate>
              <timebase>30</timebase>
              <ntsc>true</ntsc>
            </rate>
            <start>5296.598100000004</start>
            <end>5348.446200000003</end>
            <in>5296.598100000004</in>
            <out>5348.446200000003</out>
            <enabled>true</enabled>
            <anamorphic>false</anamorphic>
            <alphatype>black</alphatype>
            <masterclipid>Outline Text1</masterclipid>
            <effect>
              <name>Outline Text</name>
              <effectid>Outline Text</effectid>
              <effectcategory>Text</effectcategory>
              <effecttype>generator</effecttype>
              <mediatype>video</mediatype>
              <parameter>
                <parameterid>part1</parameterid>
                <name>Text Settings</name>
                <value/>
              </parameter>
              <parameter>
                <parameterid>str</parameterid>
                <name>Text</name>
                <value>そうちょうど被らなかったんです</value>
              </parameter>
              <parameter>
                <parameterid>font</parameterid>
                <name>Font</name>
                <value>HiraginoSans-W6</value>
              </parameter>
              <parameter>
                <parameterid>style</parameterid>
                <name>Style</name>
                <valuemin>1</valuemin>
                <valuemax>1</valuemax>
                <valuelist>
                  <valueentry>
                    <name>Regular</name>
                    <value>1</value>
                  </valueentry>
                </valuelist>
                <value>1</value>
              </parameter>
              <parameter>
                <parameterid>align</parameterid>
                <name>Alignment</name>
                <valuemin>1</valuemin>
                <valuemax>3</valuemax>
                <valuelist>
                  <valueentry>
                    <name>Left</name>
                    <value>1</value>
                  </valueentry>
                  <valueentry>
                    <name>Center</name>
                    <value>2</value>
                  </valueentry>
                  <valueentry>
                    <name>Right</name>
                    <value>3</value>
                  </valueentry>
                </valuelist>
                <value>2</value>
              </parameter>
              <parameter>
                <parameterid>size</parameterid>
                <name>Size</name>
                <valuemin>0</valuemin>
                <valuemax>200</valuemax>
                <value>24</value>
              </parameter>
              <parameter>
                <parameterid>track</parameterid>
                <name>Tracking</name>
                <valuemin>0</valuemin>
                <valuemax>100</valuemax>
                <value>1</value>
              </parameter>
              <parameter>
                <parameterid>lead</parameterid>
                <name>Leading</name>
                <valuemin>-100</valuemin>
                <valuemax>100</valuemax>
                <value>0</value>
              </parameter>
              <parameter>
                <parameterid>aspect</parameterid>
                <name>Aspect</name>
                <valuemin>0</valuemin>
                <valuemax>4</valuemax>
                <value>1</value>
              </parameter>
              <parameter>
                <parameterid>linewidth</parameterid>
                <name>Line Width</name>
                <valuemin>0</valuemin>
                <valuemax>200</valuemax>
                <value>2</value>
              </parameter>
              <parameter>
                <parameterid>linesoft</parameterid>
                <name>Line Softness</name>
                <valuemin>0</valuemin>
                <valuemax>100</valuemax>
                <value>5</value>
              </parameter>
              <parameter>
                <parameterid>textopacity</parameterid>
                <name>Text Opacity</name>
                <valuemin>0</valuemin>
                <valuemax>100</valuemax>
                <value>100</value>
              </parameter>
              <parameter>
                <parameterid>center</parameterid>
                <name>Center</name>
                <value>
                  <horiz>0</horiz>
                  <vert>0.4703703703703703</vert>
                </value>
              </parameter>
              <parameter>
                <parameterid>textcolor</parameterid>
                <name>Text Color</name>
                <value>
                  <alpha>255</alpha>
                  <red>255</red>
                  <green>255</green>
                  <blue>255</blue>
                </value>
              </parameter>
              <parameter>
                <parameterid>supertext</parameterid>
                <name>Text Graphic</name>
              </parameter>
              <parameter>
                <parameterid>linecolor</parameterid>
                <name>Line Color</name>
                <value>
                  <alpha>255</alpha>
                  <red>0</red>
                  <green>0</green>
                  <blue>0</blue>
                </value>
              </parameter>
              <parameter>
                <parameterid>superline</parameterid>
                <name>Line Graphic</name>
              </parameter>
              <parameter>
                <parameterid>part2</parameterid>
                <name>Background Settings</name>
              </parameter>
              <parameter>
                <parameterid>xscale</parameterid>
                <name>Horizontal Size</name>
                <valuemin>0</valuemin>
                <valuemax>200</valuemax>
                <value>0</value>
              </parameter>
              <parameter>
                <parameterid>yscale</parameterid>
                <name>Vertical Size</name>
                <valuemin>0</valuemin>
                <valuemax>200</valuemax>
                <value>0</value>
              </parameter>
              <parameter>
                <parameterid>xoffset</parameterid>
                <name>Horizontal Offset</name>
                <valuemin>-100</valuemin>
                <valuemax>100</valuemax>
                <value>0</value>
              </parameter>
              <parameter>
                <parameterid>yoffset</parameterid>
                <name>Vertical Offset</name>
                <valuemin>-100</valuemin>
                <valuemax>100</valuemax>
                <value>0</value>
              </parameter>
              <parameter>
                <parameterid>backsoft</parameterid>
                <name>Back Soft</name>
                <valuemin>0</valuemin>
                <valuemax>100</valuemax>
                <value>0</value>
              </parameter>
              <parameter>
                <parameterid>backopacity</parameterid>
                <name>Back Opacity</name>
                <valuemin>0</valuemin>
                <valuemax>100</valuemax>
                <value>50</value>
              </parameter>
              <parameter>
                <parameterid>backcolor</parameterid>
                <name>Back Color</name>
                <value>
                  <alpha>255</alpha>
                  <red>255</red>
                  <green>255</green>
                  <blue>255</blue>
                </value>
              </parameter>
              <parameter>
                <parameterid>superback</parameterid>
                <name>Back Graphic</name>
              </parameter>
              <parameter>
                <parameterid>crop</parameterid>
                <name>Crop</name>
                <value>false</value>
              </parameter>
              <parameter>
                <parameterid>autokern</parameterid>
                <name>Auto Kerning</name>
                <value>true</value>
              </parameter>
            </effect>
            <sourcetrack>
              <mediatype>video</mediatype>
            </sourcetrack>
          </generatoritem>
          <generatoritem id="Outline Text1">
            <name>悔しい一緒にやりたかったよ</name>
            <duration>22166.1117</duration>
            <rate>
              <timebase>30</timebase>
              <ntsc>true</ntsc>
            </rate>
            <start>5348.446200000003</start>
            <end>5429.964600000003</end>
            <in>5348.446200000003</in>
            <out>5429.964600000003</out>
            <enabled>true</enabled>
            <anamorphic>false</anamorphic>
            <alphatype>black</alphatype>
            <masterclipid>Outline Text1</masterclipid>
            <effect>
              <name>Outline Text</name>
              <effectid>Outline Text</effectid>
              <effectcategory>Text</effectcategory>
              <effecttype>generator</effecttype>
              <mediatype>video</mediatype>
              <parameter>
                <parameterid>part1</parameterid>
                <name>Text Settings</name>
                <value/>
              </parameter>
              <parameter>
                <parameterid>str</parameterid>
                <name>Text</name>
                <value>悔しい一緒にやりたかったよ</value>
              </parameter>
              <parameter>
                <parameterid>font</parameterid>
                <name>Font</name>
                <value>HiraginoSans-W6</value>
              </parameter>
              <parameter>
                <parameterid>style</parameterid>
                <name>Style</name>
                <valuemin>1</valuemin>
                <valuemax>1</valuemax>
                <valuelist>
                  <valueentry>
                    <name>Regular</name>
                    <value>1</value>
                  </valueentry>
                </valuelist>
                <value>1</value>
              </parameter>
              <parameter>
                <parameterid>align</parameterid>
                <name>Alignment</name>
                <valuemin>1</valuemin>
                <valuemax>3</valuemax>
                <valuelist>
                  <valueentry>
                    <name>Left</name>
                    <value>1</value>
                  </valueentry>
                  <valueentry>
                    <name>Center</name>
                    <value>2</value>
                  </valueentry>
                  <valueentry>
                    <name>Right</name>
                    <value>3</value>
                  </valueentry>
                </valuelist>
                <value>2</value>
              </parameter>
              <parameter>
                <parameterid>size</parameterid>
                <name>Size</name>
                <valuemin>0</valuemin>
                <valuemax>200</valuemax>
                <value>24</value>
              </parameter>
              <parameter>
                <parameterid>track</parameterid>
                <name>Tracking</name>
                <valuemin>0</valuemin>
                <valuemax>100</valuemax>
                <value>1</value>
              </parameter>
              <parameter>
                <parameterid>lead</parameterid>
                <name>Leading</name>
                <valuemin>-100</valuemin>
                <valuemax>100</valuemax>
                <value>0</value>
              </parameter>
              <parameter>
                <parameterid>aspect</parameterid>
                <name>Aspect</name>
                <valuemin>0</valuemin>
                <valuemax>4</valuemax>
                <value>1</value>
              </parameter>
              <parameter>
                <parameterid>linewidth</parameterid>
                <name>Line Width</name>
                <valuemin>0</valuemin>
                <valuemax>200</valuemax>
                <value>2</value>
              </parameter>
              <parameter>
                <parameterid>linesoft</parameterid>
                <name>Line Softness</name>
                <valuemin>0</valuemin>
                <valuemax>100</valuemax>
                <value>5</value>
              </parameter>
              <parameter>
                <parameterid>textopacity</parameterid>
                <name>Text Opacity</name>
                <valuemin>0</valuemin>
                <valuemax>100</valuemax>
                <value>100</value>
              </parameter>
              <parameter>
                <parameterid>center</parameterid>
                <name>Center</name>
                <value>
                  <horiz>0</horiz>
                  <vert>0.4703703703703703</vert>
                </value>
              </parameter>
              <parameter>
                <parameterid>textcolor</parameterid>
                <name>Text Color</name>
                <value>
                  <alpha>255</alpha>
                  <red>255</red>
                  <green>255</green>
                  <blue>255</blue>
                </value>
              </parameter>
              <parameter>
                <parameterid>supertext</parameterid>
                <name>Text Graphic</name>
              </parameter>
              <parameter>
                <parameterid>linecolor</parameterid>
                <name>Line Color</name>
                <value>
                  <alpha>255</alpha>
                  <red>0</red>
                  <green>0</green>
                  <blue>0</blue>
                </value>
              </parameter>
              <parameter>
                <parameterid>superline</parameterid>
                <name>Line Graphic</name>
              </parameter>
              <parameter>
                <parameterid>part2</parameterid>
                <name>Background Settings</name>
              </parameter>
              <parameter>
                <parameterid>xscale</parameterid>
                <name>Horizontal Size</name>
                <valuemin>0</valuemin>
                <valuemax>200</valuemax>
                <value>0</value>
              </parameter>
              <parameter>
                <parameterid>yscale</parameterid>
                <name>Vertical Size</name>
                <valuemin>0</valuemin>
                <valuemax>200</valuemax>
                <value>0</value>
              </parameter>
              <parameter>
                <parameterid>xoffset</parameterid>
                <name>Horizontal Offset</name>
                <valuemin>-100</valuemin>
                <valuemax>100</valuemax>
                <value>0</value>
              </parameter>
              <parameter>
                <parameterid>yoffset</parameterid>
                <name>Vertical Offset</name>
                <valuemin>-100</valuemin>
                <valuemax>100</valuemax>
                <value>0</value>
              </parameter>
              <parameter>
                <parameterid>backsoft</parameterid>
                <name>Back Soft</name>
                <valuemin>0</valuemin>
                <valuemax>100</valuemax>
                <value>0</value>
              </parameter>
              <parameter>
                <parameterid>backopacity</parameterid>
                <name>Back Opacity</name>
                <valuemin>0</valuemin>
                <valuemax>100</valuemax>
                <value>50</value>
              </parameter>
              <parameter>
                <parameterid>backcolor</parameterid>
                <name>Back Color</name>
                <value>
                  <alpha>255</alpha>
                  <red>255</red>
                  <green>255</green>
                  <blue>255</blue>
                </value>
              </parameter>
              <parameter>
                <parameterid>superback</parameterid>
                <name>Back Graphic</name>
              </parameter>
              <parameter>
                <parameterid>crop</parameterid>
                <name>Crop</name>
                <value>false</value>
              </parameter>
              <parameter>
                <parameterid>autokern</parameterid>
                <name>Auto Kerning</name>
                <value>true</value>
              </parameter>
            </effect>
            <sourcetrack>
              <mediatype>video</mediatype>
            </sourcetrack>
          </generatoritem>
          <generatoritem id="Outline Text1">
            <name>やりたかったね</name>
            <duration>22166.1117</duration>
            <rate>
              <timebase>30</timebase>
              <ntsc>true</ntsc>
            </rate>
            <start>5429.964600000003</start>
            <end>5474.919600000003</end>
            <in>5429.964600000003</in>
            <out>5474.919600000003</out>
            <enabled>true</enabled>
            <anamorphic>false</anamorphic>
            <alphatype>black</alphatype>
            <masterclipid>Outline Text1</masterclipid>
            <effect>
              <name>Outline Text</name>
              <effectid>Outline Text</effectid>
              <effectcategory>Text</effectcategory>
              <effecttype>generator</effecttype>
              <mediatype>video</mediatype>
              <parameter>
                <parameterid>part1</parameterid>
                <name>Text Settings</name>
                <value/>
              </parameter>
              <parameter>
                <parameterid>str</parameterid>
                <name>Text</name>
                <value>やりたかったね</value>
              </parameter>
              <parameter>
                <parameterid>font</parameterid>
                <name>Font</name>
                <value>HiraginoSans-W6</value>
              </parameter>
              <parameter>
                <parameterid>style</parameterid>
                <name>Style</name>
                <valuemin>1</valuemin>
                <valuemax>1</valuemax>
                <valuelist>
                  <valueentry>
                    <name>Regular</name>
                    <value>1</value>
                  </valueentry>
                </valuelist>
                <value>1</value>
              </parameter>
              <parameter>
                <parameterid>align</parameterid>
                <name>Alignment</name>
                <valuemin>1</valuemin>
                <valuemax>3</valuemax>
                <valuelist>
                  <valueentry>
                    <name>Left</name>
                    <value>1</value>
                  </valueentry>
                  <valueentry>
                    <name>Center</name>
                    <value>2</value>
                  </valueentry>
                  <valueentry>
                    <name>Right</name>
                    <value>3</value>
                  </valueentry>
                </valuelist>
                <value>2</value>
              </parameter>
              <parameter>
                <parameterid>size</parameterid>
                <name>Size</name>
                <valuemin>0</valuemin>
                <valuemax>200</valuemax>
                <value>24</value>
              </parameter>
              <parameter>
                <parameterid>track</parameterid>
                <name>Tracking</name>
                <valuemin>0</valuemin>
                <valuemax>100</valuemax>
                <value>1</value>
              </parameter>
              <parameter>
                <parameterid>lead</parameterid>
                <name>Leading</name>
                <valuemin>-100</valuemin>
                <valuemax>100</valuemax>
                <value>0</value>
              </parameter>
              <parameter>
                <parameterid>aspect</parameterid>
                <name>Aspect</name>
                <valuemin>0</valuemin>
                <valuemax>4</valuemax>
                <value>1</value>
              </parameter>
              <parameter>
                <parameterid>linewidth</parameterid>
                <name>Line Width</name>
                <valuemin>0</valuemin>
                <valuemax>200</valuemax>
                <value>2</value>
              </parameter>
              <parameter>
                <parameterid>linesoft</parameterid>
                <name>Line Softness</name>
                <valuemin>0</valuemin>
                <valuemax>100</valuemax>
                <value>5</value>
              </parameter>
              <parameter>
                <parameterid>textopacity</parameterid>
                <name>Text Opacity</name>
                <valuemin>0</valuemin>
                <valuemax>100</valuemax>
                <value>100</value>
              </parameter>
              <parameter>
                <parameterid>center</parameterid>
                <name>Center</name>
                <value>
                  <horiz>0</horiz>
                  <vert>0.4703703703703703</vert>
                </value>
              </parameter>
              <parameter>
                <parameterid>textcolor</parameterid>
                <name>Text Color</name>
                <value>
                  <alpha>255</alpha>
                  <red>255</red>
                  <green>255</green>
                  <blue>255</blue>
                </value>
              </parameter>
              <parameter>
                <parameterid>supertext</parameterid>
                <name>Text Graphic</name>
              </parameter>
              <parameter>
                <parameterid>linecolor</parameterid>
                <name>Line Color</name>
                <value>
                  <alpha>255</alpha>
                  <red>0</red>
                  <green>0</green>
                  <blue>0</blue>
                </value>
              </parameter>
              <parameter>
                <parameterid>superline</parameterid>
                <name>Line Graphic</name>
              </parameter>
              <parameter>
                <parameterid>part2</parameterid>
                <name>Background Settings</name>
              </parameter>
              <parameter>
                <parameterid>xscale</parameterid>
                <name>Horizontal Size</name>
                <valuemin>0</valuemin>
                <valuemax>200</valuemax>
                <value>0</value>
              </parameter>
              <parameter>
                <parameterid>yscale</parameterid>
                <name>Vertical Size</name>
                <valuemin>0</valuemin>
                <valuemax>200</valuemax>
                <value>0</value>
              </parameter>
              <parameter>
                <parameterid>xoffset</parameterid>
                <name>Horizontal Offset</name>
                <valuemin>-100</valuemin>
                <valuemax>100</valuemax>
                <value>0</value>
              </parameter>
              <parameter>
                <parameterid>yoffset</parameterid>
                <name>Vertical Offset</name>
                <valuemin>-100</valuemin>
                <valuemax>100</valuemax>
                <value>0</value>
              </parameter>
              <parameter>
                <parameterid>backsoft</parameterid>
                <name>Back Soft</name>
                <valuemin>0</valuemin>
                <valuemax>100</valuemax>
                <value>0</value>
              </parameter>
              <parameter>
                <parameterid>backopacity</parameterid>
                <name>Back Opacity</name>
                <valuemin>0</valuemin>
                <valuemax>100</valuemax>
                <value>50</value>
              </parameter>
              <parameter>
                <parameterid>backcolor</parameterid>
                <name>Back Color</name>
                <value>
                  <alpha>255</alpha>
                  <red>255</red>
                  <green>255</green>
                  <blue>255</blue>
                </value>
              </parameter>
              <parameter>
                <parameterid>superback</parameterid>
                <name>Back Graphic</name>
              </parameter>
              <parameter>
                <parameterid>crop</parameterid>
                <name>Crop</name>
                <value>false</value>
              </parameter>
              <parameter>
                <parameterid>autokern</parameterid>
                <name>Auto Kerning</name>
                <value>true</value>
              </parameter>
            </effect>
            <sourcetrack>
              <mediatype>video</mediatype>
            </sourcetrack>
          </generatoritem>
          <generatoritem id="Outline Text1">
            <name>多分私たちみんな今のオルラブの子たちが地方出身なので</name>
            <duration>22166.1117</duration>
            <rate>
              <timebase>30</timebase>
              <ntsc>true</ntsc>
            </rate>
            <start>5474.919600000003</start>
            <end>5617.576800000001</end>
            <in>5474.919600000003</in>
            <out>5617.576800000001</out>
            <enabled>true</enabled>
            <anamorphic>false</anamorphic>
            <alphatype>black</alphatype>
            <masterclipid>Outline Text1</masterclipid>
            <effect>
              <name>Outline Text</name>
              <effectid>Outline Text</effectid>
              <effectcategory>Text</effectcategory>
              <effecttype>generator</effecttype>
              <mediatype>video</mediatype>
              <parameter>
                <parameterid>part1</parameterid>
                <name>Text Settings</name>
                <value/>
              </parameter>
              <parameter>
                <parameterid>str</parameterid>
                <name>Text</name>
                <value>多分私たちみんな今のオルラブの子たちが地方出身なので</value>
              </parameter>
              <parameter>
                <parameterid>font</parameterid>
                <name>Font</name>
                <value>HiraginoSans-W6</value>
              </parameter>
              <parameter>
                <parameterid>style</parameterid>
                <name>Style</name>
                <valuemin>1</valuemin>
                <valuemax>1</valuemax>
                <valuelist>
                  <valueentry>
                    <name>Regular</name>
                    <value>1</value>
                  </valueentry>
                </valuelist>
                <value>1</value>
              </parameter>
              <parameter>
                <parameterid>align</parameterid>
                <name>Alignment</name>
                <valuemin>1</valuemin>
                <valuemax>3</valuemax>
                <valuelist>
                  <valueentry>
                    <name>Left</name>
                    <value>1</value>
                  </valueentry>
                  <valueentry>
                    <name>Center</name>
                    <value>2</value>
                  </valueentry>
                  <valueentry>
                    <name>Right</name>
                    <value>3</value>
                  </valueentry>
                </valuelist>
                <value>2</value>
              </parameter>
              <parameter>
                <parameterid>size</parameterid>
                <name>Size</name>
                <valuemin>0</valuemin>
                <valuemax>200</valuemax>
                <value>24</value>
              </parameter>
              <parameter>
                <parameterid>track</parameterid>
                <name>Tracking</name>
                <valuemin>0</valuemin>
                <valuemax>100</valuemax>
                <value>1</value>
              </parameter>
              <parameter>
                <parameterid>lead</parameterid>
                <name>Leading</name>
                <valuemin>-100</valuemin>
                <valuemax>100</valuemax>
                <value>0</value>
              </parameter>
              <parameter>
                <parameterid>aspect</parameterid>
                <name>Aspect</name>
                <valuemin>0</valuemin>
                <valuemax>4</valuemax>
                <value>1</value>
              </parameter>
              <parameter>
                <parameterid>linewidth</parameterid>
                <name>Line Width</name>
                <valuemin>0</valuemin>
                <valuemax>200</valuemax>
                <value>2</value>
              </parameter>
              <parameter>
                <parameterid>linesoft</parameterid>
                <name>Line Softness</name>
                <valuemin>0</valuemin>
                <valuemax>100</valuemax>
                <value>5</value>
              </parameter>
              <parameter>
                <parameterid>textopacity</parameterid>
                <name>Text Opacity</name>
                <valuemin>0</valuemin>
                <valuemax>100</valuemax>
                <value>100</value>
              </parameter>
              <parameter>
                <parameterid>center</parameterid>
                <name>Center</name>
                <value>
                  <horiz>0</horiz>
                  <vert>0.4703703703703703</vert>
                </value>
              </parameter>
              <parameter>
                <parameterid>textcolor</parameterid>
                <name>Text Color</name>
                <value>
                  <alpha>255</alpha>
                  <red>255</red>
                  <green>255</green>
                  <blue>255</blue>
                </value>
              </parameter>
              <parameter>
                <parameterid>supertext</parameterid>
                <name>Text Graphic</name>
              </parameter>
              <parameter>
                <parameterid>linecolor</parameterid>
                <name>Line Color</name>
                <value>
                  <alpha>255</alpha>
                  <red>0</red>
                  <green>0</green>
                  <blue>0</blue>
                </value>
              </parameter>
              <parameter>
                <parameterid>superline</parameterid>
                <name>Line Graphic</name>
              </parameter>
              <parameter>
                <parameterid>part2</parameterid>
                <name>Background Settings</name>
              </parameter>
              <parameter>
                <parameterid>xscale</parameterid>
                <name>Horizontal Size</name>
                <valuemin>0</valuemin>
                <valuemax>200</valuemax>
                <value>0</value>
              </parameter>
              <parameter>
                <parameterid>yscale</parameterid>
                <name>Vertical Size</name>
                <valuemin>0</valuemin>
                <valuemax>200</valuemax>
                <value>0</value>
              </parameter>
              <parameter>
                <parameterid>xoffset</parameterid>
                <name>Horizontal Offset</name>
                <valuemin>-100</valuemin>
                <valuemax>100</valuemax>
                <value>0</value>
              </parameter>
              <parameter>
                <parameterid>yoffset</parameterid>
                <name>Vertical Offset</name>
                <valuemin>-100</valuemin>
                <valuemax>100</valuemax>
                <value>0</value>
              </parameter>
              <parameter>
                <parameterid>backsoft</parameterid>
                <name>Back Soft</name>
                <valuemin>0</valuemin>
                <valuemax>100</valuemax>
                <value>0</value>
              </parameter>
              <parameter>
                <parameterid>backopacity</parameterid>
                <name>Back Opacity</name>
                <valuemin>0</valuemin>
                <valuemax>100</valuemax>
                <value>50</value>
              </parameter>
              <parameter>
                <parameterid>backcolor</parameterid>
                <name>Back Color</name>
                <value>
                  <alpha>255</alpha>
                  <red>255</red>
                  <green>255</green>
                  <blue>255</blue>
                </value>
              </parameter>
              <parameter>
                <parameterid>superback</parameterid>
                <name>Back Graphic</name>
              </parameter>
              <parameter>
                <parameterid>crop</parameterid>
                <name>Crop</name>
                <value>false</value>
              </parameter>
              <parameter>
                <parameterid>autokern</parameterid>
                <name>Auto Kerning</name>
                <value>true</value>
              </parameter>
            </effect>
            <sourcetrack>
              <mediatype>video</mediatype>
            </sourcetrack>
          </generatoritem>
          <generatoritem id="Outline Text1">
            <name>みんな上京する前にトキセンの子たちが</name>
            <duration>22166.1117</duration>
            <rate>
              <timebase>30</timebase>
              <ntsc>true</ntsc>
            </rate>
            <start>5617.576800000001</start>
            <end>5693.400900000001</end>
            <in>5617.576800000001</in>
            <out>5693.400900000001</out>
            <enabled>true</enabled>
            <anamorphic>false</anamorphic>
            <alphatype>black</alphatype>
            <masterclipid>Outline Text1</masterclipid>
            <effect>
              <name>Outline Text</name>
              <effectid>Outline Text</effectid>
              <effectcategory>Text</effectcategory>
              <effecttype>generator</effecttype>
              <mediatype>video</mediatype>
              <parameter>
                <parameterid>part1</parameterid>
                <name>Text Settings</name>
                <value/>
              </parameter>
              <parameter>
                <parameterid>str</parameterid>
                <name>Text</name>
                <value>みんな上京する前にトキセンの子たちが</value>
              </parameter>
              <parameter>
                <parameterid>font</parameterid>
                <name>Font</name>
                <value>HiraginoSans-W6</value>
              </parameter>
              <parameter>
                <parameterid>style</parameterid>
                <name>Style</name>
                <valuemin>1</valuemin>
                <valuemax>1</valuemax>
                <valuelist>
                  <valueentry>
                    <name>Regular</name>
                    <value>1</value>
                  </valueentry>
                </valuelist>
                <value>1</value>
              </parameter>
              <parameter>
                <parameterid>align</parameterid>
                <name>Alignment</name>
                <valuemin>1</valuemin>
                <valuemax>3</valuemax>
                <valuelist>
                  <valueentry>
                    <name>Left</name>
                    <value>1</value>
                  </valueentry>
                  <valueentry>
                    <name>Center</name>
                    <value>2</value>
                  </valueentry>
                  <valueentry>
                    <name>Right</name>
                    <value>3</value>
                  </valueentry>
                </valuelist>
                <value>2</value>
              </parameter>
              <parameter>
                <parameterid>size</parameterid>
                <name>Size</name>
                <valuemin>0</valuemin>
                <valuemax>200</valuemax>
                <value>24</value>
              </parameter>
              <parameter>
                <parameterid>track</parameterid>
                <name>Tracking</name>
                <valuemin>0</valuemin>
                <valuemax>100</valuemax>
                <value>1</value>
              </parameter>
              <parameter>
                <parameterid>lead</parameterid>
                <name>Leading</name>
                <valuemin>-100</valuemin>
                <valuemax>100</valuemax>
                <value>0</value>
              </parameter>
              <parameter>
                <parameterid>aspect</parameterid>
                <name>Aspect</name>
                <valuemin>0</valuemin>
                <valuemax>4</valuemax>
                <value>1</value>
              </parameter>
              <parameter>
                <parameterid>linewidth</parameterid>
                <name>Line Width</name>
                <valuemin>0</valuemin>
                <valuemax>200</valuemax>
                <value>2</value>
              </parameter>
              <parameter>
                <parameterid>linesoft</parameterid>
                <name>Line Softness</name>
                <valuemin>0</valuemin>
                <valuemax>100</valuemax>
                <value>5</value>
              </parameter>
              <parameter>
                <parameterid>textopacity</parameterid>
                <name>Text Opacity</name>
                <valuemin>0</valuemin>
                <valuemax>100</valuemax>
                <value>100</value>
              </parameter>
              <parameter>
                <parameterid>center</parameterid>
                <name>Center</name>
                <value>
                  <horiz>0</horiz>
                  <vert>0.4703703703703703</vert>
                </value>
              </parameter>
              <parameter>
                <parameterid>textcolor</parameterid>
                <name>Text Color</name>
                <value>
                  <alpha>255</alpha>
                  <red>255</red>
                  <green>255</green>
                  <blue>255</blue>
                </value>
              </parameter>
              <parameter>
                <parameterid>supertext</parameterid>
                <name>Text Graphic</name>
              </parameter>
              <parameter>
                <parameterid>linecolor</parameterid>
                <name>Line Color</name>
                <value>
                  <alpha>255</alpha>
                  <red>0</red>
                  <green>0</green>
                  <blue>0</blue>
                </value>
              </parameter>
              <parameter>
                <parameterid>superline</parameterid>
                <name>Line Graphic</name>
              </parameter>
              <parameter>
                <parameterid>part2</parameterid>
                <name>Background Settings</name>
              </parameter>
              <parameter>
                <parameterid>xscale</parameterid>
                <name>Horizontal Size</name>
                <valuemin>0</valuemin>
                <valuemax>200</valuemax>
                <value>0</value>
              </parameter>
              <parameter>
                <parameterid>yscale</parameterid>
                <name>Vertical Size</name>
                <valuemin>0</valuemin>
                <valuemax>200</valuemax>
                <value>0</value>
              </parameter>
              <parameter>
                <parameterid>xoffset</parameterid>
                <name>Horizontal Offset</name>
                <valuemin>-100</valuemin>
                <valuemax>100</valuemax>
                <value>0</value>
              </parameter>
              <parameter>
                <parameterid>yoffset</parameterid>
                <name>Vertical Offset</name>
                <valuemin>-100</valuemin>
                <valuemax>100</valuemax>
                <value>0</value>
              </parameter>
              <parameter>
                <parameterid>backsoft</parameterid>
                <name>Back Soft</name>
                <valuemin>0</valuemin>
                <valuemax>100</valuemax>
                <value>0</value>
              </parameter>
              <parameter>
                <parameterid>backopacity</parameterid>
                <name>Back Opacity</name>
                <valuemin>0</valuemin>
                <valuemax>100</valuemax>
                <value>50</value>
              </parameter>
              <parameter>
                <parameterid>backcolor</parameterid>
                <name>Back Color</name>
                <value>
                  <alpha>255</alpha>
                  <red>255</red>
                  <green>255</green>
                  <blue>255</blue>
                </value>
              </parameter>
              <parameter>
                <parameterid>superback</parameterid>
                <name>Back Graphic</name>
              </parameter>
              <parameter>
                <parameterid>crop</parameterid>
                <name>Crop</name>
                <value>false</value>
              </parameter>
              <parameter>
                <parameterid>autokern</parameterid>
                <name>Auto Kerning</name>
                <value>true</value>
              </parameter>
            </effect>
            <sourcetrack>
              <mediatype>video</mediatype>
            </sourcetrack>
          </generatoritem>
          <generatoritem id="Outline Text1">
            <name>今の劇団にいてトキセンの子たちがトキセンとして</name>
            <duration>22166.1117</duration>
            <rate>
              <timebase>30</timebase>
              <ntsc>true</ntsc>
            </rate>
            <start>5693.400900000001</start>
            <end>5787.207</end>
            <in>5693.400900000001</in>
            <out>5787.207</out>
            <enabled>true</enabled>
            <anamorphic>false</anamorphic>
            <alphatype>black</alphatype>
            <masterclipid>Outline Text1</masterclipid>
            <effect>
              <name>Outline Text</name>
              <effectid>Outline Text</effectid>
              <effectcategory>Text</effectcategory>
              <effecttype>generator</effecttype>
              <mediatype>video</mediatype>
              <parameter>
                <parameterid>part1</parameterid>
                <name>Text Settings</name>
                <value/>
              </parameter>
              <parameter>
                <parameterid>str</parameterid>
                <name>Text</name>
                <value>今の劇団にいてトキセンの子たちがトキセンとして</value>
              </parameter>
              <parameter>
                <parameterid>font</parameterid>
                <name>Font</name>
                <value>HiraginoSans-W6</value>
              </parameter>
              <parameter>
                <parameterid>style</parameterid>
                <name>Style</name>
                <valuemin>1</valuemin>
                <valuemax>1</valuemax>
                <valuelist>
                  <valueentry>
                    <name>Regular</name>
                    <value>1</value>
                  </valueentry>
                </valuelist>
                <value>1</value>
              </parameter>
              <parameter>
                <parameterid>align</parameterid>
                <name>Alignment</name>
                <valuemin>1</valuemin>
                <valuemax>3</valuemax>
                <valuelist>
                  <valueentry>
                    <name>Left</name>
                    <value>1</value>
                  </valueentry>
                  <valueentry>
                    <name>Center</name>
                    <value>2</value>
                  </valueentry>
                  <valueentry>
                    <name>Right</name>
                    <value>3</value>
                  </valueentry>
                </valuelist>
                <value>2</value>
              </parameter>
              <parameter>
                <parameterid>size</parameterid>
                <name>Size</name>
                <valuemin>0</valuemin>
                <valuemax>200</valuemax>
                <value>24</value>
              </parameter>
              <parameter>
                <parameterid>track</parameterid>
                <name>Tracking</name>
                <valuemin>0</valuemin>
                <valuemax>100</valuemax>
                <value>1</value>
              </parameter>
              <parameter>
                <parameterid>lead</parameterid>
                <name>Leading</name>
                <valuemin>-100</valuemin>
                <valuemax>100</valuemax>
                <value>0</value>
              </parameter>
              <parameter>
                <parameterid>aspect</parameterid>
                <name>Aspect</name>
                <valuemin>0</valuemin>
                <valuemax>4</valuemax>
                <value>1</value>
              </parameter>
              <parameter>
                <parameterid>linewidth</parameterid>
                <name>Line Width</name>
                <valuemin>0</valuemin>
                <valuemax>200</valuemax>
                <value>2</value>
              </parameter>
              <parameter>
                <parameterid>linesoft</parameterid>
                <name>Line Softness</name>
                <valuemin>0</valuemin>
                <valuemax>100</valuemax>
                <value>5</value>
              </parameter>
              <parameter>
                <parameterid>textopacity</parameterid>
                <name>Text Opacity</name>
                <valuemin>0</valuemin>
                <valuemax>100</valuemax>
                <value>100</value>
              </parameter>
              <parameter>
                <parameterid>center</parameterid>
                <name>Center</name>
                <value>
                  <horiz>0</horiz>
                  <vert>0.4703703703703703</vert>
                </value>
              </parameter>
              <parameter>
                <parameterid>textcolor</parameterid>
                <name>Text Color</name>
                <value>
                  <alpha>255</alpha>
                  <red>255</red>
                  <green>255</green>
                  <blue>255</blue>
                </value>
              </parameter>
              <parameter>
                <parameterid>supertext</parameterid>
                <name>Text Graphic</name>
              </parameter>
              <parameter>
                <parameterid>linecolor</parameterid>
                <name>Line Color</name>
                <value>
                  <alpha>255</alpha>
                  <red>0</red>
                  <green>0</green>
                  <blue>0</blue>
                </value>
              </parameter>
              <parameter>
                <parameterid>superline</parameterid>
                <name>Line Graphic</name>
              </parameter>
              <parameter>
                <parameterid>part2</parameterid>
                <name>Background Settings</name>
              </parameter>
              <parameter>
                <parameterid>xscale</parameterid>
                <name>Horizontal Size</name>
                <valuemin>0</valuemin>
                <valuemax>200</valuemax>
                <value>0</value>
              </parameter>
              <parameter>
                <parameterid>yscale</parameterid>
                <name>Vertical Size</name>
                <valuemin>0</valuemin>
                <valuemax>200</valuemax>
                <value>0</value>
              </parameter>
              <parameter>
                <parameterid>xoffset</parameterid>
                <name>Horizontal Offset</name>
                <valuemin>-100</valuemin>
                <valuemax>100</valuemax>
                <value>0</value>
              </parameter>
              <parameter>
                <parameterid>yoffset</parameterid>
                <name>Vertical Offset</name>
                <valuemin>-100</valuemin>
                <valuemax>100</valuemax>
                <value>0</value>
              </parameter>
              <parameter>
                <parameterid>backsoft</parameterid>
                <name>Back Soft</name>
                <valuemin>0</valuemin>
                <valuemax>100</valuemax>
                <value>0</value>
              </parameter>
              <parameter>
                <parameterid>backopacity</parameterid>
                <name>Back Opacity</name>
                <valuemin>0</valuemin>
                <valuemax>100</valuemax>
                <value>50</value>
              </parameter>
              <parameter>
                <parameterid>backcolor</parameterid>
                <name>Back Color</name>
                <value>
                  <alpha>255</alpha>
                  <red>255</red>
                  <green>255</green>
                  <blue>255</blue>
                </value>
              </parameter>
              <parameter>
                <parameterid>superback</parameterid>
                <name>Back Graphic</name>
              </parameter>
              <parameter>
                <parameterid>crop</parameterid>
                <name>Crop</name>
                <value>false</value>
              </parameter>
              <parameter>
                <parameterid>autokern</parameterid>
                <name>Auto Kerning</name>
                <value>true</value>
              </parameter>
            </effect>
            <sourcetrack>
              <mediatype>video</mediatype>
            </sourcetrack>
          </generatoritem>
          <generatoritem id="Outline Text1">
            <name>いろんな活動してて</name>
            <duration>22166.1117</duration>
            <rate>
              <timebase>30</timebase>
              <ntsc>true</ntsc>
            </rate>
            <start>5787.207</start>
            <end>5823.171</end>
            <in>5787.207</in>
            <out>5823.171</out>
            <enabled>true</enabled>
            <anamorphic>false</anamorphic>
            <alphatype>black</alphatype>
            <masterclipid>Outline Text1</masterclipid>
            <effect>
              <name>Outline Text</name>
              <effectid>Outline Text</effectid>
              <effectcategory>Text</effectcategory>
              <effecttype>generator</effecttype>
              <mediatype>video</mediatype>
              <parameter>
                <parameterid>part1</parameterid>
                <name>Text Settings</name>
                <value/>
              </parameter>
              <parameter>
                <parameterid>str</parameterid>
                <name>Text</name>
                <value>いろんな活動してて</value>
              </parameter>
              <parameter>
                <parameterid>font</parameterid>
                <name>Font</name>
                <value>HiraginoSans-W6</value>
              </parameter>
              <parameter>
                <parameterid>style</parameterid>
                <name>Style</name>
                <valuemin>1</valuemin>
                <valuemax>1</valuemax>
                <valuelist>
                  <valueentry>
                    <name>Regular</name>
                    <value>1</value>
                  </valueentry>
                </valuelist>
                <value>1</value>
              </parameter>
              <parameter>
                <parameterid>align</parameterid>
                <name>Alignment</name>
                <valuemin>1</valuemin>
                <valuemax>3</valuemax>
                <valuelist>
                  <valueentry>
                    <name>Left</name>
                    <value>1</value>
                  </valueentry>
                  <valueentry>
                    <name>Center</name>
                    <value>2</value>
                  </valueentry>
                  <valueentry>
                    <name>Right</name>
                    <value>3</value>
                  </valueentry>
                </valuelist>
                <value>2</value>
              </parameter>
              <parameter>
                <parameterid>size</parameterid>
                <name>Size</name>
                <valuemin>0</valuemin>
                <valuemax>200</valuemax>
                <value>24</value>
              </parameter>
              <parameter>
                <parameterid>track</parameterid>
                <name>Tracking</name>
                <valuemin>0</valuemin>
                <valuemax>100</valuemax>
                <value>1</value>
              </parameter>
              <parameter>
                <parameterid>lead</parameterid>
                <name>Leading</name>
                <valuemin>-100</valuemin>
                <valuemax>100</valuemax>
                <value>0</value>
              </parameter>
              <parameter>
                <parameterid>aspect</parameterid>
                <name>Aspect</name>
                <valuemin>0</valuemin>
                <valuemax>4</valuemax>
                <value>1</value>
              </parameter>
              <parameter>
                <parameterid>linewidth</parameterid>
                <name>Line Width</name>
                <valuemin>0</valuemin>
                <valuemax>200</valuemax>
                <value>2</value>
              </parameter>
              <parameter>
                <parameterid>linesoft</parameterid>
                <name>Line Softness</name>
                <valuemin>0</valuemin>
                <valuemax>100</valuemax>
                <value>5</value>
              </parameter>
              <parameter>
                <parameterid>textopacity</parameterid>
                <name>Text Opacity</name>
                <valuemin>0</valuemin>
                <valuemax>100</valuemax>
                <value>100</value>
              </parameter>
              <parameter>
                <parameterid>center</parameterid>
                <name>Center</name>
                <value>
                  <horiz>0</horiz>
                  <vert>0.4703703703703703</vert>
                </value>
              </parameter>
              <parameter>
                <parameterid>textcolor</parameterid>
                <name>Text Color</name>
                <value>
                  <alpha>255</alpha>
                  <red>255</red>
                  <green>255</green>
                  <blue>255</blue>
                </value>
              </parameter>
              <parameter>
                <parameterid>supertext</parameterid>
                <name>Text Graphic</name>
              </parameter>
              <parameter>
                <parameterid>linecolor</parameterid>
                <name>Line Color</name>
                <value>
                  <alpha>255</alpha>
                  <red>0</red>
                  <green>0</green>
                  <blue>0</blue>
                </value>
              </parameter>
              <parameter>
                <parameterid>superline</parameterid>
                <name>Line Graphic</name>
              </parameter>
              <parameter>
                <parameterid>part2</parameterid>
                <name>Background Settings</name>
              </parameter>
              <parameter>
                <parameterid>xscale</parameterid>
                <name>Horizontal Size</name>
                <valuemin>0</valuemin>
                <valuemax>200</valuemax>
                <value>0</value>
              </parameter>
              <parameter>
                <parameterid>yscale</parameterid>
                <name>Vertical Size</name>
                <valuemin>0</valuemin>
                <valuemax>200</valuemax>
                <value>0</value>
              </parameter>
              <parameter>
                <parameterid>xoffset</parameterid>
                <name>Horizontal Offset</name>
                <valuemin>-100</valuemin>
                <valuemax>100</valuemax>
                <value>0</value>
              </parameter>
              <parameter>
                <parameterid>yoffset</parameterid>
                <name>Vertical Offset</name>
                <valuemin>-100</valuemin>
                <valuemax>100</valuemax>
                <value>0</value>
              </parameter>
              <parameter>
                <parameterid>backsoft</parameterid>
                <name>Back Soft</name>
                <valuemin>0</valuemin>
                <valuemax>100</valuemax>
                <value>0</value>
              </parameter>
              <parameter>
                <parameterid>backopacity</parameterid>
                <name>Back Opacity</name>
                <valuemin>0</valuemin>
                <valuemax>100</valuemax>
                <value>50</value>
              </parameter>
              <parameter>
                <parameterid>backcolor</parameterid>
                <name>Back Color</name>
                <value>
                  <alpha>255</alpha>
                  <red>255</red>
                  <green>255</green>
                  <blue>255</blue>
                </value>
              </parameter>
              <parameter>
                <parameterid>superback</parameterid>
                <name>Back Graphic</name>
              </parameter>
              <parameter>
                <parameterid>crop</parameterid>
                <name>Crop</name>
                <value>false</value>
              </parameter>
              <parameter>
                <parameterid>autokern</parameterid>
                <name>Auto Kerning</name>
                <value>true</value>
              </parameter>
            </effect>
            <sourcetrack>
              <mediatype>video</mediatype>
            </sourcetrack>
          </generatoritem>
          <generatoritem id="Outline Text1">
            <name>私たちがちょうど上京してきて入れ違えた</name>
            <duration>22166.1117</duration>
            <rate>
              <timebase>30</timebase>
              <ntsc>true</ntsc>
            </rate>
            <start>5823.171</start>
            <end>6072.5214000000005</end>
            <in>5823.171</in>
            <out>6072.5214000000005</out>
            <enabled>true</enabled>
            <anamorphic>false</anamorphic>
            <alphatype>black</alphatype>
            <masterclipid>Outline Text1</masterclipid>
            <effect>
              <name>Outline Text</name>
              <effectid>Outline Text</effectid>
              <effectcategory>Text</effectcategory>
              <effecttype>generator</effecttype>
              <mediatype>video</mediatype>
              <parameter>
                <parameterid>part1</parameterid>
                <name>Text Settings</name>
                <value/>
              </parameter>
              <parameter>
                <parameterid>str</parameterid>
                <name>Text</name>
                <value>私たちがちょうど上京してきて入れ違えた</value>
              </parameter>
              <parameter>
                <parameterid>font</parameterid>
                <name>Font</name>
                <value>HiraginoSans-W6</value>
              </parameter>
              <parameter>
                <parameterid>style</parameterid>
                <name>Style</name>
                <valuemin>1</valuemin>
                <valuemax>1</valuemax>
                <valuelist>
                  <valueentry>
                    <name>Regular</name>
                    <value>1</value>
                  </valueentry>
                </valuelist>
                <value>1</value>
              </parameter>
              <parameter>
                <parameterid>align</parameterid>
                <name>Alignment</name>
                <valuemin>1</valuemin>
                <valuemax>3</valuemax>
                <valuelist>
                  <valueentry>
                    <name>Left</name>
                    <value>1</value>
                  </valueentry>
                  <valueentry>
                    <name>Center</name>
                    <value>2</value>
                  </valueentry>
                  <valueentry>
                    <name>Right</name>
                    <value>3</value>
                  </valueentry>
                </valuelist>
                <value>2</value>
              </parameter>
              <parameter>
                <parameterid>size</parameterid>
                <name>Size</name>
                <valuemin>0</valuemin>
                <valuemax>200</valuemax>
                <value>24</value>
              </parameter>
              <parameter>
                <parameterid>track</parameterid>
                <name>Tracking</name>
                <valuemin>0</valuemin>
                <valuemax>100</valuemax>
                <value>1</value>
              </parameter>
              <parameter>
                <parameterid>lead</parameterid>
                <name>Leading</name>
                <valuemin>-100</valuemin>
                <valuemax>100</valuemax>
                <value>0</value>
              </parameter>
              <parameter>
                <parameterid>aspect</parameterid>
                <name>Aspect</name>
                <valuemin>0</valuemin>
                <valuemax>4</valuemax>
                <value>1</value>
              </parameter>
              <parameter>
                <parameterid>linewidth</parameterid>
                <name>Line Width</name>
                <valuemin>0</valuemin>
                <valuemax>200</valuemax>
                <value>2</value>
              </parameter>
              <parameter>
                <parameterid>linesoft</parameterid>
                <name>Line Softness</name>
                <valuemin>0</valuemin>
                <valuemax>100</valuemax>
                <value>5</value>
              </parameter>
              <parameter>
                <parameterid>textopacity</parameterid>
                <name>Text Opacity</name>
                <valuemin>0</valuemin>
                <valuemax>100</valuemax>
                <value>100</value>
              </parameter>
              <parameter>
                <parameterid>center</parameterid>
                <name>Center</name>
                <value>
                  <horiz>0</horiz>
                  <vert>0.4703703703703703</vert>
                </value>
              </parameter>
              <parameter>
                <parameterid>textcolor</parameterid>
                <name>Text Color</name>
                <value>
                  <alpha>255</alpha>
                  <red>255</red>
                  <green>255</green>
                  <blue>255</blue>
                </value>
              </parameter>
              <parameter>
                <parameterid>supertext</parameterid>
                <name>Text Graphic</name>
              </parameter>
              <parameter>
                <parameterid>linecolor</parameterid>
                <name>Line Color</name>
                <value>
                  <alpha>255</alpha>
                  <red>0</red>
                  <green>0</green>
                  <blue>0</blue>
                </value>
              </parameter>
              <parameter>
                <parameterid>superline</parameterid>
                <name>Line Graphic</name>
              </parameter>
              <parameter>
                <parameterid>part2</parameterid>
                <name>Background Settings</name>
              </parameter>
              <parameter>
                <parameterid>xscale</parameterid>
                <name>Horizontal Size</name>
                <valuemin>0</valuemin>
                <valuemax>200</valuemax>
                <value>0</value>
              </parameter>
              <parameter>
                <parameterid>yscale</parameterid>
                <name>Vertical Size</name>
                <valuemin>0</valuemin>
                <valuemax>200</valuemax>
                <value>0</value>
              </parameter>
              <parameter>
                <parameterid>xoffset</parameterid>
                <name>Horizontal Offset</name>
                <valuemin>-100</valuemin>
                <valuemax>100</valuemax>
                <value>0</value>
              </parameter>
              <parameter>
                <parameterid>yoffset</parameterid>
                <name>Vertical Offset</name>
                <valuemin>-100</valuemin>
                <valuemax>100</valuemax>
                <value>0</value>
              </parameter>
              <parameter>
                <parameterid>backsoft</parameterid>
                <name>Back Soft</name>
                <valuemin>0</valuemin>
                <valuemax>100</valuemax>
                <value>0</value>
              </parameter>
              <parameter>
                <parameterid>backopacity</parameterid>
                <name>Back Opacity</name>
                <valuemin>0</valuemin>
                <valuemax>100</valuemax>
                <value>50</value>
              </parameter>
              <parameter>
                <parameterid>backcolor</parameterid>
                <name>Back Color</name>
                <value>
                  <alpha>255</alpha>
                  <red>255</red>
                  <green>255</green>
                  <blue>255</blue>
                </value>
              </parameter>
              <parameter>
                <parameterid>superback</parameterid>
                <name>Back Graphic</name>
              </parameter>
              <parameter>
                <parameterid>crop</parameterid>
                <name>Crop</name>
                <value>false</value>
              </parameter>
              <parameter>
                <parameterid>autokern</parameterid>
                <name>Auto Kerning</name>
                <value>true</value>
              </parameter>
            </effect>
            <sourcetrack>
              <mediatype>video</mediatype>
            </sourcetrack>
          </generatoritem>
          <generatoritem id="Outline Text1">
            <name>タイトルは公開されてます「</name>
            <duration>22166.1117</duration>
            <rate>
              <timebase>30</timebase>
              <ntsc>true</ntsc>
            </rate>
            <start>6072.5214000000005</start>
            <end>6121.072799999999</end>
            <in>6072.5214000000005</in>
            <out>6121.072799999999</out>
            <enabled>true</enabled>
            <anamorphic>false</anamorphic>
            <alphatype>black</alphatype>
            <masterclipid>Outline Text1</masterclipid>
            <effect>
              <name>Outline Text</name>
              <effectid>Outline Text</effectid>
              <effectcategory>Text</effectcategory>
              <effecttype>generator</effecttype>
              <mediatype>video</mediatype>
              <parameter>
                <parameterid>part1</parameterid>
                <name>Text Settings</name>
                <value/>
              </parameter>
              <parameter>
                <parameterid>str</parameterid>
                <name>Text</name>
                <value>タイトルは公開されてます「</value>
              </parameter>
              <parameter>
                <parameterid>font</parameterid>
                <name>Font</name>
                <value>HiraginoSans-W6</value>
              </parameter>
              <parameter>
                <parameterid>style</parameterid>
                <name>Style</name>
                <valuemin>1</valuemin>
                <valuemax>1</valuemax>
                <valuelist>
                  <valueentry>
                    <name>Regular</name>
                    <value>1</value>
                  </valueentry>
                </valuelist>
                <value>1</value>
              </parameter>
              <parameter>
                <parameterid>align</parameterid>
                <name>Alignment</name>
                <valuemin>1</valuemin>
                <valuemax>3</valuemax>
                <valuelist>
                  <valueentry>
                    <name>Left</name>
                    <value>1</value>
                  </valueentry>
                  <valueentry>
                    <name>Center</name>
                    <value>2</value>
                  </valueentry>
                  <valueentry>
                    <name>Right</name>
                    <value>3</value>
                  </valueentry>
                </valuelist>
                <value>2</value>
              </parameter>
              <parameter>
                <parameterid>size</parameterid>
                <name>Size</name>
                <valuemin>0</valuemin>
                <valuemax>200</valuemax>
                <value>24</value>
              </parameter>
              <parameter>
                <parameterid>track</parameterid>
                <name>Tracking</name>
                <valuemin>0</valuemin>
                <valuemax>100</valuemax>
                <value>1</value>
              </parameter>
              <parameter>
                <parameterid>lead</parameterid>
                <name>Leading</name>
                <valuemin>-100</valuemin>
                <valuemax>100</valuemax>
                <value>0</value>
              </parameter>
              <parameter>
                <parameterid>aspect</parameterid>
                <name>Aspect</name>
                <valuemin>0</valuemin>
                <valuemax>4</valuemax>
                <value>1</value>
              </parameter>
              <parameter>
                <parameterid>linewidth</parameterid>
                <name>Line Width</name>
                <valuemin>0</valuemin>
                <valuemax>200</valuemax>
                <value>2</value>
              </parameter>
              <parameter>
                <parameterid>linesoft</parameterid>
                <name>Line Softness</name>
                <valuemin>0</valuemin>
                <valuemax>100</valuemax>
                <value>5</value>
              </parameter>
              <parameter>
                <parameterid>textopacity</parameterid>
                <name>Text Opacity</name>
                <valuemin>0</valuemin>
                <valuemax>100</valuemax>
                <value>100</value>
              </parameter>
              <parameter>
                <parameterid>center</parameterid>
                <name>Center</name>
                <value>
                  <horiz>0</horiz>
                  <vert>0.4703703703703703</vert>
                </value>
              </parameter>
              <parameter>
                <parameterid>textcolor</parameterid>
                <name>Text Color</name>
                <value>
                  <alpha>255</alpha>
                  <red>255</red>
                  <green>255</green>
                  <blue>255</blue>
                </value>
              </parameter>
              <parameter>
                <parameterid>supertext</parameterid>
                <name>Text Graphic</name>
              </parameter>
              <parameter>
                <parameterid>linecolor</parameterid>
                <name>Line Color</name>
                <value>
                  <alpha>255</alpha>
                  <red>0</red>
                  <green>0</green>
                  <blue>0</blue>
                </value>
              </parameter>
              <parameter>
                <parameterid>superline</parameterid>
                <name>Line Graphic</name>
              </parameter>
              <parameter>
                <parameterid>part2</parameterid>
                <name>Background Settings</name>
              </parameter>
              <parameter>
                <parameterid>xscale</parameterid>
                <name>Horizontal Size</name>
                <valuemin>0</valuemin>
                <valuemax>200</valuemax>
                <value>0</value>
              </parameter>
              <parameter>
                <parameterid>yscale</parameterid>
                <name>Vertical Size</name>
                <valuemin>0</valuemin>
                <valuemax>200</valuemax>
                <value>0</value>
              </parameter>
              <parameter>
                <parameterid>xoffset</parameterid>
                <name>Horizontal Offset</name>
                <valuemin>-100</valuemin>
                <valuemax>100</valuemax>
                <value>0</value>
              </parameter>
              <parameter>
                <parameterid>yoffset</parameterid>
                <name>Vertical Offset</name>
                <valuemin>-100</valuemin>
                <valuemax>100</valuemax>
                <value>0</value>
              </parameter>
              <parameter>
                <parameterid>backsoft</parameterid>
                <name>Back Soft</name>
                <valuemin>0</valuemin>
                <valuemax>100</valuemax>
                <value>0</value>
              </parameter>
              <parameter>
                <parameterid>backopacity</parameterid>
                <name>Back Opacity</name>
                <valuemin>0</valuemin>
                <valuemax>100</valuemax>
                <value>50</value>
              </parameter>
              <parameter>
                <parameterid>backcolor</parameterid>
                <name>Back Color</name>
                <value>
                  <alpha>255</alpha>
                  <red>255</red>
                  <green>255</green>
                  <blue>255</blue>
                </value>
              </parameter>
              <parameter>
                <parameterid>superback</parameterid>
                <name>Back Graphic</name>
              </parameter>
              <parameter>
                <parameterid>crop</parameterid>
                <name>Crop</name>
                <value>false</value>
              </parameter>
              <parameter>
                <parameterid>autokern</parameterid>
                <name>Auto Kerning</name>
                <value>true</value>
              </parameter>
            </effect>
            <sourcetrack>
              <mediatype>video</mediatype>
            </sourcetrack>
          </generatoritem>
          <generatoritem id="Outline Text1">
            <name>おのぼりさん」です</name>
            <duration>22166.1117</duration>
            <rate>
              <timebase>30</timebase>
              <ntsc>true</ntsc>
            </rate>
            <start>6121.072799999999</start>
            <end>6163.030799999999</end>
            <in>6121.072799999999</in>
            <out>6163.030799999999</out>
            <enabled>true</enabled>
            <anamorphic>false</anamorphic>
            <alphatype>black</alphatype>
            <masterclipid>Outline Text1</masterclipid>
            <effect>
              <name>Outline Text</name>
              <effectid>Outline Text</effectid>
              <effectcategory>Text</effectcategory>
              <effecttype>generator</effecttype>
              <mediatype>video</mediatype>
              <parameter>
                <parameterid>part1</parameterid>
                <name>Text Settings</name>
                <value/>
              </parameter>
              <parameter>
                <parameterid>str</parameterid>
                <name>Text</name>
                <value>おのぼりさん」です</value>
              </parameter>
              <parameter>
                <parameterid>font</parameterid>
                <name>Font</name>
                <value>HiraginoSans-W6</value>
              </parameter>
              <parameter>
                <parameterid>style</parameterid>
                <name>Style</name>
                <valuemin>1</valuemin>
                <valuemax>1</valuemax>
                <valuelist>
                  <valueentry>
                    <name>Regular</name>
                    <value>1</value>
                  </valueentry>
                </valuelist>
                <value>1</value>
              </parameter>
              <parameter>
                <parameterid>align</parameterid>
                <name>Alignment</name>
                <valuemin>1</valuemin>
                <valuemax>3</valuemax>
                <valuelist>
                  <valueentry>
                    <name>Left</name>
                    <value>1</value>
                  </valueentry>
                  <valueentry>
                    <name>Center</name>
                    <value>2</value>
                  </valueentry>
                  <valueentry>
                    <name>Right</name>
                    <value>3</value>
                  </valueentry>
                </valuelist>
                <value>2</value>
              </parameter>
              <parameter>
                <parameterid>size</parameterid>
                <name>Size</name>
                <valuemin>0</valuemin>
                <valuemax>200</valuemax>
                <value>24</value>
              </parameter>
              <parameter>
                <parameterid>track</parameterid>
                <name>Tracking</name>
                <valuemin>0</valuemin>
                <valuemax>100</valuemax>
                <value>1</value>
              </parameter>
              <parameter>
                <parameterid>lead</parameterid>
                <name>Leading</name>
                <valuemin>-100</valuemin>
                <valuemax>100</valuemax>
                <value>0</value>
              </parameter>
              <parameter>
                <parameterid>aspect</parameterid>
                <name>Aspect</name>
                <valuemin>0</valuemin>
                <valuemax>4</valuemax>
                <value>1</value>
              </parameter>
              <parameter>
                <parameterid>linewidth</parameterid>
                <name>Line Width</name>
                <valuemin>0</valuemin>
                <valuemax>200</valuemax>
                <value>2</value>
              </parameter>
              <parameter>
                <parameterid>linesoft</parameterid>
                <name>Line Softness</name>
                <valuemin>0</valuemin>
                <valuemax>100</valuemax>
                <value>5</value>
              </parameter>
              <parameter>
                <parameterid>textopacity</parameterid>
                <name>Text Opacity</name>
                <valuemin>0</valuemin>
                <valuemax>100</valuemax>
                <value>100</value>
              </parameter>
              <parameter>
                <parameterid>center</parameterid>
                <name>Center</name>
                <value>
                  <horiz>0</horiz>
                  <vert>0.4703703703703703</vert>
                </value>
              </parameter>
              <parameter>
                <parameterid>textcolor</parameterid>
                <name>Text Color</name>
                <value>
                  <alpha>255</alpha>
                  <red>255</red>
                  <green>255</green>
                  <blue>255</blue>
                </value>
              </parameter>
              <parameter>
                <parameterid>supertext</parameterid>
                <name>Text Graphic</name>
              </parameter>
              <parameter>
                <parameterid>linecolor</parameterid>
                <name>Line Color</name>
                <value>
                  <alpha>255</alpha>
                  <red>0</red>
                  <green>0</green>
                  <blue>0</blue>
                </value>
              </parameter>
              <parameter>
                <parameterid>superline</parameterid>
                <name>Line Graphic</name>
              </parameter>
              <parameter>
                <parameterid>part2</parameterid>
                <name>Background Settings</name>
              </parameter>
              <parameter>
                <parameterid>xscale</parameterid>
                <name>Horizontal Size</name>
                <valuemin>0</valuemin>
                <valuemax>200</valuemax>
                <value>0</value>
              </parameter>
              <parameter>
                <parameterid>yscale</parameterid>
                <name>Vertical Size</name>
                <valuemin>0</valuemin>
                <valuemax>200</valuemax>
                <value>0</value>
              </parameter>
              <parameter>
                <parameterid>xoffset</parameterid>
                <name>Horizontal Offset</name>
                <valuemin>-100</valuemin>
                <valuemax>100</valuemax>
                <value>0</value>
              </parameter>
              <parameter>
                <parameterid>yoffset</parameterid>
                <name>Vertical Offset</name>
                <valuemin>-100</valuemin>
                <valuemax>100</valuemax>
                <value>0</value>
              </parameter>
              <parameter>
                <parameterid>backsoft</parameterid>
                <name>Back Soft</name>
                <valuemin>0</valuemin>
                <valuemax>100</valuemax>
                <value>0</value>
              </parameter>
              <parameter>
                <parameterid>backopacity</parameterid>
                <name>Back Opacity</name>
                <valuemin>0</valuemin>
                <valuemax>100</valuemax>
                <value>50</value>
              </parameter>
              <parameter>
                <parameterid>backcolor</parameterid>
                <name>Back Color</name>
                <value>
                  <alpha>255</alpha>
                  <red>255</red>
                  <green>255</green>
                  <blue>255</blue>
                </value>
              </parameter>
              <parameter>
                <parameterid>superback</parameterid>
                <name>Back Graphic</name>
              </parameter>
              <parameter>
                <parameterid>crop</parameterid>
                <name>Crop</name>
                <value>false</value>
              </parameter>
              <parameter>
                <parameterid>autokern</parameterid>
                <name>Auto Kerning</name>
                <value>true</value>
              </parameter>
            </effect>
            <sourcetrack>
              <mediatype>video</mediatype>
            </sourcetrack>
          </generatoritem>
          <generatoritem id="Outline Text1">
            <name>私たちも「おのぼりさん」です</name>
            <duration>22166.1117</duration>
            <rate>
              <timebase>30</timebase>
              <ntsc>true</ntsc>
            </rate>
            <start>6163.030799999999</start>
            <end>6223.570199999999</end>
            <in>6163.030799999999</in>
            <out>6223.570199999999</out>
            <enabled>true</enabled>
            <anamorphic>false</anamorphic>
            <alphatype>black</alphatype>
            <masterclipid>Outline Text1</masterclipid>
            <effect>
              <name>Outline Text</name>
              <effectid>Outline Text</effectid>
              <effectcategory>Text</effectcategory>
              <effecttype>generator</effecttype>
              <mediatype>video</mediatype>
              <parameter>
                <parameterid>part1</parameterid>
                <name>Text Settings</name>
                <value/>
              </parameter>
              <parameter>
                <parameterid>str</parameterid>
                <name>Text</name>
                <value>私たちも「おのぼりさん」です</value>
              </parameter>
              <parameter>
                <parameterid>font</parameterid>
                <name>Font</name>
                <value>HiraginoSans-W6</value>
              </parameter>
              <parameter>
                <parameterid>style</parameterid>
                <name>Style</name>
                <valuemin>1</valuemin>
                <valuemax>1</valuemax>
                <valuelist>
                  <valueentry>
                    <name>Regular</name>
                    <value>1</value>
                  </valueentry>
                </valuelist>
                <value>1</value>
              </parameter>
              <parameter>
                <parameterid>align</parameterid>
                <name>Alignment</name>
                <valuemin>1</valuemin>
                <valuemax>3</valuemax>
                <valuelist>
                  <valueentry>
                    <name>Left</name>
                    <value>1</value>
                  </valueentry>
                  <valueentry>
                    <name>Center</name>
                    <value>2</value>
                  </valueentry>
                  <valueentry>
                    <name>Right</name>
                    <value>3</value>
                  </valueentry>
                </valuelist>
                <value>2</value>
              </parameter>
              <parameter>
                <parameterid>size</parameterid>
                <name>Size</name>
                <valuemin>0</valuemin>
                <valuemax>200</valuemax>
                <value>24</value>
              </parameter>
              <parameter>
                <parameterid>track</parameterid>
                <name>Tracking</name>
                <valuemin>0</valuemin>
                <valuemax>100</valuemax>
                <value>1</value>
              </parameter>
              <parameter>
                <parameterid>lead</parameterid>
                <name>Leading</name>
                <valuemin>-100</valuemin>
                <valuemax>100</valuemax>
                <value>0</value>
              </parameter>
              <parameter>
                <parameterid>aspect</parameterid>
                <name>Aspect</name>
                <valuemin>0</valuemin>
                <valuemax>4</valuemax>
                <value>1</value>
              </parameter>
              <parameter>
                <parameterid>linewidth</parameterid>
                <name>Line Width</name>
                <valuemin>0</valuemin>
                <valuemax>200</valuemax>
                <value>2</value>
              </parameter>
              <parameter>
                <parameterid>linesoft</parameterid>
                <name>Line Softness</name>
                <valuemin>0</valuemin>
                <valuemax>100</valuemax>
                <value>5</value>
              </parameter>
              <parameter>
                <parameterid>textopacity</parameterid>
                <name>Text Opacity</name>
                <valuemin>0</valuemin>
                <valuemax>100</valuemax>
                <value>100</value>
              </parameter>
              <parameter>
                <parameterid>center</parameterid>
                <name>Center</name>
                <value>
                  <horiz>0</horiz>
                  <vert>0.4703703703703703</vert>
                </value>
              </parameter>
              <parameter>
                <parameterid>textcolor</parameterid>
                <name>Text Color</name>
                <value>
                  <alpha>255</alpha>
                  <red>255</red>
                  <green>255</green>
                  <blue>255</blue>
                </value>
              </parameter>
              <parameter>
                <parameterid>supertext</parameterid>
                <name>Text Graphic</name>
              </parameter>
              <parameter>
                <parameterid>linecolor</parameterid>
                <name>Line Color</name>
                <value>
                  <alpha>255</alpha>
                  <red>0</red>
                  <green>0</green>
                  <blue>0</blue>
                </value>
              </parameter>
              <parameter>
                <parameterid>superline</parameterid>
                <name>Line Graphic</name>
              </parameter>
              <parameter>
                <parameterid>part2</parameterid>
                <name>Background Settings</name>
              </parameter>
              <parameter>
                <parameterid>xscale</parameterid>
                <name>Horizontal Size</name>
                <valuemin>0</valuemin>
                <valuemax>200</valuemax>
                <value>0</value>
              </parameter>
              <parameter>
                <parameterid>yscale</parameterid>
                <name>Vertical Size</name>
                <valuemin>0</valuemin>
                <valuemax>200</valuemax>
                <value>0</value>
              </parameter>
              <parameter>
                <parameterid>xoffset</parameterid>
                <name>Horizontal Offset</name>
                <valuemin>-100</valuemin>
                <valuemax>100</valuemax>
                <value>0</value>
              </parameter>
              <parameter>
                <parameterid>yoffset</parameterid>
                <name>Vertical Offset</name>
                <valuemin>-100</valuemin>
                <valuemax>100</valuemax>
                <value>0</value>
              </parameter>
              <parameter>
                <parameterid>backsoft</parameterid>
                <name>Back Soft</name>
                <valuemin>0</valuemin>
                <valuemax>100</valuemax>
                <value>0</value>
              </parameter>
              <parameter>
                <parameterid>backopacity</parameterid>
                <name>Back Opacity</name>
                <valuemin>0</valuemin>
                <valuemax>100</valuemax>
                <value>50</value>
              </parameter>
              <parameter>
                <parameterid>backcolor</parameterid>
                <name>Back Color</name>
                <value>
                  <alpha>255</alpha>
                  <red>255</red>
                  <green>255</green>
                  <blue>255</blue>
                </value>
              </parameter>
              <parameter>
                <parameterid>superback</parameterid>
                <name>Back Graphic</name>
              </parameter>
              <parameter>
                <parameterid>crop</parameterid>
                <name>Crop</name>
                <value>false</value>
              </parameter>
              <parameter>
                <parameterid>autokern</parameterid>
                <name>Auto Kerning</name>
                <value>true</value>
              </parameter>
            </effect>
            <sourcetrack>
              <mediatype>video</mediatype>
            </sourcetrack>
          </generatoritem>
          <generatoritem id="Outline Text1">
            <name>オルラ部全員「おのぼりさん」です</name>
            <duration>22166.1117</duration>
            <rate>
              <timebase>30</timebase>
              <ntsc>true</ntsc>
            </rate>
            <start>6223.570199999999</start>
            <end>6360.533099999999</end>
            <in>6223.570199999999</in>
            <out>6360.533099999999</out>
            <enabled>true</enabled>
            <anamorphic>false</anamorphic>
            <alphatype>black</alphatype>
            <masterclipid>Outline Text1</masterclipid>
            <effect>
              <name>Outline Text</name>
              <effectid>Outline Text</effectid>
              <effectcategory>Text</effectcategory>
              <effecttype>generator</effecttype>
              <mediatype>video</mediatype>
              <parameter>
                <parameterid>part1</parameterid>
                <name>Text Settings</name>
                <value/>
              </parameter>
              <parameter>
                <parameterid>str</parameterid>
                <name>Text</name>
                <value>オルラ部全員「おのぼりさん」です</value>
              </parameter>
              <parameter>
                <parameterid>font</parameterid>
                <name>Font</name>
                <value>HiraginoSans-W6</value>
              </parameter>
              <parameter>
                <parameterid>style</parameterid>
                <name>Style</name>
                <valuemin>1</valuemin>
                <valuemax>1</valuemax>
                <valuelist>
                  <valueentry>
                    <name>Regular</name>
                    <value>1</value>
                  </valueentry>
                </valuelist>
                <value>1</value>
              </parameter>
              <parameter>
                <parameterid>align</parameterid>
                <name>Alignment</name>
                <valuemin>1</valuemin>
                <valuemax>3</valuemax>
                <valuelist>
                  <valueentry>
                    <name>Left</name>
                    <value>1</value>
                  </valueentry>
                  <valueentry>
                    <name>Center</name>
                    <value>2</value>
                  </valueentry>
                  <valueentry>
                    <name>Right</name>
                    <value>3</value>
                  </valueentry>
                </valuelist>
                <value>2</value>
              </parameter>
              <parameter>
                <parameterid>size</parameterid>
                <name>Size</name>
                <valuemin>0</valuemin>
                <valuemax>200</valuemax>
                <value>24</value>
              </parameter>
              <parameter>
                <parameterid>track</parameterid>
                <name>Tracking</name>
                <valuemin>0</valuemin>
                <valuemax>100</valuemax>
                <value>1</value>
              </parameter>
              <parameter>
                <parameterid>lead</parameterid>
                <name>Leading</name>
                <valuemin>-100</valuemin>
                <valuemax>100</valuemax>
                <value>0</value>
              </parameter>
              <parameter>
                <parameterid>aspect</parameterid>
                <name>Aspect</name>
                <valuemin>0</valuemin>
                <valuemax>4</valuemax>
                <value>1</value>
              </parameter>
              <parameter>
                <parameterid>linewidth</parameterid>
                <name>Line Width</name>
                <valuemin>0</valuemin>
                <valuemax>200</valuemax>
                <value>2</value>
              </parameter>
              <parameter>
                <parameterid>linesoft</parameterid>
                <name>Line Softness</name>
                <valuemin>0</valuemin>
                <valuemax>100</valuemax>
                <value>5</value>
              </parameter>
              <parameter>
                <parameterid>textopacity</parameterid>
                <name>Text Opacity</name>
                <valuemin>0</valuemin>
                <valuemax>100</valuemax>
                <value>100</value>
              </parameter>
              <parameter>
                <parameterid>center</parameterid>
                <name>Center</name>
                <value>
                  <horiz>0</horiz>
                  <vert>0.4703703703703703</vert>
                </value>
              </parameter>
              <parameter>
                <parameterid>textcolor</parameterid>
                <name>Text Color</name>
                <value>
                  <alpha>255</alpha>
                  <red>255</red>
                  <green>255</green>
                  <blue>255</blue>
                </value>
              </parameter>
              <parameter>
                <parameterid>supertext</parameterid>
                <name>Text Graphic</name>
              </parameter>
              <parameter>
                <parameterid>linecolor</parameterid>
                <name>Line Color</name>
                <value>
                  <alpha>255</alpha>
                  <red>0</red>
                  <green>0</green>
                  <blue>0</blue>
                </value>
              </parameter>
              <parameter>
                <parameterid>superline</parameterid>
                <name>Line Graphic</name>
              </parameter>
              <parameter>
                <parameterid>part2</parameterid>
                <name>Background Settings</name>
              </parameter>
              <parameter>
                <parameterid>xscale</parameterid>
                <name>Horizontal Size</name>
                <valuemin>0</valuemin>
                <valuemax>200</valuemax>
                <value>0</value>
              </parameter>
              <parameter>
                <parameterid>yscale</parameterid>
                <name>Vertical Size</name>
                <valuemin>0</valuemin>
                <valuemax>200</valuemax>
                <value>0</value>
              </parameter>
              <parameter>
                <parameterid>xoffset</parameterid>
                <name>Horizontal Offset</name>
                <valuemin>-100</valuemin>
                <valuemax>100</valuemax>
                <value>0</value>
              </parameter>
              <parameter>
                <parameterid>yoffset</parameterid>
                <name>Vertical Offset</name>
                <valuemin>-100</valuemin>
                <valuemax>100</valuemax>
                <value>0</value>
              </parameter>
              <parameter>
                <parameterid>backsoft</parameterid>
                <name>Back Soft</name>
                <valuemin>0</valuemin>
                <valuemax>100</valuemax>
                <value>0</value>
              </parameter>
              <parameter>
                <parameterid>backopacity</parameterid>
                <name>Back Opacity</name>
                <valuemin>0</valuemin>
                <valuemax>100</valuemax>
                <value>50</value>
              </parameter>
              <parameter>
                <parameterid>backcolor</parameterid>
                <name>Back Color</name>
                <value>
                  <alpha>255</alpha>
                  <red>255</red>
                  <green>255</green>
                  <blue>255</blue>
                </value>
              </parameter>
              <parameter>
                <parameterid>superback</parameterid>
                <name>Back Graphic</name>
              </parameter>
              <parameter>
                <parameterid>crop</parameterid>
                <name>Crop</name>
                <value>false</value>
              </parameter>
              <parameter>
                <parameterid>autokern</parameterid>
                <name>Auto Kerning</name>
                <value>true</value>
              </parameter>
            </effect>
            <sourcetrack>
              <mediatype>video</mediatype>
            </sourcetrack>
          </generatoritem>
          <generatoritem id="Outline Text1">
            <name>最近さみんな地方出身だからみたい</name>
            <duration>22166.1117</duration>
            <rate>
              <timebase>30</timebase>
              <ntsc>true</ntsc>
            </rate>
            <start>6360.533099999999</start>
            <end>6477.7158</end>
            <in>6360.533099999999</in>
            <out>6477.7158</out>
            <enabled>true</enabled>
            <anamorphic>false</anamorphic>
            <alphatype>black</alphatype>
            <masterclipid>Outline Text1</masterclipid>
            <effect>
              <name>Outline Text</name>
              <effectid>Outline Text</effectid>
              <effectcategory>Text</effectcategory>
              <effecttype>generator</effecttype>
              <mediatype>video</mediatype>
              <parameter>
                <parameterid>part1</parameterid>
                <name>Text Settings</name>
                <value/>
              </parameter>
              <parameter>
                <parameterid>str</parameterid>
                <name>Text</name>
                <value>最近さみんな地方出身だからみたい</value>
              </parameter>
              <parameter>
                <parameterid>font</parameterid>
                <name>Font</name>
                <value>HiraginoSans-W6</value>
              </parameter>
              <parameter>
                <parameterid>style</parameterid>
                <name>Style</name>
                <valuemin>1</valuemin>
                <valuemax>1</valuemax>
                <valuelist>
                  <valueentry>
                    <name>Regular</name>
                    <value>1</value>
                  </valueentry>
                </valuelist>
                <value>1</value>
              </parameter>
              <parameter>
                <parameterid>align</parameterid>
                <name>Alignment</name>
                <valuemin>1</valuemin>
                <valuemax>3</valuemax>
                <valuelist>
                  <valueentry>
                    <name>Left</name>
                    <value>1</value>
                  </valueentry>
                  <valueentry>
                    <name>Center</name>
                    <value>2</value>
                  </valueentry>
                  <valueentry>
                    <name>Right</name>
                    <value>3</value>
                  </valueentry>
                </valuelist>
                <value>2</value>
              </parameter>
              <parameter>
                <parameterid>size</parameterid>
                <name>Size</name>
                <valuemin>0</valuemin>
                <valuemax>200</valuemax>
                <value>24</value>
              </parameter>
              <parameter>
                <parameterid>track</parameterid>
                <name>Tracking</name>
                <valuemin>0</valuemin>
                <valuemax>100</valuemax>
                <value>1</value>
              </parameter>
              <parameter>
                <parameterid>lead</parameterid>
                <name>Leading</name>
                <valuemin>-100</valuemin>
                <valuemax>100</valuemax>
                <value>0</value>
              </parameter>
              <parameter>
                <parameterid>aspect</parameterid>
                <name>Aspect</name>
                <valuemin>0</valuemin>
                <valuemax>4</valuemax>
                <value>1</value>
              </parameter>
              <parameter>
                <parameterid>linewidth</parameterid>
                <name>Line Width</name>
                <valuemin>0</valuemin>
                <valuemax>200</valuemax>
                <value>2</value>
              </parameter>
              <parameter>
                <parameterid>linesoft</parameterid>
                <name>Line Softness</name>
                <valuemin>0</valuemin>
                <valuemax>100</valuemax>
                <value>5</value>
              </parameter>
              <parameter>
                <parameterid>textopacity</parameterid>
                <name>Text Opacity</name>
                <valuemin>0</valuemin>
                <valuemax>100</valuemax>
                <value>100</value>
              </parameter>
              <parameter>
                <parameterid>center</parameterid>
                <name>Center</name>
                <value>
                  <horiz>0</horiz>
                  <vert>0.4703703703703703</vert>
                </value>
              </parameter>
              <parameter>
                <parameterid>textcolor</parameterid>
                <name>Text Color</name>
                <value>
                  <alpha>255</alpha>
                  <red>255</red>
                  <green>255</green>
                  <blue>255</blue>
                </value>
              </parameter>
              <parameter>
                <parameterid>supertext</parameterid>
                <name>Text Graphic</name>
              </parameter>
              <parameter>
                <parameterid>linecolor</parameterid>
                <name>Line Color</name>
                <value>
                  <alpha>255</alpha>
                  <red>0</red>
                  <green>0</green>
                  <blue>0</blue>
                </value>
              </parameter>
              <parameter>
                <parameterid>superline</parameterid>
                <name>Line Graphic</name>
              </parameter>
              <parameter>
                <parameterid>part2</parameterid>
                <name>Background Settings</name>
              </parameter>
              <parameter>
                <parameterid>xscale</parameterid>
                <name>Horizontal Size</name>
                <valuemin>0</valuemin>
                <valuemax>200</valuemax>
                <value>0</value>
              </parameter>
              <parameter>
                <parameterid>yscale</parameterid>
                <name>Vertical Size</name>
                <valuemin>0</valuemin>
                <valuemax>200</valuemax>
                <value>0</value>
              </parameter>
              <parameter>
                <parameterid>xoffset</parameterid>
                <name>Horizontal Offset</name>
                <valuemin>-100</valuemin>
                <valuemax>100</valuemax>
                <value>0</value>
              </parameter>
              <parameter>
                <parameterid>yoffset</parameterid>
                <name>Vertical Offset</name>
                <valuemin>-100</valuemin>
                <valuemax>100</valuemax>
                <value>0</value>
              </parameter>
              <parameter>
                <parameterid>backsoft</parameterid>
                <name>Back Soft</name>
                <valuemin>0</valuemin>
                <valuemax>100</valuemax>
                <value>0</value>
              </parameter>
              <parameter>
                <parameterid>backopacity</parameterid>
                <name>Back Opacity</name>
                <valuemin>0</valuemin>
                <valuemax>100</valuemax>
                <value>50</value>
              </parameter>
              <parameter>
                <parameterid>backcolor</parameterid>
                <name>Back Color</name>
                <value>
                  <alpha>255</alpha>
                  <red>255</red>
                  <green>255</green>
                  <blue>255</blue>
                </value>
              </parameter>
              <parameter>
                <parameterid>superback</parameterid>
                <name>Back Graphic</name>
              </parameter>
              <parameter>
                <parameterid>crop</parameterid>
                <name>Crop</name>
                <value>false</value>
              </parameter>
              <parameter>
                <parameterid>autokern</parameterid>
                <name>Auto Kerning</name>
                <value>true</value>
              </parameter>
            </effect>
            <sourcetrack>
              <mediatype>video</mediatype>
            </sourcetrack>
          </generatoritem>
          <generatoritem id="Outline Text1">
            <name>なのをよく言ってるなって思ったらタイトル「</name>
            <duration>22166.1117</duration>
            <rate>
              <timebase>30</timebase>
              <ntsc>true</ntsc>
            </rate>
            <start>6477.7158</start>
            <end>6585.6078</end>
            <in>6477.7158</in>
            <out>6585.6078</out>
            <enabled>true</enabled>
            <anamorphic>false</anamorphic>
            <alphatype>black</alphatype>
            <masterclipid>Outline Text1</masterclipid>
            <effect>
              <name>Outline Text</name>
              <effectid>Outline Text</effectid>
              <effectcategory>Text</effectcategory>
              <effecttype>generator</effecttype>
              <mediatype>video</mediatype>
              <parameter>
                <parameterid>part1</parameterid>
                <name>Text Settings</name>
                <value/>
              </parameter>
              <parameter>
                <parameterid>str</parameterid>
                <name>Text</name>
                <value>なのをよく言ってるなって思ったらタイトル「</value>
              </parameter>
              <parameter>
                <parameterid>font</parameterid>
                <name>Font</name>
                <value>HiraginoSans-W6</value>
              </parameter>
              <parameter>
                <parameterid>style</parameterid>
                <name>Style</name>
                <valuemin>1</valuemin>
                <valuemax>1</valuemax>
                <valuelist>
                  <valueentry>
                    <name>Regular</name>
                    <value>1</value>
                  </valueentry>
                </valuelist>
                <value>1</value>
              </parameter>
              <parameter>
                <parameterid>align</parameterid>
                <name>Alignment</name>
                <valuemin>1</valuemin>
                <valuemax>3</valuemax>
                <valuelist>
                  <valueentry>
                    <name>Left</name>
                    <value>1</value>
                  </valueentry>
                  <valueentry>
                    <name>Center</name>
                    <value>2</value>
                  </valueentry>
                  <valueentry>
                    <name>Right</name>
                    <value>3</value>
                  </valueentry>
                </valuelist>
                <value>2</value>
              </parameter>
              <parameter>
                <parameterid>size</parameterid>
                <name>Size</name>
                <valuemin>0</valuemin>
                <valuemax>200</valuemax>
                <value>24</value>
              </parameter>
              <parameter>
                <parameterid>track</parameterid>
                <name>Tracking</name>
                <valuemin>0</valuemin>
                <valuemax>100</valuemax>
                <value>1</value>
              </parameter>
              <parameter>
                <parameterid>lead</parameterid>
                <name>Leading</name>
                <valuemin>-100</valuemin>
                <valuemax>100</valuemax>
                <value>0</value>
              </parameter>
              <parameter>
                <parameterid>aspect</parameterid>
                <name>Aspect</name>
                <valuemin>0</valuemin>
                <valuemax>4</valuemax>
                <value>1</value>
              </parameter>
              <parameter>
                <parameterid>linewidth</parameterid>
                <name>Line Width</name>
                <valuemin>0</valuemin>
                <valuemax>200</valuemax>
                <value>2</value>
              </parameter>
              <parameter>
                <parameterid>linesoft</parameterid>
                <name>Line Softness</name>
                <valuemin>0</valuemin>
                <valuemax>100</valuemax>
                <value>5</value>
              </parameter>
              <parameter>
                <parameterid>textopacity</parameterid>
                <name>Text Opacity</name>
                <valuemin>0</valuemin>
                <valuemax>100</valuemax>
                <value>100</value>
              </parameter>
              <parameter>
                <parameterid>center</parameterid>
                <name>Center</name>
                <value>
                  <horiz>0</horiz>
                  <vert>0.4703703703703703</vert>
                </value>
              </parameter>
              <parameter>
                <parameterid>textcolor</parameterid>
                <name>Text Color</name>
                <value>
                  <alpha>255</alpha>
                  <red>255</red>
                  <green>255</green>
                  <blue>255</blue>
                </value>
              </parameter>
              <parameter>
                <parameterid>supertext</parameterid>
                <name>Text Graphic</name>
              </parameter>
              <parameter>
                <parameterid>linecolor</parameterid>
                <name>Line Color</name>
                <value>
                  <alpha>255</alpha>
                  <red>0</red>
                  <green>0</green>
                  <blue>0</blue>
                </value>
              </parameter>
              <parameter>
                <parameterid>superline</parameterid>
                <name>Line Graphic</name>
              </parameter>
              <parameter>
                <parameterid>part2</parameterid>
                <name>Background Settings</name>
              </parameter>
              <parameter>
                <parameterid>xscale</parameterid>
                <name>Horizontal Size</name>
                <valuemin>0</valuemin>
                <valuemax>200</valuemax>
                <value>0</value>
              </parameter>
              <parameter>
                <parameterid>yscale</parameterid>
                <name>Vertical Size</name>
                <valuemin>0</valuemin>
                <valuemax>200</valuemax>
                <value>0</value>
              </parameter>
              <parameter>
                <parameterid>xoffset</parameterid>
                <name>Horizontal Offset</name>
                <valuemin>-100</valuemin>
                <valuemax>100</valuemax>
                <value>0</value>
              </parameter>
              <parameter>
                <parameterid>yoffset</parameterid>
                <name>Vertical Offset</name>
                <valuemin>-100</valuemin>
                <valuemax>100</valuemax>
                <value>0</value>
              </parameter>
              <parameter>
                <parameterid>backsoft</parameterid>
                <name>Back Soft</name>
                <valuemin>0</valuemin>
                <valuemax>100</valuemax>
                <value>0</value>
              </parameter>
              <parameter>
                <parameterid>backopacity</parameterid>
                <name>Back Opacity</name>
                <valuemin>0</valuemin>
                <valuemax>100</valuemax>
                <value>50</value>
              </parameter>
              <parameter>
                <parameterid>backcolor</parameterid>
                <name>Back Color</name>
                <value>
                  <alpha>255</alpha>
                  <red>255</red>
                  <green>255</green>
                  <blue>255</blue>
                </value>
              </parameter>
              <parameter>
                <parameterid>superback</parameterid>
                <name>Back Graphic</name>
              </parameter>
              <parameter>
                <parameterid>crop</parameterid>
                <name>Crop</name>
                <value>false</value>
              </parameter>
              <parameter>
                <parameterid>autokern</parameterid>
                <name>Auto Kerning</name>
                <value>true</value>
              </parameter>
            </effect>
            <sourcetrack>
              <mediatype>video</mediatype>
            </sourcetrack>
          </generatoritem>
          <generatoritem id="Outline Text1">
            <name>おのぼりさん」もう着いた?</name>
            <duration>22166.1117</duration>
            <rate>
              <timebase>30</timebase>
              <ntsc>true</ntsc>
            </rate>
            <start>6585.6078</start>
            <end>6677.915400000001</end>
            <in>6585.6078</in>
            <out>6677.915400000001</out>
            <enabled>true</enabled>
            <anamorphic>false</anamorphic>
            <alphatype>black</alphatype>
            <masterclipid>Outline Text1</masterclipid>
            <effect>
              <name>Outline Text</name>
              <effectid>Outline Text</effectid>
              <effectcategory>Text</effectcategory>
              <effecttype>generator</effecttype>
              <mediatype>video</mediatype>
              <parameter>
                <parameterid>part1</parameterid>
                <name>Text Settings</name>
                <value/>
              </parameter>
              <parameter>
                <parameterid>str</parameterid>
                <name>Text</name>
                <value>おのぼりさん」もう着いた?</value>
              </parameter>
              <parameter>
                <parameterid>font</parameterid>
                <name>Font</name>
                <value>HiraginoSans-W6</value>
              </parameter>
              <parameter>
                <parameterid>style</parameterid>
                <name>Style</name>
                <valuemin>1</valuemin>
                <valuemax>1</valuemax>
                <valuelist>
                  <valueentry>
                    <name>Regular</name>
                    <value>1</value>
                  </valueentry>
                </valuelist>
                <value>1</value>
              </parameter>
              <parameter>
                <parameterid>align</parameterid>
                <name>Alignment</name>
                <valuemin>1</valuemin>
                <valuemax>3</valuemax>
                <valuelist>
                  <valueentry>
                    <name>Left</name>
                    <value>1</value>
                  </valueentry>
                  <valueentry>
                    <name>Center</name>
                    <value>2</value>
                  </valueentry>
                  <valueentry>
                    <name>Right</name>
                    <value>3</value>
                  </valueentry>
                </valuelist>
                <value>2</value>
              </parameter>
              <parameter>
                <parameterid>size</parameterid>
                <name>Size</name>
                <valuemin>0</valuemin>
                <valuemax>200</valuemax>
                <value>24</value>
              </parameter>
              <parameter>
                <parameterid>track</parameterid>
                <name>Tracking</name>
                <valuemin>0</valuemin>
                <valuemax>100</valuemax>
                <value>1</value>
              </parameter>
              <parameter>
                <parameterid>lead</parameterid>
                <name>Leading</name>
                <valuemin>-100</valuemin>
                <valuemax>100</valuemax>
                <value>0</value>
              </parameter>
              <parameter>
                <parameterid>aspect</parameterid>
                <name>Aspect</name>
                <valuemin>0</valuemin>
                <valuemax>4</valuemax>
                <value>1</value>
              </parameter>
              <parameter>
                <parameterid>linewidth</parameterid>
                <name>Line Width</name>
                <valuemin>0</valuemin>
                <valuemax>200</valuemax>
                <value>2</value>
              </parameter>
              <parameter>
                <parameterid>linesoft</parameterid>
                <name>Line Softness</name>
                <valuemin>0</valuemin>
                <valuemax>100</valuemax>
                <value>5</value>
              </parameter>
              <parameter>
                <parameterid>textopacity</parameterid>
                <name>Text Opacity</name>
                <valuemin>0</valuemin>
                <valuemax>100</valuemax>
                <value>100</value>
              </parameter>
              <parameter>
                <parameterid>center</parameterid>
                <name>Center</name>
                <value>
                  <horiz>0</horiz>
                  <vert>0.4703703703703703</vert>
                </value>
              </parameter>
              <parameter>
                <parameterid>textcolor</parameterid>
                <name>Text Color</name>
                <value>
                  <alpha>255</alpha>
                  <red>255</red>
                  <green>255</green>
                  <blue>255</blue>
                </value>
              </parameter>
              <parameter>
                <parameterid>supertext</parameterid>
                <name>Text Graphic</name>
              </parameter>
              <parameter>
                <parameterid>linecolor</parameterid>
                <name>Line Color</name>
                <value>
                  <alpha>255</alpha>
                  <red>0</red>
                  <green>0</green>
                  <blue>0</blue>
                </value>
              </parameter>
              <parameter>
                <parameterid>superline</parameterid>
                <name>Line Graphic</name>
              </parameter>
              <parameter>
                <parameterid>part2</parameterid>
                <name>Background Settings</name>
              </parameter>
              <parameter>
                <parameterid>xscale</parameterid>
                <name>Horizontal Size</name>
                <valuemin>0</valuemin>
                <valuemax>200</valuemax>
                <value>0</value>
              </parameter>
              <parameter>
                <parameterid>yscale</parameterid>
                <name>Vertical Size</name>
                <valuemin>0</valuemin>
                <valuemax>200</valuemax>
                <value>0</value>
              </parameter>
              <parameter>
                <parameterid>xoffset</parameterid>
                <name>Horizontal Offset</name>
                <valuemin>-100</valuemin>
                <valuemax>100</valuemax>
                <value>0</value>
              </parameter>
              <parameter>
                <parameterid>yoffset</parameterid>
                <name>Vertical Offset</name>
                <valuemin>-100</valuemin>
                <valuemax>100</valuemax>
                <value>0</value>
              </parameter>
              <parameter>
                <parameterid>backsoft</parameterid>
                <name>Back Soft</name>
                <valuemin>0</valuemin>
                <valuemax>100</valuemax>
                <value>0</value>
              </parameter>
              <parameter>
                <parameterid>backopacity</parameterid>
                <name>Back Opacity</name>
                <valuemin>0</valuemin>
                <valuemax>100</valuemax>
                <value>50</value>
              </parameter>
              <parameter>
                <parameterid>backcolor</parameterid>
                <name>Back Color</name>
                <value>
                  <alpha>255</alpha>
                  <red>255</red>
                  <green>255</green>
                  <blue>255</blue>
                </value>
              </parameter>
              <parameter>
                <parameterid>superback</parameterid>
                <name>Back Graphic</name>
              </parameter>
              <parameter>
                <parameterid>crop</parameterid>
                <name>Crop</name>
                <value>false</value>
              </parameter>
              <parameter>
                <parameterid>autokern</parameterid>
                <name>Auto Kerning</name>
                <value>true</value>
              </parameter>
            </effect>
            <sourcetrack>
              <mediatype>video</mediatype>
            </sourcetrack>
          </generatoritem>
          <generatoritem id="Outline Text1">
            <name>早いこれは私たちの事務所です</name>
            <duration>22166.1117</duration>
            <rate>
              <timebase>30</timebase>
              <ntsc>true</ntsc>
            </rate>
            <start>6677.915400000001</start>
            <end>6849.643500000001</end>
            <in>6677.915400000001</in>
            <out>6849.643500000001</out>
            <enabled>true</enabled>
            <anamorphic>false</anamorphic>
            <alphatype>black</alphatype>
            <masterclipid>Outline Text1</masterclipid>
            <effect>
              <name>Outline Text</name>
              <effectid>Outline Text</effectid>
              <effectcategory>Text</effectcategory>
              <effecttype>generator</effecttype>
              <mediatype>video</mediatype>
              <parameter>
                <parameterid>part1</parameterid>
                <name>Text Settings</name>
                <value/>
              </parameter>
              <parameter>
                <parameterid>str</parameterid>
                <name>Text</name>
                <value>早いこれは私たちの事務所です</value>
              </parameter>
              <parameter>
                <parameterid>font</parameterid>
                <name>Font</name>
                <value>HiraginoSans-W6</value>
              </parameter>
              <parameter>
                <parameterid>style</parameterid>
                <name>Style</name>
                <valuemin>1</valuemin>
                <valuemax>1</valuemax>
                <valuelist>
                  <valueentry>
                    <name>Regular</name>
                    <value>1</value>
                  </valueentry>
                </valuelist>
                <value>1</value>
              </parameter>
              <parameter>
                <parameterid>align</parameterid>
                <name>Alignment</name>
                <valuemin>1</valuemin>
                <valuemax>3</valuemax>
                <valuelist>
                  <valueentry>
                    <name>Left</name>
                    <value>1</value>
                  </valueentry>
                  <valueentry>
                    <name>Center</name>
                    <value>2</value>
                  </valueentry>
                  <valueentry>
                    <name>Right</name>
                    <value>3</value>
                  </valueentry>
                </valuelist>
                <value>2</value>
              </parameter>
              <parameter>
                <parameterid>size</parameterid>
                <name>Size</name>
                <valuemin>0</valuemin>
                <valuemax>200</valuemax>
                <value>24</value>
              </parameter>
              <parameter>
                <parameterid>track</parameterid>
                <name>Tracking</name>
                <valuemin>0</valuemin>
                <valuemax>100</valuemax>
                <value>1</value>
              </parameter>
              <parameter>
                <parameterid>lead</parameterid>
                <name>Leading</name>
                <valuemin>-100</valuemin>
                <valuemax>100</valuemax>
                <value>0</value>
              </parameter>
              <parameter>
                <parameterid>aspect</parameterid>
                <name>Aspect</name>
                <valuemin>0</valuemin>
                <valuemax>4</valuemax>
                <value>1</value>
              </parameter>
              <parameter>
                <parameterid>linewidth</parameterid>
                <name>Line Width</name>
                <valuemin>0</valuemin>
                <valuemax>200</valuemax>
                <value>2</value>
              </parameter>
              <parameter>
                <parameterid>linesoft</parameterid>
                <name>Line Softness</name>
                <valuemin>0</valuemin>
                <valuemax>100</valuemax>
                <value>5</value>
              </parameter>
              <parameter>
                <parameterid>textopacity</parameterid>
                <name>Text Opacity</name>
                <valuemin>0</valuemin>
                <valuemax>100</valuemax>
                <value>100</value>
              </parameter>
              <parameter>
                <parameterid>center</parameterid>
                <name>Center</name>
                <value>
                  <horiz>0</horiz>
                  <vert>0.4703703703703703</vert>
                </value>
              </parameter>
              <parameter>
                <parameterid>textcolor</parameterid>
                <name>Text Color</name>
                <value>
                  <alpha>255</alpha>
                  <red>255</red>
                  <green>255</green>
                  <blue>255</blue>
                </value>
              </parameter>
              <parameter>
                <parameterid>supertext</parameterid>
                <name>Text Graphic</name>
              </parameter>
              <parameter>
                <parameterid>linecolor</parameterid>
                <name>Line Color</name>
                <value>
                  <alpha>255</alpha>
                  <red>0</red>
                  <green>0</green>
                  <blue>0</blue>
                </value>
              </parameter>
              <parameter>
                <parameterid>superline</parameterid>
                <name>Line Graphic</name>
              </parameter>
              <parameter>
                <parameterid>part2</parameterid>
                <name>Background Settings</name>
              </parameter>
              <parameter>
                <parameterid>xscale</parameterid>
                <name>Horizontal Size</name>
                <valuemin>0</valuemin>
                <valuemax>200</valuemax>
                <value>0</value>
              </parameter>
              <parameter>
                <parameterid>yscale</parameterid>
                <name>Vertical Size</name>
                <valuemin>0</valuemin>
                <valuemax>200</valuemax>
                <value>0</value>
              </parameter>
              <parameter>
                <parameterid>xoffset</parameterid>
                <name>Horizontal Offset</name>
                <valuemin>-100</valuemin>
                <valuemax>100</valuemax>
                <value>0</value>
              </parameter>
              <parameter>
                <parameterid>yoffset</parameterid>
                <name>Vertical Offset</name>
                <valuemin>-100</valuemin>
                <valuemax>100</valuemax>
                <value>0</value>
              </parameter>
              <parameter>
                <parameterid>backsoft</parameterid>
                <name>Back Soft</name>
                <valuemin>0</valuemin>
                <valuemax>100</valuemax>
                <value>0</value>
              </parameter>
              <parameter>
                <parameterid>backopacity</parameterid>
                <name>Back Opacity</name>
                <valuemin>0</valuemin>
                <valuemax>100</valuemax>
                <value>50</value>
              </parameter>
              <parameter>
                <parameterid>backcolor</parameterid>
                <name>Back Color</name>
                <value>
                  <alpha>255</alpha>
                  <red>255</red>
                  <green>255</green>
                  <blue>255</blue>
                </value>
              </parameter>
              <parameter>
                <parameterid>superback</parameterid>
                <name>Back Graphic</name>
              </parameter>
              <parameter>
                <parameterid>crop</parameterid>
                <name>Crop</name>
                <value>false</value>
              </parameter>
              <parameter>
                <parameterid>autokern</parameterid>
                <name>Auto Kerning</name>
                <value>true</value>
              </parameter>
            </effect>
            <sourcetrack>
              <mediatype>video</mediatype>
            </sourcetrack>
          </generatoritem>
          <generatoritem id="Outline Text1">
            <name>事務所でーす!</name>
            <duration>22166.1117</duration>
            <rate>
              <timebase>30</timebase>
              <ntsc>true</ntsc>
            </rate>
            <start>6849.643500000001</start>
            <end>6927.265800000001</end>
            <in>6849.643500000001</in>
            <out>6927.265800000001</out>
            <enabled>true</enabled>
            <anamorphic>false</anamorphic>
            <alphatype>black</alphatype>
            <masterclipid>Outline Text1</masterclipid>
            <effect>
              <name>Outline Text</name>
              <effectid>Outline Text</effectid>
              <effectcategory>Text</effectcategory>
              <effecttype>generator</effecttype>
              <mediatype>video</mediatype>
              <parameter>
                <parameterid>part1</parameterid>
                <name>Text Settings</name>
                <value/>
              </parameter>
              <parameter>
                <parameterid>str</parameterid>
                <name>Text</name>
                <value>事務所でーす!</value>
              </parameter>
              <parameter>
                <parameterid>font</parameterid>
                <name>Font</name>
                <value>HiraginoSans-W6</value>
              </parameter>
              <parameter>
                <parameterid>style</parameterid>
                <name>Style</name>
                <valuemin>1</valuemin>
                <valuemax>1</valuemax>
                <valuelist>
                  <valueentry>
                    <name>Regular</name>
                    <value>1</value>
                  </valueentry>
                </valuelist>
                <value>1</value>
              </parameter>
              <parameter>
                <parameterid>align</parameterid>
                <name>Alignment</name>
                <valuemin>1</valuemin>
                <valuemax>3</valuemax>
                <valuelist>
                  <valueentry>
                    <name>Left</name>
                    <value>1</value>
                  </valueentry>
                  <valueentry>
                    <name>Center</name>
                    <value>2</value>
                  </valueentry>
                  <valueentry>
                    <name>Right</name>
                    <value>3</value>
                  </valueentry>
                </valuelist>
                <value>2</value>
              </parameter>
              <parameter>
                <parameterid>size</parameterid>
                <name>Size</name>
                <valuemin>0</valuemin>
                <valuemax>200</valuemax>
                <value>24</value>
              </parameter>
              <parameter>
                <parameterid>track</parameterid>
                <name>Tracking</name>
                <valuemin>0</valuemin>
                <valuemax>100</valuemax>
                <value>1</value>
              </parameter>
              <parameter>
                <parameterid>lead</parameterid>
                <name>Leading</name>
                <valuemin>-100</valuemin>
                <valuemax>100</valuemax>
                <value>0</value>
              </parameter>
              <parameter>
                <parameterid>aspect</parameterid>
                <name>Aspect</name>
                <valuemin>0</valuemin>
                <valuemax>4</valuemax>
                <value>1</value>
              </parameter>
              <parameter>
                <parameterid>linewidth</parameterid>
                <name>Line Width</name>
                <valuemin>0</valuemin>
                <valuemax>200</valuemax>
                <value>2</value>
              </parameter>
              <parameter>
                <parameterid>linesoft</parameterid>
                <name>Line Softness</name>
                <valuemin>0</valuemin>
                <valuemax>100</valuemax>
                <value>5</value>
              </parameter>
              <parameter>
                <parameterid>textopacity</parameterid>
                <name>Text Opacity</name>
                <valuemin>0</valuemin>
                <valuemax>100</valuemax>
                <value>100</value>
              </parameter>
              <parameter>
                <parameterid>center</parameterid>
                <name>Center</name>
                <value>
                  <horiz>0</horiz>
                  <vert>0.4703703703703703</vert>
                </value>
              </parameter>
              <parameter>
                <parameterid>textcolor</parameterid>
                <name>Text Color</name>
                <value>
                  <alpha>255</alpha>
                  <red>255</red>
                  <green>255</green>
                  <blue>255</blue>
                </value>
              </parameter>
              <parameter>
                <parameterid>supertext</parameterid>
                <name>Text Graphic</name>
              </parameter>
              <parameter>
                <parameterid>linecolor</parameterid>
                <name>Line Color</name>
                <value>
                  <alpha>255</alpha>
                  <red>0</red>
                  <green>0</green>
                  <blue>0</blue>
                </value>
              </parameter>
              <parameter>
                <parameterid>superline</parameterid>
                <name>Line Graphic</name>
              </parameter>
              <parameter>
                <parameterid>part2</parameterid>
                <name>Background Settings</name>
              </parameter>
              <parameter>
                <parameterid>xscale</parameterid>
                <name>Horizontal Size</name>
                <valuemin>0</valuemin>
                <valuemax>200</valuemax>
                <value>0</value>
              </parameter>
              <parameter>
                <parameterid>yscale</parameterid>
                <name>Vertical Size</name>
                <valuemin>0</valuemin>
                <valuemax>200</valuemax>
                <value>0</value>
              </parameter>
              <parameter>
                <parameterid>xoffset</parameterid>
                <name>Horizontal Offset</name>
                <valuemin>-100</valuemin>
                <valuemax>100</valuemax>
                <value>0</value>
              </parameter>
              <parameter>
                <parameterid>yoffset</parameterid>
                <name>Vertical Offset</name>
                <valuemin>-100</valuemin>
                <valuemax>100</valuemax>
                <value>0</value>
              </parameter>
              <parameter>
                <parameterid>backsoft</parameterid>
                <name>Back Soft</name>
                <valuemin>0</valuemin>
                <valuemax>100</valuemax>
                <value>0</value>
              </parameter>
              <parameter>
                <parameterid>backopacity</parameterid>
                <name>Back Opacity</name>
                <valuemin>0</valuemin>
                <valuemax>100</valuemax>
                <value>50</value>
              </parameter>
              <parameter>
                <parameterid>backcolor</parameterid>
                <name>Back Color</name>
                <value>
                  <alpha>255</alpha>
                  <red>255</red>
                  <green>255</green>
                  <blue>255</blue>
                </value>
              </parameter>
              <parameter>
                <parameterid>superback</parameterid>
                <name>Back Graphic</name>
              </parameter>
              <parameter>
                <parameterid>crop</parameterid>
                <name>Crop</name>
                <value>false</value>
              </parameter>
              <parameter>
                <parameterid>autokern</parameterid>
                <name>Auto Kerning</name>
                <value>true</value>
              </parameter>
            </effect>
            <sourcetrack>
              <mediatype>video</mediatype>
            </sourcetrack>
          </generatoritem>
          <generatoritem id="Outline Text1">
            <name>今横通ってます</name>
            <duration>22166.1117</duration>
            <rate>
              <timebase>30</timebase>
              <ntsc>true</ntsc>
            </rate>
            <start>6927.265800000001</start>
            <end>6961.7313</end>
            <in>6927.265800000001</in>
            <out>6961.7313</out>
            <enabled>true</enabled>
            <anamorphic>false</anamorphic>
            <alphatype>black</alphatype>
            <masterclipid>Outline Text1</masterclipid>
            <effect>
              <name>Outline Text</name>
              <effectid>Outline Text</effectid>
              <effectcategory>Text</effectcategory>
              <effecttype>generator</effecttype>
              <mediatype>video</mediatype>
              <parameter>
                <parameterid>part1</parameterid>
                <name>Text Settings</name>
                <value/>
              </parameter>
              <parameter>
                <parameterid>str</parameterid>
                <name>Text</name>
                <value>今横通ってます</value>
              </parameter>
              <parameter>
                <parameterid>font</parameterid>
                <name>Font</name>
                <value>HiraginoSans-W6</value>
              </parameter>
              <parameter>
                <parameterid>style</parameterid>
                <name>Style</name>
                <valuemin>1</valuemin>
                <valuemax>1</valuemax>
                <valuelist>
                  <valueentry>
                    <name>Regular</name>
                    <value>1</value>
                  </valueentry>
                </valuelist>
                <value>1</value>
              </parameter>
              <parameter>
                <parameterid>align</parameterid>
                <name>Alignment</name>
                <valuemin>1</valuemin>
                <valuemax>3</valuemax>
                <valuelist>
                  <valueentry>
                    <name>Left</name>
                    <value>1</value>
                  </valueentry>
                  <valueentry>
                    <name>Center</name>
                    <value>2</value>
                  </valueentry>
                  <valueentry>
                    <name>Right</name>
                    <value>3</value>
                  </valueentry>
                </valuelist>
                <value>2</value>
              </parameter>
              <parameter>
                <parameterid>size</parameterid>
                <name>Size</name>
                <valuemin>0</valuemin>
                <valuemax>200</valuemax>
                <value>24</value>
              </parameter>
              <parameter>
                <parameterid>track</parameterid>
                <name>Tracking</name>
                <valuemin>0</valuemin>
                <valuemax>100</valuemax>
                <value>1</value>
              </parameter>
              <parameter>
                <parameterid>lead</parameterid>
                <name>Leading</name>
                <valuemin>-100</valuemin>
                <valuemax>100</valuemax>
                <value>0</value>
              </parameter>
              <parameter>
                <parameterid>aspect</parameterid>
                <name>Aspect</name>
                <valuemin>0</valuemin>
                <valuemax>4</valuemax>
                <value>1</value>
              </parameter>
              <parameter>
                <parameterid>linewidth</parameterid>
                <name>Line Width</name>
                <valuemin>0</valuemin>
                <valuemax>200</valuemax>
                <value>2</value>
              </parameter>
              <parameter>
                <parameterid>linesoft</parameterid>
                <name>Line Softness</name>
                <valuemin>0</valuemin>
                <valuemax>100</valuemax>
                <value>5</value>
              </parameter>
              <parameter>
                <parameterid>textopacity</parameterid>
                <name>Text Opacity</name>
                <valuemin>0</valuemin>
                <valuemax>100</valuemax>
                <value>100</value>
              </parameter>
              <parameter>
                <parameterid>center</parameterid>
                <name>Center</name>
                <value>
                  <horiz>0</horiz>
                  <vert>0.4703703703703703</vert>
                </value>
              </parameter>
              <parameter>
                <parameterid>textcolor</parameterid>
                <name>Text Color</name>
                <value>
                  <alpha>255</alpha>
                  <red>255</red>
                  <green>255</green>
                  <blue>255</blue>
                </value>
              </parameter>
              <parameter>
                <parameterid>supertext</parameterid>
                <name>Text Graphic</name>
              </parameter>
              <parameter>
                <parameterid>linecolor</parameterid>
                <name>Line Color</name>
                <value>
                  <alpha>255</alpha>
                  <red>0</red>
                  <green>0</green>
                  <blue>0</blue>
                </value>
              </parameter>
              <parameter>
                <parameterid>superline</parameterid>
                <name>Line Graphic</name>
              </parameter>
              <parameter>
                <parameterid>part2</parameterid>
                <name>Background Settings</name>
              </parameter>
              <parameter>
                <parameterid>xscale</parameterid>
                <name>Horizontal Size</name>
                <valuemin>0</valuemin>
                <valuemax>200</valuemax>
                <value>0</value>
              </parameter>
              <parameter>
                <parameterid>yscale</parameterid>
                <name>Vertical Size</name>
                <valuemin>0</valuemin>
                <valuemax>200</valuemax>
                <value>0</value>
              </parameter>
              <parameter>
                <parameterid>xoffset</parameterid>
                <name>Horizontal Offset</name>
                <valuemin>-100</valuemin>
                <valuemax>100</valuemax>
                <value>0</value>
              </parameter>
              <parameter>
                <parameterid>yoffset</parameterid>
                <name>Vertical Offset</name>
                <valuemin>-100</valuemin>
                <valuemax>100</valuemax>
                <value>0</value>
              </parameter>
              <parameter>
                <parameterid>backsoft</parameterid>
                <name>Back Soft</name>
                <valuemin>0</valuemin>
                <valuemax>100</valuemax>
                <value>0</value>
              </parameter>
              <parameter>
                <parameterid>backopacity</parameterid>
                <name>Back Opacity</name>
                <valuemin>0</valuemin>
                <valuemax>100</valuemax>
                <value>50</value>
              </parameter>
              <parameter>
                <parameterid>backcolor</parameterid>
                <name>Back Color</name>
                <value>
                  <alpha>255</alpha>
                  <red>255</red>
                  <green>255</green>
                  <blue>255</blue>
                </value>
              </parameter>
              <parameter>
                <parameterid>superback</parameterid>
                <name>Back Graphic</name>
              </parameter>
              <parameter>
                <parameterid>crop</parameterid>
                <name>Crop</name>
                <value>false</value>
              </parameter>
              <parameter>
                <parameterid>autokern</parameterid>
                <name>Auto Kerning</name>
                <value>true</value>
              </parameter>
            </effect>
            <sourcetrack>
              <mediatype>video</mediatype>
            </sourcetrack>
          </generatoritem>
          <generatoritem id="Outline Text1">
            <name>事務所のなんか結構さ事務所さ綺麗じゃんうん最近よくあるこのポチって押したら</name>
            <duration>22166.1117</duration>
            <rate>
              <timebase>30</timebase>
              <ntsc>true</ntsc>
            </rate>
            <start>6961.7313</start>
            <end>7223.968800000001</end>
            <in>6961.7313</in>
            <out>7223.968800000001</out>
            <enabled>true</enabled>
            <anamorphic>false</anamorphic>
            <alphatype>black</alphatype>
            <masterclipid>Outline Text1</masterclipid>
            <effect>
              <name>Outline Text</name>
              <effectid>Outline Text</effectid>
              <effectcategory>Text</effectcategory>
              <effecttype>generator</effecttype>
              <mediatype>video</mediatype>
              <parameter>
                <parameterid>part1</parameterid>
                <name>Text Settings</name>
                <value/>
              </parameter>
              <parameter>
                <parameterid>str</parameterid>
                <name>Text</name>
                <value>事務所のなんか結構さ事務所さ綺麗じゃんうん最近よくあるこのポチって押したら</value>
              </parameter>
              <parameter>
                <parameterid>font</parameterid>
                <name>Font</name>
                <value>HiraginoSans-W6</value>
              </parameter>
              <parameter>
                <parameterid>style</parameterid>
                <name>Style</name>
                <valuemin>1</valuemin>
                <valuemax>1</valuemax>
                <valuelist>
                  <valueentry>
                    <name>Regular</name>
                    <value>1</value>
                  </valueentry>
                </valuelist>
                <value>1</value>
              </parameter>
              <parameter>
                <parameterid>align</parameterid>
                <name>Alignment</name>
                <valuemin>1</valuemin>
                <valuemax>3</valuemax>
                <valuelist>
                  <valueentry>
                    <name>Left</name>
                    <value>1</value>
                  </valueentry>
                  <valueentry>
                    <name>Center</name>
                    <value>2</value>
                  </valueentry>
                  <valueentry>
                    <name>Right</name>
                    <value>3</value>
                  </valueentry>
                </valuelist>
                <value>2</value>
              </parameter>
              <parameter>
                <parameterid>size</parameterid>
                <name>Size</name>
                <valuemin>0</valuemin>
                <valuemax>200</valuemax>
                <value>24</value>
              </parameter>
              <parameter>
                <parameterid>track</parameterid>
                <name>Tracking</name>
                <valuemin>0</valuemin>
                <valuemax>100</valuemax>
                <value>1</value>
              </parameter>
              <parameter>
                <parameterid>lead</parameterid>
                <name>Leading</name>
                <valuemin>-100</valuemin>
                <valuemax>100</valuemax>
                <value>0</value>
              </parameter>
              <parameter>
                <parameterid>aspect</parameterid>
                <name>Aspect</name>
                <valuemin>0</valuemin>
                <valuemax>4</valuemax>
                <value>1</value>
              </parameter>
              <parameter>
                <parameterid>linewidth</parameterid>
                <name>Line Width</name>
                <valuemin>0</valuemin>
                <valuemax>200</valuemax>
                <value>2</value>
              </parameter>
              <parameter>
                <parameterid>linesoft</parameterid>
                <name>Line Softness</name>
                <valuemin>0</valuemin>
                <valuemax>100</valuemax>
                <value>5</value>
              </parameter>
              <parameter>
                <parameterid>textopacity</parameterid>
                <name>Text Opacity</name>
                <valuemin>0</valuemin>
                <valuemax>100</valuemax>
                <value>100</value>
              </parameter>
              <parameter>
                <parameterid>center</parameterid>
                <name>Center</name>
                <value>
                  <horiz>0</horiz>
                  <vert>0.4703703703703703</vert>
                </value>
              </parameter>
              <parameter>
                <parameterid>textcolor</parameterid>
                <name>Text Color</name>
                <value>
                  <alpha>255</alpha>
                  <red>255</red>
                  <green>255</green>
                  <blue>255</blue>
                </value>
              </parameter>
              <parameter>
                <parameterid>supertext</parameterid>
                <name>Text Graphic</name>
              </parameter>
              <parameter>
                <parameterid>linecolor</parameterid>
                <name>Line Color</name>
                <value>
                  <alpha>255</alpha>
                  <red>0</red>
                  <green>0</green>
                  <blue>0</blue>
                </value>
              </parameter>
              <parameter>
                <parameterid>superline</parameterid>
                <name>Line Graphic</name>
              </parameter>
              <parameter>
                <parameterid>part2</parameterid>
                <name>Background Settings</name>
              </parameter>
              <parameter>
                <parameterid>xscale</parameterid>
                <name>Horizontal Size</name>
                <valuemin>0</valuemin>
                <valuemax>200</valuemax>
                <value>0</value>
              </parameter>
              <parameter>
                <parameterid>yscale</parameterid>
                <name>Vertical Size</name>
                <valuemin>0</valuemin>
                <valuemax>200</valuemax>
                <value>0</value>
              </parameter>
              <parameter>
                <parameterid>xoffset</parameterid>
                <name>Horizontal Offset</name>
                <valuemin>-100</valuemin>
                <valuemax>100</valuemax>
                <value>0</value>
              </parameter>
              <parameter>
                <parameterid>yoffset</parameterid>
                <name>Vertical Offset</name>
                <valuemin>-100</valuemin>
                <valuemax>100</valuemax>
                <value>0</value>
              </parameter>
              <parameter>
                <parameterid>backsoft</parameterid>
                <name>Back Soft</name>
                <valuemin>0</valuemin>
                <valuemax>100</valuemax>
                <value>0</value>
              </parameter>
              <parameter>
                <parameterid>backopacity</parameterid>
                <name>Back Opacity</name>
                <valuemin>0</valuemin>
                <valuemax>100</valuemax>
                <value>50</value>
              </parameter>
              <parameter>
                <parameterid>backcolor</parameterid>
                <name>Back Color</name>
                <value>
                  <alpha>255</alpha>
                  <red>255</red>
                  <green>255</green>
                  <blue>255</blue>
                </value>
              </parameter>
              <parameter>
                <parameterid>superback</parameterid>
                <name>Back Graphic</name>
              </parameter>
              <parameter>
                <parameterid>crop</parameterid>
                <name>Crop</name>
                <value>false</value>
              </parameter>
              <parameter>
                <parameterid>autokern</parameterid>
                <name>Auto Kerning</name>
                <value>true</value>
              </parameter>
            </effect>
            <sourcetrack>
              <mediatype>video</mediatype>
            </sourcetrack>
          </generatoritem>
          <generatoritem id="Outline Text1">
            <name>雲が見えなくなるみたいな感じあるよね</name>
            <duration>22166.1117</duration>
            <rate>
              <timebase>30</timebase>
              <ntsc>true</ntsc>
            </rate>
            <start>7223.968800000001</start>
            <end>7309.9827</end>
            <in>7223.968800000001</in>
            <out>7309.9827</out>
            <enabled>true</enabled>
            <anamorphic>false</anamorphic>
            <alphatype>black</alphatype>
            <masterclipid>Outline Text1</masterclipid>
            <effect>
              <name>Outline Text</name>
              <effectid>Outline Text</effectid>
              <effectcategory>Text</effectcategory>
              <effecttype>generator</effecttype>
              <mediatype>video</mediatype>
              <parameter>
                <parameterid>part1</parameterid>
                <name>Text Settings</name>
                <value/>
              </parameter>
              <parameter>
                <parameterid>str</parameterid>
                <name>Text</name>
                <value>雲が見えなくなるみたいな感じあるよね</value>
              </parameter>
              <parameter>
                <parameterid>font</parameterid>
                <name>Font</name>
                <value>HiraginoSans-W6</value>
              </parameter>
              <parameter>
                <parameterid>style</parameterid>
                <name>Style</name>
                <valuemin>1</valuemin>
                <valuemax>1</valuemax>
                <valuelist>
                  <valueentry>
                    <name>Regular</name>
                    <value>1</value>
                  </valueentry>
                </valuelist>
                <value>1</value>
              </parameter>
              <parameter>
                <parameterid>align</parameterid>
                <name>Alignment</name>
                <valuemin>1</valuemin>
                <valuemax>3</valuemax>
                <valuelist>
                  <valueentry>
                    <name>Left</name>
                    <value>1</value>
                  </valueentry>
                  <valueentry>
                    <name>Center</name>
                    <value>2</value>
                  </valueentry>
                  <valueentry>
                    <name>Right</name>
                    <value>3</value>
                  </valueentry>
                </valuelist>
                <value>2</value>
              </parameter>
              <parameter>
                <parameterid>size</parameterid>
                <name>Size</name>
                <valuemin>0</valuemin>
                <valuemax>200</valuemax>
                <value>24</value>
              </parameter>
              <parameter>
                <parameterid>track</parameterid>
                <name>Tracking</name>
                <valuemin>0</valuemin>
                <valuemax>100</valuemax>
                <value>1</value>
              </parameter>
              <parameter>
                <parameterid>lead</parameterid>
                <name>Leading</name>
                <valuemin>-100</valuemin>
                <valuemax>100</valuemax>
                <value>0</value>
              </parameter>
              <parameter>
                <parameterid>aspect</parameterid>
                <name>Aspect</name>
                <valuemin>0</valuemin>
                <valuemax>4</valuemax>
                <value>1</value>
              </parameter>
              <parameter>
                <parameterid>linewidth</parameterid>
                <name>Line Width</name>
                <valuemin>0</valuemin>
                <valuemax>200</valuemax>
                <value>2</value>
              </parameter>
              <parameter>
                <parameterid>linesoft</parameterid>
                <name>Line Softness</name>
                <valuemin>0</valuemin>
                <valuemax>100</valuemax>
                <value>5</value>
              </parameter>
              <parameter>
                <parameterid>textopacity</parameterid>
                <name>Text Opacity</name>
                <valuemin>0</valuemin>
                <valuemax>100</valuemax>
                <value>100</value>
              </parameter>
              <parameter>
                <parameterid>center</parameterid>
                <name>Center</name>
                <value>
                  <horiz>0</horiz>
                  <vert>0.4703703703703703</vert>
                </value>
              </parameter>
              <parameter>
                <parameterid>textcolor</parameterid>
                <name>Text Color</name>
                <value>
                  <alpha>255</alpha>
                  <red>255</red>
                  <green>255</green>
                  <blue>255</blue>
                </value>
              </parameter>
              <parameter>
                <parameterid>supertext</parameterid>
                <name>Text Graphic</name>
              </parameter>
              <parameter>
                <parameterid>linecolor</parameterid>
                <name>Line Color</name>
                <value>
                  <alpha>255</alpha>
                  <red>0</red>
                  <green>0</green>
                  <blue>0</blue>
                </value>
              </parameter>
              <parameter>
                <parameterid>superline</parameterid>
                <name>Line Graphic</name>
              </parameter>
              <parameter>
                <parameterid>part2</parameterid>
                <name>Background Settings</name>
              </parameter>
              <parameter>
                <parameterid>xscale</parameterid>
                <name>Horizontal Size</name>
                <valuemin>0</valuemin>
                <valuemax>200</valuemax>
                <value>0</value>
              </parameter>
              <parameter>
                <parameterid>yscale</parameterid>
                <name>Vertical Size</name>
                <valuemin>0</valuemin>
                <valuemax>200</valuemax>
                <value>0</value>
              </parameter>
              <parameter>
                <parameterid>xoffset</parameterid>
                <name>Horizontal Offset</name>
                <valuemin>-100</valuemin>
                <valuemax>100</valuemax>
                <value>0</value>
              </parameter>
              <parameter>
                <parameterid>yoffset</parameterid>
                <name>Vertical Offset</name>
                <valuemin>-100</valuemin>
                <valuemax>100</valuemax>
                <value>0</value>
              </parameter>
              <parameter>
                <parameterid>backsoft</parameterid>
                <name>Back Soft</name>
                <valuemin>0</valuemin>
                <valuemax>100</valuemax>
                <value>0</value>
              </parameter>
              <parameter>
                <parameterid>backopacity</parameterid>
                <name>Back Opacity</name>
                <valuemin>0</valuemin>
                <valuemax>100</valuemax>
                <value>50</value>
              </parameter>
              <parameter>
                <parameterid>backcolor</parameterid>
                <name>Back Color</name>
                <value>
                  <alpha>255</alpha>
                  <red>255</red>
                  <green>255</green>
                  <blue>255</blue>
                </value>
              </parameter>
              <parameter>
                <parameterid>superback</parameterid>
                <name>Back Graphic</name>
              </parameter>
              <parameter>
                <parameterid>crop</parameterid>
                <name>Crop</name>
                <value>false</value>
              </parameter>
              <parameter>
                <parameterid>autokern</parameterid>
                <name>Auto Kerning</name>
                <value>true</value>
              </parameter>
            </effect>
            <sourcetrack>
              <mediatype>video</mediatype>
            </sourcetrack>
          </generatoritem>
          <generatoritem id="Outline Text1">
            <name>あるんですよ</name>
            <duration>22166.1117</duration>
            <rate>
              <timebase>30</timebase>
              <ntsc>true</ntsc>
            </rate>
            <start>7309.9827</start>
            <end>7330.961700000001</end>
            <in>7309.9827</in>
            <out>7330.961700000001</out>
            <enabled>true</enabled>
            <anamorphic>false</anamorphic>
            <alphatype>black</alphatype>
            <masterclipid>Outline Text1</masterclipid>
            <effect>
              <name>Outline Text</name>
              <effectid>Outline Text</effectid>
              <effectcategory>Text</effectcategory>
              <effecttype>generator</effecttype>
              <mediatype>video</mediatype>
              <parameter>
                <parameterid>part1</parameterid>
                <name>Text Settings</name>
                <value/>
              </parameter>
              <parameter>
                <parameterid>str</parameterid>
                <name>Text</name>
                <value>あるんですよ</value>
              </parameter>
              <parameter>
                <parameterid>font</parameterid>
                <name>Font</name>
                <value>HiraginoSans-W6</value>
              </parameter>
              <parameter>
                <parameterid>style</parameterid>
                <name>Style</name>
                <valuemin>1</valuemin>
                <valuemax>1</valuemax>
                <valuelist>
                  <valueentry>
                    <name>Regular</name>
                    <value>1</value>
                  </valueentry>
                </valuelist>
                <value>1</value>
              </parameter>
              <parameter>
                <parameterid>align</parameterid>
                <name>Alignment</name>
                <valuemin>1</valuemin>
                <valuemax>3</valuemax>
                <valuelist>
                  <valueentry>
                    <name>Left</name>
                    <value>1</value>
                  </valueentry>
                  <valueentry>
                    <name>Center</name>
                    <value>2</value>
                  </valueentry>
                  <valueentry>
                    <name>Right</name>
                    <value>3</value>
                  </valueentry>
                </valuelist>
                <value>2</value>
              </parameter>
              <parameter>
                <parameterid>size</parameterid>
                <name>Size</name>
                <valuemin>0</valuemin>
                <valuemax>200</valuemax>
                <value>24</value>
              </parameter>
              <parameter>
                <parameterid>track</parameterid>
                <name>Tracking</name>
                <valuemin>0</valuemin>
                <valuemax>100</valuemax>
                <value>1</value>
              </parameter>
              <parameter>
                <parameterid>lead</parameterid>
                <name>Leading</name>
                <valuemin>-100</valuemin>
                <valuemax>100</valuemax>
                <value>0</value>
              </parameter>
              <parameter>
                <parameterid>aspect</parameterid>
                <name>Aspect</name>
                <valuemin>0</valuemin>
                <valuemax>4</valuemax>
                <value>1</value>
              </parameter>
              <parameter>
                <parameterid>linewidth</parameterid>
                <name>Line Width</name>
                <valuemin>0</valuemin>
                <valuemax>200</valuemax>
                <value>2</value>
              </parameter>
              <parameter>
                <parameterid>linesoft</parameterid>
                <name>Line Softness</name>
                <valuemin>0</valuemin>
                <valuemax>100</valuemax>
                <value>5</value>
              </parameter>
              <parameter>
                <parameterid>textopacity</parameterid>
                <name>Text Opacity</name>
                <valuemin>0</valuemin>
                <valuemax>100</valuemax>
                <value>100</value>
              </parameter>
              <parameter>
                <parameterid>center</parameterid>
                <name>Center</name>
                <value>
                  <horiz>0</horiz>
                  <vert>0.4703703703703703</vert>
                </value>
              </parameter>
              <parameter>
                <parameterid>textcolor</parameterid>
                <name>Text Color</name>
                <value>
                  <alpha>255</alpha>
                  <red>255</red>
                  <green>255</green>
                  <blue>255</blue>
                </value>
              </parameter>
              <parameter>
                <parameterid>supertext</parameterid>
                <name>Text Graphic</name>
              </parameter>
              <parameter>
                <parameterid>linecolor</parameterid>
                <name>Line Color</name>
                <value>
                  <alpha>255</alpha>
                  <red>0</red>
                  <green>0</green>
                  <blue>0</blue>
                </value>
              </parameter>
              <parameter>
                <parameterid>superline</parameterid>
                <name>Line Graphic</name>
              </parameter>
              <parameter>
                <parameterid>part2</parameterid>
                <name>Background Settings</name>
              </parameter>
              <parameter>
                <parameterid>xscale</parameterid>
                <name>Horizontal Size</name>
                <valuemin>0</valuemin>
                <valuemax>200</valuemax>
                <value>0</value>
              </parameter>
              <parameter>
                <parameterid>yscale</parameterid>
                <name>Vertical Size</name>
                <valuemin>0</valuemin>
                <valuemax>200</valuemax>
                <value>0</value>
              </parameter>
              <parameter>
                <parameterid>xoffset</parameterid>
                <name>Horizontal Offset</name>
                <valuemin>-100</valuemin>
                <valuemax>100</valuemax>
                <value>0</value>
              </parameter>
              <parameter>
                <parameterid>yoffset</parameterid>
                <name>Vertical Offset</name>
                <valuemin>-100</valuemin>
                <valuemax>100</valuemax>
                <value>0</value>
              </parameter>
              <parameter>
                <parameterid>backsoft</parameterid>
                <name>Back Soft</name>
                <valuemin>0</valuemin>
                <valuemax>100</valuemax>
                <value>0</value>
              </parameter>
              <parameter>
                <parameterid>backopacity</parameterid>
                <name>Back Opacity</name>
                <valuemin>0</valuemin>
                <valuemax>100</valuemax>
                <value>50</value>
              </parameter>
              <parameter>
                <parameterid>backcolor</parameterid>
                <name>Back Color</name>
                <value>
                  <alpha>255</alpha>
                  <red>255</red>
                  <green>255</green>
                  <blue>255</blue>
                </value>
              </parameter>
              <parameter>
                <parameterid>superback</parameterid>
                <name>Back Graphic</name>
              </parameter>
              <parameter>
                <parameterid>crop</parameterid>
                <name>Crop</name>
                <value>false</value>
              </parameter>
              <parameter>
                <parameterid>autokern</parameterid>
                <name>Auto Kerning</name>
                <value>true</value>
              </parameter>
            </effect>
            <sourcetrack>
              <mediatype>video</mediatype>
            </sourcetrack>
          </generatoritem>
          <generatoritem id="Outline Text1">
            <name>びっくりした</name>
            <duration>22166.1117</duration>
            <rate>
              <timebase>30</timebase>
              <ntsc>true</ntsc>
            </rate>
            <start>7330.961700000001</start>
            <end>7347.744900000001</end>
            <in>7330.961700000001</in>
            <out>7347.744900000001</out>
            <enabled>true</enabled>
            <anamorphic>false</anamorphic>
            <alphatype>black</alphatype>
            <masterclipid>Outline Text1</masterclipid>
            <effect>
              <name>Outline Text</name>
              <effectid>Outline Text</effectid>
              <effectcategory>Text</effectcategory>
              <effecttype>generator</effecttype>
              <mediatype>video</mediatype>
              <parameter>
                <parameterid>part1</parameterid>
                <name>Text Settings</name>
                <value/>
              </parameter>
              <parameter>
                <parameterid>str</parameterid>
                <name>Text</name>
                <value>びっくりした</value>
              </parameter>
              <parameter>
                <parameterid>font</parameterid>
                <name>Font</name>
                <value>HiraginoSans-W6</value>
              </parameter>
              <parameter>
                <parameterid>style</parameterid>
                <name>Style</name>
                <valuemin>1</valuemin>
                <valuemax>1</valuemax>
                <valuelist>
                  <valueentry>
                    <name>Regular</name>
                    <value>1</value>
                  </valueentry>
                </valuelist>
                <value>1</value>
              </parameter>
              <parameter>
                <parameterid>align</parameterid>
                <name>Alignment</name>
                <valuemin>1</valuemin>
                <valuemax>3</valuemax>
                <valuelist>
                  <valueentry>
                    <name>Left</name>
                    <value>1</value>
                  </valueentry>
                  <valueentry>
                    <name>Center</name>
                    <value>2</value>
                  </valueentry>
                  <valueentry>
                    <name>Right</name>
                    <value>3</value>
                  </valueentry>
                </valuelist>
                <value>2</value>
              </parameter>
              <parameter>
                <parameterid>size</parameterid>
                <name>Size</name>
                <valuemin>0</valuemin>
                <valuemax>200</valuemax>
                <value>24</value>
              </parameter>
              <parameter>
                <parameterid>track</parameterid>
                <name>Tracking</name>
                <valuemin>0</valuemin>
                <valuemax>100</valuemax>
                <value>1</value>
              </parameter>
              <parameter>
                <parameterid>lead</parameterid>
                <name>Leading</name>
                <valuemin>-100</valuemin>
                <valuemax>100</valuemax>
                <value>0</value>
              </parameter>
              <parameter>
                <parameterid>aspect</parameterid>
                <name>Aspect</name>
                <valuemin>0</valuemin>
                <valuemax>4</valuemax>
                <value>1</value>
              </parameter>
              <parameter>
                <parameterid>linewidth</parameterid>
                <name>Line Width</name>
                <valuemin>0</valuemin>
                <valuemax>200</valuemax>
                <value>2</value>
              </parameter>
              <parameter>
                <parameterid>linesoft</parameterid>
                <name>Line Softness</name>
                <valuemin>0</valuemin>
                <valuemax>100</valuemax>
                <value>5</value>
              </parameter>
              <parameter>
                <parameterid>textopacity</parameterid>
                <name>Text Opacity</name>
                <valuemin>0</valuemin>
                <valuemax>100</valuemax>
                <value>100</value>
              </parameter>
              <parameter>
                <parameterid>center</parameterid>
                <name>Center</name>
                <value>
                  <horiz>0</horiz>
                  <vert>0.4703703703703703</vert>
                </value>
              </parameter>
              <parameter>
                <parameterid>textcolor</parameterid>
                <name>Text Color</name>
                <value>
                  <alpha>255</alpha>
                  <red>255</red>
                  <green>255</green>
                  <blue>255</blue>
                </value>
              </parameter>
              <parameter>
                <parameterid>supertext</parameterid>
                <name>Text Graphic</name>
              </parameter>
              <parameter>
                <parameterid>linecolor</parameterid>
                <name>Line Color</name>
                <value>
                  <alpha>255</alpha>
                  <red>0</red>
                  <green>0</green>
                  <blue>0</blue>
                </value>
              </parameter>
              <parameter>
                <parameterid>superline</parameterid>
                <name>Line Graphic</name>
              </parameter>
              <parameter>
                <parameterid>part2</parameterid>
                <name>Background Settings</name>
              </parameter>
              <parameter>
                <parameterid>xscale</parameterid>
                <name>Horizontal Size</name>
                <valuemin>0</valuemin>
                <valuemax>200</valuemax>
                <value>0</value>
              </parameter>
              <parameter>
                <parameterid>yscale</parameterid>
                <name>Vertical Size</name>
                <valuemin>0</valuemin>
                <valuemax>200</valuemax>
                <value>0</value>
              </parameter>
              <parameter>
                <parameterid>xoffset</parameterid>
                <name>Horizontal Offset</name>
                <valuemin>-100</valuemin>
                <valuemax>100</valuemax>
                <value>0</value>
              </parameter>
              <parameter>
                <parameterid>yoffset</parameterid>
                <name>Vertical Offset</name>
                <valuemin>-100</valuemin>
                <valuemax>100</valuemax>
                <value>0</value>
              </parameter>
              <parameter>
                <parameterid>backsoft</parameterid>
                <name>Back Soft</name>
                <valuemin>0</valuemin>
                <valuemax>100</valuemax>
                <value>0</value>
              </parameter>
              <parameter>
                <parameterid>backopacity</parameterid>
                <name>Back Opacity</name>
                <valuemin>0</valuemin>
                <valuemax>100</valuemax>
                <value>50</value>
              </parameter>
              <parameter>
                <parameterid>backcolor</parameterid>
                <name>Back Color</name>
                <value>
                  <alpha>255</alpha>
                  <red>255</red>
                  <green>255</green>
                  <blue>255</blue>
                </value>
              </parameter>
              <parameter>
                <parameterid>superback</parameterid>
                <name>Back Graphic</name>
              </parameter>
              <parameter>
                <parameterid>crop</parameterid>
                <name>Crop</name>
                <value>false</value>
              </parameter>
              <parameter>
                <parameterid>autokern</parameterid>
                <name>Auto Kerning</name>
                <value>true</value>
              </parameter>
            </effect>
            <sourcetrack>
              <mediatype>video</mediatype>
            </sourcetrack>
          </generatoritem>
          <generatoritem id="Outline Text1">
            <name>あれはじめたびっくりしたよね</name>
            <duration>22166.1117</duration>
            <rate>
              <timebase>30</timebase>
              <ntsc>true</ntsc>
            </rate>
            <start>7347.744900000001</start>
            <end>7414.2783</end>
            <in>7347.744900000001</in>
            <out>7414.2783</out>
            <enabled>true</enabled>
            <anamorphic>false</anamorphic>
            <alphatype>black</alphatype>
            <masterclipid>Outline Text1</masterclipid>
            <effect>
              <name>Outline Text</name>
              <effectid>Outline Text</effectid>
              <effectcategory>Text</effectcategory>
              <effecttype>generator</effecttype>
              <mediatype>video</mediatype>
              <parameter>
                <parameterid>part1</parameterid>
                <name>Text Settings</name>
                <value/>
              </parameter>
              <parameter>
                <parameterid>str</parameterid>
                <name>Text</name>
                <value>あれはじめたびっくりしたよね</value>
              </parameter>
              <parameter>
                <parameterid>font</parameterid>
                <name>Font</name>
                <value>HiraginoSans-W6</value>
              </parameter>
              <parameter>
                <parameterid>style</parameterid>
                <name>Style</name>
                <valuemin>1</valuemin>
                <valuemax>1</valuemax>
                <valuelist>
                  <valueentry>
                    <name>Regular</name>
                    <value>1</value>
                  </valueentry>
                </valuelist>
                <value>1</value>
              </parameter>
              <parameter>
                <parameterid>align</parameterid>
                <name>Alignment</name>
                <valuemin>1</valuemin>
                <valuemax>3</valuemax>
                <valuelist>
                  <valueentry>
                    <name>Left</name>
                    <value>1</value>
                  </valueentry>
                  <valueentry>
                    <name>Center</name>
                    <value>2</value>
                  </valueentry>
                  <valueentry>
                    <name>Right</name>
                    <value>3</value>
                  </valueentry>
                </valuelist>
                <value>2</value>
              </parameter>
              <parameter>
                <parameterid>size</parameterid>
                <name>Size</name>
                <valuemin>0</valuemin>
                <valuemax>200</valuemax>
                <value>24</value>
              </parameter>
              <parameter>
                <parameterid>track</parameterid>
                <name>Tracking</name>
                <valuemin>0</valuemin>
                <valuemax>100</valuemax>
                <value>1</value>
              </parameter>
              <parameter>
                <parameterid>lead</parameterid>
                <name>Leading</name>
                <valuemin>-100</valuemin>
                <valuemax>100</valuemax>
                <value>0</value>
              </parameter>
              <parameter>
                <parameterid>aspect</parameterid>
                <name>Aspect</name>
                <valuemin>0</valuemin>
                <valuemax>4</valuemax>
                <value>1</value>
              </parameter>
              <parameter>
                <parameterid>linewidth</parameterid>
                <name>Line Width</name>
                <valuemin>0</valuemin>
                <valuemax>200</valuemax>
                <value>2</value>
              </parameter>
              <parameter>
                <parameterid>linesoft</parameterid>
                <name>Line Softness</name>
                <valuemin>0</valuemin>
                <valuemax>100</valuemax>
                <value>5</value>
              </parameter>
              <parameter>
                <parameterid>textopacity</parameterid>
                <name>Text Opacity</name>
                <valuemin>0</valuemin>
                <valuemax>100</valuemax>
                <value>100</value>
              </parameter>
              <parameter>
                <parameterid>center</parameterid>
                <name>Center</name>
                <value>
                  <horiz>0</horiz>
                  <vert>0.4703703703703703</vert>
                </value>
              </parameter>
              <parameter>
                <parameterid>textcolor</parameterid>
                <name>Text Color</name>
                <value>
                  <alpha>255</alpha>
                  <red>255</red>
                  <green>255</green>
                  <blue>255</blue>
                </value>
              </parameter>
              <parameter>
                <parameterid>supertext</parameterid>
                <name>Text Graphic</name>
              </parameter>
              <parameter>
                <parameterid>linecolor</parameterid>
                <name>Line Color</name>
                <value>
                  <alpha>255</alpha>
                  <red>0</red>
                  <green>0</green>
                  <blue>0</blue>
                </value>
              </parameter>
              <parameter>
                <parameterid>superline</parameterid>
                <name>Line Graphic</name>
              </parameter>
              <parameter>
                <parameterid>part2</parameterid>
                <name>Background Settings</name>
              </parameter>
              <parameter>
                <parameterid>xscale</parameterid>
                <name>Horizontal Size</name>
                <valuemin>0</valuemin>
                <valuemax>200</valuemax>
                <value>0</value>
              </parameter>
              <parameter>
                <parameterid>yscale</parameterid>
                <name>Vertical Size</name>
                <valuemin>0</valuemin>
                <valuemax>200</valuemax>
                <value>0</value>
              </parameter>
              <parameter>
                <parameterid>xoffset</parameterid>
                <name>Horizontal Offset</name>
                <valuemin>-100</valuemin>
                <valuemax>100</valuemax>
                <value>0</value>
              </parameter>
              <parameter>
                <parameterid>yoffset</parameterid>
                <name>Vertical Offset</name>
                <valuemin>-100</valuemin>
                <valuemax>100</valuemax>
                <value>0</value>
              </parameter>
              <parameter>
                <parameterid>backsoft</parameterid>
                <name>Back Soft</name>
                <valuemin>0</valuemin>
                <valuemax>100</valuemax>
                <value>0</value>
              </parameter>
              <parameter>
                <parameterid>backopacity</parameterid>
                <name>Back Opacity</name>
                <valuemin>0</valuemin>
                <valuemax>100</valuemax>
                <value>50</value>
              </parameter>
              <parameter>
                <parameterid>backcolor</parameterid>
                <name>Back Color</name>
                <value>
                  <alpha>255</alpha>
                  <red>255</red>
                  <green>255</green>
                  <blue>255</blue>
                </value>
              </parameter>
              <parameter>
                <parameterid>superback</parameterid>
                <name>Back Graphic</name>
              </parameter>
              <parameter>
                <parameterid>crop</parameterid>
                <name>Crop</name>
                <value>false</value>
              </parameter>
              <parameter>
                <parameterid>autokern</parameterid>
                <name>Auto Kerning</name>
                <value>true</value>
              </parameter>
            </effect>
            <sourcetrack>
              <mediatype>video</mediatype>
            </sourcetrack>
          </generatoritem>
          <generatoritem id="Outline Text1">
            <name>東京って感じねえ</name>
            <duration>22166.1117</duration>
            <rate>
              <timebase>30</timebase>
              <ntsc>true</ntsc>
            </rate>
            <start>7414.2783</start>
            <end>7474.2183</end>
            <in>7414.2783</in>
            <out>7474.2183</out>
            <enabled>true</enabled>
            <anamorphic>false</anamorphic>
            <alphatype>black</alphatype>
            <masterclipid>Outline Text1</masterclipid>
            <effect>
              <name>Outline Text</name>
              <effectid>Outline Text</effectid>
              <effectcategory>Text</effectcategory>
              <effecttype>generator</effecttype>
              <mediatype>video</mediatype>
              <parameter>
                <parameterid>part1</parameterid>
                <name>Text Settings</name>
                <value/>
              </parameter>
              <parameter>
                <parameterid>str</parameterid>
                <name>Text</name>
                <value>東京って感じねえ</value>
              </parameter>
              <parameter>
                <parameterid>font</parameterid>
                <name>Font</name>
                <value>HiraginoSans-W6</value>
              </parameter>
              <parameter>
                <parameterid>style</parameterid>
                <name>Style</name>
                <valuemin>1</valuemin>
                <valuemax>1</valuemax>
                <valuelist>
                  <valueentry>
                    <name>Regular</name>
                    <value>1</value>
                  </valueentry>
                </valuelist>
                <value>1</value>
              </parameter>
              <parameter>
                <parameterid>align</parameterid>
                <name>Alignment</name>
                <valuemin>1</valuemin>
                <valuemax>3</valuemax>
                <valuelist>
                  <valueentry>
                    <name>Left</name>
                    <value>1</value>
                  </valueentry>
                  <valueentry>
                    <name>Center</name>
                    <value>2</value>
                  </valueentry>
                  <valueentry>
                    <name>Right</name>
                    <value>3</value>
                  </valueentry>
                </valuelist>
                <value>2</value>
              </parameter>
              <parameter>
                <parameterid>size</parameterid>
                <name>Size</name>
                <valuemin>0</valuemin>
                <valuemax>200</valuemax>
                <value>24</value>
              </parameter>
              <parameter>
                <parameterid>track</parameterid>
                <name>Tracking</name>
                <valuemin>0</valuemin>
                <valuemax>100</valuemax>
                <value>1</value>
              </parameter>
              <parameter>
                <parameterid>lead</parameterid>
                <name>Leading</name>
                <valuemin>-100</valuemin>
                <valuemax>100</valuemax>
                <value>0</value>
              </parameter>
              <parameter>
                <parameterid>aspect</parameterid>
                <name>Aspect</name>
                <valuemin>0</valuemin>
                <valuemax>4</valuemax>
                <value>1</value>
              </parameter>
              <parameter>
                <parameterid>linewidth</parameterid>
                <name>Line Width</name>
                <valuemin>0</valuemin>
                <valuemax>200</valuemax>
                <value>2</value>
              </parameter>
              <parameter>
                <parameterid>linesoft</parameterid>
                <name>Line Softness</name>
                <valuemin>0</valuemin>
                <valuemax>100</valuemax>
                <value>5</value>
              </parameter>
              <parameter>
                <parameterid>textopacity</parameterid>
                <name>Text Opacity</name>
                <valuemin>0</valuemin>
                <valuemax>100</valuemax>
                <value>100</value>
              </parameter>
              <parameter>
                <parameterid>center</parameterid>
                <name>Center</name>
                <value>
                  <horiz>0</horiz>
                  <vert>0.4703703703703703</vert>
                </value>
              </parameter>
              <parameter>
                <parameterid>textcolor</parameterid>
                <name>Text Color</name>
                <value>
                  <alpha>255</alpha>
                  <red>255</red>
                  <green>255</green>
                  <blue>255</blue>
                </value>
              </parameter>
              <parameter>
                <parameterid>supertext</parameterid>
                <name>Text Graphic</name>
              </parameter>
              <parameter>
                <parameterid>linecolor</parameterid>
                <name>Line Color</name>
                <value>
                  <alpha>255</alpha>
                  <red>0</red>
                  <green>0</green>
                  <blue>0</blue>
                </value>
              </parameter>
              <parameter>
                <parameterid>superline</parameterid>
                <name>Line Graphic</name>
              </parameter>
              <parameter>
                <parameterid>part2</parameterid>
                <name>Background Settings</name>
              </parameter>
              <parameter>
                <parameterid>xscale</parameterid>
                <name>Horizontal Size</name>
                <valuemin>0</valuemin>
                <valuemax>200</valuemax>
                <value>0</value>
              </parameter>
              <parameter>
                <parameterid>yscale</parameterid>
                <name>Vertical Size</name>
                <valuemin>0</valuemin>
                <valuemax>200</valuemax>
                <value>0</value>
              </parameter>
              <parameter>
                <parameterid>xoffset</parameterid>
                <name>Horizontal Offset</name>
                <valuemin>-100</valuemin>
                <valuemax>100</valuemax>
                <value>0</value>
              </parameter>
              <parameter>
                <parameterid>yoffset</parameterid>
                <name>Vertical Offset</name>
                <valuemin>-100</valuemin>
                <valuemax>100</valuemax>
                <value>0</value>
              </parameter>
              <parameter>
                <parameterid>backsoft</parameterid>
                <name>Back Soft</name>
                <valuemin>0</valuemin>
                <valuemax>100</valuemax>
                <value>0</value>
              </parameter>
              <parameter>
                <parameterid>backopacity</parameterid>
                <name>Back Opacity</name>
                <valuemin>0</valuemin>
                <valuemax>100</valuemax>
                <value>50</value>
              </parameter>
              <parameter>
                <parameterid>backcolor</parameterid>
                <name>Back Color</name>
                <value>
                  <alpha>255</alpha>
                  <red>255</red>
                  <green>255</green>
                  <blue>255</blue>
                </value>
              </parameter>
              <parameter>
                <parameterid>superback</parameterid>
                <name>Back Graphic</name>
              </parameter>
              <parameter>
                <parameterid>crop</parameterid>
                <name>Crop</name>
                <value>false</value>
              </parameter>
              <parameter>
                <parameterid>autokern</parameterid>
                <name>Auto Kerning</name>
                <value>true</value>
              </parameter>
            </effect>
            <sourcetrack>
              <mediatype>video</mediatype>
            </sourcetrack>
          </generatoritem>
          <generatoritem id="Outline Text1">
            <name>東京って感じしないですか</name>
            <duration>22166.1117</duration>
            <rate>
              <timebase>30</timebase>
              <ntsc>true</ntsc>
            </rate>
            <start>7474.2183</start>
            <end>7523.069400000001</end>
            <in>7474.2183</in>
            <out>7523.069400000001</out>
            <enabled>true</enabled>
            <anamorphic>false</anamorphic>
            <alphatype>black</alphatype>
            <masterclipid>Outline Text1</masterclipid>
            <effect>
              <name>Outline Text</name>
              <effectid>Outline Text</effectid>
              <effectcategory>Text</effectcategory>
              <effecttype>generator</effecttype>
              <mediatype>video</mediatype>
              <parameter>
                <parameterid>part1</parameterid>
                <name>Text Settings</name>
                <value/>
              </parameter>
              <parameter>
                <parameterid>str</parameterid>
                <name>Text</name>
                <value>東京って感じしないですか</value>
              </parameter>
              <parameter>
                <parameterid>font</parameterid>
                <name>Font</name>
                <value>HiraginoSans-W6</value>
              </parameter>
              <parameter>
                <parameterid>style</parameterid>
                <name>Style</name>
                <valuemin>1</valuemin>
                <valuemax>1</valuemax>
                <valuelist>
                  <valueentry>
                    <name>Regular</name>
                    <value>1</value>
                  </valueentry>
                </valuelist>
                <value>1</value>
              </parameter>
              <parameter>
                <parameterid>align</parameterid>
                <name>Alignment</name>
                <valuemin>1</valuemin>
                <valuemax>3</valuemax>
                <valuelist>
                  <valueentry>
                    <name>Left</name>
                    <value>1</value>
                  </valueentry>
                  <valueentry>
                    <name>Center</name>
                    <value>2</value>
                  </valueentry>
                  <valueentry>
                    <name>Right</name>
                    <value>3</value>
                  </valueentry>
                </valuelist>
                <value>2</value>
              </parameter>
              <parameter>
                <parameterid>size</parameterid>
                <name>Size</name>
                <valuemin>0</valuemin>
                <valuemax>200</valuemax>
                <value>24</value>
              </parameter>
              <parameter>
                <parameterid>track</parameterid>
                <name>Tracking</name>
                <valuemin>0</valuemin>
                <valuemax>100</valuemax>
                <value>1</value>
              </parameter>
              <parameter>
                <parameterid>lead</parameterid>
                <name>Leading</name>
                <valuemin>-100</valuemin>
                <valuemax>100</valuemax>
                <value>0</value>
              </parameter>
              <parameter>
                <parameterid>aspect</parameterid>
                <name>Aspect</name>
                <valuemin>0</valuemin>
                <valuemax>4</valuemax>
                <value>1</value>
              </parameter>
              <parameter>
                <parameterid>linewidth</parameterid>
                <name>Line Width</name>
                <valuemin>0</valuemin>
                <valuemax>200</valuemax>
                <value>2</value>
              </parameter>
              <parameter>
                <parameterid>linesoft</parameterid>
                <name>Line Softness</name>
                <valuemin>0</valuemin>
                <valuemax>100</valuemax>
                <value>5</value>
              </parameter>
              <parameter>
                <parameterid>textopacity</parameterid>
                <name>Text Opacity</name>
                <valuemin>0</valuemin>
                <valuemax>100</valuemax>
                <value>100</value>
              </parameter>
              <parameter>
                <parameterid>center</parameterid>
                <name>Center</name>
                <value>
                  <horiz>0</horiz>
                  <vert>0.4703703703703703</vert>
                </value>
              </parameter>
              <parameter>
                <parameterid>textcolor</parameterid>
                <name>Text Color</name>
                <value>
                  <alpha>255</alpha>
                  <red>255</red>
                  <green>255</green>
                  <blue>255</blue>
                </value>
              </parameter>
              <parameter>
                <parameterid>supertext</parameterid>
                <name>Text Graphic</name>
              </parameter>
              <parameter>
                <parameterid>linecolor</parameterid>
                <name>Line Color</name>
                <value>
                  <alpha>255</alpha>
                  <red>0</red>
                  <green>0</green>
                  <blue>0</blue>
                </value>
              </parameter>
              <parameter>
                <parameterid>superline</parameterid>
                <name>Line Graphic</name>
              </parameter>
              <parameter>
                <parameterid>part2</parameterid>
                <name>Background Settings</name>
              </parameter>
              <parameter>
                <parameterid>xscale</parameterid>
                <name>Horizontal Size</name>
                <valuemin>0</valuemin>
                <valuemax>200</valuemax>
                <value>0</value>
              </parameter>
              <parameter>
                <parameterid>yscale</parameterid>
                <name>Vertical Size</name>
                <valuemin>0</valuemin>
                <valuemax>200</valuemax>
                <value>0</value>
              </parameter>
              <parameter>
                <parameterid>xoffset</parameterid>
                <name>Horizontal Offset</name>
                <valuemin>-100</valuemin>
                <valuemax>100</valuemax>
                <value>0</value>
              </parameter>
              <parameter>
                <parameterid>yoffset</parameterid>
                <name>Vertical Offset</name>
                <valuemin>-100</valuemin>
                <valuemax>100</valuemax>
                <value>0</value>
              </parameter>
              <parameter>
                <parameterid>backsoft</parameterid>
                <name>Back Soft</name>
                <valuemin>0</valuemin>
                <valuemax>100</valuemax>
                <value>0</value>
              </parameter>
              <parameter>
                <parameterid>backopacity</parameterid>
                <name>Back Opacity</name>
                <valuemin>0</valuemin>
                <valuemax>100</valuemax>
                <value>50</value>
              </parameter>
              <parameter>
                <parameterid>backcolor</parameterid>
                <name>Back Color</name>
                <value>
                  <alpha>255</alpha>
                  <red>255</red>
                  <green>255</green>
                  <blue>255</blue>
                </value>
              </parameter>
              <parameter>
                <parameterid>superback</parameterid>
                <name>Back Graphic</name>
              </parameter>
              <parameter>
                <parameterid>crop</parameterid>
                <name>Crop</name>
                <value>false</value>
              </parameter>
              <parameter>
                <parameterid>autokern</parameterid>
                <name>Auto Kerning</name>
                <value>true</value>
              </parameter>
            </effect>
            <sourcetrack>
              <mediatype>video</mediatype>
            </sourcetrack>
          </generatoritem>
          <generatoritem id="Outline Text1">
            <name>またおのもりさんって言われて</name>
            <duration>22166.1117</duration>
            <rate>
              <timebase>30</timebase>
              <ntsc>true</ntsc>
            </rate>
            <start>7523.069400000001</start>
            <end>7604.5878</end>
            <in>7523.069400000001</in>
            <out>7604.5878</out>
            <enabled>true</enabled>
            <anamorphic>false</anamorphic>
            <alphatype>black</alphatype>
            <masterclipid>Outline Text1</masterclipid>
            <effect>
              <name>Outline Text</name>
              <effectid>Outline Text</effectid>
              <effectcategory>Text</effectcategory>
              <effecttype>generator</effecttype>
              <mediatype>video</mediatype>
              <parameter>
                <parameterid>part1</parameterid>
                <name>Text Settings</name>
                <value/>
              </parameter>
              <parameter>
                <parameterid>str</parameterid>
                <name>Text</name>
                <value>またおのもりさんって言われて</value>
              </parameter>
              <parameter>
                <parameterid>font</parameterid>
                <name>Font</name>
                <value>HiraginoSans-W6</value>
              </parameter>
              <parameter>
                <parameterid>style</parameterid>
                <name>Style</name>
                <valuemin>1</valuemin>
                <valuemax>1</valuemax>
                <valuelist>
                  <valueentry>
                    <name>Regular</name>
                    <value>1</value>
                  </valueentry>
                </valuelist>
                <value>1</value>
              </parameter>
              <parameter>
                <parameterid>align</parameterid>
                <name>Alignment</name>
                <valuemin>1</valuemin>
                <valuemax>3</valuemax>
                <valuelist>
                  <valueentry>
                    <name>Left</name>
                    <value>1</value>
                  </valueentry>
                  <valueentry>
                    <name>Center</name>
                    <value>2</value>
                  </valueentry>
                  <valueentry>
                    <name>Right</name>
                    <value>3</value>
                  </valueentry>
                </valuelist>
                <value>2</value>
              </parameter>
              <parameter>
                <parameterid>size</parameterid>
                <name>Size</name>
                <valuemin>0</valuemin>
                <valuemax>200</valuemax>
                <value>24</value>
              </parameter>
              <parameter>
                <parameterid>track</parameterid>
                <name>Tracking</name>
                <valuemin>0</valuemin>
                <valuemax>100</valuemax>
                <value>1</value>
              </parameter>
              <parameter>
                <parameterid>lead</parameterid>
                <name>Leading</name>
                <valuemin>-100</valuemin>
                <valuemax>100</valuemax>
                <value>0</value>
              </parameter>
              <parameter>
                <parameterid>aspect</parameterid>
                <name>Aspect</name>
                <valuemin>0</valuemin>
                <valuemax>4</valuemax>
                <value>1</value>
              </parameter>
              <parameter>
                <parameterid>linewidth</parameterid>
                <name>Line Width</name>
                <valuemin>0</valuemin>
                <valuemax>200</valuemax>
                <value>2</value>
              </parameter>
              <parameter>
                <parameterid>linesoft</parameterid>
                <name>Line Softness</name>
                <valuemin>0</valuemin>
                <valuemax>100</valuemax>
                <value>5</value>
              </parameter>
              <parameter>
                <parameterid>textopacity</parameterid>
                <name>Text Opacity</name>
                <valuemin>0</valuemin>
                <valuemax>100</valuemax>
                <value>100</value>
              </parameter>
              <parameter>
                <parameterid>center</parameterid>
                <name>Center</name>
                <value>
                  <horiz>0</horiz>
                  <vert>0.4703703703703703</vert>
                </value>
              </parameter>
              <parameter>
                <parameterid>textcolor</parameterid>
                <name>Text Color</name>
                <value>
                  <alpha>255</alpha>
                  <red>255</red>
                  <green>255</green>
                  <blue>255</blue>
                </value>
              </parameter>
              <parameter>
                <parameterid>supertext</parameterid>
                <name>Text Graphic</name>
              </parameter>
              <parameter>
                <parameterid>linecolor</parameterid>
                <name>Line Color</name>
                <value>
                  <alpha>255</alpha>
                  <red>0</red>
                  <green>0</green>
                  <blue>0</blue>
                </value>
              </parameter>
              <parameter>
                <parameterid>superline</parameterid>
                <name>Line Graphic</name>
              </parameter>
              <parameter>
                <parameterid>part2</parameterid>
                <name>Background Settings</name>
              </parameter>
              <parameter>
                <parameterid>xscale</parameterid>
                <name>Horizontal Size</name>
                <valuemin>0</valuemin>
                <valuemax>200</valuemax>
                <value>0</value>
              </parameter>
              <parameter>
                <parameterid>yscale</parameterid>
                <name>Vertical Size</name>
                <valuemin>0</valuemin>
                <valuemax>200</valuemax>
                <value>0</value>
              </parameter>
              <parameter>
                <parameterid>xoffset</parameterid>
                <name>Horizontal Offset</name>
                <valuemin>-100</valuemin>
                <valuemax>100</valuemax>
                <value>0</value>
              </parameter>
              <parameter>
                <parameterid>yoffset</parameterid>
                <name>Vertical Offset</name>
                <valuemin>-100</valuemin>
                <valuemax>100</valuemax>
                <value>0</value>
              </parameter>
              <parameter>
                <parameterid>backsoft</parameterid>
                <name>Back Soft</name>
                <valuemin>0</valuemin>
                <valuemax>100</valuemax>
                <value>0</value>
              </parameter>
              <parameter>
                <parameterid>backopacity</parameterid>
                <name>Back Opacity</name>
                <valuemin>0</valuemin>
                <valuemax>100</valuemax>
                <value>50</value>
              </parameter>
              <parameter>
                <parameterid>backcolor</parameterid>
                <name>Back Color</name>
                <value>
                  <alpha>255</alpha>
                  <red>255</red>
                  <green>255</green>
                  <blue>255</blue>
                </value>
              </parameter>
              <parameter>
                <parameterid>superback</parameterid>
                <name>Back Graphic</name>
              </parameter>
              <parameter>
                <parameterid>crop</parameterid>
                <name>Crop</name>
                <value>false</value>
              </parameter>
              <parameter>
                <parameterid>autokern</parameterid>
                <name>Auto Kerning</name>
                <value>true</value>
              </parameter>
            </effect>
            <sourcetrack>
              <mediatype>video</mediatype>
            </sourcetrack>
          </generatoritem>
          <generatoritem id="Outline Text1">
            <name>やばいすぐおのもりさんって言われて</name>
            <duration>22166.1117</duration>
            <rate>
              <timebase>30</timebase>
              <ntsc>true</ntsc>
            </rate>
            <start>7604.5878</start>
            <end>7838.3538</end>
            <in>7604.5878</in>
            <out>7838.3538</out>
            <enabled>true</enabled>
            <anamorphic>false</anamorphic>
            <alphatype>black</alphatype>
            <masterclipid>Outline Text1</masterclipid>
            <effect>
              <name>Outline Text</name>
              <effectid>Outline Text</effectid>
              <effectcategory>Text</effectcategory>
              <effecttype>generator</effecttype>
              <mediatype>video</mediatype>
              <parameter>
                <parameterid>part1</parameterid>
                <name>Text Settings</name>
                <value/>
              </parameter>
              <parameter>
                <parameterid>str</parameterid>
                <name>Text</name>
                <value>やばいすぐおのもりさんって言われて</value>
              </parameter>
              <parameter>
                <parameterid>font</parameterid>
                <name>Font</name>
                <value>HiraginoSans-W6</value>
              </parameter>
              <parameter>
                <parameterid>style</parameterid>
                <name>Style</name>
                <valuemin>1</valuemin>
                <valuemax>1</valuemax>
                <valuelist>
                  <valueentry>
                    <name>Regular</name>
                    <value>1</value>
                  </valueentry>
                </valuelist>
                <value>1</value>
              </parameter>
              <parameter>
                <parameterid>align</parameterid>
                <name>Alignment</name>
                <valuemin>1</valuemin>
                <valuemax>3</valuemax>
                <valuelist>
                  <valueentry>
                    <name>Left</name>
                    <value>1</value>
                  </valueentry>
                  <valueentry>
                    <name>Center</name>
                    <value>2</value>
                  </valueentry>
                  <valueentry>
                    <name>Right</name>
                    <value>3</value>
                  </valueentry>
                </valuelist>
                <value>2</value>
              </parameter>
              <parameter>
                <parameterid>size</parameterid>
                <name>Size</name>
                <valuemin>0</valuemin>
                <valuemax>200</valuemax>
                <value>24</value>
              </parameter>
              <parameter>
                <parameterid>track</parameterid>
                <name>Tracking</name>
                <valuemin>0</valuemin>
                <valuemax>100</valuemax>
                <value>1</value>
              </parameter>
              <parameter>
                <parameterid>lead</parameterid>
                <name>Leading</name>
                <valuemin>-100</valuemin>
                <valuemax>100</valuemax>
                <value>0</value>
              </parameter>
              <parameter>
                <parameterid>aspect</parameterid>
                <name>Aspect</name>
                <valuemin>0</valuemin>
                <valuemax>4</valuemax>
                <value>1</value>
              </parameter>
              <parameter>
                <parameterid>linewidth</parameterid>
                <name>Line Width</name>
                <valuemin>0</valuemin>
                <valuemax>200</valuemax>
                <value>2</value>
              </parameter>
              <parameter>
                <parameterid>linesoft</parameterid>
                <name>Line Softness</name>
                <valuemin>0</valuemin>
                <valuemax>100</valuemax>
                <value>5</value>
              </parameter>
              <parameter>
                <parameterid>textopacity</parameterid>
                <name>Text Opacity</name>
                <valuemin>0</valuemin>
                <valuemax>100</valuemax>
                <value>100</value>
              </parameter>
              <parameter>
                <parameterid>center</parameterid>
                <name>Center</name>
                <value>
                  <horiz>0</horiz>
                  <vert>0.4703703703703703</vert>
                </value>
              </parameter>
              <parameter>
                <parameterid>textcolor</parameterid>
                <name>Text Color</name>
                <value>
                  <alpha>255</alpha>
                  <red>255</red>
                  <green>255</green>
                  <blue>255</blue>
                </value>
              </parameter>
              <parameter>
                <parameterid>supertext</parameterid>
                <name>Text Graphic</name>
              </parameter>
              <parameter>
                <parameterid>linecolor</parameterid>
                <name>Line Color</name>
                <value>
                  <alpha>255</alpha>
                  <red>0</red>
                  <green>0</green>
                  <blue>0</blue>
                </value>
              </parameter>
              <parameter>
                <parameterid>superline</parameterid>
                <name>Line Graphic</name>
              </parameter>
              <parameter>
                <parameterid>part2</parameterid>
                <name>Background Settings</name>
              </parameter>
              <parameter>
                <parameterid>xscale</parameterid>
                <name>Horizontal Size</name>
                <valuemin>0</valuemin>
                <valuemax>200</valuemax>
                <value>0</value>
              </parameter>
              <parameter>
                <parameterid>yscale</parameterid>
                <name>Vertical Size</name>
                <valuemin>0</valuemin>
                <valuemax>200</valuemax>
                <value>0</value>
              </parameter>
              <parameter>
                <parameterid>xoffset</parameterid>
                <name>Horizontal Offset</name>
                <valuemin>-100</valuemin>
                <valuemax>100</valuemax>
                <value>0</value>
              </parameter>
              <parameter>
                <parameterid>yoffset</parameterid>
                <name>Vertical Offset</name>
                <valuemin>-100</valuemin>
                <valuemax>100</valuemax>
                <value>0</value>
              </parameter>
              <parameter>
                <parameterid>backsoft</parameterid>
                <name>Back Soft</name>
                <valuemin>0</valuemin>
                <valuemax>100</valuemax>
                <value>0</value>
              </parameter>
              <parameter>
                <parameterid>backopacity</parameterid>
                <name>Back Opacity</name>
                <valuemin>0</valuemin>
                <valuemax>100</valuemax>
                <value>50</value>
              </parameter>
              <parameter>
                <parameterid>backcolor</parameterid>
                <name>Back Color</name>
                <value>
                  <alpha>255</alpha>
                  <red>255</red>
                  <green>255</green>
                  <blue>255</blue>
                </value>
              </parameter>
              <parameter>
                <parameterid>superback</parameterid>
                <name>Back Graphic</name>
              </parameter>
              <parameter>
                <parameterid>crop</parameterid>
                <name>Crop</name>
                <value>false</value>
              </parameter>
              <parameter>
                <parameterid>autokern</parameterid>
                <name>Auto Kerning</name>
                <value>true</value>
              </parameter>
            </effect>
            <sourcetrack>
              <mediatype>video</mediatype>
            </sourcetrack>
          </generatoritem>
          <generatoritem id="Outline Text1">
            <name>ドラえもんに出てきてた</name>
            <duration>22166.1117</duration>
            <rate>
              <timebase>30</timebase>
              <ntsc>true</ntsc>
            </rate>
            <start>7838.3538</start>
            <end>8019.072900000003</end>
            <in>7838.3538</in>
            <out>8019.072900000003</out>
            <enabled>true</enabled>
            <anamorphic>false</anamorphic>
            <alphatype>black</alphatype>
            <masterclipid>Outline Text1</masterclipid>
            <effect>
              <name>Outline Text</name>
              <effectid>Outline Text</effectid>
              <effectcategory>Text</effectcategory>
              <effecttype>generator</effecttype>
              <mediatype>video</mediatype>
              <parameter>
                <parameterid>part1</parameterid>
                <name>Text Settings</name>
                <value/>
              </parameter>
              <parameter>
                <parameterid>str</parameterid>
                <name>Text</name>
                <value>ドラえもんに出てきてた</value>
              </parameter>
              <parameter>
                <parameterid>font</parameterid>
                <name>Font</name>
                <value>HiraginoSans-W6</value>
              </parameter>
              <parameter>
                <parameterid>style</parameterid>
                <name>Style</name>
                <valuemin>1</valuemin>
                <valuemax>1</valuemax>
                <valuelist>
                  <valueentry>
                    <name>Regular</name>
                    <value>1</value>
                  </valueentry>
                </valuelist>
                <value>1</value>
              </parameter>
              <parameter>
                <parameterid>align</parameterid>
                <name>Alignment</name>
                <valuemin>1</valuemin>
                <valuemax>3</valuemax>
                <valuelist>
                  <valueentry>
                    <name>Left</name>
                    <value>1</value>
                  </valueentry>
                  <valueentry>
                    <name>Center</name>
                    <value>2</value>
                  </valueentry>
                  <valueentry>
                    <name>Right</name>
                    <value>3</value>
                  </valueentry>
                </valuelist>
                <value>2</value>
              </parameter>
              <parameter>
                <parameterid>size</parameterid>
                <name>Size</name>
                <valuemin>0</valuemin>
                <valuemax>200</valuemax>
                <value>24</value>
              </parameter>
              <parameter>
                <parameterid>track</parameterid>
                <name>Tracking</name>
                <valuemin>0</valuemin>
                <valuemax>100</valuemax>
                <value>1</value>
              </parameter>
              <parameter>
                <parameterid>lead</parameterid>
                <name>Leading</name>
                <valuemin>-100</valuemin>
                <valuemax>100</valuemax>
                <value>0</value>
              </parameter>
              <parameter>
                <parameterid>aspect</parameterid>
                <name>Aspect</name>
                <valuemin>0</valuemin>
                <valuemax>4</valuemax>
                <value>1</value>
              </parameter>
              <parameter>
                <parameterid>linewidth</parameterid>
                <name>Line Width</name>
                <valuemin>0</valuemin>
                <valuemax>200</valuemax>
                <value>2</value>
              </parameter>
              <parameter>
                <parameterid>linesoft</parameterid>
                <name>Line Softness</name>
                <valuemin>0</valuemin>
                <valuemax>100</valuemax>
                <value>5</value>
              </parameter>
              <parameter>
                <parameterid>textopacity</parameterid>
                <name>Text Opacity</name>
                <valuemin>0</valuemin>
                <valuemax>100</valuemax>
                <value>100</value>
              </parameter>
              <parameter>
                <parameterid>center</parameterid>
                <name>Center</name>
                <value>
                  <horiz>0</horiz>
                  <vert>0.4703703703703703</vert>
                </value>
              </parameter>
              <parameter>
                <parameterid>textcolor</parameterid>
                <name>Text Color</name>
                <value>
                  <alpha>255</alpha>
                  <red>255</red>
                  <green>255</green>
                  <blue>255</blue>
                </value>
              </parameter>
              <parameter>
                <parameterid>supertext</parameterid>
                <name>Text Graphic</name>
              </parameter>
              <parameter>
                <parameterid>linecolor</parameterid>
                <name>Line Color</name>
                <value>
                  <alpha>255</alpha>
                  <red>0</red>
                  <green>0</green>
                  <blue>0</blue>
                </value>
              </parameter>
              <parameter>
                <parameterid>superline</parameterid>
                <name>Line Graphic</name>
              </parameter>
              <parameter>
                <parameterid>part2</parameterid>
                <name>Background Settings</name>
              </parameter>
              <parameter>
                <parameterid>xscale</parameterid>
                <name>Horizontal Size</name>
                <valuemin>0</valuemin>
                <valuemax>200</valuemax>
                <value>0</value>
              </parameter>
              <parameter>
                <parameterid>yscale</parameterid>
                <name>Vertical Size</name>
                <valuemin>0</valuemin>
                <valuemax>200</valuemax>
                <value>0</value>
              </parameter>
              <parameter>
                <parameterid>xoffset</parameterid>
                <name>Horizontal Offset</name>
                <valuemin>-100</valuemin>
                <valuemax>100</valuemax>
                <value>0</value>
              </parameter>
              <parameter>
                <parameterid>yoffset</parameterid>
                <name>Vertical Offset</name>
                <valuemin>-100</valuemin>
                <valuemax>100</valuemax>
                <value>0</value>
              </parameter>
              <parameter>
                <parameterid>backsoft</parameterid>
                <name>Back Soft</name>
                <valuemin>0</valuemin>
                <valuemax>100</valuemax>
                <value>0</value>
              </parameter>
              <parameter>
                <parameterid>backopacity</parameterid>
                <name>Back Opacity</name>
                <valuemin>0</valuemin>
                <valuemax>100</valuemax>
                <value>50</value>
              </parameter>
              <parameter>
                <parameterid>backcolor</parameterid>
                <name>Back Color</name>
                <value>
                  <alpha>255</alpha>
                  <red>255</red>
                  <green>255</green>
                  <blue>255</blue>
                </value>
              </parameter>
              <parameter>
                <parameterid>superback</parameterid>
                <name>Back Graphic</name>
              </parameter>
              <parameter>
                <parameterid>crop</parameterid>
                <name>Crop</name>
                <value>false</value>
              </parameter>
              <parameter>
                <parameterid>autokern</parameterid>
                <name>Auto Kerning</name>
                <value>true</value>
              </parameter>
            </effect>
            <sourcetrack>
              <mediatype>video</mediatype>
            </sourcetrack>
          </generatoritem>
          <generatoritem id="Outline Text1">
            <name>ドラえもんに出てきてたの?</name>
            <duration>22166.1117</duration>
            <rate>
              <timebase>30</timebase>
              <ntsc>true</ntsc>
            </rate>
            <start>8019.072900000003</start>
            <end>8172.819000000003</end>
            <in>8019.072900000003</in>
            <out>8172.819000000003</out>
            <enabled>true</enabled>
            <anamorphic>false</anamorphic>
            <alphatype>black</alphatype>
            <masterclipid>Outline Text1</masterclipid>
            <effect>
              <name>Outline Text</name>
              <effectid>Outline Text</effectid>
              <effectcategory>Text</effectcategory>
              <effecttype>generator</effecttype>
              <mediatype>video</mediatype>
              <parameter>
                <parameterid>part1</parameterid>
                <name>Text Settings</name>
                <value/>
              </parameter>
              <parameter>
                <parameterid>str</parameterid>
                <name>Text</name>
                <value>ドラえもんに出てきてたの?</value>
              </parameter>
              <parameter>
                <parameterid>font</parameterid>
                <name>Font</name>
                <value>HiraginoSans-W6</value>
              </parameter>
              <parameter>
                <parameterid>style</parameterid>
                <name>Style</name>
                <valuemin>1</valuemin>
                <valuemax>1</valuemax>
                <valuelist>
                  <valueentry>
                    <name>Regular</name>
                    <value>1</value>
                  </valueentry>
                </valuelist>
                <value>1</value>
              </parameter>
              <parameter>
                <parameterid>align</parameterid>
                <name>Alignment</name>
                <valuemin>1</valuemin>
                <valuemax>3</valuemax>
                <valuelist>
                  <valueentry>
                    <name>Left</name>
                    <value>1</value>
                  </valueentry>
                  <valueentry>
                    <name>Center</name>
                    <value>2</value>
                  </valueentry>
                  <valueentry>
                    <name>Right</name>
                    <value>3</value>
                  </valueentry>
                </valuelist>
                <value>2</value>
              </parameter>
              <parameter>
                <parameterid>size</parameterid>
                <name>Size</name>
                <valuemin>0</valuemin>
                <valuemax>200</valuemax>
                <value>24</value>
              </parameter>
              <parameter>
                <parameterid>track</parameterid>
                <name>Tracking</name>
                <valuemin>0</valuemin>
                <valuemax>100</valuemax>
                <value>1</value>
              </parameter>
              <parameter>
                <parameterid>lead</parameterid>
                <name>Leading</name>
                <valuemin>-100</valuemin>
                <valuemax>100</valuemax>
                <value>0</value>
              </parameter>
              <parameter>
                <parameterid>aspect</parameterid>
                <name>Aspect</name>
                <valuemin>0</valuemin>
                <valuemax>4</valuemax>
                <value>1</value>
              </parameter>
              <parameter>
                <parameterid>linewidth</parameterid>
                <name>Line Width</name>
                <valuemin>0</valuemin>
                <valuemax>200</valuemax>
                <value>2</value>
              </parameter>
              <parameter>
                <parameterid>linesoft</parameterid>
                <name>Line Softness</name>
                <valuemin>0</valuemin>
                <valuemax>100</valuemax>
                <value>5</value>
              </parameter>
              <parameter>
                <parameterid>textopacity</parameterid>
                <name>Text Opacity</name>
                <valuemin>0</valuemin>
                <valuemax>100</valuemax>
                <value>100</value>
              </parameter>
              <parameter>
                <parameterid>center</parameterid>
                <name>Center</name>
                <value>
                  <horiz>0</horiz>
                  <vert>0.4703703703703703</vert>
                </value>
              </parameter>
              <parameter>
                <parameterid>textcolor</parameterid>
                <name>Text Color</name>
                <value>
                  <alpha>255</alpha>
                  <red>255</red>
                  <green>255</green>
                  <blue>255</blue>
                </value>
              </parameter>
              <parameter>
                <parameterid>supertext</parameterid>
                <name>Text Graphic</name>
              </parameter>
              <parameter>
                <parameterid>linecolor</parameterid>
                <name>Line Color</name>
                <value>
                  <alpha>255</alpha>
                  <red>0</red>
                  <green>0</green>
                  <blue>0</blue>
                </value>
              </parameter>
              <parameter>
                <parameterid>superline</parameterid>
                <name>Line Graphic</name>
              </parameter>
              <parameter>
                <parameterid>part2</parameterid>
                <name>Background Settings</name>
              </parameter>
              <parameter>
                <parameterid>xscale</parameterid>
                <name>Horizontal Size</name>
                <valuemin>0</valuemin>
                <valuemax>200</valuemax>
                <value>0</value>
              </parameter>
              <parameter>
                <parameterid>yscale</parameterid>
                <name>Vertical Size</name>
                <valuemin>0</valuemin>
                <valuemax>200</valuemax>
                <value>0</value>
              </parameter>
              <parameter>
                <parameterid>xoffset</parameterid>
                <name>Horizontal Offset</name>
                <valuemin>-100</valuemin>
                <valuemax>100</valuemax>
                <value>0</value>
              </parameter>
              <parameter>
                <parameterid>yoffset</parameterid>
                <name>Vertical Offset</name>
                <valuemin>-100</valuemin>
                <valuemax>100</valuemax>
                <value>0</value>
              </parameter>
              <parameter>
                <parameterid>backsoft</parameterid>
                <name>Back Soft</name>
                <valuemin>0</valuemin>
                <valuemax>100</valuemax>
                <value>0</value>
              </parameter>
              <parameter>
                <parameterid>backopacity</parameterid>
                <name>Back Opacity</name>
                <valuemin>0</valuemin>
                <valuemax>100</valuemax>
                <value>50</value>
              </parameter>
              <parameter>
                <parameterid>backcolor</parameterid>
                <name>Back Color</name>
                <value>
                  <alpha>255</alpha>
                  <red>255</red>
                  <green>255</green>
                  <blue>255</blue>
                </value>
              </parameter>
              <parameter>
                <parameterid>superback</parameterid>
                <name>Back Graphic</name>
              </parameter>
              <parameter>
                <parameterid>crop</parameterid>
                <name>Crop</name>
                <value>false</value>
              </parameter>
              <parameter>
                <parameterid>autokern</parameterid>
                <name>Auto Kerning</name>
                <value>true</value>
              </parameter>
            </effect>
            <sourcetrack>
              <mediatype>video</mediatype>
            </sourcetrack>
          </generatoritem>
          <generatoritem id="Outline Text1">
            <name>いつも来る西口西口から出るもんね</name>
            <duration>22166.1117</duration>
            <rate>
              <timebase>30</timebase>
              <ntsc>true</ntsc>
            </rate>
            <start>8172.819000000003</start>
            <end>8298.393300000005</end>
            <in>8172.819000000003</in>
            <out>8298.393300000005</out>
            <enabled>true</enabled>
            <anamorphic>false</anamorphic>
            <alphatype>black</alphatype>
            <masterclipid>Outline Text1</masterclipid>
            <effect>
              <name>Outline Text</name>
              <effectid>Outline Text</effectid>
              <effectcategory>Text</effectcategory>
              <effecttype>generator</effecttype>
              <mediatype>video</mediatype>
              <parameter>
                <parameterid>part1</parameterid>
                <name>Text Settings</name>
                <value/>
              </parameter>
              <parameter>
                <parameterid>str</parameterid>
                <name>Text</name>
                <value>いつも来る西口西口から出るもんね</value>
              </parameter>
              <parameter>
                <parameterid>font</parameterid>
                <name>Font</name>
                <value>HiraginoSans-W6</value>
              </parameter>
              <parameter>
                <parameterid>style</parameterid>
                <name>Style</name>
                <valuemin>1</valuemin>
                <valuemax>1</valuemax>
                <valuelist>
                  <valueentry>
                    <name>Regular</name>
                    <value>1</value>
                  </valueentry>
                </valuelist>
                <value>1</value>
              </parameter>
              <parameter>
                <parameterid>align</parameterid>
                <name>Alignment</name>
                <valuemin>1</valuemin>
                <valuemax>3</valuemax>
                <valuelist>
                  <valueentry>
                    <name>Left</name>
                    <value>1</value>
                  </valueentry>
                  <valueentry>
                    <name>Center</name>
                    <value>2</value>
                  </valueentry>
                  <valueentry>
                    <name>Right</name>
                    <value>3</value>
                  </valueentry>
                </valuelist>
                <value>2</value>
              </parameter>
              <parameter>
                <parameterid>size</parameterid>
                <name>Size</name>
                <valuemin>0</valuemin>
                <valuemax>200</valuemax>
                <value>24</value>
              </parameter>
              <parameter>
                <parameterid>track</parameterid>
                <name>Tracking</name>
                <valuemin>0</valuemin>
                <valuemax>100</valuemax>
                <value>1</value>
              </parameter>
              <parameter>
                <parameterid>lead</parameterid>
                <name>Leading</name>
                <valuemin>-100</valuemin>
                <valuemax>100</valuemax>
                <value>0</value>
              </parameter>
              <parameter>
                <parameterid>aspect</parameterid>
                <name>Aspect</name>
                <valuemin>0</valuemin>
                <valuemax>4</valuemax>
                <value>1</value>
              </parameter>
              <parameter>
                <parameterid>linewidth</parameterid>
                <name>Line Width</name>
                <valuemin>0</valuemin>
                <valuemax>200</valuemax>
                <value>2</value>
              </parameter>
              <parameter>
                <parameterid>linesoft</parameterid>
                <name>Line Softness</name>
                <valuemin>0</valuemin>
                <valuemax>100</valuemax>
                <value>5</value>
              </parameter>
              <parameter>
                <parameterid>textopacity</parameterid>
                <name>Text Opacity</name>
                <valuemin>0</valuemin>
                <valuemax>100</valuemax>
                <value>100</value>
              </parameter>
              <parameter>
                <parameterid>center</parameterid>
                <name>Center</name>
                <value>
                  <horiz>0</horiz>
                  <vert>0.4703703703703703</vert>
                </value>
              </parameter>
              <parameter>
                <parameterid>textcolor</parameterid>
                <name>Text Color</name>
                <value>
                  <alpha>255</alpha>
                  <red>255</red>
                  <green>255</green>
                  <blue>255</blue>
                </value>
              </parameter>
              <parameter>
                <parameterid>supertext</parameterid>
                <name>Text Graphic</name>
              </parameter>
              <parameter>
                <parameterid>linecolor</parameterid>
                <name>Line Color</name>
                <value>
                  <alpha>255</alpha>
                  <red>0</red>
                  <green>0</green>
                  <blue>0</blue>
                </value>
              </parameter>
              <parameter>
                <parameterid>superline</parameterid>
                <name>Line Graphic</name>
              </parameter>
              <parameter>
                <parameterid>part2</parameterid>
                <name>Background Settings</name>
              </parameter>
              <parameter>
                <parameterid>xscale</parameterid>
                <name>Horizontal Size</name>
                <valuemin>0</valuemin>
                <valuemax>200</valuemax>
                <value>0</value>
              </parameter>
              <parameter>
                <parameterid>yscale</parameterid>
                <name>Vertical Size</name>
                <valuemin>0</valuemin>
                <valuemax>200</valuemax>
                <value>0</value>
              </parameter>
              <parameter>
                <parameterid>xoffset</parameterid>
                <name>Horizontal Offset</name>
                <valuemin>-100</valuemin>
                <valuemax>100</valuemax>
                <value>0</value>
              </parameter>
              <parameter>
                <parameterid>yoffset</parameterid>
                <name>Vertical Offset</name>
                <valuemin>-100</valuemin>
                <valuemax>100</valuemax>
                <value>0</value>
              </parameter>
              <parameter>
                <parameterid>backsoft</parameterid>
                <name>Back Soft</name>
                <valuemin>0</valuemin>
                <valuemax>100</valuemax>
                <value>0</value>
              </parameter>
              <parameter>
                <parameterid>backopacity</parameterid>
                <name>Back Opacity</name>
                <valuemin>0</valuemin>
                <valuemax>100</valuemax>
                <value>50</value>
              </parameter>
              <parameter>
                <parameterid>backcolor</parameterid>
                <name>Back Color</name>
                <value>
                  <alpha>255</alpha>
                  <red>255</red>
                  <green>255</green>
                  <blue>255</blue>
                </value>
              </parameter>
              <parameter>
                <parameterid>superback</parameterid>
                <name>Back Graphic</name>
              </parameter>
              <parameter>
                <parameterid>crop</parameterid>
                <name>Crop</name>
                <value>false</value>
              </parameter>
              <parameter>
                <parameterid>autokern</parameterid>
                <name>Auto Kerning</name>
                <value>true</value>
              </parameter>
            </effect>
            <sourcetrack>
              <mediatype>video</mediatype>
            </sourcetrack>
          </generatoritem>
          <generatoritem id="Outline Text1">
            <name>いつもこの辺さあれがいるんじゃない?</name>
            <duration>22166.1117</duration>
            <rate>
              <timebase>30</timebase>
              <ntsc>true</ntsc>
            </rate>
            <start>8298.393300000005</start>
            <end>8501.889600000008</end>
            <in>8298.393300000005</in>
            <out>8501.889600000008</out>
            <enabled>true</enabled>
            <anamorphic>false</anamorphic>
            <alphatype>black</alphatype>
            <masterclipid>Outline Text1</masterclipid>
            <effect>
              <name>Outline Text</name>
              <effectid>Outline Text</effectid>
              <effectcategory>Text</effectcategory>
              <effecttype>generator</effecttype>
              <mediatype>video</mediatype>
              <parameter>
                <parameterid>part1</parameterid>
                <name>Text Settings</name>
                <value/>
              </parameter>
              <parameter>
                <parameterid>str</parameterid>
                <name>Text</name>
                <value>いつもこの辺さあれがいるんじゃない?</value>
              </parameter>
              <parameter>
                <parameterid>font</parameterid>
                <name>Font</name>
                <value>HiraginoSans-W6</value>
              </parameter>
              <parameter>
                <parameterid>style</parameterid>
                <name>Style</name>
                <valuemin>1</valuemin>
                <valuemax>1</valuemax>
                <valuelist>
                  <valueentry>
                    <name>Regular</name>
                    <value>1</value>
                  </valueentry>
                </valuelist>
                <value>1</value>
              </parameter>
              <parameter>
                <parameterid>align</parameterid>
                <name>Alignment</name>
                <valuemin>1</valuemin>
                <valuemax>3</valuemax>
                <valuelist>
                  <valueentry>
                    <name>Left</name>
                    <value>1</value>
                  </valueentry>
                  <valueentry>
                    <name>Center</name>
                    <value>2</value>
                  </valueentry>
                  <valueentry>
                    <name>Right</name>
                    <value>3</value>
                  </valueentry>
                </valuelist>
                <value>2</value>
              </parameter>
              <parameter>
                <parameterid>size</parameterid>
                <name>Size</name>
                <valuemin>0</valuemin>
                <valuemax>200</valuemax>
                <value>24</value>
              </parameter>
              <parameter>
                <parameterid>track</parameterid>
                <name>Tracking</name>
                <valuemin>0</valuemin>
                <valuemax>100</valuemax>
                <value>1</value>
              </parameter>
              <parameter>
                <parameterid>lead</parameterid>
                <name>Leading</name>
                <valuemin>-100</valuemin>
                <valuemax>100</valuemax>
                <value>0</value>
              </parameter>
              <parameter>
                <parameterid>aspect</parameterid>
                <name>Aspect</name>
                <valuemin>0</valuemin>
                <valuemax>4</valuemax>
                <value>1</value>
              </parameter>
              <parameter>
                <parameterid>linewidth</parameterid>
                <name>Line Width</name>
                <valuemin>0</valuemin>
                <valuemax>200</valuemax>
                <value>2</value>
              </parameter>
              <parameter>
                <parameterid>linesoft</parameterid>
                <name>Line Softness</name>
                <valuemin>0</valuemin>
                <valuemax>100</valuemax>
                <value>5</value>
              </parameter>
              <parameter>
                <parameterid>textopacity</parameterid>
                <name>Text Opacity</name>
                <valuemin>0</valuemin>
                <valuemax>100</valuemax>
                <value>100</value>
              </parameter>
              <parameter>
                <parameterid>center</parameterid>
                <name>Center</name>
                <value>
                  <horiz>0</horiz>
                  <vert>0.4703703703703703</vert>
                </value>
              </parameter>
              <parameter>
                <parameterid>textcolor</parameterid>
                <name>Text Color</name>
                <value>
                  <alpha>255</alpha>
                  <red>255</red>
                  <green>255</green>
                  <blue>255</blue>
                </value>
              </parameter>
              <parameter>
                <parameterid>supertext</parameterid>
                <name>Text Graphic</name>
              </parameter>
              <parameter>
                <parameterid>linecolor</parameterid>
                <name>Line Color</name>
                <value>
                  <alpha>255</alpha>
                  <red>0</red>
                  <green>0</green>
                  <blue>0</blue>
                </value>
              </parameter>
              <parameter>
                <parameterid>superline</parameterid>
                <name>Line Graphic</name>
              </parameter>
              <parameter>
                <parameterid>part2</parameterid>
                <name>Background Settings</name>
              </parameter>
              <parameter>
                <parameterid>xscale</parameterid>
                <name>Horizontal Size</name>
                <valuemin>0</valuemin>
                <valuemax>200</valuemax>
                <value>0</value>
              </parameter>
              <parameter>
                <parameterid>yscale</parameterid>
                <name>Vertical Size</name>
                <valuemin>0</valuemin>
                <valuemax>200</valuemax>
                <value>0</value>
              </parameter>
              <parameter>
                <parameterid>xoffset</parameterid>
                <name>Horizontal Offset</name>
                <valuemin>-100</valuemin>
                <valuemax>100</valuemax>
                <value>0</value>
              </parameter>
              <parameter>
                <parameterid>yoffset</parameterid>
                <name>Vertical Offset</name>
                <valuemin>-100</valuemin>
                <valuemax>100</valuemax>
                <value>0</value>
              </parameter>
              <parameter>
                <parameterid>backsoft</parameterid>
                <name>Back Soft</name>
                <valuemin>0</valuemin>
                <valuemax>100</valuemax>
                <value>0</value>
              </parameter>
              <parameter>
                <parameterid>backopacity</parameterid>
                <name>Back Opacity</name>
                <valuemin>0</valuemin>
                <valuemax>100</valuemax>
                <value>50</value>
              </parameter>
              <parameter>
                <parameterid>backcolor</parameterid>
                <name>Back Color</name>
                <value>
                  <alpha>255</alpha>
                  <red>255</red>
                  <green>255</green>
                  <blue>255</blue>
                </value>
              </parameter>
              <parameter>
                <parameterid>superback</parameterid>
                <name>Back Graphic</name>
              </parameter>
              <parameter>
                <parameterid>crop</parameterid>
                <name>Crop</name>
                <value>false</value>
              </parameter>
              <parameter>
                <parameterid>autokern</parameterid>
                <name>Auto Kerning</name>
                <value>true</value>
              </parameter>
            </effect>
            <sourcetrack>
              <mediatype>video</mediatype>
            </sourcetrack>
          </generatoritem>
          <generatoritem id="Outline Text1">
            <name>エビツ様のさ</name>
            <duration>22166.1117</duration>
            <rate>
              <timebase>30</timebase>
              <ntsc>true</ntsc>
            </rate>
            <start>8501.889600000008</start>
            <end>8629.56180000001</end>
            <in>8501.889600000008</in>
            <out>8629.56180000001</out>
            <enabled>true</enabled>
            <anamorphic>false</anamorphic>
            <alphatype>black</alphatype>
            <masterclipid>Outline Text1</masterclipid>
            <effect>
              <name>Outline Text</name>
              <effectid>Outline Text</effectid>
              <effectcategory>Text</effectcategory>
              <effecttype>generator</effecttype>
              <mediatype>video</mediatype>
              <parameter>
                <parameterid>part1</parameterid>
                <name>Text Settings</name>
                <value/>
              </parameter>
              <parameter>
                <parameterid>str</parameterid>
                <name>Text</name>
                <value>エビツ様のさ</value>
              </parameter>
              <parameter>
                <parameterid>font</parameterid>
                <name>Font</name>
                <value>HiraginoSans-W6</value>
              </parameter>
              <parameter>
                <parameterid>style</parameterid>
                <name>Style</name>
                <valuemin>1</valuemin>
                <valuemax>1</valuemax>
                <valuelist>
                  <valueentry>
                    <name>Regular</name>
                    <value>1</value>
                  </valueentry>
                </valuelist>
                <value>1</value>
              </parameter>
              <parameter>
                <parameterid>align</parameterid>
                <name>Alignment</name>
                <valuemin>1</valuemin>
                <valuemax>3</valuemax>
                <valuelist>
                  <valueentry>
                    <name>Left</name>
                    <value>1</value>
                  </valueentry>
                  <valueentry>
                    <name>Center</name>
                    <value>2</value>
                  </valueentry>
                  <valueentry>
                    <name>Right</name>
                    <value>3</value>
                  </valueentry>
                </valuelist>
                <value>2</value>
              </parameter>
              <parameter>
                <parameterid>size</parameterid>
                <name>Size</name>
                <valuemin>0</valuemin>
                <valuemax>200</valuemax>
                <value>24</value>
              </parameter>
              <parameter>
                <parameterid>track</parameterid>
                <name>Tracking</name>
                <valuemin>0</valuemin>
                <valuemax>100</valuemax>
                <value>1</value>
              </parameter>
              <parameter>
                <parameterid>lead</parameterid>
                <name>Leading</name>
                <valuemin>-100</valuemin>
                <valuemax>100</valuemax>
                <value>0</value>
              </parameter>
              <parameter>
                <parameterid>aspect</parameterid>
                <name>Aspect</name>
                <valuemin>0</valuemin>
                <valuemax>4</valuemax>
                <value>1</value>
              </parameter>
              <parameter>
                <parameterid>linewidth</parameterid>
                <name>Line Width</name>
                <valuemin>0</valuemin>
                <valuemax>200</valuemax>
                <value>2</value>
              </parameter>
              <parameter>
                <parameterid>linesoft</parameterid>
                <name>Line Softness</name>
                <valuemin>0</valuemin>
                <valuemax>100</valuemax>
                <value>5</value>
              </parameter>
              <parameter>
                <parameterid>textopacity</parameterid>
                <name>Text Opacity</name>
                <valuemin>0</valuemin>
                <valuemax>100</valuemax>
                <value>100</value>
              </parameter>
              <parameter>
                <parameterid>center</parameterid>
                <name>Center</name>
                <value>
                  <horiz>0</horiz>
                  <vert>0.4703703703703703</vert>
                </value>
              </parameter>
              <parameter>
                <parameterid>textcolor</parameterid>
                <name>Text Color</name>
                <value>
                  <alpha>255</alpha>
                  <red>255</red>
                  <green>255</green>
                  <blue>255</blue>
                </value>
              </parameter>
              <parameter>
                <parameterid>supertext</parameterid>
                <name>Text Graphic</name>
              </parameter>
              <parameter>
                <parameterid>linecolor</parameterid>
                <name>Line Color</name>
                <value>
                  <alpha>255</alpha>
                  <red>0</red>
                  <green>0</green>
                  <blue>0</blue>
                </value>
              </parameter>
              <parameter>
                <parameterid>superline</parameterid>
                <name>Line Graphic</name>
              </parameter>
              <parameter>
                <parameterid>part2</parameterid>
                <name>Background Settings</name>
              </parameter>
              <parameter>
                <parameterid>xscale</parameterid>
                <name>Horizontal Size</name>
                <valuemin>0</valuemin>
                <valuemax>200</valuemax>
                <value>0</value>
              </parameter>
              <parameter>
                <parameterid>yscale</parameterid>
                <name>Vertical Size</name>
                <valuemin>0</valuemin>
                <valuemax>200</valuemax>
                <value>0</value>
              </parameter>
              <parameter>
                <parameterid>xoffset</parameterid>
                <name>Horizontal Offset</name>
                <valuemin>-100</valuemin>
                <valuemax>100</valuemax>
                <value>0</value>
              </parameter>
              <parameter>
                <parameterid>yoffset</parameterid>
                <name>Vertical Offset</name>
                <valuemin>-100</valuemin>
                <valuemax>100</valuemax>
                <value>0</value>
              </parameter>
              <parameter>
                <parameterid>backsoft</parameterid>
                <name>Back Soft</name>
                <valuemin>0</valuemin>
                <valuemax>100</valuemax>
                <value>0</value>
              </parameter>
              <parameter>
                <parameterid>backopacity</parameterid>
                <name>Back Opacity</name>
                <valuemin>0</valuemin>
                <valuemax>100</valuemax>
                <value>50</value>
              </parameter>
              <parameter>
                <parameterid>backcolor</parameterid>
                <name>Back Color</name>
                <value>
                  <alpha>255</alpha>
                  <red>255</red>
                  <green>255</green>
                  <blue>255</blue>
                </value>
              </parameter>
              <parameter>
                <parameterid>superback</parameterid>
                <name>Back Graphic</name>
              </parameter>
              <parameter>
                <parameterid>crop</parameterid>
                <name>Crop</name>
                <value>false</value>
              </parameter>
              <parameter>
                <parameterid>autokern</parameterid>
                <name>Auto Kerning</name>
                <value>true</value>
              </parameter>
            </effect>
            <sourcetrack>
              <mediatype>video</mediatype>
            </sourcetrack>
          </generatoritem>
          <generatoritem id="Outline Text1">
            <name>確かにそうエビチュアさんがさアンシャオさん恵比寿様と一緒に撮ってるよねすごいよね</name>
            <duration>22166.1117</duration>
            <rate>
              <timebase>30</timebase>
              <ntsc>true</ntsc>
            </rate>
            <start>8629.56180000001</start>
            <end>8815.37580000001</end>
            <in>8629.56180000001</in>
            <out>8815.37580000001</out>
            <enabled>true</enabled>
            <anamorphic>false</anamorphic>
            <alphatype>black</alphatype>
            <masterclipid>Outline Text1</masterclipid>
            <effect>
              <name>Outline Text</name>
              <effectid>Outline Text</effectid>
              <effectcategory>Text</effectcategory>
              <effecttype>generator</effecttype>
              <mediatype>video</mediatype>
              <parameter>
                <parameterid>part1</parameterid>
                <name>Text Settings</name>
                <value/>
              </parameter>
              <parameter>
                <parameterid>str</parameterid>
                <name>Text</name>
                <value>確かにそうエビチュアさんがさアンシャオさん恵比寿様と一緒に撮ってるよねすごいよね</value>
              </parameter>
              <parameter>
                <parameterid>font</parameterid>
                <name>Font</name>
                <value>HiraginoSans-W6</value>
              </parameter>
              <parameter>
                <parameterid>style</parameterid>
                <name>Style</name>
                <valuemin>1</valuemin>
                <valuemax>1</valuemax>
                <valuelist>
                  <valueentry>
                    <name>Regular</name>
                    <value>1</value>
                  </valueentry>
                </valuelist>
                <value>1</value>
              </parameter>
              <parameter>
                <parameterid>align</parameterid>
                <name>Alignment</name>
                <valuemin>1</valuemin>
                <valuemax>3</valuemax>
                <valuelist>
                  <valueentry>
                    <name>Left</name>
                    <value>1</value>
                  </valueentry>
                  <valueentry>
                    <name>Center</name>
                    <value>2</value>
                  </valueentry>
                  <valueentry>
                    <name>Right</name>
                    <value>3</value>
                  </valueentry>
                </valuelist>
                <value>2</value>
              </parameter>
              <parameter>
                <parameterid>size</parameterid>
                <name>Size</name>
                <valuemin>0</valuemin>
                <valuemax>200</valuemax>
                <value>24</value>
              </parameter>
              <parameter>
                <parameterid>track</parameterid>
                <name>Tracking</name>
                <valuemin>0</valuemin>
                <valuemax>100</valuemax>
                <value>1</value>
              </parameter>
              <parameter>
                <parameterid>lead</parameterid>
                <name>Leading</name>
                <valuemin>-100</valuemin>
                <valuemax>100</valuemax>
                <value>0</value>
              </parameter>
              <parameter>
                <parameterid>aspect</parameterid>
                <name>Aspect</name>
                <valuemin>0</valuemin>
                <valuemax>4</valuemax>
                <value>1</value>
              </parameter>
              <parameter>
                <parameterid>linewidth</parameterid>
                <name>Line Width</name>
                <valuemin>0</valuemin>
                <valuemax>200</valuemax>
                <value>2</value>
              </parameter>
              <parameter>
                <parameterid>linesoft</parameterid>
                <name>Line Softness</name>
                <valuemin>0</valuemin>
                <valuemax>100</valuemax>
                <value>5</value>
              </parameter>
              <parameter>
                <parameterid>textopacity</parameterid>
                <name>Text Opacity</name>
                <valuemin>0</valuemin>
                <valuemax>100</valuemax>
                <value>100</value>
              </parameter>
              <parameter>
                <parameterid>center</parameterid>
                <name>Center</name>
                <value>
                  <horiz>0</horiz>
                  <vert>0.4703703703703703</vert>
                </value>
              </parameter>
              <parameter>
                <parameterid>textcolor</parameterid>
                <name>Text Color</name>
                <value>
                  <alpha>255</alpha>
                  <red>255</red>
                  <green>255</green>
                  <blue>255</blue>
                </value>
              </parameter>
              <parameter>
                <parameterid>supertext</parameterid>
                <name>Text Graphic</name>
              </parameter>
              <parameter>
                <parameterid>linecolor</parameterid>
                <name>Line Color</name>
                <value>
                  <alpha>255</alpha>
                  <red>0</red>
                  <green>0</green>
                  <blue>0</blue>
                </value>
              </parameter>
              <parameter>
                <parameterid>superline</parameterid>
                <name>Line Graphic</name>
              </parameter>
              <parameter>
                <parameterid>part2</parameterid>
                <name>Background Settings</name>
              </parameter>
              <parameter>
                <parameterid>xscale</parameterid>
                <name>Horizontal Size</name>
                <valuemin>0</valuemin>
                <valuemax>200</valuemax>
                <value>0</value>
              </parameter>
              <parameter>
                <parameterid>yscale</parameterid>
                <name>Vertical Size</name>
                <valuemin>0</valuemin>
                <valuemax>200</valuemax>
                <value>0</value>
              </parameter>
              <parameter>
                <parameterid>xoffset</parameterid>
                <name>Horizontal Offset</name>
                <valuemin>-100</valuemin>
                <valuemax>100</valuemax>
                <value>0</value>
              </parameter>
              <parameter>
                <parameterid>yoffset</parameterid>
                <name>Vertical Offset</name>
                <valuemin>-100</valuemin>
                <valuemax>100</valuemax>
                <value>0</value>
              </parameter>
              <parameter>
                <parameterid>backsoft</parameterid>
                <name>Back Soft</name>
                <valuemin>0</valuemin>
                <valuemax>100</valuemax>
                <value>0</value>
              </parameter>
              <parameter>
                <parameterid>backopacity</parameterid>
                <name>Back Opacity</name>
                <valuemin>0</valuemin>
                <valuemax>100</valuemax>
                <value>50</value>
              </parameter>
              <parameter>
                <parameterid>backcolor</parameterid>
                <name>Back Color</name>
                <value>
                  <alpha>255</alpha>
                  <red>255</red>
                  <green>255</green>
                  <blue>255</blue>
                </value>
              </parameter>
              <parameter>
                <parameterid>superback</parameterid>
                <name>Back Graphic</name>
              </parameter>
              <parameter>
                <parameterid>crop</parameterid>
                <name>Crop</name>
                <value>false</value>
              </parameter>
              <parameter>
                <parameterid>autokern</parameterid>
                <name>Auto Kerning</name>
                <value>true</value>
              </parameter>
            </effect>
            <sourcetrack>
              <mediatype>video</mediatype>
            </sourcetrack>
          </generatoritem>
          <generatoritem id="Outline Text1">
            <name>あれ私一回遭遇したことあるの撮ってるところにそうなの?</name>
            <duration>22166.1117</duration>
            <rate>
              <timebase>30</timebase>
              <ntsc>true</ntsc>
            </rate>
            <start>8815.37580000001</start>
            <end>8906.48460000001</end>
            <in>8815.37580000001</in>
            <out>8906.48460000001</out>
            <enabled>true</enabled>
            <anamorphic>false</anamorphic>
            <alphatype>black</alphatype>
            <masterclipid>Outline Text1</masterclipid>
            <effect>
              <name>Outline Text</name>
              <effectid>Outline Text</effectid>
              <effectcategory>Text</effectcategory>
              <effecttype>generator</effecttype>
              <mediatype>video</mediatype>
              <parameter>
                <parameterid>part1</parameterid>
                <name>Text Settings</name>
                <value/>
              </parameter>
              <parameter>
                <parameterid>str</parameterid>
                <name>Text</name>
                <value>あれ私一回遭遇したことあるの撮ってるところにそうなの?</value>
              </parameter>
              <parameter>
                <parameterid>font</parameterid>
                <name>Font</name>
                <value>HiraginoSans-W6</value>
              </parameter>
              <parameter>
                <parameterid>style</parameterid>
                <name>Style</name>
                <valuemin>1</valuemin>
                <valuemax>1</valuemax>
                <valuelist>
                  <valueentry>
                    <name>Regular</name>
                    <value>1</value>
                  </valueentry>
                </valuelist>
                <value>1</value>
              </parameter>
              <parameter>
                <parameterid>align</parameterid>
                <name>Alignment</name>
                <valuemin>1</valuemin>
                <valuemax>3</valuemax>
                <valuelist>
                  <valueentry>
                    <name>Left</name>
                    <value>1</value>
                  </valueentry>
                  <valueentry>
                    <name>Center</name>
                    <value>2</value>
                  </valueentry>
                  <valueentry>
                    <name>Right</name>
                    <value>3</value>
                  </valueentry>
                </valuelist>
                <value>2</value>
              </parameter>
              <parameter>
                <parameterid>size</parameterid>
                <name>Size</name>
                <valuemin>0</valuemin>
                <valuemax>200</valuemax>
                <value>24</value>
              </parameter>
              <parameter>
                <parameterid>track</parameterid>
                <name>Tracking</name>
                <valuemin>0</valuemin>
                <valuemax>100</valuemax>
                <value>1</value>
              </parameter>
              <parameter>
                <parameterid>lead</parameterid>
                <name>Leading</name>
                <valuemin>-100</valuemin>
                <valuemax>100</valuemax>
                <value>0</value>
              </parameter>
              <parameter>
                <parameterid>aspect</parameterid>
                <name>Aspect</name>
                <valuemin>0</valuemin>
                <valuemax>4</valuemax>
                <value>1</value>
              </parameter>
              <parameter>
                <parameterid>linewidth</parameterid>
                <name>Line Width</name>
                <valuemin>0</valuemin>
                <valuemax>200</valuemax>
                <value>2</value>
              </parameter>
              <parameter>
                <parameterid>linesoft</parameterid>
                <name>Line Softness</name>
                <valuemin>0</valuemin>
                <valuemax>100</valuemax>
                <value>5</value>
              </parameter>
              <parameter>
                <parameterid>textopacity</parameterid>
                <name>Text Opacity</name>
                <valuemin>0</valuemin>
                <valuemax>100</valuemax>
                <value>100</value>
              </parameter>
              <parameter>
                <parameterid>center</parameterid>
                <name>Center</name>
                <value>
                  <horiz>0</horiz>
                  <vert>0.4703703703703703</vert>
                </value>
              </parameter>
              <parameter>
                <parameterid>textcolor</parameterid>
                <name>Text Color</name>
                <value>
                  <alpha>255</alpha>
                  <red>255</red>
                  <green>255</green>
                  <blue>255</blue>
                </value>
              </parameter>
              <parameter>
                <parameterid>supertext</parameterid>
                <name>Text Graphic</name>
              </parameter>
              <parameter>
                <parameterid>linecolor</parameterid>
                <name>Line Color</name>
                <value>
                  <alpha>255</alpha>
                  <red>0</red>
                  <green>0</green>
                  <blue>0</blue>
                </value>
              </parameter>
              <parameter>
                <parameterid>superline</parameterid>
                <name>Line Graphic</name>
              </parameter>
              <parameter>
                <parameterid>part2</parameterid>
                <name>Background Settings</name>
              </parameter>
              <parameter>
                <parameterid>xscale</parameterid>
                <name>Horizontal Size</name>
                <valuemin>0</valuemin>
                <valuemax>200</valuemax>
                <value>0</value>
              </parameter>
              <parameter>
                <parameterid>yscale</parameterid>
                <name>Vertical Size</name>
                <valuemin>0</valuemin>
                <valuemax>200</valuemax>
                <value>0</value>
              </parameter>
              <parameter>
                <parameterid>xoffset</parameterid>
                <name>Horizontal Offset</name>
                <valuemin>-100</valuemin>
                <valuemax>100</valuemax>
                <value>0</value>
              </parameter>
              <parameter>
                <parameterid>yoffset</parameterid>
                <name>Vertical Offset</name>
                <valuemin>-100</valuemin>
                <valuemax>100</valuemax>
                <value>0</value>
              </parameter>
              <parameter>
                <parameterid>backsoft</parameterid>
                <name>Back Soft</name>
                <valuemin>0</valuemin>
                <valuemax>100</valuemax>
                <value>0</value>
              </parameter>
              <parameter>
                <parameterid>backopacity</parameterid>
                <name>Back Opacity</name>
                <valuemin>0</valuemin>
                <valuemax>100</valuemax>
                <value>50</value>
              </parameter>
              <parameter>
                <parameterid>backcolor</parameterid>
                <name>Back Color</name>
                <value>
                  <alpha>255</alpha>
                  <red>255</red>
                  <green>255</green>
                  <blue>255</blue>
                </value>
              </parameter>
              <parameter>
                <parameterid>superback</parameterid>
                <name>Back Graphic</name>
              </parameter>
              <parameter>
                <parameterid>crop</parameterid>
                <name>Crop</name>
                <value>false</value>
              </parameter>
              <parameter>
                <parameterid>autokern</parameterid>
                <name>Auto Kerning</name>
                <value>true</value>
              </parameter>
            </effect>
            <sourcetrack>
              <mediatype>video</mediatype>
            </sourcetrack>
          </generatoritem>
          <generatoritem id="Outline Text1">
            <name>たまたま歩いてたら撮影してたことがあるの待ち合わせ</name>
            <duration>22166.1117</duration>
            <rate>
              <timebase>30</timebase>
              <ntsc>true</ntsc>
            </rate>
            <start>8906.48460000001</start>
            <end>9076.714200000013</end>
            <in>8906.48460000001</in>
            <out>9076.714200000013</out>
            <enabled>true</enabled>
            <anamorphic>false</anamorphic>
            <alphatype>black</alphatype>
            <masterclipid>Outline Text1</masterclipid>
            <effect>
              <name>Outline Text</name>
              <effectid>Outline Text</effectid>
              <effectcategory>Text</effectcategory>
              <effecttype>generator</effecttype>
              <mediatype>video</mediatype>
              <parameter>
                <parameterid>part1</parameterid>
                <name>Text Settings</name>
                <value/>
              </parameter>
              <parameter>
                <parameterid>str</parameterid>
                <name>Text</name>
                <value>たまたま歩いてたら撮影してたことがあるの待ち合わせ</value>
              </parameter>
              <parameter>
                <parameterid>font</parameterid>
                <name>Font</name>
                <value>HiraginoSans-W6</value>
              </parameter>
              <parameter>
                <parameterid>style</parameterid>
                <name>Style</name>
                <valuemin>1</valuemin>
                <valuemax>1</valuemax>
                <valuelist>
                  <valueentry>
                    <name>Regular</name>
                    <value>1</value>
                  </valueentry>
                </valuelist>
                <value>1</value>
              </parameter>
              <parameter>
                <parameterid>align</parameterid>
                <name>Alignment</name>
                <valuemin>1</valuemin>
                <valuemax>3</valuemax>
                <valuelist>
                  <valueentry>
                    <name>Left</name>
                    <value>1</value>
                  </valueentry>
                  <valueentry>
                    <name>Center</name>
                    <value>2</value>
                  </valueentry>
                  <valueentry>
                    <name>Right</name>
                    <value>3</value>
                  </valueentry>
                </valuelist>
                <value>2</value>
              </parameter>
              <parameter>
                <parameterid>size</parameterid>
                <name>Size</name>
                <valuemin>0</valuemin>
                <valuemax>200</valuemax>
                <value>24</value>
              </parameter>
              <parameter>
                <parameterid>track</parameterid>
                <name>Tracking</name>
                <valuemin>0</valuemin>
                <valuemax>100</valuemax>
                <value>1</value>
              </parameter>
              <parameter>
                <parameterid>lead</parameterid>
                <name>Leading</name>
                <valuemin>-100</valuemin>
                <valuemax>100</valuemax>
                <value>0</value>
              </parameter>
              <parameter>
                <parameterid>aspect</parameterid>
                <name>Aspect</name>
                <valuemin>0</valuemin>
                <valuemax>4</valuemax>
                <value>1</value>
              </parameter>
              <parameter>
                <parameterid>linewidth</parameterid>
                <name>Line Width</name>
                <valuemin>0</valuemin>
                <valuemax>200</valuemax>
                <value>2</value>
              </parameter>
              <parameter>
                <parameterid>linesoft</parameterid>
                <name>Line Softness</name>
                <valuemin>0</valuemin>
                <valuemax>100</valuemax>
                <value>5</value>
              </parameter>
              <parameter>
                <parameterid>textopacity</parameterid>
                <name>Text Opacity</name>
                <valuemin>0</valuemin>
                <valuemax>100</valuemax>
                <value>100</value>
              </parameter>
              <parameter>
                <parameterid>center</parameterid>
                <name>Center</name>
                <value>
                  <horiz>0</horiz>
                  <vert>0.4703703703703703</vert>
                </value>
              </parameter>
              <parameter>
                <parameterid>textcolor</parameterid>
                <name>Text Color</name>
                <value>
                  <alpha>255</alpha>
                  <red>255</red>
                  <green>255</green>
                  <blue>255</blue>
                </value>
              </parameter>
              <parameter>
                <parameterid>supertext</parameterid>
                <name>Text Graphic</name>
              </parameter>
              <parameter>
                <parameterid>linecolor</parameterid>
                <name>Line Color</name>
                <value>
                  <alpha>255</alpha>
                  <red>0</red>
                  <green>0</green>
                  <blue>0</blue>
                </value>
              </parameter>
              <parameter>
                <parameterid>superline</parameterid>
                <name>Line Graphic</name>
              </parameter>
              <parameter>
                <parameterid>part2</parameterid>
                <name>Background Settings</name>
              </parameter>
              <parameter>
                <parameterid>xscale</parameterid>
                <name>Horizontal Size</name>
                <valuemin>0</valuemin>
                <valuemax>200</valuemax>
                <value>0</value>
              </parameter>
              <parameter>
                <parameterid>yscale</parameterid>
                <name>Vertical Size</name>
                <valuemin>0</valuemin>
                <valuemax>200</valuemax>
                <value>0</value>
              </parameter>
              <parameter>
                <parameterid>xoffset</parameterid>
                <name>Horizontal Offset</name>
                <valuemin>-100</valuemin>
                <valuemax>100</valuemax>
                <value>0</value>
              </parameter>
              <parameter>
                <parameterid>yoffset</parameterid>
                <name>Vertical Offset</name>
                <valuemin>-100</valuemin>
                <valuemax>100</valuemax>
                <value>0</value>
              </parameter>
              <parameter>
                <parameterid>backsoft</parameterid>
                <name>Back Soft</name>
                <valuemin>0</valuemin>
                <valuemax>100</valuemax>
                <value>0</value>
              </parameter>
              <parameter>
                <parameterid>backopacity</parameterid>
                <name>Back Opacity</name>
                <valuemin>0</valuemin>
                <valuemax>100</valuemax>
                <value>50</value>
              </parameter>
              <parameter>
                <parameterid>backcolor</parameterid>
                <name>Back Color</name>
                <value>
                  <alpha>255</alpha>
                  <red>255</red>
                  <green>255</green>
                  <blue>255</blue>
                </value>
              </parameter>
              <parameter>
                <parameterid>superback</parameterid>
                <name>Back Graphic</name>
              </parameter>
              <parameter>
                <parameterid>crop</parameterid>
                <name>Crop</name>
                <value>false</value>
              </parameter>
              <parameter>
                <parameterid>autokern</parameterid>
                <name>Auto Kerning</name>
                <value>true</value>
              </parameter>
            </effect>
            <sourcetrack>
              <mediatype>video</mediatype>
            </sourcetrack>
          </generatoritem>
          <generatoritem id="Outline Text1">
            <name>大体さ恵比寿像じゃない?</name>
            <duration>22166.1117</duration>
            <rate>
              <timebase>30</timebase>
              <ntsc>true</ntsc>
            </rate>
            <start>9076.714200000013</start>
            <end>9136.654200000014</end>
            <in>9076.714200000013</in>
            <out>9136.654200000014</out>
            <enabled>true</enabled>
            <anamorphic>false</anamorphic>
            <alphatype>black</alphatype>
            <masterclipid>Outline Text1</masterclipid>
            <effect>
              <name>Outline Text</name>
              <effectid>Outline Text</effectid>
              <effectcategory>Text</effectcategory>
              <effecttype>generator</effecttype>
              <mediatype>video</mediatype>
              <parameter>
                <parameterid>part1</parameterid>
                <name>Text Settings</name>
                <value/>
              </parameter>
              <parameter>
                <parameterid>str</parameterid>
                <name>Text</name>
                <value>大体さ恵比寿像じゃない?</value>
              </parameter>
              <parameter>
                <parameterid>font</parameterid>
                <name>Font</name>
                <value>HiraginoSans-W6</value>
              </parameter>
              <parameter>
                <parameterid>style</parameterid>
                <name>Style</name>
                <valuemin>1</valuemin>
                <valuemax>1</valuemax>
                <valuelist>
                  <valueentry>
                    <name>Regular</name>
                    <value>1</value>
                  </valueentry>
                </valuelist>
                <value>1</value>
              </parameter>
              <parameter>
                <parameterid>align</parameterid>
                <name>Alignment</name>
                <valuemin>1</valuemin>
                <valuemax>3</valuemax>
                <valuelist>
                  <valueentry>
                    <name>Left</name>
                    <value>1</value>
                  </valueentry>
                  <valueentry>
                    <name>Center</name>
                    <value>2</value>
                  </valueentry>
                  <valueentry>
                    <name>Right</name>
                    <value>3</value>
                  </valueentry>
                </valuelist>
                <value>2</value>
              </parameter>
              <parameter>
                <parameterid>size</parameterid>
                <name>Size</name>
                <valuemin>0</valuemin>
                <valuemax>200</valuemax>
                <value>24</value>
              </parameter>
              <parameter>
                <parameterid>track</parameterid>
                <name>Tracking</name>
                <valuemin>0</valuemin>
                <valuemax>100</valuemax>
                <value>1</value>
              </parameter>
              <parameter>
                <parameterid>lead</parameterid>
                <name>Leading</name>
                <valuemin>-100</valuemin>
                <valuemax>100</valuemax>
                <value>0</value>
              </parameter>
              <parameter>
                <parameterid>aspect</parameterid>
                <name>Aspect</name>
                <valuemin>0</valuemin>
                <valuemax>4</valuemax>
                <value>1</value>
              </parameter>
              <parameter>
                <parameterid>linewidth</parameterid>
                <name>Line Width</name>
                <valuemin>0</valuemin>
                <valuemax>200</valuemax>
                <value>2</value>
              </parameter>
              <parameter>
                <parameterid>linesoft</parameterid>
                <name>Line Softness</name>
                <valuemin>0</valuemin>
                <valuemax>100</valuemax>
                <value>5</value>
              </parameter>
              <parameter>
                <parameterid>textopacity</parameterid>
                <name>Text Opacity</name>
                <valuemin>0</valuemin>
                <valuemax>100</valuemax>
                <value>100</value>
              </parameter>
              <parameter>
                <parameterid>center</parameterid>
                <name>Center</name>
                <value>
                  <horiz>0</horiz>
                  <vert>0.4703703703703703</vert>
                </value>
              </parameter>
              <parameter>
                <parameterid>textcolor</parameterid>
                <name>Text Color</name>
                <value>
                  <alpha>255</alpha>
                  <red>255</red>
                  <green>255</green>
                  <blue>255</blue>
                </value>
              </parameter>
              <parameter>
                <parameterid>supertext</parameterid>
                <name>Text Graphic</name>
              </parameter>
              <parameter>
                <parameterid>linecolor</parameterid>
                <name>Line Color</name>
                <value>
                  <alpha>255</alpha>
                  <red>0</red>
                  <green>0</green>
                  <blue>0</blue>
                </value>
              </parameter>
              <parameter>
                <parameterid>superline</parameterid>
                <name>Line Graphic</name>
              </parameter>
              <parameter>
                <parameterid>part2</parameterid>
                <name>Background Settings</name>
              </parameter>
              <parameter>
                <parameterid>xscale</parameterid>
                <name>Horizontal Size</name>
                <valuemin>0</valuemin>
                <valuemax>200</valuemax>
                <value>0</value>
              </parameter>
              <parameter>
                <parameterid>yscale</parameterid>
                <name>Vertical Size</name>
                <valuemin>0</valuemin>
                <valuemax>200</valuemax>
                <value>0</value>
              </parameter>
              <parameter>
                <parameterid>xoffset</parameterid>
                <name>Horizontal Offset</name>
                <valuemin>-100</valuemin>
                <valuemax>100</valuemax>
                <value>0</value>
              </parameter>
              <parameter>
                <parameterid>yoffset</parameterid>
                <name>Vertical Offset</name>
                <valuemin>-100</valuemin>
                <valuemax>100</valuemax>
                <value>0</value>
              </parameter>
              <parameter>
                <parameterid>backsoft</parameterid>
                <name>Back Soft</name>
                <valuemin>0</valuemin>
                <valuemax>100</valuemax>
                <value>0</value>
              </parameter>
              <parameter>
                <parameterid>backopacity</parameterid>
                <name>Back Opacity</name>
                <valuemin>0</valuemin>
                <valuemax>100</valuemax>
                <value>50</value>
              </parameter>
              <parameter>
                <parameterid>backcolor</parameterid>
                <name>Back Color</name>
                <value>
                  <alpha>255</alpha>
                  <red>255</red>
                  <green>255</green>
                  <blue>255</blue>
                </value>
              </parameter>
              <parameter>
                <parameterid>superback</parameterid>
                <name>Back Graphic</name>
              </parameter>
              <parameter>
                <parameterid>crop</parameterid>
                <name>Crop</name>
                <value>false</value>
              </parameter>
              <parameter>
                <parameterid>autokern</parameterid>
                <name>Auto Kerning</name>
                <value>true</value>
              </parameter>
            </effect>
            <sourcetrack>
              <mediatype>video</mediatype>
            </sourcetrack>
          </generatoritem>
          <generatoritem id="Outline Text1">
            <name>確かにこの辺だとね</name>
            <duration>22166.1117</duration>
            <rate>
              <timebase>30</timebase>
              <ntsc>true</ntsc>
            </rate>
            <start>9136.654200000014</start>
            <end>9187.902900000016</end>
            <in>9136.654200000014</in>
            <out>9187.902900000016</out>
            <enabled>true</enabled>
            <anamorphic>false</anamorphic>
            <alphatype>black</alphatype>
            <masterclipid>Outline Text1</masterclipid>
            <effect>
              <name>Outline Text</name>
              <effectid>Outline Text</effectid>
              <effectcategory>Text</effectcategory>
              <effecttype>generator</effecttype>
              <mediatype>video</mediatype>
              <parameter>
                <parameterid>part1</parameterid>
                <name>Text Settings</name>
                <value/>
              </parameter>
              <parameter>
                <parameterid>str</parameterid>
                <name>Text</name>
                <value>確かにこの辺だとね</value>
              </parameter>
              <parameter>
                <parameterid>font</parameterid>
                <name>Font</name>
                <value>HiraginoSans-W6</value>
              </parameter>
              <parameter>
                <parameterid>style</parameterid>
                <name>Style</name>
                <valuemin>1</valuemin>
                <valuemax>1</valuemax>
                <valuelist>
                  <valueentry>
                    <name>Regular</name>
                    <value>1</value>
                  </valueentry>
                </valuelist>
                <value>1</value>
              </parameter>
              <parameter>
                <parameterid>align</parameterid>
                <name>Alignment</name>
                <valuemin>1</valuemin>
                <valuemax>3</valuemax>
                <valuelist>
                  <valueentry>
                    <name>Left</name>
                    <value>1</value>
                  </valueentry>
                  <valueentry>
                    <name>Center</name>
                    <value>2</value>
                  </valueentry>
                  <valueentry>
                    <name>Right</name>
                    <value>3</value>
                  </valueentry>
                </valuelist>
                <value>2</value>
              </parameter>
              <parameter>
                <parameterid>size</parameterid>
                <name>Size</name>
                <valuemin>0</valuemin>
                <valuemax>200</valuemax>
                <value>24</value>
              </parameter>
              <parameter>
                <parameterid>track</parameterid>
                <name>Tracking</name>
                <valuemin>0</valuemin>
                <valuemax>100</valuemax>
                <value>1</value>
              </parameter>
              <parameter>
                <parameterid>lead</parameterid>
                <name>Leading</name>
                <valuemin>-100</valuemin>
                <valuemax>100</valuemax>
                <value>0</value>
              </parameter>
              <parameter>
                <parameterid>aspect</parameterid>
                <name>Aspect</name>
                <valuemin>0</valuemin>
                <valuemax>4</valuemax>
                <value>1</value>
              </parameter>
              <parameter>
                <parameterid>linewidth</parameterid>
                <name>Line Width</name>
                <valuemin>0</valuemin>
                <valuemax>200</valuemax>
                <value>2</value>
              </parameter>
              <parameter>
                <parameterid>linesoft</parameterid>
                <name>Line Softness</name>
                <valuemin>0</valuemin>
                <valuemax>100</valuemax>
                <value>5</value>
              </parameter>
              <parameter>
                <parameterid>textopacity</parameterid>
                <name>Text Opacity</name>
                <valuemin>0</valuemin>
                <valuemax>100</valuemax>
                <value>100</value>
              </parameter>
              <parameter>
                <parameterid>center</parameterid>
                <name>Center</name>
                <value>
                  <horiz>0</horiz>
                  <vert>0.4703703703703703</vert>
                </value>
              </parameter>
              <parameter>
                <parameterid>textcolor</parameterid>
                <name>Text Color</name>
                <value>
                  <alpha>255</alpha>
                  <red>255</red>
                  <green>255</green>
                  <blue>255</blue>
                </value>
              </parameter>
              <parameter>
                <parameterid>supertext</parameterid>
                <name>Text Graphic</name>
              </parameter>
              <parameter>
                <parameterid>linecolor</parameterid>
                <name>Line Color</name>
                <value>
                  <alpha>255</alpha>
                  <red>0</red>
                  <green>0</green>
                  <blue>0</blue>
                </value>
              </parameter>
              <parameter>
                <parameterid>superline</parameterid>
                <name>Line Graphic</name>
              </parameter>
              <parameter>
                <parameterid>part2</parameterid>
                <name>Background Settings</name>
              </parameter>
              <parameter>
                <parameterid>xscale</parameterid>
                <name>Horizontal Size</name>
                <valuemin>0</valuemin>
                <valuemax>200</valuemax>
                <value>0</value>
              </parameter>
              <parameter>
                <parameterid>yscale</parameterid>
                <name>Vertical Size</name>
                <valuemin>0</valuemin>
                <valuemax>200</valuemax>
                <value>0</value>
              </parameter>
              <parameter>
                <parameterid>xoffset</parameterid>
                <name>Horizontal Offset</name>
                <valuemin>-100</valuemin>
                <valuemax>100</valuemax>
                <value>0</value>
              </parameter>
              <parameter>
                <parameterid>yoffset</parameterid>
                <name>Vertical Offset</name>
                <valuemin>-100</valuemin>
                <valuemax>100</valuemax>
                <value>0</value>
              </parameter>
              <parameter>
                <parameterid>backsoft</parameterid>
                <name>Back Soft</name>
                <valuemin>0</valuemin>
                <valuemax>100</valuemax>
                <value>0</value>
              </parameter>
              <parameter>
                <parameterid>backopacity</parameterid>
                <name>Back Opacity</name>
                <valuemin>0</valuemin>
                <valuemax>100</valuemax>
                <value>50</value>
              </parameter>
              <parameter>
                <parameterid>backcolor</parameterid>
                <name>Back Color</name>
                <value>
                  <alpha>255</alpha>
                  <red>255</red>
                  <green>255</green>
                  <blue>255</blue>
                </value>
              </parameter>
              <parameter>
                <parameterid>superback</parameterid>
                <name>Back Graphic</name>
              </parameter>
              <parameter>
                <parameterid>crop</parameterid>
                <name>Crop</name>
                <value>false</value>
              </parameter>
              <parameter>
                <parameterid>autokern</parameterid>
                <name>Auto Kerning</name>
                <value>true</value>
              </parameter>
            </effect>
            <sourcetrack>
              <mediatype>video</mediatype>
            </sourcetrack>
          </generatoritem>
          <generatoritem id="Outline Text1">
            <name>分かりやすいもんね</name>
            <duration>22166.1117</duration>
            <rate>
              <timebase>30</timebase>
              <ntsc>true</ntsc>
            </rate>
            <start>9187.902900000016</start>
            <end>9250.839900000017</end>
            <in>9187.902900000016</in>
            <out>9250.839900000017</out>
            <enabled>true</enabled>
            <anamorphic>false</anamorphic>
            <alphatype>black</alphatype>
            <masterclipid>Outline Text1</masterclipid>
            <effect>
              <name>Outline Text</name>
              <effectid>Outline Text</effectid>
              <effectcategory>Text</effectcategory>
              <effecttype>generator</effecttype>
              <mediatype>video</mediatype>
              <parameter>
                <parameterid>part1</parameterid>
                <name>Text Settings</name>
                <value/>
              </parameter>
              <parameter>
                <parameterid>str</parameterid>
                <name>Text</name>
                <value>分かりやすいもんね</value>
              </parameter>
              <parameter>
                <parameterid>font</parameterid>
                <name>Font</name>
                <value>HiraginoSans-W6</value>
              </parameter>
              <parameter>
                <parameterid>style</parameterid>
                <name>Style</name>
                <valuemin>1</valuemin>
                <valuemax>1</valuemax>
                <valuelist>
                  <valueentry>
                    <name>Regular</name>
                    <value>1</value>
                  </valueentry>
                </valuelist>
                <value>1</value>
              </parameter>
              <parameter>
                <parameterid>align</parameterid>
                <name>Alignment</name>
                <valuemin>1</valuemin>
                <valuemax>3</valuemax>
                <valuelist>
                  <valueentry>
                    <name>Left</name>
                    <value>1</value>
                  </valueentry>
                  <valueentry>
                    <name>Center</name>
                    <value>2</value>
                  </valueentry>
                  <valueentry>
                    <name>Right</name>
                    <value>3</value>
                  </valueentry>
                </valuelist>
                <value>2</value>
              </parameter>
              <parameter>
                <parameterid>size</parameterid>
                <name>Size</name>
                <valuemin>0</valuemin>
                <valuemax>200</valuemax>
                <value>24</value>
              </parameter>
              <parameter>
                <parameterid>track</parameterid>
                <name>Tracking</name>
                <valuemin>0</valuemin>
                <valuemax>100</valuemax>
                <value>1</value>
              </parameter>
              <parameter>
                <parameterid>lead</parameterid>
                <name>Leading</name>
                <valuemin>-100</valuemin>
                <valuemax>100</valuemax>
                <value>0</value>
              </parameter>
              <parameter>
                <parameterid>aspect</parameterid>
                <name>Aspect</name>
                <valuemin>0</valuemin>
                <valuemax>4</valuemax>
                <value>1</value>
              </parameter>
              <parameter>
                <parameterid>linewidth</parameterid>
                <name>Line Width</name>
                <valuemin>0</valuemin>
                <valuemax>200</valuemax>
                <value>2</value>
              </parameter>
              <parameter>
                <parameterid>linesoft</parameterid>
                <name>Line Softness</name>
                <valuemin>0</valuemin>
                <valuemax>100</valuemax>
                <value>5</value>
              </parameter>
              <parameter>
                <parameterid>textopacity</parameterid>
                <name>Text Opacity</name>
                <valuemin>0</valuemin>
                <valuemax>100</valuemax>
                <value>100</value>
              </parameter>
              <parameter>
                <parameterid>center</parameterid>
                <name>Center</name>
                <value>
                  <horiz>0</horiz>
                  <vert>0.4703703703703703</vert>
                </value>
              </parameter>
              <parameter>
                <parameterid>textcolor</parameterid>
                <name>Text Color</name>
                <value>
                  <alpha>255</alpha>
                  <red>255</red>
                  <green>255</green>
                  <blue>255</blue>
                </value>
              </parameter>
              <parameter>
                <parameterid>supertext</parameterid>
                <name>Text Graphic</name>
              </parameter>
              <parameter>
                <parameterid>linecolor</parameterid>
                <name>Line Color</name>
                <value>
                  <alpha>255</alpha>
                  <red>0</red>
                  <green>0</green>
                  <blue>0</blue>
                </value>
              </parameter>
              <parameter>
                <parameterid>superline</parameterid>
                <name>Line Graphic</name>
              </parameter>
              <parameter>
                <parameterid>part2</parameterid>
                <name>Background Settings</name>
              </parameter>
              <parameter>
                <parameterid>xscale</parameterid>
                <name>Horizontal Size</name>
                <valuemin>0</valuemin>
                <valuemax>200</valuemax>
                <value>0</value>
              </parameter>
              <parameter>
                <parameterid>yscale</parameterid>
                <name>Vertical Size</name>
                <valuemin>0</valuemin>
                <valuemax>200</valuemax>
                <value>0</value>
              </parameter>
              <parameter>
                <parameterid>xoffset</parameterid>
                <name>Horizontal Offset</name>
                <valuemin>-100</valuemin>
                <valuemax>100</valuemax>
                <value>0</value>
              </parameter>
              <parameter>
                <parameterid>yoffset</parameterid>
                <name>Vertical Offset</name>
                <valuemin>-100</valuemin>
                <valuemax>100</valuemax>
                <value>0</value>
              </parameter>
              <parameter>
                <parameterid>backsoft</parameterid>
                <name>Back Soft</name>
                <valuemin>0</valuemin>
                <valuemax>100</valuemax>
                <value>0</value>
              </parameter>
              <parameter>
                <parameterid>backopacity</parameterid>
                <name>Back Opacity</name>
                <valuemin>0</valuemin>
                <valuemax>100</valuemax>
                <value>50</value>
              </parameter>
              <parameter>
                <parameterid>backcolor</parameterid>
                <name>Back Color</name>
                <value>
                  <alpha>255</alpha>
                  <red>255</red>
                  <green>255</green>
                  <blue>255</blue>
                </value>
              </parameter>
              <parameter>
                <parameterid>superback</parameterid>
                <name>Back Graphic</name>
              </parameter>
              <parameter>
                <parameterid>crop</parameterid>
                <name>Crop</name>
                <value>false</value>
              </parameter>
              <parameter>
                <parameterid>autokern</parameterid>
                <name>Auto Kerning</name>
                <value>true</value>
              </parameter>
            </effect>
            <sourcetrack>
              <mediatype>video</mediatype>
            </sourcetrack>
          </generatoritem>
          <generatoritem id="Outline Text1">
            <name>あ恵比寿様いらっしゃったよいらっしゃいました</name>
            <duration>22166.1117</duration>
            <rate>
              <timebase>30</timebase>
              <ntsc>true</ntsc>
            </rate>
            <start>9250.839900000017</start>
            <end>9314.975700000015</end>
            <in>9250.839900000017</in>
            <out>9314.975700000015</out>
            <enabled>true</enabled>
            <anamorphic>false</anamorphic>
            <alphatype>black</alphatype>
            <masterclipid>Outline Text1</masterclipid>
            <effect>
              <name>Outline Text</name>
              <effectid>Outline Text</effectid>
              <effectcategory>Text</effectcategory>
              <effecttype>generator</effecttype>
              <mediatype>video</mediatype>
              <parameter>
                <parameterid>part1</parameterid>
                <name>Text Settings</name>
                <value/>
              </parameter>
              <parameter>
                <parameterid>str</parameterid>
                <name>Text</name>
                <value>あ恵比寿様いらっしゃったよいらっしゃいました</value>
              </parameter>
              <parameter>
                <parameterid>font</parameterid>
                <name>Font</name>
                <value>HiraginoSans-W6</value>
              </parameter>
              <parameter>
                <parameterid>style</parameterid>
                <name>Style</name>
                <valuemin>1</valuemin>
                <valuemax>1</valuemax>
                <valuelist>
                  <valueentry>
                    <name>Regular</name>
                    <value>1</value>
                  </valueentry>
                </valuelist>
                <value>1</value>
              </parameter>
              <parameter>
                <parameterid>align</parameterid>
                <name>Alignment</name>
                <valuemin>1</valuemin>
                <valuemax>3</valuemax>
                <valuelist>
                  <valueentry>
                    <name>Left</name>
                    <value>1</value>
                  </valueentry>
                  <valueentry>
                    <name>Center</name>
                    <value>2</value>
                  </valueentry>
                  <valueentry>
                    <name>Right</name>
                    <value>3</value>
                  </valueentry>
                </valuelist>
                <value>2</value>
              </parameter>
              <parameter>
                <parameterid>size</parameterid>
                <name>Size</name>
                <valuemin>0</valuemin>
                <valuemax>200</valuemax>
                <value>24</value>
              </parameter>
              <parameter>
                <parameterid>track</parameterid>
                <name>Tracking</name>
                <valuemin>0</valuemin>
                <valuemax>100</valuemax>
                <value>1</value>
              </parameter>
              <parameter>
                <parameterid>lead</parameterid>
                <name>Leading</name>
                <valuemin>-100</valuemin>
                <valuemax>100</valuemax>
                <value>0</value>
              </parameter>
              <parameter>
                <parameterid>aspect</parameterid>
                <name>Aspect</name>
                <valuemin>0</valuemin>
                <valuemax>4</valuemax>
                <value>1</value>
              </parameter>
              <parameter>
                <parameterid>linewidth</parameterid>
                <name>Line Width</name>
                <valuemin>0</valuemin>
                <valuemax>200</valuemax>
                <value>2</value>
              </parameter>
              <parameter>
                <parameterid>linesoft</parameterid>
                <name>Line Softness</name>
                <valuemin>0</valuemin>
                <valuemax>100</valuemax>
                <value>5</value>
              </parameter>
              <parameter>
                <parameterid>textopacity</parameterid>
                <name>Text Opacity</name>
                <valuemin>0</valuemin>
                <valuemax>100</valuemax>
                <value>100</value>
              </parameter>
              <parameter>
                <parameterid>center</parameterid>
                <name>Center</name>
                <value>
                  <horiz>0</horiz>
                  <vert>0.4703703703703703</vert>
                </value>
              </parameter>
              <parameter>
                <parameterid>textcolor</parameterid>
                <name>Text Color</name>
                <value>
                  <alpha>255</alpha>
                  <red>255</red>
                  <green>255</green>
                  <blue>255</blue>
                </value>
              </parameter>
              <parameter>
                <parameterid>supertext</parameterid>
                <name>Text Graphic</name>
              </parameter>
              <parameter>
                <parameterid>linecolor</parameterid>
                <name>Line Color</name>
                <value>
                  <alpha>255</alpha>
                  <red>0</red>
                  <green>0</green>
                  <blue>0</blue>
                </value>
              </parameter>
              <parameter>
                <parameterid>superline</parameterid>
                <name>Line Graphic</name>
              </parameter>
              <parameter>
                <parameterid>part2</parameterid>
                <name>Background Settings</name>
              </parameter>
              <parameter>
                <parameterid>xscale</parameterid>
                <name>Horizontal Size</name>
                <valuemin>0</valuemin>
                <valuemax>200</valuemax>
                <value>0</value>
              </parameter>
              <parameter>
                <parameterid>yscale</parameterid>
                <name>Vertical Size</name>
                <valuemin>0</valuemin>
                <valuemax>200</valuemax>
                <value>0</value>
              </parameter>
              <parameter>
                <parameterid>xoffset</parameterid>
                <name>Horizontal Offset</name>
                <valuemin>-100</valuemin>
                <valuemax>100</valuemax>
                <value>0</value>
              </parameter>
              <parameter>
                <parameterid>yoffset</parameterid>
                <name>Vertical Offset</name>
                <valuemin>-100</valuemin>
                <valuemax>100</valuemax>
                <value>0</value>
              </parameter>
              <parameter>
                <parameterid>backsoft</parameterid>
                <name>Back Soft</name>
                <valuemin>0</valuemin>
                <valuemax>100</valuemax>
                <value>0</value>
              </parameter>
              <parameter>
                <parameterid>backopacity</parameterid>
                <name>Back Opacity</name>
                <valuemin>0</valuemin>
                <valuemax>100</valuemax>
                <value>50</value>
              </parameter>
              <parameter>
                <parameterid>backcolor</parameterid>
                <name>Back Color</name>
                <value>
                  <alpha>255</alpha>
                  <red>255</red>
                  <green>255</green>
                  <blue>255</blue>
                </value>
              </parameter>
              <parameter>
                <parameterid>superback</parameterid>
                <name>Back Graphic</name>
              </parameter>
              <parameter>
                <parameterid>crop</parameterid>
                <name>Crop</name>
                <value>false</value>
              </parameter>
              <parameter>
                <parameterid>autokern</parameterid>
                <name>Auto Kerning</name>
                <value>true</value>
              </parameter>
            </effect>
            <sourcetrack>
              <mediatype>video</mediatype>
            </sourcetrack>
          </generatoritem>
          <generatoritem id="Outline Text1">
            <name>いらっしゃいましたわ</name>
            <duration>22166.1117</duration>
            <rate>
              <timebase>30</timebase>
              <ntsc>true</ntsc>
            </rate>
            <start>9314.975700000015</start>
            <end>9333.557100000015</end>
            <in>9314.975700000015</in>
            <out>9333.557100000015</out>
            <enabled>true</enabled>
            <anamorphic>false</anamorphic>
            <alphatype>black</alphatype>
            <masterclipid>Outline Text1</masterclipid>
            <effect>
              <name>Outline Text</name>
              <effectid>Outline Text</effectid>
              <effectcategory>Text</effectcategory>
              <effecttype>generator</effecttype>
              <mediatype>video</mediatype>
              <parameter>
                <parameterid>part1</parameterid>
                <name>Text Settings</name>
                <value/>
              </parameter>
              <parameter>
                <parameterid>str</parameterid>
                <name>Text</name>
                <value>いらっしゃいましたわ</value>
              </parameter>
              <parameter>
                <parameterid>font</parameterid>
                <name>Font</name>
                <value>HiraginoSans-W6</value>
              </parameter>
              <parameter>
                <parameterid>style</parameterid>
                <name>Style</name>
                <valuemin>1</valuemin>
                <valuemax>1</valuemax>
                <valuelist>
                  <valueentry>
                    <name>Regular</name>
                    <value>1</value>
                  </valueentry>
                </valuelist>
                <value>1</value>
              </parameter>
              <parameter>
                <parameterid>align</parameterid>
                <name>Alignment</name>
                <valuemin>1</valuemin>
                <valuemax>3</valuemax>
                <valuelist>
                  <valueentry>
                    <name>Left</name>
                    <value>1</value>
                  </valueentry>
                  <valueentry>
                    <name>Center</name>
                    <value>2</value>
                  </valueentry>
                  <valueentry>
                    <name>Right</name>
                    <value>3</value>
                  </valueentry>
                </valuelist>
                <value>2</value>
              </parameter>
              <parameter>
                <parameterid>size</parameterid>
                <name>Size</name>
                <valuemin>0</valuemin>
                <valuemax>200</valuemax>
                <value>24</value>
              </parameter>
              <parameter>
                <parameterid>track</parameterid>
                <name>Tracking</name>
                <valuemin>0</valuemin>
                <valuemax>100</valuemax>
                <value>1</value>
              </parameter>
              <parameter>
                <parameterid>lead</parameterid>
                <name>Leading</name>
                <valuemin>-100</valuemin>
                <valuemax>100</valuemax>
                <value>0</value>
              </parameter>
              <parameter>
                <parameterid>aspect</parameterid>
                <name>Aspect</name>
                <valuemin>0</valuemin>
                <valuemax>4</valuemax>
                <value>1</value>
              </parameter>
              <parameter>
                <parameterid>linewidth</parameterid>
                <name>Line Width</name>
                <valuemin>0</valuemin>
                <valuemax>200</valuemax>
                <value>2</value>
              </parameter>
              <parameter>
                <parameterid>linesoft</parameterid>
                <name>Line Softness</name>
                <valuemin>0</valuemin>
                <valuemax>100</valuemax>
                <value>5</value>
              </parameter>
              <parameter>
                <parameterid>textopacity</parameterid>
                <name>Text Opacity</name>
                <valuemin>0</valuemin>
                <valuemax>100</valuemax>
                <value>100</value>
              </parameter>
              <parameter>
                <parameterid>center</parameterid>
                <name>Center</name>
                <value>
                  <horiz>0</horiz>
                  <vert>0.4703703703703703</vert>
                </value>
              </parameter>
              <parameter>
                <parameterid>textcolor</parameterid>
                <name>Text Color</name>
                <value>
                  <alpha>255</alpha>
                  <red>255</red>
                  <green>255</green>
                  <blue>255</blue>
                </value>
              </parameter>
              <parameter>
                <parameterid>supertext</parameterid>
                <name>Text Graphic</name>
              </parameter>
              <parameter>
                <parameterid>linecolor</parameterid>
                <name>Line Color</name>
                <value>
                  <alpha>255</alpha>
                  <red>0</red>
                  <green>0</green>
                  <blue>0</blue>
                </value>
              </parameter>
              <parameter>
                <parameterid>superline</parameterid>
                <name>Line Graphic</name>
              </parameter>
              <parameter>
                <parameterid>part2</parameterid>
                <name>Background Settings</name>
              </parameter>
              <parameter>
                <parameterid>xscale</parameterid>
                <name>Horizontal Size</name>
                <valuemin>0</valuemin>
                <valuemax>200</valuemax>
                <value>0</value>
              </parameter>
              <parameter>
                <parameterid>yscale</parameterid>
                <name>Vertical Size</name>
                <valuemin>0</valuemin>
                <valuemax>200</valuemax>
                <value>0</value>
              </parameter>
              <parameter>
                <parameterid>xoffset</parameterid>
                <name>Horizontal Offset</name>
                <valuemin>-100</valuemin>
                <valuemax>100</valuemax>
                <value>0</value>
              </parameter>
              <parameter>
                <parameterid>yoffset</parameterid>
                <name>Vertical Offset</name>
                <valuemin>-100</valuemin>
                <valuemax>100</valuemax>
                <value>0</value>
              </parameter>
              <parameter>
                <parameterid>backsoft</parameterid>
                <name>Back Soft</name>
                <valuemin>0</valuemin>
                <valuemax>100</valuemax>
                <value>0</value>
              </parameter>
              <parameter>
                <parameterid>backopacity</parameterid>
                <name>Back Opacity</name>
                <valuemin>0</valuemin>
                <valuemax>100</valuemax>
                <value>50</value>
              </parameter>
              <parameter>
                <parameterid>backcolor</parameterid>
                <name>Back Color</name>
                <value>
                  <alpha>255</alpha>
                  <red>255</red>
                  <green>255</green>
                  <blue>255</blue>
                </value>
              </parameter>
              <parameter>
                <parameterid>superback</parameterid>
                <name>Back Graphic</name>
              </parameter>
              <parameter>
                <parameterid>crop</parameterid>
                <name>Crop</name>
                <value>false</value>
              </parameter>
              <parameter>
                <parameterid>autokern</parameterid>
                <name>Auto Kerning</name>
                <value>true</value>
              </parameter>
            </effect>
            <sourcetrack>
              <mediatype>video</mediatype>
            </sourcetrack>
          </generatoritem>
          <generatoritem id="Outline Text1">
            <name>お世話になっております</name>
            <duration>22166.1117</duration>
            <rate>
              <timebase>30</timebase>
              <ntsc>true</ntsc>
            </rate>
            <start>9333.557100000015</start>
            <end>9369.820800000016</end>
            <in>9333.557100000015</in>
            <out>9369.820800000016</out>
            <enabled>true</enabled>
            <anamorphic>false</anamorphic>
            <alphatype>black</alphatype>
            <masterclipid>Outline Text1</masterclipid>
            <effect>
              <name>Outline Text</name>
              <effectid>Outline Text</effectid>
              <effectcategory>Text</effectcategory>
              <effecttype>generator</effecttype>
              <mediatype>video</mediatype>
              <parameter>
                <parameterid>part1</parameterid>
                <name>Text Settings</name>
                <value/>
              </parameter>
              <parameter>
                <parameterid>str</parameterid>
                <name>Text</name>
                <value>お世話になっております</value>
              </parameter>
              <parameter>
                <parameterid>font</parameterid>
                <name>Font</name>
                <value>HiraginoSans-W6</value>
              </parameter>
              <parameter>
                <parameterid>style</parameterid>
                <name>Style</name>
                <valuemin>1</valuemin>
                <valuemax>1</valuemax>
                <valuelist>
                  <valueentry>
                    <name>Regular</name>
                    <value>1</value>
                  </valueentry>
                </valuelist>
                <value>1</value>
              </parameter>
              <parameter>
                <parameterid>align</parameterid>
                <name>Alignment</name>
                <valuemin>1</valuemin>
                <valuemax>3</valuemax>
                <valuelist>
                  <valueentry>
                    <name>Left</name>
                    <value>1</value>
                  </valueentry>
                  <valueentry>
                    <name>Center</name>
                    <value>2</value>
                  </valueentry>
                  <valueentry>
                    <name>Right</name>
                    <value>3</value>
                  </valueentry>
                </valuelist>
                <value>2</value>
              </parameter>
              <parameter>
                <parameterid>size</parameterid>
                <name>Size</name>
                <valuemin>0</valuemin>
                <valuemax>200</valuemax>
                <value>24</value>
              </parameter>
              <parameter>
                <parameterid>track</parameterid>
                <name>Tracking</name>
                <valuemin>0</valuemin>
                <valuemax>100</valuemax>
                <value>1</value>
              </parameter>
              <parameter>
                <parameterid>lead</parameterid>
                <name>Leading</name>
                <valuemin>-100</valuemin>
                <valuemax>100</valuemax>
                <value>0</value>
              </parameter>
              <parameter>
                <parameterid>aspect</parameterid>
                <name>Aspect</name>
                <valuemin>0</valuemin>
                <valuemax>4</valuemax>
                <value>1</value>
              </parameter>
              <parameter>
                <parameterid>linewidth</parameterid>
                <name>Line Width</name>
                <valuemin>0</valuemin>
                <valuemax>200</valuemax>
                <value>2</value>
              </parameter>
              <parameter>
                <parameterid>linesoft</parameterid>
                <name>Line Softness</name>
                <valuemin>0</valuemin>
                <valuemax>100</valuemax>
                <value>5</value>
              </parameter>
              <parameter>
                <parameterid>textopacity</parameterid>
                <name>Text Opacity</name>
                <valuemin>0</valuemin>
                <valuemax>100</valuemax>
                <value>100</value>
              </parameter>
              <parameter>
                <parameterid>center</parameterid>
                <name>Center</name>
                <value>
                  <horiz>0</horiz>
                  <vert>0.4703703703703703</vert>
                </value>
              </parameter>
              <parameter>
                <parameterid>textcolor</parameterid>
                <name>Text Color</name>
                <value>
                  <alpha>255</alpha>
                  <red>255</red>
                  <green>255</green>
                  <blue>255</blue>
                </value>
              </parameter>
              <parameter>
                <parameterid>supertext</parameterid>
                <name>Text Graphic</name>
              </parameter>
              <parameter>
                <parameterid>linecolor</parameterid>
                <name>Line Color</name>
                <value>
                  <alpha>255</alpha>
                  <red>0</red>
                  <green>0</green>
                  <blue>0</blue>
                </value>
              </parameter>
              <parameter>
                <parameterid>superline</parameterid>
                <name>Line Graphic</name>
              </parameter>
              <parameter>
                <parameterid>part2</parameterid>
                <name>Background Settings</name>
              </parameter>
              <parameter>
                <parameterid>xscale</parameterid>
                <name>Horizontal Size</name>
                <valuemin>0</valuemin>
                <valuemax>200</valuemax>
                <value>0</value>
              </parameter>
              <parameter>
                <parameterid>yscale</parameterid>
                <name>Vertical Size</name>
                <valuemin>0</valuemin>
                <valuemax>200</valuemax>
                <value>0</value>
              </parameter>
              <parameter>
                <parameterid>xoffset</parameterid>
                <name>Horizontal Offset</name>
                <valuemin>-100</valuemin>
                <valuemax>100</valuemax>
                <value>0</value>
              </parameter>
              <parameter>
                <parameterid>yoffset</parameterid>
                <name>Vertical Offset</name>
                <valuemin>-100</valuemin>
                <valuemax>100</valuemax>
                <value>0</value>
              </parameter>
              <parameter>
                <parameterid>backsoft</parameterid>
                <name>Back Soft</name>
                <valuemin>0</valuemin>
                <valuemax>100</valuemax>
                <value>0</value>
              </parameter>
              <parameter>
                <parameterid>backopacity</parameterid>
                <name>Back Opacity</name>
                <valuemin>0</valuemin>
                <valuemax>100</valuemax>
                <value>50</value>
              </parameter>
              <parameter>
                <parameterid>backcolor</parameterid>
                <name>Back Color</name>
                <value>
                  <alpha>255</alpha>
                  <red>255</red>
                  <green>255</green>
                  <blue>255</blue>
                </value>
              </parameter>
              <parameter>
                <parameterid>superback</parameterid>
                <name>Back Graphic</name>
              </parameter>
              <parameter>
                <parameterid>crop</parameterid>
                <name>Crop</name>
                <value>false</value>
              </parameter>
              <parameter>
                <parameterid>autokern</parameterid>
                <name>Auto Kerning</name>
                <value>true</value>
              </parameter>
            </effect>
            <sourcetrack>
              <mediatype>video</mediatype>
            </sourcetrack>
          </generatoritem>
          <generatoritem id="Outline Text1">
            <name>恵比寿様恵比寿様でーすエビス様でーす</name>
            <duration>22166.1117</duration>
            <rate>
              <timebase>30</timebase>
              <ntsc>true</ntsc>
            </rate>
            <start>9369.820800000016</start>
            <end>10016.273700000014</end>
            <in>9369.820800000016</in>
            <out>10016.273700000014</out>
            <enabled>true</enabled>
            <anamorphic>false</anamorphic>
            <alphatype>black</alphatype>
            <masterclipid>Outline Text1</masterclipid>
            <effect>
              <name>Outline Text</name>
              <effectid>Outline Text</effectid>
              <effectcategory>Text</effectcategory>
              <effecttype>generator</effecttype>
              <mediatype>video</mediatype>
              <parameter>
                <parameterid>part1</parameterid>
                <name>Text Settings</name>
                <value/>
              </parameter>
              <parameter>
                <parameterid>str</parameterid>
                <name>Text</name>
                <value>恵比寿様恵比寿様でーすエビス様でーす</value>
              </parameter>
              <parameter>
                <parameterid>font</parameterid>
                <name>Font</name>
                <value>HiraginoSans-W6</value>
              </parameter>
              <parameter>
                <parameterid>style</parameterid>
                <name>Style</name>
                <valuemin>1</valuemin>
                <valuemax>1</valuemax>
                <valuelist>
                  <valueentry>
                    <name>Regular</name>
                    <value>1</value>
                  </valueentry>
                </valuelist>
                <value>1</value>
              </parameter>
              <parameter>
                <parameterid>align</parameterid>
                <name>Alignment</name>
                <valuemin>1</valuemin>
                <valuemax>3</valuemax>
                <valuelist>
                  <valueentry>
                    <name>Left</name>
                    <value>1</value>
                  </valueentry>
                  <valueentry>
                    <name>Center</name>
                    <value>2</value>
                  </valueentry>
                  <valueentry>
                    <name>Right</name>
                    <value>3</value>
                  </valueentry>
                </valuelist>
                <value>2</value>
              </parameter>
              <parameter>
                <parameterid>size</parameterid>
                <name>Size</name>
                <valuemin>0</valuemin>
                <valuemax>200</valuemax>
                <value>24</value>
              </parameter>
              <parameter>
                <parameterid>track</parameterid>
                <name>Tracking</name>
                <valuemin>0</valuemin>
                <valuemax>100</valuemax>
                <value>1</value>
              </parameter>
              <parameter>
                <parameterid>lead</parameterid>
                <name>Leading</name>
                <valuemin>-100</valuemin>
                <valuemax>100</valuemax>
                <value>0</value>
              </parameter>
              <parameter>
                <parameterid>aspect</parameterid>
                <name>Aspect</name>
                <valuemin>0</valuemin>
                <valuemax>4</valuemax>
                <value>1</value>
              </parameter>
              <parameter>
                <parameterid>linewidth</parameterid>
                <name>Line Width</name>
                <valuemin>0</valuemin>
                <valuemax>200</valuemax>
                <value>2</value>
              </parameter>
              <parameter>
                <parameterid>linesoft</parameterid>
                <name>Line Softness</name>
                <valuemin>0</valuemin>
                <valuemax>100</valuemax>
                <value>5</value>
              </parameter>
              <parameter>
                <parameterid>textopacity</parameterid>
                <name>Text Opacity</name>
                <valuemin>0</valuemin>
                <valuemax>100</valuemax>
                <value>100</value>
              </parameter>
              <parameter>
                <parameterid>center</parameterid>
                <name>Center</name>
                <value>
                  <horiz>0</horiz>
                  <vert>0.4703703703703703</vert>
                </value>
              </parameter>
              <parameter>
                <parameterid>textcolor</parameterid>
                <name>Text Color</name>
                <value>
                  <alpha>255</alpha>
                  <red>255</red>
                  <green>255</green>
                  <blue>255</blue>
                </value>
              </parameter>
              <parameter>
                <parameterid>supertext</parameterid>
                <name>Text Graphic</name>
              </parameter>
              <parameter>
                <parameterid>linecolor</parameterid>
                <name>Line Color</name>
                <value>
                  <alpha>255</alpha>
                  <red>0</red>
                  <green>0</green>
                  <blue>0</blue>
                </value>
              </parameter>
              <parameter>
                <parameterid>superline</parameterid>
                <name>Line Graphic</name>
              </parameter>
              <parameter>
                <parameterid>part2</parameterid>
                <name>Background Settings</name>
              </parameter>
              <parameter>
                <parameterid>xscale</parameterid>
                <name>Horizontal Size</name>
                <valuemin>0</valuemin>
                <valuemax>200</valuemax>
                <value>0</value>
              </parameter>
              <parameter>
                <parameterid>yscale</parameterid>
                <name>Vertical Size</name>
                <valuemin>0</valuemin>
                <valuemax>200</valuemax>
                <value>0</value>
              </parameter>
              <parameter>
                <parameterid>xoffset</parameterid>
                <name>Horizontal Offset</name>
                <valuemin>-100</valuemin>
                <valuemax>100</valuemax>
                <value>0</value>
              </parameter>
              <parameter>
                <parameterid>yoffset</parameterid>
                <name>Vertical Offset</name>
                <valuemin>-100</valuemin>
                <valuemax>100</valuemax>
                <value>0</value>
              </parameter>
              <parameter>
                <parameterid>backsoft</parameterid>
                <name>Back Soft</name>
                <valuemin>0</valuemin>
                <valuemax>100</valuemax>
                <value>0</value>
              </parameter>
              <parameter>
                <parameterid>backopacity</parameterid>
                <name>Back Opacity</name>
                <valuemin>0</valuemin>
                <valuemax>100</valuemax>
                <value>50</value>
              </parameter>
              <parameter>
                <parameterid>backcolor</parameterid>
                <name>Back Color</name>
                <value>
                  <alpha>255</alpha>
                  <red>255</red>
                  <green>255</green>
                  <blue>255</blue>
                </value>
              </parameter>
              <parameter>
                <parameterid>superback</parameterid>
                <name>Back Graphic</name>
              </parameter>
              <parameter>
                <parameterid>crop</parameterid>
                <name>Crop</name>
                <value>false</value>
              </parameter>
              <parameter>
                <parameterid>autokern</parameterid>
                <name>Auto Kerning</name>
                <value>true</value>
              </parameter>
            </effect>
            <sourcetrack>
              <mediatype>video</mediatype>
            </sourcetrack>
          </generatoritem>
          <generatoritem id="Outline Text1">
            <name>エビス様バイバーイエビツーさんはさエビス中学さんだから</name>
            <duration>22166.1117</duration>
            <rate>
              <timebase>30</timebase>
              <ntsc>true</ntsc>
            </rate>
            <start>10016.273700000014</start>
            <end>10212.876900000014</end>
            <in>10016.273700000014</in>
            <out>10212.876900000014</out>
            <enabled>true</enabled>
            <anamorphic>false</anamorphic>
            <alphatype>black</alphatype>
            <masterclipid>Outline Text1</masterclipid>
            <effect>
              <name>Outline Text</name>
              <effectid>Outline Text</effectid>
              <effectcategory>Text</effectcategory>
              <effecttype>generator</effecttype>
              <mediatype>video</mediatype>
              <parameter>
                <parameterid>part1</parameterid>
                <name>Text Settings</name>
                <value/>
              </parameter>
              <parameter>
                <parameterid>str</parameterid>
                <name>Text</name>
                <value>エビス様バイバーイエビツーさんはさエビス中学さんだから</value>
              </parameter>
              <parameter>
                <parameterid>font</parameterid>
                <name>Font</name>
                <value>HiraginoSans-W6</value>
              </parameter>
              <parameter>
                <parameterid>style</parameterid>
                <name>Style</name>
                <valuemin>1</valuemin>
                <valuemax>1</valuemax>
                <valuelist>
                  <valueentry>
                    <name>Regular</name>
                    <value>1</value>
                  </valueentry>
                </valuelist>
                <value>1</value>
              </parameter>
              <parameter>
                <parameterid>align</parameterid>
                <name>Alignment</name>
                <valuemin>1</valuemin>
                <valuemax>3</valuemax>
                <valuelist>
                  <valueentry>
                    <name>Left</name>
                    <value>1</value>
                  </valueentry>
                  <valueentry>
                    <name>Center</name>
                    <value>2</value>
                  </valueentry>
                  <valueentry>
                    <name>Right</name>
                    <value>3</value>
                  </valueentry>
                </valuelist>
                <value>2</value>
              </parameter>
              <parameter>
                <parameterid>size</parameterid>
                <name>Size</name>
                <valuemin>0</valuemin>
                <valuemax>200</valuemax>
                <value>24</value>
              </parameter>
              <parameter>
                <parameterid>track</parameterid>
                <name>Tracking</name>
                <valuemin>0</valuemin>
                <valuemax>100</valuemax>
                <value>1</value>
              </parameter>
              <parameter>
                <parameterid>lead</parameterid>
                <name>Leading</name>
                <valuemin>-100</valuemin>
                <valuemax>100</valuemax>
                <value>0</value>
              </parameter>
              <parameter>
                <parameterid>aspect</parameterid>
                <name>Aspect</name>
                <valuemin>0</valuemin>
                <valuemax>4</valuemax>
                <value>1</value>
              </parameter>
              <parameter>
                <parameterid>linewidth</parameterid>
                <name>Line Width</name>
                <valuemin>0</valuemin>
                <valuemax>200</valuemax>
                <value>2</value>
              </parameter>
              <parameter>
                <parameterid>linesoft</parameterid>
                <name>Line Softness</name>
                <valuemin>0</valuemin>
                <valuemax>100</valuemax>
                <value>5</value>
              </parameter>
              <parameter>
                <parameterid>textopacity</parameterid>
                <name>Text Opacity</name>
                <valuemin>0</valuemin>
                <valuemax>100</valuemax>
                <value>100</value>
              </parameter>
              <parameter>
                <parameterid>center</parameterid>
                <name>Center</name>
                <value>
                  <horiz>0</horiz>
                  <vert>0.4703703703703703</vert>
                </value>
              </parameter>
              <parameter>
                <parameterid>textcolor</parameterid>
                <name>Text Color</name>
                <value>
                  <alpha>255</alpha>
                  <red>255</red>
                  <green>255</green>
                  <blue>255</blue>
                </value>
              </parameter>
              <parameter>
                <parameterid>supertext</parameterid>
                <name>Text Graphic</name>
              </parameter>
              <parameter>
                <parameterid>linecolor</parameterid>
                <name>Line Color</name>
                <value>
                  <alpha>255</alpha>
                  <red>0</red>
                  <green>0</green>
                  <blue>0</blue>
                </value>
              </parameter>
              <parameter>
                <parameterid>superline</parameterid>
                <name>Line Graphic</name>
              </parameter>
              <parameter>
                <parameterid>part2</parameterid>
                <name>Background Settings</name>
              </parameter>
              <parameter>
                <parameterid>xscale</parameterid>
                <name>Horizontal Size</name>
                <valuemin>0</valuemin>
                <valuemax>200</valuemax>
                <value>0</value>
              </parameter>
              <parameter>
                <parameterid>yscale</parameterid>
                <name>Vertical Size</name>
                <valuemin>0</valuemin>
                <valuemax>200</valuemax>
                <value>0</value>
              </parameter>
              <parameter>
                <parameterid>xoffset</parameterid>
                <name>Horizontal Offset</name>
                <valuemin>-100</valuemin>
                <valuemax>100</valuemax>
                <value>0</value>
              </parameter>
              <parameter>
                <parameterid>yoffset</parameterid>
                <name>Vertical Offset</name>
                <valuemin>-100</valuemin>
                <valuemax>100</valuemax>
                <value>0</value>
              </parameter>
              <parameter>
                <parameterid>backsoft</parameterid>
                <name>Back Soft</name>
                <valuemin>0</valuemin>
                <valuemax>100</valuemax>
                <value>0</value>
              </parameter>
              <parameter>
                <parameterid>backopacity</parameterid>
                <name>Back Opacity</name>
                <valuemin>0</valuemin>
                <valuemax>100</valuemax>
                <value>50</value>
              </parameter>
              <parameter>
                <parameterid>backcolor</parameterid>
                <name>Back Color</name>
                <value>
                  <alpha>255</alpha>
                  <red>255</red>
                  <green>255</green>
                  <blue>255</blue>
                </value>
              </parameter>
              <parameter>
                <parameterid>superback</parameterid>
                <name>Back Graphic</name>
              </parameter>
              <parameter>
                <parameterid>crop</parameterid>
                <name>Crop</name>
                <value>false</value>
              </parameter>
              <parameter>
                <parameterid>autokern</parameterid>
                <name>Auto Kerning</name>
                <value>true</value>
              </parameter>
            </effect>
            <sourcetrack>
              <mediatype>video</mediatype>
            </sourcetrack>
          </generatoritem>
          <generatoritem id="Outline Text1">
            <name>エビス像の前で撮ってるってこと?</name>
            <duration>22166.1117</duration>
            <rate>
              <timebase>30</timebase>
              <ntsc>true</ntsc>
            </rate>
            <start>10212.876900000014</start>
            <end>10277.012700000012</end>
            <in>10212.876900000014</in>
            <out>10277.012700000012</out>
            <enabled>true</enabled>
            <anamorphic>false</anamorphic>
            <alphatype>black</alphatype>
            <masterclipid>Outline Text1</masterclipid>
            <effect>
              <name>Outline Text</name>
              <effectid>Outline Text</effectid>
              <effectcategory>Text</effectcategory>
              <effecttype>generator</effecttype>
              <mediatype>video</mediatype>
              <parameter>
                <parameterid>part1</parameterid>
                <name>Text Settings</name>
                <value/>
              </parameter>
              <parameter>
                <parameterid>str</parameterid>
                <name>Text</name>
                <value>エビス像の前で撮ってるってこと?</value>
              </parameter>
              <parameter>
                <parameterid>font</parameterid>
                <name>Font</name>
                <value>HiraginoSans-W6</value>
              </parameter>
              <parameter>
                <parameterid>style</parameterid>
                <name>Style</name>
                <valuemin>1</valuemin>
                <valuemax>1</valuemax>
                <valuelist>
                  <valueentry>
                    <name>Regular</name>
                    <value>1</value>
                  </valueentry>
                </valuelist>
                <value>1</value>
              </parameter>
              <parameter>
                <parameterid>align</parameterid>
                <name>Alignment</name>
                <valuemin>1</valuemin>
                <valuemax>3</valuemax>
                <valuelist>
                  <valueentry>
                    <name>Left</name>
                    <value>1</value>
                  </valueentry>
                  <valueentry>
                    <name>Center</name>
                    <value>2</value>
                  </valueentry>
                  <valueentry>
                    <name>Right</name>
                    <value>3</value>
                  </valueentry>
                </valuelist>
                <value>2</value>
              </parameter>
              <parameter>
                <parameterid>size</parameterid>
                <name>Size</name>
                <valuemin>0</valuemin>
                <valuemax>200</valuemax>
                <value>24</value>
              </parameter>
              <parameter>
                <parameterid>track</parameterid>
                <name>Tracking</name>
                <valuemin>0</valuemin>
                <valuemax>100</valuemax>
                <value>1</value>
              </parameter>
              <parameter>
                <parameterid>lead</parameterid>
                <name>Leading</name>
                <valuemin>-100</valuemin>
                <valuemax>100</valuemax>
                <value>0</value>
              </parameter>
              <parameter>
                <parameterid>aspect</parameterid>
                <name>Aspect</name>
                <valuemin>0</valuemin>
                <valuemax>4</valuemax>
                <value>1</value>
              </parameter>
              <parameter>
                <parameterid>linewidth</parameterid>
                <name>Line Width</name>
                <valuemin>0</valuemin>
                <valuemax>200</valuemax>
                <value>2</value>
              </parameter>
              <parameter>
                <parameterid>linesoft</parameterid>
                <name>Line Softness</name>
                <valuemin>0</valuemin>
                <valuemax>100</valuemax>
                <value>5</value>
              </parameter>
              <parameter>
                <parameterid>textopacity</parameterid>
                <name>Text Opacity</name>
                <valuemin>0</valuemin>
                <valuemax>100</valuemax>
                <value>100</value>
              </parameter>
              <parameter>
                <parameterid>center</parameterid>
                <name>Center</name>
                <value>
                  <horiz>0</horiz>
                  <vert>0.4703703703703703</vert>
                </value>
              </parameter>
              <parameter>
                <parameterid>textcolor</parameterid>
                <name>Text Color</name>
                <value>
                  <alpha>255</alpha>
                  <red>255</red>
                  <green>255</green>
                  <blue>255</blue>
                </value>
              </parameter>
              <parameter>
                <parameterid>supertext</parameterid>
                <name>Text Graphic</name>
              </parameter>
              <parameter>
                <parameterid>linecolor</parameterid>
                <name>Line Color</name>
                <value>
                  <alpha>255</alpha>
                  <red>0</red>
                  <green>0</green>
                  <blue>0</blue>
                </value>
              </parameter>
              <parameter>
                <parameterid>superline</parameterid>
                <name>Line Graphic</name>
              </parameter>
              <parameter>
                <parameterid>part2</parameterid>
                <name>Background Settings</name>
              </parameter>
              <parameter>
                <parameterid>xscale</parameterid>
                <name>Horizontal Size</name>
                <valuemin>0</valuemin>
                <valuemax>200</valuemax>
                <value>0</value>
              </parameter>
              <parameter>
                <parameterid>yscale</parameterid>
                <name>Vertical Size</name>
                <valuemin>0</valuemin>
                <valuemax>200</valuemax>
                <value>0</value>
              </parameter>
              <parameter>
                <parameterid>xoffset</parameterid>
                <name>Horizontal Offset</name>
                <valuemin>-100</valuemin>
                <valuemax>100</valuemax>
                <value>0</value>
              </parameter>
              <parameter>
                <parameterid>yoffset</parameterid>
                <name>Vertical Offset</name>
                <valuemin>-100</valuemin>
                <valuemax>100</valuemax>
                <value>0</value>
              </parameter>
              <parameter>
                <parameterid>backsoft</parameterid>
                <name>Back Soft</name>
                <valuemin>0</valuemin>
                <valuemax>100</valuemax>
                <value>0</value>
              </parameter>
              <parameter>
                <parameterid>backopacity</parameterid>
                <name>Back Opacity</name>
                <valuemin>0</valuemin>
                <valuemax>100</valuemax>
                <value>50</value>
              </parameter>
              <parameter>
                <parameterid>backcolor</parameterid>
                <name>Back Color</name>
                <value>
                  <alpha>255</alpha>
                  <red>255</red>
                  <green>255</green>
                  <blue>255</blue>
                </value>
              </parameter>
              <parameter>
                <parameterid>superback</parameterid>
                <name>Back Graphic</name>
              </parameter>
              <parameter>
                <parameterid>crop</parameterid>
                <name>Crop</name>
                <value>false</value>
              </parameter>
              <parameter>
                <parameterid>autokern</parameterid>
                <name>Auto Kerning</name>
                <value>true</value>
              </parameter>
            </effect>
            <sourcetrack>
              <mediatype>video</mediatype>
            </sourcetrack>
          </generatoritem>
          <generatoritem id="Outline Text1">
            <name>私たちはどこで撮ったらいいの?</name>
            <duration>22166.1117</duration>
            <rate>
              <timebase>30</timebase>
              <ntsc>true</ntsc>
            </rate>
            <start>10277.012700000012</start>
            <end>10407.08250000001</end>
            <in>10277.012700000012</in>
            <out>10407.08250000001</out>
            <enabled>true</enabled>
            <anamorphic>false</anamorphic>
            <alphatype>black</alphatype>
            <masterclipid>Outline Text1</masterclipid>
            <effect>
              <name>Outline Text</name>
              <effectid>Outline Text</effectid>
              <effectcategory>Text</effectcategory>
              <effecttype>generator</effecttype>
              <mediatype>video</mediatype>
              <parameter>
                <parameterid>part1</parameterid>
                <name>Text Settings</name>
                <value/>
              </parameter>
              <parameter>
                <parameterid>str</parameterid>
                <name>Text</name>
                <value>私たちはどこで撮ったらいいの?</value>
              </parameter>
              <parameter>
                <parameterid>font</parameterid>
                <name>Font</name>
                <value>HiraginoSans-W6</value>
              </parameter>
              <parameter>
                <parameterid>style</parameterid>
                <name>Style</name>
                <valuemin>1</valuemin>
                <valuemax>1</valuemax>
                <valuelist>
                  <valueentry>
                    <name>Regular</name>
                    <value>1</value>
                  </valueentry>
                </valuelist>
                <value>1</value>
              </parameter>
              <parameter>
                <parameterid>align</parameterid>
                <name>Alignment</name>
                <valuemin>1</valuemin>
                <valuemax>3</valuemax>
                <valuelist>
                  <valueentry>
                    <name>Left</name>
                    <value>1</value>
                  </valueentry>
                  <valueentry>
                    <name>Center</name>
                    <value>2</value>
                  </valueentry>
                  <valueentry>
                    <name>Right</name>
                    <value>3</value>
                  </valueentry>
                </valuelist>
                <value>2</value>
              </parameter>
              <parameter>
                <parameterid>size</parameterid>
                <name>Size</name>
                <valuemin>0</valuemin>
                <valuemax>200</valuemax>
                <value>24</value>
              </parameter>
              <parameter>
                <parameterid>track</parameterid>
                <name>Tracking</name>
                <valuemin>0</valuemin>
                <valuemax>100</valuemax>
                <value>1</value>
              </parameter>
              <parameter>
                <parameterid>lead</parameterid>
                <name>Leading</name>
                <valuemin>-100</valuemin>
                <valuemax>100</valuemax>
                <value>0</value>
              </parameter>
              <parameter>
                <parameterid>aspect</parameterid>
                <name>Aspect</name>
                <valuemin>0</valuemin>
                <valuemax>4</valuemax>
                <value>1</value>
              </parameter>
              <parameter>
                <parameterid>linewidth</parameterid>
                <name>Line Width</name>
                <valuemin>0</valuemin>
                <valuemax>200</valuemax>
                <value>2</value>
              </parameter>
              <parameter>
                <parameterid>linesoft</parameterid>
                <name>Line Softness</name>
                <valuemin>0</valuemin>
                <valuemax>100</valuemax>
                <value>5</value>
              </parameter>
              <parameter>
                <parameterid>textopacity</parameterid>
                <name>Text Opacity</name>
                <valuemin>0</valuemin>
                <valuemax>100</valuemax>
                <value>100</value>
              </parameter>
              <parameter>
                <parameterid>center</parameterid>
                <name>Center</name>
                <value>
                  <horiz>0</horiz>
                  <vert>0.4703703703703703</vert>
                </value>
              </parameter>
              <parameter>
                <parameterid>textcolor</parameterid>
                <name>Text Color</name>
                <value>
                  <alpha>255</alpha>
                  <red>255</red>
                  <green>255</green>
                  <blue>255</blue>
                </value>
              </parameter>
              <parameter>
                <parameterid>supertext</parameterid>
                <name>Text Graphic</name>
              </parameter>
              <parameter>
                <parameterid>linecolor</parameterid>
                <name>Line Color</name>
                <value>
                  <alpha>255</alpha>
                  <red>0</red>
                  <green>0</green>
                  <blue>0</blue>
                </value>
              </parameter>
              <parameter>
                <parameterid>superline</parameterid>
                <name>Line Graphic</name>
              </parameter>
              <parameter>
                <parameterid>part2</parameterid>
                <name>Background Settings</name>
              </parameter>
              <parameter>
                <parameterid>xscale</parameterid>
                <name>Horizontal Size</name>
                <valuemin>0</valuemin>
                <valuemax>200</valuemax>
                <value>0</value>
              </parameter>
              <parameter>
                <parameterid>yscale</parameterid>
                <name>Vertical Size</name>
                <valuemin>0</valuemin>
                <valuemax>200</valuemax>
                <value>0</value>
              </parameter>
              <parameter>
                <parameterid>xoffset</parameterid>
                <name>Horizontal Offset</name>
                <valuemin>-100</valuemin>
                <valuemax>100</valuemax>
                <value>0</value>
              </parameter>
              <parameter>
                <parameterid>yoffset</parameterid>
                <name>Vertical Offset</name>
                <valuemin>-100</valuemin>
                <valuemax>100</valuemax>
                <value>0</value>
              </parameter>
              <parameter>
                <parameterid>backsoft</parameterid>
                <name>Back Soft</name>
                <valuemin>0</valuemin>
                <valuemax>100</valuemax>
                <value>0</value>
              </parameter>
              <parameter>
                <parameterid>backopacity</parameterid>
                <name>Back Opacity</name>
                <valuemin>0</valuemin>
                <valuemax>100</valuemax>
                <value>50</value>
              </parameter>
              <parameter>
                <parameterid>backcolor</parameterid>
                <name>Back Color</name>
                <value>
                  <alpha>255</alpha>
                  <red>255</red>
                  <green>255</green>
                  <blue>255</blue>
                </value>
              </parameter>
              <parameter>
                <parameterid>superback</parameterid>
                <name>Back Graphic</name>
              </parameter>
              <parameter>
                <parameterid>crop</parameterid>
                <name>Crop</name>
                <value>false</value>
              </parameter>
              <parameter>
                <parameterid>autokern</parameterid>
                <name>Auto Kerning</name>
                <value>true</value>
              </parameter>
            </effect>
            <sourcetrack>
              <mediatype>video</mediatype>
            </sourcetrack>
          </generatoritem>
          <generatoritem id="Outline Text1">
            <name>ラブユーゾー愛の神社?</name>
            <duration>22166.1117</duration>
            <rate>
              <timebase>30</timebase>
              <ntsc>true</ntsc>
            </rate>
            <start>10407.08250000001</start>
            <end>10460.129400000007</end>
            <in>10407.08250000001</in>
            <out>10460.129400000007</out>
            <enabled>true</enabled>
            <anamorphic>false</anamorphic>
            <alphatype>black</alphatype>
            <masterclipid>Outline Text1</masterclipid>
            <effect>
              <name>Outline Text</name>
              <effectid>Outline Text</effectid>
              <effectcategory>Text</effectcategory>
              <effecttype>generator</effecttype>
              <mediatype>video</mediatype>
              <parameter>
                <parameterid>part1</parameterid>
                <name>Text Settings</name>
                <value/>
              </parameter>
              <parameter>
                <parameterid>str</parameterid>
                <name>Text</name>
                <value>ラブユーゾー愛の神社?</value>
              </parameter>
              <parameter>
                <parameterid>font</parameterid>
                <name>Font</name>
                <value>HiraginoSans-W6</value>
              </parameter>
              <parameter>
                <parameterid>style</parameterid>
                <name>Style</name>
                <valuemin>1</valuemin>
                <valuemax>1</valuemax>
                <valuelist>
                  <valueentry>
                    <name>Regular</name>
                    <value>1</value>
                  </valueentry>
                </valuelist>
                <value>1</value>
              </parameter>
              <parameter>
                <parameterid>align</parameterid>
                <name>Alignment</name>
                <valuemin>1</valuemin>
                <valuemax>3</valuemax>
                <valuelist>
                  <valueentry>
                    <name>Left</name>
                    <value>1</value>
                  </valueentry>
                  <valueentry>
                    <name>Center</name>
                    <value>2</value>
                  </valueentry>
                  <valueentry>
                    <name>Right</name>
                    <value>3</value>
                  </valueentry>
                </valuelist>
                <value>2</value>
              </parameter>
              <parameter>
                <parameterid>size</parameterid>
                <name>Size</name>
                <valuemin>0</valuemin>
                <valuemax>200</valuemax>
                <value>24</value>
              </parameter>
              <parameter>
                <parameterid>track</parameterid>
                <name>Tracking</name>
                <valuemin>0</valuemin>
                <valuemax>100</valuemax>
                <value>1</value>
              </parameter>
              <parameter>
                <parameterid>lead</parameterid>
                <name>Leading</name>
                <valuemin>-100</valuemin>
                <valuemax>100</valuemax>
                <value>0</value>
              </parameter>
              <parameter>
                <parameterid>aspect</parameterid>
                <name>Aspect</name>
                <valuemin>0</valuemin>
                <valuemax>4</valuemax>
                <value>1</value>
              </parameter>
              <parameter>
                <parameterid>linewidth</parameterid>
                <name>Line Width</name>
                <valuemin>0</valuemin>
                <valuemax>200</valuemax>
                <value>2</value>
              </parameter>
              <parameter>
                <parameterid>linesoft</parameterid>
                <name>Line Softness</name>
                <valuemin>0</valuemin>
                <valuemax>100</valuemax>
                <value>5</value>
              </parameter>
              <parameter>
                <parameterid>textopacity</parameterid>
                <name>Text Opacity</name>
                <valuemin>0</valuemin>
                <valuemax>100</valuemax>
                <value>100</value>
              </parameter>
              <parameter>
                <parameterid>center</parameterid>
                <name>Center</name>
                <value>
                  <horiz>0</horiz>
                  <vert>0.4703703703703703</vert>
                </value>
              </parameter>
              <parameter>
                <parameterid>textcolor</parameterid>
                <name>Text Color</name>
                <value>
                  <alpha>255</alpha>
                  <red>255</red>
                  <green>255</green>
                  <blue>255</blue>
                </value>
              </parameter>
              <parameter>
                <parameterid>supertext</parameterid>
                <name>Text Graphic</name>
              </parameter>
              <parameter>
                <parameterid>linecolor</parameterid>
                <name>Line Color</name>
                <value>
                  <alpha>255</alpha>
                  <red>0</red>
                  <green>0</green>
                  <blue>0</blue>
                </value>
              </parameter>
              <parameter>
                <parameterid>superline</parameterid>
                <name>Line Graphic</name>
              </parameter>
              <parameter>
                <parameterid>part2</parameterid>
                <name>Background Settings</name>
              </parameter>
              <parameter>
                <parameterid>xscale</parameterid>
                <name>Horizontal Size</name>
                <valuemin>0</valuemin>
                <valuemax>200</valuemax>
                <value>0</value>
              </parameter>
              <parameter>
                <parameterid>yscale</parameterid>
                <name>Vertical Size</name>
                <valuemin>0</valuemin>
                <valuemax>200</valuemax>
                <value>0</value>
              </parameter>
              <parameter>
                <parameterid>xoffset</parameterid>
                <name>Horizontal Offset</name>
                <valuemin>-100</valuemin>
                <valuemax>100</valuemax>
                <value>0</value>
              </parameter>
              <parameter>
                <parameterid>yoffset</parameterid>
                <name>Vertical Offset</name>
                <valuemin>-100</valuemin>
                <valuemax>100</valuemax>
                <value>0</value>
              </parameter>
              <parameter>
                <parameterid>backsoft</parameterid>
                <name>Back Soft</name>
                <valuemin>0</valuemin>
                <valuemax>100</valuemax>
                <value>0</value>
              </parameter>
              <parameter>
                <parameterid>backopacity</parameterid>
                <name>Back Opacity</name>
                <valuemin>0</valuemin>
                <valuemax>100</valuemax>
                <value>50</value>
              </parameter>
              <parameter>
                <parameterid>backcolor</parameterid>
                <name>Back Color</name>
                <value>
                  <alpha>255</alpha>
                  <red>255</red>
                  <green>255</green>
                  <blue>255</blue>
                </value>
              </parameter>
              <parameter>
                <parameterid>superback</parameterid>
                <name>Back Graphic</name>
              </parameter>
              <parameter>
                <parameterid>crop</parameterid>
                <name>Crop</name>
                <value>false</value>
              </parameter>
              <parameter>
                <parameterid>autokern</parameterid>
                <name>Auto Kerning</name>
                <value>true</value>
              </parameter>
            </effect>
            <sourcetrack>
              <mediatype>video</mediatype>
            </sourcetrack>
          </generatoritem>
          <generatoritem id="Outline Text1">
            <name>私の精神はどこだろう?</name>
            <duration>22166.1117</duration>
            <rate>
              <timebase>30</timebase>
              <ntsc>true</ntsc>
            </rate>
            <start>10460.129400000007</start>
            <end>10529.659800000007</end>
            <in>10460.129400000007</in>
            <out>10529.659800000007</out>
            <enabled>true</enabled>
            <anamorphic>false</anamorphic>
            <alphatype>black</alphatype>
            <masterclipid>Outline Text1</masterclipid>
            <effect>
              <name>Outline Text</name>
              <effectid>Outline Text</effectid>
              <effectcategory>Text</effectcategory>
              <effecttype>generator</effecttype>
              <mediatype>video</mediatype>
              <parameter>
                <parameterid>part1</parameterid>
                <name>Text Settings</name>
                <value/>
              </parameter>
              <parameter>
                <parameterid>str</parameterid>
                <name>Text</name>
                <value>私の精神はどこだろう?</value>
              </parameter>
              <parameter>
                <parameterid>font</parameterid>
                <name>Font</name>
                <value>HiraginoSans-W6</value>
              </parameter>
              <parameter>
                <parameterid>style</parameterid>
                <name>Style</name>
                <valuemin>1</valuemin>
                <valuemax>1</valuemax>
                <valuelist>
                  <valueentry>
                    <name>Regular</name>
                    <value>1</value>
                  </valueentry>
                </valuelist>
                <value>1</value>
              </parameter>
              <parameter>
                <parameterid>align</parameterid>
                <name>Alignment</name>
                <valuemin>1</valuemin>
                <valuemax>3</valuemax>
                <valuelist>
                  <valueentry>
                    <name>Left</name>
                    <value>1</value>
                  </valueentry>
                  <valueentry>
                    <name>Center</name>
                    <value>2</value>
                  </valueentry>
                  <valueentry>
                    <name>Right</name>
                    <value>3</value>
                  </valueentry>
                </valuelist>
                <value>2</value>
              </parameter>
              <parameter>
                <parameterid>size</parameterid>
                <name>Size</name>
                <valuemin>0</valuemin>
                <valuemax>200</valuemax>
                <value>24</value>
              </parameter>
              <parameter>
                <parameterid>track</parameterid>
                <name>Tracking</name>
                <valuemin>0</valuemin>
                <valuemax>100</valuemax>
                <value>1</value>
              </parameter>
              <parameter>
                <parameterid>lead</parameterid>
                <name>Leading</name>
                <valuemin>-100</valuemin>
                <valuemax>100</valuemax>
                <value>0</value>
              </parameter>
              <parameter>
                <parameterid>aspect</parameterid>
                <name>Aspect</name>
                <valuemin>0</valuemin>
                <valuemax>4</valuemax>
                <value>1</value>
              </parameter>
              <parameter>
                <parameterid>linewidth</parameterid>
                <name>Line Width</name>
                <valuemin>0</valuemin>
                <valuemax>200</valuemax>
                <value>2</value>
              </parameter>
              <parameter>
                <parameterid>linesoft</parameterid>
                <name>Line Softness</name>
                <valuemin>0</valuemin>
                <valuemax>100</valuemax>
                <value>5</value>
              </parameter>
              <parameter>
                <parameterid>textopacity</parameterid>
                <name>Text Opacity</name>
                <valuemin>0</valuemin>
                <valuemax>100</valuemax>
                <value>100</value>
              </parameter>
              <parameter>
                <parameterid>center</parameterid>
                <name>Center</name>
                <value>
                  <horiz>0</horiz>
                  <vert>0.4703703703703703</vert>
                </value>
              </parameter>
              <parameter>
                <parameterid>textcolor</parameterid>
                <name>Text Color</name>
                <value>
                  <alpha>255</alpha>
                  <red>255</red>
                  <green>255</green>
                  <blue>255</blue>
                </value>
              </parameter>
              <parameter>
                <parameterid>supertext</parameterid>
                <name>Text Graphic</name>
              </parameter>
              <parameter>
                <parameterid>linecolor</parameterid>
                <name>Line Color</name>
                <value>
                  <alpha>255</alpha>
                  <red>0</red>
                  <green>0</green>
                  <blue>0</blue>
                </value>
              </parameter>
              <parameter>
                <parameterid>superline</parameterid>
                <name>Line Graphic</name>
              </parameter>
              <parameter>
                <parameterid>part2</parameterid>
                <name>Background Settings</name>
              </parameter>
              <parameter>
                <parameterid>xscale</parameterid>
                <name>Horizontal Size</name>
                <valuemin>0</valuemin>
                <valuemax>200</valuemax>
                <value>0</value>
              </parameter>
              <parameter>
                <parameterid>yscale</parameterid>
                <name>Vertical Size</name>
                <valuemin>0</valuemin>
                <valuemax>200</valuemax>
                <value>0</value>
              </parameter>
              <parameter>
                <parameterid>xoffset</parameterid>
                <name>Horizontal Offset</name>
                <valuemin>-100</valuemin>
                <valuemax>100</valuemax>
                <value>0</value>
              </parameter>
              <parameter>
                <parameterid>yoffset</parameterid>
                <name>Vertical Offset</name>
                <valuemin>-100</valuemin>
                <valuemax>100</valuemax>
                <value>0</value>
              </parameter>
              <parameter>
                <parameterid>backsoft</parameterid>
                <name>Back Soft</name>
                <valuemin>0</valuemin>
                <valuemax>100</valuemax>
                <value>0</value>
              </parameter>
              <parameter>
                <parameterid>backopacity</parameterid>
                <name>Back Opacity</name>
                <valuemin>0</valuemin>
                <valuemax>100</valuemax>
                <value>50</value>
              </parameter>
              <parameter>
                <parameterid>backcolor</parameterid>
                <name>Back Color</name>
                <value>
                  <alpha>255</alpha>
                  <red>255</red>
                  <green>255</green>
                  <blue>255</blue>
                </value>
              </parameter>
              <parameter>
                <parameterid>superback</parameterid>
                <name>Back Graphic</name>
              </parameter>
              <parameter>
                <parameterid>crop</parameterid>
                <name>Crop</name>
                <value>false</value>
              </parameter>
              <parameter>
                <parameterid>autokern</parameterid>
                <name>Auto Kerning</name>
                <value>true</value>
              </parameter>
            </effect>
            <sourcetrack>
              <mediatype>video</mediatype>
            </sourcetrack>
          </generatoritem>
          <generatoritem id="Outline Text1">
            <name>まあでもいつも雨が降ってるたちたちとかは</name>
            <duration>22166.1117</duration>
            <rate>
              <timebase>30</timebase>
              <ntsc>true</ntsc>
            </rate>
            <start>10529.659800000007</start>
            <end>10594.095300000008</end>
            <in>10529.659800000007</in>
            <out>10594.095300000008</out>
            <enabled>true</enabled>
            <anamorphic>false</anamorphic>
            <alphatype>black</alphatype>
            <masterclipid>Outline Text1</masterclipid>
            <effect>
              <name>Outline Text</name>
              <effectid>Outline Text</effectid>
              <effectcategory>Text</effectcategory>
              <effecttype>generator</effecttype>
              <mediatype>video</mediatype>
              <parameter>
                <parameterid>part1</parameterid>
                <name>Text Settings</name>
                <value/>
              </parameter>
              <parameter>
                <parameterid>str</parameterid>
                <name>Text</name>
                <value>まあでもいつも雨が降ってるたちたちとかは</value>
              </parameter>
              <parameter>
                <parameterid>font</parameterid>
                <name>Font</name>
                <value>HiraginoSans-W6</value>
              </parameter>
              <parameter>
                <parameterid>style</parameterid>
                <name>Style</name>
                <valuemin>1</valuemin>
                <valuemax>1</valuemax>
                <valuelist>
                  <valueentry>
                    <name>Regular</name>
                    <value>1</value>
                  </valueentry>
                </valuelist>
                <value>1</value>
              </parameter>
              <parameter>
                <parameterid>align</parameterid>
                <name>Alignment</name>
                <valuemin>1</valuemin>
                <valuemax>3</valuemax>
                <valuelist>
                  <valueentry>
                    <name>Left</name>
                    <value>1</value>
                  </valueentry>
                  <valueentry>
                    <name>Center</name>
                    <value>2</value>
                  </valueentry>
                  <valueentry>
                    <name>Right</name>
                    <value>3</value>
                  </valueentry>
                </valuelist>
                <value>2</value>
              </parameter>
              <parameter>
                <parameterid>size</parameterid>
                <name>Size</name>
                <valuemin>0</valuemin>
                <valuemax>200</valuemax>
                <value>24</value>
              </parameter>
              <parameter>
                <parameterid>track</parameterid>
                <name>Tracking</name>
                <valuemin>0</valuemin>
                <valuemax>100</valuemax>
                <value>1</value>
              </parameter>
              <parameter>
                <parameterid>lead</parameterid>
                <name>Leading</name>
                <valuemin>-100</valuemin>
                <valuemax>100</valuemax>
                <value>0</value>
              </parameter>
              <parameter>
                <parameterid>aspect</parameterid>
                <name>Aspect</name>
                <valuemin>0</valuemin>
                <valuemax>4</valuemax>
                <value>1</value>
              </parameter>
              <parameter>
                <parameterid>linewidth</parameterid>
                <name>Line Width</name>
                <valuemin>0</valuemin>
                <valuemax>200</valuemax>
                <value>2</value>
              </parameter>
              <parameter>
                <parameterid>linesoft</parameterid>
                <name>Line Softness</name>
                <valuemin>0</valuemin>
                <valuemax>100</valuemax>
                <value>5</value>
              </parameter>
              <parameter>
                <parameterid>textopacity</parameterid>
                <name>Text Opacity</name>
                <valuemin>0</valuemin>
                <valuemax>100</valuemax>
                <value>100</value>
              </parameter>
              <parameter>
                <parameterid>center</parameterid>
                <name>Center</name>
                <value>
                  <horiz>0</horiz>
                  <vert>0.4703703703703703</vert>
                </value>
              </parameter>
              <parameter>
                <parameterid>textcolor</parameterid>
                <name>Text Color</name>
                <value>
                  <alpha>255</alpha>
                  <red>255</red>
                  <green>255</green>
                  <blue>255</blue>
                </value>
              </parameter>
              <parameter>
                <parameterid>supertext</parameterid>
                <name>Text Graphic</name>
              </parameter>
              <parameter>
                <parameterid>linecolor</parameterid>
                <name>Line Color</name>
                <value>
                  <alpha>255</alpha>
                  <red>0</red>
                  <green>0</green>
                  <blue>0</blue>
                </value>
              </parameter>
              <parameter>
                <parameterid>superline</parameterid>
                <name>Line Graphic</name>
              </parameter>
              <parameter>
                <parameterid>part2</parameterid>
                <name>Background Settings</name>
              </parameter>
              <parameter>
                <parameterid>xscale</parameterid>
                <name>Horizontal Size</name>
                <valuemin>0</valuemin>
                <valuemax>200</valuemax>
                <value>0</value>
              </parameter>
              <parameter>
                <parameterid>yscale</parameterid>
                <name>Vertical Size</name>
                <valuemin>0</valuemin>
                <valuemax>200</valuemax>
                <value>0</value>
              </parameter>
              <parameter>
                <parameterid>xoffset</parameterid>
                <name>Horizontal Offset</name>
                <valuemin>-100</valuemin>
                <valuemax>100</valuemax>
                <value>0</value>
              </parameter>
              <parameter>
                <parameterid>yoffset</parameterid>
                <name>Vertical Offset</name>
                <valuemin>-100</valuemin>
                <valuemax>100</valuemax>
                <value>0</value>
              </parameter>
              <parameter>
                <parameterid>backsoft</parameterid>
                <name>Back Soft</name>
                <valuemin>0</valuemin>
                <valuemax>100</valuemax>
                <value>0</value>
              </parameter>
              <parameter>
                <parameterid>backopacity</parameterid>
                <name>Back Opacity</name>
                <valuemin>0</valuemin>
                <valuemax>100</valuemax>
                <value>50</value>
              </parameter>
              <parameter>
                <parameterid>backcolor</parameterid>
                <name>Back Color</name>
                <value>
                  <alpha>255</alpha>
                  <red>255</red>
                  <green>255</green>
                  <blue>255</blue>
                </value>
              </parameter>
              <parameter>
                <parameterid>superback</parameterid>
                <name>Back Graphic</name>
              </parameter>
              <parameter>
                <parameterid>crop</parameterid>
                <name>Crop</name>
                <value>false</value>
              </parameter>
              <parameter>
                <parameterid>autokern</parameterid>
                <name>Auto Kerning</name>
                <value>true</value>
              </parameter>
            </effect>
            <sourcetrack>
              <mediatype>video</mediatype>
            </sourcetrack>
          </generatoritem>
          <generatoritem id="Outline Text1">
            <name>多分名物フリーライブでララポート?ララポートたちかわたちひでイベントやらせていただくことが何回かあったんですけど</name>
            <duration>22166.1117</duration>
            <rate>
              <timebase>30</timebase>
              <ntsc>true</ntsc>
            </rate>
            <start>10594.095300000008</start>
            <end>10908.48060000001</end>
            <in>10594.095300000008</in>
            <out>10908.48060000001</out>
            <enabled>true</enabled>
            <anamorphic>false</anamorphic>
            <alphatype>black</alphatype>
            <masterclipid>Outline Text1</masterclipid>
            <effect>
              <name>Outline Text</name>
              <effectid>Outline Text</effectid>
              <effectcategory>Text</effectcategory>
              <effecttype>generator</effecttype>
              <mediatype>video</mediatype>
              <parameter>
                <parameterid>part1</parameterid>
                <name>Text Settings</name>
                <value/>
              </parameter>
              <parameter>
                <parameterid>str</parameterid>
                <name>Text</name>
                <value>多分名物フリーライブでララポート?ララポートたちかわたちひでイベントやらせていただくことが何回かあったんですけど</value>
              </parameter>
              <parameter>
                <parameterid>font</parameterid>
                <name>Font</name>
                <value>HiraginoSans-W6</value>
              </parameter>
              <parameter>
                <parameterid>style</parameterid>
                <name>Style</name>
                <valuemin>1</valuemin>
                <valuemax>1</valuemax>
                <valuelist>
                  <valueentry>
                    <name>Regular</name>
                    <value>1</value>
                  </valueentry>
                </valuelist>
                <value>1</value>
              </parameter>
              <parameter>
                <parameterid>align</parameterid>
                <name>Alignment</name>
                <valuemin>1</valuemin>
                <valuemax>3</valuemax>
                <valuelist>
                  <valueentry>
                    <name>Left</name>
                    <value>1</value>
                  </valueentry>
                  <valueentry>
                    <name>Center</name>
                    <value>2</value>
                  </valueentry>
                  <valueentry>
                    <name>Right</name>
                    <value>3</value>
                  </valueentry>
                </valuelist>
                <value>2</value>
              </parameter>
              <parameter>
                <parameterid>size</parameterid>
                <name>Size</name>
                <valuemin>0</valuemin>
                <valuemax>200</valuemax>
                <value>24</value>
              </parameter>
              <parameter>
                <parameterid>track</parameterid>
                <name>Tracking</name>
                <valuemin>0</valuemin>
                <valuemax>100</valuemax>
                <value>1</value>
              </parameter>
              <parameter>
                <parameterid>lead</parameterid>
                <name>Leading</name>
                <valuemin>-100</valuemin>
                <valuemax>100</valuemax>
                <value>0</value>
              </parameter>
              <parameter>
                <parameterid>aspect</parameterid>
                <name>Aspect</name>
                <valuemin>0</valuemin>
                <valuemax>4</valuemax>
                <value>1</value>
              </parameter>
              <parameter>
                <parameterid>linewidth</parameterid>
                <name>Line Width</name>
                <valuemin>0</valuemin>
                <valuemax>200</valuemax>
                <value>2</value>
              </parameter>
              <parameter>
                <parameterid>linesoft</parameterid>
                <name>Line Softness</name>
                <valuemin>0</valuemin>
                <valuemax>100</valuemax>
                <value>5</value>
              </parameter>
              <parameter>
                <parameterid>textopacity</parameterid>
                <name>Text Opacity</name>
                <valuemin>0</valuemin>
                <valuemax>100</valuemax>
                <value>100</value>
              </parameter>
              <parameter>
                <parameterid>center</parameterid>
                <name>Center</name>
                <value>
                  <horiz>0</horiz>
                  <vert>0.4703703703703703</vert>
                </value>
              </parameter>
              <parameter>
                <parameterid>textcolor</parameterid>
                <name>Text Color</name>
                <value>
                  <alpha>255</alpha>
                  <red>255</red>
                  <green>255</green>
                  <blue>255</blue>
                </value>
              </parameter>
              <parameter>
                <parameterid>supertext</parameterid>
                <name>Text Graphic</name>
              </parameter>
              <parameter>
                <parameterid>linecolor</parameterid>
                <name>Line Color</name>
                <value>
                  <alpha>255</alpha>
                  <red>0</red>
                  <green>0</green>
                  <blue>0</blue>
                </value>
              </parameter>
              <parameter>
                <parameterid>superline</parameterid>
                <name>Line Graphic</name>
              </parameter>
              <parameter>
                <parameterid>part2</parameterid>
                <name>Background Settings</name>
              </parameter>
              <parameter>
                <parameterid>xscale</parameterid>
                <name>Horizontal Size</name>
                <valuemin>0</valuemin>
                <valuemax>200</valuemax>
                <value>0</value>
              </parameter>
              <parameter>
                <parameterid>yscale</parameterid>
                <name>Vertical Size</name>
                <valuemin>0</valuemin>
                <valuemax>200</valuemax>
                <value>0</value>
              </parameter>
              <parameter>
                <parameterid>xoffset</parameterid>
                <name>Horizontal Offset</name>
                <valuemin>-100</valuemin>
                <valuemax>100</valuemax>
                <value>0</value>
              </parameter>
              <parameter>
                <parameterid>yoffset</parameterid>
                <name>Vertical Offset</name>
                <valuemin>-100</valuemin>
                <valuemax>100</valuemax>
                <value>0</value>
              </parameter>
              <parameter>
                <parameterid>backsoft</parameterid>
                <name>Back Soft</name>
                <valuemin>0</valuemin>
                <valuemax>100</valuemax>
                <value>0</value>
              </parameter>
              <parameter>
                <parameterid>backopacity</parameterid>
                <name>Back Opacity</name>
                <valuemin>0</valuemin>
                <valuemax>100</valuemax>
                <value>50</value>
              </parameter>
              <parameter>
                <parameterid>backcolor</parameterid>
                <name>Back Color</name>
                <value>
                  <alpha>255</alpha>
                  <red>255</red>
                  <green>255</green>
                  <blue>255</blue>
                </value>
              </parameter>
              <parameter>
                <parameterid>superback</parameterid>
                <name>Back Graphic</name>
              </parameter>
              <parameter>
                <parameterid>crop</parameterid>
                <name>Crop</name>
                <value>false</value>
              </parameter>
              <parameter>
                <parameterid>autokern</parameterid>
                <name>Auto Kerning</name>
                <value>true</value>
              </parameter>
            </effect>
            <sourcetrack>
              <mediatype>video</mediatype>
            </sourcetrack>
          </generatoritem>
          <generatoritem id="Outline Text1">
            <name>全部?全部雨でした</name>
            <duration>22166.1117</duration>
            <rate>
              <timebase>30</timebase>
              <ntsc>true</ntsc>
            </rate>
            <start>10908.48060000001</start>
            <end>10947.14190000001</end>
            <in>10908.48060000001</in>
            <out>10947.14190000001</out>
            <enabled>true</enabled>
            <anamorphic>false</anamorphic>
            <alphatype>black</alphatype>
            <masterclipid>Outline Text1</masterclipid>
            <effect>
              <name>Outline Text</name>
              <effectid>Outline Text</effectid>
              <effectcategory>Text</effectcategory>
              <effecttype>generator</effecttype>
              <mediatype>video</mediatype>
              <parameter>
                <parameterid>part1</parameterid>
                <name>Text Settings</name>
                <value/>
              </parameter>
              <parameter>
                <parameterid>str</parameterid>
                <name>Text</name>
                <value>全部?全部雨でした</value>
              </parameter>
              <parameter>
                <parameterid>font</parameterid>
                <name>Font</name>
                <value>HiraginoSans-W6</value>
              </parameter>
              <parameter>
                <parameterid>style</parameterid>
                <name>Style</name>
                <valuemin>1</valuemin>
                <valuemax>1</valuemax>
                <valuelist>
                  <valueentry>
                    <name>Regular</name>
                    <value>1</value>
                  </valueentry>
                </valuelist>
                <value>1</value>
              </parameter>
              <parameter>
                <parameterid>align</parameterid>
                <name>Alignment</name>
                <valuemin>1</valuemin>
                <valuemax>3</valuemax>
                <valuelist>
                  <valueentry>
                    <name>Left</name>
                    <value>1</value>
                  </valueentry>
                  <valueentry>
                    <name>Center</name>
                    <value>2</value>
                  </valueentry>
                  <valueentry>
                    <name>Right</name>
                    <value>3</value>
                  </valueentry>
                </valuelist>
                <value>2</value>
              </parameter>
              <parameter>
                <parameterid>size</parameterid>
                <name>Size</name>
                <valuemin>0</valuemin>
                <valuemax>200</valuemax>
                <value>24</value>
              </parameter>
              <parameter>
                <parameterid>track</parameterid>
                <name>Tracking</name>
                <valuemin>0</valuemin>
                <valuemax>100</valuemax>
                <value>1</value>
              </parameter>
              <parameter>
                <parameterid>lead</parameterid>
                <name>Leading</name>
                <valuemin>-100</valuemin>
                <valuemax>100</valuemax>
                <value>0</value>
              </parameter>
              <parameter>
                <parameterid>aspect</parameterid>
                <name>Aspect</name>
                <valuemin>0</valuemin>
                <valuemax>4</valuemax>
                <value>1</value>
              </parameter>
              <parameter>
                <parameterid>linewidth</parameterid>
                <name>Line Width</name>
                <valuemin>0</valuemin>
                <valuemax>200</valuemax>
                <value>2</value>
              </parameter>
              <parameter>
                <parameterid>linesoft</parameterid>
                <name>Line Softness</name>
                <valuemin>0</valuemin>
                <valuemax>100</valuemax>
                <value>5</value>
              </parameter>
              <parameter>
                <parameterid>textopacity</parameterid>
                <name>Text Opacity</name>
                <valuemin>0</valuemin>
                <valuemax>100</valuemax>
                <value>100</value>
              </parameter>
              <parameter>
                <parameterid>center</parameterid>
                <name>Center</name>
                <value>
                  <horiz>0</horiz>
                  <vert>0.4703703703703703</vert>
                </value>
              </parameter>
              <parameter>
                <parameterid>textcolor</parameterid>
                <name>Text Color</name>
                <value>
                  <alpha>255</alpha>
                  <red>255</red>
                  <green>255</green>
                  <blue>255</blue>
                </value>
              </parameter>
              <parameter>
                <parameterid>supertext</parameterid>
                <name>Text Graphic</name>
              </parameter>
              <parameter>
                <parameterid>linecolor</parameterid>
                <name>Line Color</name>
                <value>
                  <alpha>255</alpha>
                  <red>0</red>
                  <green>0</green>
                  <blue>0</blue>
                </value>
              </parameter>
              <parameter>
                <parameterid>superline</parameterid>
                <name>Line Graphic</name>
              </parameter>
              <parameter>
                <parameterid>part2</parameterid>
                <name>Background Settings</name>
              </parameter>
              <parameter>
                <parameterid>xscale</parameterid>
                <name>Horizontal Size</name>
                <valuemin>0</valuemin>
                <valuemax>200</valuemax>
                <value>0</value>
              </parameter>
              <parameter>
                <parameterid>yscale</parameterid>
                <name>Vertical Size</name>
                <valuemin>0</valuemin>
                <valuemax>200</valuemax>
                <value>0</value>
              </parameter>
              <parameter>
                <parameterid>xoffset</parameterid>
                <name>Horizontal Offset</name>
                <valuemin>-100</valuemin>
                <valuemax>100</valuemax>
                <value>0</value>
              </parameter>
              <parameter>
                <parameterid>yoffset</parameterid>
                <name>Vertical Offset</name>
                <valuemin>-100</valuemin>
                <valuemax>100</valuemax>
                <value>0</value>
              </parameter>
              <parameter>
                <parameterid>backsoft</parameterid>
                <name>Back Soft</name>
                <valuemin>0</valuemin>
                <valuemax>100</valuemax>
                <value>0</value>
              </parameter>
              <parameter>
                <parameterid>backopacity</parameterid>
                <name>Back Opacity</name>
                <valuemin>0</valuemin>
                <valuemax>100</valuemax>
                <value>50</value>
              </parameter>
              <parameter>
                <parameterid>backcolor</parameterid>
                <name>Back Color</name>
                <value>
                  <alpha>255</alpha>
                  <red>255</red>
                  <green>255</green>
                  <blue>255</blue>
                </value>
              </parameter>
              <parameter>
                <parameterid>superback</parameterid>
                <name>Back Graphic</name>
              </parameter>
              <parameter>
                <parameterid>crop</parameterid>
                <name>Crop</name>
                <value>false</value>
              </parameter>
              <parameter>
                <parameterid>autokern</parameterid>
                <name>Auto Kerning</name>
                <value>true</value>
              </parameter>
            </effect>
            <sourcetrack>
              <mediatype>video</mediatype>
            </sourcetrack>
          </generatoritem>
          <generatoritem id="Outline Text1">
            <name>毎回雨</name>
            <duration>22166.1117</duration>
            <rate>
              <timebase>30</timebase>
              <ntsc>true</ntsc>
            </rate>
            <start>10947.14190000001</start>
            <end>10961.527500000007</end>
            <in>10947.14190000001</in>
            <out>10961.527500000007</out>
            <enabled>true</enabled>
            <anamorphic>false</anamorphic>
            <alphatype>black</alphatype>
            <masterclipid>Outline Text1</masterclipid>
            <effect>
              <name>Outline Text</name>
              <effectid>Outline Text</effectid>
              <effectcategory>Text</effectcategory>
              <effecttype>generator</effecttype>
              <mediatype>video</mediatype>
              <parameter>
                <parameterid>part1</parameterid>
                <name>Text Settings</name>
                <value/>
              </parameter>
              <parameter>
                <parameterid>str</parameterid>
                <name>Text</name>
                <value>毎回雨</value>
              </parameter>
              <parameter>
                <parameterid>font</parameterid>
                <name>Font</name>
                <value>HiraginoSans-W6</value>
              </parameter>
              <parameter>
                <parameterid>style</parameterid>
                <name>Style</name>
                <valuemin>1</valuemin>
                <valuemax>1</valuemax>
                <valuelist>
                  <valueentry>
                    <name>Regular</name>
                    <value>1</value>
                  </valueentry>
                </valuelist>
                <value>1</value>
              </parameter>
              <parameter>
                <parameterid>align</parameterid>
                <name>Alignment</name>
                <valuemin>1</valuemin>
                <valuemax>3</valuemax>
                <valuelist>
                  <valueentry>
                    <name>Left</name>
                    <value>1</value>
                  </valueentry>
                  <valueentry>
                    <name>Center</name>
                    <value>2</value>
                  </valueentry>
                  <valueentry>
                    <name>Right</name>
                    <value>3</value>
                  </valueentry>
                </valuelist>
                <value>2</value>
              </parameter>
              <parameter>
                <parameterid>size</parameterid>
                <name>Size</name>
                <valuemin>0</valuemin>
                <valuemax>200</valuemax>
                <value>24</value>
              </parameter>
              <parameter>
                <parameterid>track</parameterid>
                <name>Tracking</name>
                <valuemin>0</valuemin>
                <valuemax>100</valuemax>
                <value>1</value>
              </parameter>
              <parameter>
                <parameterid>lead</parameterid>
                <name>Leading</name>
                <valuemin>-100</valuemin>
                <valuemax>100</valuemax>
                <value>0</value>
              </parameter>
              <parameter>
                <parameterid>aspect</parameterid>
                <name>Aspect</name>
                <valuemin>0</valuemin>
                <valuemax>4</valuemax>
                <value>1</value>
              </parameter>
              <parameter>
                <parameterid>linewidth</parameterid>
                <name>Line Width</name>
                <valuemin>0</valuemin>
                <valuemax>200</valuemax>
                <value>2</value>
              </parameter>
              <parameter>
                <parameterid>linesoft</parameterid>
                <name>Line Softness</name>
                <valuemin>0</valuemin>
                <valuemax>100</valuemax>
                <value>5</value>
              </parameter>
              <parameter>
                <parameterid>textopacity</parameterid>
                <name>Text Opacity</name>
                <valuemin>0</valuemin>
                <valuemax>100</valuemax>
                <value>100</value>
              </parameter>
              <parameter>
                <parameterid>center</parameterid>
                <name>Center</name>
                <value>
                  <horiz>0</horiz>
                  <vert>0.4703703703703703</vert>
                </value>
              </parameter>
              <parameter>
                <parameterid>textcolor</parameterid>
                <name>Text Color</name>
                <value>
                  <alpha>255</alpha>
                  <red>255</red>
                  <green>255</green>
                  <blue>255</blue>
                </value>
              </parameter>
              <parameter>
                <parameterid>supertext</parameterid>
                <name>Text Graphic</name>
              </parameter>
              <parameter>
                <parameterid>linecolor</parameterid>
                <name>Line Color</name>
                <value>
                  <alpha>255</alpha>
                  <red>0</red>
                  <green>0</green>
                  <blue>0</blue>
                </value>
              </parameter>
              <parameter>
                <parameterid>superline</parameterid>
                <name>Line Graphic</name>
              </parameter>
              <parameter>
                <parameterid>part2</parameterid>
                <name>Background Settings</name>
              </parameter>
              <parameter>
                <parameterid>xscale</parameterid>
                <name>Horizontal Size</name>
                <valuemin>0</valuemin>
                <valuemax>200</valuemax>
                <value>0</value>
              </parameter>
              <parameter>
                <parameterid>yscale</parameterid>
                <name>Vertical Size</name>
                <valuemin>0</valuemin>
                <valuemax>200</valuemax>
                <value>0</value>
              </parameter>
              <parameter>
                <parameterid>xoffset</parameterid>
                <name>Horizontal Offset</name>
                <valuemin>-100</valuemin>
                <valuemax>100</valuemax>
                <value>0</value>
              </parameter>
              <parameter>
                <parameterid>yoffset</parameterid>
                <name>Vertical Offset</name>
                <valuemin>-100</valuemin>
                <valuemax>100</valuemax>
                <value>0</value>
              </parameter>
              <parameter>
                <parameterid>backsoft</parameterid>
                <name>Back Soft</name>
                <valuemin>0</valuemin>
                <valuemax>100</valuemax>
                <value>0</value>
              </parameter>
              <parameter>
                <parameterid>backopacity</parameterid>
                <name>Back Opacity</name>
                <valuemin>0</valuemin>
                <valuemax>100</valuemax>
                <value>50</value>
              </parameter>
              <parameter>
                <parameterid>backcolor</parameterid>
                <name>Back Color</name>
                <value>
                  <alpha>255</alpha>
                  <red>255</red>
                  <green>255</green>
                  <blue>255</blue>
                </value>
              </parameter>
              <parameter>
                <parameterid>superback</parameterid>
                <name>Back Graphic</name>
              </parameter>
              <parameter>
                <parameterid>crop</parameterid>
                <name>Crop</name>
                <value>false</value>
              </parameter>
              <parameter>
                <parameterid>autokern</parameterid>
                <name>Auto Kerning</name>
                <value>true</value>
              </parameter>
            </effect>
            <sourcetrack>
              <mediatype>video</mediatype>
            </sourcetrack>
          </generatoritem>
          <generatoritem id="Outline Text1">
            <name>ちょっとなんですけど全部雨でした</name>
            <duration>22166.1117</duration>
            <rate>
              <timebase>30</timebase>
              <ntsc>true</ntsc>
            </rate>
            <start>10961.527500000007</start>
            <end>11029.259700000008</end>
            <in>10961.527500000007</in>
            <out>11029.259700000008</out>
            <enabled>true</enabled>
            <anamorphic>false</anamorphic>
            <alphatype>black</alphatype>
            <masterclipid>Outline Text1</masterclipid>
            <effect>
              <name>Outline Text</name>
              <effectid>Outline Text</effectid>
              <effectcategory>Text</effectcategory>
              <effecttype>generator</effecttype>
              <mediatype>video</mediatype>
              <parameter>
                <parameterid>part1</parameterid>
                <name>Text Settings</name>
                <value/>
              </parameter>
              <parameter>
                <parameterid>str</parameterid>
                <name>Text</name>
                <value>ちょっとなんですけど全部雨でした</value>
              </parameter>
              <parameter>
                <parameterid>font</parameterid>
                <name>Font</name>
                <value>HiraginoSans-W6</value>
              </parameter>
              <parameter>
                <parameterid>style</parameterid>
                <name>Style</name>
                <valuemin>1</valuemin>
                <valuemax>1</valuemax>
                <valuelist>
                  <valueentry>
                    <name>Regular</name>
                    <value>1</value>
                  </valueentry>
                </valuelist>
                <value>1</value>
              </parameter>
              <parameter>
                <parameterid>align</parameterid>
                <name>Alignment</name>
                <valuemin>1</valuemin>
                <valuemax>3</valuemax>
                <valuelist>
                  <valueentry>
                    <name>Left</name>
                    <value>1</value>
                  </valueentry>
                  <valueentry>
                    <name>Center</name>
                    <value>2</value>
                  </valueentry>
                  <valueentry>
                    <name>Right</name>
                    <value>3</value>
                  </valueentry>
                </valuelist>
                <value>2</value>
              </parameter>
              <parameter>
                <parameterid>size</parameterid>
                <name>Size</name>
                <valuemin>0</valuemin>
                <valuemax>200</valuemax>
                <value>24</value>
              </parameter>
              <parameter>
                <parameterid>track</parameterid>
                <name>Tracking</name>
                <valuemin>0</valuemin>
                <valuemax>100</valuemax>
                <value>1</value>
              </parameter>
              <parameter>
                <parameterid>lead</parameterid>
                <name>Leading</name>
                <valuemin>-100</valuemin>
                <valuemax>100</valuemax>
                <value>0</value>
              </parameter>
              <parameter>
                <parameterid>aspect</parameterid>
                <name>Aspect</name>
                <valuemin>0</valuemin>
                <valuemax>4</valuemax>
                <value>1</value>
              </parameter>
              <parameter>
                <parameterid>linewidth</parameterid>
                <name>Line Width</name>
                <valuemin>0</valuemin>
                <valuemax>200</valuemax>
                <value>2</value>
              </parameter>
              <parameter>
                <parameterid>linesoft</parameterid>
                <name>Line Softness</name>
                <valuemin>0</valuemin>
                <valuemax>100</valuemax>
                <value>5</value>
              </parameter>
              <parameter>
                <parameterid>textopacity</parameterid>
                <name>Text Opacity</name>
                <valuemin>0</valuemin>
                <valuemax>100</valuemax>
                <value>100</value>
              </parameter>
              <parameter>
                <parameterid>center</parameterid>
                <name>Center</name>
                <value>
                  <horiz>0</horiz>
                  <vert>0.4703703703703703</vert>
                </value>
              </parameter>
              <parameter>
                <parameterid>textcolor</parameterid>
                <name>Text Color</name>
                <value>
                  <alpha>255</alpha>
                  <red>255</red>
                  <green>255</green>
                  <blue>255</blue>
                </value>
              </parameter>
              <parameter>
                <parameterid>supertext</parameterid>
                <name>Text Graphic</name>
              </parameter>
              <parameter>
                <parameterid>linecolor</parameterid>
                <name>Line Color</name>
                <value>
                  <alpha>255</alpha>
                  <red>0</red>
                  <green>0</green>
                  <blue>0</blue>
                </value>
              </parameter>
              <parameter>
                <parameterid>superline</parameterid>
                <name>Line Graphic</name>
              </parameter>
              <parameter>
                <parameterid>part2</parameterid>
                <name>Background Settings</name>
              </parameter>
              <parameter>
                <parameterid>xscale</parameterid>
                <name>Horizontal Size</name>
                <valuemin>0</valuemin>
                <valuemax>200</valuemax>
                <value>0</value>
              </parameter>
              <parameter>
                <parameterid>yscale</parameterid>
                <name>Vertical Size</name>
                <valuemin>0</valuemin>
                <valuemax>200</valuemax>
                <value>0</value>
              </parameter>
              <parameter>
                <parameterid>xoffset</parameterid>
                <name>Horizontal Offset</name>
                <valuemin>-100</valuemin>
                <valuemax>100</valuemax>
                <value>0</value>
              </parameter>
              <parameter>
                <parameterid>yoffset</parameterid>
                <name>Vertical Offset</name>
                <valuemin>-100</valuemin>
                <valuemax>100</valuemax>
                <value>0</value>
              </parameter>
              <parameter>
                <parameterid>backsoft</parameterid>
                <name>Back Soft</name>
                <valuemin>0</valuemin>
                <valuemax>100</valuemax>
                <value>0</value>
              </parameter>
              <parameter>
                <parameterid>backopacity</parameterid>
                <name>Back Opacity</name>
                <valuemin>0</valuemin>
                <valuemax>100</valuemax>
                <value>50</value>
              </parameter>
              <parameter>
                <parameterid>backcolor</parameterid>
                <name>Back Color</name>
                <value>
                  <alpha>255</alpha>
                  <red>255</red>
                  <green>255</green>
                  <blue>255</blue>
                </value>
              </parameter>
              <parameter>
                <parameterid>superback</parameterid>
                <name>Back Graphic</name>
              </parameter>
              <parameter>
                <parameterid>crop</parameterid>
                <name>Crop</name>
                <value>false</value>
              </parameter>
              <parameter>
                <parameterid>autokern</parameterid>
                <name>Auto Kerning</name>
                <value>true</value>
              </parameter>
            </effect>
            <sourcetrack>
              <mediatype>video</mediatype>
            </sourcetrack>
          </generatoritem>
          <generatoritem id="Outline Text1">
            <name>踊ってる後ろに立ってるパネルが恐怖で倒れたりとか</name>
            <duration>22166.1117</duration>
            <rate>
              <timebase>30</timebase>
              <ntsc>true</ntsc>
            </rate>
            <start>11029.259700000008</start>
            <end>11122.766100000008</end>
            <in>11029.259700000008</in>
            <out>11122.766100000008</out>
            <enabled>true</enabled>
            <anamorphic>false</anamorphic>
            <alphatype>black</alphatype>
            <masterclipid>Outline Text1</masterclipid>
            <effect>
              <name>Outline Text</name>
              <effectid>Outline Text</effectid>
              <effectcategory>Text</effectcategory>
              <effecttype>generator</effecttype>
              <mediatype>video</mediatype>
              <parameter>
                <parameterid>part1</parameterid>
                <name>Text Settings</name>
                <value/>
              </parameter>
              <parameter>
                <parameterid>str</parameterid>
                <name>Text</name>
                <value>踊ってる後ろに立ってるパネルが恐怖で倒れたりとか</value>
              </parameter>
              <parameter>
                <parameterid>font</parameterid>
                <name>Font</name>
                <value>HiraginoSans-W6</value>
              </parameter>
              <parameter>
                <parameterid>style</parameterid>
                <name>Style</name>
                <valuemin>1</valuemin>
                <valuemax>1</valuemax>
                <valuelist>
                  <valueentry>
                    <name>Regular</name>
                    <value>1</value>
                  </valueentry>
                </valuelist>
                <value>1</value>
              </parameter>
              <parameter>
                <parameterid>align</parameterid>
                <name>Alignment</name>
                <valuemin>1</valuemin>
                <valuemax>3</valuemax>
                <valuelist>
                  <valueentry>
                    <name>Left</name>
                    <value>1</value>
                  </valueentry>
                  <valueentry>
                    <name>Center</name>
                    <value>2</value>
                  </valueentry>
                  <valueentry>
                    <name>Right</name>
                    <value>3</value>
                  </valueentry>
                </valuelist>
                <value>2</value>
              </parameter>
              <parameter>
                <parameterid>size</parameterid>
                <name>Size</name>
                <valuemin>0</valuemin>
                <valuemax>200</valuemax>
                <value>24</value>
              </parameter>
              <parameter>
                <parameterid>track</parameterid>
                <name>Tracking</name>
                <valuemin>0</valuemin>
                <valuemax>100</valuemax>
                <value>1</value>
              </parameter>
              <parameter>
                <parameterid>lead</parameterid>
                <name>Leading</name>
                <valuemin>-100</valuemin>
                <valuemax>100</valuemax>
                <value>0</value>
              </parameter>
              <parameter>
                <parameterid>aspect</parameterid>
                <name>Aspect</name>
                <valuemin>0</valuemin>
                <valuemax>4</valuemax>
                <value>1</value>
              </parameter>
              <parameter>
                <parameterid>linewidth</parameterid>
                <name>Line Width</name>
                <valuemin>0</valuemin>
                <valuemax>200</valuemax>
                <value>2</value>
              </parameter>
              <parameter>
                <parameterid>linesoft</parameterid>
                <name>Line Softness</name>
                <valuemin>0</valuemin>
                <valuemax>100</valuemax>
                <value>5</value>
              </parameter>
              <parameter>
                <parameterid>textopacity</parameterid>
                <name>Text Opacity</name>
                <valuemin>0</valuemin>
                <valuemax>100</valuemax>
                <value>100</value>
              </parameter>
              <parameter>
                <parameterid>center</parameterid>
                <name>Center</name>
                <value>
                  <horiz>0</horiz>
                  <vert>0.4703703703703703</vert>
                </value>
              </parameter>
              <parameter>
                <parameterid>textcolor</parameterid>
                <name>Text Color</name>
                <value>
                  <alpha>255</alpha>
                  <red>255</red>
                  <green>255</green>
                  <blue>255</blue>
                </value>
              </parameter>
              <parameter>
                <parameterid>supertext</parameterid>
                <name>Text Graphic</name>
              </parameter>
              <parameter>
                <parameterid>linecolor</parameterid>
                <name>Line Color</name>
                <value>
                  <alpha>255</alpha>
                  <red>0</red>
                  <green>0</green>
                  <blue>0</blue>
                </value>
              </parameter>
              <parameter>
                <parameterid>superline</parameterid>
                <name>Line Graphic</name>
              </parameter>
              <parameter>
                <parameterid>part2</parameterid>
                <name>Background Settings</name>
              </parameter>
              <parameter>
                <parameterid>xscale</parameterid>
                <name>Horizontal Size</name>
                <valuemin>0</valuemin>
                <valuemax>200</valuemax>
                <value>0</value>
              </parameter>
              <parameter>
                <parameterid>yscale</parameterid>
                <name>Vertical Size</name>
                <valuemin>0</valuemin>
                <valuemax>200</valuemax>
                <value>0</value>
              </parameter>
              <parameter>
                <parameterid>xoffset</parameterid>
                <name>Horizontal Offset</name>
                <valuemin>-100</valuemin>
                <valuemax>100</valuemax>
                <value>0</value>
              </parameter>
              <parameter>
                <parameterid>yoffset</parameterid>
                <name>Vertical Offset</name>
                <valuemin>-100</valuemin>
                <valuemax>100</valuemax>
                <value>0</value>
              </parameter>
              <parameter>
                <parameterid>backsoft</parameterid>
                <name>Back Soft</name>
                <valuemin>0</valuemin>
                <valuemax>100</valuemax>
                <value>0</value>
              </parameter>
              <parameter>
                <parameterid>backopacity</parameterid>
                <name>Back Opacity</name>
                <valuemin>0</valuemin>
                <valuemax>100</valuemax>
                <value>50</value>
              </parameter>
              <parameter>
                <parameterid>backcolor</parameterid>
                <name>Back Color</name>
                <value>
                  <alpha>255</alpha>
                  <red>255</red>
                  <green>255</green>
                  <blue>255</blue>
                </value>
              </parameter>
              <parameter>
                <parameterid>superback</parameterid>
                <name>Back Graphic</name>
              </parameter>
              <parameter>
                <parameterid>crop</parameterid>
                <name>Crop</name>
                <value>false</value>
              </parameter>
              <parameter>
                <parameterid>autokern</parameterid>
                <name>Auto Kerning</name>
                <value>true</value>
              </parameter>
            </effect>
            <sourcetrack>
              <mediatype>video</mediatype>
            </sourcetrack>
          </generatoritem>
          <generatoritem id="Outline Text1">
            <name>アップルさんとかも雨滴るぐらいびしょびしょになってる時とか</name>
            <duration>22166.1117</duration>
            <rate>
              <timebase>30</timebase>
              <ntsc>true</ntsc>
            </rate>
            <start>11122.766100000008</start>
            <end>11278.610100000005</end>
            <in>11122.766100000008</in>
            <out>11278.610100000005</out>
            <enabled>true</enabled>
            <anamorphic>false</anamorphic>
            <alphatype>black</alphatype>
            <masterclipid>Outline Text1</masterclipid>
            <effect>
              <name>Outline Text</name>
              <effectid>Outline Text</effectid>
              <effectcategory>Text</effectcategory>
              <effecttype>generator</effecttype>
              <mediatype>video</mediatype>
              <parameter>
                <parameterid>part1</parameterid>
                <name>Text Settings</name>
                <value/>
              </parameter>
              <parameter>
                <parameterid>str</parameterid>
                <name>Text</name>
                <value>アップルさんとかも雨滴るぐらいびしょびしょになってる時とか</value>
              </parameter>
              <parameter>
                <parameterid>font</parameterid>
                <name>Font</name>
                <value>HiraginoSans-W6</value>
              </parameter>
              <parameter>
                <parameterid>style</parameterid>
                <name>Style</name>
                <valuemin>1</valuemin>
                <valuemax>1</valuemax>
                <valuelist>
                  <valueentry>
                    <name>Regular</name>
                    <value>1</value>
                  </valueentry>
                </valuelist>
                <value>1</value>
              </parameter>
              <parameter>
                <parameterid>align</parameterid>
                <name>Alignment</name>
                <valuemin>1</valuemin>
                <valuemax>3</valuemax>
                <valuelist>
                  <valueentry>
                    <name>Left</name>
                    <value>1</value>
                  </valueentry>
                  <valueentry>
                    <name>Center</name>
                    <value>2</value>
                  </valueentry>
                  <valueentry>
                    <name>Right</name>
                    <value>3</value>
                  </valueentry>
                </valuelist>
                <value>2</value>
              </parameter>
              <parameter>
                <parameterid>size</parameterid>
                <name>Size</name>
                <valuemin>0</valuemin>
                <valuemax>200</valuemax>
                <value>24</value>
              </parameter>
              <parameter>
                <parameterid>track</parameterid>
                <name>Tracking</name>
                <valuemin>0</valuemin>
                <valuemax>100</valuemax>
                <value>1</value>
              </parameter>
              <parameter>
                <parameterid>lead</parameterid>
                <name>Leading</name>
                <valuemin>-100</valuemin>
                <valuemax>100</valuemax>
                <value>0</value>
              </parameter>
              <parameter>
                <parameterid>aspect</parameterid>
                <name>Aspect</name>
                <valuemin>0</valuemin>
                <valuemax>4</valuemax>
                <value>1</value>
              </parameter>
              <parameter>
                <parameterid>linewidth</parameterid>
                <name>Line Width</name>
                <valuemin>0</valuemin>
                <valuemax>200</valuemax>
                <value>2</value>
              </parameter>
              <parameter>
                <parameterid>linesoft</parameterid>
                <name>Line Softness</name>
                <valuemin>0</valuemin>
                <valuemax>100</valuemax>
                <value>5</value>
              </parameter>
              <parameter>
                <parameterid>textopacity</parameterid>
                <name>Text Opacity</name>
                <valuemin>0</valuemin>
                <valuemax>100</valuemax>
                <value>100</value>
              </parameter>
              <parameter>
                <parameterid>center</parameterid>
                <name>Center</name>
                <value>
                  <horiz>0</horiz>
                  <vert>0.4703703703703703</vert>
                </value>
              </parameter>
              <parameter>
                <parameterid>textcolor</parameterid>
                <name>Text Color</name>
                <value>
                  <alpha>255</alpha>
                  <red>255</red>
                  <green>255</green>
                  <blue>255</blue>
                </value>
              </parameter>
              <parameter>
                <parameterid>supertext</parameterid>
                <name>Text Graphic</name>
              </parameter>
              <parameter>
                <parameterid>linecolor</parameterid>
                <name>Line Color</name>
                <value>
                  <alpha>255</alpha>
                  <red>0</red>
                  <green>0</green>
                  <blue>0</blue>
                </value>
              </parameter>
              <parameter>
                <parameterid>superline</parameterid>
                <name>Line Graphic</name>
              </parameter>
              <parameter>
                <parameterid>part2</parameterid>
                <name>Background Settings</name>
              </parameter>
              <parameter>
                <parameterid>xscale</parameterid>
                <name>Horizontal Size</name>
                <valuemin>0</valuemin>
                <valuemax>200</valuemax>
                <value>0</value>
              </parameter>
              <parameter>
                <parameterid>yscale</parameterid>
                <name>Vertical Size</name>
                <valuemin>0</valuemin>
                <valuemax>200</valuemax>
                <value>0</value>
              </parameter>
              <parameter>
                <parameterid>xoffset</parameterid>
                <name>Horizontal Offset</name>
                <valuemin>-100</valuemin>
                <valuemax>100</valuemax>
                <value>0</value>
              </parameter>
              <parameter>
                <parameterid>yoffset</parameterid>
                <name>Vertical Offset</name>
                <valuemin>-100</valuemin>
                <valuemax>100</valuemax>
                <value>0</value>
              </parameter>
              <parameter>
                <parameterid>backsoft</parameterid>
                <name>Back Soft</name>
                <valuemin>0</valuemin>
                <valuemax>100</valuemax>
                <value>0</value>
              </parameter>
              <parameter>
                <parameterid>backopacity</parameterid>
                <name>Back Opacity</name>
                <valuemin>0</valuemin>
                <valuemax>100</valuemax>
                <value>50</value>
              </parameter>
              <parameter>
                <parameterid>backcolor</parameterid>
                <name>Back Color</name>
                <value>
                  <alpha>255</alpha>
                  <red>255</red>
                  <green>255</green>
                  <blue>255</blue>
                </value>
              </parameter>
              <parameter>
                <parameterid>superback</parameterid>
                <name>Back Graphic</name>
              </parameter>
              <parameter>
                <parameterid>crop</parameterid>
                <name>Crop</name>
                <value>false</value>
              </parameter>
              <parameter>
                <parameterid>autokern</parameterid>
                <name>Auto Kerning</name>
                <value>true</value>
              </parameter>
            </effect>
            <sourcetrack>
              <mediatype>video</mediatype>
            </sourcetrack>
          </generatoritem>
          <generatoritem id="Outline Text1">
            <name>みんなでお客さんの荷物</name>
            <duration>22166.1117</duration>
            <rate>
              <timebase>30</timebase>
              <ntsc>true</ntsc>
            </rate>
            <start>11278.610100000005</start>
            <end>11339.748900000002</end>
            <in>11278.610100000005</in>
            <out>11339.748900000002</out>
            <enabled>true</enabled>
            <anamorphic>false</anamorphic>
            <alphatype>black</alphatype>
            <masterclipid>Outline Text1</masterclipid>
            <effect>
              <name>Outline Text</name>
              <effectid>Outline Text</effectid>
              <effectcategory>Text</effectcategory>
              <effecttype>generator</effecttype>
              <mediatype>video</mediatype>
              <parameter>
                <parameterid>part1</parameterid>
                <name>Text Settings</name>
                <value/>
              </parameter>
              <parameter>
                <parameterid>str</parameterid>
                <name>Text</name>
                <value>みんなでお客さんの荷物</value>
              </parameter>
              <parameter>
                <parameterid>font</parameterid>
                <name>Font</name>
                <value>HiraginoSans-W6</value>
              </parameter>
              <parameter>
                <parameterid>style</parameterid>
                <name>Style</name>
                <valuemin>1</valuemin>
                <valuemax>1</valuemax>
                <valuelist>
                  <valueentry>
                    <name>Regular</name>
                    <value>1</value>
                  </valueentry>
                </valuelist>
                <value>1</value>
              </parameter>
              <parameter>
                <parameterid>align</parameterid>
                <name>Alignment</name>
                <valuemin>1</valuemin>
                <valuemax>3</valuemax>
                <valuelist>
                  <valueentry>
                    <name>Left</name>
                    <value>1</value>
                  </valueentry>
                  <valueentry>
                    <name>Center</name>
                    <value>2</value>
                  </valueentry>
                  <valueentry>
                    <name>Right</name>
                    <value>3</value>
                  </valueentry>
                </valuelist>
                <value>2</value>
              </parameter>
              <parameter>
                <parameterid>size</parameterid>
                <name>Size</name>
                <valuemin>0</valuemin>
                <valuemax>200</valuemax>
                <value>24</value>
              </parameter>
              <parameter>
                <parameterid>track</parameterid>
                <name>Tracking</name>
                <valuemin>0</valuemin>
                <valuemax>100</valuemax>
                <value>1</value>
              </parameter>
              <parameter>
                <parameterid>lead</parameterid>
                <name>Leading</name>
                <valuemin>-100</valuemin>
                <valuemax>100</valuemax>
                <value>0</value>
              </parameter>
              <parameter>
                <parameterid>aspect</parameterid>
                <name>Aspect</name>
                <valuemin>0</valuemin>
                <valuemax>4</valuemax>
                <value>1</value>
              </parameter>
              <parameter>
                <parameterid>linewidth</parameterid>
                <name>Line Width</name>
                <valuemin>0</valuemin>
                <valuemax>200</valuemax>
                <value>2</value>
              </parameter>
              <parameter>
                <parameterid>linesoft</parameterid>
                <name>Line Softness</name>
                <valuemin>0</valuemin>
                <valuemax>100</valuemax>
                <value>5</value>
              </parameter>
              <parameter>
                <parameterid>textopacity</parameterid>
                <name>Text Opacity</name>
                <valuemin>0</valuemin>
                <valuemax>100</valuemax>
                <value>100</value>
              </parameter>
              <parameter>
                <parameterid>center</parameterid>
                <name>Center</name>
                <value>
                  <horiz>0</horiz>
                  <vert>0.4703703703703703</vert>
                </value>
              </parameter>
              <parameter>
                <parameterid>textcolor</parameterid>
                <name>Text Color</name>
                <value>
                  <alpha>255</alpha>
                  <red>255</red>
                  <green>255</green>
                  <blue>255</blue>
                </value>
              </parameter>
              <parameter>
                <parameterid>supertext</parameterid>
                <name>Text Graphic</name>
              </parameter>
              <parameter>
                <parameterid>linecolor</parameterid>
                <name>Line Color</name>
                <value>
                  <alpha>255</alpha>
                  <red>0</red>
                  <green>0</green>
                  <blue>0</blue>
                </value>
              </parameter>
              <parameter>
                <parameterid>superline</parameterid>
                <name>Line Graphic</name>
              </parameter>
              <parameter>
                <parameterid>part2</parameterid>
                <name>Background Settings</name>
              </parameter>
              <parameter>
                <parameterid>xscale</parameterid>
                <name>Horizontal Size</name>
                <valuemin>0</valuemin>
                <valuemax>200</valuemax>
                <value>0</value>
              </parameter>
              <parameter>
                <parameterid>yscale</parameterid>
                <name>Vertical Size</name>
                <valuemin>0</valuemin>
                <valuemax>200</valuemax>
                <value>0</value>
              </parameter>
              <parameter>
                <parameterid>xoffset</parameterid>
                <name>Horizontal Offset</name>
                <valuemin>-100</valuemin>
                <valuemax>100</valuemax>
                <value>0</value>
              </parameter>
              <parameter>
                <parameterid>yoffset</parameterid>
                <name>Vertical Offset</name>
                <valuemin>-100</valuemin>
                <valuemax>100</valuemax>
                <value>0</value>
              </parameter>
              <parameter>
                <parameterid>backsoft</parameterid>
                <name>Back Soft</name>
                <valuemin>0</valuemin>
                <valuemax>100</valuemax>
                <value>0</value>
              </parameter>
              <parameter>
                <parameterid>backopacity</parameterid>
                <name>Back Opacity</name>
                <valuemin>0</valuemin>
                <valuemax>100</valuemax>
                <value>50</value>
              </parameter>
              <parameter>
                <parameterid>backcolor</parameterid>
                <name>Back Color</name>
                <value>
                  <alpha>255</alpha>
                  <red>255</red>
                  <green>255</green>
                  <blue>255</blue>
                </value>
              </parameter>
              <parameter>
                <parameterid>superback</parameterid>
                <name>Back Graphic</name>
              </parameter>
              <parameter>
                <parameterid>crop</parameterid>
                <name>Crop</name>
                <value>false</value>
              </parameter>
              <parameter>
                <parameterid>autokern</parameterid>
                <name>Auto Kerning</name>
                <value>true</value>
              </parameter>
            </effect>
            <sourcetrack>
              <mediatype>video</mediatype>
            </sourcetrack>
          </generatoritem>
          <generatoritem id="Outline Text1">
            <name>大変濡れちゃうなとかやったりだって</name>
            <duration>22166.1117</duration>
            <rate>
              <timebase>30</timebase>
              <ntsc>true</ntsc>
            </rate>
            <start>11339.748900000002</start>
            <end>11437.151400000004</end>
            <in>11339.748900000002</in>
            <out>11437.151400000004</out>
            <enabled>true</enabled>
            <anamorphic>false</anamorphic>
            <alphatype>black</alphatype>
            <masterclipid>Outline Text1</masterclipid>
            <effect>
              <name>Outline Text</name>
              <effectid>Outline Text</effectid>
              <effectcategory>Text</effectcategory>
              <effecttype>generator</effecttype>
              <mediatype>video</mediatype>
              <parameter>
                <parameterid>part1</parameterid>
                <name>Text Settings</name>
                <value/>
              </parameter>
              <parameter>
                <parameterid>str</parameterid>
                <name>Text</name>
                <value>大変濡れちゃうなとかやったりだって</value>
              </parameter>
              <parameter>
                <parameterid>font</parameterid>
                <name>Font</name>
                <value>HiraginoSans-W6</value>
              </parameter>
              <parameter>
                <parameterid>style</parameterid>
                <name>Style</name>
                <valuemin>1</valuemin>
                <valuemax>1</valuemax>
                <valuelist>
                  <valueentry>
                    <name>Regular</name>
                    <value>1</value>
                  </valueentry>
                </valuelist>
                <value>1</value>
              </parameter>
              <parameter>
                <parameterid>align</parameterid>
                <name>Alignment</name>
                <valuemin>1</valuemin>
                <valuemax>3</valuemax>
                <valuelist>
                  <valueentry>
                    <name>Left</name>
                    <value>1</value>
                  </valueentry>
                  <valueentry>
                    <name>Center</name>
                    <value>2</value>
                  </valueentry>
                  <valueentry>
                    <name>Right</name>
                    <value>3</value>
                  </valueentry>
                </valuelist>
                <value>2</value>
              </parameter>
              <parameter>
                <parameterid>size</parameterid>
                <name>Size</name>
                <valuemin>0</valuemin>
                <valuemax>200</valuemax>
                <value>24</value>
              </parameter>
              <parameter>
                <parameterid>track</parameterid>
                <name>Tracking</name>
                <valuemin>0</valuemin>
                <valuemax>100</valuemax>
                <value>1</value>
              </parameter>
              <parameter>
                <parameterid>lead</parameterid>
                <name>Leading</name>
                <valuemin>-100</valuemin>
                <valuemax>100</valuemax>
                <value>0</value>
              </parameter>
              <parameter>
                <parameterid>aspect</parameterid>
                <name>Aspect</name>
                <valuemin>0</valuemin>
                <valuemax>4</valuemax>
                <value>1</value>
              </parameter>
              <parameter>
                <parameterid>linewidth</parameterid>
                <name>Line Width</name>
                <valuemin>0</valuemin>
                <valuemax>200</valuemax>
                <value>2</value>
              </parameter>
              <parameter>
                <parameterid>linesoft</parameterid>
                <name>Line Softness</name>
                <valuemin>0</valuemin>
                <valuemax>100</valuemax>
                <value>5</value>
              </parameter>
              <parameter>
                <parameterid>textopacity</parameterid>
                <name>Text Opacity</name>
                <valuemin>0</valuemin>
                <valuemax>100</valuemax>
                <value>100</value>
              </parameter>
              <parameter>
                <parameterid>center</parameterid>
                <name>Center</name>
                <value>
                  <horiz>0</horiz>
                  <vert>0.4703703703703703</vert>
                </value>
              </parameter>
              <parameter>
                <parameterid>textcolor</parameterid>
                <name>Text Color</name>
                <value>
                  <alpha>255</alpha>
                  <red>255</red>
                  <green>255</green>
                  <blue>255</blue>
                </value>
              </parameter>
              <parameter>
                <parameterid>supertext</parameterid>
                <name>Text Graphic</name>
              </parameter>
              <parameter>
                <parameterid>linecolor</parameterid>
                <name>Line Color</name>
                <value>
                  <alpha>255</alpha>
                  <red>0</red>
                  <green>0</green>
                  <blue>0</blue>
                </value>
              </parameter>
              <parameter>
                <parameterid>superline</parameterid>
                <name>Line Graphic</name>
              </parameter>
              <parameter>
                <parameterid>part2</parameterid>
                <name>Background Settings</name>
              </parameter>
              <parameter>
                <parameterid>xscale</parameterid>
                <name>Horizontal Size</name>
                <valuemin>0</valuemin>
                <valuemax>200</valuemax>
                <value>0</value>
              </parameter>
              <parameter>
                <parameterid>yscale</parameterid>
                <name>Vertical Size</name>
                <valuemin>0</valuemin>
                <valuemax>200</valuemax>
                <value>0</value>
              </parameter>
              <parameter>
                <parameterid>xoffset</parameterid>
                <name>Horizontal Offset</name>
                <valuemin>-100</valuemin>
                <valuemax>100</valuemax>
                <value>0</value>
              </parameter>
              <parameter>
                <parameterid>yoffset</parameterid>
                <name>Vertical Offset</name>
                <valuemin>-100</valuemin>
                <valuemax>100</valuemax>
                <value>0</value>
              </parameter>
              <parameter>
                <parameterid>backsoft</parameterid>
                <name>Back Soft</name>
                <valuemin>0</valuemin>
                <valuemax>100</valuemax>
                <value>0</value>
              </parameter>
              <parameter>
                <parameterid>backopacity</parameterid>
                <name>Back Opacity</name>
                <valuemin>0</valuemin>
                <valuemax>100</valuemax>
                <value>50</value>
              </parameter>
              <parameter>
                <parameterid>backcolor</parameterid>
                <name>Back Color</name>
                <value>
                  <alpha>255</alpha>
                  <red>255</red>
                  <green>255</green>
                  <blue>255</blue>
                </value>
              </parameter>
              <parameter>
                <parameterid>superback</parameterid>
                <name>Back Graphic</name>
              </parameter>
              <parameter>
                <parameterid>crop</parameterid>
                <name>Crop</name>
                <value>false</value>
              </parameter>
              <parameter>
                <parameterid>autokern</parameterid>
                <name>Auto Kerning</name>
                <value>true</value>
              </parameter>
            </effect>
            <sourcetrack>
              <mediatype>video</mediatype>
            </sourcetrack>
          </generatoritem>
          <generatoritem id="Outline Text1">
            <name>私たちカッパでイベントやったこともあるんですよ</name>
            <duration>22166.1117</duration>
            <rate>
              <timebase>30</timebase>
              <ntsc>true</ntsc>
            </rate>
            <start>11437.151400000004</start>
            <end>11512.376100000009</end>
            <in>11437.151400000004</in>
            <out>11512.376100000009</out>
            <enabled>true</enabled>
            <anamorphic>false</anamorphic>
            <alphatype>black</alphatype>
            <masterclipid>Outline Text1</masterclipid>
            <effect>
              <name>Outline Text</name>
              <effectid>Outline Text</effectid>
              <effectcategory>Text</effectcategory>
              <effecttype>generator</effecttype>
              <mediatype>video</mediatype>
              <parameter>
                <parameterid>part1</parameterid>
                <name>Text Settings</name>
                <value/>
              </parameter>
              <parameter>
                <parameterid>str</parameterid>
                <name>Text</name>
                <value>私たちカッパでイベントやったこともあるんですよ</value>
              </parameter>
              <parameter>
                <parameterid>font</parameterid>
                <name>Font</name>
                <value>HiraginoSans-W6</value>
              </parameter>
              <parameter>
                <parameterid>style</parameterid>
                <name>Style</name>
                <valuemin>1</valuemin>
                <valuemax>1</valuemax>
                <valuelist>
                  <valueentry>
                    <name>Regular</name>
                    <value>1</value>
                  </valueentry>
                </valuelist>
                <value>1</value>
              </parameter>
              <parameter>
                <parameterid>align</parameterid>
                <name>Alignment</name>
                <valuemin>1</valuemin>
                <valuemax>3</valuemax>
                <valuelist>
                  <valueentry>
                    <name>Left</name>
                    <value>1</value>
                  </valueentry>
                  <valueentry>
                    <name>Center</name>
                    <value>2</value>
                  </valueentry>
                  <valueentry>
                    <name>Right</name>
                    <value>3</value>
                  </valueentry>
                </valuelist>
                <value>2</value>
              </parameter>
              <parameter>
                <parameterid>size</parameterid>
                <name>Size</name>
                <valuemin>0</valuemin>
                <valuemax>200</valuemax>
                <value>24</value>
              </parameter>
              <parameter>
                <parameterid>track</parameterid>
                <name>Tracking</name>
                <valuemin>0</valuemin>
                <valuemax>100</valuemax>
                <value>1</value>
              </parameter>
              <parameter>
                <parameterid>lead</parameterid>
                <name>Leading</name>
                <valuemin>-100</valuemin>
                <valuemax>100</valuemax>
                <value>0</value>
              </parameter>
              <parameter>
                <parameterid>aspect</parameterid>
                <name>Aspect</name>
                <valuemin>0</valuemin>
                <valuemax>4</valuemax>
                <value>1</value>
              </parameter>
              <parameter>
                <parameterid>linewidth</parameterid>
                <name>Line Width</name>
                <valuemin>0</valuemin>
                <valuemax>200</valuemax>
                <value>2</value>
              </parameter>
              <parameter>
                <parameterid>linesoft</parameterid>
                <name>Line Softness</name>
                <valuemin>0</valuemin>
                <valuemax>100</valuemax>
                <value>5</value>
              </parameter>
              <parameter>
                <parameterid>textopacity</parameterid>
                <name>Text Opacity</name>
                <valuemin>0</valuemin>
                <valuemax>100</valuemax>
                <value>100</value>
              </parameter>
              <parameter>
                <parameterid>center</parameterid>
                <name>Center</name>
                <value>
                  <horiz>0</horiz>
                  <vert>0.4703703703703703</vert>
                </value>
              </parameter>
              <parameter>
                <parameterid>textcolor</parameterid>
                <name>Text Color</name>
                <value>
                  <alpha>255</alpha>
                  <red>255</red>
                  <green>255</green>
                  <blue>255</blue>
                </value>
              </parameter>
              <parameter>
                <parameterid>supertext</parameterid>
                <name>Text Graphic</name>
              </parameter>
              <parameter>
                <parameterid>linecolor</parameterid>
                <name>Line Color</name>
                <value>
                  <alpha>255</alpha>
                  <red>0</red>
                  <green>0</green>
                  <blue>0</blue>
                </value>
              </parameter>
              <parameter>
                <parameterid>superline</parameterid>
                <name>Line Graphic</name>
              </parameter>
              <parameter>
                <parameterid>part2</parameterid>
                <name>Background Settings</name>
              </parameter>
              <parameter>
                <parameterid>xscale</parameterid>
                <name>Horizontal Size</name>
                <valuemin>0</valuemin>
                <valuemax>200</valuemax>
                <value>0</value>
              </parameter>
              <parameter>
                <parameterid>yscale</parameterid>
                <name>Vertical Size</name>
                <valuemin>0</valuemin>
                <valuemax>200</valuemax>
                <value>0</value>
              </parameter>
              <parameter>
                <parameterid>xoffset</parameterid>
                <name>Horizontal Offset</name>
                <valuemin>-100</valuemin>
                <valuemax>100</valuemax>
                <value>0</value>
              </parameter>
              <parameter>
                <parameterid>yoffset</parameterid>
                <name>Vertical Offset</name>
                <valuemin>-100</valuemin>
                <valuemax>100</valuemax>
                <value>0</value>
              </parameter>
              <parameter>
                <parameterid>backsoft</parameterid>
                <name>Back Soft</name>
                <valuemin>0</valuemin>
                <valuemax>100</valuemax>
                <value>0</value>
              </parameter>
              <parameter>
                <parameterid>backopacity</parameterid>
                <name>Back Opacity</name>
                <valuemin>0</valuemin>
                <valuemax>100</valuemax>
                <value>50</value>
              </parameter>
              <parameter>
                <parameterid>backcolor</parameterid>
                <name>Back Color</name>
                <value>
                  <alpha>255</alpha>
                  <red>255</red>
                  <green>255</green>
                  <blue>255</blue>
                </value>
              </parameter>
              <parameter>
                <parameterid>superback</parameterid>
                <name>Back Graphic</name>
              </parameter>
              <parameter>
                <parameterid>crop</parameterid>
                <name>Crop</name>
                <value>false</value>
              </parameter>
              <parameter>
                <parameterid>autokern</parameterid>
                <name>Auto Kerning</name>
                <value>true</value>
              </parameter>
            </effect>
            <sourcetrack>
              <mediatype>video</mediatype>
            </sourcetrack>
          </generatoritem>
          <generatoritem id="Outline Text1">
            <name>本当に雨が降るんですよ</name>
            <duration>22166.1117</duration>
            <rate>
              <timebase>30</timebase>
              <ntsc>true</ntsc>
            </rate>
            <start>11512.376100000009</start>
            <end>11565.72270000001</end>
            <in>11512.376100000009</in>
            <out>11565.72270000001</out>
            <enabled>true</enabled>
            <anamorphic>false</anamorphic>
            <alphatype>black</alphatype>
            <masterclipid>Outline Text1</masterclipid>
            <effect>
              <name>Outline Text</name>
              <effectid>Outline Text</effectid>
              <effectcategory>Text</effectcategory>
              <effecttype>generator</effecttype>
              <mediatype>video</mediatype>
              <parameter>
                <parameterid>part1</parameterid>
                <name>Text Settings</name>
                <value/>
              </parameter>
              <parameter>
                <parameterid>str</parameterid>
                <name>Text</name>
                <value>本当に雨が降るんですよ</value>
              </parameter>
              <parameter>
                <parameterid>font</parameterid>
                <name>Font</name>
                <value>HiraginoSans-W6</value>
              </parameter>
              <parameter>
                <parameterid>style</parameterid>
                <name>Style</name>
                <valuemin>1</valuemin>
                <valuemax>1</valuemax>
                <valuelist>
                  <valueentry>
                    <name>Regular</name>
                    <value>1</value>
                  </valueentry>
                </valuelist>
                <value>1</value>
              </parameter>
              <parameter>
                <parameterid>align</parameterid>
                <name>Alignment</name>
                <valuemin>1</valuemin>
                <valuemax>3</valuemax>
                <valuelist>
                  <valueentry>
                    <name>Left</name>
                    <value>1</value>
                  </valueentry>
                  <valueentry>
                    <name>Center</name>
                    <value>2</value>
                  </valueentry>
                  <valueentry>
                    <name>Right</name>
                    <value>3</value>
                  </valueentry>
                </valuelist>
                <value>2</value>
              </parameter>
              <parameter>
                <parameterid>size</parameterid>
                <name>Size</name>
                <valuemin>0</valuemin>
                <valuemax>200</valuemax>
                <value>24</value>
              </parameter>
              <parameter>
                <parameterid>track</parameterid>
                <name>Tracking</name>
                <valuemin>0</valuemin>
                <valuemax>100</valuemax>
                <value>1</value>
              </parameter>
              <parameter>
                <parameterid>lead</parameterid>
                <name>Leading</name>
                <valuemin>-100</valuemin>
                <valuemax>100</valuemax>
                <value>0</value>
              </parameter>
              <parameter>
                <parameterid>aspect</parameterid>
                <name>Aspect</name>
                <valuemin>0</valuemin>
                <valuemax>4</valuemax>
                <value>1</value>
              </parameter>
              <parameter>
                <parameterid>linewidth</parameterid>
                <name>Line Width</name>
                <valuemin>0</valuemin>
                <valuemax>200</valuemax>
                <value>2</value>
              </parameter>
              <parameter>
                <parameterid>linesoft</parameterid>
                <name>Line Softness</name>
                <valuemin>0</valuemin>
                <valuemax>100</valuemax>
                <value>5</value>
              </parameter>
              <parameter>
                <parameterid>textopacity</parameterid>
                <name>Text Opacity</name>
                <valuemin>0</valuemin>
                <valuemax>100</valuemax>
                <value>100</value>
              </parameter>
              <parameter>
                <parameterid>center</parameterid>
                <name>Center</name>
                <value>
                  <horiz>0</horiz>
                  <vert>0.4703703703703703</vert>
                </value>
              </parameter>
              <parameter>
                <parameterid>textcolor</parameterid>
                <name>Text Color</name>
                <value>
                  <alpha>255</alpha>
                  <red>255</red>
                  <green>255</green>
                  <blue>255</blue>
                </value>
              </parameter>
              <parameter>
                <parameterid>supertext</parameterid>
                <name>Text Graphic</name>
              </parameter>
              <parameter>
                <parameterid>linecolor</parameterid>
                <name>Line Color</name>
                <value>
                  <alpha>255</alpha>
                  <red>0</red>
                  <green>0</green>
                  <blue>0</blue>
                </value>
              </parameter>
              <parameter>
                <parameterid>superline</parameterid>
                <name>Line Graphic</name>
              </parameter>
              <parameter>
                <parameterid>part2</parameterid>
                <name>Background Settings</name>
              </parameter>
              <parameter>
                <parameterid>xscale</parameterid>
                <name>Horizontal Size</name>
                <valuemin>0</valuemin>
                <valuemax>200</valuemax>
                <value>0</value>
              </parameter>
              <parameter>
                <parameterid>yscale</parameterid>
                <name>Vertical Size</name>
                <valuemin>0</valuemin>
                <valuemax>200</valuemax>
                <value>0</value>
              </parameter>
              <parameter>
                <parameterid>xoffset</parameterid>
                <name>Horizontal Offset</name>
                <valuemin>-100</valuemin>
                <valuemax>100</valuemax>
                <value>0</value>
              </parameter>
              <parameter>
                <parameterid>yoffset</parameterid>
                <name>Vertical Offset</name>
                <valuemin>-100</valuemin>
                <valuemax>100</valuemax>
                <value>0</value>
              </parameter>
              <parameter>
                <parameterid>backsoft</parameterid>
                <name>Back Soft</name>
                <valuemin>0</valuemin>
                <valuemax>100</valuemax>
                <value>0</value>
              </parameter>
              <parameter>
                <parameterid>backopacity</parameterid>
                <name>Back Opacity</name>
                <valuemin>0</valuemin>
                <valuemax>100</valuemax>
                <value>50</value>
              </parameter>
              <parameter>
                <parameterid>backcolor</parameterid>
                <name>Back Color</name>
                <value>
                  <alpha>255</alpha>
                  <red>255</red>
                  <green>255</green>
                  <blue>255</blue>
                </value>
              </parameter>
              <parameter>
                <parameterid>superback</parameterid>
                <name>Back Graphic</name>
              </parameter>
              <parameter>
                <parameterid>crop</parameterid>
                <name>Crop</name>
                <value>false</value>
              </parameter>
              <parameter>
                <parameterid>autokern</parameterid>
                <name>Auto Kerning</name>
                <value>true</value>
              </parameter>
            </effect>
            <sourcetrack>
              <mediatype>video</mediatype>
            </sourcetrack>
          </generatoritem>
          <generatoritem id="Outline Text1">
            <name>絶対に外は雨降るんで</name>
            <duration>22166.1117</duration>
            <rate>
              <timebase>30</timebase>
              <ntsc>true</ntsc>
            </rate>
            <start>11565.72270000001</start>
            <end>11638.849500000008</end>
            <in>11565.72270000001</in>
            <out>11638.849500000008</out>
            <enabled>true</enabled>
            <anamorphic>false</anamorphic>
            <alphatype>black</alphatype>
            <masterclipid>Outline Text1</masterclipid>
            <effect>
              <name>Outline Text</name>
              <effectid>Outline Text</effectid>
              <effectcategory>Text</effectcategory>
              <effecttype>generator</effecttype>
              <mediatype>video</mediatype>
              <parameter>
                <parameterid>part1</parameterid>
                <name>Text Settings</name>
                <value/>
              </parameter>
              <parameter>
                <parameterid>str</parameterid>
                <name>Text</name>
                <value>絶対に外は雨降るんで</value>
              </parameter>
              <parameter>
                <parameterid>font</parameterid>
                <name>Font</name>
                <value>HiraginoSans-W6</value>
              </parameter>
              <parameter>
                <parameterid>style</parameterid>
                <name>Style</name>
                <valuemin>1</valuemin>
                <valuemax>1</valuemax>
                <valuelist>
                  <valueentry>
                    <name>Regular</name>
                    <value>1</value>
                  </valueentry>
                </valuelist>
                <value>1</value>
              </parameter>
              <parameter>
                <parameterid>align</parameterid>
                <name>Alignment</name>
                <valuemin>1</valuemin>
                <valuemax>3</valuemax>
                <valuelist>
                  <valueentry>
                    <name>Left</name>
                    <value>1</value>
                  </valueentry>
                  <valueentry>
                    <name>Center</name>
                    <value>2</value>
                  </valueentry>
                  <valueentry>
                    <name>Right</name>
                    <value>3</value>
                  </valueentry>
                </valuelist>
                <value>2</value>
              </parameter>
              <parameter>
                <parameterid>size</parameterid>
                <name>Size</name>
                <valuemin>0</valuemin>
                <valuemax>200</valuemax>
                <value>24</value>
              </parameter>
              <parameter>
                <parameterid>track</parameterid>
                <name>Tracking</name>
                <valuemin>0</valuemin>
                <valuemax>100</valuemax>
                <value>1</value>
              </parameter>
              <parameter>
                <parameterid>lead</parameterid>
                <name>Leading</name>
                <valuemin>-100</valuemin>
                <valuemax>100</valuemax>
                <value>0</value>
              </parameter>
              <parameter>
                <parameterid>aspect</parameterid>
                <name>Aspect</name>
                <valuemin>0</valuemin>
                <valuemax>4</valuemax>
                <value>1</value>
              </parameter>
              <parameter>
                <parameterid>linewidth</parameterid>
                <name>Line Width</name>
                <valuemin>0</valuemin>
                <valuemax>200</valuemax>
                <value>2</value>
              </parameter>
              <parameter>
                <parameterid>linesoft</parameterid>
                <name>Line Softness</name>
                <valuemin>0</valuemin>
                <valuemax>100</valuemax>
                <value>5</value>
              </parameter>
              <parameter>
                <parameterid>textopacity</parameterid>
                <name>Text Opacity</name>
                <valuemin>0</valuemin>
                <valuemax>100</valuemax>
                <value>100</value>
              </parameter>
              <parameter>
                <parameterid>center</parameterid>
                <name>Center</name>
                <value>
                  <horiz>0</horiz>
                  <vert>0.4703703703703703</vert>
                </value>
              </parameter>
              <parameter>
                <parameterid>textcolor</parameterid>
                <name>Text Color</name>
                <value>
                  <alpha>255</alpha>
                  <red>255</red>
                  <green>255</green>
                  <blue>255</blue>
                </value>
              </parameter>
              <parameter>
                <parameterid>supertext</parameterid>
                <name>Text Graphic</name>
              </parameter>
              <parameter>
                <parameterid>linecolor</parameterid>
                <name>Line Color</name>
                <value>
                  <alpha>255</alpha>
                  <red>0</red>
                  <green>0</green>
                  <blue>0</blue>
                </value>
              </parameter>
              <parameter>
                <parameterid>superline</parameterid>
                <name>Line Graphic</name>
              </parameter>
              <parameter>
                <parameterid>part2</parameterid>
                <name>Background Settings</name>
              </parameter>
              <parameter>
                <parameterid>xscale</parameterid>
                <name>Horizontal Size</name>
                <valuemin>0</valuemin>
                <valuemax>200</valuemax>
                <value>0</value>
              </parameter>
              <parameter>
                <parameterid>yscale</parameterid>
                <name>Vertical Size</name>
                <valuemin>0</valuemin>
                <valuemax>200</valuemax>
                <value>0</value>
              </parameter>
              <parameter>
                <parameterid>xoffset</parameterid>
                <name>Horizontal Offset</name>
                <valuemin>-100</valuemin>
                <valuemax>100</valuemax>
                <value>0</value>
              </parameter>
              <parameter>
                <parameterid>yoffset</parameterid>
                <name>Vertical Offset</name>
                <valuemin>-100</valuemin>
                <valuemax>100</valuemax>
                <value>0</value>
              </parameter>
              <parameter>
                <parameterid>backsoft</parameterid>
                <name>Back Soft</name>
                <valuemin>0</valuemin>
                <valuemax>100</valuemax>
                <value>0</value>
              </parameter>
              <parameter>
                <parameterid>backopacity</parameterid>
                <name>Back Opacity</name>
                <valuemin>0</valuemin>
                <valuemax>100</valuemax>
                <value>50</value>
              </parameter>
              <parameter>
                <parameterid>backcolor</parameterid>
                <name>Back Color</name>
                <value>
                  <alpha>255</alpha>
                  <red>255</red>
                  <green>255</green>
                  <blue>255</blue>
                </value>
              </parameter>
              <parameter>
                <parameterid>superback</parameterid>
                <name>Back Graphic</name>
              </parameter>
              <parameter>
                <parameterid>crop</parameterid>
                <name>Crop</name>
                <value>false</value>
              </parameter>
              <parameter>
                <parameterid>autokern</parameterid>
                <name>Auto Kerning</name>
                <value>true</value>
              </parameter>
            </effect>
            <sourcetrack>
              <mediatype>video</mediatype>
            </sourcetrack>
          </generatoritem>
          <generatoritem id="Outline Text1">
            <name>オルラブのイベントで雨降らなかったら</name>
            <duration>22166.1117</duration>
            <rate>
              <timebase>30</timebase>
              <ntsc>true</ntsc>
            </rate>
            <start>11638.849500000008</start>
            <end>11724.264000000008</end>
            <in>11638.849500000008</in>
            <out>11724.264000000008</out>
            <enabled>true</enabled>
            <anamorphic>false</anamorphic>
            <alphatype>black</alphatype>
            <masterclipid>Outline Text1</masterclipid>
            <effect>
              <name>Outline Text</name>
              <effectid>Outline Text</effectid>
              <effectcategory>Text</effectcategory>
              <effecttype>generator</effecttype>
              <mediatype>video</mediatype>
              <parameter>
                <parameterid>part1</parameterid>
                <name>Text Settings</name>
                <value/>
              </parameter>
              <parameter>
                <parameterid>str</parameterid>
                <name>Text</name>
                <value>オルラブのイベントで雨降らなかったら</value>
              </parameter>
              <parameter>
                <parameterid>font</parameterid>
                <name>Font</name>
                <value>HiraginoSans-W6</value>
              </parameter>
              <parameter>
                <parameterid>style</parameterid>
                <name>Style</name>
                <valuemin>1</valuemin>
                <valuemax>1</valuemax>
                <valuelist>
                  <valueentry>
                    <name>Regular</name>
                    <value>1</value>
                  </valueentry>
                </valuelist>
                <value>1</value>
              </parameter>
              <parameter>
                <parameterid>align</parameterid>
                <name>Alignment</name>
                <valuemin>1</valuemin>
                <valuemax>3</valuemax>
                <valuelist>
                  <valueentry>
                    <name>Left</name>
                    <value>1</value>
                  </valueentry>
                  <valueentry>
                    <name>Center</name>
                    <value>2</value>
                  </valueentry>
                  <valueentry>
                    <name>Right</name>
                    <value>3</value>
                  </valueentry>
                </valuelist>
                <value>2</value>
              </parameter>
              <parameter>
                <parameterid>size</parameterid>
                <name>Size</name>
                <valuemin>0</valuemin>
                <valuemax>200</valuemax>
                <value>24</value>
              </parameter>
              <parameter>
                <parameterid>track</parameterid>
                <name>Tracking</name>
                <valuemin>0</valuemin>
                <valuemax>100</valuemax>
                <value>1</value>
              </parameter>
              <parameter>
                <parameterid>lead</parameterid>
                <name>Leading</name>
                <valuemin>-100</valuemin>
                <valuemax>100</valuemax>
                <value>0</value>
              </parameter>
              <parameter>
                <parameterid>aspect</parameterid>
                <name>Aspect</name>
                <valuemin>0</valuemin>
                <valuemax>4</valuemax>
                <value>1</value>
              </parameter>
              <parameter>
                <parameterid>linewidth</parameterid>
                <name>Line Width</name>
                <valuemin>0</valuemin>
                <valuemax>200</valuemax>
                <value>2</value>
              </parameter>
              <parameter>
                <parameterid>linesoft</parameterid>
                <name>Line Softness</name>
                <valuemin>0</valuemin>
                <valuemax>100</valuemax>
                <value>5</value>
              </parameter>
              <parameter>
                <parameterid>textopacity</parameterid>
                <name>Text Opacity</name>
                <valuemin>0</valuemin>
                <valuemax>100</valuemax>
                <value>100</value>
              </parameter>
              <parameter>
                <parameterid>center</parameterid>
                <name>Center</name>
                <value>
                  <horiz>0</horiz>
                  <vert>0.4703703703703703</vert>
                </value>
              </parameter>
              <parameter>
                <parameterid>textcolor</parameterid>
                <name>Text Color</name>
                <value>
                  <alpha>255</alpha>
                  <red>255</red>
                  <green>255</green>
                  <blue>255</blue>
                </value>
              </parameter>
              <parameter>
                <parameterid>supertext</parameterid>
                <name>Text Graphic</name>
              </parameter>
              <parameter>
                <parameterid>linecolor</parameterid>
                <name>Line Color</name>
                <value>
                  <alpha>255</alpha>
                  <red>0</red>
                  <green>0</green>
                  <blue>0</blue>
                </value>
              </parameter>
              <parameter>
                <parameterid>superline</parameterid>
                <name>Line Graphic</name>
              </parameter>
              <parameter>
                <parameterid>part2</parameterid>
                <name>Background Settings</name>
              </parameter>
              <parameter>
                <parameterid>xscale</parameterid>
                <name>Horizontal Size</name>
                <valuemin>0</valuemin>
                <valuemax>200</valuemax>
                <value>0</value>
              </parameter>
              <parameter>
                <parameterid>yscale</parameterid>
                <name>Vertical Size</name>
                <valuemin>0</valuemin>
                <valuemax>200</valuemax>
                <value>0</value>
              </parameter>
              <parameter>
                <parameterid>xoffset</parameterid>
                <name>Horizontal Offset</name>
                <valuemin>-100</valuemin>
                <valuemax>100</valuemax>
                <value>0</value>
              </parameter>
              <parameter>
                <parameterid>yoffset</parameterid>
                <name>Vertical Offset</name>
                <valuemin>-100</valuemin>
                <valuemax>100</valuemax>
                <value>0</value>
              </parameter>
              <parameter>
                <parameterid>backsoft</parameterid>
                <name>Back Soft</name>
                <valuemin>0</valuemin>
                <valuemax>100</valuemax>
                <value>0</value>
              </parameter>
              <parameter>
                <parameterid>backopacity</parameterid>
                <name>Back Opacity</name>
                <valuemin>0</valuemin>
                <valuemax>100</valuemax>
                <value>50</value>
              </parameter>
              <parameter>
                <parameterid>backcolor</parameterid>
                <name>Back Color</name>
                <value>
                  <alpha>255</alpha>
                  <red>255</red>
                  <green>255</green>
                  <blue>255</blue>
                </value>
              </parameter>
              <parameter>
                <parameterid>superback</parameterid>
                <name>Back Graphic</name>
              </parameter>
              <parameter>
                <parameterid>crop</parameterid>
                <name>Crop</name>
                <value>false</value>
              </parameter>
              <parameter>
                <parameterid>autokern</parameterid>
                <name>Auto Kerning</name>
                <value>true</value>
              </parameter>
            </effect>
            <sourcetrack>
              <mediatype>video</mediatype>
            </sourcetrack>
          </generatoritem>
          <generatoritem id="Outline Text1">
            <name>ファンのみんながオルラブなのかみたいな</name>
            <duration>22166.1117</duration>
            <rate>
              <timebase>30</timebase>
              <ntsc>true</ntsc>
            </rate>
            <start>11724.264000000008</start>
            <end>11781.506700000007</end>
            <in>11724.264000000008</in>
            <out>11781.506700000007</out>
            <enabled>true</enabled>
            <anamorphic>false</anamorphic>
            <alphatype>black</alphatype>
            <masterclipid>Outline Text1</masterclipid>
            <effect>
              <name>Outline Text</name>
              <effectid>Outline Text</effectid>
              <effectcategory>Text</effectcategory>
              <effecttype>generator</effecttype>
              <mediatype>video</mediatype>
              <parameter>
                <parameterid>part1</parameterid>
                <name>Text Settings</name>
                <value/>
              </parameter>
              <parameter>
                <parameterid>str</parameterid>
                <name>Text</name>
                <value>ファンのみんながオルラブなのかみたいな</value>
              </parameter>
              <parameter>
                <parameterid>font</parameterid>
                <name>Font</name>
                <value>HiraginoSans-W6</value>
              </parameter>
              <parameter>
                <parameterid>style</parameterid>
                <name>Style</name>
                <valuemin>1</valuemin>
                <valuemax>1</valuemax>
                <valuelist>
                  <valueentry>
                    <name>Regular</name>
                    <value>1</value>
                  </valueentry>
                </valuelist>
                <value>1</value>
              </parameter>
              <parameter>
                <parameterid>align</parameterid>
                <name>Alignment</name>
                <valuemin>1</valuemin>
                <valuemax>3</valuemax>
                <valuelist>
                  <valueentry>
                    <name>Left</name>
                    <value>1</value>
                  </valueentry>
                  <valueentry>
                    <name>Center</name>
                    <value>2</value>
                  </valueentry>
                  <valueentry>
                    <name>Right</name>
                    <value>3</value>
                  </valueentry>
                </valuelist>
                <value>2</value>
              </parameter>
              <parameter>
                <parameterid>size</parameterid>
                <name>Size</name>
                <valuemin>0</valuemin>
                <valuemax>200</valuemax>
                <value>24</value>
              </parameter>
              <parameter>
                <parameterid>track</parameterid>
                <name>Tracking</name>
                <valuemin>0</valuemin>
                <valuemax>100</valuemax>
                <value>1</value>
              </parameter>
              <parameter>
                <parameterid>lead</parameterid>
                <name>Leading</name>
                <valuemin>-100</valuemin>
                <valuemax>100</valuemax>
                <value>0</value>
              </parameter>
              <parameter>
                <parameterid>aspect</parameterid>
                <name>Aspect</name>
                <valuemin>0</valuemin>
                <valuemax>4</valuemax>
                <value>1</value>
              </parameter>
              <parameter>
                <parameterid>linewidth</parameterid>
                <name>Line Width</name>
                <valuemin>0</valuemin>
                <valuemax>200</valuemax>
                <value>2</value>
              </parameter>
              <parameter>
                <parameterid>linesoft</parameterid>
                <name>Line Softness</name>
                <valuemin>0</valuemin>
                <valuemax>100</valuemax>
                <value>5</value>
              </parameter>
              <parameter>
                <parameterid>textopacity</parameterid>
                <name>Text Opacity</name>
                <valuemin>0</valuemin>
                <valuemax>100</valuemax>
                <value>100</value>
              </parameter>
              <parameter>
                <parameterid>center</parameterid>
                <name>Center</name>
                <value>
                  <horiz>0</horiz>
                  <vert>0.4703703703703703</vert>
                </value>
              </parameter>
              <parameter>
                <parameterid>textcolor</parameterid>
                <name>Text Color</name>
                <value>
                  <alpha>255</alpha>
                  <red>255</red>
                  <green>255</green>
                  <blue>255</blue>
                </value>
              </parameter>
              <parameter>
                <parameterid>supertext</parameterid>
                <name>Text Graphic</name>
              </parameter>
              <parameter>
                <parameterid>linecolor</parameterid>
                <name>Line Color</name>
                <value>
                  <alpha>255</alpha>
                  <red>0</red>
                  <green>0</green>
                  <blue>0</blue>
                </value>
              </parameter>
              <parameter>
                <parameterid>superline</parameterid>
                <name>Line Graphic</name>
              </parameter>
              <parameter>
                <parameterid>part2</parameterid>
                <name>Background Settings</name>
              </parameter>
              <parameter>
                <parameterid>xscale</parameterid>
                <name>Horizontal Size</name>
                <valuemin>0</valuemin>
                <valuemax>200</valuemax>
                <value>0</value>
              </parameter>
              <parameter>
                <parameterid>yscale</parameterid>
                <name>Vertical Size</name>
                <valuemin>0</valuemin>
                <valuemax>200</valuemax>
                <value>0</value>
              </parameter>
              <parameter>
                <parameterid>xoffset</parameterid>
                <name>Horizontal Offset</name>
                <valuemin>-100</valuemin>
                <valuemax>100</valuemax>
                <value>0</value>
              </parameter>
              <parameter>
                <parameterid>yoffset</parameterid>
                <name>Vertical Offset</name>
                <valuemin>-100</valuemin>
                <valuemax>100</valuemax>
                <value>0</value>
              </parameter>
              <parameter>
                <parameterid>backsoft</parameterid>
                <name>Back Soft</name>
                <valuemin>0</valuemin>
                <valuemax>100</valuemax>
                <value>0</value>
              </parameter>
              <parameter>
                <parameterid>backopacity</parameterid>
                <name>Back Opacity</name>
                <valuemin>0</valuemin>
                <valuemax>100</valuemax>
                <value>50</value>
              </parameter>
              <parameter>
                <parameterid>backcolor</parameterid>
                <name>Back Color</name>
                <value>
                  <alpha>255</alpha>
                  <red>255</red>
                  <green>255</green>
                  <blue>255</blue>
                </value>
              </parameter>
              <parameter>
                <parameterid>superback</parameterid>
                <name>Back Graphic</name>
              </parameter>
              <parameter>
                <parameterid>crop</parameterid>
                <name>Crop</name>
                <value>false</value>
              </parameter>
              <parameter>
                <parameterid>autokern</parameterid>
                <name>Auto Kerning</name>
                <value>true</value>
              </parameter>
            </effect>
            <sourcetrack>
              <mediatype>video</mediatype>
            </sourcetrack>
          </generatoritem>
          <generatoritem id="Outline Text1">
            <name>みんな雨を飲んだり</name>
            <duration>22166.1117</duration>
            <rate>
              <timebase>30</timebase>
              <ntsc>true</ntsc>
            </rate>
            <start>11781.506700000007</start>
            <end>11889.398700000007</end>
            <in>11781.506700000007</in>
            <out>11889.398700000007</out>
            <enabled>true</enabled>
            <anamorphic>false</anamorphic>
            <alphatype>black</alphatype>
            <masterclipid>Outline Text1</masterclipid>
            <effect>
              <name>Outline Text</name>
              <effectid>Outline Text</effectid>
              <effectcategory>Text</effectcategory>
              <effecttype>generator</effecttype>
              <mediatype>video</mediatype>
              <parameter>
                <parameterid>part1</parameterid>
                <name>Text Settings</name>
                <value/>
              </parameter>
              <parameter>
                <parameterid>str</parameterid>
                <name>Text</name>
                <value>みんな雨を飲んだり</value>
              </parameter>
              <parameter>
                <parameterid>font</parameterid>
                <name>Font</name>
                <value>HiraginoSans-W6</value>
              </parameter>
              <parameter>
                <parameterid>style</parameterid>
                <name>Style</name>
                <valuemin>1</valuemin>
                <valuemax>1</valuemax>
                <valuelist>
                  <valueentry>
                    <name>Regular</name>
                    <value>1</value>
                  </valueentry>
                </valuelist>
                <value>1</value>
              </parameter>
              <parameter>
                <parameterid>align</parameterid>
                <name>Alignment</name>
                <valuemin>1</valuemin>
                <valuemax>3</valuemax>
                <valuelist>
                  <valueentry>
                    <name>Left</name>
                    <value>1</value>
                  </valueentry>
                  <valueentry>
                    <name>Center</name>
                    <value>2</value>
                  </valueentry>
                  <valueentry>
                    <name>Right</name>
                    <value>3</value>
                  </valueentry>
                </valuelist>
                <value>2</value>
              </parameter>
              <parameter>
                <parameterid>size</parameterid>
                <name>Size</name>
                <valuemin>0</valuemin>
                <valuemax>200</valuemax>
                <value>24</value>
              </parameter>
              <parameter>
                <parameterid>track</parameterid>
                <name>Tracking</name>
                <valuemin>0</valuemin>
                <valuemax>100</valuemax>
                <value>1</value>
              </parameter>
              <parameter>
                <parameterid>lead</parameterid>
                <name>Leading</name>
                <valuemin>-100</valuemin>
                <valuemax>100</valuemax>
                <value>0</value>
              </parameter>
              <parameter>
                <parameterid>aspect</parameterid>
                <name>Aspect</name>
                <valuemin>0</valuemin>
                <valuemax>4</valuemax>
                <value>1</value>
              </parameter>
              <parameter>
                <parameterid>linewidth</parameterid>
                <name>Line Width</name>
                <valuemin>0</valuemin>
                <valuemax>200</valuemax>
                <value>2</value>
              </parameter>
              <parameter>
                <parameterid>linesoft</parameterid>
                <name>Line Softness</name>
                <valuemin>0</valuemin>
                <valuemax>100</valuemax>
                <value>5</value>
              </parameter>
              <parameter>
                <parameterid>textopacity</parameterid>
                <name>Text Opacity</name>
                <valuemin>0</valuemin>
                <valuemax>100</valuemax>
                <value>100</value>
              </parameter>
              <parameter>
                <parameterid>center</parameterid>
                <name>Center</name>
                <value>
                  <horiz>0</horiz>
                  <vert>0.4703703703703703</vert>
                </value>
              </parameter>
              <parameter>
                <parameterid>textcolor</parameterid>
                <name>Text Color</name>
                <value>
                  <alpha>255</alpha>
                  <red>255</red>
                  <green>255</green>
                  <blue>255</blue>
                </value>
              </parameter>
              <parameter>
                <parameterid>supertext</parameterid>
                <name>Text Graphic</name>
              </parameter>
              <parameter>
                <parameterid>linecolor</parameterid>
                <name>Line Color</name>
                <value>
                  <alpha>255</alpha>
                  <red>0</red>
                  <green>0</green>
                  <blue>0</blue>
                </value>
              </parameter>
              <parameter>
                <parameterid>superline</parameterid>
                <name>Line Graphic</name>
              </parameter>
              <parameter>
                <parameterid>part2</parameterid>
                <name>Background Settings</name>
              </parameter>
              <parameter>
                <parameterid>xscale</parameterid>
                <name>Horizontal Size</name>
                <valuemin>0</valuemin>
                <valuemax>200</valuemax>
                <value>0</value>
              </parameter>
              <parameter>
                <parameterid>yscale</parameterid>
                <name>Vertical Size</name>
                <valuemin>0</valuemin>
                <valuemax>200</valuemax>
                <value>0</value>
              </parameter>
              <parameter>
                <parameterid>xoffset</parameterid>
                <name>Horizontal Offset</name>
                <valuemin>-100</valuemin>
                <valuemax>100</valuemax>
                <value>0</value>
              </parameter>
              <parameter>
                <parameterid>yoffset</parameterid>
                <name>Vertical Offset</name>
                <valuemin>-100</valuemin>
                <valuemax>100</valuemax>
                <value>0</value>
              </parameter>
              <parameter>
                <parameterid>backsoft</parameterid>
                <name>Back Soft</name>
                <valuemin>0</valuemin>
                <valuemax>100</valuemax>
                <value>0</value>
              </parameter>
              <parameter>
                <parameterid>backopacity</parameterid>
                <name>Back Opacity</name>
                <valuemin>0</valuemin>
                <valuemax>100</valuemax>
                <value>50</value>
              </parameter>
              <parameter>
                <parameterid>backcolor</parameterid>
                <name>Back Color</name>
                <value>
                  <alpha>255</alpha>
                  <red>255</red>
                  <green>255</green>
                  <blue>255</blue>
                </value>
              </parameter>
              <parameter>
                <parameterid>superback</parameterid>
                <name>Back Graphic</name>
              </parameter>
              <parameter>
                <parameterid>crop</parameterid>
                <name>Crop</name>
                <value>false</value>
              </parameter>
              <parameter>
                <parameterid>autokern</parameterid>
                <name>Auto Kerning</name>
                <value>true</value>
              </parameter>
            </effect>
            <sourcetrack>
              <mediatype>video</mediatype>
            </sourcetrack>
          </generatoritem>
          <generatoritem id="Outline Text1">
            <name>野外はカッパ必須ですよ</name>
            <duration>22166.1117</duration>
            <rate>
              <timebase>30</timebase>
              <ntsc>true</ntsc>
            </rate>
            <start>11889.398700000007</start>
            <end>11953.234800000007</end>
            <in>11889.398700000007</in>
            <out>11953.234800000007</out>
            <enabled>true</enabled>
            <anamorphic>false</anamorphic>
            <alphatype>black</alphatype>
            <masterclipid>Outline Text1</masterclipid>
            <effect>
              <name>Outline Text</name>
              <effectid>Outline Text</effectid>
              <effectcategory>Text</effectcategory>
              <effecttype>generator</effecttype>
              <mediatype>video</mediatype>
              <parameter>
                <parameterid>part1</parameterid>
                <name>Text Settings</name>
                <value/>
              </parameter>
              <parameter>
                <parameterid>str</parameterid>
                <name>Text</name>
                <value>野外はカッパ必須ですよ</value>
              </parameter>
              <parameter>
                <parameterid>font</parameterid>
                <name>Font</name>
                <value>HiraginoSans-W6</value>
              </parameter>
              <parameter>
                <parameterid>style</parameterid>
                <name>Style</name>
                <valuemin>1</valuemin>
                <valuemax>1</valuemax>
                <valuelist>
                  <valueentry>
                    <name>Regular</name>
                    <value>1</value>
                  </valueentry>
                </valuelist>
                <value>1</value>
              </parameter>
              <parameter>
                <parameterid>align</parameterid>
                <name>Alignment</name>
                <valuemin>1</valuemin>
                <valuemax>3</valuemax>
                <valuelist>
                  <valueentry>
                    <name>Left</name>
                    <value>1</value>
                  </valueentry>
                  <valueentry>
                    <name>Center</name>
                    <value>2</value>
                  </valueentry>
                  <valueentry>
                    <name>Right</name>
                    <value>3</value>
                  </valueentry>
                </valuelist>
                <value>2</value>
              </parameter>
              <parameter>
                <parameterid>size</parameterid>
                <name>Size</name>
                <valuemin>0</valuemin>
                <valuemax>200</valuemax>
                <value>24</value>
              </parameter>
              <parameter>
                <parameterid>track</parameterid>
                <name>Tracking</name>
                <valuemin>0</valuemin>
                <valuemax>100</valuemax>
                <value>1</value>
              </parameter>
              <parameter>
                <parameterid>lead</parameterid>
                <name>Leading</name>
                <valuemin>-100</valuemin>
                <valuemax>100</valuemax>
                <value>0</value>
              </parameter>
              <parameter>
                <parameterid>aspect</parameterid>
                <name>Aspect</name>
                <valuemin>0</valuemin>
                <valuemax>4</valuemax>
                <value>1</value>
              </parameter>
              <parameter>
                <parameterid>linewidth</parameterid>
                <name>Line Width</name>
                <valuemin>0</valuemin>
                <valuemax>200</valuemax>
                <value>2</value>
              </parameter>
              <parameter>
                <parameterid>linesoft</parameterid>
                <name>Line Softness</name>
                <valuemin>0</valuemin>
                <valuemax>100</valuemax>
                <value>5</value>
              </parameter>
              <parameter>
                <parameterid>textopacity</parameterid>
                <name>Text Opacity</name>
                <valuemin>0</valuemin>
                <valuemax>100</valuemax>
                <value>100</value>
              </parameter>
              <parameter>
                <parameterid>center</parameterid>
                <name>Center</name>
                <value>
                  <horiz>0</horiz>
                  <vert>0.4703703703703703</vert>
                </value>
              </parameter>
              <parameter>
                <parameterid>textcolor</parameterid>
                <name>Text Color</name>
                <value>
                  <alpha>255</alpha>
                  <red>255</red>
                  <green>255</green>
                  <blue>255</blue>
                </value>
              </parameter>
              <parameter>
                <parameterid>supertext</parameterid>
                <name>Text Graphic</name>
              </parameter>
              <parameter>
                <parameterid>linecolor</parameterid>
                <name>Line Color</name>
                <value>
                  <alpha>255</alpha>
                  <red>0</red>
                  <green>0</green>
                  <blue>0</blue>
                </value>
              </parameter>
              <parameter>
                <parameterid>superline</parameterid>
                <name>Line Graphic</name>
              </parameter>
              <parameter>
                <parameterid>part2</parameterid>
                <name>Background Settings</name>
              </parameter>
              <parameter>
                <parameterid>xscale</parameterid>
                <name>Horizontal Size</name>
                <valuemin>0</valuemin>
                <valuemax>200</valuemax>
                <value>0</value>
              </parameter>
              <parameter>
                <parameterid>yscale</parameterid>
                <name>Vertical Size</name>
                <valuemin>0</valuemin>
                <valuemax>200</valuemax>
                <value>0</value>
              </parameter>
              <parameter>
                <parameterid>xoffset</parameterid>
                <name>Horizontal Offset</name>
                <valuemin>-100</valuemin>
                <valuemax>100</valuemax>
                <value>0</value>
              </parameter>
              <parameter>
                <parameterid>yoffset</parameterid>
                <name>Vertical Offset</name>
                <valuemin>-100</valuemin>
                <valuemax>100</valuemax>
                <value>0</value>
              </parameter>
              <parameter>
                <parameterid>backsoft</parameterid>
                <name>Back Soft</name>
                <valuemin>0</valuemin>
                <valuemax>100</valuemax>
                <value>0</value>
              </parameter>
              <parameter>
                <parameterid>backopacity</parameterid>
                <name>Back Opacity</name>
                <valuemin>0</valuemin>
                <valuemax>100</valuemax>
                <value>50</value>
              </parameter>
              <parameter>
                <parameterid>backcolor</parameterid>
                <name>Back Color</name>
                <value>
                  <alpha>255</alpha>
                  <red>255</red>
                  <green>255</green>
                  <blue>255</blue>
                </value>
              </parameter>
              <parameter>
                <parameterid>superback</parameterid>
                <name>Back Graphic</name>
              </parameter>
              <parameter>
                <parameterid>crop</parameterid>
                <name>Crop</name>
                <value>false</value>
              </parameter>
              <parameter>
                <parameterid>autokern</parameterid>
                <name>Auto Kerning</name>
                <value>true</value>
              </parameter>
            </effect>
            <sourcetrack>
              <mediatype>video</mediatype>
            </sourcetrack>
          </generatoritem>
          <generatoritem id="Outline Text1">
            <name>多分カッパ必須です可愛いね</name>
            <duration>22166.1117</duration>
            <rate>
              <timebase>30</timebase>
              <ntsc>true</ntsc>
            </rate>
            <start>11953.234800000007</start>
            <end>12120.167700000004</end>
            <in>11953.234800000007</in>
            <out>12120.167700000004</out>
            <enabled>true</enabled>
            <anamorphic>false</anamorphic>
            <alphatype>black</alphatype>
            <masterclipid>Outline Text1</masterclipid>
            <effect>
              <name>Outline Text</name>
              <effectid>Outline Text</effectid>
              <effectcategory>Text</effectcategory>
              <effecttype>generator</effecttype>
              <mediatype>video</mediatype>
              <parameter>
                <parameterid>part1</parameterid>
                <name>Text Settings</name>
                <value/>
              </parameter>
              <parameter>
                <parameterid>str</parameterid>
                <name>Text</name>
                <value>多分カッパ必須です可愛いね</value>
              </parameter>
              <parameter>
                <parameterid>font</parameterid>
                <name>Font</name>
                <value>HiraginoSans-W6</value>
              </parameter>
              <parameter>
                <parameterid>style</parameterid>
                <name>Style</name>
                <valuemin>1</valuemin>
                <valuemax>1</valuemax>
                <valuelist>
                  <valueentry>
                    <name>Regular</name>
                    <value>1</value>
                  </valueentry>
                </valuelist>
                <value>1</value>
              </parameter>
              <parameter>
                <parameterid>align</parameterid>
                <name>Alignment</name>
                <valuemin>1</valuemin>
                <valuemax>3</valuemax>
                <valuelist>
                  <valueentry>
                    <name>Left</name>
                    <value>1</value>
                  </valueentry>
                  <valueentry>
                    <name>Center</name>
                    <value>2</value>
                  </valueentry>
                  <valueentry>
                    <name>Right</name>
                    <value>3</value>
                  </valueentry>
                </valuelist>
                <value>2</value>
              </parameter>
              <parameter>
                <parameterid>size</parameterid>
                <name>Size</name>
                <valuemin>0</valuemin>
                <valuemax>200</valuemax>
                <value>24</value>
              </parameter>
              <parameter>
                <parameterid>track</parameterid>
                <name>Tracking</name>
                <valuemin>0</valuemin>
                <valuemax>100</valuemax>
                <value>1</value>
              </parameter>
              <parameter>
                <parameterid>lead</parameterid>
                <name>Leading</name>
                <valuemin>-100</valuemin>
                <valuemax>100</valuemax>
                <value>0</value>
              </parameter>
              <parameter>
                <parameterid>aspect</parameterid>
                <name>Aspect</name>
                <valuemin>0</valuemin>
                <valuemax>4</valuemax>
                <value>1</value>
              </parameter>
              <parameter>
                <parameterid>linewidth</parameterid>
                <name>Line Width</name>
                <valuemin>0</valuemin>
                <valuemax>200</valuemax>
                <value>2</value>
              </parameter>
              <parameter>
                <parameterid>linesoft</parameterid>
                <name>Line Softness</name>
                <valuemin>0</valuemin>
                <valuemax>100</valuemax>
                <value>5</value>
              </parameter>
              <parameter>
                <parameterid>textopacity</parameterid>
                <name>Text Opacity</name>
                <valuemin>0</valuemin>
                <valuemax>100</valuemax>
                <value>100</value>
              </parameter>
              <parameter>
                <parameterid>center</parameterid>
                <name>Center</name>
                <value>
                  <horiz>0</horiz>
                  <vert>0.4703703703703703</vert>
                </value>
              </parameter>
              <parameter>
                <parameterid>textcolor</parameterid>
                <name>Text Color</name>
                <value>
                  <alpha>255</alpha>
                  <red>255</red>
                  <green>255</green>
                  <blue>255</blue>
                </value>
              </parameter>
              <parameter>
                <parameterid>supertext</parameterid>
                <name>Text Graphic</name>
              </parameter>
              <parameter>
                <parameterid>linecolor</parameterid>
                <name>Line Color</name>
                <value>
                  <alpha>255</alpha>
                  <red>0</red>
                  <green>0</green>
                  <blue>0</blue>
                </value>
              </parameter>
              <parameter>
                <parameterid>superline</parameterid>
                <name>Line Graphic</name>
              </parameter>
              <parameter>
                <parameterid>part2</parameterid>
                <name>Background Settings</name>
              </parameter>
              <parameter>
                <parameterid>xscale</parameterid>
                <name>Horizontal Size</name>
                <valuemin>0</valuemin>
                <valuemax>200</valuemax>
                <value>0</value>
              </parameter>
              <parameter>
                <parameterid>yscale</parameterid>
                <name>Vertical Size</name>
                <valuemin>0</valuemin>
                <valuemax>200</valuemax>
                <value>0</value>
              </parameter>
              <parameter>
                <parameterid>xoffset</parameterid>
                <name>Horizontal Offset</name>
                <valuemin>-100</valuemin>
                <valuemax>100</valuemax>
                <value>0</value>
              </parameter>
              <parameter>
                <parameterid>yoffset</parameterid>
                <name>Vertical Offset</name>
                <valuemin>-100</valuemin>
                <valuemax>100</valuemax>
                <value>0</value>
              </parameter>
              <parameter>
                <parameterid>backsoft</parameterid>
                <name>Back Soft</name>
                <valuemin>0</valuemin>
                <valuemax>100</valuemax>
                <value>0</value>
              </parameter>
              <parameter>
                <parameterid>backopacity</parameterid>
                <name>Back Opacity</name>
                <valuemin>0</valuemin>
                <valuemax>100</valuemax>
                <value>50</value>
              </parameter>
              <parameter>
                <parameterid>backcolor</parameterid>
                <name>Back Color</name>
                <value>
                  <alpha>255</alpha>
                  <red>255</red>
                  <green>255</green>
                  <blue>255</blue>
                </value>
              </parameter>
              <parameter>
                <parameterid>superback</parameterid>
                <name>Back Graphic</name>
              </parameter>
              <parameter>
                <parameterid>crop</parameterid>
                <name>Crop</name>
                <value>false</value>
              </parameter>
              <parameter>
                <parameterid>autokern</parameterid>
                <name>Auto Kerning</name>
                <value>true</value>
              </parameter>
            </effect>
            <sourcetrack>
              <mediatype>video</mediatype>
            </sourcetrack>
          </generatoritem>
          <generatoritem id="Outline Text1">
            <name>今日風に吹かれて</name>
            <duration>22166.1117</duration>
            <rate>
              <timebase>30</timebase>
              <ntsc>true</ntsc>
            </rate>
            <start>12120.167700000004</start>
            <end>12289.198500000002</end>
            <in>12120.167700000004</in>
            <out>12289.198500000002</out>
            <enabled>true</enabled>
            <anamorphic>false</anamorphic>
            <alphatype>black</alphatype>
            <masterclipid>Outline Text1</masterclipid>
            <effect>
              <name>Outline Text</name>
              <effectid>Outline Text</effectid>
              <effectcategory>Text</effectcategory>
              <effecttype>generator</effecttype>
              <mediatype>video</mediatype>
              <parameter>
                <parameterid>part1</parameterid>
                <name>Text Settings</name>
                <value/>
              </parameter>
              <parameter>
                <parameterid>str</parameterid>
                <name>Text</name>
                <value>今日風に吹かれて</value>
              </parameter>
              <parameter>
                <parameterid>font</parameterid>
                <name>Font</name>
                <value>HiraginoSans-W6</value>
              </parameter>
              <parameter>
                <parameterid>style</parameterid>
                <name>Style</name>
                <valuemin>1</valuemin>
                <valuemax>1</valuemax>
                <valuelist>
                  <valueentry>
                    <name>Regular</name>
                    <value>1</value>
                  </valueentry>
                </valuelist>
                <value>1</value>
              </parameter>
              <parameter>
                <parameterid>align</parameterid>
                <name>Alignment</name>
                <valuemin>1</valuemin>
                <valuemax>3</valuemax>
                <valuelist>
                  <valueentry>
                    <name>Left</name>
                    <value>1</value>
                  </valueentry>
                  <valueentry>
                    <name>Center</name>
                    <value>2</value>
                  </valueentry>
                  <valueentry>
                    <name>Right</name>
                    <value>3</value>
                  </valueentry>
                </valuelist>
                <value>2</value>
              </parameter>
              <parameter>
                <parameterid>size</parameterid>
                <name>Size</name>
                <valuemin>0</valuemin>
                <valuemax>200</valuemax>
                <value>24</value>
              </parameter>
              <parameter>
                <parameterid>track</parameterid>
                <name>Tracking</name>
                <valuemin>0</valuemin>
                <valuemax>100</valuemax>
                <value>1</value>
              </parameter>
              <parameter>
                <parameterid>lead</parameterid>
                <name>Leading</name>
                <valuemin>-100</valuemin>
                <valuemax>100</valuemax>
                <value>0</value>
              </parameter>
              <parameter>
                <parameterid>aspect</parameterid>
                <name>Aspect</name>
                <valuemin>0</valuemin>
                <valuemax>4</valuemax>
                <value>1</value>
              </parameter>
              <parameter>
                <parameterid>linewidth</parameterid>
                <name>Line Width</name>
                <valuemin>0</valuemin>
                <valuemax>200</valuemax>
                <value>2</value>
              </parameter>
              <parameter>
                <parameterid>linesoft</parameterid>
                <name>Line Softness</name>
                <valuemin>0</valuemin>
                <valuemax>100</valuemax>
                <value>5</value>
              </parameter>
              <parameter>
                <parameterid>textopacity</parameterid>
                <name>Text Opacity</name>
                <valuemin>0</valuemin>
                <valuemax>100</valuemax>
                <value>100</value>
              </parameter>
              <parameter>
                <parameterid>center</parameterid>
                <name>Center</name>
                <value>
                  <horiz>0</horiz>
                  <vert>0.4703703703703703</vert>
                </value>
              </parameter>
              <parameter>
                <parameterid>textcolor</parameterid>
                <name>Text Color</name>
                <value>
                  <alpha>255</alpha>
                  <red>255</red>
                  <green>255</green>
                  <blue>255</blue>
                </value>
              </parameter>
              <parameter>
                <parameterid>supertext</parameterid>
                <name>Text Graphic</name>
              </parameter>
              <parameter>
                <parameterid>linecolor</parameterid>
                <name>Line Color</name>
                <value>
                  <alpha>255</alpha>
                  <red>0</red>
                  <green>0</green>
                  <blue>0</blue>
                </value>
              </parameter>
              <parameter>
                <parameterid>superline</parameterid>
                <name>Line Graphic</name>
              </parameter>
              <parameter>
                <parameterid>part2</parameterid>
                <name>Background Settings</name>
              </parameter>
              <parameter>
                <parameterid>xscale</parameterid>
                <name>Horizontal Size</name>
                <valuemin>0</valuemin>
                <valuemax>200</valuemax>
                <value>0</value>
              </parameter>
              <parameter>
                <parameterid>yscale</parameterid>
                <name>Vertical Size</name>
                <valuemin>0</valuemin>
                <valuemax>200</valuemax>
                <value>0</value>
              </parameter>
              <parameter>
                <parameterid>xoffset</parameterid>
                <name>Horizontal Offset</name>
                <valuemin>-100</valuemin>
                <valuemax>100</valuemax>
                <value>0</value>
              </parameter>
              <parameter>
                <parameterid>yoffset</parameterid>
                <name>Vertical Offset</name>
                <valuemin>-100</valuemin>
                <valuemax>100</valuemax>
                <value>0</value>
              </parameter>
              <parameter>
                <parameterid>backsoft</parameterid>
                <name>Back Soft</name>
                <valuemin>0</valuemin>
                <valuemax>100</valuemax>
                <value>0</value>
              </parameter>
              <parameter>
                <parameterid>backopacity</parameterid>
                <name>Back Opacity</name>
                <valuemin>0</valuemin>
                <valuemax>100</valuemax>
                <value>50</value>
              </parameter>
              <parameter>
                <parameterid>backcolor</parameterid>
                <name>Back Color</name>
                <value>
                  <alpha>255</alpha>
                  <red>255</red>
                  <green>255</green>
                  <blue>255</blue>
                </value>
              </parameter>
              <parameter>
                <parameterid>superback</parameterid>
                <name>Back Graphic</name>
              </parameter>
              <parameter>
                <parameterid>crop</parameterid>
                <name>Crop</name>
                <value>false</value>
              </parameter>
              <parameter>
                <parameterid>autokern</parameterid>
                <name>Auto Kerning</name>
                <value>true</value>
              </parameter>
            </effect>
            <sourcetrack>
              <mediatype>video</mediatype>
            </sourcetrack>
          </generatoritem>
          <generatoritem id="Outline Text1">
            <name>アイリーちゃんのことをまだ会ったことない</name>
            <duration>22166.1117</duration>
            <rate>
              <timebase>30</timebase>
              <ntsc>true</ntsc>
            </rate>
            <start>12289.198500000002</start>
            <end>12370.716900000001</end>
            <in>12289.198500000002</in>
            <out>12370.716900000001</out>
            <enabled>true</enabled>
            <anamorphic>false</anamorphic>
            <alphatype>black</alphatype>
            <masterclipid>Outline Text1</masterclipid>
            <effect>
              <name>Outline Text</name>
              <effectid>Outline Text</effectid>
              <effectcategory>Text</effectcategory>
              <effecttype>generator</effecttype>
              <mediatype>video</mediatype>
              <parameter>
                <parameterid>part1</parameterid>
                <name>Text Settings</name>
                <value/>
              </parameter>
              <parameter>
                <parameterid>str</parameterid>
                <name>Text</name>
                <value>アイリーちゃんのことをまだ会ったことない</value>
              </parameter>
              <parameter>
                <parameterid>font</parameterid>
                <name>Font</name>
                <value>HiraginoSans-W6</value>
              </parameter>
              <parameter>
                <parameterid>style</parameterid>
                <name>Style</name>
                <valuemin>1</valuemin>
                <valuemax>1</valuemax>
                <valuelist>
                  <valueentry>
                    <name>Regular</name>
                    <value>1</value>
                  </valueentry>
                </valuelist>
                <value>1</value>
              </parameter>
              <parameter>
                <parameterid>align</parameterid>
                <name>Alignment</name>
                <valuemin>1</valuemin>
                <valuemax>3</valuemax>
                <valuelist>
                  <valueentry>
                    <name>Left</name>
                    <value>1</value>
                  </valueentry>
                  <valueentry>
                    <name>Center</name>
                    <value>2</value>
                  </valueentry>
                  <valueentry>
                    <name>Right</name>
                    <value>3</value>
                  </valueentry>
                </valuelist>
                <value>2</value>
              </parameter>
              <parameter>
                <parameterid>size</parameterid>
                <name>Size</name>
                <valuemin>0</valuemin>
                <valuemax>200</valuemax>
                <value>24</value>
              </parameter>
              <parameter>
                <parameterid>track</parameterid>
                <name>Tracking</name>
                <valuemin>0</valuemin>
                <valuemax>100</valuemax>
                <value>1</value>
              </parameter>
              <parameter>
                <parameterid>lead</parameterid>
                <name>Leading</name>
                <valuemin>-100</valuemin>
                <valuemax>100</valuemax>
                <value>0</value>
              </parameter>
              <parameter>
                <parameterid>aspect</parameterid>
                <name>Aspect</name>
                <valuemin>0</valuemin>
                <valuemax>4</valuemax>
                <value>1</value>
              </parameter>
              <parameter>
                <parameterid>linewidth</parameterid>
                <name>Line Width</name>
                <valuemin>0</valuemin>
                <valuemax>200</valuemax>
                <value>2</value>
              </parameter>
              <parameter>
                <parameterid>linesoft</parameterid>
                <name>Line Softness</name>
                <valuemin>0</valuemin>
                <valuemax>100</valuemax>
                <value>5</value>
              </parameter>
              <parameter>
                <parameterid>textopacity</parameterid>
                <name>Text Opacity</name>
                <valuemin>0</valuemin>
                <valuemax>100</valuemax>
                <value>100</value>
              </parameter>
              <parameter>
                <parameterid>center</parameterid>
                <name>Center</name>
                <value>
                  <horiz>0</horiz>
                  <vert>0.4703703703703703</vert>
                </value>
              </parameter>
              <parameter>
                <parameterid>textcolor</parameterid>
                <name>Text Color</name>
                <value>
                  <alpha>255</alpha>
                  <red>255</red>
                  <green>255</green>
                  <blue>255</blue>
                </value>
              </parameter>
              <parameter>
                <parameterid>supertext</parameterid>
                <name>Text Graphic</name>
              </parameter>
              <parameter>
                <parameterid>linecolor</parameterid>
                <name>Line Color</name>
                <value>
                  <alpha>255</alpha>
                  <red>0</red>
                  <green>0</green>
                  <blue>0</blue>
                </value>
              </parameter>
              <parameter>
                <parameterid>superline</parameterid>
                <name>Line Graphic</name>
              </parameter>
              <parameter>
                <parameterid>part2</parameterid>
                <name>Background Settings</name>
              </parameter>
              <parameter>
                <parameterid>xscale</parameterid>
                <name>Horizontal Size</name>
                <valuemin>0</valuemin>
                <valuemax>200</valuemax>
                <value>0</value>
              </parameter>
              <parameter>
                <parameterid>yscale</parameterid>
                <name>Vertical Size</name>
                <valuemin>0</valuemin>
                <valuemax>200</valuemax>
                <value>0</value>
              </parameter>
              <parameter>
                <parameterid>xoffset</parameterid>
                <name>Horizontal Offset</name>
                <valuemin>-100</valuemin>
                <valuemax>100</valuemax>
                <value>0</value>
              </parameter>
              <parameter>
                <parameterid>yoffset</parameterid>
                <name>Vertical Offset</name>
                <valuemin>-100</valuemin>
                <valuemax>100</valuemax>
                <value>0</value>
              </parameter>
              <parameter>
                <parameterid>backsoft</parameterid>
                <name>Back Soft</name>
                <valuemin>0</valuemin>
                <valuemax>100</valuemax>
                <value>0</value>
              </parameter>
              <parameter>
                <parameterid>backopacity</parameterid>
                <name>Back Opacity</name>
                <valuemin>0</valuemin>
                <valuemax>100</valuemax>
                <value>50</value>
              </parameter>
              <parameter>
                <parameterid>backcolor</parameterid>
                <name>Back Color</name>
                <value>
                  <alpha>255</alpha>
                  <red>255</red>
                  <green>255</green>
                  <blue>255</blue>
                </value>
              </parameter>
              <parameter>
                <parameterid>superback</parameterid>
                <name>Back Graphic</name>
              </parameter>
              <parameter>
                <parameterid>crop</parameterid>
                <name>Crop</name>
                <value>false</value>
              </parameter>
              <parameter>
                <parameterid>autokern</parameterid>
                <name>Auto Kerning</name>
                <value>true</value>
              </parameter>
            </effect>
            <sourcetrack>
              <mediatype>video</mediatype>
            </sourcetrack>
          </generatoritem>
          <generatoritem id="Outline Text1">
            <name>段階知ってはいたのね</name>
            <duration>22166.1117</duration>
            <rate>
              <timebase>30</timebase>
              <ntsc>true</ntsc>
            </rate>
            <start>12370.716900000001</start>
            <end>12425.562</end>
            <in>12370.716900000001</in>
            <out>12425.562</out>
            <enabled>true</enabled>
            <anamorphic>false</anamorphic>
            <alphatype>black</alphatype>
            <masterclipid>Outline Text1</masterclipid>
            <effect>
              <name>Outline Text</name>
              <effectid>Outline Text</effectid>
              <effectcategory>Text</effectcategory>
              <effecttype>generator</effecttype>
              <mediatype>video</mediatype>
              <parameter>
                <parameterid>part1</parameterid>
                <name>Text Settings</name>
                <value/>
              </parameter>
              <parameter>
                <parameterid>str</parameterid>
                <name>Text</name>
                <value>段階知ってはいたのね</value>
              </parameter>
              <parameter>
                <parameterid>font</parameterid>
                <name>Font</name>
                <value>HiraginoSans-W6</value>
              </parameter>
              <parameter>
                <parameterid>style</parameterid>
                <name>Style</name>
                <valuemin>1</valuemin>
                <valuemax>1</valuemax>
                <valuelist>
                  <valueentry>
                    <name>Regular</name>
                    <value>1</value>
                  </valueentry>
                </valuelist>
                <value>1</value>
              </parameter>
              <parameter>
                <parameterid>align</parameterid>
                <name>Alignment</name>
                <valuemin>1</valuemin>
                <valuemax>3</valuemax>
                <valuelist>
                  <valueentry>
                    <name>Left</name>
                    <value>1</value>
                  </valueentry>
                  <valueentry>
                    <name>Center</name>
                    <value>2</value>
                  </valueentry>
                  <valueentry>
                    <name>Right</name>
                    <value>3</value>
                  </valueentry>
                </valuelist>
                <value>2</value>
              </parameter>
              <parameter>
                <parameterid>size</parameterid>
                <name>Size</name>
                <valuemin>0</valuemin>
                <valuemax>200</valuemax>
                <value>24</value>
              </parameter>
              <parameter>
                <parameterid>track</parameterid>
                <name>Tracking</name>
                <valuemin>0</valuemin>
                <valuemax>100</valuemax>
                <value>1</value>
              </parameter>
              <parameter>
                <parameterid>lead</parameterid>
                <name>Leading</name>
                <valuemin>-100</valuemin>
                <valuemax>100</valuemax>
                <value>0</value>
              </parameter>
              <parameter>
                <parameterid>aspect</parameterid>
                <name>Aspect</name>
                <valuemin>0</valuemin>
                <valuemax>4</valuemax>
                <value>1</value>
              </parameter>
              <parameter>
                <parameterid>linewidth</parameterid>
                <name>Line Width</name>
                <valuemin>0</valuemin>
                <valuemax>200</valuemax>
                <value>2</value>
              </parameter>
              <parameter>
                <parameterid>linesoft</parameterid>
                <name>Line Softness</name>
                <valuemin>0</valuemin>
                <valuemax>100</valuemax>
                <value>5</value>
              </parameter>
              <parameter>
                <parameterid>textopacity</parameterid>
                <name>Text Opacity</name>
                <valuemin>0</valuemin>
                <valuemax>100</valuemax>
                <value>100</value>
              </parameter>
              <parameter>
                <parameterid>center</parameterid>
                <name>Center</name>
                <value>
                  <horiz>0</horiz>
                  <vert>0.4703703703703703</vert>
                </value>
              </parameter>
              <parameter>
                <parameterid>textcolor</parameterid>
                <name>Text Color</name>
                <value>
                  <alpha>255</alpha>
                  <red>255</red>
                  <green>255</green>
                  <blue>255</blue>
                </value>
              </parameter>
              <parameter>
                <parameterid>supertext</parameterid>
                <name>Text Graphic</name>
              </parameter>
              <parameter>
                <parameterid>linecolor</parameterid>
                <name>Line Color</name>
                <value>
                  <alpha>255</alpha>
                  <red>0</red>
                  <green>0</green>
                  <blue>0</blue>
                </value>
              </parameter>
              <parameter>
                <parameterid>superline</parameterid>
                <name>Line Graphic</name>
              </parameter>
              <parameter>
                <parameterid>part2</parameterid>
                <name>Background Settings</name>
              </parameter>
              <parameter>
                <parameterid>xscale</parameterid>
                <name>Horizontal Size</name>
                <valuemin>0</valuemin>
                <valuemax>200</valuemax>
                <value>0</value>
              </parameter>
              <parameter>
                <parameterid>yscale</parameterid>
                <name>Vertical Size</name>
                <valuemin>0</valuemin>
                <valuemax>200</valuemax>
                <value>0</value>
              </parameter>
              <parameter>
                <parameterid>xoffset</parameterid>
                <name>Horizontal Offset</name>
                <valuemin>-100</valuemin>
                <valuemax>100</valuemax>
                <value>0</value>
              </parameter>
              <parameter>
                <parameterid>yoffset</parameterid>
                <name>Vertical Offset</name>
                <valuemin>-100</valuemin>
                <valuemax>100</valuemax>
                <value>0</value>
              </parameter>
              <parameter>
                <parameterid>backsoft</parameterid>
                <name>Back Soft</name>
                <valuemin>0</valuemin>
                <valuemax>100</valuemax>
                <value>0</value>
              </parameter>
              <parameter>
                <parameterid>backopacity</parameterid>
                <name>Back Opacity</name>
                <valuemin>0</valuemin>
                <valuemax>100</valuemax>
                <value>50</value>
              </parameter>
              <parameter>
                <parameterid>backcolor</parameterid>
                <name>Back Color</name>
                <value>
                  <alpha>255</alpha>
                  <red>255</red>
                  <green>255</green>
                  <blue>255</blue>
                </value>
              </parameter>
              <parameter>
                <parameterid>superback</parameterid>
                <name>Back Graphic</name>
              </parameter>
              <parameter>
                <parameterid>crop</parameterid>
                <name>Crop</name>
                <value>false</value>
              </parameter>
              <parameter>
                <parameterid>autokern</parameterid>
                <name>Auto Kerning</name>
                <value>true</value>
              </parameter>
            </effect>
            <sourcetrack>
              <mediatype>video</mediatype>
            </sourcetrack>
          </generatoritem>
          <generatoritem id="Outline Text1">
            <name>アイリーちゃんのこと</name>
            <duration>22166.1117</duration>
            <rate>
              <timebase>30</timebase>
              <ntsc>true</ntsc>
            </rate>
            <start>12425.562</start>
            <end>12493.2942</end>
            <in>12425.562</in>
            <out>12493.2942</out>
            <enabled>true</enabled>
            <anamorphic>false</anamorphic>
            <alphatype>black</alphatype>
            <masterclipid>Outline Text1</masterclipid>
            <effect>
              <name>Outline Text</name>
              <effectid>Outline Text</effectid>
              <effectcategory>Text</effectcategory>
              <effecttype>generator</effecttype>
              <mediatype>video</mediatype>
              <parameter>
                <parameterid>part1</parameterid>
                <name>Text Settings</name>
                <value/>
              </parameter>
              <parameter>
                <parameterid>str</parameterid>
                <name>Text</name>
                <value>アイリーちゃんのこと</value>
              </parameter>
              <parameter>
                <parameterid>font</parameterid>
                <name>Font</name>
                <value>HiraginoSans-W6</value>
              </parameter>
              <parameter>
                <parameterid>style</parameterid>
                <name>Style</name>
                <valuemin>1</valuemin>
                <valuemax>1</valuemax>
                <valuelist>
                  <valueentry>
                    <name>Regular</name>
                    <value>1</value>
                  </valueentry>
                </valuelist>
                <value>1</value>
              </parameter>
              <parameter>
                <parameterid>align</parameterid>
                <name>Alignment</name>
                <valuemin>1</valuemin>
                <valuemax>3</valuemax>
                <valuelist>
                  <valueentry>
                    <name>Left</name>
                    <value>1</value>
                  </valueentry>
                  <valueentry>
                    <name>Center</name>
                    <value>2</value>
                  </valueentry>
                  <valueentry>
                    <name>Right</name>
                    <value>3</value>
                  </valueentry>
                </valuelist>
                <value>2</value>
              </parameter>
              <parameter>
                <parameterid>size</parameterid>
                <name>Size</name>
                <valuemin>0</valuemin>
                <valuemax>200</valuemax>
                <value>24</value>
              </parameter>
              <parameter>
                <parameterid>track</parameterid>
                <name>Tracking</name>
                <valuemin>0</valuemin>
                <valuemax>100</valuemax>
                <value>1</value>
              </parameter>
              <parameter>
                <parameterid>lead</parameterid>
                <name>Leading</name>
                <valuemin>-100</valuemin>
                <valuemax>100</valuemax>
                <value>0</value>
              </parameter>
              <parameter>
                <parameterid>aspect</parameterid>
                <name>Aspect</name>
                <valuemin>0</valuemin>
                <valuemax>4</valuemax>
                <value>1</value>
              </parameter>
              <parameter>
                <parameterid>linewidth</parameterid>
                <name>Line Width</name>
                <valuemin>0</valuemin>
                <valuemax>200</valuemax>
                <value>2</value>
              </parameter>
              <parameter>
                <parameterid>linesoft</parameterid>
                <name>Line Softness</name>
                <valuemin>0</valuemin>
                <valuemax>100</valuemax>
                <value>5</value>
              </parameter>
              <parameter>
                <parameterid>textopacity</parameterid>
                <name>Text Opacity</name>
                <valuemin>0</valuemin>
                <valuemax>100</valuemax>
                <value>100</value>
              </parameter>
              <parameter>
                <parameterid>center</parameterid>
                <name>Center</name>
                <value>
                  <horiz>0</horiz>
                  <vert>0.4703703703703703</vert>
                </value>
              </parameter>
              <parameter>
                <parameterid>textcolor</parameterid>
                <name>Text Color</name>
                <value>
                  <alpha>255</alpha>
                  <red>255</red>
                  <green>255</green>
                  <blue>255</blue>
                </value>
              </parameter>
              <parameter>
                <parameterid>supertext</parameterid>
                <name>Text Graphic</name>
              </parameter>
              <parameter>
                <parameterid>linecolor</parameterid>
                <name>Line Color</name>
                <value>
                  <alpha>255</alpha>
                  <red>0</red>
                  <green>0</green>
                  <blue>0</blue>
                </value>
              </parameter>
              <parameter>
                <parameterid>superline</parameterid>
                <name>Line Graphic</name>
              </parameter>
              <parameter>
                <parameterid>part2</parameterid>
                <name>Background Settings</name>
              </parameter>
              <parameter>
                <parameterid>xscale</parameterid>
                <name>Horizontal Size</name>
                <valuemin>0</valuemin>
                <valuemax>200</valuemax>
                <value>0</value>
              </parameter>
              <parameter>
                <parameterid>yscale</parameterid>
                <name>Vertical Size</name>
                <valuemin>0</valuemin>
                <valuemax>200</valuemax>
                <value>0</value>
              </parameter>
              <parameter>
                <parameterid>xoffset</parameterid>
                <name>Horizontal Offset</name>
                <valuemin>-100</valuemin>
                <valuemax>100</valuemax>
                <value>0</value>
              </parameter>
              <parameter>
                <parameterid>yoffset</parameterid>
                <name>Vertical Offset</name>
                <valuemin>-100</valuemin>
                <valuemax>100</valuemax>
                <value>0</value>
              </parameter>
              <parameter>
                <parameterid>backsoft</parameterid>
                <name>Back Soft</name>
                <valuemin>0</valuemin>
                <valuemax>100</valuemax>
                <value>0</value>
              </parameter>
              <parameter>
                <parameterid>backopacity</parameterid>
                <name>Back Opacity</name>
                <valuemin>0</valuemin>
                <valuemax>100</valuemax>
                <value>50</value>
              </parameter>
              <parameter>
                <parameterid>backcolor</parameterid>
                <name>Back Color</name>
                <value>
                  <alpha>255</alpha>
                  <red>255</red>
                  <green>255</green>
                  <blue>255</blue>
                </value>
              </parameter>
              <parameter>
                <parameterid>superback</parameterid>
                <name>Back Graphic</name>
              </parameter>
              <parameter>
                <parameterid>crop</parameterid>
                <name>Crop</name>
                <value>false</value>
              </parameter>
              <parameter>
                <parameterid>autokern</parameterid>
                <name>Auto Kerning</name>
                <value>true</value>
              </parameter>
            </effect>
            <sourcetrack>
              <mediatype>video</mediatype>
            </sourcetrack>
          </generatoritem>
          <generatoritem id="Outline Text1">
            <name>めっちゃ怖そうだなーって</name>
            <duration>22166.1117</duration>
            <rate>
              <timebase>30</timebase>
              <ntsc>true</ntsc>
            </rate>
            <start>12493.2942</start>
            <end>12530.7567</end>
            <in>12493.2942</in>
            <out>12530.7567</out>
            <enabled>true</enabled>
            <anamorphic>false</anamorphic>
            <alphatype>black</alphatype>
            <masterclipid>Outline Text1</masterclipid>
            <effect>
              <name>Outline Text</name>
              <effectid>Outline Text</effectid>
              <effectcategory>Text</effectcategory>
              <effecttype>generator</effecttype>
              <mediatype>video</mediatype>
              <parameter>
                <parameterid>part1</parameterid>
                <name>Text Settings</name>
                <value/>
              </parameter>
              <parameter>
                <parameterid>str</parameterid>
                <name>Text</name>
                <value>めっちゃ怖そうだなーって</value>
              </parameter>
              <parameter>
                <parameterid>font</parameterid>
                <name>Font</name>
                <value>HiraginoSans-W6</value>
              </parameter>
              <parameter>
                <parameterid>style</parameterid>
                <name>Style</name>
                <valuemin>1</valuemin>
                <valuemax>1</valuemax>
                <valuelist>
                  <valueentry>
                    <name>Regular</name>
                    <value>1</value>
                  </valueentry>
                </valuelist>
                <value>1</value>
              </parameter>
              <parameter>
                <parameterid>align</parameterid>
                <name>Alignment</name>
                <valuemin>1</valuemin>
                <valuemax>3</valuemax>
                <valuelist>
                  <valueentry>
                    <name>Left</name>
                    <value>1</value>
                  </valueentry>
                  <valueentry>
                    <name>Center</name>
                    <value>2</value>
                  </valueentry>
                  <valueentry>
                    <name>Right</name>
                    <value>3</value>
                  </valueentry>
                </valuelist>
                <value>2</value>
              </parameter>
              <parameter>
                <parameterid>size</parameterid>
                <name>Size</name>
                <valuemin>0</valuemin>
                <valuemax>200</valuemax>
                <value>24</value>
              </parameter>
              <parameter>
                <parameterid>track</parameterid>
                <name>Tracking</name>
                <valuemin>0</valuemin>
                <valuemax>100</valuemax>
                <value>1</value>
              </parameter>
              <parameter>
                <parameterid>lead</parameterid>
                <name>Leading</name>
                <valuemin>-100</valuemin>
                <valuemax>100</valuemax>
                <value>0</value>
              </parameter>
              <parameter>
                <parameterid>aspect</parameterid>
                <name>Aspect</name>
                <valuemin>0</valuemin>
                <valuemax>4</valuemax>
                <value>1</value>
              </parameter>
              <parameter>
                <parameterid>linewidth</parameterid>
                <name>Line Width</name>
                <valuemin>0</valuemin>
                <valuemax>200</valuemax>
                <value>2</value>
              </parameter>
              <parameter>
                <parameterid>linesoft</parameterid>
                <name>Line Softness</name>
                <valuemin>0</valuemin>
                <valuemax>100</valuemax>
                <value>5</value>
              </parameter>
              <parameter>
                <parameterid>textopacity</parameterid>
                <name>Text Opacity</name>
                <valuemin>0</valuemin>
                <valuemax>100</valuemax>
                <value>100</value>
              </parameter>
              <parameter>
                <parameterid>center</parameterid>
                <name>Center</name>
                <value>
                  <horiz>0</horiz>
                  <vert>0.4703703703703703</vert>
                </value>
              </parameter>
              <parameter>
                <parameterid>textcolor</parameterid>
                <name>Text Color</name>
                <value>
                  <alpha>255</alpha>
                  <red>255</red>
                  <green>255</green>
                  <blue>255</blue>
                </value>
              </parameter>
              <parameter>
                <parameterid>supertext</parameterid>
                <name>Text Graphic</name>
              </parameter>
              <parameter>
                <parameterid>linecolor</parameterid>
                <name>Line Color</name>
                <value>
                  <alpha>255</alpha>
                  <red>0</red>
                  <green>0</green>
                  <blue>0</blue>
                </value>
              </parameter>
              <parameter>
                <parameterid>superline</parameterid>
                <name>Line Graphic</name>
              </parameter>
              <parameter>
                <parameterid>part2</parameterid>
                <name>Background Settings</name>
              </parameter>
              <parameter>
                <parameterid>xscale</parameterid>
                <name>Horizontal Size</name>
                <valuemin>0</valuemin>
                <valuemax>200</valuemax>
                <value>0</value>
              </parameter>
              <parameter>
                <parameterid>yscale</parameterid>
                <name>Vertical Size</name>
                <valuemin>0</valuemin>
                <valuemax>200</valuemax>
                <value>0</value>
              </parameter>
              <parameter>
                <parameterid>xoffset</parameterid>
                <name>Horizontal Offset</name>
                <valuemin>-100</valuemin>
                <valuemax>100</valuemax>
                <value>0</value>
              </parameter>
              <parameter>
                <parameterid>yoffset</parameterid>
                <name>Vertical Offset</name>
                <valuemin>-100</valuemin>
                <valuemax>100</valuemax>
                <value>0</value>
              </parameter>
              <parameter>
                <parameterid>backsoft</parameterid>
                <name>Back Soft</name>
                <valuemin>0</valuemin>
                <valuemax>100</valuemax>
                <value>0</value>
              </parameter>
              <parameter>
                <parameterid>backopacity</parameterid>
                <name>Back Opacity</name>
                <valuemin>0</valuemin>
                <valuemax>100</valuemax>
                <value>50</value>
              </parameter>
              <parameter>
                <parameterid>backcolor</parameterid>
                <name>Back Color</name>
                <value>
                  <alpha>255</alpha>
                  <red>255</red>
                  <green>255</green>
                  <blue>255</blue>
                </value>
              </parameter>
              <parameter>
                <parameterid>superback</parameterid>
                <name>Back Graphic</name>
              </parameter>
              <parameter>
                <parameterid>crop</parameterid>
                <name>Crop</name>
                <value>false</value>
              </parameter>
              <parameter>
                <parameterid>autokern</parameterid>
                <name>Auto Kerning</name>
                <value>true</value>
              </parameter>
            </effect>
            <sourcetrack>
              <mediatype>video</mediatype>
            </sourcetrack>
          </generatoritem>
          <generatoritem id="Outline Text1">
            <name>よく言われるよ</name>
            <duration>22166.1117</duration>
            <rate>
              <timebase>30</timebase>
              <ntsc>true</ntsc>
            </rate>
            <start>12530.7567</start>
            <end>12559.527900000001</end>
            <in>12530.7567</in>
            <out>12559.527900000001</out>
            <enabled>true</enabled>
            <anamorphic>false</anamorphic>
            <alphatype>black</alphatype>
            <masterclipid>Outline Text1</masterclipid>
            <effect>
              <name>Outline Text</name>
              <effectid>Outline Text</effectid>
              <effectcategory>Text</effectcategory>
              <effecttype>generator</effecttype>
              <mediatype>video</mediatype>
              <parameter>
                <parameterid>part1</parameterid>
                <name>Text Settings</name>
                <value/>
              </parameter>
              <parameter>
                <parameterid>str</parameterid>
                <name>Text</name>
                <value>よく言われるよ</value>
              </parameter>
              <parameter>
                <parameterid>font</parameterid>
                <name>Font</name>
                <value>HiraginoSans-W6</value>
              </parameter>
              <parameter>
                <parameterid>style</parameterid>
                <name>Style</name>
                <valuemin>1</valuemin>
                <valuemax>1</valuemax>
                <valuelist>
                  <valueentry>
                    <name>Regular</name>
                    <value>1</value>
                  </valueentry>
                </valuelist>
                <value>1</value>
              </parameter>
              <parameter>
                <parameterid>align</parameterid>
                <name>Alignment</name>
                <valuemin>1</valuemin>
                <valuemax>3</valuemax>
                <valuelist>
                  <valueentry>
                    <name>Left</name>
                    <value>1</value>
                  </valueentry>
                  <valueentry>
                    <name>Center</name>
                    <value>2</value>
                  </valueentry>
                  <valueentry>
                    <name>Right</name>
                    <value>3</value>
                  </valueentry>
                </valuelist>
                <value>2</value>
              </parameter>
              <parameter>
                <parameterid>size</parameterid>
                <name>Size</name>
                <valuemin>0</valuemin>
                <valuemax>200</valuemax>
                <value>24</value>
              </parameter>
              <parameter>
                <parameterid>track</parameterid>
                <name>Tracking</name>
                <valuemin>0</valuemin>
                <valuemax>100</valuemax>
                <value>1</value>
              </parameter>
              <parameter>
                <parameterid>lead</parameterid>
                <name>Leading</name>
                <valuemin>-100</valuemin>
                <valuemax>100</valuemax>
                <value>0</value>
              </parameter>
              <parameter>
                <parameterid>aspect</parameterid>
                <name>Aspect</name>
                <valuemin>0</valuemin>
                <valuemax>4</valuemax>
                <value>1</value>
              </parameter>
              <parameter>
                <parameterid>linewidth</parameterid>
                <name>Line Width</name>
                <valuemin>0</valuemin>
                <valuemax>200</valuemax>
                <value>2</value>
              </parameter>
              <parameter>
                <parameterid>linesoft</parameterid>
                <name>Line Softness</name>
                <valuemin>0</valuemin>
                <valuemax>100</valuemax>
                <value>5</value>
              </parameter>
              <parameter>
                <parameterid>textopacity</parameterid>
                <name>Text Opacity</name>
                <valuemin>0</valuemin>
                <valuemax>100</valuemax>
                <value>100</value>
              </parameter>
              <parameter>
                <parameterid>center</parameterid>
                <name>Center</name>
                <value>
                  <horiz>0</horiz>
                  <vert>0.4703703703703703</vert>
                </value>
              </parameter>
              <parameter>
                <parameterid>textcolor</parameterid>
                <name>Text Color</name>
                <value>
                  <alpha>255</alpha>
                  <red>255</red>
                  <green>255</green>
                  <blue>255</blue>
                </value>
              </parameter>
              <parameter>
                <parameterid>supertext</parameterid>
                <name>Text Graphic</name>
              </parameter>
              <parameter>
                <parameterid>linecolor</parameterid>
                <name>Line Color</name>
                <value>
                  <alpha>255</alpha>
                  <red>0</red>
                  <green>0</green>
                  <blue>0</blue>
                </value>
              </parameter>
              <parameter>
                <parameterid>superline</parameterid>
                <name>Line Graphic</name>
              </parameter>
              <parameter>
                <parameterid>part2</parameterid>
                <name>Background Settings</name>
              </parameter>
              <parameter>
                <parameterid>xscale</parameterid>
                <name>Horizontal Size</name>
                <valuemin>0</valuemin>
                <valuemax>200</valuemax>
                <value>0</value>
              </parameter>
              <parameter>
                <parameterid>yscale</parameterid>
                <name>Vertical Size</name>
                <valuemin>0</valuemin>
                <valuemax>200</valuemax>
                <value>0</value>
              </parameter>
              <parameter>
                <parameterid>xoffset</parameterid>
                <name>Horizontal Offset</name>
                <valuemin>-100</valuemin>
                <valuemax>100</valuemax>
                <value>0</value>
              </parameter>
              <parameter>
                <parameterid>yoffset</parameterid>
                <name>Vertical Offset</name>
                <valuemin>-100</valuemin>
                <valuemax>100</valuemax>
                <value>0</value>
              </parameter>
              <parameter>
                <parameterid>backsoft</parameterid>
                <name>Back Soft</name>
                <valuemin>0</valuemin>
                <valuemax>100</valuemax>
                <value>0</value>
              </parameter>
              <parameter>
                <parameterid>backopacity</parameterid>
                <name>Back Opacity</name>
                <valuemin>0</valuemin>
                <valuemax>100</valuemax>
                <value>50</value>
              </parameter>
              <parameter>
                <parameterid>backcolor</parameterid>
                <name>Back Color</name>
                <value>
                  <alpha>255</alpha>
                  <red>255</red>
                  <green>255</green>
                  <blue>255</blue>
                </value>
              </parameter>
              <parameter>
                <parameterid>superback</parameterid>
                <name>Back Graphic</name>
              </parameter>
              <parameter>
                <parameterid>crop</parameterid>
                <name>Crop</name>
                <value>false</value>
              </parameter>
              <parameter>
                <parameterid>autokern</parameterid>
                <name>Auto Kerning</name>
                <value>true</value>
              </parameter>
            </effect>
            <sourcetrack>
              <mediatype>video</mediatype>
            </sourcetrack>
          </generatoritem>
          <generatoritem id="Outline Text1">
            <name>私そう怖そうだなーって</name>
            <duration>22166.1117</duration>
            <rate>
              <timebase>30</timebase>
              <ntsc>true</ntsc>
            </rate>
            <start>12559.527900000001</start>
            <end>12611.076300000002</end>
            <in>12559.527900000001</in>
            <out>12611.076300000002</out>
            <enabled>true</enabled>
            <anamorphic>false</anamorphic>
            <alphatype>black</alphatype>
            <masterclipid>Outline Text1</masterclipid>
            <effect>
              <name>Outline Text</name>
              <effectid>Outline Text</effectid>
              <effectcategory>Text</effectcategory>
              <effecttype>generator</effecttype>
              <mediatype>video</mediatype>
              <parameter>
                <parameterid>part1</parameterid>
                <name>Text Settings</name>
                <value/>
              </parameter>
              <parameter>
                <parameterid>str</parameterid>
                <name>Text</name>
                <value>私そう怖そうだなーって</value>
              </parameter>
              <parameter>
                <parameterid>font</parameterid>
                <name>Font</name>
                <value>HiraginoSans-W6</value>
              </parameter>
              <parameter>
                <parameterid>style</parameterid>
                <name>Style</name>
                <valuemin>1</valuemin>
                <valuemax>1</valuemax>
                <valuelist>
                  <valueentry>
                    <name>Regular</name>
                    <value>1</value>
                  </valueentry>
                </valuelist>
                <value>1</value>
              </parameter>
              <parameter>
                <parameterid>align</parameterid>
                <name>Alignment</name>
                <valuemin>1</valuemin>
                <valuemax>3</valuemax>
                <valuelist>
                  <valueentry>
                    <name>Left</name>
                    <value>1</value>
                  </valueentry>
                  <valueentry>
                    <name>Center</name>
                    <value>2</value>
                  </valueentry>
                  <valueentry>
                    <name>Right</name>
                    <value>3</value>
                  </valueentry>
                </valuelist>
                <value>2</value>
              </parameter>
              <parameter>
                <parameterid>size</parameterid>
                <name>Size</name>
                <valuemin>0</valuemin>
                <valuemax>200</valuemax>
                <value>24</value>
              </parameter>
              <parameter>
                <parameterid>track</parameterid>
                <name>Tracking</name>
                <valuemin>0</valuemin>
                <valuemax>100</valuemax>
                <value>1</value>
              </parameter>
              <parameter>
                <parameterid>lead</parameterid>
                <name>Leading</name>
                <valuemin>-100</valuemin>
                <valuemax>100</valuemax>
                <value>0</value>
              </parameter>
              <parameter>
                <parameterid>aspect</parameterid>
                <name>Aspect</name>
                <valuemin>0</valuemin>
                <valuemax>4</valuemax>
                <value>1</value>
              </parameter>
              <parameter>
                <parameterid>linewidth</parameterid>
                <name>Line Width</name>
                <valuemin>0</valuemin>
                <valuemax>200</valuemax>
                <value>2</value>
              </parameter>
              <parameter>
                <parameterid>linesoft</parameterid>
                <name>Line Softness</name>
                <valuemin>0</valuemin>
                <valuemax>100</valuemax>
                <value>5</value>
              </parameter>
              <parameter>
                <parameterid>textopacity</parameterid>
                <name>Text Opacity</name>
                <valuemin>0</valuemin>
                <valuemax>100</valuemax>
                <value>100</value>
              </parameter>
              <parameter>
                <parameterid>center</parameterid>
                <name>Center</name>
                <value>
                  <horiz>0</horiz>
                  <vert>0.4703703703703703</vert>
                </value>
              </parameter>
              <parameter>
                <parameterid>textcolor</parameterid>
                <name>Text Color</name>
                <value>
                  <alpha>255</alpha>
                  <red>255</red>
                  <green>255</green>
                  <blue>255</blue>
                </value>
              </parameter>
              <parameter>
                <parameterid>supertext</parameterid>
                <name>Text Graphic</name>
              </parameter>
              <parameter>
                <parameterid>linecolor</parameterid>
                <name>Line Color</name>
                <value>
                  <alpha>255</alpha>
                  <red>0</red>
                  <green>0</green>
                  <blue>0</blue>
                </value>
              </parameter>
              <parameter>
                <parameterid>superline</parameterid>
                <name>Line Graphic</name>
              </parameter>
              <parameter>
                <parameterid>part2</parameterid>
                <name>Background Settings</name>
              </parameter>
              <parameter>
                <parameterid>xscale</parameterid>
                <name>Horizontal Size</name>
                <valuemin>0</valuemin>
                <valuemax>200</valuemax>
                <value>0</value>
              </parameter>
              <parameter>
                <parameterid>yscale</parameterid>
                <name>Vertical Size</name>
                <valuemin>0</valuemin>
                <valuemax>200</valuemax>
                <value>0</value>
              </parameter>
              <parameter>
                <parameterid>xoffset</parameterid>
                <name>Horizontal Offset</name>
                <valuemin>-100</valuemin>
                <valuemax>100</valuemax>
                <value>0</value>
              </parameter>
              <parameter>
                <parameterid>yoffset</parameterid>
                <name>Vertical Offset</name>
                <valuemin>-100</valuemin>
                <valuemax>100</valuemax>
                <value>0</value>
              </parameter>
              <parameter>
                <parameterid>backsoft</parameterid>
                <name>Back Soft</name>
                <valuemin>0</valuemin>
                <valuemax>100</valuemax>
                <value>0</value>
              </parameter>
              <parameter>
                <parameterid>backopacity</parameterid>
                <name>Back Opacity</name>
                <valuemin>0</valuemin>
                <valuemax>100</valuemax>
                <value>50</value>
              </parameter>
              <parameter>
                <parameterid>backcolor</parameterid>
                <name>Back Color</name>
                <value>
                  <alpha>255</alpha>
                  <red>255</red>
                  <green>255</green>
                  <blue>255</blue>
                </value>
              </parameter>
              <parameter>
                <parameterid>superback</parameterid>
                <name>Back Graphic</name>
              </parameter>
              <parameter>
                <parameterid>crop</parameterid>
                <name>Crop</name>
                <value>false</value>
              </parameter>
              <parameter>
                <parameterid>autokern</parameterid>
                <name>Auto Kerning</name>
                <value>true</value>
              </parameter>
            </effect>
            <sourcetrack>
              <mediatype>video</mediatype>
            </sourcetrack>
          </generatoritem>
          <generatoritem id="Outline Text1">
            <name>共通の知り合いから面白いよって</name>
            <duration>22166.1117</duration>
            <rate>
              <timebase>30</timebase>
              <ntsc>true</ntsc>
            </rate>
            <start>12611.076300000002</start>
            <end>12686.001300000002</end>
            <in>12611.076300000002</in>
            <out>12686.001300000002</out>
            <enabled>true</enabled>
            <anamorphic>false</anamorphic>
            <alphatype>black</alphatype>
            <masterclipid>Outline Text1</masterclipid>
            <effect>
              <name>Outline Text</name>
              <effectid>Outline Text</effectid>
              <effectcategory>Text</effectcategory>
              <effecttype>generator</effecttype>
              <mediatype>video</mediatype>
              <parameter>
                <parameterid>part1</parameterid>
                <name>Text Settings</name>
                <value/>
              </parameter>
              <parameter>
                <parameterid>str</parameterid>
                <name>Text</name>
                <value>共通の知り合いから面白いよって</value>
              </parameter>
              <parameter>
                <parameterid>font</parameterid>
                <name>Font</name>
                <value>HiraginoSans-W6</value>
              </parameter>
              <parameter>
                <parameterid>style</parameterid>
                <name>Style</name>
                <valuemin>1</valuemin>
                <valuemax>1</valuemax>
                <valuelist>
                  <valueentry>
                    <name>Regular</name>
                    <value>1</value>
                  </valueentry>
                </valuelist>
                <value>1</value>
              </parameter>
              <parameter>
                <parameterid>align</parameterid>
                <name>Alignment</name>
                <valuemin>1</valuemin>
                <valuemax>3</valuemax>
                <valuelist>
                  <valueentry>
                    <name>Left</name>
                    <value>1</value>
                  </valueentry>
                  <valueentry>
                    <name>Center</name>
                    <value>2</value>
                  </valueentry>
                  <valueentry>
                    <name>Right</name>
                    <value>3</value>
                  </valueentry>
                </valuelist>
                <value>2</value>
              </parameter>
              <parameter>
                <parameterid>size</parameterid>
                <name>Size</name>
                <valuemin>0</valuemin>
                <valuemax>200</valuemax>
                <value>24</value>
              </parameter>
              <parameter>
                <parameterid>track</parameterid>
                <name>Tracking</name>
                <valuemin>0</valuemin>
                <valuemax>100</valuemax>
                <value>1</value>
              </parameter>
              <parameter>
                <parameterid>lead</parameterid>
                <name>Leading</name>
                <valuemin>-100</valuemin>
                <valuemax>100</valuemax>
                <value>0</value>
              </parameter>
              <parameter>
                <parameterid>aspect</parameterid>
                <name>Aspect</name>
                <valuemin>0</valuemin>
                <valuemax>4</valuemax>
                <value>1</value>
              </parameter>
              <parameter>
                <parameterid>linewidth</parameterid>
                <name>Line Width</name>
                <valuemin>0</valuemin>
                <valuemax>200</valuemax>
                <value>2</value>
              </parameter>
              <parameter>
                <parameterid>linesoft</parameterid>
                <name>Line Softness</name>
                <valuemin>0</valuemin>
                <valuemax>100</valuemax>
                <value>5</value>
              </parameter>
              <parameter>
                <parameterid>textopacity</parameterid>
                <name>Text Opacity</name>
                <valuemin>0</valuemin>
                <valuemax>100</valuemax>
                <value>100</value>
              </parameter>
              <parameter>
                <parameterid>center</parameterid>
                <name>Center</name>
                <value>
                  <horiz>0</horiz>
                  <vert>0.4703703703703703</vert>
                </value>
              </parameter>
              <parameter>
                <parameterid>textcolor</parameterid>
                <name>Text Color</name>
                <value>
                  <alpha>255</alpha>
                  <red>255</red>
                  <green>255</green>
                  <blue>255</blue>
                </value>
              </parameter>
              <parameter>
                <parameterid>supertext</parameterid>
                <name>Text Graphic</name>
              </parameter>
              <parameter>
                <parameterid>linecolor</parameterid>
                <name>Line Color</name>
                <value>
                  <alpha>255</alpha>
                  <red>0</red>
                  <green>0</green>
                  <blue>0</blue>
                </value>
              </parameter>
              <parameter>
                <parameterid>superline</parameterid>
                <name>Line Graphic</name>
              </parameter>
              <parameter>
                <parameterid>part2</parameterid>
                <name>Background Settings</name>
              </parameter>
              <parameter>
                <parameterid>xscale</parameterid>
                <name>Horizontal Size</name>
                <valuemin>0</valuemin>
                <valuemax>200</valuemax>
                <value>0</value>
              </parameter>
              <parameter>
                <parameterid>yscale</parameterid>
                <name>Vertical Size</name>
                <valuemin>0</valuemin>
                <valuemax>200</valuemax>
                <value>0</value>
              </parameter>
              <parameter>
                <parameterid>xoffset</parameterid>
                <name>Horizontal Offset</name>
                <valuemin>-100</valuemin>
                <valuemax>100</valuemax>
                <value>0</value>
              </parameter>
              <parameter>
                <parameterid>yoffset</parameterid>
                <name>Vertical Offset</name>
                <valuemin>-100</valuemin>
                <valuemax>100</valuemax>
                <value>0</value>
              </parameter>
              <parameter>
                <parameterid>backsoft</parameterid>
                <name>Back Soft</name>
                <valuemin>0</valuemin>
                <valuemax>100</valuemax>
                <value>0</value>
              </parameter>
              <parameter>
                <parameterid>backopacity</parameterid>
                <name>Back Opacity</name>
                <valuemin>0</valuemin>
                <valuemax>100</valuemax>
                <value>50</value>
              </parameter>
              <parameter>
                <parameterid>backcolor</parameterid>
                <name>Back Color</name>
                <value>
                  <alpha>255</alpha>
                  <red>255</red>
                  <green>255</green>
                  <blue>255</blue>
                </value>
              </parameter>
              <parameter>
                <parameterid>superback</parameterid>
                <name>Back Graphic</name>
              </parameter>
              <parameter>
                <parameterid>crop</parameterid>
                <name>Crop</name>
                <value>false</value>
              </parameter>
              <parameter>
                <parameterid>autokern</parameterid>
                <name>Auto Kerning</name>
                <value>true</value>
              </parameter>
            </effect>
            <sourcetrack>
              <mediatype>video</mediatype>
            </sourcetrack>
          </generatoritem>
          <generatoritem id="Outline Text1">
            <name>アイリーちゃんは面白いよって</name>
            <duration>22166.1117</duration>
            <rate>
              <timebase>30</timebase>
              <ntsc>true</ntsc>
            </rate>
            <start>12686.001300000002</start>
            <end>12736.6506</end>
            <in>12686.001300000002</in>
            <out>12736.6506</out>
            <enabled>true</enabled>
            <anamorphic>false</anamorphic>
            <alphatype>black</alphatype>
            <masterclipid>Outline Text1</masterclipid>
            <effect>
              <name>Outline Text</name>
              <effectid>Outline Text</effectid>
              <effectcategory>Text</effectcategory>
              <effecttype>generator</effecttype>
              <mediatype>video</mediatype>
              <parameter>
                <parameterid>part1</parameterid>
                <name>Text Settings</name>
                <value/>
              </parameter>
              <parameter>
                <parameterid>str</parameterid>
                <name>Text</name>
                <value>アイリーちゃんは面白いよって</value>
              </parameter>
              <parameter>
                <parameterid>font</parameterid>
                <name>Font</name>
                <value>HiraginoSans-W6</value>
              </parameter>
              <parameter>
                <parameterid>style</parameterid>
                <name>Style</name>
                <valuemin>1</valuemin>
                <valuemax>1</valuemax>
                <valuelist>
                  <valueentry>
                    <name>Regular</name>
                    <value>1</value>
                  </valueentry>
                </valuelist>
                <value>1</value>
              </parameter>
              <parameter>
                <parameterid>align</parameterid>
                <name>Alignment</name>
                <valuemin>1</valuemin>
                <valuemax>3</valuemax>
                <valuelist>
                  <valueentry>
                    <name>Left</name>
                    <value>1</value>
                  </valueentry>
                  <valueentry>
                    <name>Center</name>
                    <value>2</value>
                  </valueentry>
                  <valueentry>
                    <name>Right</name>
                    <value>3</value>
                  </valueentry>
                </valuelist>
                <value>2</value>
              </parameter>
              <parameter>
                <parameterid>size</parameterid>
                <name>Size</name>
                <valuemin>0</valuemin>
                <valuemax>200</valuemax>
                <value>24</value>
              </parameter>
              <parameter>
                <parameterid>track</parameterid>
                <name>Tracking</name>
                <valuemin>0</valuemin>
                <valuemax>100</valuemax>
                <value>1</value>
              </parameter>
              <parameter>
                <parameterid>lead</parameterid>
                <name>Leading</name>
                <valuemin>-100</valuemin>
                <valuemax>100</valuemax>
                <value>0</value>
              </parameter>
              <parameter>
                <parameterid>aspect</parameterid>
                <name>Aspect</name>
                <valuemin>0</valuemin>
                <valuemax>4</valuemax>
                <value>1</value>
              </parameter>
              <parameter>
                <parameterid>linewidth</parameterid>
                <name>Line Width</name>
                <valuemin>0</valuemin>
                <valuemax>200</valuemax>
                <value>2</value>
              </parameter>
              <parameter>
                <parameterid>linesoft</parameterid>
                <name>Line Softness</name>
                <valuemin>0</valuemin>
                <valuemax>100</valuemax>
                <value>5</value>
              </parameter>
              <parameter>
                <parameterid>textopacity</parameterid>
                <name>Text Opacity</name>
                <valuemin>0</valuemin>
                <valuemax>100</valuemax>
                <value>100</value>
              </parameter>
              <parameter>
                <parameterid>center</parameterid>
                <name>Center</name>
                <value>
                  <horiz>0</horiz>
                  <vert>0.4703703703703703</vert>
                </value>
              </parameter>
              <parameter>
                <parameterid>textcolor</parameterid>
                <name>Text Color</name>
                <value>
                  <alpha>255</alpha>
                  <red>255</red>
                  <green>255</green>
                  <blue>255</blue>
                </value>
              </parameter>
              <parameter>
                <parameterid>supertext</parameterid>
                <name>Text Graphic</name>
              </parameter>
              <parameter>
                <parameterid>linecolor</parameterid>
                <name>Line Color</name>
                <value>
                  <alpha>255</alpha>
                  <red>0</red>
                  <green>0</green>
                  <blue>0</blue>
                </value>
              </parameter>
              <parameter>
                <parameterid>superline</parameterid>
                <name>Line Graphic</name>
              </parameter>
              <parameter>
                <parameterid>part2</parameterid>
                <name>Background Settings</name>
              </parameter>
              <parameter>
                <parameterid>xscale</parameterid>
                <name>Horizontal Size</name>
                <valuemin>0</valuemin>
                <valuemax>200</valuemax>
                <value>0</value>
              </parameter>
              <parameter>
                <parameterid>yscale</parameterid>
                <name>Vertical Size</name>
                <valuemin>0</valuemin>
                <valuemax>200</valuemax>
                <value>0</value>
              </parameter>
              <parameter>
                <parameterid>xoffset</parameterid>
                <name>Horizontal Offset</name>
                <valuemin>-100</valuemin>
                <valuemax>100</valuemax>
                <value>0</value>
              </parameter>
              <parameter>
                <parameterid>yoffset</parameterid>
                <name>Vertical Offset</name>
                <valuemin>-100</valuemin>
                <valuemax>100</valuemax>
                <value>0</value>
              </parameter>
              <parameter>
                <parameterid>backsoft</parameterid>
                <name>Back Soft</name>
                <valuemin>0</valuemin>
                <valuemax>100</valuemax>
                <value>0</value>
              </parameter>
              <parameter>
                <parameterid>backopacity</parameterid>
                <name>Back Opacity</name>
                <valuemin>0</valuemin>
                <valuemax>100</valuemax>
                <value>50</value>
              </parameter>
              <parameter>
                <parameterid>backcolor</parameterid>
                <name>Back Color</name>
                <value>
                  <alpha>255</alpha>
                  <red>255</red>
                  <green>255</green>
                  <blue>255</blue>
                </value>
              </parameter>
              <parameter>
                <parameterid>superback</parameterid>
                <name>Back Graphic</name>
              </parameter>
              <parameter>
                <parameterid>crop</parameterid>
                <name>Crop</name>
                <value>false</value>
              </parameter>
              <parameter>
                <parameterid>autokern</parameterid>
                <name>Auto Kerning</name>
                <value>true</value>
              </parameter>
            </effect>
            <sourcetrack>
              <mediatype>video</mediatype>
            </sourcetrack>
          </generatoritem>
          <generatoritem id="Outline Text1">
            <name>でもさなんか怖そうだなーって思って話してみたら</name>
            <duration>22166.1117</duration>
            <rate>
              <timebase>30</timebase>
              <ntsc>true</ntsc>
            </rate>
            <start>12736.6506</start>
            <end>12940.1469</end>
            <in>12736.6506</in>
            <out>12940.1469</out>
            <enabled>true</enabled>
            <anamorphic>false</anamorphic>
            <alphatype>black</alphatype>
            <masterclipid>Outline Text1</masterclipid>
            <effect>
              <name>Outline Text</name>
              <effectid>Outline Text</effectid>
              <effectcategory>Text</effectcategory>
              <effecttype>generator</effecttype>
              <mediatype>video</mediatype>
              <parameter>
                <parameterid>part1</parameterid>
                <name>Text Settings</name>
                <value/>
              </parameter>
              <parameter>
                <parameterid>str</parameterid>
                <name>Text</name>
                <value>でもさなんか怖そうだなーって思って話してみたら</value>
              </parameter>
              <parameter>
                <parameterid>font</parameterid>
                <name>Font</name>
                <value>HiraginoSans-W6</value>
              </parameter>
              <parameter>
                <parameterid>style</parameterid>
                <name>Style</name>
                <valuemin>1</valuemin>
                <valuemax>1</valuemax>
                <valuelist>
                  <valueentry>
                    <name>Regular</name>
                    <value>1</value>
                  </valueentry>
                </valuelist>
                <value>1</value>
              </parameter>
              <parameter>
                <parameterid>align</parameterid>
                <name>Alignment</name>
                <valuemin>1</valuemin>
                <valuemax>3</valuemax>
                <valuelist>
                  <valueentry>
                    <name>Left</name>
                    <value>1</value>
                  </valueentry>
                  <valueentry>
                    <name>Center</name>
                    <value>2</value>
                  </valueentry>
                  <valueentry>
                    <name>Right</name>
                    <value>3</value>
                  </valueentry>
                </valuelist>
                <value>2</value>
              </parameter>
              <parameter>
                <parameterid>size</parameterid>
                <name>Size</name>
                <valuemin>0</valuemin>
                <valuemax>200</valuemax>
                <value>24</value>
              </parameter>
              <parameter>
                <parameterid>track</parameterid>
                <name>Tracking</name>
                <valuemin>0</valuemin>
                <valuemax>100</valuemax>
                <value>1</value>
              </parameter>
              <parameter>
                <parameterid>lead</parameterid>
                <name>Leading</name>
                <valuemin>-100</valuemin>
                <valuemax>100</valuemax>
                <value>0</value>
              </parameter>
              <parameter>
                <parameterid>aspect</parameterid>
                <name>Aspect</name>
                <valuemin>0</valuemin>
                <valuemax>4</valuemax>
                <value>1</value>
              </parameter>
              <parameter>
                <parameterid>linewidth</parameterid>
                <name>Line Width</name>
                <valuemin>0</valuemin>
                <valuemax>200</valuemax>
                <value>2</value>
              </parameter>
              <parameter>
                <parameterid>linesoft</parameterid>
                <name>Line Softness</name>
                <valuemin>0</valuemin>
                <valuemax>100</valuemax>
                <value>5</value>
              </parameter>
              <parameter>
                <parameterid>textopacity</parameterid>
                <name>Text Opacity</name>
                <valuemin>0</valuemin>
                <valuemax>100</valuemax>
                <value>100</value>
              </parameter>
              <parameter>
                <parameterid>center</parameterid>
                <name>Center</name>
                <value>
                  <horiz>0</horiz>
                  <vert>0.4703703703703703</vert>
                </value>
              </parameter>
              <parameter>
                <parameterid>textcolor</parameterid>
                <name>Text Color</name>
                <value>
                  <alpha>255</alpha>
                  <red>255</red>
                  <green>255</green>
                  <blue>255</blue>
                </value>
              </parameter>
              <parameter>
                <parameterid>supertext</parameterid>
                <name>Text Graphic</name>
              </parameter>
              <parameter>
                <parameterid>linecolor</parameterid>
                <name>Line Color</name>
                <value>
                  <alpha>255</alpha>
                  <red>0</red>
                  <green>0</green>
                  <blue>0</blue>
                </value>
              </parameter>
              <parameter>
                <parameterid>superline</parameterid>
                <name>Line Graphic</name>
              </parameter>
              <parameter>
                <parameterid>part2</parameterid>
                <name>Background Settings</name>
              </parameter>
              <parameter>
                <parameterid>xscale</parameterid>
                <name>Horizontal Size</name>
                <valuemin>0</valuemin>
                <valuemax>200</valuemax>
                <value>0</value>
              </parameter>
              <parameter>
                <parameterid>yscale</parameterid>
                <name>Vertical Size</name>
                <valuemin>0</valuemin>
                <valuemax>200</valuemax>
                <value>0</value>
              </parameter>
              <parameter>
                <parameterid>xoffset</parameterid>
                <name>Horizontal Offset</name>
                <valuemin>-100</valuemin>
                <valuemax>100</valuemax>
                <value>0</value>
              </parameter>
              <parameter>
                <parameterid>yoffset</parameterid>
                <name>Vertical Offset</name>
                <valuemin>-100</valuemin>
                <valuemax>100</valuemax>
                <value>0</value>
              </parameter>
              <parameter>
                <parameterid>backsoft</parameterid>
                <name>Back Soft</name>
                <valuemin>0</valuemin>
                <valuemax>100</valuemax>
                <value>0</value>
              </parameter>
              <parameter>
                <parameterid>backopacity</parameterid>
                <name>Back Opacity</name>
                <valuemin>0</valuemin>
                <valuemax>100</valuemax>
                <value>50</value>
              </parameter>
              <parameter>
                <parameterid>backcolor</parameterid>
                <name>Back Color</name>
                <value>
                  <alpha>255</alpha>
                  <red>255</red>
                  <green>255</green>
                  <blue>255</blue>
                </value>
              </parameter>
              <parameter>
                <parameterid>superback</parameterid>
                <name>Back Graphic</name>
              </parameter>
              <parameter>
                <parameterid>crop</parameterid>
                <name>Crop</name>
                <value>false</value>
              </parameter>
              <parameter>
                <parameterid>autokern</parameterid>
                <name>Auto Kerning</name>
                <value>true</value>
              </parameter>
            </effect>
            <sourcetrack>
              <mediatype>video</mediatype>
            </sourcetrack>
          </generatoritem>
          <generatoritem id="Outline Text1">
            <name>全然安心だったっていう怖くないんですよ</name>
            <duration>22166.1117</duration>
            <rate>
              <timebase>30</timebase>
              <ntsc>true</ntsc>
            </rate>
            <start>12940.1469</start>
            <end>13007.2797</end>
            <in>12940.1469</in>
            <out>13007.2797</out>
            <enabled>true</enabled>
            <anamorphic>false</anamorphic>
            <alphatype>black</alphatype>
            <masterclipid>Outline Text1</masterclipid>
            <effect>
              <name>Outline Text</name>
              <effectid>Outline Text</effectid>
              <effectcategory>Text</effectcategory>
              <effecttype>generator</effecttype>
              <mediatype>video</mediatype>
              <parameter>
                <parameterid>part1</parameterid>
                <name>Text Settings</name>
                <value/>
              </parameter>
              <parameter>
                <parameterid>str</parameterid>
                <name>Text</name>
                <value>全然安心だったっていう怖くないんですよ</value>
              </parameter>
              <parameter>
                <parameterid>font</parameterid>
                <name>Font</name>
                <value>HiraginoSans-W6</value>
              </parameter>
              <parameter>
                <parameterid>style</parameterid>
                <name>Style</name>
                <valuemin>1</valuemin>
                <valuemax>1</valuemax>
                <valuelist>
                  <valueentry>
                    <name>Regular</name>
                    <value>1</value>
                  </valueentry>
                </valuelist>
                <value>1</value>
              </parameter>
              <parameter>
                <parameterid>align</parameterid>
                <name>Alignment</name>
                <valuemin>1</valuemin>
                <valuemax>3</valuemax>
                <valuelist>
                  <valueentry>
                    <name>Left</name>
                    <value>1</value>
                  </valueentry>
                  <valueentry>
                    <name>Center</name>
                    <value>2</value>
                  </valueentry>
                  <valueentry>
                    <name>Right</name>
                    <value>3</value>
                  </valueentry>
                </valuelist>
                <value>2</value>
              </parameter>
              <parameter>
                <parameterid>size</parameterid>
                <name>Size</name>
                <valuemin>0</valuemin>
                <valuemax>200</valuemax>
                <value>24</value>
              </parameter>
              <parameter>
                <parameterid>track</parameterid>
                <name>Tracking</name>
                <valuemin>0</valuemin>
                <valuemax>100</valuemax>
                <value>1</value>
              </parameter>
              <parameter>
                <parameterid>lead</parameterid>
                <name>Leading</name>
                <valuemin>-100</valuemin>
                <valuemax>100</valuemax>
                <value>0</value>
              </parameter>
              <parameter>
                <parameterid>aspect</parameterid>
                <name>Aspect</name>
                <valuemin>0</valuemin>
                <valuemax>4</valuemax>
                <value>1</value>
              </parameter>
              <parameter>
                <parameterid>linewidth</parameterid>
                <name>Line Width</name>
                <valuemin>0</valuemin>
                <valuemax>200</valuemax>
                <value>2</value>
              </parameter>
              <parameter>
                <parameterid>linesoft</parameterid>
                <name>Line Softness</name>
                <valuemin>0</valuemin>
                <valuemax>100</valuemax>
                <value>5</value>
              </parameter>
              <parameter>
                <parameterid>textopacity</parameterid>
                <name>Text Opacity</name>
                <valuemin>0</valuemin>
                <valuemax>100</valuemax>
                <value>100</value>
              </parameter>
              <parameter>
                <parameterid>center</parameterid>
                <name>Center</name>
                <value>
                  <horiz>0</horiz>
                  <vert>0.4703703703703703</vert>
                </value>
              </parameter>
              <parameter>
                <parameterid>textcolor</parameterid>
                <name>Text Color</name>
                <value>
                  <alpha>255</alpha>
                  <red>255</red>
                  <green>255</green>
                  <blue>255</blue>
                </value>
              </parameter>
              <parameter>
                <parameterid>supertext</parameterid>
                <name>Text Graphic</name>
              </parameter>
              <parameter>
                <parameterid>linecolor</parameterid>
                <name>Line Color</name>
                <value>
                  <alpha>255</alpha>
                  <red>0</red>
                  <green>0</green>
                  <blue>0</blue>
                </value>
              </parameter>
              <parameter>
                <parameterid>superline</parameterid>
                <name>Line Graphic</name>
              </parameter>
              <parameter>
                <parameterid>part2</parameterid>
                <name>Background Settings</name>
              </parameter>
              <parameter>
                <parameterid>xscale</parameterid>
                <name>Horizontal Size</name>
                <valuemin>0</valuemin>
                <valuemax>200</valuemax>
                <value>0</value>
              </parameter>
              <parameter>
                <parameterid>yscale</parameterid>
                <name>Vertical Size</name>
                <valuemin>0</valuemin>
                <valuemax>200</valuemax>
                <value>0</value>
              </parameter>
              <parameter>
                <parameterid>xoffset</parameterid>
                <name>Horizontal Offset</name>
                <valuemin>-100</valuemin>
                <valuemax>100</valuemax>
                <value>0</value>
              </parameter>
              <parameter>
                <parameterid>yoffset</parameterid>
                <name>Vertical Offset</name>
                <valuemin>-100</valuemin>
                <valuemax>100</valuemax>
                <value>0</value>
              </parameter>
              <parameter>
                <parameterid>backsoft</parameterid>
                <name>Back Soft</name>
                <valuemin>0</valuemin>
                <valuemax>100</valuemax>
                <value>0</value>
              </parameter>
              <parameter>
                <parameterid>backopacity</parameterid>
                <name>Back Opacity</name>
                <valuemin>0</valuemin>
                <valuemax>100</valuemax>
                <value>50</value>
              </parameter>
              <parameter>
                <parameterid>backcolor</parameterid>
                <name>Back Color</name>
                <value>
                  <alpha>255</alpha>
                  <red>255</red>
                  <green>255</green>
                  <blue>255</blue>
                </value>
              </parameter>
              <parameter>
                <parameterid>superback</parameterid>
                <name>Back Graphic</name>
              </parameter>
              <parameter>
                <parameterid>crop</parameterid>
                <name>Crop</name>
                <value>false</value>
              </parameter>
              <parameter>
                <parameterid>autokern</parameterid>
                <name>Auto Kerning</name>
                <value>true</value>
              </parameter>
            </effect>
            <sourcetrack>
              <mediatype>video</mediatype>
            </sourcetrack>
          </generatoritem>
          <generatoritem id="Outline Text1">
            <name>私私たちこのまちぶらロケのためにめっちゃ調べてきたんだよね</name>
            <duration>22166.1117</duration>
            <rate>
              <timebase>30</timebase>
              <ntsc>true</ntsc>
            </rate>
            <start>13007.2797</start>
            <end>13122.963899999997</end>
            <in>13007.2797</in>
            <out>13122.963899999997</out>
            <enabled>true</enabled>
            <anamorphic>false</anamorphic>
            <alphatype>black</alphatype>
            <masterclipid>Outline Text1</masterclipid>
            <effect>
              <name>Outline Text</name>
              <effectid>Outline Text</effectid>
              <effectcategory>Text</effectcategory>
              <effecttype>generator</effecttype>
              <mediatype>video</mediatype>
              <parameter>
                <parameterid>part1</parameterid>
                <name>Text Settings</name>
                <value/>
              </parameter>
              <parameter>
                <parameterid>str</parameterid>
                <name>Text</name>
                <value>私私たちこのまちぶらロケのためにめっちゃ調べてきたんだよね</value>
              </parameter>
              <parameter>
                <parameterid>font</parameterid>
                <name>Font</name>
                <value>HiraginoSans-W6</value>
              </parameter>
              <parameter>
                <parameterid>style</parameterid>
                <name>Style</name>
                <valuemin>1</valuemin>
                <valuemax>1</valuemax>
                <valuelist>
                  <valueentry>
                    <name>Regular</name>
                    <value>1</value>
                  </valueentry>
                </valuelist>
                <value>1</value>
              </parameter>
              <parameter>
                <parameterid>align</parameterid>
                <name>Alignment</name>
                <valuemin>1</valuemin>
                <valuemax>3</valuemax>
                <valuelist>
                  <valueentry>
                    <name>Left</name>
                    <value>1</value>
                  </valueentry>
                  <valueentry>
                    <name>Center</name>
                    <value>2</value>
                  </valueentry>
                  <valueentry>
                    <name>Right</name>
                    <value>3</value>
                  </valueentry>
                </valuelist>
                <value>2</value>
              </parameter>
              <parameter>
                <parameterid>size</parameterid>
                <name>Size</name>
                <valuemin>0</valuemin>
                <valuemax>200</valuemax>
                <value>24</value>
              </parameter>
              <parameter>
                <parameterid>track</parameterid>
                <name>Tracking</name>
                <valuemin>0</valuemin>
                <valuemax>100</valuemax>
                <value>1</value>
              </parameter>
              <parameter>
                <parameterid>lead</parameterid>
                <name>Leading</name>
                <valuemin>-100</valuemin>
                <valuemax>100</valuemax>
                <value>0</value>
              </parameter>
              <parameter>
                <parameterid>aspect</parameterid>
                <name>Aspect</name>
                <valuemin>0</valuemin>
                <valuemax>4</valuemax>
                <value>1</value>
              </parameter>
              <parameter>
                <parameterid>linewidth</parameterid>
                <name>Line Width</name>
                <valuemin>0</valuemin>
                <valuemax>200</valuemax>
                <value>2</value>
              </parameter>
              <parameter>
                <parameterid>linesoft</parameterid>
                <name>Line Softness</name>
                <valuemin>0</valuemin>
                <valuemax>100</valuemax>
                <value>5</value>
              </parameter>
              <parameter>
                <parameterid>textopacity</parameterid>
                <name>Text Opacity</name>
                <valuemin>0</valuemin>
                <valuemax>100</valuemax>
                <value>100</value>
              </parameter>
              <parameter>
                <parameterid>center</parameterid>
                <name>Center</name>
                <value>
                  <horiz>0</horiz>
                  <vert>0.4703703703703703</vert>
                </value>
              </parameter>
              <parameter>
                <parameterid>textcolor</parameterid>
                <name>Text Color</name>
                <value>
                  <alpha>255</alpha>
                  <red>255</red>
                  <green>255</green>
                  <blue>255</blue>
                </value>
              </parameter>
              <parameter>
                <parameterid>supertext</parameterid>
                <name>Text Graphic</name>
              </parameter>
              <parameter>
                <parameterid>linecolor</parameterid>
                <name>Line Color</name>
                <value>
                  <alpha>255</alpha>
                  <red>0</red>
                  <green>0</green>
                  <blue>0</blue>
                </value>
              </parameter>
              <parameter>
                <parameterid>superline</parameterid>
                <name>Line Graphic</name>
              </parameter>
              <parameter>
                <parameterid>part2</parameterid>
                <name>Background Settings</name>
              </parameter>
              <parameter>
                <parameterid>xscale</parameterid>
                <name>Horizontal Size</name>
                <valuemin>0</valuemin>
                <valuemax>200</valuemax>
                <value>0</value>
              </parameter>
              <parameter>
                <parameterid>yscale</parameterid>
                <name>Vertical Size</name>
                <valuemin>0</valuemin>
                <valuemax>200</valuemax>
                <value>0</value>
              </parameter>
              <parameter>
                <parameterid>xoffset</parameterid>
                <name>Horizontal Offset</name>
                <valuemin>-100</valuemin>
                <valuemax>100</valuemax>
                <value>0</value>
              </parameter>
              <parameter>
                <parameterid>yoffset</parameterid>
                <name>Vertical Offset</name>
                <valuemin>-100</valuemin>
                <valuemax>100</valuemax>
                <value>0</value>
              </parameter>
              <parameter>
                <parameterid>backsoft</parameterid>
                <name>Back Soft</name>
                <valuemin>0</valuemin>
                <valuemax>100</valuemax>
                <value>0</value>
              </parameter>
              <parameter>
                <parameterid>backopacity</parameterid>
                <name>Back Opacity</name>
                <valuemin>0</valuemin>
                <valuemax>100</valuemax>
                <value>50</value>
              </parameter>
              <parameter>
                <parameterid>backcolor</parameterid>
                <name>Back Color</name>
                <value>
                  <alpha>255</alpha>
                  <red>255</red>
                  <green>255</green>
                  <blue>255</blue>
                </value>
              </parameter>
              <parameter>
                <parameterid>superback</parameterid>
                <name>Back Graphic</name>
              </parameter>
              <parameter>
                <parameterid>crop</parameterid>
                <name>Crop</name>
                <value>false</value>
              </parameter>
              <parameter>
                <parameterid>autokern</parameterid>
                <name>Auto Kerning</name>
                <value>true</value>
              </parameter>
            </effect>
            <sourcetrack>
              <mediatype>video</mediatype>
            </sourcetrack>
          </generatoritem>
          <generatoritem id="Outline Text1">
            <name>そうめっちゃ調べたエビスの美味しいお店</name>
            <duration>22166.1117</duration>
            <rate>
              <timebase>30</timebase>
              <ntsc>true</ntsc>
            </rate>
            <start>13122.963899999997</start>
            <end>13209.277499999995</end>
            <in>13122.963899999997</in>
            <out>13209.277499999995</out>
            <enabled>true</enabled>
            <anamorphic>false</anamorphic>
            <alphatype>black</alphatype>
            <masterclipid>Outline Text1</masterclipid>
            <effect>
              <name>Outline Text</name>
              <effectid>Outline Text</effectid>
              <effectcategory>Text</effectcategory>
              <effecttype>generator</effecttype>
              <mediatype>video</mediatype>
              <parameter>
                <parameterid>part1</parameterid>
                <name>Text Settings</name>
                <value/>
              </parameter>
              <parameter>
                <parameterid>str</parameterid>
                <name>Text</name>
                <value>そうめっちゃ調べたエビスの美味しいお店</value>
              </parameter>
              <parameter>
                <parameterid>font</parameterid>
                <name>Font</name>
                <value>HiraginoSans-W6</value>
              </parameter>
              <parameter>
                <parameterid>style</parameterid>
                <name>Style</name>
                <valuemin>1</valuemin>
                <valuemax>1</valuemax>
                <valuelist>
                  <valueentry>
                    <name>Regular</name>
                    <value>1</value>
                  </valueentry>
                </valuelist>
                <value>1</value>
              </parameter>
              <parameter>
                <parameterid>align</parameterid>
                <name>Alignment</name>
                <valuemin>1</valuemin>
                <valuemax>3</valuemax>
                <valuelist>
                  <valueentry>
                    <name>Left</name>
                    <value>1</value>
                  </valueentry>
                  <valueentry>
                    <name>Center</name>
                    <value>2</value>
                  </valueentry>
                  <valueentry>
                    <name>Right</name>
                    <value>3</value>
                  </valueentry>
                </valuelist>
                <value>2</value>
              </parameter>
              <parameter>
                <parameterid>size</parameterid>
                <name>Size</name>
                <valuemin>0</valuemin>
                <valuemax>200</valuemax>
                <value>24</value>
              </parameter>
              <parameter>
                <parameterid>track</parameterid>
                <name>Tracking</name>
                <valuemin>0</valuemin>
                <valuemax>100</valuemax>
                <value>1</value>
              </parameter>
              <parameter>
                <parameterid>lead</parameterid>
                <name>Leading</name>
                <valuemin>-100</valuemin>
                <valuemax>100</valuemax>
                <value>0</value>
              </parameter>
              <parameter>
                <parameterid>aspect</parameterid>
                <name>Aspect</name>
                <valuemin>0</valuemin>
                <valuemax>4</valuemax>
                <value>1</value>
              </parameter>
              <parameter>
                <parameterid>linewidth</parameterid>
                <name>Line Width</name>
                <valuemin>0</valuemin>
                <valuemax>200</valuemax>
                <value>2</value>
              </parameter>
              <parameter>
                <parameterid>linesoft</parameterid>
                <name>Line Softness</name>
                <valuemin>0</valuemin>
                <valuemax>100</valuemax>
                <value>5</value>
              </parameter>
              <parameter>
                <parameterid>textopacity</parameterid>
                <name>Text Opacity</name>
                <valuemin>0</valuemin>
                <valuemax>100</valuemax>
                <value>100</value>
              </parameter>
              <parameter>
                <parameterid>center</parameterid>
                <name>Center</name>
                <value>
                  <horiz>0</horiz>
                  <vert>0.4703703703703703</vert>
                </value>
              </parameter>
              <parameter>
                <parameterid>textcolor</parameterid>
                <name>Text Color</name>
                <value>
                  <alpha>255</alpha>
                  <red>255</red>
                  <green>255</green>
                  <blue>255</blue>
                </value>
              </parameter>
              <parameter>
                <parameterid>supertext</parameterid>
                <name>Text Graphic</name>
              </parameter>
              <parameter>
                <parameterid>linecolor</parameterid>
                <name>Line Color</name>
                <value>
                  <alpha>255</alpha>
                  <red>0</red>
                  <green>0</green>
                  <blue>0</blue>
                </value>
              </parameter>
              <parameter>
                <parameterid>superline</parameterid>
                <name>Line Graphic</name>
              </parameter>
              <parameter>
                <parameterid>part2</parameterid>
                <name>Background Settings</name>
              </parameter>
              <parameter>
                <parameterid>xscale</parameterid>
                <name>Horizontal Size</name>
                <valuemin>0</valuemin>
                <valuemax>200</valuemax>
                <value>0</value>
              </parameter>
              <parameter>
                <parameterid>yscale</parameterid>
                <name>Vertical Size</name>
                <valuemin>0</valuemin>
                <valuemax>200</valuemax>
                <value>0</value>
              </parameter>
              <parameter>
                <parameterid>xoffset</parameterid>
                <name>Horizontal Offset</name>
                <valuemin>-100</valuemin>
                <valuemax>100</valuemax>
                <value>0</value>
              </parameter>
              <parameter>
                <parameterid>yoffset</parameterid>
                <name>Vertical Offset</name>
                <valuemin>-100</valuemin>
                <valuemax>100</valuemax>
                <value>0</value>
              </parameter>
              <parameter>
                <parameterid>backsoft</parameterid>
                <name>Back Soft</name>
                <valuemin>0</valuemin>
                <valuemax>100</valuemax>
                <value>0</value>
              </parameter>
              <parameter>
                <parameterid>backopacity</parameterid>
                <name>Back Opacity</name>
                <valuemin>0</valuemin>
                <valuemax>100</valuemax>
                <value>50</value>
              </parameter>
              <parameter>
                <parameterid>backcolor</parameterid>
                <name>Back Color</name>
                <value>
                  <alpha>255</alpha>
                  <red>255</red>
                  <green>255</green>
                  <blue>255</blue>
                </value>
              </parameter>
              <parameter>
                <parameterid>superback</parameterid>
                <name>Back Graphic</name>
              </parameter>
              <parameter>
                <parameterid>crop</parameterid>
                <name>Crop</name>
                <value>false</value>
              </parameter>
              <parameter>
                <parameterid>autokern</parameterid>
                <name>Auto Kerning</name>
                <value>true</value>
              </parameter>
            </effect>
            <sourcetrack>
              <mediatype>video</mediatype>
            </sourcetrack>
          </generatoritem>
          <generatoritem id="Outline Text1">
            <name>それで見つけた</name>
            <duration>22166.1117</duration>
            <rate>
              <timebase>30</timebase>
              <ntsc>true</ntsc>
            </rate>
            <start>13209.277499999995</start>
            <end>13256.630099999993</end>
            <in>13209.277499999995</in>
            <out>13256.630099999993</out>
            <enabled>true</enabled>
            <anamorphic>false</anamorphic>
            <alphatype>black</alphatype>
            <masterclipid>Outline Text1</masterclipid>
            <effect>
              <name>Outline Text</name>
              <effectid>Outline Text</effectid>
              <effectcategory>Text</effectcategory>
              <effecttype>generator</effecttype>
              <mediatype>video</mediatype>
              <parameter>
                <parameterid>part1</parameterid>
                <name>Text Settings</name>
                <value/>
              </parameter>
              <parameter>
                <parameterid>str</parameterid>
                <name>Text</name>
                <value>それで見つけた</value>
              </parameter>
              <parameter>
                <parameterid>font</parameterid>
                <name>Font</name>
                <value>HiraginoSans-W6</value>
              </parameter>
              <parameter>
                <parameterid>style</parameterid>
                <name>Style</name>
                <valuemin>1</valuemin>
                <valuemax>1</valuemax>
                <valuelist>
                  <valueentry>
                    <name>Regular</name>
                    <value>1</value>
                  </valueentry>
                </valuelist>
                <value>1</value>
              </parameter>
              <parameter>
                <parameterid>align</parameterid>
                <name>Alignment</name>
                <valuemin>1</valuemin>
                <valuemax>3</valuemax>
                <valuelist>
                  <valueentry>
                    <name>Left</name>
                    <value>1</value>
                  </valueentry>
                  <valueentry>
                    <name>Center</name>
                    <value>2</value>
                  </valueentry>
                  <valueentry>
                    <name>Right</name>
                    <value>3</value>
                  </valueentry>
                </valuelist>
                <value>2</value>
              </parameter>
              <parameter>
                <parameterid>size</parameterid>
                <name>Size</name>
                <valuemin>0</valuemin>
                <valuemax>200</valuemax>
                <value>24</value>
              </parameter>
              <parameter>
                <parameterid>track</parameterid>
                <name>Tracking</name>
                <valuemin>0</valuemin>
                <valuemax>100</valuemax>
                <value>1</value>
              </parameter>
              <parameter>
                <parameterid>lead</parameterid>
                <name>Leading</name>
                <valuemin>-100</valuemin>
                <valuemax>100</valuemax>
                <value>0</value>
              </parameter>
              <parameter>
                <parameterid>aspect</parameterid>
                <name>Aspect</name>
                <valuemin>0</valuemin>
                <valuemax>4</valuemax>
                <value>1</value>
              </parameter>
              <parameter>
                <parameterid>linewidth</parameterid>
                <name>Line Width</name>
                <valuemin>0</valuemin>
                <valuemax>200</valuemax>
                <value>2</value>
              </parameter>
              <parameter>
                <parameterid>linesoft</parameterid>
                <name>Line Softness</name>
                <valuemin>0</valuemin>
                <valuemax>100</valuemax>
                <value>5</value>
              </parameter>
              <parameter>
                <parameterid>textopacity</parameterid>
                <name>Text Opacity</name>
                <valuemin>0</valuemin>
                <valuemax>100</valuemax>
                <value>100</value>
              </parameter>
              <parameter>
                <parameterid>center</parameterid>
                <name>Center</name>
                <value>
                  <horiz>0</horiz>
                  <vert>0.4703703703703703</vert>
                </value>
              </parameter>
              <parameter>
                <parameterid>textcolor</parameterid>
                <name>Text Color</name>
                <value>
                  <alpha>255</alpha>
                  <red>255</red>
                  <green>255</green>
                  <blue>255</blue>
                </value>
              </parameter>
              <parameter>
                <parameterid>supertext</parameterid>
                <name>Text Graphic</name>
              </parameter>
              <parameter>
                <parameterid>linecolor</parameterid>
                <name>Line Color</name>
                <value>
                  <alpha>255</alpha>
                  <red>0</red>
                  <green>0</green>
                  <blue>0</blue>
                </value>
              </parameter>
              <parameter>
                <parameterid>superline</parameterid>
                <name>Line Graphic</name>
              </parameter>
              <parameter>
                <parameterid>part2</parameterid>
                <name>Background Settings</name>
              </parameter>
              <parameter>
                <parameterid>xscale</parameterid>
                <name>Horizontal Size</name>
                <valuemin>0</valuemin>
                <valuemax>200</valuemax>
                <value>0</value>
              </parameter>
              <parameter>
                <parameterid>yscale</parameterid>
                <name>Vertical Size</name>
                <valuemin>0</valuemin>
                <valuemax>200</valuemax>
                <value>0</value>
              </parameter>
              <parameter>
                <parameterid>xoffset</parameterid>
                <name>Horizontal Offset</name>
                <valuemin>-100</valuemin>
                <valuemax>100</valuemax>
                <value>0</value>
              </parameter>
              <parameter>
                <parameterid>yoffset</parameterid>
                <name>Vertical Offset</name>
                <valuemin>-100</valuemin>
                <valuemax>100</valuemax>
                <value>0</value>
              </parameter>
              <parameter>
                <parameterid>backsoft</parameterid>
                <name>Back Soft</name>
                <valuemin>0</valuemin>
                <valuemax>100</valuemax>
                <value>0</value>
              </parameter>
              <parameter>
                <parameterid>backopacity</parameterid>
                <name>Back Opacity</name>
                <valuemin>0</valuemin>
                <valuemax>100</valuemax>
                <value>50</value>
              </parameter>
              <parameter>
                <parameterid>backcolor</parameterid>
                <name>Back Color</name>
                <value>
                  <alpha>255</alpha>
                  <red>255</red>
                  <green>255</green>
                  <blue>255</blue>
                </value>
              </parameter>
              <parameter>
                <parameterid>superback</parameterid>
                <name>Back Graphic</name>
              </parameter>
              <parameter>
                <parameterid>crop</parameterid>
                <name>Crop</name>
                <value>false</value>
              </parameter>
              <parameter>
                <parameterid>autokern</parameterid>
                <name>Auto Kerning</name>
                <value>true</value>
              </parameter>
            </effect>
            <sourcetrack>
              <mediatype>video</mediatype>
            </sourcetrack>
          </generatoritem>
          <generatoritem id="Outline Text1">
            <name>美味しそうな豚まん屋さんを見つけたんです</name>
            <duration>22166.1117</duration>
            <rate>
              <timebase>30</timebase>
              <ntsc>true</ntsc>
            </rate>
            <start>13256.630099999993</start>
            <end>13345.341299999996</end>
            <in>13256.630099999993</in>
            <out>13345.341299999996</out>
            <enabled>true</enabled>
            <anamorphic>false</anamorphic>
            <alphatype>black</alphatype>
            <masterclipid>Outline Text1</masterclipid>
            <effect>
              <name>Outline Text</name>
              <effectid>Outline Text</effectid>
              <effectcategory>Text</effectcategory>
              <effecttype>generator</effecttype>
              <mediatype>video</mediatype>
              <parameter>
                <parameterid>part1</parameterid>
                <name>Text Settings</name>
                <value/>
              </parameter>
              <parameter>
                <parameterid>str</parameterid>
                <name>Text</name>
                <value>美味しそうな豚まん屋さんを見つけたんです</value>
              </parameter>
              <parameter>
                <parameterid>font</parameterid>
                <name>Font</name>
                <value>HiraginoSans-W6</value>
              </parameter>
              <parameter>
                <parameterid>style</parameterid>
                <name>Style</name>
                <valuemin>1</valuemin>
                <valuemax>1</valuemax>
                <valuelist>
                  <valueentry>
                    <name>Regular</name>
                    <value>1</value>
                  </valueentry>
                </valuelist>
                <value>1</value>
              </parameter>
              <parameter>
                <parameterid>align</parameterid>
                <name>Alignment</name>
                <valuemin>1</valuemin>
                <valuemax>3</valuemax>
                <valuelist>
                  <valueentry>
                    <name>Left</name>
                    <value>1</value>
                  </valueentry>
                  <valueentry>
                    <name>Center</name>
                    <value>2</value>
                  </valueentry>
                  <valueentry>
                    <name>Right</name>
                    <value>3</value>
                  </valueentry>
                </valuelist>
                <value>2</value>
              </parameter>
              <parameter>
                <parameterid>size</parameterid>
                <name>Size</name>
                <valuemin>0</valuemin>
                <valuemax>200</valuemax>
                <value>24</value>
              </parameter>
              <parameter>
                <parameterid>track</parameterid>
                <name>Tracking</name>
                <valuemin>0</valuemin>
                <valuemax>100</valuemax>
                <value>1</value>
              </parameter>
              <parameter>
                <parameterid>lead</parameterid>
                <name>Leading</name>
                <valuemin>-100</valuemin>
                <valuemax>100</valuemax>
                <value>0</value>
              </parameter>
              <parameter>
                <parameterid>aspect</parameterid>
                <name>Aspect</name>
                <valuemin>0</valuemin>
                <valuemax>4</valuemax>
                <value>1</value>
              </parameter>
              <parameter>
                <parameterid>linewidth</parameterid>
                <name>Line Width</name>
                <valuemin>0</valuemin>
                <valuemax>200</valuemax>
                <value>2</value>
              </parameter>
              <parameter>
                <parameterid>linesoft</parameterid>
                <name>Line Softness</name>
                <valuemin>0</valuemin>
                <valuemax>100</valuemax>
                <value>5</value>
              </parameter>
              <parameter>
                <parameterid>textopacity</parameterid>
                <name>Text Opacity</name>
                <valuemin>0</valuemin>
                <valuemax>100</valuemax>
                <value>100</value>
              </parameter>
              <parameter>
                <parameterid>center</parameterid>
                <name>Center</name>
                <value>
                  <horiz>0</horiz>
                  <vert>0.4703703703703703</vert>
                </value>
              </parameter>
              <parameter>
                <parameterid>textcolor</parameterid>
                <name>Text Color</name>
                <value>
                  <alpha>255</alpha>
                  <red>255</red>
                  <green>255</green>
                  <blue>255</blue>
                </value>
              </parameter>
              <parameter>
                <parameterid>supertext</parameterid>
                <name>Text Graphic</name>
              </parameter>
              <parameter>
                <parameterid>linecolor</parameterid>
                <name>Line Color</name>
                <value>
                  <alpha>255</alpha>
                  <red>0</red>
                  <green>0</green>
                  <blue>0</blue>
                </value>
              </parameter>
              <parameter>
                <parameterid>superline</parameterid>
                <name>Line Graphic</name>
              </parameter>
              <parameter>
                <parameterid>part2</parameterid>
                <name>Background Settings</name>
              </parameter>
              <parameter>
                <parameterid>xscale</parameterid>
                <name>Horizontal Size</name>
                <valuemin>0</valuemin>
                <valuemax>200</valuemax>
                <value>0</value>
              </parameter>
              <parameter>
                <parameterid>yscale</parameterid>
                <name>Vertical Size</name>
                <valuemin>0</valuemin>
                <valuemax>200</valuemax>
                <value>0</value>
              </parameter>
              <parameter>
                <parameterid>xoffset</parameterid>
                <name>Horizontal Offset</name>
                <valuemin>-100</valuemin>
                <valuemax>100</valuemax>
                <value>0</value>
              </parameter>
              <parameter>
                <parameterid>yoffset</parameterid>
                <name>Vertical Offset</name>
                <valuemin>-100</valuemin>
                <valuemax>100</valuemax>
                <value>0</value>
              </parameter>
              <parameter>
                <parameterid>backsoft</parameterid>
                <name>Back Soft</name>
                <valuemin>0</valuemin>
                <valuemax>100</valuemax>
                <value>0</value>
              </parameter>
              <parameter>
                <parameterid>backopacity</parameterid>
                <name>Back Opacity</name>
                <valuemin>0</valuemin>
                <valuemax>100</valuemax>
                <value>50</value>
              </parameter>
              <parameter>
                <parameterid>backcolor</parameterid>
                <name>Back Color</name>
                <value>
                  <alpha>255</alpha>
                  <red>255</red>
                  <green>255</green>
                  <blue>255</blue>
                </value>
              </parameter>
              <parameter>
                <parameterid>superback</parameterid>
                <name>Back Graphic</name>
              </parameter>
              <parameter>
                <parameterid>crop</parameterid>
                <name>Crop</name>
                <value>false</value>
              </parameter>
              <parameter>
                <parameterid>autokern</parameterid>
                <name>Auto Kerning</name>
                <value>true</value>
              </parameter>
            </effect>
            <sourcetrack>
              <mediatype>video</mediatype>
            </sourcetrack>
          </generatoritem>
          <generatoritem id="Outline Text1">
            <name>そこに行きたいと思います</name>
            <duration>22166.1117</duration>
            <rate>
              <timebase>30</timebase>
              <ntsc>true</ntsc>
            </rate>
            <start>13345.341299999996</start>
            <end>13447.239299999996</end>
            <in>13345.341299999996</in>
            <out>13447.239299999996</out>
            <enabled>true</enabled>
            <anamorphic>false</anamorphic>
            <alphatype>black</alphatype>
            <masterclipid>Outline Text1</masterclipid>
            <effect>
              <name>Outline Text</name>
              <effectid>Outline Text</effectid>
              <effectcategory>Text</effectcategory>
              <effecttype>generator</effecttype>
              <mediatype>video</mediatype>
              <parameter>
                <parameterid>part1</parameterid>
                <name>Text Settings</name>
                <value/>
              </parameter>
              <parameter>
                <parameterid>str</parameterid>
                <name>Text</name>
                <value>そこに行きたいと思います</value>
              </parameter>
              <parameter>
                <parameterid>font</parameterid>
                <name>Font</name>
                <value>HiraginoSans-W6</value>
              </parameter>
              <parameter>
                <parameterid>style</parameterid>
                <name>Style</name>
                <valuemin>1</valuemin>
                <valuemax>1</valuemax>
                <valuelist>
                  <valueentry>
                    <name>Regular</name>
                    <value>1</value>
                  </valueentry>
                </valuelist>
                <value>1</value>
              </parameter>
              <parameter>
                <parameterid>align</parameterid>
                <name>Alignment</name>
                <valuemin>1</valuemin>
                <valuemax>3</valuemax>
                <valuelist>
                  <valueentry>
                    <name>Left</name>
                    <value>1</value>
                  </valueentry>
                  <valueentry>
                    <name>Center</name>
                    <value>2</value>
                  </valueentry>
                  <valueentry>
                    <name>Right</name>
                    <value>3</value>
                  </valueentry>
                </valuelist>
                <value>2</value>
              </parameter>
              <parameter>
                <parameterid>size</parameterid>
                <name>Size</name>
                <valuemin>0</valuemin>
                <valuemax>200</valuemax>
                <value>24</value>
              </parameter>
              <parameter>
                <parameterid>track</parameterid>
                <name>Tracking</name>
                <valuemin>0</valuemin>
                <valuemax>100</valuemax>
                <value>1</value>
              </parameter>
              <parameter>
                <parameterid>lead</parameterid>
                <name>Leading</name>
                <valuemin>-100</valuemin>
                <valuemax>100</valuemax>
                <value>0</value>
              </parameter>
              <parameter>
                <parameterid>aspect</parameterid>
                <name>Aspect</name>
                <valuemin>0</valuemin>
                <valuemax>4</valuemax>
                <value>1</value>
              </parameter>
              <parameter>
                <parameterid>linewidth</parameterid>
                <name>Line Width</name>
                <valuemin>0</valuemin>
                <valuemax>200</valuemax>
                <value>2</value>
              </parameter>
              <parameter>
                <parameterid>linesoft</parameterid>
                <name>Line Softness</name>
                <valuemin>0</valuemin>
                <valuemax>100</valuemax>
                <value>5</value>
              </parameter>
              <parameter>
                <parameterid>textopacity</parameterid>
                <name>Text Opacity</name>
                <valuemin>0</valuemin>
                <valuemax>100</valuemax>
                <value>100</value>
              </parameter>
              <parameter>
                <parameterid>center</parameterid>
                <name>Center</name>
                <value>
                  <horiz>0</horiz>
                  <vert>0.4703703703703703</vert>
                </value>
              </parameter>
              <parameter>
                <parameterid>textcolor</parameterid>
                <name>Text Color</name>
                <value>
                  <alpha>255</alpha>
                  <red>255</red>
                  <green>255</green>
                  <blue>255</blue>
                </value>
              </parameter>
              <parameter>
                <parameterid>supertext</parameterid>
                <name>Text Graphic</name>
              </parameter>
              <parameter>
                <parameterid>linecolor</parameterid>
                <name>Line Color</name>
                <value>
                  <alpha>255</alpha>
                  <red>0</red>
                  <green>0</green>
                  <blue>0</blue>
                </value>
              </parameter>
              <parameter>
                <parameterid>superline</parameterid>
                <name>Line Graphic</name>
              </parameter>
              <parameter>
                <parameterid>part2</parameterid>
                <name>Background Settings</name>
              </parameter>
              <parameter>
                <parameterid>xscale</parameterid>
                <name>Horizontal Size</name>
                <valuemin>0</valuemin>
                <valuemax>200</valuemax>
                <value>0</value>
              </parameter>
              <parameter>
                <parameterid>yscale</parameterid>
                <name>Vertical Size</name>
                <valuemin>0</valuemin>
                <valuemax>200</valuemax>
                <value>0</value>
              </parameter>
              <parameter>
                <parameterid>xoffset</parameterid>
                <name>Horizontal Offset</name>
                <valuemin>-100</valuemin>
                <valuemax>100</valuemax>
                <value>0</value>
              </parameter>
              <parameter>
                <parameterid>yoffset</parameterid>
                <name>Vertical Offset</name>
                <valuemin>-100</valuemin>
                <valuemax>100</valuemax>
                <value>0</value>
              </parameter>
              <parameter>
                <parameterid>backsoft</parameterid>
                <name>Back Soft</name>
                <valuemin>0</valuemin>
                <valuemax>100</valuemax>
                <value>0</value>
              </parameter>
              <parameter>
                <parameterid>backopacity</parameterid>
                <name>Back Opacity</name>
                <valuemin>0</valuemin>
                <valuemax>100</valuemax>
                <value>50</value>
              </parameter>
              <parameter>
                <parameterid>backcolor</parameterid>
                <name>Back Color</name>
                <value>
                  <alpha>255</alpha>
                  <red>255</red>
                  <green>255</green>
                  <blue>255</blue>
                </value>
              </parameter>
              <parameter>
                <parameterid>superback</parameterid>
                <name>Back Graphic</name>
              </parameter>
              <parameter>
                <parameterid>crop</parameterid>
                <name>Crop</name>
                <value>false</value>
              </parameter>
              <parameter>
                <parameterid>autokern</parameterid>
                <name>Auto Kerning</name>
                <value>true</value>
              </parameter>
            </effect>
            <sourcetrack>
              <mediatype>video</mediatype>
            </sourcetrack>
          </generatoritem>
          <generatoritem id="Outline Text1">
            <name>私たちはまだ行ったことないからワクワク楽しみ2人でたくさん調べたんですよ</name>
            <duration>22166.1117</duration>
            <rate>
              <timebase>30</timebase>
              <ntsc>true</ntsc>
            </rate>
            <start>13447.239299999996</start>
            <end>13705.280999999995</end>
            <in>13447.239299999996</in>
            <out>13705.280999999995</out>
            <enabled>true</enabled>
            <anamorphic>false</anamorphic>
            <alphatype>black</alphatype>
            <masterclipid>Outline Text1</masterclipid>
            <effect>
              <name>Outline Text</name>
              <effectid>Outline Text</effectid>
              <effectcategory>Text</effectcategory>
              <effecttype>generator</effecttype>
              <mediatype>video</mediatype>
              <parameter>
                <parameterid>part1</parameterid>
                <name>Text Settings</name>
                <value/>
              </parameter>
              <parameter>
                <parameterid>str</parameterid>
                <name>Text</name>
                <value>私たちはまだ行ったことないからワクワク楽しみ2人でたくさん調べたんですよ</value>
              </parameter>
              <parameter>
                <parameterid>font</parameterid>
                <name>Font</name>
                <value>HiraginoSans-W6</value>
              </parameter>
              <parameter>
                <parameterid>style</parameterid>
                <name>Style</name>
                <valuemin>1</valuemin>
                <valuemax>1</valuemax>
                <valuelist>
                  <valueentry>
                    <name>Regular</name>
                    <value>1</value>
                  </valueentry>
                </valuelist>
                <value>1</value>
              </parameter>
              <parameter>
                <parameterid>align</parameterid>
                <name>Alignment</name>
                <valuemin>1</valuemin>
                <valuemax>3</valuemax>
                <valuelist>
                  <valueentry>
                    <name>Left</name>
                    <value>1</value>
                  </valueentry>
                  <valueentry>
                    <name>Center</name>
                    <value>2</value>
                  </valueentry>
                  <valueentry>
                    <name>Right</name>
                    <value>3</value>
                  </valueentry>
                </valuelist>
                <value>2</value>
              </parameter>
              <parameter>
                <parameterid>size</parameterid>
                <name>Size</name>
                <valuemin>0</valuemin>
                <valuemax>200</valuemax>
                <value>24</value>
              </parameter>
              <parameter>
                <parameterid>track</parameterid>
                <name>Tracking</name>
                <valuemin>0</valuemin>
                <valuemax>100</valuemax>
                <value>1</value>
              </parameter>
              <parameter>
                <parameterid>lead</parameterid>
                <name>Leading</name>
                <valuemin>-100</valuemin>
                <valuemax>100</valuemax>
                <value>0</value>
              </parameter>
              <parameter>
                <parameterid>aspect</parameterid>
                <name>Aspect</name>
                <valuemin>0</valuemin>
                <valuemax>4</valuemax>
                <value>1</value>
              </parameter>
              <parameter>
                <parameterid>linewidth</parameterid>
                <name>Line Width</name>
                <valuemin>0</valuemin>
                <valuemax>200</valuemax>
                <value>2</value>
              </parameter>
              <parameter>
                <parameterid>linesoft</parameterid>
                <name>Line Softness</name>
                <valuemin>0</valuemin>
                <valuemax>100</valuemax>
                <value>5</value>
              </parameter>
              <parameter>
                <parameterid>textopacity</parameterid>
                <name>Text Opacity</name>
                <valuemin>0</valuemin>
                <valuemax>100</valuemax>
                <value>100</value>
              </parameter>
              <parameter>
                <parameterid>center</parameterid>
                <name>Center</name>
                <value>
                  <horiz>0</horiz>
                  <vert>0.4703703703703703</vert>
                </value>
              </parameter>
              <parameter>
                <parameterid>textcolor</parameterid>
                <name>Text Color</name>
                <value>
                  <alpha>255</alpha>
                  <red>255</red>
                  <green>255</green>
                  <blue>255</blue>
                </value>
              </parameter>
              <parameter>
                <parameterid>supertext</parameterid>
                <name>Text Graphic</name>
              </parameter>
              <parameter>
                <parameterid>linecolor</parameterid>
                <name>Line Color</name>
                <value>
                  <alpha>255</alpha>
                  <red>0</red>
                  <green>0</green>
                  <blue>0</blue>
                </value>
              </parameter>
              <parameter>
                <parameterid>superline</parameterid>
                <name>Line Graphic</name>
              </parameter>
              <parameter>
                <parameterid>part2</parameterid>
                <name>Background Settings</name>
              </parameter>
              <parameter>
                <parameterid>xscale</parameterid>
                <name>Horizontal Size</name>
                <valuemin>0</valuemin>
                <valuemax>200</valuemax>
                <value>0</value>
              </parameter>
              <parameter>
                <parameterid>yscale</parameterid>
                <name>Vertical Size</name>
                <valuemin>0</valuemin>
                <valuemax>200</valuemax>
                <value>0</value>
              </parameter>
              <parameter>
                <parameterid>xoffset</parameterid>
                <name>Horizontal Offset</name>
                <valuemin>-100</valuemin>
                <valuemax>100</valuemax>
                <value>0</value>
              </parameter>
              <parameter>
                <parameterid>yoffset</parameterid>
                <name>Vertical Offset</name>
                <valuemin>-100</valuemin>
                <valuemax>100</valuemax>
                <value>0</value>
              </parameter>
              <parameter>
                <parameterid>backsoft</parameterid>
                <name>Back Soft</name>
                <valuemin>0</valuemin>
                <valuemax>100</valuemax>
                <value>0</value>
              </parameter>
              <parameter>
                <parameterid>backopacity</parameterid>
                <name>Back Opacity</name>
                <valuemin>0</valuemin>
                <valuemax>100</valuemax>
                <value>50</value>
              </parameter>
              <parameter>
                <parameterid>backcolor</parameterid>
                <name>Back Color</name>
                <value>
                  <alpha>255</alpha>
                  <red>255</red>
                  <green>255</green>
                  <blue>255</blue>
                </value>
              </parameter>
              <parameter>
                <parameterid>superback</parameterid>
                <name>Back Graphic</name>
              </parameter>
              <parameter>
                <parameterid>crop</parameterid>
                <name>Crop</name>
                <value>false</value>
              </parameter>
              <parameter>
                <parameterid>autokern</parameterid>
                <name>Auto Kerning</name>
                <value>true</value>
              </parameter>
            </effect>
            <sourcetrack>
              <mediatype>video</mediatype>
            </sourcetrack>
          </generatoritem>
          <generatoritem id="Outline Text1">
            <name>どこ行く?</name>
            <duration>22166.1117</duration>
            <rate>
              <timebase>30</timebase>
              <ntsc>true</ntsc>
            </rate>
            <start>13705.280999999995</start>
            <end>13716.070199999995</end>
            <in>13705.280999999995</in>
            <out>13716.070199999995</out>
            <enabled>true</enabled>
            <anamorphic>false</anamorphic>
            <alphatype>black</alphatype>
            <masterclipid>Outline Text1</masterclipid>
            <effect>
              <name>Outline Text</name>
              <effectid>Outline Text</effectid>
              <effectcategory>Text</effectcategory>
              <effecttype>generator</effecttype>
              <mediatype>video</mediatype>
              <parameter>
                <parameterid>part1</parameterid>
                <name>Text Settings</name>
                <value/>
              </parameter>
              <parameter>
                <parameterid>str</parameterid>
                <name>Text</name>
                <value>どこ行く?</value>
              </parameter>
              <parameter>
                <parameterid>font</parameterid>
                <name>Font</name>
                <value>HiraginoSans-W6</value>
              </parameter>
              <parameter>
                <parameterid>style</parameterid>
                <name>Style</name>
                <valuemin>1</valuemin>
                <valuemax>1</valuemax>
                <valuelist>
                  <valueentry>
                    <name>Regular</name>
                    <value>1</value>
                  </valueentry>
                </valuelist>
                <value>1</value>
              </parameter>
              <parameter>
                <parameterid>align</parameterid>
                <name>Alignment</name>
                <valuemin>1</valuemin>
                <valuemax>3</valuemax>
                <valuelist>
                  <valueentry>
                    <name>Left</name>
                    <value>1</value>
                  </valueentry>
                  <valueentry>
                    <name>Center</name>
                    <value>2</value>
                  </valueentry>
                  <valueentry>
                    <name>Right</name>
                    <value>3</value>
                  </valueentry>
                </valuelist>
                <value>2</value>
              </parameter>
              <parameter>
                <parameterid>size</parameterid>
                <name>Size</name>
                <valuemin>0</valuemin>
                <valuemax>200</valuemax>
                <value>24</value>
              </parameter>
              <parameter>
                <parameterid>track</parameterid>
                <name>Tracking</name>
                <valuemin>0</valuemin>
                <valuemax>100</valuemax>
                <value>1</value>
              </parameter>
              <parameter>
                <parameterid>lead</parameterid>
                <name>Leading</name>
                <valuemin>-100</valuemin>
                <valuemax>100</valuemax>
                <value>0</value>
              </parameter>
              <parameter>
                <parameterid>aspect</parameterid>
                <name>Aspect</name>
                <valuemin>0</valuemin>
                <valuemax>4</valuemax>
                <value>1</value>
              </parameter>
              <parameter>
                <parameterid>linewidth</parameterid>
                <name>Line Width</name>
                <valuemin>0</valuemin>
                <valuemax>200</valuemax>
                <value>2</value>
              </parameter>
              <parameter>
                <parameterid>linesoft</parameterid>
                <name>Line Softness</name>
                <valuemin>0</valuemin>
                <valuemax>100</valuemax>
                <value>5</value>
              </parameter>
              <parameter>
                <parameterid>textopacity</parameterid>
                <name>Text Opacity</name>
                <valuemin>0</valuemin>
                <valuemax>100</valuemax>
                <value>100</value>
              </parameter>
              <parameter>
                <parameterid>center</parameterid>
                <name>Center</name>
                <value>
                  <horiz>0</horiz>
                  <vert>0.4703703703703703</vert>
                </value>
              </parameter>
              <parameter>
                <parameterid>textcolor</parameterid>
                <name>Text Color</name>
                <value>
                  <alpha>255</alpha>
                  <red>255</red>
                  <green>255</green>
                  <blue>255</blue>
                </value>
              </parameter>
              <parameter>
                <parameterid>supertext</parameterid>
                <name>Text Graphic</name>
              </parameter>
              <parameter>
                <parameterid>linecolor</parameterid>
                <name>Line Color</name>
                <value>
                  <alpha>255</alpha>
                  <red>0</red>
                  <green>0</green>
                  <blue>0</blue>
                </value>
              </parameter>
              <parameter>
                <parameterid>superline</parameterid>
                <name>Line Graphic</name>
              </parameter>
              <parameter>
                <parameterid>part2</parameterid>
                <name>Background Settings</name>
              </parameter>
              <parameter>
                <parameterid>xscale</parameterid>
                <name>Horizontal Size</name>
                <valuemin>0</valuemin>
                <valuemax>200</valuemax>
                <value>0</value>
              </parameter>
              <parameter>
                <parameterid>yscale</parameterid>
                <name>Vertical Size</name>
                <valuemin>0</valuemin>
                <valuemax>200</valuemax>
                <value>0</value>
              </parameter>
              <parameter>
                <parameterid>xoffset</parameterid>
                <name>Horizontal Offset</name>
                <valuemin>-100</valuemin>
                <valuemax>100</valuemax>
                <value>0</value>
              </parameter>
              <parameter>
                <parameterid>yoffset</parameterid>
                <name>Vertical Offset</name>
                <valuemin>-100</valuemin>
                <valuemax>100</valuemax>
                <value>0</value>
              </parameter>
              <parameter>
                <parameterid>backsoft</parameterid>
                <name>Back Soft</name>
                <valuemin>0</valuemin>
                <valuemax>100</valuemax>
                <value>0</value>
              </parameter>
              <parameter>
                <parameterid>backopacity</parameterid>
                <name>Back Opacity</name>
                <valuemin>0</valuemin>
                <valuemax>100</valuemax>
                <value>50</value>
              </parameter>
              <parameter>
                <parameterid>backcolor</parameterid>
                <name>Back Color</name>
                <value>
                  <alpha>255</alpha>
                  <red>255</red>
                  <green>255</green>
                  <blue>255</blue>
                </value>
              </parameter>
              <parameter>
                <parameterid>superback</parameterid>
                <name>Back Graphic</name>
              </parameter>
              <parameter>
                <parameterid>crop</parameterid>
                <name>Crop</name>
                <value>false</value>
              </parameter>
              <parameter>
                <parameterid>autokern</parameterid>
                <name>Auto Kerning</name>
                <value>true</value>
              </parameter>
            </effect>
            <sourcetrack>
              <mediatype>video</mediatype>
            </sourcetrack>
          </generatoritem>
          <generatoritem id="Outline Text1">
            <name>どこ行きたい?</name>
            <duration>22166.1117</duration>
            <rate>
              <timebase>30</timebase>
              <ntsc>true</ntsc>
            </rate>
            <start>13716.070199999995</start>
            <end>13756.529699999996</end>
            <in>13716.070199999995</in>
            <out>13756.529699999996</out>
            <enabled>true</enabled>
            <anamorphic>false</anamorphic>
            <alphatype>black</alphatype>
            <masterclipid>Outline Text1</masterclipid>
            <effect>
              <name>Outline Text</name>
              <effectid>Outline Text</effectid>
              <effectcategory>Text</effectcategory>
              <effecttype>generator</effecttype>
              <mediatype>video</mediatype>
              <parameter>
                <parameterid>part1</parameterid>
                <name>Text Settings</name>
                <value/>
              </parameter>
              <parameter>
                <parameterid>str</parameterid>
                <name>Text</name>
                <value>どこ行きたい?</value>
              </parameter>
              <parameter>
                <parameterid>font</parameterid>
                <name>Font</name>
                <value>HiraginoSans-W6</value>
              </parameter>
              <parameter>
                <parameterid>style</parameterid>
                <name>Style</name>
                <valuemin>1</valuemin>
                <valuemax>1</valuemax>
                <valuelist>
                  <valueentry>
                    <name>Regular</name>
                    <value>1</value>
                  </valueentry>
                </valuelist>
                <value>1</value>
              </parameter>
              <parameter>
                <parameterid>align</parameterid>
                <name>Alignment</name>
                <valuemin>1</valuemin>
                <valuemax>3</valuemax>
                <valuelist>
                  <valueentry>
                    <name>Left</name>
                    <value>1</value>
                  </valueentry>
                  <valueentry>
                    <name>Center</name>
                    <value>2</value>
                  </valueentry>
                  <valueentry>
                    <name>Right</name>
                    <value>3</value>
                  </valueentry>
                </valuelist>
                <value>2</value>
              </parameter>
              <parameter>
                <parameterid>size</parameterid>
                <name>Size</name>
                <valuemin>0</valuemin>
                <valuemax>200</valuemax>
                <value>24</value>
              </parameter>
              <parameter>
                <parameterid>track</parameterid>
                <name>Tracking</name>
                <valuemin>0</valuemin>
                <valuemax>100</valuemax>
                <value>1</value>
              </parameter>
              <parameter>
                <parameterid>lead</parameterid>
                <name>Leading</name>
                <valuemin>-100</valuemin>
                <valuemax>100</valuemax>
                <value>0</value>
              </parameter>
              <parameter>
                <parameterid>aspect</parameterid>
                <name>Aspect</name>
                <valuemin>0</valuemin>
                <valuemax>4</valuemax>
                <value>1</value>
              </parameter>
              <parameter>
                <parameterid>linewidth</parameterid>
                <name>Line Width</name>
                <valuemin>0</valuemin>
                <valuemax>200</valuemax>
                <value>2</value>
              </parameter>
              <parameter>
                <parameterid>linesoft</parameterid>
                <name>Line Softness</name>
                <valuemin>0</valuemin>
                <valuemax>100</valuemax>
                <value>5</value>
              </parameter>
              <parameter>
                <parameterid>textopacity</parameterid>
                <name>Text Opacity</name>
                <valuemin>0</valuemin>
                <valuemax>100</valuemax>
                <value>100</value>
              </parameter>
              <parameter>
                <parameterid>center</parameterid>
                <name>Center</name>
                <value>
                  <horiz>0</horiz>
                  <vert>0.4703703703703703</vert>
                </value>
              </parameter>
              <parameter>
                <parameterid>textcolor</parameterid>
                <name>Text Color</name>
                <value>
                  <alpha>255</alpha>
                  <red>255</red>
                  <green>255</green>
                  <blue>255</blue>
                </value>
              </parameter>
              <parameter>
                <parameterid>supertext</parameterid>
                <name>Text Graphic</name>
              </parameter>
              <parameter>
                <parameterid>linecolor</parameterid>
                <name>Line Color</name>
                <value>
                  <alpha>255</alpha>
                  <red>0</red>
                  <green>0</green>
                  <blue>0</blue>
                </value>
              </parameter>
              <parameter>
                <parameterid>superline</parameterid>
                <name>Line Graphic</name>
              </parameter>
              <parameter>
                <parameterid>part2</parameterid>
                <name>Background Settings</name>
              </parameter>
              <parameter>
                <parameterid>xscale</parameterid>
                <name>Horizontal Size</name>
                <valuemin>0</valuemin>
                <valuemax>200</valuemax>
                <value>0</value>
              </parameter>
              <parameter>
                <parameterid>yscale</parameterid>
                <name>Vertical Size</name>
                <valuemin>0</valuemin>
                <valuemax>200</valuemax>
                <value>0</value>
              </parameter>
              <parameter>
                <parameterid>xoffset</parameterid>
                <name>Horizontal Offset</name>
                <valuemin>-100</valuemin>
                <valuemax>100</valuemax>
                <value>0</value>
              </parameter>
              <parameter>
                <parameterid>yoffset</parameterid>
                <name>Vertical Offset</name>
                <valuemin>-100</valuemin>
                <valuemax>100</valuemax>
                <value>0</value>
              </parameter>
              <parameter>
                <parameterid>backsoft</parameterid>
                <name>Back Soft</name>
                <valuemin>0</valuemin>
                <valuemax>100</valuemax>
                <value>0</value>
              </parameter>
              <parameter>
                <parameterid>backopacity</parameterid>
                <name>Back Opacity</name>
                <valuemin>0</valuemin>
                <valuemax>100</valuemax>
                <value>50</value>
              </parameter>
              <parameter>
                <parameterid>backcolor</parameterid>
                <name>Back Color</name>
                <value>
                  <alpha>255</alpha>
                  <red>255</red>
                  <green>255</green>
                  <blue>255</blue>
                </value>
              </parameter>
              <parameter>
                <parameterid>superback</parameterid>
                <name>Back Graphic</name>
              </parameter>
              <parameter>
                <parameterid>crop</parameterid>
                <name>Crop</name>
                <value>false</value>
              </parameter>
              <parameter>
                <parameterid>autokern</parameterid>
                <name>Auto Kerning</name>
                <value>true</value>
              </parameter>
            </effect>
            <sourcetrack>
              <mediatype>video</mediatype>
            </sourcetrack>
          </generatoritem>
          <generatoritem id="Outline Text1">
            <name>エビスってさ素敵なお店がいっぱいある気軽に入れるお店っていうのを調べるの</name>
            <duration>22166.1117</duration>
            <rate>
              <timebase>30</timebase>
              <ntsc>true</ntsc>
            </rate>
            <start>13756.529699999996</start>
            <end>14000.785199999995</end>
            <in>13756.529699999996</in>
            <out>14000.785199999995</out>
            <enabled>true</enabled>
            <anamorphic>false</anamorphic>
            <alphatype>black</alphatype>
            <masterclipid>Outline Text1</masterclipid>
            <effect>
              <name>Outline Text</name>
              <effectid>Outline Text</effectid>
              <effectcategory>Text</effectcategory>
              <effecttype>generator</effecttype>
              <mediatype>video</mediatype>
              <parameter>
                <parameterid>part1</parameterid>
                <name>Text Settings</name>
                <value/>
              </parameter>
              <parameter>
                <parameterid>str</parameterid>
                <name>Text</name>
                <value>エビスってさ素敵なお店がいっぱいある気軽に入れるお店っていうのを調べるの</value>
              </parameter>
              <parameter>
                <parameterid>font</parameterid>
                <name>Font</name>
                <value>HiraginoSans-W6</value>
              </parameter>
              <parameter>
                <parameterid>style</parameterid>
                <name>Style</name>
                <valuemin>1</valuemin>
                <valuemax>1</valuemax>
                <valuelist>
                  <valueentry>
                    <name>Regular</name>
                    <value>1</value>
                  </valueentry>
                </valuelist>
                <value>1</value>
              </parameter>
              <parameter>
                <parameterid>align</parameterid>
                <name>Alignment</name>
                <valuemin>1</valuemin>
                <valuemax>3</valuemax>
                <valuelist>
                  <valueentry>
                    <name>Left</name>
                    <value>1</value>
                  </valueentry>
                  <valueentry>
                    <name>Center</name>
                    <value>2</value>
                  </valueentry>
                  <valueentry>
                    <name>Right</name>
                    <value>3</value>
                  </valueentry>
                </valuelist>
                <value>2</value>
              </parameter>
              <parameter>
                <parameterid>size</parameterid>
                <name>Size</name>
                <valuemin>0</valuemin>
                <valuemax>200</valuemax>
                <value>24</value>
              </parameter>
              <parameter>
                <parameterid>track</parameterid>
                <name>Tracking</name>
                <valuemin>0</valuemin>
                <valuemax>100</valuemax>
                <value>1</value>
              </parameter>
              <parameter>
                <parameterid>lead</parameterid>
                <name>Leading</name>
                <valuemin>-100</valuemin>
                <valuemax>100</valuemax>
                <value>0</value>
              </parameter>
              <parameter>
                <parameterid>aspect</parameterid>
                <name>Aspect</name>
                <valuemin>0</valuemin>
                <valuemax>4</valuemax>
                <value>1</value>
              </parameter>
              <parameter>
                <parameterid>linewidth</parameterid>
                <name>Line Width</name>
                <valuemin>0</valuemin>
                <valuemax>200</valuemax>
                <value>2</value>
              </parameter>
              <parameter>
                <parameterid>linesoft</parameterid>
                <name>Line Softness</name>
                <valuemin>0</valuemin>
                <valuemax>100</valuemax>
                <value>5</value>
              </parameter>
              <parameter>
                <parameterid>textopacity</parameterid>
                <name>Text Opacity</name>
                <valuemin>0</valuemin>
                <valuemax>100</valuemax>
                <value>100</value>
              </parameter>
              <parameter>
                <parameterid>center</parameterid>
                <name>Center</name>
                <value>
                  <horiz>0</horiz>
                  <vert>0.4703703703703703</vert>
                </value>
              </parameter>
              <parameter>
                <parameterid>textcolor</parameterid>
                <name>Text Color</name>
                <value>
                  <alpha>255</alpha>
                  <red>255</red>
                  <green>255</green>
                  <blue>255</blue>
                </value>
              </parameter>
              <parameter>
                <parameterid>supertext</parameterid>
                <name>Text Graphic</name>
              </parameter>
              <parameter>
                <parameterid>linecolor</parameterid>
                <name>Line Color</name>
                <value>
                  <alpha>255</alpha>
                  <red>0</red>
                  <green>0</green>
                  <blue>0</blue>
                </value>
              </parameter>
              <parameter>
                <parameterid>superline</parameterid>
                <name>Line Graphic</name>
              </parameter>
              <parameter>
                <parameterid>part2</parameterid>
                <name>Background Settings</name>
              </parameter>
              <parameter>
                <parameterid>xscale</parameterid>
                <name>Horizontal Size</name>
                <valuemin>0</valuemin>
                <valuemax>200</valuemax>
                <value>0</value>
              </parameter>
              <parameter>
                <parameterid>yscale</parameterid>
                <name>Vertical Size</name>
                <valuemin>0</valuemin>
                <valuemax>200</valuemax>
                <value>0</value>
              </parameter>
              <parameter>
                <parameterid>xoffset</parameterid>
                <name>Horizontal Offset</name>
                <valuemin>-100</valuemin>
                <valuemax>100</valuemax>
                <value>0</value>
              </parameter>
              <parameter>
                <parameterid>yoffset</parameterid>
                <name>Vertical Offset</name>
                <valuemin>-100</valuemin>
                <valuemax>100</valuemax>
                <value>0</value>
              </parameter>
              <parameter>
                <parameterid>backsoft</parameterid>
                <name>Back Soft</name>
                <valuemin>0</valuemin>
                <valuemax>100</valuemax>
                <value>0</value>
              </parameter>
              <parameter>
                <parameterid>backopacity</parameterid>
                <name>Back Opacity</name>
                <valuemin>0</valuemin>
                <valuemax>100</valuemax>
                <value>50</value>
              </parameter>
              <parameter>
                <parameterid>backcolor</parameterid>
                <name>Back Color</name>
                <value>
                  <alpha>255</alpha>
                  <red>255</red>
                  <green>255</green>
                  <blue>255</blue>
                </value>
              </parameter>
              <parameter>
                <parameterid>superback</parameterid>
                <name>Back Graphic</name>
              </parameter>
              <parameter>
                <parameterid>crop</parameterid>
                <name>Crop</name>
                <value>false</value>
              </parameter>
              <parameter>
                <parameterid>autokern</parameterid>
                <name>Auto Kerning</name>
                <value>true</value>
              </parameter>
            </effect>
            <sourcetrack>
              <mediatype>video</mediatype>
            </sourcetrack>
          </generatoritem>
          <generatoritem id="Outline Text1">
            <name>ちょっと難しかったね難しかったね</name>
            <duration>22166.1117</duration>
            <rate>
              <timebase>30</timebase>
              <ntsc>true</ntsc>
            </rate>
            <start>14000.785199999995</start>
            <end>14061.624299999996</end>
            <in>14000.785199999995</in>
            <out>14061.624299999996</out>
            <enabled>true</enabled>
            <anamorphic>false</anamorphic>
            <alphatype>black</alphatype>
            <masterclipid>Outline Text1</masterclipid>
            <effect>
              <name>Outline Text</name>
              <effectid>Outline Text</effectid>
              <effectcategory>Text</effectcategory>
              <effecttype>generator</effecttype>
              <mediatype>video</mediatype>
              <parameter>
                <parameterid>part1</parameterid>
                <name>Text Settings</name>
                <value/>
              </parameter>
              <parameter>
                <parameterid>str</parameterid>
                <name>Text</name>
                <value>ちょっと難しかったね難しかったね</value>
              </parameter>
              <parameter>
                <parameterid>font</parameterid>
                <name>Font</name>
                <value>HiraginoSans-W6</value>
              </parameter>
              <parameter>
                <parameterid>style</parameterid>
                <name>Style</name>
                <valuemin>1</valuemin>
                <valuemax>1</valuemax>
                <valuelist>
                  <valueentry>
                    <name>Regular</name>
                    <value>1</value>
                  </valueentry>
                </valuelist>
                <value>1</value>
              </parameter>
              <parameter>
                <parameterid>align</parameterid>
                <name>Alignment</name>
                <valuemin>1</valuemin>
                <valuemax>3</valuemax>
                <valuelist>
                  <valueentry>
                    <name>Left</name>
                    <value>1</value>
                  </valueentry>
                  <valueentry>
                    <name>Center</name>
                    <value>2</value>
                  </valueentry>
                  <valueentry>
                    <name>Right</name>
                    <value>3</value>
                  </valueentry>
                </valuelist>
                <value>2</value>
              </parameter>
              <parameter>
                <parameterid>size</parameterid>
                <name>Size</name>
                <valuemin>0</valuemin>
                <valuemax>200</valuemax>
                <value>24</value>
              </parameter>
              <parameter>
                <parameterid>track</parameterid>
                <name>Tracking</name>
                <valuemin>0</valuemin>
                <valuemax>100</valuemax>
                <value>1</value>
              </parameter>
              <parameter>
                <parameterid>lead</parameterid>
                <name>Leading</name>
                <valuemin>-100</valuemin>
                <valuemax>100</valuemax>
                <value>0</value>
              </parameter>
              <parameter>
                <parameterid>aspect</parameterid>
                <name>Aspect</name>
                <valuemin>0</valuemin>
                <valuemax>4</valuemax>
                <value>1</value>
              </parameter>
              <parameter>
                <parameterid>linewidth</parameterid>
                <name>Line Width</name>
                <valuemin>0</valuemin>
                <valuemax>200</valuemax>
                <value>2</value>
              </parameter>
              <parameter>
                <parameterid>linesoft</parameterid>
                <name>Line Softness</name>
                <valuemin>0</valuemin>
                <valuemax>100</valuemax>
                <value>5</value>
              </parameter>
              <parameter>
                <parameterid>textopacity</parameterid>
                <name>Text Opacity</name>
                <valuemin>0</valuemin>
                <valuemax>100</valuemax>
                <value>100</value>
              </parameter>
              <parameter>
                <parameterid>center</parameterid>
                <name>Center</name>
                <value>
                  <horiz>0</horiz>
                  <vert>0.4703703703703703</vert>
                </value>
              </parameter>
              <parameter>
                <parameterid>textcolor</parameterid>
                <name>Text Color</name>
                <value>
                  <alpha>255</alpha>
                  <red>255</red>
                  <green>255</green>
                  <blue>255</blue>
                </value>
              </parameter>
              <parameter>
                <parameterid>supertext</parameterid>
                <name>Text Graphic</name>
              </parameter>
              <parameter>
                <parameterid>linecolor</parameterid>
                <name>Line Color</name>
                <value>
                  <alpha>255</alpha>
                  <red>0</red>
                  <green>0</green>
                  <blue>0</blue>
                </value>
              </parameter>
              <parameter>
                <parameterid>superline</parameterid>
                <name>Line Graphic</name>
              </parameter>
              <parameter>
                <parameterid>part2</parameterid>
                <name>Background Settings</name>
              </parameter>
              <parameter>
                <parameterid>xscale</parameterid>
                <name>Horizontal Size</name>
                <valuemin>0</valuemin>
                <valuemax>200</valuemax>
                <value>0</value>
              </parameter>
              <parameter>
                <parameterid>yscale</parameterid>
                <name>Vertical Size</name>
                <valuemin>0</valuemin>
                <valuemax>200</valuemax>
                <value>0</value>
              </parameter>
              <parameter>
                <parameterid>xoffset</parameterid>
                <name>Horizontal Offset</name>
                <valuemin>-100</valuemin>
                <valuemax>100</valuemax>
                <value>0</value>
              </parameter>
              <parameter>
                <parameterid>yoffset</parameterid>
                <name>Vertical Offset</name>
                <valuemin>-100</valuemin>
                <valuemax>100</valuemax>
                <value>0</value>
              </parameter>
              <parameter>
                <parameterid>backsoft</parameterid>
                <name>Back Soft</name>
                <valuemin>0</valuemin>
                <valuemax>100</valuemax>
                <value>0</value>
              </parameter>
              <parameter>
                <parameterid>backopacity</parameterid>
                <name>Back Opacity</name>
                <valuemin>0</valuemin>
                <valuemax>100</valuemax>
                <value>50</value>
              </parameter>
              <parameter>
                <parameterid>backcolor</parameterid>
                <name>Back Color</name>
                <value>
                  <alpha>255</alpha>
                  <red>255</red>
                  <green>255</green>
                  <blue>255</blue>
                </value>
              </parameter>
              <parameter>
                <parameterid>superback</parameterid>
                <name>Back Graphic</name>
              </parameter>
              <parameter>
                <parameterid>crop</parameterid>
                <name>Crop</name>
                <value>false</value>
              </parameter>
              <parameter>
                <parameterid>autokern</parameterid>
                <name>Auto Kerning</name>
                <value>true</value>
              </parameter>
            </effect>
            <sourcetrack>
              <mediatype>video</mediatype>
            </sourcetrack>
          </generatoritem>
          <generatoritem id="Outline Text1">
            <name>テイクアウト系が意外と調べるの難しくて楽しみこの辺?</name>
            <duration>22166.1117</duration>
            <rate>
              <timebase>30</timebase>
              <ntsc>true</ntsc>
            </rate>
            <start>14061.624299999996</start>
            <end>14441.044499999995</end>
            <in>14061.624299999996</in>
            <out>14441.044499999995</out>
            <enabled>true</enabled>
            <anamorphic>false</anamorphic>
            <alphatype>black</alphatype>
            <masterclipid>Outline Text1</masterclipid>
            <effect>
              <name>Outline Text</name>
              <effectid>Outline Text</effectid>
              <effectcategory>Text</effectcategory>
              <effecttype>generator</effecttype>
              <mediatype>video</mediatype>
              <parameter>
                <parameterid>part1</parameterid>
                <name>Text Settings</name>
                <value/>
              </parameter>
              <parameter>
                <parameterid>str</parameterid>
                <name>Text</name>
                <value>テイクアウト系が意外と調べるの難しくて楽しみこの辺?</value>
              </parameter>
              <parameter>
                <parameterid>font</parameterid>
                <name>Font</name>
                <value>HiraginoSans-W6</value>
              </parameter>
              <parameter>
                <parameterid>style</parameterid>
                <name>Style</name>
                <valuemin>1</valuemin>
                <valuemax>1</valuemax>
                <valuelist>
                  <valueentry>
                    <name>Regular</name>
                    <value>1</value>
                  </valueentry>
                </valuelist>
                <value>1</value>
              </parameter>
              <parameter>
                <parameterid>align</parameterid>
                <name>Alignment</name>
                <valuemin>1</valuemin>
                <valuemax>3</valuemax>
                <valuelist>
                  <valueentry>
                    <name>Left</name>
                    <value>1</value>
                  </valueentry>
                  <valueentry>
                    <name>Center</name>
                    <value>2</value>
                  </valueentry>
                  <valueentry>
                    <name>Right</name>
                    <value>3</value>
                  </valueentry>
                </valuelist>
                <value>2</value>
              </parameter>
              <parameter>
                <parameterid>size</parameterid>
                <name>Size</name>
                <valuemin>0</valuemin>
                <valuemax>200</valuemax>
                <value>24</value>
              </parameter>
              <parameter>
                <parameterid>track</parameterid>
                <name>Tracking</name>
                <valuemin>0</valuemin>
                <valuemax>100</valuemax>
                <value>1</value>
              </parameter>
              <parameter>
                <parameterid>lead</parameterid>
                <name>Leading</name>
                <valuemin>-100</valuemin>
                <valuemax>100</valuemax>
                <value>0</value>
              </parameter>
              <parameter>
                <parameterid>aspect</parameterid>
                <name>Aspect</name>
                <valuemin>0</valuemin>
                <valuemax>4</valuemax>
                <value>1</value>
              </parameter>
              <parameter>
                <parameterid>linewidth</parameterid>
                <name>Line Width</name>
                <valuemin>0</valuemin>
                <valuemax>200</valuemax>
                <value>2</value>
              </parameter>
              <parameter>
                <parameterid>linesoft</parameterid>
                <name>Line Softness</name>
                <valuemin>0</valuemin>
                <valuemax>100</valuemax>
                <value>5</value>
              </parameter>
              <parameter>
                <parameterid>textopacity</parameterid>
                <name>Text Opacity</name>
                <valuemin>0</valuemin>
                <valuemax>100</valuemax>
                <value>100</value>
              </parameter>
              <parameter>
                <parameterid>center</parameterid>
                <name>Center</name>
                <value>
                  <horiz>0</horiz>
                  <vert>0.4703703703703703</vert>
                </value>
              </parameter>
              <parameter>
                <parameterid>textcolor</parameterid>
                <name>Text Color</name>
                <value>
                  <alpha>255</alpha>
                  <red>255</red>
                  <green>255</green>
                  <blue>255</blue>
                </value>
              </parameter>
              <parameter>
                <parameterid>supertext</parameterid>
                <name>Text Graphic</name>
              </parameter>
              <parameter>
                <parameterid>linecolor</parameterid>
                <name>Line Color</name>
                <value>
                  <alpha>255</alpha>
                  <red>0</red>
                  <green>0</green>
                  <blue>0</blue>
                </value>
              </parameter>
              <parameter>
                <parameterid>superline</parameterid>
                <name>Line Graphic</name>
              </parameter>
              <parameter>
                <parameterid>part2</parameterid>
                <name>Background Settings</name>
              </parameter>
              <parameter>
                <parameterid>xscale</parameterid>
                <name>Horizontal Size</name>
                <valuemin>0</valuemin>
                <valuemax>200</valuemax>
                <value>0</value>
              </parameter>
              <parameter>
                <parameterid>yscale</parameterid>
                <name>Vertical Size</name>
                <valuemin>0</valuemin>
                <valuemax>200</valuemax>
                <value>0</value>
              </parameter>
              <parameter>
                <parameterid>xoffset</parameterid>
                <name>Horizontal Offset</name>
                <valuemin>-100</valuemin>
                <valuemax>100</valuemax>
                <value>0</value>
              </parameter>
              <parameter>
                <parameterid>yoffset</parameterid>
                <name>Vertical Offset</name>
                <valuemin>-100</valuemin>
                <valuemax>100</valuemax>
                <value>0</value>
              </parameter>
              <parameter>
                <parameterid>backsoft</parameterid>
                <name>Back Soft</name>
                <valuemin>0</valuemin>
                <valuemax>100</valuemax>
                <value>0</value>
              </parameter>
              <parameter>
                <parameterid>backopacity</parameterid>
                <name>Back Opacity</name>
                <valuemin>0</valuemin>
                <valuemax>100</valuemax>
                <value>50</value>
              </parameter>
              <parameter>
                <parameterid>backcolor</parameterid>
                <name>Back Color</name>
                <value>
                  <alpha>255</alpha>
                  <red>255</red>
                  <green>255</green>
                  <blue>255</blue>
                </value>
              </parameter>
              <parameter>
                <parameterid>superback</parameterid>
                <name>Back Graphic</name>
              </parameter>
              <parameter>
                <parameterid>crop</parameterid>
                <name>Crop</name>
                <value>false</value>
              </parameter>
              <parameter>
                <parameterid>autokern</parameterid>
                <name>Auto Kerning</name>
                <value>true</value>
              </parameter>
            </effect>
            <sourcetrack>
              <mediatype>video</mediatype>
            </sourcetrack>
          </generatoritem>
          <generatoritem id="Outline Text1">
            <name>あれ?あれ?あれなのでは?</name>
            <duration>22166.1117</duration>
            <rate>
              <timebase>30</timebase>
              <ntsc>true</ntsc>
            </rate>
            <start>14441.044499999995</start>
            <end>14532.153299999994</end>
            <in>14441.044499999995</in>
            <out>14532.153299999994</out>
            <enabled>true</enabled>
            <anamorphic>false</anamorphic>
            <alphatype>black</alphatype>
            <masterclipid>Outline Text1</masterclipid>
            <effect>
              <name>Outline Text</name>
              <effectid>Outline Text</effectid>
              <effectcategory>Text</effectcategory>
              <effecttype>generator</effecttype>
              <mediatype>video</mediatype>
              <parameter>
                <parameterid>part1</parameterid>
                <name>Text Settings</name>
                <value/>
              </parameter>
              <parameter>
                <parameterid>str</parameterid>
                <name>Text</name>
                <value>あれ?あれ?あれなのでは?</value>
              </parameter>
              <parameter>
                <parameterid>font</parameterid>
                <name>Font</name>
                <value>HiraginoSans-W6</value>
              </parameter>
              <parameter>
                <parameterid>style</parameterid>
                <name>Style</name>
                <valuemin>1</valuemin>
                <valuemax>1</valuemax>
                <valuelist>
                  <valueentry>
                    <name>Regular</name>
                    <value>1</value>
                  </valueentry>
                </valuelist>
                <value>1</value>
              </parameter>
              <parameter>
                <parameterid>align</parameterid>
                <name>Alignment</name>
                <valuemin>1</valuemin>
                <valuemax>3</valuemax>
                <valuelist>
                  <valueentry>
                    <name>Left</name>
                    <value>1</value>
                  </valueentry>
                  <valueentry>
                    <name>Center</name>
                    <value>2</value>
                  </valueentry>
                  <valueentry>
                    <name>Right</name>
                    <value>3</value>
                  </valueentry>
                </valuelist>
                <value>2</value>
              </parameter>
              <parameter>
                <parameterid>size</parameterid>
                <name>Size</name>
                <valuemin>0</valuemin>
                <valuemax>200</valuemax>
                <value>24</value>
              </parameter>
              <parameter>
                <parameterid>track</parameterid>
                <name>Tracking</name>
                <valuemin>0</valuemin>
                <valuemax>100</valuemax>
                <value>1</value>
              </parameter>
              <parameter>
                <parameterid>lead</parameterid>
                <name>Leading</name>
                <valuemin>-100</valuemin>
                <valuemax>100</valuemax>
                <value>0</value>
              </parameter>
              <parameter>
                <parameterid>aspect</parameterid>
                <name>Aspect</name>
                <valuemin>0</valuemin>
                <valuemax>4</valuemax>
                <value>1</value>
              </parameter>
              <parameter>
                <parameterid>linewidth</parameterid>
                <name>Line Width</name>
                <valuemin>0</valuemin>
                <valuemax>200</valuemax>
                <value>2</value>
              </parameter>
              <parameter>
                <parameterid>linesoft</parameterid>
                <name>Line Softness</name>
                <valuemin>0</valuemin>
                <valuemax>100</valuemax>
                <value>5</value>
              </parameter>
              <parameter>
                <parameterid>textopacity</parameterid>
                <name>Text Opacity</name>
                <valuemin>0</valuemin>
                <valuemax>100</valuemax>
                <value>100</value>
              </parameter>
              <parameter>
                <parameterid>center</parameterid>
                <name>Center</name>
                <value>
                  <horiz>0</horiz>
                  <vert>0.4703703703703703</vert>
                </value>
              </parameter>
              <parameter>
                <parameterid>textcolor</parameterid>
                <name>Text Color</name>
                <value>
                  <alpha>255</alpha>
                  <red>255</red>
                  <green>255</green>
                  <blue>255</blue>
                </value>
              </parameter>
              <parameter>
                <parameterid>supertext</parameterid>
                <name>Text Graphic</name>
              </parameter>
              <parameter>
                <parameterid>linecolor</parameterid>
                <name>Line Color</name>
                <value>
                  <alpha>255</alpha>
                  <red>0</red>
                  <green>0</green>
                  <blue>0</blue>
                </value>
              </parameter>
              <parameter>
                <parameterid>superline</parameterid>
                <name>Line Graphic</name>
              </parameter>
              <parameter>
                <parameterid>part2</parameterid>
                <name>Background Settings</name>
              </parameter>
              <parameter>
                <parameterid>xscale</parameterid>
                <name>Horizontal Size</name>
                <valuemin>0</valuemin>
                <valuemax>200</valuemax>
                <value>0</value>
              </parameter>
              <parameter>
                <parameterid>yscale</parameterid>
                <name>Vertical Size</name>
                <valuemin>0</valuemin>
                <valuemax>200</valuemax>
                <value>0</value>
              </parameter>
              <parameter>
                <parameterid>xoffset</parameterid>
                <name>Horizontal Offset</name>
                <valuemin>-100</valuemin>
                <valuemax>100</valuemax>
                <value>0</value>
              </parameter>
              <parameter>
                <parameterid>yoffset</parameterid>
                <name>Vertical Offset</name>
                <valuemin>-100</valuemin>
                <valuemax>100</valuemax>
                <value>0</value>
              </parameter>
              <parameter>
                <parameterid>backsoft</parameterid>
                <name>Back Soft</name>
                <valuemin>0</valuemin>
                <valuemax>100</valuemax>
                <value>0</value>
              </parameter>
              <parameter>
                <parameterid>backopacity</parameterid>
                <name>Back Opacity</name>
                <valuemin>0</valuemin>
                <valuemax>100</valuemax>
                <value>50</value>
              </parameter>
              <parameter>
                <parameterid>backcolor</parameterid>
                <name>Back Color</name>
                <value>
                  <alpha>255</alpha>
                  <red>255</red>
                  <green>255</green>
                  <blue>255</blue>
                </value>
              </parameter>
              <parameter>
                <parameterid>superback</parameterid>
                <name>Back Graphic</name>
              </parameter>
              <parameter>
                <parameterid>crop</parameterid>
                <name>Crop</name>
                <value>false</value>
              </parameter>
              <parameter>
                <parameterid>autokern</parameterid>
                <name>Auto Kerning</name>
                <value>true</value>
              </parameter>
            </effect>
            <sourcetrack>
              <mediatype>video</mediatype>
            </sourcetrack>
          </generatoritem>
          <generatoritem id="Outline Text1">
            <name>あれ?違う?</name>
            <duration>22166.1117</duration>
            <rate>
              <timebase>30</timebase>
              <ntsc>true</ntsc>
            </rate>
            <start>14532.153299999994</start>
            <end>14554.930499999993</end>
            <in>14532.153299999994</in>
            <out>14554.930499999993</out>
            <enabled>true</enabled>
            <anamorphic>false</anamorphic>
            <alphatype>black</alphatype>
            <masterclipid>Outline Text1</masterclipid>
            <effect>
              <name>Outline Text</name>
              <effectid>Outline Text</effectid>
              <effectcategory>Text</effectcategory>
              <effecttype>generator</effecttype>
              <mediatype>video</mediatype>
              <parameter>
                <parameterid>part1</parameterid>
                <name>Text Settings</name>
                <value/>
              </parameter>
              <parameter>
                <parameterid>str</parameterid>
                <name>Text</name>
                <value>あれ?違う?</value>
              </parameter>
              <parameter>
                <parameterid>font</parameterid>
                <name>Font</name>
                <value>HiraginoSans-W6</value>
              </parameter>
              <parameter>
                <parameterid>style</parameterid>
                <name>Style</name>
                <valuemin>1</valuemin>
                <valuemax>1</valuemax>
                <valuelist>
                  <valueentry>
                    <name>Regular</name>
                    <value>1</value>
                  </valueentry>
                </valuelist>
                <value>1</value>
              </parameter>
              <parameter>
                <parameterid>align</parameterid>
                <name>Alignment</name>
                <valuemin>1</valuemin>
                <valuemax>3</valuemax>
                <valuelist>
                  <valueentry>
                    <name>Left</name>
                    <value>1</value>
                  </valueentry>
                  <valueentry>
                    <name>Center</name>
                    <value>2</value>
                  </valueentry>
                  <valueentry>
                    <name>Right</name>
                    <value>3</value>
                  </valueentry>
                </valuelist>
                <value>2</value>
              </parameter>
              <parameter>
                <parameterid>size</parameterid>
                <name>Size</name>
                <valuemin>0</valuemin>
                <valuemax>200</valuemax>
                <value>24</value>
              </parameter>
              <parameter>
                <parameterid>track</parameterid>
                <name>Tracking</name>
                <valuemin>0</valuemin>
                <valuemax>100</valuemax>
                <value>1</value>
              </parameter>
              <parameter>
                <parameterid>lead</parameterid>
                <name>Leading</name>
                <valuemin>-100</valuemin>
                <valuemax>100</valuemax>
                <value>0</value>
              </parameter>
              <parameter>
                <parameterid>aspect</parameterid>
                <name>Aspect</name>
                <valuemin>0</valuemin>
                <valuemax>4</valuemax>
                <value>1</value>
              </parameter>
              <parameter>
                <parameterid>linewidth</parameterid>
                <name>Line Width</name>
                <valuemin>0</valuemin>
                <valuemax>200</valuemax>
                <value>2</value>
              </parameter>
              <parameter>
                <parameterid>linesoft</parameterid>
                <name>Line Softness</name>
                <valuemin>0</valuemin>
                <valuemax>100</valuemax>
                <value>5</value>
              </parameter>
              <parameter>
                <parameterid>textopacity</parameterid>
                <name>Text Opacity</name>
                <valuemin>0</valuemin>
                <valuemax>100</valuemax>
                <value>100</value>
              </parameter>
              <parameter>
                <parameterid>center</parameterid>
                <name>Center</name>
                <value>
                  <horiz>0</horiz>
                  <vert>0.4703703703703703</vert>
                </value>
              </parameter>
              <parameter>
                <parameterid>textcolor</parameterid>
                <name>Text Color</name>
                <value>
                  <alpha>255</alpha>
                  <red>255</red>
                  <green>255</green>
                  <blue>255</blue>
                </value>
              </parameter>
              <parameter>
                <parameterid>supertext</parameterid>
                <name>Text Graphic</name>
              </parameter>
              <parameter>
                <parameterid>linecolor</parameterid>
                <name>Line Color</name>
                <value>
                  <alpha>255</alpha>
                  <red>0</red>
                  <green>0</green>
                  <blue>0</blue>
                </value>
              </parameter>
              <parameter>
                <parameterid>superline</parameterid>
                <name>Line Graphic</name>
              </parameter>
              <parameter>
                <parameterid>part2</parameterid>
                <name>Background Settings</name>
              </parameter>
              <parameter>
                <parameterid>xscale</parameterid>
                <name>Horizontal Size</name>
                <valuemin>0</valuemin>
                <valuemax>200</valuemax>
                <value>0</value>
              </parameter>
              <parameter>
                <parameterid>yscale</parameterid>
                <name>Vertical Size</name>
                <valuemin>0</valuemin>
                <valuemax>200</valuemax>
                <value>0</value>
              </parameter>
              <parameter>
                <parameterid>xoffset</parameterid>
                <name>Horizontal Offset</name>
                <valuemin>-100</valuemin>
                <valuemax>100</valuemax>
                <value>0</value>
              </parameter>
              <parameter>
                <parameterid>yoffset</parameterid>
                <name>Vertical Offset</name>
                <valuemin>-100</valuemin>
                <valuemax>100</valuemax>
                <value>0</value>
              </parameter>
              <parameter>
                <parameterid>backsoft</parameterid>
                <name>Back Soft</name>
                <valuemin>0</valuemin>
                <valuemax>100</valuemax>
                <value>0</value>
              </parameter>
              <parameter>
                <parameterid>backopacity</parameterid>
                <name>Back Opacity</name>
                <valuemin>0</valuemin>
                <valuemax>100</valuemax>
                <value>50</value>
              </parameter>
              <parameter>
                <parameterid>backcolor</parameterid>
                <name>Back Color</name>
                <value>
                  <alpha>255</alpha>
                  <red>255</red>
                  <green>255</green>
                  <blue>255</blue>
                </value>
              </parameter>
              <parameter>
                <parameterid>superback</parameterid>
                <name>Back Graphic</name>
              </parameter>
              <parameter>
                <parameterid>crop</parameterid>
                <name>Crop</name>
                <value>false</value>
              </parameter>
              <parameter>
                <parameterid>autokern</parameterid>
                <name>Auto Kerning</name>
                <value>true</value>
              </parameter>
            </effect>
            <sourcetrack>
              <mediatype>video</mediatype>
            </sourcetrack>
          </generatoritem>
          <generatoritem id="Outline Text1">
            <name>あれ?え?え?え?え?</name>
            <duration>22166.1117</duration>
            <rate>
              <timebase>30</timebase>
              <ntsc>true</ntsc>
            </rate>
            <start>14554.930499999993</start>
            <end>14777.607599999987</end>
            <in>14554.930499999993</in>
            <out>14777.607599999987</out>
            <enabled>true</enabled>
            <anamorphic>false</anamorphic>
            <alphatype>black</alphatype>
            <masterclipid>Outline Text1</masterclipid>
            <effect>
              <name>Outline Text</name>
              <effectid>Outline Text</effectid>
              <effectcategory>Text</effectcategory>
              <effecttype>generator</effecttype>
              <mediatype>video</mediatype>
              <parameter>
                <parameterid>part1</parameterid>
                <name>Text Settings</name>
                <value/>
              </parameter>
              <parameter>
                <parameterid>str</parameterid>
                <name>Text</name>
                <value>あれ?え?え?え?え?</value>
              </parameter>
              <parameter>
                <parameterid>font</parameterid>
                <name>Font</name>
                <value>HiraginoSans-W6</value>
              </parameter>
              <parameter>
                <parameterid>style</parameterid>
                <name>Style</name>
                <valuemin>1</valuemin>
                <valuemax>1</valuemax>
                <valuelist>
                  <valueentry>
                    <name>Regular</name>
                    <value>1</value>
                  </valueentry>
                </valuelist>
                <value>1</value>
              </parameter>
              <parameter>
                <parameterid>align</parameterid>
                <name>Alignment</name>
                <valuemin>1</valuemin>
                <valuemax>3</valuemax>
                <valuelist>
                  <valueentry>
                    <name>Left</name>
                    <value>1</value>
                  </valueentry>
                  <valueentry>
                    <name>Center</name>
                    <value>2</value>
                  </valueentry>
                  <valueentry>
                    <name>Right</name>
                    <value>3</value>
                  </valueentry>
                </valuelist>
                <value>2</value>
              </parameter>
              <parameter>
                <parameterid>size</parameterid>
                <name>Size</name>
                <valuemin>0</valuemin>
                <valuemax>200</valuemax>
                <value>24</value>
              </parameter>
              <parameter>
                <parameterid>track</parameterid>
                <name>Tracking</name>
                <valuemin>0</valuemin>
                <valuemax>100</valuemax>
                <value>1</value>
              </parameter>
              <parameter>
                <parameterid>lead</parameterid>
                <name>Leading</name>
                <valuemin>-100</valuemin>
                <valuemax>100</valuemax>
                <value>0</value>
              </parameter>
              <parameter>
                <parameterid>aspect</parameterid>
                <name>Aspect</name>
                <valuemin>0</valuemin>
                <valuemax>4</valuemax>
                <value>1</value>
              </parameter>
              <parameter>
                <parameterid>linewidth</parameterid>
                <name>Line Width</name>
                <valuemin>0</valuemin>
                <valuemax>200</valuemax>
                <value>2</value>
              </parameter>
              <parameter>
                <parameterid>linesoft</parameterid>
                <name>Line Softness</name>
                <valuemin>0</valuemin>
                <valuemax>100</valuemax>
                <value>5</value>
              </parameter>
              <parameter>
                <parameterid>textopacity</parameterid>
                <name>Text Opacity</name>
                <valuemin>0</valuemin>
                <valuemax>100</valuemax>
                <value>100</value>
              </parameter>
              <parameter>
                <parameterid>center</parameterid>
                <name>Center</name>
                <value>
                  <horiz>0</horiz>
                  <vert>0.4703703703703703</vert>
                </value>
              </parameter>
              <parameter>
                <parameterid>textcolor</parameterid>
                <name>Text Color</name>
                <value>
                  <alpha>255</alpha>
                  <red>255</red>
                  <green>255</green>
                  <blue>255</blue>
                </value>
              </parameter>
              <parameter>
                <parameterid>supertext</parameterid>
                <name>Text Graphic</name>
              </parameter>
              <parameter>
                <parameterid>linecolor</parameterid>
                <name>Line Color</name>
                <value>
                  <alpha>255</alpha>
                  <red>0</red>
                  <green>0</green>
                  <blue>0</blue>
                </value>
              </parameter>
              <parameter>
                <parameterid>superline</parameterid>
                <name>Line Graphic</name>
              </parameter>
              <parameter>
                <parameterid>part2</parameterid>
                <name>Background Settings</name>
              </parameter>
              <parameter>
                <parameterid>xscale</parameterid>
                <name>Horizontal Size</name>
                <valuemin>0</valuemin>
                <valuemax>200</valuemax>
                <value>0</value>
              </parameter>
              <parameter>
                <parameterid>yscale</parameterid>
                <name>Vertical Size</name>
                <valuemin>0</valuemin>
                <valuemax>200</valuemax>
                <value>0</value>
              </parameter>
              <parameter>
                <parameterid>xoffset</parameterid>
                <name>Horizontal Offset</name>
                <valuemin>-100</valuemin>
                <valuemax>100</valuemax>
                <value>0</value>
              </parameter>
              <parameter>
                <parameterid>yoffset</parameterid>
                <name>Vertical Offset</name>
                <valuemin>-100</valuemin>
                <valuemax>100</valuemax>
                <value>0</value>
              </parameter>
              <parameter>
                <parameterid>backsoft</parameterid>
                <name>Back Soft</name>
                <valuemin>0</valuemin>
                <valuemax>100</valuemax>
                <value>0</value>
              </parameter>
              <parameter>
                <parameterid>backopacity</parameterid>
                <name>Back Opacity</name>
                <valuemin>0</valuemin>
                <valuemax>100</valuemax>
                <value>50</value>
              </parameter>
              <parameter>
                <parameterid>backcolor</parameterid>
                <name>Back Color</name>
                <value>
                  <alpha>255</alpha>
                  <red>255</red>
                  <green>255</green>
                  <blue>255</blue>
                </value>
              </parameter>
              <parameter>
                <parameterid>superback</parameterid>
                <name>Back Graphic</name>
              </parameter>
              <parameter>
                <parameterid>crop</parameterid>
                <name>Crop</name>
                <value>false</value>
              </parameter>
              <parameter>
                <parameterid>autokern</parameterid>
                <name>Auto Kerning</name>
                <value>true</value>
              </parameter>
            </effect>
            <sourcetrack>
              <mediatype>video</mediatype>
            </sourcetrack>
          </generatoritem>
          <generatoritem id="Outline Text1">
            <name>ちょっとちょっと待って!</name>
            <duration>22166.1117</duration>
            <rate>
              <timebase>30</timebase>
              <ntsc>true</ntsc>
            </rate>
            <start>14777.607599999987</start>
            <end>14812.073099999987</end>
            <in>14777.607599999987</in>
            <out>14812.073099999987</out>
            <enabled>true</enabled>
            <anamorphic>false</anamorphic>
            <alphatype>black</alphatype>
            <masterclipid>Outline Text1</masterclipid>
            <effect>
              <name>Outline Text</name>
              <effectid>Outline Text</effectid>
              <effectcategory>Text</effectcategory>
              <effecttype>generator</effecttype>
              <mediatype>video</mediatype>
              <parameter>
                <parameterid>part1</parameterid>
                <name>Text Settings</name>
                <value/>
              </parameter>
              <parameter>
                <parameterid>str</parameterid>
                <name>Text</name>
                <value>ちょっとちょっと待って!</value>
              </parameter>
              <parameter>
                <parameterid>font</parameterid>
                <name>Font</name>
                <value>HiraginoSans-W6</value>
              </parameter>
              <parameter>
                <parameterid>style</parameterid>
                <name>Style</name>
                <valuemin>1</valuemin>
                <valuemax>1</valuemax>
                <valuelist>
                  <valueentry>
                    <name>Regular</name>
                    <value>1</value>
                  </valueentry>
                </valuelist>
                <value>1</value>
              </parameter>
              <parameter>
                <parameterid>align</parameterid>
                <name>Alignment</name>
                <valuemin>1</valuemin>
                <valuemax>3</valuemax>
                <valuelist>
                  <valueentry>
                    <name>Left</name>
                    <value>1</value>
                  </valueentry>
                  <valueentry>
                    <name>Center</name>
                    <value>2</value>
                  </valueentry>
                  <valueentry>
                    <name>Right</name>
                    <value>3</value>
                  </valueentry>
                </valuelist>
                <value>2</value>
              </parameter>
              <parameter>
                <parameterid>size</parameterid>
                <name>Size</name>
                <valuemin>0</valuemin>
                <valuemax>200</valuemax>
                <value>24</value>
              </parameter>
              <parameter>
                <parameterid>track</parameterid>
                <name>Tracking</name>
                <valuemin>0</valuemin>
                <valuemax>100</valuemax>
                <value>1</value>
              </parameter>
              <parameter>
                <parameterid>lead</parameterid>
                <name>Leading</name>
                <valuemin>-100</valuemin>
                <valuemax>100</valuemax>
                <value>0</value>
              </parameter>
              <parameter>
                <parameterid>aspect</parameterid>
                <name>Aspect</name>
                <valuemin>0</valuemin>
                <valuemax>4</valuemax>
                <value>1</value>
              </parameter>
              <parameter>
                <parameterid>linewidth</parameterid>
                <name>Line Width</name>
                <valuemin>0</valuemin>
                <valuemax>200</valuemax>
                <value>2</value>
              </parameter>
              <parameter>
                <parameterid>linesoft</parameterid>
                <name>Line Softness</name>
                <valuemin>0</valuemin>
                <valuemax>100</valuemax>
                <value>5</value>
              </parameter>
              <parameter>
                <parameterid>textopacity</parameterid>
                <name>Text Opacity</name>
                <valuemin>0</valuemin>
                <valuemax>100</valuemax>
                <value>100</value>
              </parameter>
              <parameter>
                <parameterid>center</parameterid>
                <name>Center</name>
                <value>
                  <horiz>0</horiz>
                  <vert>0.4703703703703703</vert>
                </value>
              </parameter>
              <parameter>
                <parameterid>textcolor</parameterid>
                <name>Text Color</name>
                <value>
                  <alpha>255</alpha>
                  <red>255</red>
                  <green>255</green>
                  <blue>255</blue>
                </value>
              </parameter>
              <parameter>
                <parameterid>supertext</parameterid>
                <name>Text Graphic</name>
              </parameter>
              <parameter>
                <parameterid>linecolor</parameterid>
                <name>Line Color</name>
                <value>
                  <alpha>255</alpha>
                  <red>0</red>
                  <green>0</green>
                  <blue>0</blue>
                </value>
              </parameter>
              <parameter>
                <parameterid>superline</parameterid>
                <name>Line Graphic</name>
              </parameter>
              <parameter>
                <parameterid>part2</parameterid>
                <name>Background Settings</name>
              </parameter>
              <parameter>
                <parameterid>xscale</parameterid>
                <name>Horizontal Size</name>
                <valuemin>0</valuemin>
                <valuemax>200</valuemax>
                <value>0</value>
              </parameter>
              <parameter>
                <parameterid>yscale</parameterid>
                <name>Vertical Size</name>
                <valuemin>0</valuemin>
                <valuemax>200</valuemax>
                <value>0</value>
              </parameter>
              <parameter>
                <parameterid>xoffset</parameterid>
                <name>Horizontal Offset</name>
                <valuemin>-100</valuemin>
                <valuemax>100</valuemax>
                <value>0</value>
              </parameter>
              <parameter>
                <parameterid>yoffset</parameterid>
                <name>Vertical Offset</name>
                <valuemin>-100</valuemin>
                <valuemax>100</valuemax>
                <value>0</value>
              </parameter>
              <parameter>
                <parameterid>backsoft</parameterid>
                <name>Back Soft</name>
                <valuemin>0</valuemin>
                <valuemax>100</valuemax>
                <value>0</value>
              </parameter>
              <parameter>
                <parameterid>backopacity</parameterid>
                <name>Back Opacity</name>
                <valuemin>0</valuemin>
                <valuemax>100</valuemax>
                <value>50</value>
              </parameter>
              <parameter>
                <parameterid>backcolor</parameterid>
                <name>Back Color</name>
                <value>
                  <alpha>255</alpha>
                  <red>255</red>
                  <green>255</green>
                  <blue>255</blue>
                </value>
              </parameter>
              <parameter>
                <parameterid>superback</parameterid>
                <name>Back Graphic</name>
              </parameter>
              <parameter>
                <parameterid>crop</parameterid>
                <name>Crop</name>
                <value>false</value>
              </parameter>
              <parameter>
                <parameterid>autokern</parameterid>
                <name>Auto Kerning</name>
                <value>true</value>
              </parameter>
            </effect>
            <sourcetrack>
              <mediatype>video</mediatype>
            </sourcetrack>
          </generatoritem>
          <generatoritem id="Outline Text1">
            <name>ちょっと待って!</name>
            <duration>22166.1117</duration>
            <rate>
              <timebase>30</timebase>
              <ntsc>true</ntsc>
            </rate>
            <start>14812.073099999987</start>
            <end>14840.244899999987</end>
            <in>14812.073099999987</in>
            <out>14840.244899999987</out>
            <enabled>true</enabled>
            <anamorphic>false</anamorphic>
            <alphatype>black</alphatype>
            <masterclipid>Outline Text1</masterclipid>
            <effect>
              <name>Outline Text</name>
              <effectid>Outline Text</effectid>
              <effectcategory>Text</effectcategory>
              <effecttype>generator</effecttype>
              <mediatype>video</mediatype>
              <parameter>
                <parameterid>part1</parameterid>
                <name>Text Settings</name>
                <value/>
              </parameter>
              <parameter>
                <parameterid>str</parameterid>
                <name>Text</name>
                <value>ちょっと待って!</value>
              </parameter>
              <parameter>
                <parameterid>font</parameterid>
                <name>Font</name>
                <value>HiraginoSans-W6</value>
              </parameter>
              <parameter>
                <parameterid>style</parameterid>
                <name>Style</name>
                <valuemin>1</valuemin>
                <valuemax>1</valuemax>
                <valuelist>
                  <valueentry>
                    <name>Regular</name>
                    <value>1</value>
                  </valueentry>
                </valuelist>
                <value>1</value>
              </parameter>
              <parameter>
                <parameterid>align</parameterid>
                <name>Alignment</name>
                <valuemin>1</valuemin>
                <valuemax>3</valuemax>
                <valuelist>
                  <valueentry>
                    <name>Left</name>
                    <value>1</value>
                  </valueentry>
                  <valueentry>
                    <name>Center</name>
                    <value>2</value>
                  </valueentry>
                  <valueentry>
                    <name>Right</name>
                    <value>3</value>
                  </valueentry>
                </valuelist>
                <value>2</value>
              </parameter>
              <parameter>
                <parameterid>size</parameterid>
                <name>Size</name>
                <valuemin>0</valuemin>
                <valuemax>200</valuemax>
                <value>24</value>
              </parameter>
              <parameter>
                <parameterid>track</parameterid>
                <name>Tracking</name>
                <valuemin>0</valuemin>
                <valuemax>100</valuemax>
                <value>1</value>
              </parameter>
              <parameter>
                <parameterid>lead</parameterid>
                <name>Leading</name>
                <valuemin>-100</valuemin>
                <valuemax>100</valuemax>
                <value>0</value>
              </parameter>
              <parameter>
                <parameterid>aspect</parameterid>
                <name>Aspect</name>
                <valuemin>0</valuemin>
                <valuemax>4</valuemax>
                <value>1</value>
              </parameter>
              <parameter>
                <parameterid>linewidth</parameterid>
                <name>Line Width</name>
                <valuemin>0</valuemin>
                <valuemax>200</valuemax>
                <value>2</value>
              </parameter>
              <parameter>
                <parameterid>linesoft</parameterid>
                <name>Line Softness</name>
                <valuemin>0</valuemin>
                <valuemax>100</valuemax>
                <value>5</value>
              </parameter>
              <parameter>
                <parameterid>textopacity</parameterid>
                <name>Text Opacity</name>
                <valuemin>0</valuemin>
                <valuemax>100</valuemax>
                <value>100</value>
              </parameter>
              <parameter>
                <parameterid>center</parameterid>
                <name>Center</name>
                <value>
                  <horiz>0</horiz>
                  <vert>0.4703703703703703</vert>
                </value>
              </parameter>
              <parameter>
                <parameterid>textcolor</parameterid>
                <name>Text Color</name>
                <value>
                  <alpha>255</alpha>
                  <red>255</red>
                  <green>255</green>
                  <blue>255</blue>
                </value>
              </parameter>
              <parameter>
                <parameterid>supertext</parameterid>
                <name>Text Graphic</name>
              </parameter>
              <parameter>
                <parameterid>linecolor</parameterid>
                <name>Line Color</name>
                <value>
                  <alpha>255</alpha>
                  <red>0</red>
                  <green>0</green>
                  <blue>0</blue>
                </value>
              </parameter>
              <parameter>
                <parameterid>superline</parameterid>
                <name>Line Graphic</name>
              </parameter>
              <parameter>
                <parameterid>part2</parameterid>
                <name>Background Settings</name>
              </parameter>
              <parameter>
                <parameterid>xscale</parameterid>
                <name>Horizontal Size</name>
                <valuemin>0</valuemin>
                <valuemax>200</valuemax>
                <value>0</value>
              </parameter>
              <parameter>
                <parameterid>yscale</parameterid>
                <name>Vertical Size</name>
                <valuemin>0</valuemin>
                <valuemax>200</valuemax>
                <value>0</value>
              </parameter>
              <parameter>
                <parameterid>xoffset</parameterid>
                <name>Horizontal Offset</name>
                <valuemin>-100</valuemin>
                <valuemax>100</valuemax>
                <value>0</value>
              </parameter>
              <parameter>
                <parameterid>yoffset</parameterid>
                <name>Vertical Offset</name>
                <valuemin>-100</valuemin>
                <valuemax>100</valuemax>
                <value>0</value>
              </parameter>
              <parameter>
                <parameterid>backsoft</parameterid>
                <name>Back Soft</name>
                <valuemin>0</valuemin>
                <valuemax>100</valuemax>
                <value>0</value>
              </parameter>
              <parameter>
                <parameterid>backopacity</parameterid>
                <name>Back Opacity</name>
                <valuemin>0</valuemin>
                <valuemax>100</valuemax>
                <value>50</value>
              </parameter>
              <parameter>
                <parameterid>backcolor</parameterid>
                <name>Back Color</name>
                <value>
                  <alpha>255</alpha>
                  <red>255</red>
                  <green>255</green>
                  <blue>255</blue>
                </value>
              </parameter>
              <parameter>
                <parameterid>superback</parameterid>
                <name>Back Graphic</name>
              </parameter>
              <parameter>
                <parameterid>crop</parameterid>
                <name>Crop</name>
                <value>false</value>
              </parameter>
              <parameter>
                <parameterid>autokern</parameterid>
                <name>Auto Kerning</name>
                <value>true</value>
              </parameter>
            </effect>
            <sourcetrack>
              <mediatype>video</mediatype>
            </sourcetrack>
          </generatoritem>
          <generatoritem id="Outline Text1">
            <name>ねえ完売しました!</name>
            <duration>22166.1117</duration>
            <rate>
              <timebase>30</timebase>
              <ntsc>true</ntsc>
            </rate>
            <start>14840.244899999987</start>
            <end>14931.053999999986</end>
            <in>14840.244899999987</in>
            <out>14931.053999999986</out>
            <enabled>true</enabled>
            <anamorphic>false</anamorphic>
            <alphatype>black</alphatype>
            <masterclipid>Outline Text1</masterclipid>
            <effect>
              <name>Outline Text</name>
              <effectid>Outline Text</effectid>
              <effectcategory>Text</effectcategory>
              <effecttype>generator</effecttype>
              <mediatype>video</mediatype>
              <parameter>
                <parameterid>part1</parameterid>
                <name>Text Settings</name>
                <value/>
              </parameter>
              <parameter>
                <parameterid>str</parameterid>
                <name>Text</name>
                <value>ねえ完売しました!</value>
              </parameter>
              <parameter>
                <parameterid>font</parameterid>
                <name>Font</name>
                <value>HiraginoSans-W6</value>
              </parameter>
              <parameter>
                <parameterid>style</parameterid>
                <name>Style</name>
                <valuemin>1</valuemin>
                <valuemax>1</valuemax>
                <valuelist>
                  <valueentry>
                    <name>Regular</name>
                    <value>1</value>
                  </valueentry>
                </valuelist>
                <value>1</value>
              </parameter>
              <parameter>
                <parameterid>align</parameterid>
                <name>Alignment</name>
                <valuemin>1</valuemin>
                <valuemax>3</valuemax>
                <valuelist>
                  <valueentry>
                    <name>Left</name>
                    <value>1</value>
                  </valueentry>
                  <valueentry>
                    <name>Center</name>
                    <value>2</value>
                  </valueentry>
                  <valueentry>
                    <name>Right</name>
                    <value>3</value>
                  </valueentry>
                </valuelist>
                <value>2</value>
              </parameter>
              <parameter>
                <parameterid>size</parameterid>
                <name>Size</name>
                <valuemin>0</valuemin>
                <valuemax>200</valuemax>
                <value>24</value>
              </parameter>
              <parameter>
                <parameterid>track</parameterid>
                <name>Tracking</name>
                <valuemin>0</valuemin>
                <valuemax>100</valuemax>
                <value>1</value>
              </parameter>
              <parameter>
                <parameterid>lead</parameterid>
                <name>Leading</name>
                <valuemin>-100</valuemin>
                <valuemax>100</valuemax>
                <value>0</value>
              </parameter>
              <parameter>
                <parameterid>aspect</parameterid>
                <name>Aspect</name>
                <valuemin>0</valuemin>
                <valuemax>4</valuemax>
                <value>1</value>
              </parameter>
              <parameter>
                <parameterid>linewidth</parameterid>
                <name>Line Width</name>
                <valuemin>0</valuemin>
                <valuemax>200</valuemax>
                <value>2</value>
              </parameter>
              <parameter>
                <parameterid>linesoft</parameterid>
                <name>Line Softness</name>
                <valuemin>0</valuemin>
                <valuemax>100</valuemax>
                <value>5</value>
              </parameter>
              <parameter>
                <parameterid>textopacity</parameterid>
                <name>Text Opacity</name>
                <valuemin>0</valuemin>
                <valuemax>100</valuemax>
                <value>100</value>
              </parameter>
              <parameter>
                <parameterid>center</parameterid>
                <name>Center</name>
                <value>
                  <horiz>0</horiz>
                  <vert>0.4703703703703703</vert>
                </value>
              </parameter>
              <parameter>
                <parameterid>textcolor</parameterid>
                <name>Text Color</name>
                <value>
                  <alpha>255</alpha>
                  <red>255</red>
                  <green>255</green>
                  <blue>255</blue>
                </value>
              </parameter>
              <parameter>
                <parameterid>supertext</parameterid>
                <name>Text Graphic</name>
              </parameter>
              <parameter>
                <parameterid>linecolor</parameterid>
                <name>Line Color</name>
                <value>
                  <alpha>255</alpha>
                  <red>0</red>
                  <green>0</green>
                  <blue>0</blue>
                </value>
              </parameter>
              <parameter>
                <parameterid>superline</parameterid>
                <name>Line Graphic</name>
              </parameter>
              <parameter>
                <parameterid>part2</parameterid>
                <name>Background Settings</name>
              </parameter>
              <parameter>
                <parameterid>xscale</parameterid>
                <name>Horizontal Size</name>
                <valuemin>0</valuemin>
                <valuemax>200</valuemax>
                <value>0</value>
              </parameter>
              <parameter>
                <parameterid>yscale</parameterid>
                <name>Vertical Size</name>
                <valuemin>0</valuemin>
                <valuemax>200</valuemax>
                <value>0</value>
              </parameter>
              <parameter>
                <parameterid>xoffset</parameterid>
                <name>Horizontal Offset</name>
                <valuemin>-100</valuemin>
                <valuemax>100</valuemax>
                <value>0</value>
              </parameter>
              <parameter>
                <parameterid>yoffset</parameterid>
                <name>Vertical Offset</name>
                <valuemin>-100</valuemin>
                <valuemax>100</valuemax>
                <value>0</value>
              </parameter>
              <parameter>
                <parameterid>backsoft</parameterid>
                <name>Back Soft</name>
                <valuemin>0</valuemin>
                <valuemax>100</valuemax>
                <value>0</value>
              </parameter>
              <parameter>
                <parameterid>backopacity</parameterid>
                <name>Back Opacity</name>
                <valuemin>0</valuemin>
                <valuemax>100</valuemax>
                <value>50</value>
              </parameter>
              <parameter>
                <parameterid>backcolor</parameterid>
                <name>Back Color</name>
                <value>
                  <alpha>255</alpha>
                  <red>255</red>
                  <green>255</green>
                  <blue>255</blue>
                </value>
              </parameter>
              <parameter>
                <parameterid>superback</parameterid>
                <name>Back Graphic</name>
              </parameter>
              <parameter>
                <parameterid>crop</parameterid>
                <name>Crop</name>
                <value>false</value>
              </parameter>
              <parameter>
                <parameterid>autokern</parameterid>
                <name>Auto Kerning</name>
                <value>true</value>
              </parameter>
            </effect>
            <sourcetrack>
              <mediatype>video</mediatype>
            </sourcetrack>
          </generatoritem>
          <generatoritem id="Outline Text1">
            <name>え今日定休日なんですか?</name>
            <duration>22166.1117</duration>
            <rate>
              <timebase>30</timebase>
              <ntsc>true</ntsc>
            </rate>
            <start>14931.053999999986</start>
            <end>15041.643299999983</end>
            <in>14931.053999999986</in>
            <out>15041.643299999983</out>
            <enabled>true</enabled>
            <anamorphic>false</anamorphic>
            <alphatype>black</alphatype>
            <masterclipid>Outline Text1</masterclipid>
            <effect>
              <name>Outline Text</name>
              <effectid>Outline Text</effectid>
              <effectcategory>Text</effectcategory>
              <effecttype>generator</effecttype>
              <mediatype>video</mediatype>
              <parameter>
                <parameterid>part1</parameterid>
                <name>Text Settings</name>
                <value/>
              </parameter>
              <parameter>
                <parameterid>str</parameterid>
                <name>Text</name>
                <value>え今日定休日なんですか?</value>
              </parameter>
              <parameter>
                <parameterid>font</parameterid>
                <name>Font</name>
                <value>HiraginoSans-W6</value>
              </parameter>
              <parameter>
                <parameterid>style</parameterid>
                <name>Style</name>
                <valuemin>1</valuemin>
                <valuemax>1</valuemax>
                <valuelist>
                  <valueentry>
                    <name>Regular</name>
                    <value>1</value>
                  </valueentry>
                </valuelist>
                <value>1</value>
              </parameter>
              <parameter>
                <parameterid>align</parameterid>
                <name>Alignment</name>
                <valuemin>1</valuemin>
                <valuemax>3</valuemax>
                <valuelist>
                  <valueentry>
                    <name>Left</name>
                    <value>1</value>
                  </valueentry>
                  <valueentry>
                    <name>Center</name>
                    <value>2</value>
                  </valueentry>
                  <valueentry>
                    <name>Right</name>
                    <value>3</value>
                  </valueentry>
                </valuelist>
                <value>2</value>
              </parameter>
              <parameter>
                <parameterid>size</parameterid>
                <name>Size</name>
                <valuemin>0</valuemin>
                <valuemax>200</valuemax>
                <value>24</value>
              </parameter>
              <parameter>
                <parameterid>track</parameterid>
                <name>Tracking</name>
                <valuemin>0</valuemin>
                <valuemax>100</valuemax>
                <value>1</value>
              </parameter>
              <parameter>
                <parameterid>lead</parameterid>
                <name>Leading</name>
                <valuemin>-100</valuemin>
                <valuemax>100</valuemax>
                <value>0</value>
              </parameter>
              <parameter>
                <parameterid>aspect</parameterid>
                <name>Aspect</name>
                <valuemin>0</valuemin>
                <valuemax>4</valuemax>
                <value>1</value>
              </parameter>
              <parameter>
                <parameterid>linewidth</parameterid>
                <name>Line Width</name>
                <valuemin>0</valuemin>
                <valuemax>200</valuemax>
                <value>2</value>
              </parameter>
              <parameter>
                <parameterid>linesoft</parameterid>
                <name>Line Softness</name>
                <valuemin>0</valuemin>
                <valuemax>100</valuemax>
                <value>5</value>
              </parameter>
              <parameter>
                <parameterid>textopacity</parameterid>
                <name>Text Opacity</name>
                <valuemin>0</valuemin>
                <valuemax>100</valuemax>
                <value>100</value>
              </parameter>
              <parameter>
                <parameterid>center</parameterid>
                <name>Center</name>
                <value>
                  <horiz>0</horiz>
                  <vert>0.4703703703703703</vert>
                </value>
              </parameter>
              <parameter>
                <parameterid>textcolor</parameterid>
                <name>Text Color</name>
                <value>
                  <alpha>255</alpha>
                  <red>255</red>
                  <green>255</green>
                  <blue>255</blue>
                </value>
              </parameter>
              <parameter>
                <parameterid>supertext</parameterid>
                <name>Text Graphic</name>
              </parameter>
              <parameter>
                <parameterid>linecolor</parameterid>
                <name>Line Color</name>
                <value>
                  <alpha>255</alpha>
                  <red>0</red>
                  <green>0</green>
                  <blue>0</blue>
                </value>
              </parameter>
              <parameter>
                <parameterid>superline</parameterid>
                <name>Line Graphic</name>
              </parameter>
              <parameter>
                <parameterid>part2</parameterid>
                <name>Background Settings</name>
              </parameter>
              <parameter>
                <parameterid>xscale</parameterid>
                <name>Horizontal Size</name>
                <valuemin>0</valuemin>
                <valuemax>200</valuemax>
                <value>0</value>
              </parameter>
              <parameter>
                <parameterid>yscale</parameterid>
                <name>Vertical Size</name>
                <valuemin>0</valuemin>
                <valuemax>200</valuemax>
                <value>0</value>
              </parameter>
              <parameter>
                <parameterid>xoffset</parameterid>
                <name>Horizontal Offset</name>
                <valuemin>-100</valuemin>
                <valuemax>100</valuemax>
                <value>0</value>
              </parameter>
              <parameter>
                <parameterid>yoffset</parameterid>
                <name>Vertical Offset</name>
                <valuemin>-100</valuemin>
                <valuemax>100</valuemax>
                <value>0</value>
              </parameter>
              <parameter>
                <parameterid>backsoft</parameterid>
                <name>Back Soft</name>
                <valuemin>0</valuemin>
                <valuemax>100</valuemax>
                <value>0</value>
              </parameter>
              <parameter>
                <parameterid>backopacity</parameterid>
                <name>Back Opacity</name>
                <valuemin>0</valuemin>
                <valuemax>100</valuemax>
                <value>50</value>
              </parameter>
              <parameter>
                <parameterid>backcolor</parameterid>
                <name>Back Color</name>
                <value>
                  <alpha>255</alpha>
                  <red>255</red>
                  <green>255</green>
                  <blue>255</blue>
                </value>
              </parameter>
              <parameter>
                <parameterid>superback</parameterid>
                <name>Back Graphic</name>
              </parameter>
              <parameter>
                <parameterid>crop</parameterid>
                <name>Crop</name>
                <value>false</value>
              </parameter>
              <parameter>
                <parameterid>autokern</parameterid>
                <name>Auto Kerning</name>
                <value>true</value>
              </parameter>
            </effect>
            <sourcetrack>
              <mediatype>video</mediatype>
            </sourcetrack>
          </generatoritem>
          <generatoritem id="Outline Text1">
            <name>定休日!</name>
            <duration>22166.1117</duration>
            <rate>
              <timebase>30</timebase>
              <ntsc>true</ntsc>
            </rate>
            <start>15041.643299999983</start>
            <end>15050.034899999982</end>
            <in>15041.643299999983</in>
            <out>15050.034899999982</out>
            <enabled>true</enabled>
            <anamorphic>false</anamorphic>
            <alphatype>black</alphatype>
            <masterclipid>Outline Text1</masterclipid>
            <effect>
              <name>Outline Text</name>
              <effectid>Outline Text</effectid>
              <effectcategory>Text</effectcategory>
              <effecttype>generator</effecttype>
              <mediatype>video</mediatype>
              <parameter>
                <parameterid>part1</parameterid>
                <name>Text Settings</name>
                <value/>
              </parameter>
              <parameter>
                <parameterid>str</parameterid>
                <name>Text</name>
                <value>定休日!</value>
              </parameter>
              <parameter>
                <parameterid>font</parameterid>
                <name>Font</name>
                <value>HiraginoSans-W6</value>
              </parameter>
              <parameter>
                <parameterid>style</parameterid>
                <name>Style</name>
                <valuemin>1</valuemin>
                <valuemax>1</valuemax>
                <valuelist>
                  <valueentry>
                    <name>Regular</name>
                    <value>1</value>
                  </valueentry>
                </valuelist>
                <value>1</value>
              </parameter>
              <parameter>
                <parameterid>align</parameterid>
                <name>Alignment</name>
                <valuemin>1</valuemin>
                <valuemax>3</valuemax>
                <valuelist>
                  <valueentry>
                    <name>Left</name>
                    <value>1</value>
                  </valueentry>
                  <valueentry>
                    <name>Center</name>
                    <value>2</value>
                  </valueentry>
                  <valueentry>
                    <name>Right</name>
                    <value>3</value>
                  </valueentry>
                </valuelist>
                <value>2</value>
              </parameter>
              <parameter>
                <parameterid>size</parameterid>
                <name>Size</name>
                <valuemin>0</valuemin>
                <valuemax>200</valuemax>
                <value>24</value>
              </parameter>
              <parameter>
                <parameterid>track</parameterid>
                <name>Tracking</name>
                <valuemin>0</valuemin>
                <valuemax>100</valuemax>
                <value>1</value>
              </parameter>
              <parameter>
                <parameterid>lead</parameterid>
                <name>Leading</name>
                <valuemin>-100</valuemin>
                <valuemax>100</valuemax>
                <value>0</value>
              </parameter>
              <parameter>
                <parameterid>aspect</parameterid>
                <name>Aspect</name>
                <valuemin>0</valuemin>
                <valuemax>4</valuemax>
                <value>1</value>
              </parameter>
              <parameter>
                <parameterid>linewidth</parameterid>
                <name>Line Width</name>
                <valuemin>0</valuemin>
                <valuemax>200</valuemax>
                <value>2</value>
              </parameter>
              <parameter>
                <parameterid>linesoft</parameterid>
                <name>Line Softness</name>
                <valuemin>0</valuemin>
                <valuemax>100</valuemax>
                <value>5</value>
              </parameter>
              <parameter>
                <parameterid>textopacity</parameterid>
                <name>Text Opacity</name>
                <valuemin>0</valuemin>
                <valuemax>100</valuemax>
                <value>100</value>
              </parameter>
              <parameter>
                <parameterid>center</parameterid>
                <name>Center</name>
                <value>
                  <horiz>0</horiz>
                  <vert>0.4703703703703703</vert>
                </value>
              </parameter>
              <parameter>
                <parameterid>textcolor</parameterid>
                <name>Text Color</name>
                <value>
                  <alpha>255</alpha>
                  <red>255</red>
                  <green>255</green>
                  <blue>255</blue>
                </value>
              </parameter>
              <parameter>
                <parameterid>supertext</parameterid>
                <name>Text Graphic</name>
              </parameter>
              <parameter>
                <parameterid>linecolor</parameterid>
                <name>Line Color</name>
                <value>
                  <alpha>255</alpha>
                  <red>0</red>
                  <green>0</green>
                  <blue>0</blue>
                </value>
              </parameter>
              <parameter>
                <parameterid>superline</parameterid>
                <name>Line Graphic</name>
              </parameter>
              <parameter>
                <parameterid>part2</parameterid>
                <name>Background Settings</name>
              </parameter>
              <parameter>
                <parameterid>xscale</parameterid>
                <name>Horizontal Size</name>
                <valuemin>0</valuemin>
                <valuemax>200</valuemax>
                <value>0</value>
              </parameter>
              <parameter>
                <parameterid>yscale</parameterid>
                <name>Vertical Size</name>
                <valuemin>0</valuemin>
                <valuemax>200</valuemax>
                <value>0</value>
              </parameter>
              <parameter>
                <parameterid>xoffset</parameterid>
                <name>Horizontal Offset</name>
                <valuemin>-100</valuemin>
                <valuemax>100</valuemax>
                <value>0</value>
              </parameter>
              <parameter>
                <parameterid>yoffset</parameterid>
                <name>Vertical Offset</name>
                <valuemin>-100</valuemin>
                <valuemax>100</valuemax>
                <value>0</value>
              </parameter>
              <parameter>
                <parameterid>backsoft</parameterid>
                <name>Back Soft</name>
                <valuemin>0</valuemin>
                <valuemax>100</valuemax>
                <value>0</value>
              </parameter>
              <parameter>
                <parameterid>backopacity</parameterid>
                <name>Back Opacity</name>
                <valuemin>0</valuemin>
                <valuemax>100</valuemax>
                <value>50</value>
              </parameter>
              <parameter>
                <parameterid>backcolor</parameterid>
                <name>Back Color</name>
                <value>
                  <alpha>255</alpha>
                  <red>255</red>
                  <green>255</green>
                  <blue>255</blue>
                </value>
              </parameter>
              <parameter>
                <parameterid>superback</parameterid>
                <name>Back Graphic</name>
              </parameter>
              <parameter>
                <parameterid>crop</parameterid>
                <name>Crop</name>
                <value>false</value>
              </parameter>
              <parameter>
                <parameterid>autokern</parameterid>
                <name>Auto Kerning</name>
                <value>true</value>
              </parameter>
            </effect>
            <sourcetrack>
              <mediatype>video</mediatype>
            </sourcetrack>
          </generatoritem>
          <generatoritem id="Outline Text1">
            <name>おー!</name>
            <duration>22166.1117</duration>
            <rate>
              <timebase>30</timebase>
              <ntsc>true</ntsc>
            </rate>
            <start>15050.034899999982</start>
            <end>15174.710099999984</end>
            <in>15050.034899999982</in>
            <out>15174.710099999984</out>
            <enabled>true</enabled>
            <anamorphic>false</anamorphic>
            <alphatype>black</alphatype>
            <masterclipid>Outline Text1</masterclipid>
            <effect>
              <name>Outline Text</name>
              <effectid>Outline Text</effectid>
              <effectcategory>Text</effectcategory>
              <effecttype>generator</effecttype>
              <mediatype>video</mediatype>
              <parameter>
                <parameterid>part1</parameterid>
                <name>Text Settings</name>
                <value/>
              </parameter>
              <parameter>
                <parameterid>str</parameterid>
                <name>Text</name>
                <value>おー!</value>
              </parameter>
              <parameter>
                <parameterid>font</parameterid>
                <name>Font</name>
                <value>HiraginoSans-W6</value>
              </parameter>
              <parameter>
                <parameterid>style</parameterid>
                <name>Style</name>
                <valuemin>1</valuemin>
                <valuemax>1</valuemax>
                <valuelist>
                  <valueentry>
                    <name>Regular</name>
                    <value>1</value>
                  </valueentry>
                </valuelist>
                <value>1</value>
              </parameter>
              <parameter>
                <parameterid>align</parameterid>
                <name>Alignment</name>
                <valuemin>1</valuemin>
                <valuemax>3</valuemax>
                <valuelist>
                  <valueentry>
                    <name>Left</name>
                    <value>1</value>
                  </valueentry>
                  <valueentry>
                    <name>Center</name>
                    <value>2</value>
                  </valueentry>
                  <valueentry>
                    <name>Right</name>
                    <value>3</value>
                  </valueentry>
                </valuelist>
                <value>2</value>
              </parameter>
              <parameter>
                <parameterid>size</parameterid>
                <name>Size</name>
                <valuemin>0</valuemin>
                <valuemax>200</valuemax>
                <value>24</value>
              </parameter>
              <parameter>
                <parameterid>track</parameterid>
                <name>Tracking</name>
                <valuemin>0</valuemin>
                <valuemax>100</valuemax>
                <value>1</value>
              </parameter>
              <parameter>
                <parameterid>lead</parameterid>
                <name>Leading</name>
                <valuemin>-100</valuemin>
                <valuemax>100</valuemax>
                <value>0</value>
              </parameter>
              <parameter>
                <parameterid>aspect</parameterid>
                <name>Aspect</name>
                <valuemin>0</valuemin>
                <valuemax>4</valuemax>
                <value>1</value>
              </parameter>
              <parameter>
                <parameterid>linewidth</parameterid>
                <name>Line Width</name>
                <valuemin>0</valuemin>
                <valuemax>200</valuemax>
                <value>2</value>
              </parameter>
              <parameter>
                <parameterid>linesoft</parameterid>
                <name>Line Softness</name>
                <valuemin>0</valuemin>
                <valuemax>100</valuemax>
                <value>5</value>
              </parameter>
              <parameter>
                <parameterid>textopacity</parameterid>
                <name>Text Opacity</name>
                <valuemin>0</valuemin>
                <valuemax>100</valuemax>
                <value>100</value>
              </parameter>
              <parameter>
                <parameterid>center</parameterid>
                <name>Center</name>
                <value>
                  <horiz>0</horiz>
                  <vert>0.4703703703703703</vert>
                </value>
              </parameter>
              <parameter>
                <parameterid>textcolor</parameterid>
                <name>Text Color</name>
                <value>
                  <alpha>255</alpha>
                  <red>255</red>
                  <green>255</green>
                  <blue>255</blue>
                </value>
              </parameter>
              <parameter>
                <parameterid>supertext</parameterid>
                <name>Text Graphic</name>
              </parameter>
              <parameter>
                <parameterid>linecolor</parameterid>
                <name>Line Color</name>
                <value>
                  <alpha>255</alpha>
                  <red>0</red>
                  <green>0</green>
                  <blue>0</blue>
                </value>
              </parameter>
              <parameter>
                <parameterid>superline</parameterid>
                <name>Line Graphic</name>
              </parameter>
              <parameter>
                <parameterid>part2</parameterid>
                <name>Background Settings</name>
              </parameter>
              <parameter>
                <parameterid>xscale</parameterid>
                <name>Horizontal Size</name>
                <valuemin>0</valuemin>
                <valuemax>200</valuemax>
                <value>0</value>
              </parameter>
              <parameter>
                <parameterid>yscale</parameterid>
                <name>Vertical Size</name>
                <valuemin>0</valuemin>
                <valuemax>200</valuemax>
                <value>0</value>
              </parameter>
              <parameter>
                <parameterid>xoffset</parameterid>
                <name>Horizontal Offset</name>
                <valuemin>-100</valuemin>
                <valuemax>100</valuemax>
                <value>0</value>
              </parameter>
              <parameter>
                <parameterid>yoffset</parameterid>
                <name>Vertical Offset</name>
                <valuemin>-100</valuemin>
                <valuemax>100</valuemax>
                <value>0</value>
              </parameter>
              <parameter>
                <parameterid>backsoft</parameterid>
                <name>Back Soft</name>
                <valuemin>0</valuemin>
                <valuemax>100</valuemax>
                <value>0</value>
              </parameter>
              <parameter>
                <parameterid>backopacity</parameterid>
                <name>Back Opacity</name>
                <valuemin>0</valuemin>
                <valuemax>100</valuemax>
                <value>50</value>
              </parameter>
              <parameter>
                <parameterid>backcolor</parameterid>
                <name>Back Color</name>
                <value>
                  <alpha>255</alpha>
                  <red>255</red>
                  <green>255</green>
                  <blue>255</blue>
                </value>
              </parameter>
              <parameter>
                <parameterid>superback</parameterid>
                <name>Back Graphic</name>
              </parameter>
              <parameter>
                <parameterid>crop</parameterid>
                <name>Crop</name>
                <value>false</value>
              </parameter>
              <parameter>
                <parameterid>autokern</parameterid>
                <name>Auto Kerning</name>
                <value>true</value>
              </parameter>
            </effect>
            <sourcetrack>
              <mediatype>video</mediatype>
            </sourcetrack>
          </generatoritem>
          <generatoritem id="Outline Text1">
            <name>すいません調べが甘かったせっかく調べたのに</name>
            <duration>22166.1117</duration>
            <rate>
              <timebase>30</timebase>
              <ntsc>true</ntsc>
            </rate>
            <start>15174.710099999984</start>
            <end>15289.495199999983</end>
            <in>15174.710099999984</in>
            <out>15289.495199999983</out>
            <enabled>true</enabled>
            <anamorphic>false</anamorphic>
            <alphatype>black</alphatype>
            <masterclipid>Outline Text1</masterclipid>
            <effect>
              <name>Outline Text</name>
              <effectid>Outline Text</effectid>
              <effectcategory>Text</effectcategory>
              <effecttype>generator</effecttype>
              <mediatype>video</mediatype>
              <parameter>
                <parameterid>part1</parameterid>
                <name>Text Settings</name>
                <value/>
              </parameter>
              <parameter>
                <parameterid>str</parameterid>
                <name>Text</name>
                <value>すいません調べが甘かったせっかく調べたのに</value>
              </parameter>
              <parameter>
                <parameterid>font</parameterid>
                <name>Font</name>
                <value>HiraginoSans-W6</value>
              </parameter>
              <parameter>
                <parameterid>style</parameterid>
                <name>Style</name>
                <valuemin>1</valuemin>
                <valuemax>1</valuemax>
                <valuelist>
                  <valueentry>
                    <name>Regular</name>
                    <value>1</value>
                  </valueentry>
                </valuelist>
                <value>1</value>
              </parameter>
              <parameter>
                <parameterid>align</parameterid>
                <name>Alignment</name>
                <valuemin>1</valuemin>
                <valuemax>3</valuemax>
                <valuelist>
                  <valueentry>
                    <name>Left</name>
                    <value>1</value>
                  </valueentry>
                  <valueentry>
                    <name>Center</name>
                    <value>2</value>
                  </valueentry>
                  <valueentry>
                    <name>Right</name>
                    <value>3</value>
                  </valueentry>
                </valuelist>
                <value>2</value>
              </parameter>
              <parameter>
                <parameterid>size</parameterid>
                <name>Size</name>
                <valuemin>0</valuemin>
                <valuemax>200</valuemax>
                <value>24</value>
              </parameter>
              <parameter>
                <parameterid>track</parameterid>
                <name>Tracking</name>
                <valuemin>0</valuemin>
                <valuemax>100</valuemax>
                <value>1</value>
              </parameter>
              <parameter>
                <parameterid>lead</parameterid>
                <name>Leading</name>
                <valuemin>-100</valuemin>
                <valuemax>100</valuemax>
                <value>0</value>
              </parameter>
              <parameter>
                <parameterid>aspect</parameterid>
                <name>Aspect</name>
                <valuemin>0</valuemin>
                <valuemax>4</valuemax>
                <value>1</value>
              </parameter>
              <parameter>
                <parameterid>linewidth</parameterid>
                <name>Line Width</name>
                <valuemin>0</valuemin>
                <valuemax>200</valuemax>
                <value>2</value>
              </parameter>
              <parameter>
                <parameterid>linesoft</parameterid>
                <name>Line Softness</name>
                <valuemin>0</valuemin>
                <valuemax>100</valuemax>
                <value>5</value>
              </parameter>
              <parameter>
                <parameterid>textopacity</parameterid>
                <name>Text Opacity</name>
                <valuemin>0</valuemin>
                <valuemax>100</valuemax>
                <value>100</value>
              </parameter>
              <parameter>
                <parameterid>center</parameterid>
                <name>Center</name>
                <value>
                  <horiz>0</horiz>
                  <vert>0.4703703703703703</vert>
                </value>
              </parameter>
              <parameter>
                <parameterid>textcolor</parameterid>
                <name>Text Color</name>
                <value>
                  <alpha>255</alpha>
                  <red>255</red>
                  <green>255</green>
                  <blue>255</blue>
                </value>
              </parameter>
              <parameter>
                <parameterid>supertext</parameterid>
                <name>Text Graphic</name>
              </parameter>
              <parameter>
                <parameterid>linecolor</parameterid>
                <name>Line Color</name>
                <value>
                  <alpha>255</alpha>
                  <red>0</red>
                  <green>0</green>
                  <blue>0</blue>
                </value>
              </parameter>
              <parameter>
                <parameterid>superline</parameterid>
                <name>Line Graphic</name>
              </parameter>
              <parameter>
                <parameterid>part2</parameterid>
                <name>Background Settings</name>
              </parameter>
              <parameter>
                <parameterid>xscale</parameterid>
                <name>Horizontal Size</name>
                <valuemin>0</valuemin>
                <valuemax>200</valuemax>
                <value>0</value>
              </parameter>
              <parameter>
                <parameterid>yscale</parameterid>
                <name>Vertical Size</name>
                <valuemin>0</valuemin>
                <valuemax>200</valuemax>
                <value>0</value>
              </parameter>
              <parameter>
                <parameterid>xoffset</parameterid>
                <name>Horizontal Offset</name>
                <valuemin>-100</valuemin>
                <valuemax>100</valuemax>
                <value>0</value>
              </parameter>
              <parameter>
                <parameterid>yoffset</parameterid>
                <name>Vertical Offset</name>
                <valuemin>-100</valuemin>
                <valuemax>100</valuemax>
                <value>0</value>
              </parameter>
              <parameter>
                <parameterid>backsoft</parameterid>
                <name>Back Soft</name>
                <valuemin>0</valuemin>
                <valuemax>100</valuemax>
                <value>0</value>
              </parameter>
              <parameter>
                <parameterid>backopacity</parameterid>
                <name>Back Opacity</name>
                <valuemin>0</valuemin>
                <valuemax>100</valuemax>
                <value>50</value>
              </parameter>
              <parameter>
                <parameterid>backcolor</parameterid>
                <name>Back Color</name>
                <value>
                  <alpha>255</alpha>
                  <red>255</red>
                  <green>255</green>
                  <blue>255</blue>
                </value>
              </parameter>
              <parameter>
                <parameterid>superback</parameterid>
                <name>Back Graphic</name>
              </parameter>
              <parameter>
                <parameterid>crop</parameterid>
                <name>Crop</name>
                <value>false</value>
              </parameter>
              <parameter>
                <parameterid>autokern</parameterid>
                <name>Auto Kerning</name>
                <value>true</value>
              </parameter>
            </effect>
            <sourcetrack>
              <mediatype>video</mediatype>
            </sourcetrack>
          </generatoritem>
          <generatoritem id="Outline Text1">
            <name>調べが甘かったです</name>
            <duration>22166.1117</duration>
            <rate>
              <timebase>30</timebase>
              <ntsc>true</ntsc>
            </rate>
            <start>15289.495199999983</start>
            <end>15355.429199999982</end>
            <in>15289.495199999983</in>
            <out>15355.429199999982</out>
            <enabled>true</enabled>
            <anamorphic>false</anamorphic>
            <alphatype>black</alphatype>
            <masterclipid>Outline Text1</masterclipid>
            <effect>
              <name>Outline Text</name>
              <effectid>Outline Text</effectid>
              <effectcategory>Text</effectcategory>
              <effecttype>generator</effecttype>
              <mediatype>video</mediatype>
              <parameter>
                <parameterid>part1</parameterid>
                <name>Text Settings</name>
                <value/>
              </parameter>
              <parameter>
                <parameterid>str</parameterid>
                <name>Text</name>
                <value>調べが甘かったです</value>
              </parameter>
              <parameter>
                <parameterid>font</parameterid>
                <name>Font</name>
                <value>HiraginoSans-W6</value>
              </parameter>
              <parameter>
                <parameterid>style</parameterid>
                <name>Style</name>
                <valuemin>1</valuemin>
                <valuemax>1</valuemax>
                <valuelist>
                  <valueentry>
                    <name>Regular</name>
                    <value>1</value>
                  </valueentry>
                </valuelist>
                <value>1</value>
              </parameter>
              <parameter>
                <parameterid>align</parameterid>
                <name>Alignment</name>
                <valuemin>1</valuemin>
                <valuemax>3</valuemax>
                <valuelist>
                  <valueentry>
                    <name>Left</name>
                    <value>1</value>
                  </valueentry>
                  <valueentry>
                    <name>Center</name>
                    <value>2</value>
                  </valueentry>
                  <valueentry>
                    <name>Right</name>
                    <value>3</value>
                  </valueentry>
                </valuelist>
                <value>2</value>
              </parameter>
              <parameter>
                <parameterid>size</parameterid>
                <name>Size</name>
                <valuemin>0</valuemin>
                <valuemax>200</valuemax>
                <value>24</value>
              </parameter>
              <parameter>
                <parameterid>track</parameterid>
                <name>Tracking</name>
                <valuemin>0</valuemin>
                <valuemax>100</valuemax>
                <value>1</value>
              </parameter>
              <parameter>
                <parameterid>lead</parameterid>
                <name>Leading</name>
                <valuemin>-100</valuemin>
                <valuemax>100</valuemax>
                <value>0</value>
              </parameter>
              <parameter>
                <parameterid>aspect</parameterid>
                <name>Aspect</name>
                <valuemin>0</valuemin>
                <valuemax>4</valuemax>
                <value>1</value>
              </parameter>
              <parameter>
                <parameterid>linewidth</parameterid>
                <name>Line Width</name>
                <valuemin>0</valuemin>
                <valuemax>200</valuemax>
                <value>2</value>
              </parameter>
              <parameter>
                <parameterid>linesoft</parameterid>
                <name>Line Softness</name>
                <valuemin>0</valuemin>
                <valuemax>100</valuemax>
                <value>5</value>
              </parameter>
              <parameter>
                <parameterid>textopacity</parameterid>
                <name>Text Opacity</name>
                <valuemin>0</valuemin>
                <valuemax>100</valuemax>
                <value>100</value>
              </parameter>
              <parameter>
                <parameterid>center</parameterid>
                <name>Center</name>
                <value>
                  <horiz>0</horiz>
                  <vert>0.4703703703703703</vert>
                </value>
              </parameter>
              <parameter>
                <parameterid>textcolor</parameterid>
                <name>Text Color</name>
                <value>
                  <alpha>255</alpha>
                  <red>255</red>
                  <green>255</green>
                  <blue>255</blue>
                </value>
              </parameter>
              <parameter>
                <parameterid>supertext</parameterid>
                <name>Text Graphic</name>
              </parameter>
              <parameter>
                <parameterid>linecolor</parameterid>
                <name>Line Color</name>
                <value>
                  <alpha>255</alpha>
                  <red>0</red>
                  <green>0</green>
                  <blue>0</blue>
                </value>
              </parameter>
              <parameter>
                <parameterid>superline</parameterid>
                <name>Line Graphic</name>
              </parameter>
              <parameter>
                <parameterid>part2</parameterid>
                <name>Background Settings</name>
              </parameter>
              <parameter>
                <parameterid>xscale</parameterid>
                <name>Horizontal Size</name>
                <valuemin>0</valuemin>
                <valuemax>200</valuemax>
                <value>0</value>
              </parameter>
              <parameter>
                <parameterid>yscale</parameterid>
                <name>Vertical Size</name>
                <valuemin>0</valuemin>
                <valuemax>200</valuemax>
                <value>0</value>
              </parameter>
              <parameter>
                <parameterid>xoffset</parameterid>
                <name>Horizontal Offset</name>
                <valuemin>-100</valuemin>
                <valuemax>100</valuemax>
                <value>0</value>
              </parameter>
              <parameter>
                <parameterid>yoffset</parameterid>
                <name>Vertical Offset</name>
                <valuemin>-100</valuemin>
                <valuemax>100</valuemax>
                <value>0</value>
              </parameter>
              <parameter>
                <parameterid>backsoft</parameterid>
                <name>Back Soft</name>
                <valuemin>0</valuemin>
                <valuemax>100</valuemax>
                <value>0</value>
              </parameter>
              <parameter>
                <parameterid>backopacity</parameterid>
                <name>Back Opacity</name>
                <valuemin>0</valuemin>
                <valuemax>100</valuemax>
                <value>50</value>
              </parameter>
              <parameter>
                <parameterid>backcolor</parameterid>
                <name>Back Color</name>
                <value>
                  <alpha>255</alpha>
                  <red>255</red>
                  <green>255</green>
                  <blue>255</blue>
                </value>
              </parameter>
              <parameter>
                <parameterid>superback</parameterid>
                <name>Back Graphic</name>
              </parameter>
              <parameter>
                <parameterid>crop</parameterid>
                <name>Crop</name>
                <value>false</value>
              </parameter>
              <parameter>
                <parameterid>autokern</parameterid>
                <name>Auto Kerning</name>
                <value>true</value>
              </parameter>
            </effect>
            <sourcetrack>
              <mediatype>video</mediatype>
            </sourcetrack>
          </generatoritem>
          <generatoritem id="Outline Text1">
            <name>定休日だとはまさかの大ミスですすいません</name>
            <duration>22166.1117</duration>
            <rate>
              <timebase>30</timebase>
              <ntsc>true</ntsc>
            </rate>
            <start>15355.429199999982</start>
            <end>15498.685799999988</end>
            <in>15355.429199999982</in>
            <out>15498.685799999988</out>
            <enabled>true</enabled>
            <anamorphic>false</anamorphic>
            <alphatype>black</alphatype>
            <masterclipid>Outline Text1</masterclipid>
            <effect>
              <name>Outline Text</name>
              <effectid>Outline Text</effectid>
              <effectcategory>Text</effectcategory>
              <effecttype>generator</effecttype>
              <mediatype>video</mediatype>
              <parameter>
                <parameterid>part1</parameterid>
                <name>Text Settings</name>
                <value/>
              </parameter>
              <parameter>
                <parameterid>str</parameterid>
                <name>Text</name>
                <value>定休日だとはまさかの大ミスですすいません</value>
              </parameter>
              <parameter>
                <parameterid>font</parameterid>
                <name>Font</name>
                <value>HiraginoSans-W6</value>
              </parameter>
              <parameter>
                <parameterid>style</parameterid>
                <name>Style</name>
                <valuemin>1</valuemin>
                <valuemax>1</valuemax>
                <valuelist>
                  <valueentry>
                    <name>Regular</name>
                    <value>1</value>
                  </valueentry>
                </valuelist>
                <value>1</value>
              </parameter>
              <parameter>
                <parameterid>align</parameterid>
                <name>Alignment</name>
                <valuemin>1</valuemin>
                <valuemax>3</valuemax>
                <valuelist>
                  <valueentry>
                    <name>Left</name>
                    <value>1</value>
                  </valueentry>
                  <valueentry>
                    <name>Center</name>
                    <value>2</value>
                  </valueentry>
                  <valueentry>
                    <name>Right</name>
                    <value>3</value>
                  </valueentry>
                </valuelist>
                <value>2</value>
              </parameter>
              <parameter>
                <parameterid>size</parameterid>
                <name>Size</name>
                <valuemin>0</valuemin>
                <valuemax>200</valuemax>
                <value>24</value>
              </parameter>
              <parameter>
                <parameterid>track</parameterid>
                <name>Tracking</name>
                <valuemin>0</valuemin>
                <valuemax>100</valuemax>
                <value>1</value>
              </parameter>
              <parameter>
                <parameterid>lead</parameterid>
                <name>Leading</name>
                <valuemin>-100</valuemin>
                <valuemax>100</valuemax>
                <value>0</value>
              </parameter>
              <parameter>
                <parameterid>aspect</parameterid>
                <name>Aspect</name>
                <valuemin>0</valuemin>
                <valuemax>4</valuemax>
                <value>1</value>
              </parameter>
              <parameter>
                <parameterid>linewidth</parameterid>
                <name>Line Width</name>
                <valuemin>0</valuemin>
                <valuemax>200</valuemax>
                <value>2</value>
              </parameter>
              <parameter>
                <parameterid>linesoft</parameterid>
                <name>Line Softness</name>
                <valuemin>0</valuemin>
                <valuemax>100</valuemax>
                <value>5</value>
              </parameter>
              <parameter>
                <parameterid>textopacity</parameterid>
                <name>Text Opacity</name>
                <valuemin>0</valuemin>
                <valuemax>100</valuemax>
                <value>100</value>
              </parameter>
              <parameter>
                <parameterid>center</parameterid>
                <name>Center</name>
                <value>
                  <horiz>0</horiz>
                  <vert>0.4703703703703703</vert>
                </value>
              </parameter>
              <parameter>
                <parameterid>textcolor</parameterid>
                <name>Text Color</name>
                <value>
                  <alpha>255</alpha>
                  <red>255</red>
                  <green>255</green>
                  <blue>255</blue>
                </value>
              </parameter>
              <parameter>
                <parameterid>supertext</parameterid>
                <name>Text Graphic</name>
              </parameter>
              <parameter>
                <parameterid>linecolor</parameterid>
                <name>Line Color</name>
                <value>
                  <alpha>255</alpha>
                  <red>0</red>
                  <green>0</green>
                  <blue>0</blue>
                </value>
              </parameter>
              <parameter>
                <parameterid>superline</parameterid>
                <name>Line Graphic</name>
              </parameter>
              <parameter>
                <parameterid>part2</parameterid>
                <name>Background Settings</name>
              </parameter>
              <parameter>
                <parameterid>xscale</parameterid>
                <name>Horizontal Size</name>
                <valuemin>0</valuemin>
                <valuemax>200</valuemax>
                <value>0</value>
              </parameter>
              <parameter>
                <parameterid>yscale</parameterid>
                <name>Vertical Size</name>
                <valuemin>0</valuemin>
                <valuemax>200</valuemax>
                <value>0</value>
              </parameter>
              <parameter>
                <parameterid>xoffset</parameterid>
                <name>Horizontal Offset</name>
                <valuemin>-100</valuemin>
                <valuemax>100</valuemax>
                <value>0</value>
              </parameter>
              <parameter>
                <parameterid>yoffset</parameterid>
                <name>Vertical Offset</name>
                <valuemin>-100</valuemin>
                <valuemax>100</valuemax>
                <value>0</value>
              </parameter>
              <parameter>
                <parameterid>backsoft</parameterid>
                <name>Back Soft</name>
                <valuemin>0</valuemin>
                <valuemax>100</valuemax>
                <value>0</value>
              </parameter>
              <parameter>
                <parameterid>backopacity</parameterid>
                <name>Back Opacity</name>
                <valuemin>0</valuemin>
                <valuemax>100</valuemax>
                <value>50</value>
              </parameter>
              <parameter>
                <parameterid>backcolor</parameterid>
                <name>Back Color</name>
                <value>
                  <alpha>255</alpha>
                  <red>255</red>
                  <green>255</green>
                  <blue>255</blue>
                </value>
              </parameter>
              <parameter>
                <parameterid>superback</parameterid>
                <name>Back Graphic</name>
              </parameter>
              <parameter>
                <parameterid>crop</parameterid>
                <name>Crop</name>
                <value>false</value>
              </parameter>
              <parameter>
                <parameterid>autokern</parameterid>
                <name>Auto Kerning</name>
                <value>true</value>
              </parameter>
            </effect>
            <sourcetrack>
              <mediatype>video</mediatype>
            </sourcetrack>
          </generatoritem>
          <generatoritem id="Outline Text1">
            <name>悲しいさあ入りたいせっかく調べたのにね</name>
            <duration>22166.1117</duration>
            <rate>
              <timebase>30</timebase>
              <ntsc>true</ntsc>
            </rate>
            <start>15498.685799999988</start>
            <end>15641.043299999992</end>
            <in>15498.685799999988</in>
            <out>15641.043299999992</out>
            <enabled>true</enabled>
            <anamorphic>false</anamorphic>
            <alphatype>black</alphatype>
            <masterclipid>Outline Text1</masterclipid>
            <effect>
              <name>Outline Text</name>
              <effectid>Outline Text</effectid>
              <effectcategory>Text</effectcategory>
              <effecttype>generator</effecttype>
              <mediatype>video</mediatype>
              <parameter>
                <parameterid>part1</parameterid>
                <name>Text Settings</name>
                <value/>
              </parameter>
              <parameter>
                <parameterid>str</parameterid>
                <name>Text</name>
                <value>悲しいさあ入りたいせっかく調べたのにね</value>
              </parameter>
              <parameter>
                <parameterid>font</parameterid>
                <name>Font</name>
                <value>HiraginoSans-W6</value>
              </parameter>
              <parameter>
                <parameterid>style</parameterid>
                <name>Style</name>
                <valuemin>1</valuemin>
                <valuemax>1</valuemax>
                <valuelist>
                  <valueentry>
                    <name>Regular</name>
                    <value>1</value>
                  </valueentry>
                </valuelist>
                <value>1</value>
              </parameter>
              <parameter>
                <parameterid>align</parameterid>
                <name>Alignment</name>
                <valuemin>1</valuemin>
                <valuemax>3</valuemax>
                <valuelist>
                  <valueentry>
                    <name>Left</name>
                    <value>1</value>
                  </valueentry>
                  <valueentry>
                    <name>Center</name>
                    <value>2</value>
                  </valueentry>
                  <valueentry>
                    <name>Right</name>
                    <value>3</value>
                  </valueentry>
                </valuelist>
                <value>2</value>
              </parameter>
              <parameter>
                <parameterid>size</parameterid>
                <name>Size</name>
                <valuemin>0</valuemin>
                <valuemax>200</valuemax>
                <value>24</value>
              </parameter>
              <parameter>
                <parameterid>track</parameterid>
                <name>Tracking</name>
                <valuemin>0</valuemin>
                <valuemax>100</valuemax>
                <value>1</value>
              </parameter>
              <parameter>
                <parameterid>lead</parameterid>
                <name>Leading</name>
                <valuemin>-100</valuemin>
                <valuemax>100</valuemax>
                <value>0</value>
              </parameter>
              <parameter>
                <parameterid>aspect</parameterid>
                <name>Aspect</name>
                <valuemin>0</valuemin>
                <valuemax>4</valuemax>
                <value>1</value>
              </parameter>
              <parameter>
                <parameterid>linewidth</parameterid>
                <name>Line Width</name>
                <valuemin>0</valuemin>
                <valuemax>200</valuemax>
                <value>2</value>
              </parameter>
              <parameter>
                <parameterid>linesoft</parameterid>
                <name>Line Softness</name>
                <valuemin>0</valuemin>
                <valuemax>100</valuemax>
                <value>5</value>
              </parameter>
              <parameter>
                <parameterid>textopacity</parameterid>
                <name>Text Opacity</name>
                <valuemin>0</valuemin>
                <valuemax>100</valuemax>
                <value>100</value>
              </parameter>
              <parameter>
                <parameterid>center</parameterid>
                <name>Center</name>
                <value>
                  <horiz>0</horiz>
                  <vert>0.4703703703703703</vert>
                </value>
              </parameter>
              <parameter>
                <parameterid>textcolor</parameterid>
                <name>Text Color</name>
                <value>
                  <alpha>255</alpha>
                  <red>255</red>
                  <green>255</green>
                  <blue>255</blue>
                </value>
              </parameter>
              <parameter>
                <parameterid>supertext</parameterid>
                <name>Text Graphic</name>
              </parameter>
              <parameter>
                <parameterid>linecolor</parameterid>
                <name>Line Color</name>
                <value>
                  <alpha>255</alpha>
                  <red>0</red>
                  <green>0</green>
                  <blue>0</blue>
                </value>
              </parameter>
              <parameter>
                <parameterid>superline</parameterid>
                <name>Line Graphic</name>
              </parameter>
              <parameter>
                <parameterid>part2</parameterid>
                <name>Background Settings</name>
              </parameter>
              <parameter>
                <parameterid>xscale</parameterid>
                <name>Horizontal Size</name>
                <valuemin>0</valuemin>
                <valuemax>200</valuemax>
                <value>0</value>
              </parameter>
              <parameter>
                <parameterid>yscale</parameterid>
                <name>Vertical Size</name>
                <valuemin>0</valuemin>
                <valuemax>200</valuemax>
                <value>0</value>
              </parameter>
              <parameter>
                <parameterid>xoffset</parameterid>
                <name>Horizontal Offset</name>
                <valuemin>-100</valuemin>
                <valuemax>100</valuemax>
                <value>0</value>
              </parameter>
              <parameter>
                <parameterid>yoffset</parameterid>
                <name>Vertical Offset</name>
                <valuemin>-100</valuemin>
                <valuemax>100</valuemax>
                <value>0</value>
              </parameter>
              <parameter>
                <parameterid>backsoft</parameterid>
                <name>Back Soft</name>
                <valuemin>0</valuemin>
                <valuemax>100</valuemax>
                <value>0</value>
              </parameter>
              <parameter>
                <parameterid>backopacity</parameterid>
                <name>Back Opacity</name>
                <valuemin>0</valuemin>
                <valuemax>100</valuemax>
                <value>50</value>
              </parameter>
              <parameter>
                <parameterid>backcolor</parameterid>
                <name>Back Color</name>
                <value>
                  <alpha>255</alpha>
                  <red>255</red>
                  <green>255</green>
                  <blue>255</blue>
                </value>
              </parameter>
              <parameter>
                <parameterid>superback</parameterid>
                <name>Back Graphic</name>
              </parameter>
              <parameter>
                <parameterid>crop</parameterid>
                <name>Crop</name>
                <value>false</value>
              </parameter>
              <parameter>
                <parameterid>autokern</parameterid>
                <name>Auto Kerning</name>
                <value>true</value>
              </parameter>
            </effect>
            <sourcetrack>
              <mediatype>video</mediatype>
            </sourcetrack>
          </generatoritem>
          <generatoritem id="Outline Text1">
            <name>ブタマン残念残念今度メンバーと来ようちゃんと調べてね</name>
            <duration>22166.1117</duration>
            <rate>
              <timebase>30</timebase>
              <ntsc>true</ntsc>
            </rate>
            <start>15641.043299999992</start>
            <end>15884.699399999992</end>
            <in>15641.043299999992</in>
            <out>15884.699399999992</out>
            <enabled>true</enabled>
            <anamorphic>false</anamorphic>
            <alphatype>black</alphatype>
            <masterclipid>Outline Text1</masterclipid>
            <effect>
              <name>Outline Text</name>
              <effectid>Outline Text</effectid>
              <effectcategory>Text</effectcategory>
              <effecttype>generator</effecttype>
              <mediatype>video</mediatype>
              <parameter>
                <parameterid>part1</parameterid>
                <name>Text Settings</name>
                <value/>
              </parameter>
              <parameter>
                <parameterid>str</parameterid>
                <name>Text</name>
                <value>ブタマン残念残念今度メンバーと来ようちゃんと調べてね</value>
              </parameter>
              <parameter>
                <parameterid>font</parameterid>
                <name>Font</name>
                <value>HiraginoSans-W6</value>
              </parameter>
              <parameter>
                <parameterid>style</parameterid>
                <name>Style</name>
                <valuemin>1</valuemin>
                <valuemax>1</valuemax>
                <valuelist>
                  <valueentry>
                    <name>Regular</name>
                    <value>1</value>
                  </valueentry>
                </valuelist>
                <value>1</value>
              </parameter>
              <parameter>
                <parameterid>align</parameterid>
                <name>Alignment</name>
                <valuemin>1</valuemin>
                <valuemax>3</valuemax>
                <valuelist>
                  <valueentry>
                    <name>Left</name>
                    <value>1</value>
                  </valueentry>
                  <valueentry>
                    <name>Center</name>
                    <value>2</value>
                  </valueentry>
                  <valueentry>
                    <name>Right</name>
                    <value>3</value>
                  </valueentry>
                </valuelist>
                <value>2</value>
              </parameter>
              <parameter>
                <parameterid>size</parameterid>
                <name>Size</name>
                <valuemin>0</valuemin>
                <valuemax>200</valuemax>
                <value>24</value>
              </parameter>
              <parameter>
                <parameterid>track</parameterid>
                <name>Tracking</name>
                <valuemin>0</valuemin>
                <valuemax>100</valuemax>
                <value>1</value>
              </parameter>
              <parameter>
                <parameterid>lead</parameterid>
                <name>Leading</name>
                <valuemin>-100</valuemin>
                <valuemax>100</valuemax>
                <value>0</value>
              </parameter>
              <parameter>
                <parameterid>aspect</parameterid>
                <name>Aspect</name>
                <valuemin>0</valuemin>
                <valuemax>4</valuemax>
                <value>1</value>
              </parameter>
              <parameter>
                <parameterid>linewidth</parameterid>
                <name>Line Width</name>
                <valuemin>0</valuemin>
                <valuemax>200</valuemax>
                <value>2</value>
              </parameter>
              <parameter>
                <parameterid>linesoft</parameterid>
                <name>Line Softness</name>
                <valuemin>0</valuemin>
                <valuemax>100</valuemax>
                <value>5</value>
              </parameter>
              <parameter>
                <parameterid>textopacity</parameterid>
                <name>Text Opacity</name>
                <valuemin>0</valuemin>
                <valuemax>100</valuemax>
                <value>100</value>
              </parameter>
              <parameter>
                <parameterid>center</parameterid>
                <name>Center</name>
                <value>
                  <horiz>0</horiz>
                  <vert>0.4703703703703703</vert>
                </value>
              </parameter>
              <parameter>
                <parameterid>textcolor</parameterid>
                <name>Text Color</name>
                <value>
                  <alpha>255</alpha>
                  <red>255</red>
                  <green>255</green>
                  <blue>255</blue>
                </value>
              </parameter>
              <parameter>
                <parameterid>supertext</parameterid>
                <name>Text Graphic</name>
              </parameter>
              <parameter>
                <parameterid>linecolor</parameterid>
                <name>Line Color</name>
                <value>
                  <alpha>255</alpha>
                  <red>0</red>
                  <green>0</green>
                  <blue>0</blue>
                </value>
              </parameter>
              <parameter>
                <parameterid>superline</parameterid>
                <name>Line Graphic</name>
              </parameter>
              <parameter>
                <parameterid>part2</parameterid>
                <name>Background Settings</name>
              </parameter>
              <parameter>
                <parameterid>xscale</parameterid>
                <name>Horizontal Size</name>
                <valuemin>0</valuemin>
                <valuemax>200</valuemax>
                <value>0</value>
              </parameter>
              <parameter>
                <parameterid>yscale</parameterid>
                <name>Vertical Size</name>
                <valuemin>0</valuemin>
                <valuemax>200</valuemax>
                <value>0</value>
              </parameter>
              <parameter>
                <parameterid>xoffset</parameterid>
                <name>Horizontal Offset</name>
                <valuemin>-100</valuemin>
                <valuemax>100</valuemax>
                <value>0</value>
              </parameter>
              <parameter>
                <parameterid>yoffset</parameterid>
                <name>Vertical Offset</name>
                <valuemin>-100</valuemin>
                <valuemax>100</valuemax>
                <value>0</value>
              </parameter>
              <parameter>
                <parameterid>backsoft</parameterid>
                <name>Back Soft</name>
                <valuemin>0</valuemin>
                <valuemax>100</valuemax>
                <value>0</value>
              </parameter>
              <parameter>
                <parameterid>backopacity</parameterid>
                <name>Back Opacity</name>
                <valuemin>0</valuemin>
                <valuemax>100</valuemax>
                <value>50</value>
              </parameter>
              <parameter>
                <parameterid>backcolor</parameterid>
                <name>Back Color</name>
                <value>
                  <alpha>255</alpha>
                  <red>255</red>
                  <green>255</green>
                  <blue>255</blue>
                </value>
              </parameter>
              <parameter>
                <parameterid>superback</parameterid>
                <name>Back Graphic</name>
              </parameter>
              <parameter>
                <parameterid>crop</parameterid>
                <name>Crop</name>
                <value>false</value>
              </parameter>
              <parameter>
                <parameterid>autokern</parameterid>
                <name>Auto Kerning</name>
                <value>true</value>
              </parameter>
            </effect>
            <sourcetrack>
              <mediatype>video</mediatype>
            </sourcetrack>
          </generatoritem>
          <generatoritem id="Outline Text1">
            <name>定期日じゃない日に大福?</name>
            <duration>22166.1117</duration>
            <rate>
              <timebase>30</timebase>
              <ntsc>true</ntsc>
            </rate>
            <start>15884.699399999992</start>
            <end>15924.859199999994</end>
            <in>15884.699399999992</in>
            <out>15924.859199999994</out>
            <enabled>true</enabled>
            <anamorphic>false</anamorphic>
            <alphatype>black</alphatype>
            <masterclipid>Outline Text1</masterclipid>
            <effect>
              <name>Outline Text</name>
              <effectid>Outline Text</effectid>
              <effectcategory>Text</effectcategory>
              <effecttype>generator</effecttype>
              <mediatype>video</mediatype>
              <parameter>
                <parameterid>part1</parameterid>
                <name>Text Settings</name>
                <value/>
              </parameter>
              <parameter>
                <parameterid>str</parameterid>
                <name>Text</name>
                <value>定期日じゃない日に大福?</value>
              </parameter>
              <parameter>
                <parameterid>font</parameterid>
                <name>Font</name>
                <value>HiraginoSans-W6</value>
              </parameter>
              <parameter>
                <parameterid>style</parameterid>
                <name>Style</name>
                <valuemin>1</valuemin>
                <valuemax>1</valuemax>
                <valuelist>
                  <valueentry>
                    <name>Regular</name>
                    <value>1</value>
                  </valueentry>
                </valuelist>
                <value>1</value>
              </parameter>
              <parameter>
                <parameterid>align</parameterid>
                <name>Alignment</name>
                <valuemin>1</valuemin>
                <valuemax>3</valuemax>
                <valuelist>
                  <valueentry>
                    <name>Left</name>
                    <value>1</value>
                  </valueentry>
                  <valueentry>
                    <name>Center</name>
                    <value>2</value>
                  </valueentry>
                  <valueentry>
                    <name>Right</name>
                    <value>3</value>
                  </valueentry>
                </valuelist>
                <value>2</value>
              </parameter>
              <parameter>
                <parameterid>size</parameterid>
                <name>Size</name>
                <valuemin>0</valuemin>
                <valuemax>200</valuemax>
                <value>24</value>
              </parameter>
              <parameter>
                <parameterid>track</parameterid>
                <name>Tracking</name>
                <valuemin>0</valuemin>
                <valuemax>100</valuemax>
                <value>1</value>
              </parameter>
              <parameter>
                <parameterid>lead</parameterid>
                <name>Leading</name>
                <valuemin>-100</valuemin>
                <valuemax>100</valuemax>
                <value>0</value>
              </parameter>
              <parameter>
                <parameterid>aspect</parameterid>
                <name>Aspect</name>
                <valuemin>0</valuemin>
                <valuemax>4</valuemax>
                <value>1</value>
              </parameter>
              <parameter>
                <parameterid>linewidth</parameterid>
                <name>Line Width</name>
                <valuemin>0</valuemin>
                <valuemax>200</valuemax>
                <value>2</value>
              </parameter>
              <parameter>
                <parameterid>linesoft</parameterid>
                <name>Line Softness</name>
                <valuemin>0</valuemin>
                <valuemax>100</valuemax>
                <value>5</value>
              </parameter>
              <parameter>
                <parameterid>textopacity</parameterid>
                <name>Text Opacity</name>
                <valuemin>0</valuemin>
                <valuemax>100</valuemax>
                <value>100</value>
              </parameter>
              <parameter>
                <parameterid>center</parameterid>
                <name>Center</name>
                <value>
                  <horiz>0</horiz>
                  <vert>0.4703703703703703</vert>
                </value>
              </parameter>
              <parameter>
                <parameterid>textcolor</parameterid>
                <name>Text Color</name>
                <value>
                  <alpha>255</alpha>
                  <red>255</red>
                  <green>255</green>
                  <blue>255</blue>
                </value>
              </parameter>
              <parameter>
                <parameterid>supertext</parameterid>
                <name>Text Graphic</name>
              </parameter>
              <parameter>
                <parameterid>linecolor</parameterid>
                <name>Line Color</name>
                <value>
                  <alpha>255</alpha>
                  <red>0</red>
                  <green>0</green>
                  <blue>0</blue>
                </value>
              </parameter>
              <parameter>
                <parameterid>superline</parameterid>
                <name>Line Graphic</name>
              </parameter>
              <parameter>
                <parameterid>part2</parameterid>
                <name>Background Settings</name>
              </parameter>
              <parameter>
                <parameterid>xscale</parameterid>
                <name>Horizontal Size</name>
                <valuemin>0</valuemin>
                <valuemax>200</valuemax>
                <value>0</value>
              </parameter>
              <parameter>
                <parameterid>yscale</parameterid>
                <name>Vertical Size</name>
                <valuemin>0</valuemin>
                <valuemax>200</valuemax>
                <value>0</value>
              </parameter>
              <parameter>
                <parameterid>xoffset</parameterid>
                <name>Horizontal Offset</name>
                <valuemin>-100</valuemin>
                <valuemax>100</valuemax>
                <value>0</value>
              </parameter>
              <parameter>
                <parameterid>yoffset</parameterid>
                <name>Vertical Offset</name>
                <valuemin>-100</valuemin>
                <valuemax>100</valuemax>
                <value>0</value>
              </parameter>
              <parameter>
                <parameterid>backsoft</parameterid>
                <name>Back Soft</name>
                <valuemin>0</valuemin>
                <valuemax>100</valuemax>
                <value>0</value>
              </parameter>
              <parameter>
                <parameterid>backopacity</parameterid>
                <name>Back Opacity</name>
                <valuemin>0</valuemin>
                <valuemax>100</valuemax>
                <value>50</value>
              </parameter>
              <parameter>
                <parameterid>backcolor</parameterid>
                <name>Back Color</name>
                <value>
                  <alpha>255</alpha>
                  <red>255</red>
                  <green>255</green>
                  <blue>255</blue>
                </value>
              </parameter>
              <parameter>
                <parameterid>superback</parameterid>
                <name>Back Graphic</name>
              </parameter>
              <parameter>
                <parameterid>crop</parameterid>
                <name>Crop</name>
                <value>false</value>
              </parameter>
              <parameter>
                <parameterid>autokern</parameterid>
                <name>Auto Kerning</name>
                <value>true</value>
              </parameter>
            </effect>
            <sourcetrack>
              <mediatype>video</mediatype>
            </sourcetrack>
          </generatoritem>
          <generatoritem id="Outline Text1">
            <name>大福って書いてある?</name>
            <duration>22166.1117</duration>
            <rate>
              <timebase>30</timebase>
              <ntsc>true</ntsc>
            </rate>
            <start>15924.859199999994</start>
            <end>16054.02989999999</end>
            <in>15924.859199999994</in>
            <out>16054.02989999999</out>
            <enabled>true</enabled>
            <anamorphic>false</anamorphic>
            <alphatype>black</alphatype>
            <masterclipid>Outline Text1</masterclipid>
            <effect>
              <name>Outline Text</name>
              <effectid>Outline Text</effectid>
              <effectcategory>Text</effectcategory>
              <effecttype>generator</effecttype>
              <mediatype>video</mediatype>
              <parameter>
                <parameterid>part1</parameterid>
                <name>Text Settings</name>
                <value/>
              </parameter>
              <parameter>
                <parameterid>str</parameterid>
                <name>Text</name>
                <value>大福って書いてある?</value>
              </parameter>
              <parameter>
                <parameterid>font</parameterid>
                <name>Font</name>
                <value>HiraginoSans-W6</value>
              </parameter>
              <parameter>
                <parameterid>style</parameterid>
                <name>Style</name>
                <valuemin>1</valuemin>
                <valuemax>1</valuemax>
                <valuelist>
                  <valueentry>
                    <name>Regular</name>
                    <value>1</value>
                  </valueentry>
                </valuelist>
                <value>1</value>
              </parameter>
              <parameter>
                <parameterid>align</parameterid>
                <name>Alignment</name>
                <valuemin>1</valuemin>
                <valuemax>3</valuemax>
                <valuelist>
                  <valueentry>
                    <name>Left</name>
                    <value>1</value>
                  </valueentry>
                  <valueentry>
                    <name>Center</name>
                    <value>2</value>
                  </valueentry>
                  <valueentry>
                    <name>Right</name>
                    <value>3</value>
                  </valueentry>
                </valuelist>
                <value>2</value>
              </parameter>
              <parameter>
                <parameterid>size</parameterid>
                <name>Size</name>
                <valuemin>0</valuemin>
                <valuemax>200</valuemax>
                <value>24</value>
              </parameter>
              <parameter>
                <parameterid>track</parameterid>
                <name>Tracking</name>
                <valuemin>0</valuemin>
                <valuemax>100</valuemax>
                <value>1</value>
              </parameter>
              <parameter>
                <parameterid>lead</parameterid>
                <name>Leading</name>
                <valuemin>-100</valuemin>
                <valuemax>100</valuemax>
                <value>0</value>
              </parameter>
              <parameter>
                <parameterid>aspect</parameterid>
                <name>Aspect</name>
                <valuemin>0</valuemin>
                <valuemax>4</valuemax>
                <value>1</value>
              </parameter>
              <parameter>
                <parameterid>linewidth</parameterid>
                <name>Line Width</name>
                <valuemin>0</valuemin>
                <valuemax>200</valuemax>
                <value>2</value>
              </parameter>
              <parameter>
                <parameterid>linesoft</parameterid>
                <name>Line Softness</name>
                <valuemin>0</valuemin>
                <valuemax>100</valuemax>
                <value>5</value>
              </parameter>
              <parameter>
                <parameterid>textopacity</parameterid>
                <name>Text Opacity</name>
                <valuemin>0</valuemin>
                <valuemax>100</valuemax>
                <value>100</value>
              </parameter>
              <parameter>
                <parameterid>center</parameterid>
                <name>Center</name>
                <value>
                  <horiz>0</horiz>
                  <vert>0.4703703703703703</vert>
                </value>
              </parameter>
              <parameter>
                <parameterid>textcolor</parameterid>
                <name>Text Color</name>
                <value>
                  <alpha>255</alpha>
                  <red>255</red>
                  <green>255</green>
                  <blue>255</blue>
                </value>
              </parameter>
              <parameter>
                <parameterid>supertext</parameterid>
                <name>Text Graphic</name>
              </parameter>
              <parameter>
                <parameterid>linecolor</parameterid>
                <name>Line Color</name>
                <value>
                  <alpha>255</alpha>
                  <red>0</red>
                  <green>0</green>
                  <blue>0</blue>
                </value>
              </parameter>
              <parameter>
                <parameterid>superline</parameterid>
                <name>Line Graphic</name>
              </parameter>
              <parameter>
                <parameterid>part2</parameterid>
                <name>Background Settings</name>
              </parameter>
              <parameter>
                <parameterid>xscale</parameterid>
                <name>Horizontal Size</name>
                <valuemin>0</valuemin>
                <valuemax>200</valuemax>
                <value>0</value>
              </parameter>
              <parameter>
                <parameterid>yscale</parameterid>
                <name>Vertical Size</name>
                <valuemin>0</valuemin>
                <valuemax>200</valuemax>
                <value>0</value>
              </parameter>
              <parameter>
                <parameterid>xoffset</parameterid>
                <name>Horizontal Offset</name>
                <valuemin>-100</valuemin>
                <valuemax>100</valuemax>
                <value>0</value>
              </parameter>
              <parameter>
                <parameterid>yoffset</parameterid>
                <name>Vertical Offset</name>
                <valuemin>-100</valuemin>
                <valuemax>100</valuemax>
                <value>0</value>
              </parameter>
              <parameter>
                <parameterid>backsoft</parameterid>
                <name>Back Soft</name>
                <valuemin>0</valuemin>
                <valuemax>100</valuemax>
                <value>0</value>
              </parameter>
              <parameter>
                <parameterid>backopacity</parameterid>
                <name>Back Opacity</name>
                <valuemin>0</valuemin>
                <valuemax>100</valuemax>
                <value>50</value>
              </parameter>
              <parameter>
                <parameterid>backcolor</parameterid>
                <name>Back Color</name>
                <value>
                  <alpha>255</alpha>
                  <red>255</red>
                  <green>255</green>
                  <blue>255</blue>
                </value>
              </parameter>
              <parameter>
                <parameterid>superback</parameterid>
                <name>Back Graphic</name>
              </parameter>
              <parameter>
                <parameterid>crop</parameterid>
                <name>Crop</name>
                <value>false</value>
              </parameter>
              <parameter>
                <parameterid>autokern</parameterid>
                <name>Auto Kerning</name>
                <value>true</value>
              </parameter>
            </effect>
            <sourcetrack>
              <mediatype>video</mediatype>
            </sourcetrack>
          </generatoritem>
          <generatoritem id="Outline Text1">
            <name>大福ちょっと見てみようよ見てみます</name>
            <duration>22166.1117</duration>
            <rate>
              <timebase>30</timebase>
              <ntsc>true</ntsc>
            </rate>
            <start>16054.02989999999</start>
            <end>16187.09669999999</end>
            <in>16054.02989999999</in>
            <out>16187.09669999999</out>
            <enabled>true</enabled>
            <anamorphic>false</anamorphic>
            <alphatype>black</alphatype>
            <masterclipid>Outline Text1</masterclipid>
            <effect>
              <name>Outline Text</name>
              <effectid>Outline Text</effectid>
              <effectcategory>Text</effectcategory>
              <effecttype>generator</effecttype>
              <mediatype>video</mediatype>
              <parameter>
                <parameterid>part1</parameterid>
                <name>Text Settings</name>
                <value/>
              </parameter>
              <parameter>
                <parameterid>str</parameterid>
                <name>Text</name>
                <value>大福ちょっと見てみようよ見てみます</value>
              </parameter>
              <parameter>
                <parameterid>font</parameterid>
                <name>Font</name>
                <value>HiraginoSans-W6</value>
              </parameter>
              <parameter>
                <parameterid>style</parameterid>
                <name>Style</name>
                <valuemin>1</valuemin>
                <valuemax>1</valuemax>
                <valuelist>
                  <valueentry>
                    <name>Regular</name>
                    <value>1</value>
                  </valueentry>
                </valuelist>
                <value>1</value>
              </parameter>
              <parameter>
                <parameterid>align</parameterid>
                <name>Alignment</name>
                <valuemin>1</valuemin>
                <valuemax>3</valuemax>
                <valuelist>
                  <valueentry>
                    <name>Left</name>
                    <value>1</value>
                  </valueentry>
                  <valueentry>
                    <name>Center</name>
                    <value>2</value>
                  </valueentry>
                  <valueentry>
                    <name>Right</name>
                    <value>3</value>
                  </valueentry>
                </valuelist>
                <value>2</value>
              </parameter>
              <parameter>
                <parameterid>size</parameterid>
                <name>Size</name>
                <valuemin>0</valuemin>
                <valuemax>200</valuemax>
                <value>24</value>
              </parameter>
              <parameter>
                <parameterid>track</parameterid>
                <name>Tracking</name>
                <valuemin>0</valuemin>
                <valuemax>100</valuemax>
                <value>1</value>
              </parameter>
              <parameter>
                <parameterid>lead</parameterid>
                <name>Leading</name>
                <valuemin>-100</valuemin>
                <valuemax>100</valuemax>
                <value>0</value>
              </parameter>
              <parameter>
                <parameterid>aspect</parameterid>
                <name>Aspect</name>
                <valuemin>0</valuemin>
                <valuemax>4</valuemax>
                <value>1</value>
              </parameter>
              <parameter>
                <parameterid>linewidth</parameterid>
                <name>Line Width</name>
                <valuemin>0</valuemin>
                <valuemax>200</valuemax>
                <value>2</value>
              </parameter>
              <parameter>
                <parameterid>linesoft</parameterid>
                <name>Line Softness</name>
                <valuemin>0</valuemin>
                <valuemax>100</valuemax>
                <value>5</value>
              </parameter>
              <parameter>
                <parameterid>textopacity</parameterid>
                <name>Text Opacity</name>
                <valuemin>0</valuemin>
                <valuemax>100</valuemax>
                <value>100</value>
              </parameter>
              <parameter>
                <parameterid>center</parameterid>
                <name>Center</name>
                <value>
                  <horiz>0</horiz>
                  <vert>0.4703703703703703</vert>
                </value>
              </parameter>
              <parameter>
                <parameterid>textcolor</parameterid>
                <name>Text Color</name>
                <value>
                  <alpha>255</alpha>
                  <red>255</red>
                  <green>255</green>
                  <blue>255</blue>
                </value>
              </parameter>
              <parameter>
                <parameterid>supertext</parameterid>
                <name>Text Graphic</name>
              </parameter>
              <parameter>
                <parameterid>linecolor</parameterid>
                <name>Line Color</name>
                <value>
                  <alpha>255</alpha>
                  <red>0</red>
                  <green>0</green>
                  <blue>0</blue>
                </value>
              </parameter>
              <parameter>
                <parameterid>superline</parameterid>
                <name>Line Graphic</name>
              </parameter>
              <parameter>
                <parameterid>part2</parameterid>
                <name>Background Settings</name>
              </parameter>
              <parameter>
                <parameterid>xscale</parameterid>
                <name>Horizontal Size</name>
                <valuemin>0</valuemin>
                <valuemax>200</valuemax>
                <value>0</value>
              </parameter>
              <parameter>
                <parameterid>yscale</parameterid>
                <name>Vertical Size</name>
                <valuemin>0</valuemin>
                <valuemax>200</valuemax>
                <value>0</value>
              </parameter>
              <parameter>
                <parameterid>xoffset</parameterid>
                <name>Horizontal Offset</name>
                <valuemin>-100</valuemin>
                <valuemax>100</valuemax>
                <value>0</value>
              </parameter>
              <parameter>
                <parameterid>yoffset</parameterid>
                <name>Vertical Offset</name>
                <valuemin>-100</valuemin>
                <valuemax>100</valuemax>
                <value>0</value>
              </parameter>
              <parameter>
                <parameterid>backsoft</parameterid>
                <name>Back Soft</name>
                <valuemin>0</valuemin>
                <valuemax>100</valuemax>
                <value>0</value>
              </parameter>
              <parameter>
                <parameterid>backopacity</parameterid>
                <name>Back Opacity</name>
                <valuemin>0</valuemin>
                <valuemax>100</valuemax>
                <value>50</value>
              </parameter>
              <parameter>
                <parameterid>backcolor</parameterid>
                <name>Back Color</name>
                <value>
                  <alpha>255</alpha>
                  <red>255</red>
                  <green>255</green>
                  <blue>255</blue>
                </value>
              </parameter>
              <parameter>
                <parameterid>superback</parameterid>
                <name>Back Graphic</name>
              </parameter>
              <parameter>
                <parameterid>crop</parameterid>
                <name>Crop</name>
                <value>false</value>
              </parameter>
              <parameter>
                <parameterid>autokern</parameterid>
                <name>Auto Kerning</name>
                <value>true</value>
              </parameter>
            </effect>
            <sourcetrack>
              <mediatype>video</mediatype>
            </sourcetrack>
          </generatoritem>
          <generatoritem id="Outline Text1">
            <name>これはなんかもうでも売り切れちゃった</name>
            <duration>22166.1117</duration>
            <rate>
              <timebase>30</timebase>
              <ntsc>true</ntsc>
            </rate>
            <start>16187.09669999999</start>
            <end>16272.511199999986</end>
            <in>16187.09669999999</in>
            <out>16272.511199999986</out>
            <enabled>true</enabled>
            <anamorphic>false</anamorphic>
            <alphatype>black</alphatype>
            <masterclipid>Outline Text1</masterclipid>
            <effect>
              <name>Outline Text</name>
              <effectid>Outline Text</effectid>
              <effectcategory>Text</effectcategory>
              <effecttype>generator</effecttype>
              <mediatype>video</mediatype>
              <parameter>
                <parameterid>part1</parameterid>
                <name>Text Settings</name>
                <value/>
              </parameter>
              <parameter>
                <parameterid>str</parameterid>
                <name>Text</name>
                <value>これはなんかもうでも売り切れちゃった</value>
              </parameter>
              <parameter>
                <parameterid>font</parameterid>
                <name>Font</name>
                <value>HiraginoSans-W6</value>
              </parameter>
              <parameter>
                <parameterid>style</parameterid>
                <name>Style</name>
                <valuemin>1</valuemin>
                <valuemax>1</valuemax>
                <valuelist>
                  <valueentry>
                    <name>Regular</name>
                    <value>1</value>
                  </valueentry>
                </valuelist>
                <value>1</value>
              </parameter>
              <parameter>
                <parameterid>align</parameterid>
                <name>Alignment</name>
                <valuemin>1</valuemin>
                <valuemax>3</valuemax>
                <valuelist>
                  <valueentry>
                    <name>Left</name>
                    <value>1</value>
                  </valueentry>
                  <valueentry>
                    <name>Center</name>
                    <value>2</value>
                  </valueentry>
                  <valueentry>
                    <name>Right</name>
                    <value>3</value>
                  </valueentry>
                </valuelist>
                <value>2</value>
              </parameter>
              <parameter>
                <parameterid>size</parameterid>
                <name>Size</name>
                <valuemin>0</valuemin>
                <valuemax>200</valuemax>
                <value>24</value>
              </parameter>
              <parameter>
                <parameterid>track</parameterid>
                <name>Tracking</name>
                <valuemin>0</valuemin>
                <valuemax>100</valuemax>
                <value>1</value>
              </parameter>
              <parameter>
                <parameterid>lead</parameterid>
                <name>Leading</name>
                <valuemin>-100</valuemin>
                <valuemax>100</valuemax>
                <value>0</value>
              </parameter>
              <parameter>
                <parameterid>aspect</parameterid>
                <name>Aspect</name>
                <valuemin>0</valuemin>
                <valuemax>4</valuemax>
                <value>1</value>
              </parameter>
              <parameter>
                <parameterid>linewidth</parameterid>
                <name>Line Width</name>
                <valuemin>0</valuemin>
                <valuemax>200</valuemax>
                <value>2</value>
              </parameter>
              <parameter>
                <parameterid>linesoft</parameterid>
                <name>Line Softness</name>
                <valuemin>0</valuemin>
                <valuemax>100</valuemax>
                <value>5</value>
              </parameter>
              <parameter>
                <parameterid>textopacity</parameterid>
                <name>Text Opacity</name>
                <valuemin>0</valuemin>
                <valuemax>100</valuemax>
                <value>100</value>
              </parameter>
              <parameter>
                <parameterid>center</parameterid>
                <name>Center</name>
                <value>
                  <horiz>0</horiz>
                  <vert>0.4703703703703703</vert>
                </value>
              </parameter>
              <parameter>
                <parameterid>textcolor</parameterid>
                <name>Text Color</name>
                <value>
                  <alpha>255</alpha>
                  <red>255</red>
                  <green>255</green>
                  <blue>255</blue>
                </value>
              </parameter>
              <parameter>
                <parameterid>supertext</parameterid>
                <name>Text Graphic</name>
              </parameter>
              <parameter>
                <parameterid>linecolor</parameterid>
                <name>Line Color</name>
                <value>
                  <alpha>255</alpha>
                  <red>0</red>
                  <green>0</green>
                  <blue>0</blue>
                </value>
              </parameter>
              <parameter>
                <parameterid>superline</parameterid>
                <name>Line Graphic</name>
              </parameter>
              <parameter>
                <parameterid>part2</parameterid>
                <name>Background Settings</name>
              </parameter>
              <parameter>
                <parameterid>xscale</parameterid>
                <name>Horizontal Size</name>
                <valuemin>0</valuemin>
                <valuemax>200</valuemax>
                <value>0</value>
              </parameter>
              <parameter>
                <parameterid>yscale</parameterid>
                <name>Vertical Size</name>
                <valuemin>0</valuemin>
                <valuemax>200</valuemax>
                <value>0</value>
              </parameter>
              <parameter>
                <parameterid>xoffset</parameterid>
                <name>Horizontal Offset</name>
                <valuemin>-100</valuemin>
                <valuemax>100</valuemax>
                <value>0</value>
              </parameter>
              <parameter>
                <parameterid>yoffset</parameterid>
                <name>Vertical Offset</name>
                <valuemin>-100</valuemin>
                <valuemax>100</valuemax>
                <value>0</value>
              </parameter>
              <parameter>
                <parameterid>backsoft</parameterid>
                <name>Back Soft</name>
                <valuemin>0</valuemin>
                <valuemax>100</valuemax>
                <value>0</value>
              </parameter>
              <parameter>
                <parameterid>backopacity</parameterid>
                <name>Back Opacity</name>
                <valuemin>0</valuemin>
                <valuemax>100</valuemax>
                <value>50</value>
              </parameter>
              <parameter>
                <parameterid>backcolor</parameterid>
                <name>Back Color</name>
                <value>
                  <alpha>255</alpha>
                  <red>255</red>
                  <green>255</green>
                  <blue>255</blue>
                </value>
              </parameter>
              <parameter>
                <parameterid>superback</parameterid>
                <name>Back Graphic</name>
              </parameter>
              <parameter>
                <parameterid>crop</parameterid>
                <name>Crop</name>
                <value>false</value>
              </parameter>
              <parameter>
                <parameterid>autokern</parameterid>
                <name>Auto Kerning</name>
                <value>true</value>
              </parameter>
            </effect>
            <sourcetrack>
              <mediatype>video</mediatype>
            </sourcetrack>
          </generatoritem>
          <generatoritem id="Outline Text1">
            <name>売り切れました</name>
            <duration>22166.1117</duration>
            <rate>
              <timebase>30</timebase>
              <ntsc>true</ntsc>
            </rate>
            <start>16272.511199999986</start>
            <end>16322.860799999986</end>
            <in>16272.511199999986</in>
            <out>16322.860799999986</out>
            <enabled>true</enabled>
            <anamorphic>false</anamorphic>
            <alphatype>black</alphatype>
            <masterclipid>Outline Text1</masterclipid>
            <effect>
              <name>Outline Text</name>
              <effectid>Outline Text</effectid>
              <effectcategory>Text</effectcategory>
              <effecttype>generator</effecttype>
              <mediatype>video</mediatype>
              <parameter>
                <parameterid>part1</parameterid>
                <name>Text Settings</name>
                <value/>
              </parameter>
              <parameter>
                <parameterid>str</parameterid>
                <name>Text</name>
                <value>売り切れました</value>
              </parameter>
              <parameter>
                <parameterid>font</parameterid>
                <name>Font</name>
                <value>HiraginoSans-W6</value>
              </parameter>
              <parameter>
                <parameterid>style</parameterid>
                <name>Style</name>
                <valuemin>1</valuemin>
                <valuemax>1</valuemax>
                <valuelist>
                  <valueentry>
                    <name>Regular</name>
                    <value>1</value>
                  </valueentry>
                </valuelist>
                <value>1</value>
              </parameter>
              <parameter>
                <parameterid>align</parameterid>
                <name>Alignment</name>
                <valuemin>1</valuemin>
                <valuemax>3</valuemax>
                <valuelist>
                  <valueentry>
                    <name>Left</name>
                    <value>1</value>
                  </valueentry>
                  <valueentry>
                    <name>Center</name>
                    <value>2</value>
                  </valueentry>
                  <valueentry>
                    <name>Right</name>
                    <value>3</value>
                  </valueentry>
                </valuelist>
                <value>2</value>
              </parameter>
              <parameter>
                <parameterid>size</parameterid>
                <name>Size</name>
                <valuemin>0</valuemin>
                <valuemax>200</valuemax>
                <value>24</value>
              </parameter>
              <parameter>
                <parameterid>track</parameterid>
                <name>Tracking</name>
                <valuemin>0</valuemin>
                <valuemax>100</valuemax>
                <value>1</value>
              </parameter>
              <parameter>
                <parameterid>lead</parameterid>
                <name>Leading</name>
                <valuemin>-100</valuemin>
                <valuemax>100</valuemax>
                <value>0</value>
              </parameter>
              <parameter>
                <parameterid>aspect</parameterid>
                <name>Aspect</name>
                <valuemin>0</valuemin>
                <valuemax>4</valuemax>
                <value>1</value>
              </parameter>
              <parameter>
                <parameterid>linewidth</parameterid>
                <name>Line Width</name>
                <valuemin>0</valuemin>
                <valuemax>200</valuemax>
                <value>2</value>
              </parameter>
              <parameter>
                <parameterid>linesoft</parameterid>
                <name>Line Softness</name>
                <valuemin>0</valuemin>
                <valuemax>100</valuemax>
                <value>5</value>
              </parameter>
              <parameter>
                <parameterid>textopacity</parameterid>
                <name>Text Opacity</name>
                <valuemin>0</valuemin>
                <valuemax>100</valuemax>
                <value>100</value>
              </parameter>
              <parameter>
                <parameterid>center</parameterid>
                <name>Center</name>
                <value>
                  <horiz>0</horiz>
                  <vert>0.4703703703703703</vert>
                </value>
              </parameter>
              <parameter>
                <parameterid>textcolor</parameterid>
                <name>Text Color</name>
                <value>
                  <alpha>255</alpha>
                  <red>255</red>
                  <green>255</green>
                  <blue>255</blue>
                </value>
              </parameter>
              <parameter>
                <parameterid>supertext</parameterid>
                <name>Text Graphic</name>
              </parameter>
              <parameter>
                <parameterid>linecolor</parameterid>
                <name>Line Color</name>
                <value>
                  <alpha>255</alpha>
                  <red>0</red>
                  <green>0</green>
                  <blue>0</blue>
                </value>
              </parameter>
              <parameter>
                <parameterid>superline</parameterid>
                <name>Line Graphic</name>
              </parameter>
              <parameter>
                <parameterid>part2</parameterid>
                <name>Background Settings</name>
              </parameter>
              <parameter>
                <parameterid>xscale</parameterid>
                <name>Horizontal Size</name>
                <valuemin>0</valuemin>
                <valuemax>200</valuemax>
                <value>0</value>
              </parameter>
              <parameter>
                <parameterid>yscale</parameterid>
                <name>Vertical Size</name>
                <valuemin>0</valuemin>
                <valuemax>200</valuemax>
                <value>0</value>
              </parameter>
              <parameter>
                <parameterid>xoffset</parameterid>
                <name>Horizontal Offset</name>
                <valuemin>-100</valuemin>
                <valuemax>100</valuemax>
                <value>0</value>
              </parameter>
              <parameter>
                <parameterid>yoffset</parameterid>
                <name>Vertical Offset</name>
                <valuemin>-100</valuemin>
                <valuemax>100</valuemax>
                <value>0</value>
              </parameter>
              <parameter>
                <parameterid>backsoft</parameterid>
                <name>Back Soft</name>
                <valuemin>0</valuemin>
                <valuemax>100</valuemax>
                <value>0</value>
              </parameter>
              <parameter>
                <parameterid>backopacity</parameterid>
                <name>Back Opacity</name>
                <valuemin>0</valuemin>
                <valuemax>100</valuemax>
                <value>50</value>
              </parameter>
              <parameter>
                <parameterid>backcolor</parameterid>
                <name>Back Color</name>
                <value>
                  <alpha>255</alpha>
                  <red>255</red>
                  <green>255</green>
                  <blue>255</blue>
                </value>
              </parameter>
              <parameter>
                <parameterid>superback</parameterid>
                <name>Back Graphic</name>
              </parameter>
              <parameter>
                <parameterid>crop</parameterid>
                <name>Crop</name>
                <value>false</value>
              </parameter>
              <parameter>
                <parameterid>autokern</parameterid>
                <name>Auto Kerning</name>
                <value>true</value>
              </parameter>
            </effect>
            <sourcetrack>
              <mediatype>video</mediatype>
            </sourcetrack>
          </generatoritem>
          <generatoritem id="Outline Text1">
            <name>好きな方言っていいよ</name>
            <duration>22166.1117</duration>
            <rate>
              <timebase>30</timebase>
              <ntsc>true</ntsc>
            </rate>
            <start>16322.860799999986</start>
            <end>16387.296299999987</end>
            <in>16322.860799999986</in>
            <out>16387.296299999987</out>
            <enabled>true</enabled>
            <anamorphic>false</anamorphic>
            <alphatype>black</alphatype>
            <masterclipid>Outline Text1</masterclipid>
            <effect>
              <name>Outline Text</name>
              <effectid>Outline Text</effectid>
              <effectcategory>Text</effectcategory>
              <effecttype>generator</effecttype>
              <mediatype>video</mediatype>
              <parameter>
                <parameterid>part1</parameterid>
                <name>Text Settings</name>
                <value/>
              </parameter>
              <parameter>
                <parameterid>str</parameterid>
                <name>Text</name>
                <value>好きな方言っていいよ</value>
              </parameter>
              <parameter>
                <parameterid>font</parameterid>
                <name>Font</name>
                <value>HiraginoSans-W6</value>
              </parameter>
              <parameter>
                <parameterid>style</parameterid>
                <name>Style</name>
                <valuemin>1</valuemin>
                <valuemax>1</valuemax>
                <valuelist>
                  <valueentry>
                    <name>Regular</name>
                    <value>1</value>
                  </valueentry>
                </valuelist>
                <value>1</value>
              </parameter>
              <parameter>
                <parameterid>align</parameterid>
                <name>Alignment</name>
                <valuemin>1</valuemin>
                <valuemax>3</valuemax>
                <valuelist>
                  <valueentry>
                    <name>Left</name>
                    <value>1</value>
                  </valueentry>
                  <valueentry>
                    <name>Center</name>
                    <value>2</value>
                  </valueentry>
                  <valueentry>
                    <name>Right</name>
                    <value>3</value>
                  </valueentry>
                </valuelist>
                <value>2</value>
              </parameter>
              <parameter>
                <parameterid>size</parameterid>
                <name>Size</name>
                <valuemin>0</valuemin>
                <valuemax>200</valuemax>
                <value>24</value>
              </parameter>
              <parameter>
                <parameterid>track</parameterid>
                <name>Tracking</name>
                <valuemin>0</valuemin>
                <valuemax>100</valuemax>
                <value>1</value>
              </parameter>
              <parameter>
                <parameterid>lead</parameterid>
                <name>Leading</name>
                <valuemin>-100</valuemin>
                <valuemax>100</valuemax>
                <value>0</value>
              </parameter>
              <parameter>
                <parameterid>aspect</parameterid>
                <name>Aspect</name>
                <valuemin>0</valuemin>
                <valuemax>4</valuemax>
                <value>1</value>
              </parameter>
              <parameter>
                <parameterid>linewidth</parameterid>
                <name>Line Width</name>
                <valuemin>0</valuemin>
                <valuemax>200</valuemax>
                <value>2</value>
              </parameter>
              <parameter>
                <parameterid>linesoft</parameterid>
                <name>Line Softness</name>
                <valuemin>0</valuemin>
                <valuemax>100</valuemax>
                <value>5</value>
              </parameter>
              <parameter>
                <parameterid>textopacity</parameterid>
                <name>Text Opacity</name>
                <valuemin>0</valuemin>
                <valuemax>100</valuemax>
                <value>100</value>
              </parameter>
              <parameter>
                <parameterid>center</parameterid>
                <name>Center</name>
                <value>
                  <horiz>0</horiz>
                  <vert>0.4703703703703703</vert>
                </value>
              </parameter>
              <parameter>
                <parameterid>textcolor</parameterid>
                <name>Text Color</name>
                <value>
                  <alpha>255</alpha>
                  <red>255</red>
                  <green>255</green>
                  <blue>255</blue>
                </value>
              </parameter>
              <parameter>
                <parameterid>supertext</parameterid>
                <name>Text Graphic</name>
              </parameter>
              <parameter>
                <parameterid>linecolor</parameterid>
                <name>Line Color</name>
                <value>
                  <alpha>255</alpha>
                  <red>0</red>
                  <green>0</green>
                  <blue>0</blue>
                </value>
              </parameter>
              <parameter>
                <parameterid>superline</parameterid>
                <name>Line Graphic</name>
              </parameter>
              <parameter>
                <parameterid>part2</parameterid>
                <name>Background Settings</name>
              </parameter>
              <parameter>
                <parameterid>xscale</parameterid>
                <name>Horizontal Size</name>
                <valuemin>0</valuemin>
                <valuemax>200</valuemax>
                <value>0</value>
              </parameter>
              <parameter>
                <parameterid>yscale</parameterid>
                <name>Vertical Size</name>
                <valuemin>0</valuemin>
                <valuemax>200</valuemax>
                <value>0</value>
              </parameter>
              <parameter>
                <parameterid>xoffset</parameterid>
                <name>Horizontal Offset</name>
                <valuemin>-100</valuemin>
                <valuemax>100</valuemax>
                <value>0</value>
              </parameter>
              <parameter>
                <parameterid>yoffset</parameterid>
                <name>Vertical Offset</name>
                <valuemin>-100</valuemin>
                <valuemax>100</valuemax>
                <value>0</value>
              </parameter>
              <parameter>
                <parameterid>backsoft</parameterid>
                <name>Back Soft</name>
                <valuemin>0</valuemin>
                <valuemax>100</valuemax>
                <value>0</value>
              </parameter>
              <parameter>
                <parameterid>backopacity</parameterid>
                <name>Back Opacity</name>
                <valuemin>0</valuemin>
                <valuemax>100</valuemax>
                <value>50</value>
              </parameter>
              <parameter>
                <parameterid>backcolor</parameterid>
                <name>Back Color</name>
                <value>
                  <alpha>255</alpha>
                  <red>255</red>
                  <green>255</green>
                  <blue>255</blue>
                </value>
              </parameter>
              <parameter>
                <parameterid>superback</parameterid>
                <name>Back Graphic</name>
              </parameter>
              <parameter>
                <parameterid>crop</parameterid>
                <name>Crop</name>
                <value>false</value>
              </parameter>
              <parameter>
                <parameterid>autokern</parameterid>
                <name>Auto Kerning</name>
                <value>true</value>
              </parameter>
            </effect>
            <sourcetrack>
              <mediatype>video</mediatype>
            </sourcetrack>
          </generatoritem>
          <generatoritem id="Outline Text1">
            <name>じゃあアイリーちゃん好きな方言っていいよ</name>
            <duration>22166.1117</duration>
            <rate>
              <timebase>30</timebase>
              <ntsc>true</ntsc>
            </rate>
            <start>16387.296299999987</start>
            <end>16437.94559999999</end>
            <in>16387.296299999987</in>
            <out>16437.94559999999</out>
            <enabled>true</enabled>
            <anamorphic>false</anamorphic>
            <alphatype>black</alphatype>
            <masterclipid>Outline Text1</masterclipid>
            <effect>
              <name>Outline Text</name>
              <effectid>Outline Text</effectid>
              <effectcategory>Text</effectcategory>
              <effecttype>generator</effecttype>
              <mediatype>video</mediatype>
              <parameter>
                <parameterid>part1</parameterid>
                <name>Text Settings</name>
                <value/>
              </parameter>
              <parameter>
                <parameterid>str</parameterid>
                <name>Text</name>
                <value>じゃあアイリーちゃん好きな方言っていいよ</value>
              </parameter>
              <parameter>
                <parameterid>font</parameterid>
                <name>Font</name>
                <value>HiraginoSans-W6</value>
              </parameter>
              <parameter>
                <parameterid>style</parameterid>
                <name>Style</name>
                <valuemin>1</valuemin>
                <valuemax>1</valuemax>
                <valuelist>
                  <valueentry>
                    <name>Regular</name>
                    <value>1</value>
                  </valueentry>
                </valuelist>
                <value>1</value>
              </parameter>
              <parameter>
                <parameterid>align</parameterid>
                <name>Alignment</name>
                <valuemin>1</valuemin>
                <valuemax>3</valuemax>
                <valuelist>
                  <valueentry>
                    <name>Left</name>
                    <value>1</value>
                  </valueentry>
                  <valueentry>
                    <name>Center</name>
                    <value>2</value>
                  </valueentry>
                  <valueentry>
                    <name>Right</name>
                    <value>3</value>
                  </valueentry>
                </valuelist>
                <value>2</value>
              </parameter>
              <parameter>
                <parameterid>size</parameterid>
                <name>Size</name>
                <valuemin>0</valuemin>
                <valuemax>200</valuemax>
                <value>24</value>
              </parameter>
              <parameter>
                <parameterid>track</parameterid>
                <name>Tracking</name>
                <valuemin>0</valuemin>
                <valuemax>100</valuemax>
                <value>1</value>
              </parameter>
              <parameter>
                <parameterid>lead</parameterid>
                <name>Leading</name>
                <valuemin>-100</valuemin>
                <valuemax>100</valuemax>
                <value>0</value>
              </parameter>
              <parameter>
                <parameterid>aspect</parameterid>
                <name>Aspect</name>
                <valuemin>0</valuemin>
                <valuemax>4</valuemax>
                <value>1</value>
              </parameter>
              <parameter>
                <parameterid>linewidth</parameterid>
                <name>Line Width</name>
                <valuemin>0</valuemin>
                <valuemax>200</valuemax>
                <value>2</value>
              </parameter>
              <parameter>
                <parameterid>linesoft</parameterid>
                <name>Line Softness</name>
                <valuemin>0</valuemin>
                <valuemax>100</valuemax>
                <value>5</value>
              </parameter>
              <parameter>
                <parameterid>textopacity</parameterid>
                <name>Text Opacity</name>
                <valuemin>0</valuemin>
                <valuemax>100</valuemax>
                <value>100</value>
              </parameter>
              <parameter>
                <parameterid>center</parameterid>
                <name>Center</name>
                <value>
                  <horiz>0</horiz>
                  <vert>0.4703703703703703</vert>
                </value>
              </parameter>
              <parameter>
                <parameterid>textcolor</parameterid>
                <name>Text Color</name>
                <value>
                  <alpha>255</alpha>
                  <red>255</red>
                  <green>255</green>
                  <blue>255</blue>
                </value>
              </parameter>
              <parameter>
                <parameterid>supertext</parameterid>
                <name>Text Graphic</name>
              </parameter>
              <parameter>
                <parameterid>linecolor</parameterid>
                <name>Line Color</name>
                <value>
                  <alpha>255</alpha>
                  <red>0</red>
                  <green>0</green>
                  <blue>0</blue>
                </value>
              </parameter>
              <parameter>
                <parameterid>superline</parameterid>
                <name>Line Graphic</name>
              </parameter>
              <parameter>
                <parameterid>part2</parameterid>
                <name>Background Settings</name>
              </parameter>
              <parameter>
                <parameterid>xscale</parameterid>
                <name>Horizontal Size</name>
                <valuemin>0</valuemin>
                <valuemax>200</valuemax>
                <value>0</value>
              </parameter>
              <parameter>
                <parameterid>yscale</parameterid>
                <name>Vertical Size</name>
                <valuemin>0</valuemin>
                <valuemax>200</valuemax>
                <value>0</value>
              </parameter>
              <parameter>
                <parameterid>xoffset</parameterid>
                <name>Horizontal Offset</name>
                <valuemin>-100</valuemin>
                <valuemax>100</valuemax>
                <value>0</value>
              </parameter>
              <parameter>
                <parameterid>yoffset</parameterid>
                <name>Vertical Offset</name>
                <valuemin>-100</valuemin>
                <valuemax>100</valuemax>
                <value>0</value>
              </parameter>
              <parameter>
                <parameterid>backsoft</parameterid>
                <name>Back Soft</name>
                <valuemin>0</valuemin>
                <valuemax>100</valuemax>
                <value>0</value>
              </parameter>
              <parameter>
                <parameterid>backopacity</parameterid>
                <name>Back Opacity</name>
                <valuemin>0</valuemin>
                <valuemax>100</valuemax>
                <value>50</value>
              </parameter>
              <parameter>
                <parameterid>backcolor</parameterid>
                <name>Back Color</name>
                <value>
                  <alpha>255</alpha>
                  <red>255</red>
                  <green>255</green>
                  <blue>255</blue>
                </value>
              </parameter>
              <parameter>
                <parameterid>superback</parameterid>
                <name>Back Graphic</name>
              </parameter>
              <parameter>
                <parameterid>crop</parameterid>
                <name>Crop</name>
                <value>false</value>
              </parameter>
              <parameter>
                <parameterid>autokern</parameterid>
                <name>Auto Kerning</name>
                <value>true</value>
              </parameter>
            </effect>
            <sourcetrack>
              <mediatype>video</mediatype>
            </sourcetrack>
          </generatoritem>
          <generatoritem id="Outline Text1">
            <name>クルミかアングー残り1個のあんず大福ゲットしましたー!</name>
            <duration>22166.1117</duration>
            <rate>
              <timebase>30</timebase>
              <ntsc>true</ntsc>
            </rate>
            <start>16437.94559999999</start>
            <end>16624.958399999985</end>
            <in>16437.94559999999</in>
            <out>16624.958399999985</out>
            <enabled>true</enabled>
            <anamorphic>false</anamorphic>
            <alphatype>black</alphatype>
            <masterclipid>Outline Text1</masterclipid>
            <effect>
              <name>Outline Text</name>
              <effectid>Outline Text</effectid>
              <effectcategory>Text</effectcategory>
              <effecttype>generator</effecttype>
              <mediatype>video</mediatype>
              <parameter>
                <parameterid>part1</parameterid>
                <name>Text Settings</name>
                <value/>
              </parameter>
              <parameter>
                <parameterid>str</parameterid>
                <name>Text</name>
                <value>クルミかアングー残り1個のあんず大福ゲットしましたー!</value>
              </parameter>
              <parameter>
                <parameterid>font</parameterid>
                <name>Font</name>
                <value>HiraginoSans-W6</value>
              </parameter>
              <parameter>
                <parameterid>style</parameterid>
                <name>Style</name>
                <valuemin>1</valuemin>
                <valuemax>1</valuemax>
                <valuelist>
                  <valueentry>
                    <name>Regular</name>
                    <value>1</value>
                  </valueentry>
                </valuelist>
                <value>1</value>
              </parameter>
              <parameter>
                <parameterid>align</parameterid>
                <name>Alignment</name>
                <valuemin>1</valuemin>
                <valuemax>3</valuemax>
                <valuelist>
                  <valueentry>
                    <name>Left</name>
                    <value>1</value>
                  </valueentry>
                  <valueentry>
                    <name>Center</name>
                    <value>2</value>
                  </valueentry>
                  <valueentry>
                    <name>Right</name>
                    <value>3</value>
                  </valueentry>
                </valuelist>
                <value>2</value>
              </parameter>
              <parameter>
                <parameterid>size</parameterid>
                <name>Size</name>
                <valuemin>0</valuemin>
                <valuemax>200</valuemax>
                <value>24</value>
              </parameter>
              <parameter>
                <parameterid>track</parameterid>
                <name>Tracking</name>
                <valuemin>0</valuemin>
                <valuemax>100</valuemax>
                <value>1</value>
              </parameter>
              <parameter>
                <parameterid>lead</parameterid>
                <name>Leading</name>
                <valuemin>-100</valuemin>
                <valuemax>100</valuemax>
                <value>0</value>
              </parameter>
              <parameter>
                <parameterid>aspect</parameterid>
                <name>Aspect</name>
                <valuemin>0</valuemin>
                <valuemax>4</valuemax>
                <value>1</value>
              </parameter>
              <parameter>
                <parameterid>linewidth</parameterid>
                <name>Line Width</name>
                <valuemin>0</valuemin>
                <valuemax>200</valuemax>
                <value>2</value>
              </parameter>
              <parameter>
                <parameterid>linesoft</parameterid>
                <name>Line Softness</name>
                <valuemin>0</valuemin>
                <valuemax>100</valuemax>
                <value>5</value>
              </parameter>
              <parameter>
                <parameterid>textopacity</parameterid>
                <name>Text Opacity</name>
                <valuemin>0</valuemin>
                <valuemax>100</valuemax>
                <value>100</value>
              </parameter>
              <parameter>
                <parameterid>center</parameterid>
                <name>Center</name>
                <value>
                  <horiz>0</horiz>
                  <vert>0.4703703703703703</vert>
                </value>
              </parameter>
              <parameter>
                <parameterid>textcolor</parameterid>
                <name>Text Color</name>
                <value>
                  <alpha>255</alpha>
                  <red>255</red>
                  <green>255</green>
                  <blue>255</blue>
                </value>
              </parameter>
              <parameter>
                <parameterid>supertext</parameterid>
                <name>Text Graphic</name>
              </parameter>
              <parameter>
                <parameterid>linecolor</parameterid>
                <name>Line Color</name>
                <value>
                  <alpha>255</alpha>
                  <red>0</red>
                  <green>0</green>
                  <blue>0</blue>
                </value>
              </parameter>
              <parameter>
                <parameterid>superline</parameterid>
                <name>Line Graphic</name>
              </parameter>
              <parameter>
                <parameterid>part2</parameterid>
                <name>Background Settings</name>
              </parameter>
              <parameter>
                <parameterid>xscale</parameterid>
                <name>Horizontal Size</name>
                <valuemin>0</valuemin>
                <valuemax>200</valuemax>
                <value>0</value>
              </parameter>
              <parameter>
                <parameterid>yscale</parameterid>
                <name>Vertical Size</name>
                <valuemin>0</valuemin>
                <valuemax>200</valuemax>
                <value>0</value>
              </parameter>
              <parameter>
                <parameterid>xoffset</parameterid>
                <name>Horizontal Offset</name>
                <valuemin>-100</valuemin>
                <valuemax>100</valuemax>
                <value>0</value>
              </parameter>
              <parameter>
                <parameterid>yoffset</parameterid>
                <name>Vertical Offset</name>
                <valuemin>-100</valuemin>
                <valuemax>100</valuemax>
                <value>0</value>
              </parameter>
              <parameter>
                <parameterid>backsoft</parameterid>
                <name>Back Soft</name>
                <valuemin>0</valuemin>
                <valuemax>100</valuemax>
                <value>0</value>
              </parameter>
              <parameter>
                <parameterid>backopacity</parameterid>
                <name>Back Opacity</name>
                <valuemin>0</valuemin>
                <valuemax>100</valuemax>
                <value>50</value>
              </parameter>
              <parameter>
                <parameterid>backcolor</parameterid>
                <name>Back Color</name>
                <value>
                  <alpha>255</alpha>
                  <red>255</red>
                  <green>255</green>
                  <blue>255</blue>
                </value>
              </parameter>
              <parameter>
                <parameterid>superback</parameterid>
                <name>Back Graphic</name>
              </parameter>
              <parameter>
                <parameterid>crop</parameterid>
                <name>Crop</name>
                <value>false</value>
              </parameter>
              <parameter>
                <parameterid>autokern</parameterid>
                <name>Auto Kerning</name>
                <value>true</value>
              </parameter>
            </effect>
            <sourcetrack>
              <mediatype>video</mediatype>
            </sourcetrack>
          </generatoritem>
          <generatoritem id="Outline Text1">
            <name>やったー!</name>
            <duration>22166.1117</duration>
            <rate>
              <timebase>30</timebase>
              <ntsc>true</ntsc>
            </rate>
            <start>16624.958399999985</start>
            <end>16634.249099999986</end>
            <in>16624.958399999985</in>
            <out>16634.249099999986</out>
            <enabled>true</enabled>
            <anamorphic>false</anamorphic>
            <alphatype>black</alphatype>
            <masterclipid>Outline Text1</masterclipid>
            <effect>
              <name>Outline Text</name>
              <effectid>Outline Text</effectid>
              <effectcategory>Text</effectcategory>
              <effecttype>generator</effecttype>
              <mediatype>video</mediatype>
              <parameter>
                <parameterid>part1</parameterid>
                <name>Text Settings</name>
                <value/>
              </parameter>
              <parameter>
                <parameterid>str</parameterid>
                <name>Text</name>
                <value>やったー!</value>
              </parameter>
              <parameter>
                <parameterid>font</parameterid>
                <name>Font</name>
                <value>HiraginoSans-W6</value>
              </parameter>
              <parameter>
                <parameterid>style</parameterid>
                <name>Style</name>
                <valuemin>1</valuemin>
                <valuemax>1</valuemax>
                <valuelist>
                  <valueentry>
                    <name>Regular</name>
                    <value>1</value>
                  </valueentry>
                </valuelist>
                <value>1</value>
              </parameter>
              <parameter>
                <parameterid>align</parameterid>
                <name>Alignment</name>
                <valuemin>1</valuemin>
                <valuemax>3</valuemax>
                <valuelist>
                  <valueentry>
                    <name>Left</name>
                    <value>1</value>
                  </valueentry>
                  <valueentry>
                    <name>Center</name>
                    <value>2</value>
                  </valueentry>
                  <valueentry>
                    <name>Right</name>
                    <value>3</value>
                  </valueentry>
                </valuelist>
                <value>2</value>
              </parameter>
              <parameter>
                <parameterid>size</parameterid>
                <name>Size</name>
                <valuemin>0</valuemin>
                <valuemax>200</valuemax>
                <value>24</value>
              </parameter>
              <parameter>
                <parameterid>track</parameterid>
                <name>Tracking</name>
                <valuemin>0</valuemin>
                <valuemax>100</valuemax>
                <value>1</value>
              </parameter>
              <parameter>
                <parameterid>lead</parameterid>
                <name>Leading</name>
                <valuemin>-100</valuemin>
                <valuemax>100</valuemax>
                <value>0</value>
              </parameter>
              <parameter>
                <parameterid>aspect</parameterid>
                <name>Aspect</name>
                <valuemin>0</valuemin>
                <valuemax>4</valuemax>
                <value>1</value>
              </parameter>
              <parameter>
                <parameterid>linewidth</parameterid>
                <name>Line Width</name>
                <valuemin>0</valuemin>
                <valuemax>200</valuemax>
                <value>2</value>
              </parameter>
              <parameter>
                <parameterid>linesoft</parameterid>
                <name>Line Softness</name>
                <valuemin>0</valuemin>
                <valuemax>100</valuemax>
                <value>5</value>
              </parameter>
              <parameter>
                <parameterid>textopacity</parameterid>
                <name>Text Opacity</name>
                <valuemin>0</valuemin>
                <valuemax>100</valuemax>
                <value>100</value>
              </parameter>
              <parameter>
                <parameterid>center</parameterid>
                <name>Center</name>
                <value>
                  <horiz>0</horiz>
                  <vert>0.4703703703703703</vert>
                </value>
              </parameter>
              <parameter>
                <parameterid>textcolor</parameterid>
                <name>Text Color</name>
                <value>
                  <alpha>255</alpha>
                  <red>255</red>
                  <green>255</green>
                  <blue>255</blue>
                </value>
              </parameter>
              <parameter>
                <parameterid>supertext</parameterid>
                <name>Text Graphic</name>
              </parameter>
              <parameter>
                <parameterid>linecolor</parameterid>
                <name>Line Color</name>
                <value>
                  <alpha>255</alpha>
                  <red>0</red>
                  <green>0</green>
                  <blue>0</blue>
                </value>
              </parameter>
              <parameter>
                <parameterid>superline</parameterid>
                <name>Line Graphic</name>
              </parameter>
              <parameter>
                <parameterid>part2</parameterid>
                <name>Background Settings</name>
              </parameter>
              <parameter>
                <parameterid>xscale</parameterid>
                <name>Horizontal Size</name>
                <valuemin>0</valuemin>
                <valuemax>200</valuemax>
                <value>0</value>
              </parameter>
              <parameter>
                <parameterid>yscale</parameterid>
                <name>Vertical Size</name>
                <valuemin>0</valuemin>
                <valuemax>200</valuemax>
                <value>0</value>
              </parameter>
              <parameter>
                <parameterid>xoffset</parameterid>
                <name>Horizontal Offset</name>
                <valuemin>-100</valuemin>
                <valuemax>100</valuemax>
                <value>0</value>
              </parameter>
              <parameter>
                <parameterid>yoffset</parameterid>
                <name>Vertical Offset</name>
                <valuemin>-100</valuemin>
                <valuemax>100</valuemax>
                <value>0</value>
              </parameter>
              <parameter>
                <parameterid>backsoft</parameterid>
                <name>Back Soft</name>
                <valuemin>0</valuemin>
                <valuemax>100</valuemax>
                <value>0</value>
              </parameter>
              <parameter>
                <parameterid>backopacity</parameterid>
                <name>Back Opacity</name>
                <valuemin>0</valuemin>
                <valuemax>100</valuemax>
                <value>50</value>
              </parameter>
              <parameter>
                <parameterid>backcolor</parameterid>
                <name>Back Color</name>
                <value>
                  <alpha>255</alpha>
                  <red>255</red>
                  <green>255</green>
                  <blue>255</blue>
                </value>
              </parameter>
              <parameter>
                <parameterid>superback</parameterid>
                <name>Back Graphic</name>
              </parameter>
              <parameter>
                <parameterid>crop</parameterid>
                <name>Crop</name>
                <value>false</value>
              </parameter>
              <parameter>
                <parameterid>autokern</parameterid>
                <name>Auto Kerning</name>
                <value>true</value>
              </parameter>
            </effect>
            <sourcetrack>
              <mediatype>video</mediatype>
            </sourcetrack>
          </generatoritem>
          <generatoritem id="Outline Text1">
            <name>いちおさんでーす!</name>
            <duration>22166.1117</duration>
            <rate>
              <timebase>30</timebase>
              <ntsc>true</ntsc>
            </rate>
            <start>16634.249099999986</start>
            <end>16835.94719999998</end>
            <in>16634.249099999986</in>
            <out>16835.94719999998</out>
            <enabled>true</enabled>
            <anamorphic>false</anamorphic>
            <alphatype>black</alphatype>
            <masterclipid>Outline Text1</masterclipid>
            <effect>
              <name>Outline Text</name>
              <effectid>Outline Text</effectid>
              <effectcategory>Text</effectcategory>
              <effecttype>generator</effecttype>
              <mediatype>video</mediatype>
              <parameter>
                <parameterid>part1</parameterid>
                <name>Text Settings</name>
                <value/>
              </parameter>
              <parameter>
                <parameterid>str</parameterid>
                <name>Text</name>
                <value>いちおさんでーす!</value>
              </parameter>
              <parameter>
                <parameterid>font</parameterid>
                <name>Font</name>
                <value>HiraginoSans-W6</value>
              </parameter>
              <parameter>
                <parameterid>style</parameterid>
                <name>Style</name>
                <valuemin>1</valuemin>
                <valuemax>1</valuemax>
                <valuelist>
                  <valueentry>
                    <name>Regular</name>
                    <value>1</value>
                  </valueentry>
                </valuelist>
                <value>1</value>
              </parameter>
              <parameter>
                <parameterid>align</parameterid>
                <name>Alignment</name>
                <valuemin>1</valuemin>
                <valuemax>3</valuemax>
                <valuelist>
                  <valueentry>
                    <name>Left</name>
                    <value>1</value>
                  </valueentry>
                  <valueentry>
                    <name>Center</name>
                    <value>2</value>
                  </valueentry>
                  <valueentry>
                    <name>Right</name>
                    <value>3</value>
                  </valueentry>
                </valuelist>
                <value>2</value>
              </parameter>
              <parameter>
                <parameterid>size</parameterid>
                <name>Size</name>
                <valuemin>0</valuemin>
                <valuemax>200</valuemax>
                <value>24</value>
              </parameter>
              <parameter>
                <parameterid>track</parameterid>
                <name>Tracking</name>
                <valuemin>0</valuemin>
                <valuemax>100</valuemax>
                <value>1</value>
              </parameter>
              <parameter>
                <parameterid>lead</parameterid>
                <name>Leading</name>
                <valuemin>-100</valuemin>
                <valuemax>100</valuemax>
                <value>0</value>
              </parameter>
              <parameter>
                <parameterid>aspect</parameterid>
                <name>Aspect</name>
                <valuemin>0</valuemin>
                <valuemax>4</valuemax>
                <value>1</value>
              </parameter>
              <parameter>
                <parameterid>linewidth</parameterid>
                <name>Line Width</name>
                <valuemin>0</valuemin>
                <valuemax>200</valuemax>
                <value>2</value>
              </parameter>
              <parameter>
                <parameterid>linesoft</parameterid>
                <name>Line Softness</name>
                <valuemin>0</valuemin>
                <valuemax>100</valuemax>
                <value>5</value>
              </parameter>
              <parameter>
                <parameterid>textopacity</parameterid>
                <name>Text Opacity</name>
                <valuemin>0</valuemin>
                <valuemax>100</valuemax>
                <value>100</value>
              </parameter>
              <parameter>
                <parameterid>center</parameterid>
                <name>Center</name>
                <value>
                  <horiz>0</horiz>
                  <vert>0.4703703703703703</vert>
                </value>
              </parameter>
              <parameter>
                <parameterid>textcolor</parameterid>
                <name>Text Color</name>
                <value>
                  <alpha>255</alpha>
                  <red>255</red>
                  <green>255</green>
                  <blue>255</blue>
                </value>
              </parameter>
              <parameter>
                <parameterid>supertext</parameterid>
                <name>Text Graphic</name>
              </parameter>
              <parameter>
                <parameterid>linecolor</parameterid>
                <name>Line Color</name>
                <value>
                  <alpha>255</alpha>
                  <red>0</red>
                  <green>0</green>
                  <blue>0</blue>
                </value>
              </parameter>
              <parameter>
                <parameterid>superline</parameterid>
                <name>Line Graphic</name>
              </parameter>
              <parameter>
                <parameterid>part2</parameterid>
                <name>Background Settings</name>
              </parameter>
              <parameter>
                <parameterid>xscale</parameterid>
                <name>Horizontal Size</name>
                <valuemin>0</valuemin>
                <valuemax>200</valuemax>
                <value>0</value>
              </parameter>
              <parameter>
                <parameterid>yscale</parameterid>
                <name>Vertical Size</name>
                <valuemin>0</valuemin>
                <valuemax>200</valuemax>
                <value>0</value>
              </parameter>
              <parameter>
                <parameterid>xoffset</parameterid>
                <name>Horizontal Offset</name>
                <valuemin>-100</valuemin>
                <valuemax>100</valuemax>
                <value>0</value>
              </parameter>
              <parameter>
                <parameterid>yoffset</parameterid>
                <name>Vertical Offset</name>
                <valuemin>-100</valuemin>
                <valuemax>100</valuemax>
                <value>0</value>
              </parameter>
              <parameter>
                <parameterid>backsoft</parameterid>
                <name>Back Soft</name>
                <valuemin>0</valuemin>
                <valuemax>100</valuemax>
                <value>0</value>
              </parameter>
              <parameter>
                <parameterid>backopacity</parameterid>
                <name>Back Opacity</name>
                <valuemin>0</valuemin>
                <valuemax>100</valuemax>
                <value>50</value>
              </parameter>
              <parameter>
                <parameterid>backcolor</parameterid>
                <name>Back Color</name>
                <value>
                  <alpha>255</alpha>
                  <red>255</red>
                  <green>255</green>
                  <blue>255</blue>
                </value>
              </parameter>
              <parameter>
                <parameterid>superback</parameterid>
                <name>Back Graphic</name>
              </parameter>
              <parameter>
                <parameterid>crop</parameterid>
                <name>Crop</name>
                <value>false</value>
              </parameter>
              <parameter>
                <parameterid>autokern</parameterid>
                <name>Auto Kerning</name>
                <value>true</value>
              </parameter>
            </effect>
            <sourcetrack>
              <mediatype>video</mediatype>
            </sourcetrack>
          </generatoritem>
          <generatoritem id="Outline Text1">
            <name>ありがとうございます!</name>
            <duration>22166.1117</duration>
            <rate>
              <timebase>30</timebase>
              <ntsc>true</ntsc>
            </rate>
            <start>16835.94719999998</start>
            <end>16893.789299999982</end>
            <in>16835.94719999998</in>
            <out>16893.789299999982</out>
            <enabled>true</enabled>
            <anamorphic>false</anamorphic>
            <alphatype>black</alphatype>
            <masterclipid>Outline Text1</masterclipid>
            <effect>
              <name>Outline Text</name>
              <effectid>Outline Text</effectid>
              <effectcategory>Text</effectcategory>
              <effecttype>generator</effecttype>
              <mediatype>video</mediatype>
              <parameter>
                <parameterid>part1</parameterid>
                <name>Text Settings</name>
                <value/>
              </parameter>
              <parameter>
                <parameterid>str</parameterid>
                <name>Text</name>
                <value>ありがとうございます!</value>
              </parameter>
              <parameter>
                <parameterid>font</parameterid>
                <name>Font</name>
                <value>HiraginoSans-W6</value>
              </parameter>
              <parameter>
                <parameterid>style</parameterid>
                <name>Style</name>
                <valuemin>1</valuemin>
                <valuemax>1</valuemax>
                <valuelist>
                  <valueentry>
                    <name>Regular</name>
                    <value>1</value>
                  </valueentry>
                </valuelist>
                <value>1</value>
              </parameter>
              <parameter>
                <parameterid>align</parameterid>
                <name>Alignment</name>
                <valuemin>1</valuemin>
                <valuemax>3</valuemax>
                <valuelist>
                  <valueentry>
                    <name>Left</name>
                    <value>1</value>
                  </valueentry>
                  <valueentry>
                    <name>Center</name>
                    <value>2</value>
                  </valueentry>
                  <valueentry>
                    <name>Right</name>
                    <value>3</value>
                  </valueentry>
                </valuelist>
                <value>2</value>
              </parameter>
              <parameter>
                <parameterid>size</parameterid>
                <name>Size</name>
                <valuemin>0</valuemin>
                <valuemax>200</valuemax>
                <value>24</value>
              </parameter>
              <parameter>
                <parameterid>track</parameterid>
                <name>Tracking</name>
                <valuemin>0</valuemin>
                <valuemax>100</valuemax>
                <value>1</value>
              </parameter>
              <parameter>
                <parameterid>lead</parameterid>
                <name>Leading</name>
                <valuemin>-100</valuemin>
                <valuemax>100</valuemax>
                <value>0</value>
              </parameter>
              <parameter>
                <parameterid>aspect</parameterid>
                <name>Aspect</name>
                <valuemin>0</valuemin>
                <valuemax>4</valuemax>
                <value>1</value>
              </parameter>
              <parameter>
                <parameterid>linewidth</parameterid>
                <name>Line Width</name>
                <valuemin>0</valuemin>
                <valuemax>200</valuemax>
                <value>2</value>
              </parameter>
              <parameter>
                <parameterid>linesoft</parameterid>
                <name>Line Softness</name>
                <valuemin>0</valuemin>
                <valuemax>100</valuemax>
                <value>5</value>
              </parameter>
              <parameter>
                <parameterid>textopacity</parameterid>
                <name>Text Opacity</name>
                <valuemin>0</valuemin>
                <valuemax>100</valuemax>
                <value>100</value>
              </parameter>
              <parameter>
                <parameterid>center</parameterid>
                <name>Center</name>
                <value>
                  <horiz>0</horiz>
                  <vert>0.4703703703703703</vert>
                </value>
              </parameter>
              <parameter>
                <parameterid>textcolor</parameterid>
                <name>Text Color</name>
                <value>
                  <alpha>255</alpha>
                  <red>255</red>
                  <green>255</green>
                  <blue>255</blue>
                </value>
              </parameter>
              <parameter>
                <parameterid>supertext</parameterid>
                <name>Text Graphic</name>
              </parameter>
              <parameter>
                <parameterid>linecolor</parameterid>
                <name>Line Color</name>
                <value>
                  <alpha>255</alpha>
                  <red>0</red>
                  <green>0</green>
                  <blue>0</blue>
                </value>
              </parameter>
              <parameter>
                <parameterid>superline</parameterid>
                <name>Line Graphic</name>
              </parameter>
              <parameter>
                <parameterid>part2</parameterid>
                <name>Background Settings</name>
              </parameter>
              <parameter>
                <parameterid>xscale</parameterid>
                <name>Horizontal Size</name>
                <valuemin>0</valuemin>
                <valuemax>200</valuemax>
                <value>0</value>
              </parameter>
              <parameter>
                <parameterid>yscale</parameterid>
                <name>Vertical Size</name>
                <valuemin>0</valuemin>
                <valuemax>200</valuemax>
                <value>0</value>
              </parameter>
              <parameter>
                <parameterid>xoffset</parameterid>
                <name>Horizontal Offset</name>
                <valuemin>-100</valuemin>
                <valuemax>100</valuemax>
                <value>0</value>
              </parameter>
              <parameter>
                <parameterid>yoffset</parameterid>
                <name>Vertical Offset</name>
                <valuemin>-100</valuemin>
                <valuemax>100</valuemax>
                <value>0</value>
              </parameter>
              <parameter>
                <parameterid>backsoft</parameterid>
                <name>Back Soft</name>
                <valuemin>0</valuemin>
                <valuemax>100</valuemax>
                <value>0</value>
              </parameter>
              <parameter>
                <parameterid>backopacity</parameterid>
                <name>Back Opacity</name>
                <valuemin>0</valuemin>
                <valuemax>100</valuemax>
                <value>50</value>
              </parameter>
              <parameter>
                <parameterid>backcolor</parameterid>
                <name>Back Color</name>
                <value>
                  <alpha>255</alpha>
                  <red>255</red>
                  <green>255</green>
                  <blue>255</blue>
                </value>
              </parameter>
              <parameter>
                <parameterid>superback</parameterid>
                <name>Back Graphic</name>
              </parameter>
              <parameter>
                <parameterid>crop</parameterid>
                <name>Crop</name>
                <value>false</value>
              </parameter>
              <parameter>
                <parameterid>autokern</parameterid>
                <name>Auto Kerning</name>
                <value>true</value>
              </parameter>
            </effect>
            <sourcetrack>
              <mediatype>video</mediatype>
            </sourcetrack>
          </generatoritem>
          <generatoritem id="Outline Text1">
            <name>見てー!</name>
            <duration>22166.1117</duration>
            <rate>
              <timebase>30</timebase>
              <ntsc>true</ntsc>
            </rate>
            <start>16893.789299999982</start>
            <end>16960.322699999982</end>
            <in>16893.789299999982</in>
            <out>16960.322699999982</out>
            <enabled>true</enabled>
            <anamorphic>false</anamorphic>
            <alphatype>black</alphatype>
            <masterclipid>Outline Text1</masterclipid>
            <effect>
              <name>Outline Text</name>
              <effectid>Outline Text</effectid>
              <effectcategory>Text</effectcategory>
              <effecttype>generator</effecttype>
              <mediatype>video</mediatype>
              <parameter>
                <parameterid>part1</parameterid>
                <name>Text Settings</name>
                <value/>
              </parameter>
              <parameter>
                <parameterid>str</parameterid>
                <name>Text</name>
                <value>見てー!</value>
              </parameter>
              <parameter>
                <parameterid>font</parameterid>
                <name>Font</name>
                <value>HiraginoSans-W6</value>
              </parameter>
              <parameter>
                <parameterid>style</parameterid>
                <name>Style</name>
                <valuemin>1</valuemin>
                <valuemax>1</valuemax>
                <valuelist>
                  <valueentry>
                    <name>Regular</name>
                    <value>1</value>
                  </valueentry>
                </valuelist>
                <value>1</value>
              </parameter>
              <parameter>
                <parameterid>align</parameterid>
                <name>Alignment</name>
                <valuemin>1</valuemin>
                <valuemax>3</valuemax>
                <valuelist>
                  <valueentry>
                    <name>Left</name>
                    <value>1</value>
                  </valueentry>
                  <valueentry>
                    <name>Center</name>
                    <value>2</value>
                  </valueentry>
                  <valueentry>
                    <name>Right</name>
                    <value>3</value>
                  </valueentry>
                </valuelist>
                <value>2</value>
              </parameter>
              <parameter>
                <parameterid>size</parameterid>
                <name>Size</name>
                <valuemin>0</valuemin>
                <valuemax>200</valuemax>
                <value>24</value>
              </parameter>
              <parameter>
                <parameterid>track</parameterid>
                <name>Tracking</name>
                <valuemin>0</valuemin>
                <valuemax>100</valuemax>
                <value>1</value>
              </parameter>
              <parameter>
                <parameterid>lead</parameterid>
                <name>Leading</name>
                <valuemin>-100</valuemin>
                <valuemax>100</valuemax>
                <value>0</value>
              </parameter>
              <parameter>
                <parameterid>aspect</parameterid>
                <name>Aspect</name>
                <valuemin>0</valuemin>
                <valuemax>4</valuemax>
                <value>1</value>
              </parameter>
              <parameter>
                <parameterid>linewidth</parameterid>
                <name>Line Width</name>
                <valuemin>0</valuemin>
                <valuemax>200</valuemax>
                <value>2</value>
              </parameter>
              <parameter>
                <parameterid>linesoft</parameterid>
                <name>Line Softness</name>
                <valuemin>0</valuemin>
                <valuemax>100</valuemax>
                <value>5</value>
              </parameter>
              <parameter>
                <parameterid>textopacity</parameterid>
                <name>Text Opacity</name>
                <valuemin>0</valuemin>
                <valuemax>100</valuemax>
                <value>100</value>
              </parameter>
              <parameter>
                <parameterid>center</parameterid>
                <name>Center</name>
                <value>
                  <horiz>0</horiz>
                  <vert>0.4703703703703703</vert>
                </value>
              </parameter>
              <parameter>
                <parameterid>textcolor</parameterid>
                <name>Text Color</name>
                <value>
                  <alpha>255</alpha>
                  <red>255</red>
                  <green>255</green>
                  <blue>255</blue>
                </value>
              </parameter>
              <parameter>
                <parameterid>supertext</parameterid>
                <name>Text Graphic</name>
              </parameter>
              <parameter>
                <parameterid>linecolor</parameterid>
                <name>Line Color</name>
                <value>
                  <alpha>255</alpha>
                  <red>0</red>
                  <green>0</green>
                  <blue>0</blue>
                </value>
              </parameter>
              <parameter>
                <parameterid>superline</parameterid>
                <name>Line Graphic</name>
              </parameter>
              <parameter>
                <parameterid>part2</parameterid>
                <name>Background Settings</name>
              </parameter>
              <parameter>
                <parameterid>xscale</parameterid>
                <name>Horizontal Size</name>
                <valuemin>0</valuemin>
                <valuemax>200</valuemax>
                <value>0</value>
              </parameter>
              <parameter>
                <parameterid>yscale</parameterid>
                <name>Vertical Size</name>
                <valuemin>0</valuemin>
                <valuemax>200</valuemax>
                <value>0</value>
              </parameter>
              <parameter>
                <parameterid>xoffset</parameterid>
                <name>Horizontal Offset</name>
                <valuemin>-100</valuemin>
                <valuemax>100</valuemax>
                <value>0</value>
              </parameter>
              <parameter>
                <parameterid>yoffset</parameterid>
                <name>Vertical Offset</name>
                <valuemin>-100</valuemin>
                <valuemax>100</valuemax>
                <value>0</value>
              </parameter>
              <parameter>
                <parameterid>backsoft</parameterid>
                <name>Back Soft</name>
                <valuemin>0</valuemin>
                <valuemax>100</valuemax>
                <value>0</value>
              </parameter>
              <parameter>
                <parameterid>backopacity</parameterid>
                <name>Back Opacity</name>
                <valuemin>0</valuemin>
                <valuemax>100</valuemax>
                <value>50</value>
              </parameter>
              <parameter>
                <parameterid>backcolor</parameterid>
                <name>Back Color</name>
                <value>
                  <alpha>255</alpha>
                  <red>255</red>
                  <green>255</green>
                  <blue>255</blue>
                </value>
              </parameter>
              <parameter>
                <parameterid>superback</parameterid>
                <name>Back Graphic</name>
              </parameter>
              <parameter>
                <parameterid>crop</parameterid>
                <name>Crop</name>
                <value>false</value>
              </parameter>
              <parameter>
                <parameterid>autokern</parameterid>
                <name>Auto Kerning</name>
                <value>true</value>
              </parameter>
            </effect>
            <sourcetrack>
              <mediatype>video</mediatype>
            </sourcetrack>
          </generatoritem>
          <generatoritem id="Outline Text1">
            <name>じゃじゃーん!</name>
            <duration>22166.1117</duration>
            <rate>
              <timebase>30</timebase>
              <ntsc>true</ntsc>
            </rate>
            <start>16960.322699999982</start>
            <end>16992.09089999998</end>
            <in>16960.322699999982</in>
            <out>16992.09089999998</out>
            <enabled>true</enabled>
            <anamorphic>false</anamorphic>
            <alphatype>black</alphatype>
            <masterclipid>Outline Text1</masterclipid>
            <effect>
              <name>Outline Text</name>
              <effectid>Outline Text</effectid>
              <effectcategory>Text</effectcategory>
              <effecttype>generator</effecttype>
              <mediatype>video</mediatype>
              <parameter>
                <parameterid>part1</parameterid>
                <name>Text Settings</name>
                <value/>
              </parameter>
              <parameter>
                <parameterid>str</parameterid>
                <name>Text</name>
                <value>じゃじゃーん!</value>
              </parameter>
              <parameter>
                <parameterid>font</parameterid>
                <name>Font</name>
                <value>HiraginoSans-W6</value>
              </parameter>
              <parameter>
                <parameterid>style</parameterid>
                <name>Style</name>
                <valuemin>1</valuemin>
                <valuemax>1</valuemax>
                <valuelist>
                  <valueentry>
                    <name>Regular</name>
                    <value>1</value>
                  </valueentry>
                </valuelist>
                <value>1</value>
              </parameter>
              <parameter>
                <parameterid>align</parameterid>
                <name>Alignment</name>
                <valuemin>1</valuemin>
                <valuemax>3</valuemax>
                <valuelist>
                  <valueentry>
                    <name>Left</name>
                    <value>1</value>
                  </valueentry>
                  <valueentry>
                    <name>Center</name>
                    <value>2</value>
                  </valueentry>
                  <valueentry>
                    <name>Right</name>
                    <value>3</value>
                  </valueentry>
                </valuelist>
                <value>2</value>
              </parameter>
              <parameter>
                <parameterid>size</parameterid>
                <name>Size</name>
                <valuemin>0</valuemin>
                <valuemax>200</valuemax>
                <value>24</value>
              </parameter>
              <parameter>
                <parameterid>track</parameterid>
                <name>Tracking</name>
                <valuemin>0</valuemin>
                <valuemax>100</valuemax>
                <value>1</value>
              </parameter>
              <parameter>
                <parameterid>lead</parameterid>
                <name>Leading</name>
                <valuemin>-100</valuemin>
                <valuemax>100</valuemax>
                <value>0</value>
              </parameter>
              <parameter>
                <parameterid>aspect</parameterid>
                <name>Aspect</name>
                <valuemin>0</valuemin>
                <valuemax>4</valuemax>
                <value>1</value>
              </parameter>
              <parameter>
                <parameterid>linewidth</parameterid>
                <name>Line Width</name>
                <valuemin>0</valuemin>
                <valuemax>200</valuemax>
                <value>2</value>
              </parameter>
              <parameter>
                <parameterid>linesoft</parameterid>
                <name>Line Softness</name>
                <valuemin>0</valuemin>
                <valuemax>100</valuemax>
                <value>5</value>
              </parameter>
              <parameter>
                <parameterid>textopacity</parameterid>
                <name>Text Opacity</name>
                <valuemin>0</valuemin>
                <valuemax>100</valuemax>
                <value>100</value>
              </parameter>
              <parameter>
                <parameterid>center</parameterid>
                <name>Center</name>
                <value>
                  <horiz>0</horiz>
                  <vert>0.4703703703703703</vert>
                </value>
              </parameter>
              <parameter>
                <parameterid>textcolor</parameterid>
                <name>Text Color</name>
                <value>
                  <alpha>255</alpha>
                  <red>255</red>
                  <green>255</green>
                  <blue>255</blue>
                </value>
              </parameter>
              <parameter>
                <parameterid>supertext</parameterid>
                <name>Text Graphic</name>
              </parameter>
              <parameter>
                <parameterid>linecolor</parameterid>
                <name>Line Color</name>
                <value>
                  <alpha>255</alpha>
                  <red>0</red>
                  <green>0</green>
                  <blue>0</blue>
                </value>
              </parameter>
              <parameter>
                <parameterid>superline</parameterid>
                <name>Line Graphic</name>
              </parameter>
              <parameter>
                <parameterid>part2</parameterid>
                <name>Background Settings</name>
              </parameter>
              <parameter>
                <parameterid>xscale</parameterid>
                <name>Horizontal Size</name>
                <valuemin>0</valuemin>
                <valuemax>200</valuemax>
                <value>0</value>
              </parameter>
              <parameter>
                <parameterid>yscale</parameterid>
                <name>Vertical Size</name>
                <valuemin>0</valuemin>
                <valuemax>200</valuemax>
                <value>0</value>
              </parameter>
              <parameter>
                <parameterid>xoffset</parameterid>
                <name>Horizontal Offset</name>
                <valuemin>-100</valuemin>
                <valuemax>100</valuemax>
                <value>0</value>
              </parameter>
              <parameter>
                <parameterid>yoffset</parameterid>
                <name>Vertical Offset</name>
                <valuemin>-100</valuemin>
                <valuemax>100</valuemax>
                <value>0</value>
              </parameter>
              <parameter>
                <parameterid>backsoft</parameterid>
                <name>Back Soft</name>
                <valuemin>0</valuemin>
                <valuemax>100</valuemax>
                <value>0</value>
              </parameter>
              <parameter>
                <parameterid>backopacity</parameterid>
                <name>Back Opacity</name>
                <valuemin>0</valuemin>
                <valuemax>100</valuemax>
                <value>50</value>
              </parameter>
              <parameter>
                <parameterid>backcolor</parameterid>
                <name>Back Color</name>
                <value>
                  <alpha>255</alpha>
                  <red>255</red>
                  <green>255</green>
                  <blue>255</blue>
                </value>
              </parameter>
              <parameter>
                <parameterid>superback</parameterid>
                <name>Back Graphic</name>
              </parameter>
              <parameter>
                <parameterid>crop</parameterid>
                <name>Crop</name>
                <value>false</value>
              </parameter>
              <parameter>
                <parameterid>autokern</parameterid>
                <name>Auto Kerning</name>
                <value>true</value>
              </parameter>
            </effect>
            <sourcetrack>
              <mediatype>video</mediatype>
            </sourcetrack>
          </generatoritem>
          <generatoritem id="Outline Text1">
            <name>すごーい!</name>
            <duration>22166.1117</duration>
            <rate>
              <timebase>30</timebase>
              <ntsc>true</ntsc>
            </rate>
            <start>16992.09089999998</start>
            <end>17022.660299999978</end>
            <in>16992.09089999998</in>
            <out>17022.660299999978</out>
            <enabled>true</enabled>
            <anamorphic>false</anamorphic>
            <alphatype>black</alphatype>
            <masterclipid>Outline Text1</masterclipid>
            <effect>
              <name>Outline Text</name>
              <effectid>Outline Text</effectid>
              <effectcategory>Text</effectcategory>
              <effecttype>generator</effecttype>
              <mediatype>video</mediatype>
              <parameter>
                <parameterid>part1</parameterid>
                <name>Text Settings</name>
                <value/>
              </parameter>
              <parameter>
                <parameterid>str</parameterid>
                <name>Text</name>
                <value>すごーい!</value>
              </parameter>
              <parameter>
                <parameterid>font</parameterid>
                <name>Font</name>
                <value>HiraginoSans-W6</value>
              </parameter>
              <parameter>
                <parameterid>style</parameterid>
                <name>Style</name>
                <valuemin>1</valuemin>
                <valuemax>1</valuemax>
                <valuelist>
                  <valueentry>
                    <name>Regular</name>
                    <value>1</value>
                  </valueentry>
                </valuelist>
                <value>1</value>
              </parameter>
              <parameter>
                <parameterid>align</parameterid>
                <name>Alignment</name>
                <valuemin>1</valuemin>
                <valuemax>3</valuemax>
                <valuelist>
                  <valueentry>
                    <name>Left</name>
                    <value>1</value>
                  </valueentry>
                  <valueentry>
                    <name>Center</name>
                    <value>2</value>
                  </valueentry>
                  <valueentry>
                    <name>Right</name>
                    <value>3</value>
                  </valueentry>
                </valuelist>
                <value>2</value>
              </parameter>
              <parameter>
                <parameterid>size</parameterid>
                <name>Size</name>
                <valuemin>0</valuemin>
                <valuemax>200</valuemax>
                <value>24</value>
              </parameter>
              <parameter>
                <parameterid>track</parameterid>
                <name>Tracking</name>
                <valuemin>0</valuemin>
                <valuemax>100</valuemax>
                <value>1</value>
              </parameter>
              <parameter>
                <parameterid>lead</parameterid>
                <name>Leading</name>
                <valuemin>-100</valuemin>
                <valuemax>100</valuemax>
                <value>0</value>
              </parameter>
              <parameter>
                <parameterid>aspect</parameterid>
                <name>Aspect</name>
                <valuemin>0</valuemin>
                <valuemax>4</valuemax>
                <value>1</value>
              </parameter>
              <parameter>
                <parameterid>linewidth</parameterid>
                <name>Line Width</name>
                <valuemin>0</valuemin>
                <valuemax>200</valuemax>
                <value>2</value>
              </parameter>
              <parameter>
                <parameterid>linesoft</parameterid>
                <name>Line Softness</name>
                <valuemin>0</valuemin>
                <valuemax>100</valuemax>
                <value>5</value>
              </parameter>
              <parameter>
                <parameterid>textopacity</parameterid>
                <name>Text Opacity</name>
                <valuemin>0</valuemin>
                <valuemax>100</valuemax>
                <value>100</value>
              </parameter>
              <parameter>
                <parameterid>center</parameterid>
                <name>Center</name>
                <value>
                  <horiz>0</horiz>
                  <vert>0.4703703703703703</vert>
                </value>
              </parameter>
              <parameter>
                <parameterid>textcolor</parameterid>
                <name>Text Color</name>
                <value>
                  <alpha>255</alpha>
                  <red>255</red>
                  <green>255</green>
                  <blue>255</blue>
                </value>
              </parameter>
              <parameter>
                <parameterid>supertext</parameterid>
                <name>Text Graphic</name>
              </parameter>
              <parameter>
                <parameterid>linecolor</parameterid>
                <name>Line Color</name>
                <value>
                  <alpha>255</alpha>
                  <red>0</red>
                  <green>0</green>
                  <blue>0</blue>
                </value>
              </parameter>
              <parameter>
                <parameterid>superline</parameterid>
                <name>Line Graphic</name>
              </parameter>
              <parameter>
                <parameterid>part2</parameterid>
                <name>Background Settings</name>
              </parameter>
              <parameter>
                <parameterid>xscale</parameterid>
                <name>Horizontal Size</name>
                <valuemin>0</valuemin>
                <valuemax>200</valuemax>
                <value>0</value>
              </parameter>
              <parameter>
                <parameterid>yscale</parameterid>
                <name>Vertical Size</name>
                <valuemin>0</valuemin>
                <valuemax>200</valuemax>
                <value>0</value>
              </parameter>
              <parameter>
                <parameterid>xoffset</parameterid>
                <name>Horizontal Offset</name>
                <valuemin>-100</valuemin>
                <valuemax>100</valuemax>
                <value>0</value>
              </parameter>
              <parameter>
                <parameterid>yoffset</parameterid>
                <name>Vertical Offset</name>
                <valuemin>-100</valuemin>
                <valuemax>100</valuemax>
                <value>0</value>
              </parameter>
              <parameter>
                <parameterid>backsoft</parameterid>
                <name>Back Soft</name>
                <valuemin>0</valuemin>
                <valuemax>100</valuemax>
                <value>0</value>
              </parameter>
              <parameter>
                <parameterid>backopacity</parameterid>
                <name>Back Opacity</name>
                <valuemin>0</valuemin>
                <valuemax>100</valuemax>
                <value>50</value>
              </parameter>
              <parameter>
                <parameterid>backcolor</parameterid>
                <name>Back Color</name>
                <value>
                  <alpha>255</alpha>
                  <red>255</red>
                  <green>255</green>
                  <blue>255</blue>
                </value>
              </parameter>
              <parameter>
                <parameterid>superback</parameterid>
                <name>Back Graphic</name>
              </parameter>
              <parameter>
                <parameterid>crop</parameterid>
                <name>Crop</name>
                <value>false</value>
              </parameter>
              <parameter>
                <parameterid>autokern</parameterid>
                <name>Auto Kerning</name>
                <value>true</value>
              </parameter>
            </effect>
            <sourcetrack>
              <mediatype>video</mediatype>
            </sourcetrack>
          </generatoritem>
          <generatoritem id="Outline Text1">
            <name>すごいぎっしり入ってる!ね!</name>
            <duration>22166.1117</duration>
            <rate>
              <timebase>30</timebase>
              <ntsc>true</ntsc>
            </rate>
            <start>17022.660299999978</start>
            <end>17064.31859999998</end>
            <in>17022.660299999978</in>
            <out>17064.31859999998</out>
            <enabled>true</enabled>
            <anamorphic>false</anamorphic>
            <alphatype>black</alphatype>
            <masterclipid>Outline Text1</masterclipid>
            <effect>
              <name>Outline Text</name>
              <effectid>Outline Text</effectid>
              <effectcategory>Text</effectcategory>
              <effecttype>generator</effecttype>
              <mediatype>video</mediatype>
              <parameter>
                <parameterid>part1</parameterid>
                <name>Text Settings</name>
                <value/>
              </parameter>
              <parameter>
                <parameterid>str</parameterid>
                <name>Text</name>
                <value>すごいぎっしり入ってる!ね!</value>
              </parameter>
              <parameter>
                <parameterid>font</parameterid>
                <name>Font</name>
                <value>HiraginoSans-W6</value>
              </parameter>
              <parameter>
                <parameterid>style</parameterid>
                <name>Style</name>
                <valuemin>1</valuemin>
                <valuemax>1</valuemax>
                <valuelist>
                  <valueentry>
                    <name>Regular</name>
                    <value>1</value>
                  </valueentry>
                </valuelist>
                <value>1</value>
              </parameter>
              <parameter>
                <parameterid>align</parameterid>
                <name>Alignment</name>
                <valuemin>1</valuemin>
                <valuemax>3</valuemax>
                <valuelist>
                  <valueentry>
                    <name>Left</name>
                    <value>1</value>
                  </valueentry>
                  <valueentry>
                    <name>Center</name>
                    <value>2</value>
                  </valueentry>
                  <valueentry>
                    <name>Right</name>
                    <value>3</value>
                  </valueentry>
                </valuelist>
                <value>2</value>
              </parameter>
              <parameter>
                <parameterid>size</parameterid>
                <name>Size</name>
                <valuemin>0</valuemin>
                <valuemax>200</valuemax>
                <value>24</value>
              </parameter>
              <parameter>
                <parameterid>track</parameterid>
                <name>Tracking</name>
                <valuemin>0</valuemin>
                <valuemax>100</valuemax>
                <value>1</value>
              </parameter>
              <parameter>
                <parameterid>lead</parameterid>
                <name>Leading</name>
                <valuemin>-100</valuemin>
                <valuemax>100</valuemax>
                <value>0</value>
              </parameter>
              <parameter>
                <parameterid>aspect</parameterid>
                <name>Aspect</name>
                <valuemin>0</valuemin>
                <valuemax>4</valuemax>
                <value>1</value>
              </parameter>
              <parameter>
                <parameterid>linewidth</parameterid>
                <name>Line Width</name>
                <valuemin>0</valuemin>
                <valuemax>200</valuemax>
                <value>2</value>
              </parameter>
              <parameter>
                <parameterid>linesoft</parameterid>
                <name>Line Softness</name>
                <valuemin>0</valuemin>
                <valuemax>100</valuemax>
                <value>5</value>
              </parameter>
              <parameter>
                <parameterid>textopacity</parameterid>
                <name>Text Opacity</name>
                <valuemin>0</valuemin>
                <valuemax>100</valuemax>
                <value>100</value>
              </parameter>
              <parameter>
                <parameterid>center</parameterid>
                <name>Center</name>
                <value>
                  <horiz>0</horiz>
                  <vert>0.4703703703703703</vert>
                </value>
              </parameter>
              <parameter>
                <parameterid>textcolor</parameterid>
                <name>Text Color</name>
                <value>
                  <alpha>255</alpha>
                  <red>255</red>
                  <green>255</green>
                  <blue>255</blue>
                </value>
              </parameter>
              <parameter>
                <parameterid>supertext</parameterid>
                <name>Text Graphic</name>
              </parameter>
              <parameter>
                <parameterid>linecolor</parameterid>
                <name>Line Color</name>
                <value>
                  <alpha>255</alpha>
                  <red>0</red>
                  <green>0</green>
                  <blue>0</blue>
                </value>
              </parameter>
              <parameter>
                <parameterid>superline</parameterid>
                <name>Line Graphic</name>
              </parameter>
              <parameter>
                <parameterid>part2</parameterid>
                <name>Background Settings</name>
              </parameter>
              <parameter>
                <parameterid>xscale</parameterid>
                <name>Horizontal Size</name>
                <valuemin>0</valuemin>
                <valuemax>200</valuemax>
                <value>0</value>
              </parameter>
              <parameter>
                <parameterid>yscale</parameterid>
                <name>Vertical Size</name>
                <valuemin>0</valuemin>
                <valuemax>200</valuemax>
                <value>0</value>
              </parameter>
              <parameter>
                <parameterid>xoffset</parameterid>
                <name>Horizontal Offset</name>
                <valuemin>-100</valuemin>
                <valuemax>100</valuemax>
                <value>0</value>
              </parameter>
              <parameter>
                <parameterid>yoffset</parameterid>
                <name>Vertical Offset</name>
                <valuemin>-100</valuemin>
                <valuemax>100</valuemax>
                <value>0</value>
              </parameter>
              <parameter>
                <parameterid>backsoft</parameterid>
                <name>Back Soft</name>
                <valuemin>0</valuemin>
                <valuemax>100</valuemax>
                <value>0</value>
              </parameter>
              <parameter>
                <parameterid>backopacity</parameterid>
                <name>Back Opacity</name>
                <valuemin>0</valuemin>
                <valuemax>100</valuemax>
                <value>50</value>
              </parameter>
              <parameter>
                <parameterid>backcolor</parameterid>
                <name>Back Color</name>
                <value>
                  <alpha>255</alpha>
                  <red>255</red>
                  <green>255</green>
                  <blue>255</blue>
                </value>
              </parameter>
              <parameter>
                <parameterid>superback</parameterid>
                <name>Back Graphic</name>
              </parameter>
              <parameter>
                <parameterid>crop</parameterid>
                <name>Crop</name>
                <value>false</value>
              </parameter>
              <parameter>
                <parameterid>autokern</parameterid>
                <name>Auto Kerning</name>
                <value>true</value>
              </parameter>
            </effect>
            <sourcetrack>
              <mediatype>video</mediatype>
            </sourcetrack>
          </generatoritem>
          <generatoritem id="Outline Text1">
            <name>触ってもいい?</name>
            <duration>22166.1117</duration>
            <rate>
              <timebase>30</timebase>
              <ntsc>true</ntsc>
            </rate>
            <start>17064.31859999998</start>
            <end>17090.991899999975</end>
            <in>17064.31859999998</in>
            <out>17090.991899999975</out>
            <enabled>true</enabled>
            <anamorphic>false</anamorphic>
            <alphatype>black</alphatype>
            <masterclipid>Outline Text1</masterclipid>
            <effect>
              <name>Outline Text</name>
              <effectid>Outline Text</effectid>
              <effectcategory>Text</effectcategory>
              <effecttype>generator</effecttype>
              <mediatype>video</mediatype>
              <parameter>
                <parameterid>part1</parameterid>
                <name>Text Settings</name>
                <value/>
              </parameter>
              <parameter>
                <parameterid>str</parameterid>
                <name>Text</name>
                <value>触ってもいい?</value>
              </parameter>
              <parameter>
                <parameterid>font</parameterid>
                <name>Font</name>
                <value>HiraginoSans-W6</value>
              </parameter>
              <parameter>
                <parameterid>style</parameterid>
                <name>Style</name>
                <valuemin>1</valuemin>
                <valuemax>1</valuemax>
                <valuelist>
                  <valueentry>
                    <name>Regular</name>
                    <value>1</value>
                  </valueentry>
                </valuelist>
                <value>1</value>
              </parameter>
              <parameter>
                <parameterid>align</parameterid>
                <name>Alignment</name>
                <valuemin>1</valuemin>
                <valuemax>3</valuemax>
                <valuelist>
                  <valueentry>
                    <name>Left</name>
                    <value>1</value>
                  </valueentry>
                  <valueentry>
                    <name>Center</name>
                    <value>2</value>
                  </valueentry>
                  <valueentry>
                    <name>Right</name>
                    <value>3</value>
                  </valueentry>
                </valuelist>
                <value>2</value>
              </parameter>
              <parameter>
                <parameterid>size</parameterid>
                <name>Size</name>
                <valuemin>0</valuemin>
                <valuemax>200</valuemax>
                <value>24</value>
              </parameter>
              <parameter>
                <parameterid>track</parameterid>
                <name>Tracking</name>
                <valuemin>0</valuemin>
                <valuemax>100</valuemax>
                <value>1</value>
              </parameter>
              <parameter>
                <parameterid>lead</parameterid>
                <name>Leading</name>
                <valuemin>-100</valuemin>
                <valuemax>100</valuemax>
                <value>0</value>
              </parameter>
              <parameter>
                <parameterid>aspect</parameterid>
                <name>Aspect</name>
                <valuemin>0</valuemin>
                <valuemax>4</valuemax>
                <value>1</value>
              </parameter>
              <parameter>
                <parameterid>linewidth</parameterid>
                <name>Line Width</name>
                <valuemin>0</valuemin>
                <valuemax>200</valuemax>
                <value>2</value>
              </parameter>
              <parameter>
                <parameterid>linesoft</parameterid>
                <name>Line Softness</name>
                <valuemin>0</valuemin>
                <valuemax>100</valuemax>
                <value>5</value>
              </parameter>
              <parameter>
                <parameterid>textopacity</parameterid>
                <name>Text Opacity</name>
                <valuemin>0</valuemin>
                <valuemax>100</valuemax>
                <value>100</value>
              </parameter>
              <parameter>
                <parameterid>center</parameterid>
                <name>Center</name>
                <value>
                  <horiz>0</horiz>
                  <vert>0.4703703703703703</vert>
                </value>
              </parameter>
              <parameter>
                <parameterid>textcolor</parameterid>
                <name>Text Color</name>
                <value>
                  <alpha>255</alpha>
                  <red>255</red>
                  <green>255</green>
                  <blue>255</blue>
                </value>
              </parameter>
              <parameter>
                <parameterid>supertext</parameterid>
                <name>Text Graphic</name>
              </parameter>
              <parameter>
                <parameterid>linecolor</parameterid>
                <name>Line Color</name>
                <value>
                  <alpha>255</alpha>
                  <red>0</red>
                  <green>0</green>
                  <blue>0</blue>
                </value>
              </parameter>
              <parameter>
                <parameterid>superline</parameterid>
                <name>Line Graphic</name>
              </parameter>
              <parameter>
                <parameterid>part2</parameterid>
                <name>Background Settings</name>
              </parameter>
              <parameter>
                <parameterid>xscale</parameterid>
                <name>Horizontal Size</name>
                <valuemin>0</valuemin>
                <valuemax>200</valuemax>
                <value>0</value>
              </parameter>
              <parameter>
                <parameterid>yscale</parameterid>
                <name>Vertical Size</name>
                <valuemin>0</valuemin>
                <valuemax>200</valuemax>
                <value>0</value>
              </parameter>
              <parameter>
                <parameterid>xoffset</parameterid>
                <name>Horizontal Offset</name>
                <valuemin>-100</valuemin>
                <valuemax>100</valuemax>
                <value>0</value>
              </parameter>
              <parameter>
                <parameterid>yoffset</parameterid>
                <name>Vertical Offset</name>
                <valuemin>-100</valuemin>
                <valuemax>100</valuemax>
                <value>0</value>
              </parameter>
              <parameter>
                <parameterid>backsoft</parameterid>
                <name>Back Soft</name>
                <valuemin>0</valuemin>
                <valuemax>100</valuemax>
                <value>0</value>
              </parameter>
              <parameter>
                <parameterid>backopacity</parameterid>
                <name>Back Opacity</name>
                <valuemin>0</valuemin>
                <valuemax>100</valuemax>
                <value>50</value>
              </parameter>
              <parameter>
                <parameterid>backcolor</parameterid>
                <name>Back Color</name>
                <value>
                  <alpha>255</alpha>
                  <red>255</red>
                  <green>255</green>
                  <blue>255</blue>
                </value>
              </parameter>
              <parameter>
                <parameterid>superback</parameterid>
                <name>Back Graphic</name>
              </parameter>
              <parameter>
                <parameterid>crop</parameterid>
                <name>Crop</name>
                <value>false</value>
              </parameter>
              <parameter>
                <parameterid>autokern</parameterid>
                <name>Auto Kerning</name>
                <value>true</value>
              </parameter>
            </effect>
            <sourcetrack>
              <mediatype>video</mediatype>
            </sourcetrack>
          </generatoritem>
          <generatoritem id="Outline Text1">
            <name>これはあんず大福!</name>
            <duration>22166.1117</duration>
            <rate>
              <timebase>30</timebase>
              <ntsc>true</ntsc>
            </rate>
            <start>17090.991899999975</start>
            <end>17184.79799999997</end>
            <in>17090.991899999975</in>
            <out>17184.79799999997</out>
            <enabled>true</enabled>
            <anamorphic>false</anamorphic>
            <alphatype>black</alphatype>
            <masterclipid>Outline Text1</masterclipid>
            <effect>
              <name>Outline Text</name>
              <effectid>Outline Text</effectid>
              <effectcategory>Text</effectcategory>
              <effecttype>generator</effecttype>
              <mediatype>video</mediatype>
              <parameter>
                <parameterid>part1</parameterid>
                <name>Text Settings</name>
                <value/>
              </parameter>
              <parameter>
                <parameterid>str</parameterid>
                <name>Text</name>
                <value>これはあんず大福!</value>
              </parameter>
              <parameter>
                <parameterid>font</parameterid>
                <name>Font</name>
                <value>HiraginoSans-W6</value>
              </parameter>
              <parameter>
                <parameterid>style</parameterid>
                <name>Style</name>
                <valuemin>1</valuemin>
                <valuemax>1</valuemax>
                <valuelist>
                  <valueentry>
                    <name>Regular</name>
                    <value>1</value>
                  </valueentry>
                </valuelist>
                <value>1</value>
              </parameter>
              <parameter>
                <parameterid>align</parameterid>
                <name>Alignment</name>
                <valuemin>1</valuemin>
                <valuemax>3</valuemax>
                <valuelist>
                  <valueentry>
                    <name>Left</name>
                    <value>1</value>
                  </valueentry>
                  <valueentry>
                    <name>Center</name>
                    <value>2</value>
                  </valueentry>
                  <valueentry>
                    <name>Right</name>
                    <value>3</value>
                  </valueentry>
                </valuelist>
                <value>2</value>
              </parameter>
              <parameter>
                <parameterid>size</parameterid>
                <name>Size</name>
                <valuemin>0</valuemin>
                <valuemax>200</valuemax>
                <value>24</value>
              </parameter>
              <parameter>
                <parameterid>track</parameterid>
                <name>Tracking</name>
                <valuemin>0</valuemin>
                <valuemax>100</valuemax>
                <value>1</value>
              </parameter>
              <parameter>
                <parameterid>lead</parameterid>
                <name>Leading</name>
                <valuemin>-100</valuemin>
                <valuemax>100</valuemax>
                <value>0</value>
              </parameter>
              <parameter>
                <parameterid>aspect</parameterid>
                <name>Aspect</name>
                <valuemin>0</valuemin>
                <valuemax>4</valuemax>
                <value>1</value>
              </parameter>
              <parameter>
                <parameterid>linewidth</parameterid>
                <name>Line Width</name>
                <valuemin>0</valuemin>
                <valuemax>200</valuemax>
                <value>2</value>
              </parameter>
              <parameter>
                <parameterid>linesoft</parameterid>
                <name>Line Softness</name>
                <valuemin>0</valuemin>
                <valuemax>100</valuemax>
                <value>5</value>
              </parameter>
              <parameter>
                <parameterid>textopacity</parameterid>
                <name>Text Opacity</name>
                <valuemin>0</valuemin>
                <valuemax>100</valuemax>
                <value>100</value>
              </parameter>
              <parameter>
                <parameterid>center</parameterid>
                <name>Center</name>
                <value>
                  <horiz>0</horiz>
                  <vert>0.4703703703703703</vert>
                </value>
              </parameter>
              <parameter>
                <parameterid>textcolor</parameterid>
                <name>Text Color</name>
                <value>
                  <alpha>255</alpha>
                  <red>255</red>
                  <green>255</green>
                  <blue>255</blue>
                </value>
              </parameter>
              <parameter>
                <parameterid>supertext</parameterid>
                <name>Text Graphic</name>
              </parameter>
              <parameter>
                <parameterid>linecolor</parameterid>
                <name>Line Color</name>
                <value>
                  <alpha>255</alpha>
                  <red>0</red>
                  <green>0</green>
                  <blue>0</blue>
                </value>
              </parameter>
              <parameter>
                <parameterid>superline</parameterid>
                <name>Line Graphic</name>
              </parameter>
              <parameter>
                <parameterid>part2</parameterid>
                <name>Background Settings</name>
              </parameter>
              <parameter>
                <parameterid>xscale</parameterid>
                <name>Horizontal Size</name>
                <valuemin>0</valuemin>
                <valuemax>200</valuemax>
                <value>0</value>
              </parameter>
              <parameter>
                <parameterid>yscale</parameterid>
                <name>Vertical Size</name>
                <valuemin>0</valuemin>
                <valuemax>200</valuemax>
                <value>0</value>
              </parameter>
              <parameter>
                <parameterid>xoffset</parameterid>
                <name>Horizontal Offset</name>
                <valuemin>-100</valuemin>
                <valuemax>100</valuemax>
                <value>0</value>
              </parameter>
              <parameter>
                <parameterid>yoffset</parameterid>
                <name>Vertical Offset</name>
                <valuemin>-100</valuemin>
                <valuemax>100</valuemax>
                <value>0</value>
              </parameter>
              <parameter>
                <parameterid>backsoft</parameterid>
                <name>Back Soft</name>
                <valuemin>0</valuemin>
                <valuemax>100</valuemax>
                <value>0</value>
              </parameter>
              <parameter>
                <parameterid>backopacity</parameterid>
                <name>Back Opacity</name>
                <valuemin>0</valuemin>
                <valuemax>100</valuemax>
                <value>50</value>
              </parameter>
              <parameter>
                <parameterid>backcolor</parameterid>
                <name>Back Color</name>
                <value>
                  <alpha>255</alpha>
                  <red>255</red>
                  <green>255</green>
                  <blue>255</blue>
                </value>
              </parameter>
              <parameter>
                <parameterid>superback</parameterid>
                <name>Back Graphic</name>
              </parameter>
              <parameter>
                <parameterid>crop</parameterid>
                <name>Crop</name>
                <value>false</value>
              </parameter>
              <parameter>
                <parameterid>autokern</parameterid>
                <name>Auto Kerning</name>
                <value>true</value>
              </parameter>
            </effect>
            <sourcetrack>
              <mediatype>video</mediatype>
            </sourcetrack>
          </generatoritem>
          <generatoritem id="Outline Text1">
            <name>あんず大福でーす!</name>
            <duration>22166.1117</duration>
            <rate>
              <timebase>30</timebase>
              <ntsc>true</ntsc>
            </rate>
            <start>17184.79799999997</start>
            <end>17275.00769999997</end>
            <in>17184.79799999997</in>
            <out>17275.00769999997</out>
            <enabled>true</enabled>
            <anamorphic>false</anamorphic>
            <alphatype>black</alphatype>
            <masterclipid>Outline Text1</masterclipid>
            <effect>
              <name>Outline Text</name>
              <effectid>Outline Text</effectid>
              <effectcategory>Text</effectcategory>
              <effecttype>generator</effecttype>
              <mediatype>video</mediatype>
              <parameter>
                <parameterid>part1</parameterid>
                <name>Text Settings</name>
                <value/>
              </parameter>
              <parameter>
                <parameterid>str</parameterid>
                <name>Text</name>
                <value>あんず大福でーす!</value>
              </parameter>
              <parameter>
                <parameterid>font</parameterid>
                <name>Font</name>
                <value>HiraginoSans-W6</value>
              </parameter>
              <parameter>
                <parameterid>style</parameterid>
                <name>Style</name>
                <valuemin>1</valuemin>
                <valuemax>1</valuemax>
                <valuelist>
                  <valueentry>
                    <name>Regular</name>
                    <value>1</value>
                  </valueentry>
                </valuelist>
                <value>1</value>
              </parameter>
              <parameter>
                <parameterid>align</parameterid>
                <name>Alignment</name>
                <valuemin>1</valuemin>
                <valuemax>3</valuemax>
                <valuelist>
                  <valueentry>
                    <name>Left</name>
                    <value>1</value>
                  </valueentry>
                  <valueentry>
                    <name>Center</name>
                    <value>2</value>
                  </valueentry>
                  <valueentry>
                    <name>Right</name>
                    <value>3</value>
                  </valueentry>
                </valuelist>
                <value>2</value>
              </parameter>
              <parameter>
                <parameterid>size</parameterid>
                <name>Size</name>
                <valuemin>0</valuemin>
                <valuemax>200</valuemax>
                <value>24</value>
              </parameter>
              <parameter>
                <parameterid>track</parameterid>
                <name>Tracking</name>
                <valuemin>0</valuemin>
                <valuemax>100</valuemax>
                <value>1</value>
              </parameter>
              <parameter>
                <parameterid>lead</parameterid>
                <name>Leading</name>
                <valuemin>-100</valuemin>
                <valuemax>100</valuemax>
                <value>0</value>
              </parameter>
              <parameter>
                <parameterid>aspect</parameterid>
                <name>Aspect</name>
                <valuemin>0</valuemin>
                <valuemax>4</valuemax>
                <value>1</value>
              </parameter>
              <parameter>
                <parameterid>linewidth</parameterid>
                <name>Line Width</name>
                <valuemin>0</valuemin>
                <valuemax>200</valuemax>
                <value>2</value>
              </parameter>
              <parameter>
                <parameterid>linesoft</parameterid>
                <name>Line Softness</name>
                <valuemin>0</valuemin>
                <valuemax>100</valuemax>
                <value>5</value>
              </parameter>
              <parameter>
                <parameterid>textopacity</parameterid>
                <name>Text Opacity</name>
                <valuemin>0</valuemin>
                <valuemax>100</valuemax>
                <value>100</value>
              </parameter>
              <parameter>
                <parameterid>center</parameterid>
                <name>Center</name>
                <value>
                  <horiz>0</horiz>
                  <vert>0.4703703703703703</vert>
                </value>
              </parameter>
              <parameter>
                <parameterid>textcolor</parameterid>
                <name>Text Color</name>
                <value>
                  <alpha>255</alpha>
                  <red>255</red>
                  <green>255</green>
                  <blue>255</blue>
                </value>
              </parameter>
              <parameter>
                <parameterid>supertext</parameterid>
                <name>Text Graphic</name>
              </parameter>
              <parameter>
                <parameterid>linecolor</parameterid>
                <name>Line Color</name>
                <value>
                  <alpha>255</alpha>
                  <red>0</red>
                  <green>0</green>
                  <blue>0</blue>
                </value>
              </parameter>
              <parameter>
                <parameterid>superline</parameterid>
                <name>Line Graphic</name>
              </parameter>
              <parameter>
                <parameterid>part2</parameterid>
                <name>Background Settings</name>
              </parameter>
              <parameter>
                <parameterid>xscale</parameterid>
                <name>Horizontal Size</name>
                <valuemin>0</valuemin>
                <valuemax>200</valuemax>
                <value>0</value>
              </parameter>
              <parameter>
                <parameterid>yscale</parameterid>
                <name>Vertical Size</name>
                <valuemin>0</valuemin>
                <valuemax>200</valuemax>
                <value>0</value>
              </parameter>
              <parameter>
                <parameterid>xoffset</parameterid>
                <name>Horizontal Offset</name>
                <valuemin>-100</valuemin>
                <valuemax>100</valuemax>
                <value>0</value>
              </parameter>
              <parameter>
                <parameterid>yoffset</parameterid>
                <name>Vertical Offset</name>
                <valuemin>-100</valuemin>
                <valuemax>100</valuemax>
                <value>0</value>
              </parameter>
              <parameter>
                <parameterid>backsoft</parameterid>
                <name>Back Soft</name>
                <valuemin>0</valuemin>
                <valuemax>100</valuemax>
                <value>0</value>
              </parameter>
              <parameter>
                <parameterid>backopacity</parameterid>
                <name>Back Opacity</name>
                <valuemin>0</valuemin>
                <valuemax>100</valuemax>
                <value>50</value>
              </parameter>
              <parameter>
                <parameterid>backcolor</parameterid>
                <name>Back Color</name>
                <value>
                  <alpha>255</alpha>
                  <red>255</red>
                  <green>255</green>
                  <blue>255</blue>
                </value>
              </parameter>
              <parameter>
                <parameterid>superback</parameterid>
                <name>Back Graphic</name>
              </parameter>
              <parameter>
                <parameterid>crop</parameterid>
                <name>Crop</name>
                <value>false</value>
              </parameter>
              <parameter>
                <parameterid>autokern</parameterid>
                <name>Auto Kerning</name>
                <value>true</value>
              </parameter>
            </effect>
            <sourcetrack>
              <mediatype>video</mediatype>
            </sourcetrack>
          </generatoritem>
          <generatoritem id="Outline Text1">
            <name>いいんじゃない?</name>
            <duration>22166.1117</duration>
            <rate>
              <timebase>30</timebase>
              <ntsc>true</ntsc>
            </rate>
            <start>17275.00769999997</start>
            <end>17346.036599999963</end>
            <in>17275.00769999997</in>
            <out>17346.036599999963</out>
            <enabled>true</enabled>
            <anamorphic>false</anamorphic>
            <alphatype>black</alphatype>
            <masterclipid>Outline Text1</masterclipid>
            <effect>
              <name>Outline Text</name>
              <effectid>Outline Text</effectid>
              <effectcategory>Text</effectcategory>
              <effecttype>generator</effecttype>
              <mediatype>video</mediatype>
              <parameter>
                <parameterid>part1</parameterid>
                <name>Text Settings</name>
                <value/>
              </parameter>
              <parameter>
                <parameterid>str</parameterid>
                <name>Text</name>
                <value>いいんじゃない?</value>
              </parameter>
              <parameter>
                <parameterid>font</parameterid>
                <name>Font</name>
                <value>HiraginoSans-W6</value>
              </parameter>
              <parameter>
                <parameterid>style</parameterid>
                <name>Style</name>
                <valuemin>1</valuemin>
                <valuemax>1</valuemax>
                <valuelist>
                  <valueentry>
                    <name>Regular</name>
                    <value>1</value>
                  </valueentry>
                </valuelist>
                <value>1</value>
              </parameter>
              <parameter>
                <parameterid>align</parameterid>
                <name>Alignment</name>
                <valuemin>1</valuemin>
                <valuemax>3</valuemax>
                <valuelist>
                  <valueentry>
                    <name>Left</name>
                    <value>1</value>
                  </valueentry>
                  <valueentry>
                    <name>Center</name>
                    <value>2</value>
                  </valueentry>
                  <valueentry>
                    <name>Right</name>
                    <value>3</value>
                  </valueentry>
                </valuelist>
                <value>2</value>
              </parameter>
              <parameter>
                <parameterid>size</parameterid>
                <name>Size</name>
                <valuemin>0</valuemin>
                <valuemax>200</valuemax>
                <value>24</value>
              </parameter>
              <parameter>
                <parameterid>track</parameterid>
                <name>Tracking</name>
                <valuemin>0</valuemin>
                <valuemax>100</valuemax>
                <value>1</value>
              </parameter>
              <parameter>
                <parameterid>lead</parameterid>
                <name>Leading</name>
                <valuemin>-100</valuemin>
                <valuemax>100</valuemax>
                <value>0</value>
              </parameter>
              <parameter>
                <parameterid>aspect</parameterid>
                <name>Aspect</name>
                <valuemin>0</valuemin>
                <valuemax>4</valuemax>
                <value>1</value>
              </parameter>
              <parameter>
                <parameterid>linewidth</parameterid>
                <name>Line Width</name>
                <valuemin>0</valuemin>
                <valuemax>200</valuemax>
                <value>2</value>
              </parameter>
              <parameter>
                <parameterid>linesoft</parameterid>
                <name>Line Softness</name>
                <valuemin>0</valuemin>
                <valuemax>100</valuemax>
                <value>5</value>
              </parameter>
              <parameter>
                <parameterid>textopacity</parameterid>
                <name>Text Opacity</name>
                <valuemin>0</valuemin>
                <valuemax>100</valuemax>
                <value>100</value>
              </parameter>
              <parameter>
                <parameterid>center</parameterid>
                <name>Center</name>
                <value>
                  <horiz>0</horiz>
                  <vert>0.4703703703703703</vert>
                </value>
              </parameter>
              <parameter>
                <parameterid>textcolor</parameterid>
                <name>Text Color</name>
                <value>
                  <alpha>255</alpha>
                  <red>255</red>
                  <green>255</green>
                  <blue>255</blue>
                </value>
              </parameter>
              <parameter>
                <parameterid>supertext</parameterid>
                <name>Text Graphic</name>
              </parameter>
              <parameter>
                <parameterid>linecolor</parameterid>
                <name>Line Color</name>
                <value>
                  <alpha>255</alpha>
                  <red>0</red>
                  <green>0</green>
                  <blue>0</blue>
                </value>
              </parameter>
              <parameter>
                <parameterid>superline</parameterid>
                <name>Line Graphic</name>
              </parameter>
              <parameter>
                <parameterid>part2</parameterid>
                <name>Background Settings</name>
              </parameter>
              <parameter>
                <parameterid>xscale</parameterid>
                <name>Horizontal Size</name>
                <valuemin>0</valuemin>
                <valuemax>200</valuemax>
                <value>0</value>
              </parameter>
              <parameter>
                <parameterid>yscale</parameterid>
                <name>Vertical Size</name>
                <valuemin>0</valuemin>
                <valuemax>200</valuemax>
                <value>0</value>
              </parameter>
              <parameter>
                <parameterid>xoffset</parameterid>
                <name>Horizontal Offset</name>
                <valuemin>-100</valuemin>
                <valuemax>100</valuemax>
                <value>0</value>
              </parameter>
              <parameter>
                <parameterid>yoffset</parameterid>
                <name>Vertical Offset</name>
                <valuemin>-100</valuemin>
                <valuemax>100</valuemax>
                <value>0</value>
              </parameter>
              <parameter>
                <parameterid>backsoft</parameterid>
                <name>Back Soft</name>
                <valuemin>0</valuemin>
                <valuemax>100</valuemax>
                <value>0</value>
              </parameter>
              <parameter>
                <parameterid>backopacity</parameterid>
                <name>Back Opacity</name>
                <valuemin>0</valuemin>
                <valuemax>100</valuemax>
                <value>50</value>
              </parameter>
              <parameter>
                <parameterid>backcolor</parameterid>
                <name>Back Color</name>
                <value>
                  <alpha>255</alpha>
                  <red>255</red>
                  <green>255</green>
                  <blue>255</blue>
                </value>
              </parameter>
              <parameter>
                <parameterid>superback</parameterid>
                <name>Back Graphic</name>
              </parameter>
              <parameter>
                <parameterid>crop</parameterid>
                <name>Crop</name>
                <value>false</value>
              </parameter>
              <parameter>
                <parameterid>autokern</parameterid>
                <name>Auto Kerning</name>
                <value>true</value>
              </parameter>
            </effect>
            <sourcetrack>
              <mediatype>video</mediatype>
            </sourcetrack>
          </generatoritem>
          <generatoritem id="Outline Text1">
            <name>来ちゃいまー</name>
            <duration>22166.1117</duration>
            <rate>
              <timebase>30</timebase>
              <ntsc>true</ntsc>
            </rate>
            <start>17346.036599999963</start>
            <end>17420.362199999963</end>
            <in>17346.036599999963</in>
            <out>17420.362199999963</out>
            <enabled>true</enabled>
            <anamorphic>false</anamorphic>
            <alphatype>black</alphatype>
            <masterclipid>Outline Text1</masterclipid>
            <effect>
              <name>Outline Text</name>
              <effectid>Outline Text</effectid>
              <effectcategory>Text</effectcategory>
              <effecttype>generator</effecttype>
              <mediatype>video</mediatype>
              <parameter>
                <parameterid>part1</parameterid>
                <name>Text Settings</name>
                <value/>
              </parameter>
              <parameter>
                <parameterid>str</parameterid>
                <name>Text</name>
                <value>来ちゃいまー</value>
              </parameter>
              <parameter>
                <parameterid>font</parameterid>
                <name>Font</name>
                <value>HiraginoSans-W6</value>
              </parameter>
              <parameter>
                <parameterid>style</parameterid>
                <name>Style</name>
                <valuemin>1</valuemin>
                <valuemax>1</valuemax>
                <valuelist>
                  <valueentry>
                    <name>Regular</name>
                    <value>1</value>
                  </valueentry>
                </valuelist>
                <value>1</value>
              </parameter>
              <parameter>
                <parameterid>align</parameterid>
                <name>Alignment</name>
                <valuemin>1</valuemin>
                <valuemax>3</valuemax>
                <valuelist>
                  <valueentry>
                    <name>Left</name>
                    <value>1</value>
                  </valueentry>
                  <valueentry>
                    <name>Center</name>
                    <value>2</value>
                  </valueentry>
                  <valueentry>
                    <name>Right</name>
                    <value>3</value>
                  </valueentry>
                </valuelist>
                <value>2</value>
              </parameter>
              <parameter>
                <parameterid>size</parameterid>
                <name>Size</name>
                <valuemin>0</valuemin>
                <valuemax>200</valuemax>
                <value>24</value>
              </parameter>
              <parameter>
                <parameterid>track</parameterid>
                <name>Tracking</name>
                <valuemin>0</valuemin>
                <valuemax>100</valuemax>
                <value>1</value>
              </parameter>
              <parameter>
                <parameterid>lead</parameterid>
                <name>Leading</name>
                <valuemin>-100</valuemin>
                <valuemax>100</valuemax>
                <value>0</value>
              </parameter>
              <parameter>
                <parameterid>aspect</parameterid>
                <name>Aspect</name>
                <valuemin>0</valuemin>
                <valuemax>4</valuemax>
                <value>1</value>
              </parameter>
              <parameter>
                <parameterid>linewidth</parameterid>
                <name>Line Width</name>
                <valuemin>0</valuemin>
                <valuemax>200</valuemax>
                <value>2</value>
              </parameter>
              <parameter>
                <parameterid>linesoft</parameterid>
                <name>Line Softness</name>
                <valuemin>0</valuemin>
                <valuemax>100</valuemax>
                <value>5</value>
              </parameter>
              <parameter>
                <parameterid>textopacity</parameterid>
                <name>Text Opacity</name>
                <valuemin>0</valuemin>
                <valuemax>100</valuemax>
                <value>100</value>
              </parameter>
              <parameter>
                <parameterid>center</parameterid>
                <name>Center</name>
                <value>
                  <horiz>0</horiz>
                  <vert>0.4703703703703703</vert>
                </value>
              </parameter>
              <parameter>
                <parameterid>textcolor</parameterid>
                <name>Text Color</name>
                <value>
                  <alpha>255</alpha>
                  <red>255</red>
                  <green>255</green>
                  <blue>255</blue>
                </value>
              </parameter>
              <parameter>
                <parameterid>supertext</parameterid>
                <name>Text Graphic</name>
              </parameter>
              <parameter>
                <parameterid>linecolor</parameterid>
                <name>Line Color</name>
                <value>
                  <alpha>255</alpha>
                  <red>0</red>
                  <green>0</green>
                  <blue>0</blue>
                </value>
              </parameter>
              <parameter>
                <parameterid>superline</parameterid>
                <name>Line Graphic</name>
              </parameter>
              <parameter>
                <parameterid>part2</parameterid>
                <name>Background Settings</name>
              </parameter>
              <parameter>
                <parameterid>xscale</parameterid>
                <name>Horizontal Size</name>
                <valuemin>0</valuemin>
                <valuemax>200</valuemax>
                <value>0</value>
              </parameter>
              <parameter>
                <parameterid>yscale</parameterid>
                <name>Vertical Size</name>
                <valuemin>0</valuemin>
                <valuemax>200</valuemax>
                <value>0</value>
              </parameter>
              <parameter>
                <parameterid>xoffset</parameterid>
                <name>Horizontal Offset</name>
                <valuemin>-100</valuemin>
                <valuemax>100</valuemax>
                <value>0</value>
              </parameter>
              <parameter>
                <parameterid>yoffset</parameterid>
                <name>Vertical Offset</name>
                <valuemin>-100</valuemin>
                <valuemax>100</valuemax>
                <value>0</value>
              </parameter>
              <parameter>
                <parameterid>backsoft</parameterid>
                <name>Back Soft</name>
                <valuemin>0</valuemin>
                <valuemax>100</valuemax>
                <value>0</value>
              </parameter>
              <parameter>
                <parameterid>backopacity</parameterid>
                <name>Back Opacity</name>
                <valuemin>0</valuemin>
                <valuemax>100</valuemax>
                <value>50</value>
              </parameter>
              <parameter>
                <parameterid>backcolor</parameterid>
                <name>Back Color</name>
                <value>
                  <alpha>255</alpha>
                  <red>255</red>
                  <green>255</green>
                  <blue>255</blue>
                </value>
              </parameter>
              <parameter>
                <parameterid>superback</parameterid>
                <name>Back Graphic</name>
              </parameter>
              <parameter>
                <parameterid>crop</parameterid>
                <name>Crop</name>
                <value>false</value>
              </parameter>
              <parameter>
                <parameterid>autokern</parameterid>
                <name>Auto Kerning</name>
                <value>true</value>
              </parameter>
            </effect>
            <sourcetrack>
              <mediatype>video</mediatype>
            </sourcetrack>
          </generatoritem>
          <generatoritem id="Outline Text1">
            <name>すアンズさん全部こっちに来ちゃったよ</name>
            <duration>22166.1117</duration>
            <rate>
              <timebase>30</timebase>
              <ntsc>true</ntsc>
            </rate>
            <start>17420.362199999963</start>
            <end>17546.535899999955</end>
            <in>17420.362199999963</in>
            <out>17546.535899999955</out>
            <enabled>true</enabled>
            <anamorphic>false</anamorphic>
            <alphatype>black</alphatype>
            <masterclipid>Outline Text1</masterclipid>
            <effect>
              <name>Outline Text</name>
              <effectid>Outline Text</effectid>
              <effectcategory>Text</effectcategory>
              <effecttype>generator</effecttype>
              <mediatype>video</mediatype>
              <parameter>
                <parameterid>part1</parameterid>
                <name>Text Settings</name>
                <value/>
              </parameter>
              <parameter>
                <parameterid>str</parameterid>
                <name>Text</name>
                <value>すアンズさん全部こっちに来ちゃったよ</value>
              </parameter>
              <parameter>
                <parameterid>font</parameterid>
                <name>Font</name>
                <value>HiraginoSans-W6</value>
              </parameter>
              <parameter>
                <parameterid>style</parameterid>
                <name>Style</name>
                <valuemin>1</valuemin>
                <valuemax>1</valuemax>
                <valuelist>
                  <valueentry>
                    <name>Regular</name>
                    <value>1</value>
                  </valueentry>
                </valuelist>
                <value>1</value>
              </parameter>
              <parameter>
                <parameterid>align</parameterid>
                <name>Alignment</name>
                <valuemin>1</valuemin>
                <valuemax>3</valuemax>
                <valuelist>
                  <valueentry>
                    <name>Left</name>
                    <value>1</value>
                  </valueentry>
                  <valueentry>
                    <name>Center</name>
                    <value>2</value>
                  </valueentry>
                  <valueentry>
                    <name>Right</name>
                    <value>3</value>
                  </valueentry>
                </valuelist>
                <value>2</value>
              </parameter>
              <parameter>
                <parameterid>size</parameterid>
                <name>Size</name>
                <valuemin>0</valuemin>
                <valuemax>200</valuemax>
                <value>24</value>
              </parameter>
              <parameter>
                <parameterid>track</parameterid>
                <name>Tracking</name>
                <valuemin>0</valuemin>
                <valuemax>100</valuemax>
                <value>1</value>
              </parameter>
              <parameter>
                <parameterid>lead</parameterid>
                <name>Leading</name>
                <valuemin>-100</valuemin>
                <valuemax>100</valuemax>
                <value>0</value>
              </parameter>
              <parameter>
                <parameterid>aspect</parameterid>
                <name>Aspect</name>
                <valuemin>0</valuemin>
                <valuemax>4</valuemax>
                <value>1</value>
              </parameter>
              <parameter>
                <parameterid>linewidth</parameterid>
                <name>Line Width</name>
                <valuemin>0</valuemin>
                <valuemax>200</valuemax>
                <value>2</value>
              </parameter>
              <parameter>
                <parameterid>linesoft</parameterid>
                <name>Line Softness</name>
                <valuemin>0</valuemin>
                <valuemax>100</valuemax>
                <value>5</value>
              </parameter>
              <parameter>
                <parameterid>textopacity</parameterid>
                <name>Text Opacity</name>
                <valuemin>0</valuemin>
                <valuemax>100</valuemax>
                <value>100</value>
              </parameter>
              <parameter>
                <parameterid>center</parameterid>
                <name>Center</name>
                <value>
                  <horiz>0</horiz>
                  <vert>0.4703703703703703</vert>
                </value>
              </parameter>
              <parameter>
                <parameterid>textcolor</parameterid>
                <name>Text Color</name>
                <value>
                  <alpha>255</alpha>
                  <red>255</red>
                  <green>255</green>
                  <blue>255</blue>
                </value>
              </parameter>
              <parameter>
                <parameterid>supertext</parameterid>
                <name>Text Graphic</name>
              </parameter>
              <parameter>
                <parameterid>linecolor</parameterid>
                <name>Line Color</name>
                <value>
                  <alpha>255</alpha>
                  <red>0</red>
                  <green>0</green>
                  <blue>0</blue>
                </value>
              </parameter>
              <parameter>
                <parameterid>superline</parameterid>
                <name>Line Graphic</name>
              </parameter>
              <parameter>
                <parameterid>part2</parameterid>
                <name>Background Settings</name>
              </parameter>
              <parameter>
                <parameterid>xscale</parameterid>
                <name>Horizontal Size</name>
                <valuemin>0</valuemin>
                <valuemax>200</valuemax>
                <value>0</value>
              </parameter>
              <parameter>
                <parameterid>yscale</parameterid>
                <name>Vertical Size</name>
                <valuemin>0</valuemin>
                <valuemax>200</valuemax>
                <value>0</value>
              </parameter>
              <parameter>
                <parameterid>xoffset</parameterid>
                <name>Horizontal Offset</name>
                <valuemin>-100</valuemin>
                <valuemax>100</valuemax>
                <value>0</value>
              </parameter>
              <parameter>
                <parameterid>yoffset</parameterid>
                <name>Vertical Offset</name>
                <valuemin>-100</valuemin>
                <valuemax>100</valuemax>
                <value>0</value>
              </parameter>
              <parameter>
                <parameterid>backsoft</parameterid>
                <name>Back Soft</name>
                <valuemin>0</valuemin>
                <valuemax>100</valuemax>
                <value>0</value>
              </parameter>
              <parameter>
                <parameterid>backopacity</parameterid>
                <name>Back Opacity</name>
                <valuemin>0</valuemin>
                <valuemax>100</valuemax>
                <value>50</value>
              </parameter>
              <parameter>
                <parameterid>backcolor</parameterid>
                <name>Back Color</name>
                <value>
                  <alpha>255</alpha>
                  <red>255</red>
                  <green>255</green>
                  <blue>255</blue>
                </value>
              </parameter>
              <parameter>
                <parameterid>superback</parameterid>
                <name>Back Graphic</name>
              </parameter>
              <parameter>
                <parameterid>crop</parameterid>
                <name>Crop</name>
                <value>false</value>
              </parameter>
              <parameter>
                <parameterid>autokern</parameterid>
                <name>Auto Kerning</name>
                <value>true</value>
              </parameter>
            </effect>
            <sourcetrack>
              <mediatype>video</mediatype>
            </sourcetrack>
          </generatoritem>
          <generatoritem id="Outline Text1">
            <name>かじろうアンズさんアイリーちゃん大福だけどいいの</name>
            <duration>22166.1117</duration>
            <rate>
              <timebase>30</timebase>
              <ntsc>true</ntsc>
            </rate>
            <start>17546.535899999955</start>
            <end>17727.854399999953</end>
            <in>17546.535899999955</in>
            <out>17727.854399999953</out>
            <enabled>true</enabled>
            <anamorphic>false</anamorphic>
            <alphatype>black</alphatype>
            <masterclipid>Outline Text1</masterclipid>
            <effect>
              <name>Outline Text</name>
              <effectid>Outline Text</effectid>
              <effectcategory>Text</effectcategory>
              <effecttype>generator</effecttype>
              <mediatype>video</mediatype>
              <parameter>
                <parameterid>part1</parameterid>
                <name>Text Settings</name>
                <value/>
              </parameter>
              <parameter>
                <parameterid>str</parameterid>
                <name>Text</name>
                <value>かじろうアンズさんアイリーちゃん大福だけどいいの</value>
              </parameter>
              <parameter>
                <parameterid>font</parameterid>
                <name>Font</name>
                <value>HiraginoSans-W6</value>
              </parameter>
              <parameter>
                <parameterid>style</parameterid>
                <name>Style</name>
                <valuemin>1</valuemin>
                <valuemax>1</valuemax>
                <valuelist>
                  <valueentry>
                    <name>Regular</name>
                    <value>1</value>
                  </valueentry>
                </valuelist>
                <value>1</value>
              </parameter>
              <parameter>
                <parameterid>align</parameterid>
                <name>Alignment</name>
                <valuemin>1</valuemin>
                <valuemax>3</valuemax>
                <valuelist>
                  <valueentry>
                    <name>Left</name>
                    <value>1</value>
                  </valueentry>
                  <valueentry>
                    <name>Center</name>
                    <value>2</value>
                  </valueentry>
                  <valueentry>
                    <name>Right</name>
                    <value>3</value>
                  </valueentry>
                </valuelist>
                <value>2</value>
              </parameter>
              <parameter>
                <parameterid>size</parameterid>
                <name>Size</name>
                <valuemin>0</valuemin>
                <valuemax>200</valuemax>
                <value>24</value>
              </parameter>
              <parameter>
                <parameterid>track</parameterid>
                <name>Tracking</name>
                <valuemin>0</valuemin>
                <valuemax>100</valuemax>
                <value>1</value>
              </parameter>
              <parameter>
                <parameterid>lead</parameterid>
                <name>Leading</name>
                <valuemin>-100</valuemin>
                <valuemax>100</valuemax>
                <value>0</value>
              </parameter>
              <parameter>
                <parameterid>aspect</parameterid>
                <name>Aspect</name>
                <valuemin>0</valuemin>
                <valuemax>4</valuemax>
                <value>1</value>
              </parameter>
              <parameter>
                <parameterid>linewidth</parameterid>
                <name>Line Width</name>
                <valuemin>0</valuemin>
                <valuemax>200</valuemax>
                <value>2</value>
              </parameter>
              <parameter>
                <parameterid>linesoft</parameterid>
                <name>Line Softness</name>
                <valuemin>0</valuemin>
                <valuemax>100</valuemax>
                <value>5</value>
              </parameter>
              <parameter>
                <parameterid>textopacity</parameterid>
                <name>Text Opacity</name>
                <valuemin>0</valuemin>
                <valuemax>100</valuemax>
                <value>100</value>
              </parameter>
              <parameter>
                <parameterid>center</parameterid>
                <name>Center</name>
                <value>
                  <horiz>0</horiz>
                  <vert>0.4703703703703703</vert>
                </value>
              </parameter>
              <parameter>
                <parameterid>textcolor</parameterid>
                <name>Text Color</name>
                <value>
                  <alpha>255</alpha>
                  <red>255</red>
                  <green>255</green>
                  <blue>255</blue>
                </value>
              </parameter>
              <parameter>
                <parameterid>supertext</parameterid>
                <name>Text Graphic</name>
              </parameter>
              <parameter>
                <parameterid>linecolor</parameterid>
                <name>Line Color</name>
                <value>
                  <alpha>255</alpha>
                  <red>0</red>
                  <green>0</green>
                  <blue>0</blue>
                </value>
              </parameter>
              <parameter>
                <parameterid>superline</parameterid>
                <name>Line Graphic</name>
              </parameter>
              <parameter>
                <parameterid>part2</parameterid>
                <name>Background Settings</name>
              </parameter>
              <parameter>
                <parameterid>xscale</parameterid>
                <name>Horizontal Size</name>
                <valuemin>0</valuemin>
                <valuemax>200</valuemax>
                <value>0</value>
              </parameter>
              <parameter>
                <parameterid>yscale</parameterid>
                <name>Vertical Size</name>
                <valuemin>0</valuemin>
                <valuemax>200</valuemax>
                <value>0</value>
              </parameter>
              <parameter>
                <parameterid>xoffset</parameterid>
                <name>Horizontal Offset</name>
                <valuemin>-100</valuemin>
                <valuemax>100</valuemax>
                <value>0</value>
              </parameter>
              <parameter>
                <parameterid>yoffset</parameterid>
                <name>Vertical Offset</name>
                <valuemin>-100</valuemin>
                <valuemax>100</valuemax>
                <value>0</value>
              </parameter>
              <parameter>
                <parameterid>backsoft</parameterid>
                <name>Back Soft</name>
                <valuemin>0</valuemin>
                <valuemax>100</valuemax>
                <value>0</value>
              </parameter>
              <parameter>
                <parameterid>backopacity</parameterid>
                <name>Back Opacity</name>
                <valuemin>0</valuemin>
                <valuemax>100</valuemax>
                <value>50</value>
              </parameter>
              <parameter>
                <parameterid>backcolor</parameterid>
                <name>Back Color</name>
                <value>
                  <alpha>255</alpha>
                  <red>255</red>
                  <green>255</green>
                  <blue>255</blue>
                </value>
              </parameter>
              <parameter>
                <parameterid>superback</parameterid>
                <name>Back Graphic</name>
              </parameter>
              <parameter>
                <parameterid>crop</parameterid>
                <name>Crop</name>
                <value>false</value>
              </parameter>
              <parameter>
                <parameterid>autokern</parameterid>
                <name>Auto Kerning</name>
                <value>true</value>
              </parameter>
            </effect>
            <sourcetrack>
              <mediatype>video</mediatype>
            </sourcetrack>
          </generatoritem>
          <generatoritem id="Outline Text1">
            <name>それかじってもらおうか</name>
            <duration>22166.1117</duration>
            <rate>
              <timebase>30</timebase>
              <ntsc>true</ntsc>
            </rate>
            <start>17727.854399999953</start>
            <end>17790.791399999955</end>
            <in>17727.854399999953</in>
            <out>17790.791399999955</out>
            <enabled>true</enabled>
            <anamorphic>false</anamorphic>
            <alphatype>black</alphatype>
            <masterclipid>Outline Text1</masterclipid>
            <effect>
              <name>Outline Text</name>
              <effectid>Outline Text</effectid>
              <effectcategory>Text</effectcategory>
              <effecttype>generator</effecttype>
              <mediatype>video</mediatype>
              <parameter>
                <parameterid>part1</parameterid>
                <name>Text Settings</name>
                <value/>
              </parameter>
              <parameter>
                <parameterid>str</parameterid>
                <name>Text</name>
                <value>それかじってもらおうか</value>
              </parameter>
              <parameter>
                <parameterid>font</parameterid>
                <name>Font</name>
                <value>HiraginoSans-W6</value>
              </parameter>
              <parameter>
                <parameterid>style</parameterid>
                <name>Style</name>
                <valuemin>1</valuemin>
                <valuemax>1</valuemax>
                <valuelist>
                  <valueentry>
                    <name>Regular</name>
                    <value>1</value>
                  </valueentry>
                </valuelist>
                <value>1</value>
              </parameter>
              <parameter>
                <parameterid>align</parameterid>
                <name>Alignment</name>
                <valuemin>1</valuemin>
                <valuemax>3</valuemax>
                <valuelist>
                  <valueentry>
                    <name>Left</name>
                    <value>1</value>
                  </valueentry>
                  <valueentry>
                    <name>Center</name>
                    <value>2</value>
                  </valueentry>
                  <valueentry>
                    <name>Right</name>
                    <value>3</value>
                  </valueentry>
                </valuelist>
                <value>2</value>
              </parameter>
              <parameter>
                <parameterid>size</parameterid>
                <name>Size</name>
                <valuemin>0</valuemin>
                <valuemax>200</valuemax>
                <value>24</value>
              </parameter>
              <parameter>
                <parameterid>track</parameterid>
                <name>Tracking</name>
                <valuemin>0</valuemin>
                <valuemax>100</valuemax>
                <value>1</value>
              </parameter>
              <parameter>
                <parameterid>lead</parameterid>
                <name>Leading</name>
                <valuemin>-100</valuemin>
                <valuemax>100</valuemax>
                <value>0</value>
              </parameter>
              <parameter>
                <parameterid>aspect</parameterid>
                <name>Aspect</name>
                <valuemin>0</valuemin>
                <valuemax>4</valuemax>
                <value>1</value>
              </parameter>
              <parameter>
                <parameterid>linewidth</parameterid>
                <name>Line Width</name>
                <valuemin>0</valuemin>
                <valuemax>200</valuemax>
                <value>2</value>
              </parameter>
              <parameter>
                <parameterid>linesoft</parameterid>
                <name>Line Softness</name>
                <valuemin>0</valuemin>
                <valuemax>100</valuemax>
                <value>5</value>
              </parameter>
              <parameter>
                <parameterid>textopacity</parameterid>
                <name>Text Opacity</name>
                <valuemin>0</valuemin>
                <valuemax>100</valuemax>
                <value>100</value>
              </parameter>
              <parameter>
                <parameterid>center</parameterid>
                <name>Center</name>
                <value>
                  <horiz>0</horiz>
                  <vert>0.4703703703703703</vert>
                </value>
              </parameter>
              <parameter>
                <parameterid>textcolor</parameterid>
                <name>Text Color</name>
                <value>
                  <alpha>255</alpha>
                  <red>255</red>
                  <green>255</green>
                  <blue>255</blue>
                </value>
              </parameter>
              <parameter>
                <parameterid>supertext</parameterid>
                <name>Text Graphic</name>
              </parameter>
              <parameter>
                <parameterid>linecolor</parameterid>
                <name>Line Color</name>
                <value>
                  <alpha>255</alpha>
                  <red>0</red>
                  <green>0</green>
                  <blue>0</blue>
                </value>
              </parameter>
              <parameter>
                <parameterid>superline</parameterid>
                <name>Line Graphic</name>
              </parameter>
              <parameter>
                <parameterid>part2</parameterid>
                <name>Background Settings</name>
              </parameter>
              <parameter>
                <parameterid>xscale</parameterid>
                <name>Horizontal Size</name>
                <valuemin>0</valuemin>
                <valuemax>200</valuemax>
                <value>0</value>
              </parameter>
              <parameter>
                <parameterid>yscale</parameterid>
                <name>Vertical Size</name>
                <valuemin>0</valuemin>
                <valuemax>200</valuemax>
                <value>0</value>
              </parameter>
              <parameter>
                <parameterid>xoffset</parameterid>
                <name>Horizontal Offset</name>
                <valuemin>-100</valuemin>
                <valuemax>100</valuemax>
                <value>0</value>
              </parameter>
              <parameter>
                <parameterid>yoffset</parameterid>
                <name>Vertical Offset</name>
                <valuemin>-100</valuemin>
                <valuemax>100</valuemax>
                <value>0</value>
              </parameter>
              <parameter>
                <parameterid>backsoft</parameterid>
                <name>Back Soft</name>
                <valuemin>0</valuemin>
                <valuemax>100</valuemax>
                <value>0</value>
              </parameter>
              <parameter>
                <parameterid>backopacity</parameterid>
                <name>Back Opacity</name>
                <valuemin>0</valuemin>
                <valuemax>100</valuemax>
                <value>50</value>
              </parameter>
              <parameter>
                <parameterid>backcolor</parameterid>
                <name>Back Color</name>
                <value>
                  <alpha>255</alpha>
                  <red>255</red>
                  <green>255</green>
                  <blue>255</blue>
                </value>
              </parameter>
              <parameter>
                <parameterid>superback</parameterid>
                <name>Back Graphic</name>
              </parameter>
              <parameter>
                <parameterid>crop</parameterid>
                <name>Crop</name>
                <value>false</value>
              </parameter>
              <parameter>
                <parameterid>autokern</parameterid>
                <name>Auto Kerning</name>
                <value>true</value>
              </parameter>
            </effect>
            <sourcetrack>
              <mediatype>video</mediatype>
            </sourcetrack>
          </generatoritem>
          <generatoritem id="Outline Text1">
            <name>一口さじゃあアイリーちゃんアンズアンズいきまーす</name>
            <duration>22166.1117</duration>
            <rate>
              <timebase>30</timebase>
              <ntsc>true</ntsc>
            </rate>
            <start>17790.791399999955</start>
            <end>18178.902899999954</end>
            <in>17790.791399999955</in>
            <out>18178.902899999954</out>
            <enabled>true</enabled>
            <anamorphic>false</anamorphic>
            <alphatype>black</alphatype>
            <masterclipid>Outline Text1</masterclipid>
            <effect>
              <name>Outline Text</name>
              <effectid>Outline Text</effectid>
              <effectcategory>Text</effectcategory>
              <effecttype>generator</effecttype>
              <mediatype>video</mediatype>
              <parameter>
                <parameterid>part1</parameterid>
                <name>Text Settings</name>
                <value/>
              </parameter>
              <parameter>
                <parameterid>str</parameterid>
                <name>Text</name>
                <value>一口さじゃあアイリーちゃんアンズアンズいきまーす</value>
              </parameter>
              <parameter>
                <parameterid>font</parameterid>
                <name>Font</name>
                <value>HiraginoSans-W6</value>
              </parameter>
              <parameter>
                <parameterid>style</parameterid>
                <name>Style</name>
                <valuemin>1</valuemin>
                <valuemax>1</valuemax>
                <valuelist>
                  <valueentry>
                    <name>Regular</name>
                    <value>1</value>
                  </valueentry>
                </valuelist>
                <value>1</value>
              </parameter>
              <parameter>
                <parameterid>align</parameterid>
                <name>Alignment</name>
                <valuemin>1</valuemin>
                <valuemax>3</valuemax>
                <valuelist>
                  <valueentry>
                    <name>Left</name>
                    <value>1</value>
                  </valueentry>
                  <valueentry>
                    <name>Center</name>
                    <value>2</value>
                  </valueentry>
                  <valueentry>
                    <name>Right</name>
                    <value>3</value>
                  </valueentry>
                </valuelist>
                <value>2</value>
              </parameter>
              <parameter>
                <parameterid>size</parameterid>
                <name>Size</name>
                <valuemin>0</valuemin>
                <valuemax>200</valuemax>
                <value>24</value>
              </parameter>
              <parameter>
                <parameterid>track</parameterid>
                <name>Tracking</name>
                <valuemin>0</valuemin>
                <valuemax>100</valuemax>
                <value>1</value>
              </parameter>
              <parameter>
                <parameterid>lead</parameterid>
                <name>Leading</name>
                <valuemin>-100</valuemin>
                <valuemax>100</valuemax>
                <value>0</value>
              </parameter>
              <parameter>
                <parameterid>aspect</parameterid>
                <name>Aspect</name>
                <valuemin>0</valuemin>
                <valuemax>4</valuemax>
                <value>1</value>
              </parameter>
              <parameter>
                <parameterid>linewidth</parameterid>
                <name>Line Width</name>
                <valuemin>0</valuemin>
                <valuemax>200</valuemax>
                <value>2</value>
              </parameter>
              <parameter>
                <parameterid>linesoft</parameterid>
                <name>Line Softness</name>
                <valuemin>0</valuemin>
                <valuemax>100</valuemax>
                <value>5</value>
              </parameter>
              <parameter>
                <parameterid>textopacity</parameterid>
                <name>Text Opacity</name>
                <valuemin>0</valuemin>
                <valuemax>100</valuemax>
                <value>100</value>
              </parameter>
              <parameter>
                <parameterid>center</parameterid>
                <name>Center</name>
                <value>
                  <horiz>0</horiz>
                  <vert>0.4703703703703703</vert>
                </value>
              </parameter>
              <parameter>
                <parameterid>textcolor</parameterid>
                <name>Text Color</name>
                <value>
                  <alpha>255</alpha>
                  <red>255</red>
                  <green>255</green>
                  <blue>255</blue>
                </value>
              </parameter>
              <parameter>
                <parameterid>supertext</parameterid>
                <name>Text Graphic</name>
              </parameter>
              <parameter>
                <parameterid>linecolor</parameterid>
                <name>Line Color</name>
                <value>
                  <alpha>255</alpha>
                  <red>0</red>
                  <green>0</green>
                  <blue>0</blue>
                </value>
              </parameter>
              <parameter>
                <parameterid>superline</parameterid>
                <name>Line Graphic</name>
              </parameter>
              <parameter>
                <parameterid>part2</parameterid>
                <name>Background Settings</name>
              </parameter>
              <parameter>
                <parameterid>xscale</parameterid>
                <name>Horizontal Size</name>
                <valuemin>0</valuemin>
                <valuemax>200</valuemax>
                <value>0</value>
              </parameter>
              <parameter>
                <parameterid>yscale</parameterid>
                <name>Vertical Size</name>
                <valuemin>0</valuemin>
                <valuemax>200</valuemax>
                <value>0</value>
              </parameter>
              <parameter>
                <parameterid>xoffset</parameterid>
                <name>Horizontal Offset</name>
                <valuemin>-100</valuemin>
                <valuemax>100</valuemax>
                <value>0</value>
              </parameter>
              <parameter>
                <parameterid>yoffset</parameterid>
                <name>Vertical Offset</name>
                <valuemin>-100</valuemin>
                <valuemax>100</valuemax>
                <value>0</value>
              </parameter>
              <parameter>
                <parameterid>backsoft</parameterid>
                <name>Back Soft</name>
                <valuemin>0</valuemin>
                <valuemax>100</valuemax>
                <value>0</value>
              </parameter>
              <parameter>
                <parameterid>backopacity</parameterid>
                <name>Back Opacity</name>
                <valuemin>0</valuemin>
                <valuemax>100</valuemax>
                <value>50</value>
              </parameter>
              <parameter>
                <parameterid>backcolor</parameterid>
                <name>Back Color</name>
                <value>
                  <alpha>255</alpha>
                  <red>255</red>
                  <green>255</green>
                  <blue>255</blue>
                </value>
              </parameter>
              <parameter>
                <parameterid>superback</parameterid>
                <name>Back Graphic</name>
              </parameter>
              <parameter>
                <parameterid>crop</parameterid>
                <name>Crop</name>
                <value>false</value>
              </parameter>
              <parameter>
                <parameterid>autokern</parameterid>
                <name>Auto Kerning</name>
                <value>true</value>
              </parameter>
            </effect>
            <sourcetrack>
              <mediatype>video</mediatype>
            </sourcetrack>
          </generatoritem>
          <generatoritem id="Outline Text1">
            <name>どうも甘さ控えめですっごい食べやすいいただきます</name>
            <duration>22166.1117</duration>
            <rate>
              <timebase>30</timebase>
              <ntsc>true</ntsc>
            </rate>
            <start>18178.902899999954</start>
            <end>18457.324199999955</end>
            <in>18178.902899999954</in>
            <out>18457.324199999955</out>
            <enabled>true</enabled>
            <anamorphic>false</anamorphic>
            <alphatype>black</alphatype>
            <masterclipid>Outline Text1</masterclipid>
            <effect>
              <name>Outline Text</name>
              <effectid>Outline Text</effectid>
              <effectcategory>Text</effectcategory>
              <effecttype>generator</effecttype>
              <mediatype>video</mediatype>
              <parameter>
                <parameterid>part1</parameterid>
                <name>Text Settings</name>
                <value/>
              </parameter>
              <parameter>
                <parameterid>str</parameterid>
                <name>Text</name>
                <value>どうも甘さ控えめですっごい食べやすいいただきます</value>
              </parameter>
              <parameter>
                <parameterid>font</parameterid>
                <name>Font</name>
                <value>HiraginoSans-W6</value>
              </parameter>
              <parameter>
                <parameterid>style</parameterid>
                <name>Style</name>
                <valuemin>1</valuemin>
                <valuemax>1</valuemax>
                <valuelist>
                  <valueentry>
                    <name>Regular</name>
                    <value>1</value>
                  </valueentry>
                </valuelist>
                <value>1</value>
              </parameter>
              <parameter>
                <parameterid>align</parameterid>
                <name>Alignment</name>
                <valuemin>1</valuemin>
                <valuemax>3</valuemax>
                <valuelist>
                  <valueentry>
                    <name>Left</name>
                    <value>1</value>
                  </valueentry>
                  <valueentry>
                    <name>Center</name>
                    <value>2</value>
                  </valueentry>
                  <valueentry>
                    <name>Right</name>
                    <value>3</value>
                  </valueentry>
                </valuelist>
                <value>2</value>
              </parameter>
              <parameter>
                <parameterid>size</parameterid>
                <name>Size</name>
                <valuemin>0</valuemin>
                <valuemax>200</valuemax>
                <value>24</value>
              </parameter>
              <parameter>
                <parameterid>track</parameterid>
                <name>Tracking</name>
                <valuemin>0</valuemin>
                <valuemax>100</valuemax>
                <value>1</value>
              </parameter>
              <parameter>
                <parameterid>lead</parameterid>
                <name>Leading</name>
                <valuemin>-100</valuemin>
                <valuemax>100</valuemax>
                <value>0</value>
              </parameter>
              <parameter>
                <parameterid>aspect</parameterid>
                <name>Aspect</name>
                <valuemin>0</valuemin>
                <valuemax>4</valuemax>
                <value>1</value>
              </parameter>
              <parameter>
                <parameterid>linewidth</parameterid>
                <name>Line Width</name>
                <valuemin>0</valuemin>
                <valuemax>200</valuemax>
                <value>2</value>
              </parameter>
              <parameter>
                <parameterid>linesoft</parameterid>
                <name>Line Softness</name>
                <valuemin>0</valuemin>
                <valuemax>100</valuemax>
                <value>5</value>
              </parameter>
              <parameter>
                <parameterid>textopacity</parameterid>
                <name>Text Opacity</name>
                <valuemin>0</valuemin>
                <valuemax>100</valuemax>
                <value>100</value>
              </parameter>
              <parameter>
                <parameterid>center</parameterid>
                <name>Center</name>
                <value>
                  <horiz>0</horiz>
                  <vert>0.4703703703703703</vert>
                </value>
              </parameter>
              <parameter>
                <parameterid>textcolor</parameterid>
                <name>Text Color</name>
                <value>
                  <alpha>255</alpha>
                  <red>255</red>
                  <green>255</green>
                  <blue>255</blue>
                </value>
              </parameter>
              <parameter>
                <parameterid>supertext</parameterid>
                <name>Text Graphic</name>
              </parameter>
              <parameter>
                <parameterid>linecolor</parameterid>
                <name>Line Color</name>
                <value>
                  <alpha>255</alpha>
                  <red>0</red>
                  <green>0</green>
                  <blue>0</blue>
                </value>
              </parameter>
              <parameter>
                <parameterid>superline</parameterid>
                <name>Line Graphic</name>
              </parameter>
              <parameter>
                <parameterid>part2</parameterid>
                <name>Background Settings</name>
              </parameter>
              <parameter>
                <parameterid>xscale</parameterid>
                <name>Horizontal Size</name>
                <valuemin>0</valuemin>
                <valuemax>200</valuemax>
                <value>0</value>
              </parameter>
              <parameter>
                <parameterid>yscale</parameterid>
                <name>Vertical Size</name>
                <valuemin>0</valuemin>
                <valuemax>200</valuemax>
                <value>0</value>
              </parameter>
              <parameter>
                <parameterid>xoffset</parameterid>
                <name>Horizontal Offset</name>
                <valuemin>-100</valuemin>
                <valuemax>100</valuemax>
                <value>0</value>
              </parameter>
              <parameter>
                <parameterid>yoffset</parameterid>
                <name>Vertical Offset</name>
                <valuemin>-100</valuemin>
                <valuemax>100</valuemax>
                <value>0</value>
              </parameter>
              <parameter>
                <parameterid>backsoft</parameterid>
                <name>Back Soft</name>
                <valuemin>0</valuemin>
                <valuemax>100</valuemax>
                <value>0</value>
              </parameter>
              <parameter>
                <parameterid>backopacity</parameterid>
                <name>Back Opacity</name>
                <valuemin>0</valuemin>
                <valuemax>100</valuemax>
                <value>50</value>
              </parameter>
              <parameter>
                <parameterid>backcolor</parameterid>
                <name>Back Color</name>
                <value>
                  <alpha>255</alpha>
                  <red>255</red>
                  <green>255</green>
                  <blue>255</blue>
                </value>
              </parameter>
              <parameter>
                <parameterid>superback</parameterid>
                <name>Back Graphic</name>
              </parameter>
              <parameter>
                <parameterid>crop</parameterid>
                <name>Crop</name>
                <value>false</value>
              </parameter>
              <parameter>
                <parameterid>autokern</parameterid>
                <name>Auto Kerning</name>
                <value>true</value>
              </parameter>
            </effect>
            <sourcetrack>
              <mediatype>video</mediatype>
            </sourcetrack>
          </generatoritem>
          <generatoritem id="Outline Text1">
            <name>今回も甘さ控えめもっとあんじょも入ってて甘いのかなって思ったらあんじょも甘すぎずで</name>
            <duration>22166.1117</duration>
            <rate>
              <timebase>30</timebase>
              <ntsc>true</ntsc>
            </rate>
            <start>18457.324199999955</start>
            <end>18689.591699999957</end>
            <in>18457.324199999955</in>
            <out>18689.591699999957</out>
            <enabled>true</enabled>
            <anamorphic>false</anamorphic>
            <alphatype>black</alphatype>
            <masterclipid>Outline Text1</masterclipid>
            <effect>
              <name>Outline Text</name>
              <effectid>Outline Text</effectid>
              <effectcategory>Text</effectcategory>
              <effecttype>generator</effecttype>
              <mediatype>video</mediatype>
              <parameter>
                <parameterid>part1</parameterid>
                <name>Text Settings</name>
                <value/>
              </parameter>
              <parameter>
                <parameterid>str</parameterid>
                <name>Text</name>
                <value>今回も甘さ控えめもっとあんじょも入ってて甘いのかなって思ったらあんじょも甘すぎずで</value>
              </parameter>
              <parameter>
                <parameterid>font</parameterid>
                <name>Font</name>
                <value>HiraginoSans-W6</value>
              </parameter>
              <parameter>
                <parameterid>style</parameterid>
                <name>Style</name>
                <valuemin>1</valuemin>
                <valuemax>1</valuemax>
                <valuelist>
                  <valueentry>
                    <name>Regular</name>
                    <value>1</value>
                  </valueentry>
                </valuelist>
                <value>1</value>
              </parameter>
              <parameter>
                <parameterid>align</parameterid>
                <name>Alignment</name>
                <valuemin>1</valuemin>
                <valuemax>3</valuemax>
                <valuelist>
                  <valueentry>
                    <name>Left</name>
                    <value>1</value>
                  </valueentry>
                  <valueentry>
                    <name>Center</name>
                    <value>2</value>
                  </valueentry>
                  <valueentry>
                    <name>Right</name>
                    <value>3</value>
                  </valueentry>
                </valuelist>
                <value>2</value>
              </parameter>
              <parameter>
                <parameterid>size</parameterid>
                <name>Size</name>
                <valuemin>0</valuemin>
                <valuemax>200</valuemax>
                <value>24</value>
              </parameter>
              <parameter>
                <parameterid>track</parameterid>
                <name>Tracking</name>
                <valuemin>0</valuemin>
                <valuemax>100</valuemax>
                <value>1</value>
              </parameter>
              <parameter>
                <parameterid>lead</parameterid>
                <name>Leading</name>
                <valuemin>-100</valuemin>
                <valuemax>100</valuemax>
                <value>0</value>
              </parameter>
              <parameter>
                <parameterid>aspect</parameterid>
                <name>Aspect</name>
                <valuemin>0</valuemin>
                <valuemax>4</valuemax>
                <value>1</value>
              </parameter>
              <parameter>
                <parameterid>linewidth</parameterid>
                <name>Line Width</name>
                <valuemin>0</valuemin>
                <valuemax>200</valuemax>
                <value>2</value>
              </parameter>
              <parameter>
                <parameterid>linesoft</parameterid>
                <name>Line Softness</name>
                <valuemin>0</valuemin>
                <valuemax>100</valuemax>
                <value>5</value>
              </parameter>
              <parameter>
                <parameterid>textopacity</parameterid>
                <name>Text Opacity</name>
                <valuemin>0</valuemin>
                <valuemax>100</valuemax>
                <value>100</value>
              </parameter>
              <parameter>
                <parameterid>center</parameterid>
                <name>Center</name>
                <value>
                  <horiz>0</horiz>
                  <vert>0.4703703703703703</vert>
                </value>
              </parameter>
              <parameter>
                <parameterid>textcolor</parameterid>
                <name>Text Color</name>
                <value>
                  <alpha>255</alpha>
                  <red>255</red>
                  <green>255</green>
                  <blue>255</blue>
                </value>
              </parameter>
              <parameter>
                <parameterid>supertext</parameterid>
                <name>Text Graphic</name>
              </parameter>
              <parameter>
                <parameterid>linecolor</parameterid>
                <name>Line Color</name>
                <value>
                  <alpha>255</alpha>
                  <red>0</red>
                  <green>0</green>
                  <blue>0</blue>
                </value>
              </parameter>
              <parameter>
                <parameterid>superline</parameterid>
                <name>Line Graphic</name>
              </parameter>
              <parameter>
                <parameterid>part2</parameterid>
                <name>Background Settings</name>
              </parameter>
              <parameter>
                <parameterid>xscale</parameterid>
                <name>Horizontal Size</name>
                <valuemin>0</valuemin>
                <valuemax>200</valuemax>
                <value>0</value>
              </parameter>
              <parameter>
                <parameterid>yscale</parameterid>
                <name>Vertical Size</name>
                <valuemin>0</valuemin>
                <valuemax>200</valuemax>
                <value>0</value>
              </parameter>
              <parameter>
                <parameterid>xoffset</parameterid>
                <name>Horizontal Offset</name>
                <valuemin>-100</valuemin>
                <valuemax>100</valuemax>
                <value>0</value>
              </parameter>
              <parameter>
                <parameterid>yoffset</parameterid>
                <name>Vertical Offset</name>
                <valuemin>-100</valuemin>
                <valuemax>100</valuemax>
                <value>0</value>
              </parameter>
              <parameter>
                <parameterid>backsoft</parameterid>
                <name>Back Soft</name>
                <valuemin>0</valuemin>
                <valuemax>100</valuemax>
                <value>0</value>
              </parameter>
              <parameter>
                <parameterid>backopacity</parameterid>
                <name>Back Opacity</name>
                <valuemin>0</valuemin>
                <valuemax>100</valuemax>
                <value>50</value>
              </parameter>
              <parameter>
                <parameterid>backcolor</parameterid>
                <name>Back Color</name>
                <value>
                  <alpha>255</alpha>
                  <red>255</red>
                  <green>255</green>
                  <blue>255</blue>
                </value>
              </parameter>
              <parameter>
                <parameterid>superback</parameterid>
                <name>Back Graphic</name>
              </parameter>
              <parameter>
                <parameterid>crop</parameterid>
                <name>Crop</name>
                <value>false</value>
              </parameter>
              <parameter>
                <parameterid>autokern</parameterid>
                <name>Auto Kerning</name>
                <value>true</value>
              </parameter>
            </effect>
            <sourcetrack>
              <mediatype>video</mediatype>
            </sourcetrack>
          </generatoritem>
          <generatoritem id="Outline Text1">
            <name>お茶飲みたい飲みたいのに</name>
            <duration>22166.1117</duration>
            <rate>
              <timebase>30</timebase>
              <ntsc>true</ntsc>
            </rate>
            <start>18689.591699999957</start>
            <end>18764.51669999996</end>
            <in>18689.591699999957</in>
            <out>18764.51669999996</out>
            <enabled>true</enabled>
            <anamorphic>false</anamorphic>
            <alphatype>black</alphatype>
            <masterclipid>Outline Text1</masterclipid>
            <effect>
              <name>Outline Text</name>
              <effectid>Outline Text</effectid>
              <effectcategory>Text</effectcategory>
              <effecttype>generator</effecttype>
              <mediatype>video</mediatype>
              <parameter>
                <parameterid>part1</parameterid>
                <name>Text Settings</name>
                <value/>
              </parameter>
              <parameter>
                <parameterid>str</parameterid>
                <name>Text</name>
                <value>お茶飲みたい飲みたいのに</value>
              </parameter>
              <parameter>
                <parameterid>font</parameterid>
                <name>Font</name>
                <value>HiraginoSans-W6</value>
              </parameter>
              <parameter>
                <parameterid>style</parameterid>
                <name>Style</name>
                <valuemin>1</valuemin>
                <valuemax>1</valuemax>
                <valuelist>
                  <valueentry>
                    <name>Regular</name>
                    <value>1</value>
                  </valueentry>
                </valuelist>
                <value>1</value>
              </parameter>
              <parameter>
                <parameterid>align</parameterid>
                <name>Alignment</name>
                <valuemin>1</valuemin>
                <valuemax>3</valuemax>
                <valuelist>
                  <valueentry>
                    <name>Left</name>
                    <value>1</value>
                  </valueentry>
                  <valueentry>
                    <name>Center</name>
                    <value>2</value>
                  </valueentry>
                  <valueentry>
                    <name>Right</name>
                    <value>3</value>
                  </valueentry>
                </valuelist>
                <value>2</value>
              </parameter>
              <parameter>
                <parameterid>size</parameterid>
                <name>Size</name>
                <valuemin>0</valuemin>
                <valuemax>200</valuemax>
                <value>24</value>
              </parameter>
              <parameter>
                <parameterid>track</parameterid>
                <name>Tracking</name>
                <valuemin>0</valuemin>
                <valuemax>100</valuemax>
                <value>1</value>
              </parameter>
              <parameter>
                <parameterid>lead</parameterid>
                <name>Leading</name>
                <valuemin>-100</valuemin>
                <valuemax>100</valuemax>
                <value>0</value>
              </parameter>
              <parameter>
                <parameterid>aspect</parameterid>
                <name>Aspect</name>
                <valuemin>0</valuemin>
                <valuemax>4</valuemax>
                <value>1</value>
              </parameter>
              <parameter>
                <parameterid>linewidth</parameterid>
                <name>Line Width</name>
                <valuemin>0</valuemin>
                <valuemax>200</valuemax>
                <value>2</value>
              </parameter>
              <parameter>
                <parameterid>linesoft</parameterid>
                <name>Line Softness</name>
                <valuemin>0</valuemin>
                <valuemax>100</valuemax>
                <value>5</value>
              </parameter>
              <parameter>
                <parameterid>textopacity</parameterid>
                <name>Text Opacity</name>
                <valuemin>0</valuemin>
                <valuemax>100</valuemax>
                <value>100</value>
              </parameter>
              <parameter>
                <parameterid>center</parameterid>
                <name>Center</name>
                <value>
                  <horiz>0</horiz>
                  <vert>0.4703703703703703</vert>
                </value>
              </parameter>
              <parameter>
                <parameterid>textcolor</parameterid>
                <name>Text Color</name>
                <value>
                  <alpha>255</alpha>
                  <red>255</red>
                  <green>255</green>
                  <blue>255</blue>
                </value>
              </parameter>
              <parameter>
                <parameterid>supertext</parameterid>
                <name>Text Graphic</name>
              </parameter>
              <parameter>
                <parameterid>linecolor</parameterid>
                <name>Line Color</name>
                <value>
                  <alpha>255</alpha>
                  <red>0</red>
                  <green>0</green>
                  <blue>0</blue>
                </value>
              </parameter>
              <parameter>
                <parameterid>superline</parameterid>
                <name>Line Graphic</name>
              </parameter>
              <parameter>
                <parameterid>part2</parameterid>
                <name>Background Settings</name>
              </parameter>
              <parameter>
                <parameterid>xscale</parameterid>
                <name>Horizontal Size</name>
                <valuemin>0</valuemin>
                <valuemax>200</valuemax>
                <value>0</value>
              </parameter>
              <parameter>
                <parameterid>yscale</parameterid>
                <name>Vertical Size</name>
                <valuemin>0</valuemin>
                <valuemax>200</valuemax>
                <value>0</value>
              </parameter>
              <parameter>
                <parameterid>xoffset</parameterid>
                <name>Horizontal Offset</name>
                <valuemin>-100</valuemin>
                <valuemax>100</valuemax>
                <value>0</value>
              </parameter>
              <parameter>
                <parameterid>yoffset</parameterid>
                <name>Vertical Offset</name>
                <valuemin>-100</valuemin>
                <valuemax>100</valuemax>
                <value>0</value>
              </parameter>
              <parameter>
                <parameterid>backsoft</parameterid>
                <name>Back Soft</name>
                <valuemin>0</valuemin>
                <valuemax>100</valuemax>
                <value>0</value>
              </parameter>
              <parameter>
                <parameterid>backopacity</parameterid>
                <name>Back Opacity</name>
                <valuemin>0</valuemin>
                <valuemax>100</valuemax>
                <value>50</value>
              </parameter>
              <parameter>
                <parameterid>backcolor</parameterid>
                <name>Back Color</name>
                <value>
                  <alpha>255</alpha>
                  <red>255</red>
                  <green>255</green>
                  <blue>255</blue>
                </value>
              </parameter>
              <parameter>
                <parameterid>superback</parameterid>
                <name>Back Graphic</name>
              </parameter>
              <parameter>
                <parameterid>crop</parameterid>
                <name>Crop</name>
                <value>false</value>
              </parameter>
              <parameter>
                <parameterid>autokern</parameterid>
                <name>Auto Kerning</name>
                <value>true</value>
              </parameter>
            </effect>
            <sourcetrack>
              <mediatype>video</mediatype>
            </sourcetrack>
          </generatoritem>
          <generatoritem id="Outline Text1">
            <name>お茶飲みたい緑茶欲しいな</name>
            <duration>22166.1117</duration>
            <rate>
              <timebase>30</timebase>
              <ntsc>true</ntsc>
            </rate>
            <start>18764.51669999996</start>
            <end>18861.61949999996</end>
            <in>18764.51669999996</in>
            <out>18861.61949999996</out>
            <enabled>true</enabled>
            <anamorphic>false</anamorphic>
            <alphatype>black</alphatype>
            <masterclipid>Outline Text1</masterclipid>
            <effect>
              <name>Outline Text</name>
              <effectid>Outline Text</effectid>
              <effectcategory>Text</effectcategory>
              <effecttype>generator</effecttype>
              <mediatype>video</mediatype>
              <parameter>
                <parameterid>part1</parameterid>
                <name>Text Settings</name>
                <value/>
              </parameter>
              <parameter>
                <parameterid>str</parameterid>
                <name>Text</name>
                <value>お茶飲みたい緑茶欲しいな</value>
              </parameter>
              <parameter>
                <parameterid>font</parameterid>
                <name>Font</name>
                <value>HiraginoSans-W6</value>
              </parameter>
              <parameter>
                <parameterid>style</parameterid>
                <name>Style</name>
                <valuemin>1</valuemin>
                <valuemax>1</valuemax>
                <valuelist>
                  <valueentry>
                    <name>Regular</name>
                    <value>1</value>
                  </valueentry>
                </valuelist>
                <value>1</value>
              </parameter>
              <parameter>
                <parameterid>align</parameterid>
                <name>Alignment</name>
                <valuemin>1</valuemin>
                <valuemax>3</valuemax>
                <valuelist>
                  <valueentry>
                    <name>Left</name>
                    <value>1</value>
                  </valueentry>
                  <valueentry>
                    <name>Center</name>
                    <value>2</value>
                  </valueentry>
                  <valueentry>
                    <name>Right</name>
                    <value>3</value>
                  </valueentry>
                </valuelist>
                <value>2</value>
              </parameter>
              <parameter>
                <parameterid>size</parameterid>
                <name>Size</name>
                <valuemin>0</valuemin>
                <valuemax>200</valuemax>
                <value>24</value>
              </parameter>
              <parameter>
                <parameterid>track</parameterid>
                <name>Tracking</name>
                <valuemin>0</valuemin>
                <valuemax>100</valuemax>
                <value>1</value>
              </parameter>
              <parameter>
                <parameterid>lead</parameterid>
                <name>Leading</name>
                <valuemin>-100</valuemin>
                <valuemax>100</valuemax>
                <value>0</value>
              </parameter>
              <parameter>
                <parameterid>aspect</parameterid>
                <name>Aspect</name>
                <valuemin>0</valuemin>
                <valuemax>4</valuemax>
                <value>1</value>
              </parameter>
              <parameter>
                <parameterid>linewidth</parameterid>
                <name>Line Width</name>
                <valuemin>0</valuemin>
                <valuemax>200</valuemax>
                <value>2</value>
              </parameter>
              <parameter>
                <parameterid>linesoft</parameterid>
                <name>Line Softness</name>
                <valuemin>0</valuemin>
                <valuemax>100</valuemax>
                <value>5</value>
              </parameter>
              <parameter>
                <parameterid>textopacity</parameterid>
                <name>Text Opacity</name>
                <valuemin>0</valuemin>
                <valuemax>100</valuemax>
                <value>100</value>
              </parameter>
              <parameter>
                <parameterid>center</parameterid>
                <name>Center</name>
                <value>
                  <horiz>0</horiz>
                  <vert>0.4703703703703703</vert>
                </value>
              </parameter>
              <parameter>
                <parameterid>textcolor</parameterid>
                <name>Text Color</name>
                <value>
                  <alpha>255</alpha>
                  <red>255</red>
                  <green>255</green>
                  <blue>255</blue>
                </value>
              </parameter>
              <parameter>
                <parameterid>supertext</parameterid>
                <name>Text Graphic</name>
              </parameter>
              <parameter>
                <parameterid>linecolor</parameterid>
                <name>Line Color</name>
                <value>
                  <alpha>255</alpha>
                  <red>0</red>
                  <green>0</green>
                  <blue>0</blue>
                </value>
              </parameter>
              <parameter>
                <parameterid>superline</parameterid>
                <name>Line Graphic</name>
              </parameter>
              <parameter>
                <parameterid>part2</parameterid>
                <name>Background Settings</name>
              </parameter>
              <parameter>
                <parameterid>xscale</parameterid>
                <name>Horizontal Size</name>
                <valuemin>0</valuemin>
                <valuemax>200</valuemax>
                <value>0</value>
              </parameter>
              <parameter>
                <parameterid>yscale</parameterid>
                <name>Vertical Size</name>
                <valuemin>0</valuemin>
                <valuemax>200</valuemax>
                <value>0</value>
              </parameter>
              <parameter>
                <parameterid>xoffset</parameterid>
                <name>Horizontal Offset</name>
                <valuemin>-100</valuemin>
                <valuemax>100</valuemax>
                <value>0</value>
              </parameter>
              <parameter>
                <parameterid>yoffset</parameterid>
                <name>Vertical Offset</name>
                <valuemin>-100</valuemin>
                <valuemax>100</valuemax>
                <value>0</value>
              </parameter>
              <parameter>
                <parameterid>backsoft</parameterid>
                <name>Back Soft</name>
                <valuemin>0</valuemin>
                <valuemax>100</valuemax>
                <value>0</value>
              </parameter>
              <parameter>
                <parameterid>backopacity</parameterid>
                <name>Back Opacity</name>
                <valuemin>0</valuemin>
                <valuemax>100</valuemax>
                <value>50</value>
              </parameter>
              <parameter>
                <parameterid>backcolor</parameterid>
                <name>Back Color</name>
                <value>
                  <alpha>255</alpha>
                  <red>255</red>
                  <green>255</green>
                  <blue>255</blue>
                </value>
              </parameter>
              <parameter>
                <parameterid>superback</parameterid>
                <name>Back Graphic</name>
              </parameter>
              <parameter>
                <parameterid>crop</parameterid>
                <name>Crop</name>
                <value>false</value>
              </parameter>
              <parameter>
                <parameterid>autokern</parameterid>
                <name>Auto Kerning</name>
                <value>true</value>
              </parameter>
            </effect>
            <sourcetrack>
              <mediatype>video</mediatype>
            </sourcetrack>
          </generatoritem>
          <generatoritem id="Outline Text1">
            <name>でもアリちゃんカフェラテアリちゃんカフェラテは飲みたいカフェラテ飲みたいらしいです</name>
            <duration>22166.1117</duration>
            <rate>
              <timebase>30</timebase>
              <ntsc>true</ntsc>
            </rate>
            <start>18861.61949999996</start>
            <end>18982.997999999963</end>
            <in>18861.61949999996</in>
            <out>18982.997999999963</out>
            <enabled>true</enabled>
            <anamorphic>false</anamorphic>
            <alphatype>black</alphatype>
            <masterclipid>Outline Text1</masterclipid>
            <effect>
              <name>Outline Text</name>
              <effectid>Outline Text</effectid>
              <effectcategory>Text</effectcategory>
              <effecttype>generator</effecttype>
              <mediatype>video</mediatype>
              <parameter>
                <parameterid>part1</parameterid>
                <name>Text Settings</name>
                <value/>
              </parameter>
              <parameter>
                <parameterid>str</parameterid>
                <name>Text</name>
                <value>でもアリちゃんカフェラテアリちゃんカフェラテは飲みたいカフェラテ飲みたいらしいです</value>
              </parameter>
              <parameter>
                <parameterid>font</parameterid>
                <name>Font</name>
                <value>HiraginoSans-W6</value>
              </parameter>
              <parameter>
                <parameterid>style</parameterid>
                <name>Style</name>
                <valuemin>1</valuemin>
                <valuemax>1</valuemax>
                <valuelist>
                  <valueentry>
                    <name>Regular</name>
                    <value>1</value>
                  </valueentry>
                </valuelist>
                <value>1</value>
              </parameter>
              <parameter>
                <parameterid>align</parameterid>
                <name>Alignment</name>
                <valuemin>1</valuemin>
                <valuemax>3</valuemax>
                <valuelist>
                  <valueentry>
                    <name>Left</name>
                    <value>1</value>
                  </valueentry>
                  <valueentry>
                    <name>Center</name>
                    <value>2</value>
                  </valueentry>
                  <valueentry>
                    <name>Right</name>
                    <value>3</value>
                  </valueentry>
                </valuelist>
                <value>2</value>
              </parameter>
              <parameter>
                <parameterid>size</parameterid>
                <name>Size</name>
                <valuemin>0</valuemin>
                <valuemax>200</valuemax>
                <value>24</value>
              </parameter>
              <parameter>
                <parameterid>track</parameterid>
                <name>Tracking</name>
                <valuemin>0</valuemin>
                <valuemax>100</valuemax>
                <value>1</value>
              </parameter>
              <parameter>
                <parameterid>lead</parameterid>
                <name>Leading</name>
                <valuemin>-100</valuemin>
                <valuemax>100</valuemax>
                <value>0</value>
              </parameter>
              <parameter>
                <parameterid>aspect</parameterid>
                <name>Aspect</name>
                <valuemin>0</valuemin>
                <valuemax>4</valuemax>
                <value>1</value>
              </parameter>
              <parameter>
                <parameterid>linewidth</parameterid>
                <name>Line Width</name>
                <valuemin>0</valuemin>
                <valuemax>200</valuemax>
                <value>2</value>
              </parameter>
              <parameter>
                <parameterid>linesoft</parameterid>
                <name>Line Softness</name>
                <valuemin>0</valuemin>
                <valuemax>100</valuemax>
                <value>5</value>
              </parameter>
              <parameter>
                <parameterid>textopacity</parameterid>
                <name>Text Opacity</name>
                <valuemin>0</valuemin>
                <valuemax>100</valuemax>
                <value>100</value>
              </parameter>
              <parameter>
                <parameterid>center</parameterid>
                <name>Center</name>
                <value>
                  <horiz>0</horiz>
                  <vert>0.4703703703703703</vert>
                </value>
              </parameter>
              <parameter>
                <parameterid>textcolor</parameterid>
                <name>Text Color</name>
                <value>
                  <alpha>255</alpha>
                  <red>255</red>
                  <green>255</green>
                  <blue>255</blue>
                </value>
              </parameter>
              <parameter>
                <parameterid>supertext</parameterid>
                <name>Text Graphic</name>
              </parameter>
              <parameter>
                <parameterid>linecolor</parameterid>
                <name>Line Color</name>
                <value>
                  <alpha>255</alpha>
                  <red>0</red>
                  <green>0</green>
                  <blue>0</blue>
                </value>
              </parameter>
              <parameter>
                <parameterid>superline</parameterid>
                <name>Line Graphic</name>
              </parameter>
              <parameter>
                <parameterid>part2</parameterid>
                <name>Background Settings</name>
              </parameter>
              <parameter>
                <parameterid>xscale</parameterid>
                <name>Horizontal Size</name>
                <valuemin>0</valuemin>
                <valuemax>200</valuemax>
                <value>0</value>
              </parameter>
              <parameter>
                <parameterid>yscale</parameterid>
                <name>Vertical Size</name>
                <valuemin>0</valuemin>
                <valuemax>200</valuemax>
                <value>0</value>
              </parameter>
              <parameter>
                <parameterid>xoffset</parameterid>
                <name>Horizontal Offset</name>
                <valuemin>-100</valuemin>
                <valuemax>100</valuemax>
                <value>0</value>
              </parameter>
              <parameter>
                <parameterid>yoffset</parameterid>
                <name>Vertical Offset</name>
                <valuemin>-100</valuemin>
                <valuemax>100</valuemax>
                <value>0</value>
              </parameter>
              <parameter>
                <parameterid>backsoft</parameterid>
                <name>Back Soft</name>
                <valuemin>0</valuemin>
                <valuemax>100</valuemax>
                <value>0</value>
              </parameter>
              <parameter>
                <parameterid>backopacity</parameterid>
                <name>Back Opacity</name>
                <valuemin>0</valuemin>
                <valuemax>100</valuemax>
                <value>50</value>
              </parameter>
              <parameter>
                <parameterid>backcolor</parameterid>
                <name>Back Color</name>
                <value>
                  <alpha>255</alpha>
                  <red>255</red>
                  <green>255</green>
                  <blue>255</blue>
                </value>
              </parameter>
              <parameter>
                <parameterid>superback</parameterid>
                <name>Back Graphic</name>
              </parameter>
              <parameter>
                <parameterid>crop</parameterid>
                <name>Crop</name>
                <value>false</value>
              </parameter>
              <parameter>
                <parameterid>autokern</parameterid>
                <name>Auto Kerning</name>
                <value>true</value>
              </parameter>
            </effect>
            <sourcetrack>
              <mediatype>video</mediatype>
            </sourcetrack>
          </generatoritem>
          <generatoritem id="Outline Text1">
            <name>今日探してるって</name>
            <duration>22166.1117</duration>
            <rate>
              <timebase>30</timebase>
              <ntsc>true</ntsc>
            </rate>
            <start>18982.997999999963</start>
            <end>19047.433499999963</end>
            <in>18982.997999999963</in>
            <out>19047.433499999963</out>
            <enabled>true</enabled>
            <anamorphic>false</anamorphic>
            <alphatype>black</alphatype>
            <masterclipid>Outline Text1</masterclipid>
            <effect>
              <name>Outline Text</name>
              <effectid>Outline Text</effectid>
              <effectcategory>Text</effectcategory>
              <effecttype>generator</effecttype>
              <mediatype>video</mediatype>
              <parameter>
                <parameterid>part1</parameterid>
                <name>Text Settings</name>
                <value/>
              </parameter>
              <parameter>
                <parameterid>str</parameterid>
                <name>Text</name>
                <value>今日探してるって</value>
              </parameter>
              <parameter>
                <parameterid>font</parameterid>
                <name>Font</name>
                <value>HiraginoSans-W6</value>
              </parameter>
              <parameter>
                <parameterid>style</parameterid>
                <name>Style</name>
                <valuemin>1</valuemin>
                <valuemax>1</valuemax>
                <valuelist>
                  <valueentry>
                    <name>Regular</name>
                    <value>1</value>
                  </valueentry>
                </valuelist>
                <value>1</value>
              </parameter>
              <parameter>
                <parameterid>align</parameterid>
                <name>Alignment</name>
                <valuemin>1</valuemin>
                <valuemax>3</valuemax>
                <valuelist>
                  <valueentry>
                    <name>Left</name>
                    <value>1</value>
                  </valueentry>
                  <valueentry>
                    <name>Center</name>
                    <value>2</value>
                  </valueentry>
                  <valueentry>
                    <name>Right</name>
                    <value>3</value>
                  </valueentry>
                </valuelist>
                <value>2</value>
              </parameter>
              <parameter>
                <parameterid>size</parameterid>
                <name>Size</name>
                <valuemin>0</valuemin>
                <valuemax>200</valuemax>
                <value>24</value>
              </parameter>
              <parameter>
                <parameterid>track</parameterid>
                <name>Tracking</name>
                <valuemin>0</valuemin>
                <valuemax>100</valuemax>
                <value>1</value>
              </parameter>
              <parameter>
                <parameterid>lead</parameterid>
                <name>Leading</name>
                <valuemin>-100</valuemin>
                <valuemax>100</valuemax>
                <value>0</value>
              </parameter>
              <parameter>
                <parameterid>aspect</parameterid>
                <name>Aspect</name>
                <valuemin>0</valuemin>
                <valuemax>4</valuemax>
                <value>1</value>
              </parameter>
              <parameter>
                <parameterid>linewidth</parameterid>
                <name>Line Width</name>
                <valuemin>0</valuemin>
                <valuemax>200</valuemax>
                <value>2</value>
              </parameter>
              <parameter>
                <parameterid>linesoft</parameterid>
                <name>Line Softness</name>
                <valuemin>0</valuemin>
                <valuemax>100</valuemax>
                <value>5</value>
              </parameter>
              <parameter>
                <parameterid>textopacity</parameterid>
                <name>Text Opacity</name>
                <valuemin>0</valuemin>
                <valuemax>100</valuemax>
                <value>100</value>
              </parameter>
              <parameter>
                <parameterid>center</parameterid>
                <name>Center</name>
                <value>
                  <horiz>0</horiz>
                  <vert>0.4703703703703703</vert>
                </value>
              </parameter>
              <parameter>
                <parameterid>textcolor</parameterid>
                <name>Text Color</name>
                <value>
                  <alpha>255</alpha>
                  <red>255</red>
                  <green>255</green>
                  <blue>255</blue>
                </value>
              </parameter>
              <parameter>
                <parameterid>supertext</parameterid>
                <name>Text Graphic</name>
              </parameter>
              <parameter>
                <parameterid>linecolor</parameterid>
                <name>Line Color</name>
                <value>
                  <alpha>255</alpha>
                  <red>0</red>
                  <green>0</green>
                  <blue>0</blue>
                </value>
              </parameter>
              <parameter>
                <parameterid>superline</parameterid>
                <name>Line Graphic</name>
              </parameter>
              <parameter>
                <parameterid>part2</parameterid>
                <name>Background Settings</name>
              </parameter>
              <parameter>
                <parameterid>xscale</parameterid>
                <name>Horizontal Size</name>
                <valuemin>0</valuemin>
                <valuemax>200</valuemax>
                <value>0</value>
              </parameter>
              <parameter>
                <parameterid>yscale</parameterid>
                <name>Vertical Size</name>
                <valuemin>0</valuemin>
                <valuemax>200</valuemax>
                <value>0</value>
              </parameter>
              <parameter>
                <parameterid>xoffset</parameterid>
                <name>Horizontal Offset</name>
                <valuemin>-100</valuemin>
                <valuemax>100</valuemax>
                <value>0</value>
              </parameter>
              <parameter>
                <parameterid>yoffset</parameterid>
                <name>Vertical Offset</name>
                <valuemin>-100</valuemin>
                <valuemax>100</valuemax>
                <value>0</value>
              </parameter>
              <parameter>
                <parameterid>backsoft</parameterid>
                <name>Back Soft</name>
                <valuemin>0</valuemin>
                <valuemax>100</valuemax>
                <value>0</value>
              </parameter>
              <parameter>
                <parameterid>backopacity</parameterid>
                <name>Back Opacity</name>
                <valuemin>0</valuemin>
                <valuemax>100</valuemax>
                <value>50</value>
              </parameter>
              <parameter>
                <parameterid>backcolor</parameterid>
                <name>Back Color</name>
                <value>
                  <alpha>255</alpha>
                  <red>255</red>
                  <green>255</green>
                  <blue>255</blue>
                </value>
              </parameter>
              <parameter>
                <parameterid>superback</parameterid>
                <name>Back Graphic</name>
              </parameter>
              <parameter>
                <parameterid>crop</parameterid>
                <name>Crop</name>
                <value>false</value>
              </parameter>
              <parameter>
                <parameterid>autokern</parameterid>
                <name>Auto Kerning</name>
                <value>true</value>
              </parameter>
            </effect>
            <sourcetrack>
              <mediatype>video</mediatype>
            </sourcetrack>
          </generatoritem>
          <generatoritem id="Outline Text1">
            <name>美味しいうん</name>
            <duration>22166.1117</duration>
            <rate>
              <timebase>30</timebase>
              <ntsc>true</ntsc>
            </rate>
            <start>19047.433499999963</start>
            <end>19118.162699999964</end>
            <in>19047.433499999963</in>
            <out>19118.162699999964</out>
            <enabled>true</enabled>
            <anamorphic>false</anamorphic>
            <alphatype>black</alphatype>
            <masterclipid>Outline Text1</masterclipid>
            <effect>
              <name>Outline Text</name>
              <effectid>Outline Text</effectid>
              <effectcategory>Text</effectcategory>
              <effecttype>generator</effecttype>
              <mediatype>video</mediatype>
              <parameter>
                <parameterid>part1</parameterid>
                <name>Text Settings</name>
                <value/>
              </parameter>
              <parameter>
                <parameterid>str</parameterid>
                <name>Text</name>
                <value>美味しいうん</value>
              </parameter>
              <parameter>
                <parameterid>font</parameterid>
                <name>Font</name>
                <value>HiraginoSans-W6</value>
              </parameter>
              <parameter>
                <parameterid>style</parameterid>
                <name>Style</name>
                <valuemin>1</valuemin>
                <valuemax>1</valuemax>
                <valuelist>
                  <valueentry>
                    <name>Regular</name>
                    <value>1</value>
                  </valueentry>
                </valuelist>
                <value>1</value>
              </parameter>
              <parameter>
                <parameterid>align</parameterid>
                <name>Alignment</name>
                <valuemin>1</valuemin>
                <valuemax>3</valuemax>
                <valuelist>
                  <valueentry>
                    <name>Left</name>
                    <value>1</value>
                  </valueentry>
                  <valueentry>
                    <name>Center</name>
                    <value>2</value>
                  </valueentry>
                  <valueentry>
                    <name>Right</name>
                    <value>3</value>
                  </valueentry>
                </valuelist>
                <value>2</value>
              </parameter>
              <parameter>
                <parameterid>size</parameterid>
                <name>Size</name>
                <valuemin>0</valuemin>
                <valuemax>200</valuemax>
                <value>24</value>
              </parameter>
              <parameter>
                <parameterid>track</parameterid>
                <name>Tracking</name>
                <valuemin>0</valuemin>
                <valuemax>100</valuemax>
                <value>1</value>
              </parameter>
              <parameter>
                <parameterid>lead</parameterid>
                <name>Leading</name>
                <valuemin>-100</valuemin>
                <valuemax>100</valuemax>
                <value>0</value>
              </parameter>
              <parameter>
                <parameterid>aspect</parameterid>
                <name>Aspect</name>
                <valuemin>0</valuemin>
                <valuemax>4</valuemax>
                <value>1</value>
              </parameter>
              <parameter>
                <parameterid>linewidth</parameterid>
                <name>Line Width</name>
                <valuemin>0</valuemin>
                <valuemax>200</valuemax>
                <value>2</value>
              </parameter>
              <parameter>
                <parameterid>linesoft</parameterid>
                <name>Line Softness</name>
                <valuemin>0</valuemin>
                <valuemax>100</valuemax>
                <value>5</value>
              </parameter>
              <parameter>
                <parameterid>textopacity</parameterid>
                <name>Text Opacity</name>
                <valuemin>0</valuemin>
                <valuemax>100</valuemax>
                <value>100</value>
              </parameter>
              <parameter>
                <parameterid>center</parameterid>
                <name>Center</name>
                <value>
                  <horiz>0</horiz>
                  <vert>0.4703703703703703</vert>
                </value>
              </parameter>
              <parameter>
                <parameterid>textcolor</parameterid>
                <name>Text Color</name>
                <value>
                  <alpha>255</alpha>
                  <red>255</red>
                  <green>255</green>
                  <blue>255</blue>
                </value>
              </parameter>
              <parameter>
                <parameterid>supertext</parameterid>
                <name>Text Graphic</name>
              </parameter>
              <parameter>
                <parameterid>linecolor</parameterid>
                <name>Line Color</name>
                <value>
                  <alpha>255</alpha>
                  <red>0</red>
                  <green>0</green>
                  <blue>0</blue>
                </value>
              </parameter>
              <parameter>
                <parameterid>superline</parameterid>
                <name>Line Graphic</name>
              </parameter>
              <parameter>
                <parameterid>part2</parameterid>
                <name>Background Settings</name>
              </parameter>
              <parameter>
                <parameterid>xscale</parameterid>
                <name>Horizontal Size</name>
                <valuemin>0</valuemin>
                <valuemax>200</valuemax>
                <value>0</value>
              </parameter>
              <parameter>
                <parameterid>yscale</parameterid>
                <name>Vertical Size</name>
                <valuemin>0</valuemin>
                <valuemax>200</valuemax>
                <value>0</value>
              </parameter>
              <parameter>
                <parameterid>xoffset</parameterid>
                <name>Horizontal Offset</name>
                <valuemin>-100</valuemin>
                <valuemax>100</valuemax>
                <value>0</value>
              </parameter>
              <parameter>
                <parameterid>yoffset</parameterid>
                <name>Vertical Offset</name>
                <valuemin>-100</valuemin>
                <valuemax>100</valuemax>
                <value>0</value>
              </parameter>
              <parameter>
                <parameterid>backsoft</parameterid>
                <name>Back Soft</name>
                <valuemin>0</valuemin>
                <valuemax>100</valuemax>
                <value>0</value>
              </parameter>
              <parameter>
                <parameterid>backopacity</parameterid>
                <name>Back Opacity</name>
                <valuemin>0</valuemin>
                <valuemax>100</valuemax>
                <value>50</value>
              </parameter>
              <parameter>
                <parameterid>backcolor</parameterid>
                <name>Back Color</name>
                <value>
                  <alpha>255</alpha>
                  <red>255</red>
                  <green>255</green>
                  <blue>255</blue>
                </value>
              </parameter>
              <parameter>
                <parameterid>superback</parameterid>
                <name>Back Graphic</name>
              </parameter>
              <parameter>
                <parameterid>crop</parameterid>
                <name>Crop</name>
                <value>false</value>
              </parameter>
              <parameter>
                <parameterid>autokern</parameterid>
                <name>Auto Kerning</name>
                <value>true</value>
              </parameter>
            </effect>
            <sourcetrack>
              <mediatype>video</mediatype>
            </sourcetrack>
          </generatoritem>
          <generatoritem id="Outline Text1">
            <name>もう一口ぐらいさ</name>
            <duration>22166.1117</duration>
            <rate>
              <timebase>30</timebase>
              <ntsc>true</ntsc>
            </rate>
            <start>19118.162699999964</start>
            <end>19167.613199999967</end>
            <in>19118.162699999964</in>
            <out>19167.613199999967</out>
            <enabled>true</enabled>
            <anamorphic>false</anamorphic>
            <alphatype>black</alphatype>
            <masterclipid>Outline Text1</masterclipid>
            <effect>
              <name>Outline Text</name>
              <effectid>Outline Text</effectid>
              <effectcategory>Text</effectcategory>
              <effecttype>generator</effecttype>
              <mediatype>video</mediatype>
              <parameter>
                <parameterid>part1</parameterid>
                <name>Text Settings</name>
                <value/>
              </parameter>
              <parameter>
                <parameterid>str</parameterid>
                <name>Text</name>
                <value>もう一口ぐらいさ</value>
              </parameter>
              <parameter>
                <parameterid>font</parameterid>
                <name>Font</name>
                <value>HiraginoSans-W6</value>
              </parameter>
              <parameter>
                <parameterid>style</parameterid>
                <name>Style</name>
                <valuemin>1</valuemin>
                <valuemax>1</valuemax>
                <valuelist>
                  <valueentry>
                    <name>Regular</name>
                    <value>1</value>
                  </valueentry>
                </valuelist>
                <value>1</value>
              </parameter>
              <parameter>
                <parameterid>align</parameterid>
                <name>Alignment</name>
                <valuemin>1</valuemin>
                <valuemax>3</valuemax>
                <valuelist>
                  <valueentry>
                    <name>Left</name>
                    <value>1</value>
                  </valueentry>
                  <valueentry>
                    <name>Center</name>
                    <value>2</value>
                  </valueentry>
                  <valueentry>
                    <name>Right</name>
                    <value>3</value>
                  </valueentry>
                </valuelist>
                <value>2</value>
              </parameter>
              <parameter>
                <parameterid>size</parameterid>
                <name>Size</name>
                <valuemin>0</valuemin>
                <valuemax>200</valuemax>
                <value>24</value>
              </parameter>
              <parameter>
                <parameterid>track</parameterid>
                <name>Tracking</name>
                <valuemin>0</valuemin>
                <valuemax>100</valuemax>
                <value>1</value>
              </parameter>
              <parameter>
                <parameterid>lead</parameterid>
                <name>Leading</name>
                <valuemin>-100</valuemin>
                <valuemax>100</valuemax>
                <value>0</value>
              </parameter>
              <parameter>
                <parameterid>aspect</parameterid>
                <name>Aspect</name>
                <valuemin>0</valuemin>
                <valuemax>4</valuemax>
                <value>1</value>
              </parameter>
              <parameter>
                <parameterid>linewidth</parameterid>
                <name>Line Width</name>
                <valuemin>0</valuemin>
                <valuemax>200</valuemax>
                <value>2</value>
              </parameter>
              <parameter>
                <parameterid>linesoft</parameterid>
                <name>Line Softness</name>
                <valuemin>0</valuemin>
                <valuemax>100</valuemax>
                <value>5</value>
              </parameter>
              <parameter>
                <parameterid>textopacity</parameterid>
                <name>Text Opacity</name>
                <valuemin>0</valuemin>
                <valuemax>100</valuemax>
                <value>100</value>
              </parameter>
              <parameter>
                <parameterid>center</parameterid>
                <name>Center</name>
                <value>
                  <horiz>0</horiz>
                  <vert>0.4703703703703703</vert>
                </value>
              </parameter>
              <parameter>
                <parameterid>textcolor</parameterid>
                <name>Text Color</name>
                <value>
                  <alpha>255</alpha>
                  <red>255</red>
                  <green>255</green>
                  <blue>255</blue>
                </value>
              </parameter>
              <parameter>
                <parameterid>supertext</parameterid>
                <name>Text Graphic</name>
              </parameter>
              <parameter>
                <parameterid>linecolor</parameterid>
                <name>Line Color</name>
                <value>
                  <alpha>255</alpha>
                  <red>0</red>
                  <green>0</green>
                  <blue>0</blue>
                </value>
              </parameter>
              <parameter>
                <parameterid>superline</parameterid>
                <name>Line Graphic</name>
              </parameter>
              <parameter>
                <parameterid>part2</parameterid>
                <name>Background Settings</name>
              </parameter>
              <parameter>
                <parameterid>xscale</parameterid>
                <name>Horizontal Size</name>
                <valuemin>0</valuemin>
                <valuemax>200</valuemax>
                <value>0</value>
              </parameter>
              <parameter>
                <parameterid>yscale</parameterid>
                <name>Vertical Size</name>
                <valuemin>0</valuemin>
                <valuemax>200</valuemax>
                <value>0</value>
              </parameter>
              <parameter>
                <parameterid>xoffset</parameterid>
                <name>Horizontal Offset</name>
                <valuemin>-100</valuemin>
                <valuemax>100</valuemax>
                <value>0</value>
              </parameter>
              <parameter>
                <parameterid>yoffset</parameterid>
                <name>Vertical Offset</name>
                <valuemin>-100</valuemin>
                <valuemax>100</valuemax>
                <value>0</value>
              </parameter>
              <parameter>
                <parameterid>backsoft</parameterid>
                <name>Back Soft</name>
                <valuemin>0</valuemin>
                <valuemax>100</valuemax>
                <value>0</value>
              </parameter>
              <parameter>
                <parameterid>backopacity</parameterid>
                <name>Back Opacity</name>
                <valuemin>0</valuemin>
                <valuemax>100</valuemax>
                <value>50</value>
              </parameter>
              <parameter>
                <parameterid>backcolor</parameterid>
                <name>Back Color</name>
                <value>
                  <alpha>255</alpha>
                  <red>255</red>
                  <green>255</green>
                  <blue>255</blue>
                </value>
              </parameter>
              <parameter>
                <parameterid>superback</parameterid>
                <name>Back Graphic</name>
              </parameter>
              <parameter>
                <parameterid>crop</parameterid>
                <name>Crop</name>
                <value>false</value>
              </parameter>
              <parameter>
                <parameterid>autokern</parameterid>
                <name>Auto Kerning</name>
                <value>true</value>
              </parameter>
            </effect>
            <sourcetrack>
              <mediatype>video</mediatype>
            </sourcetrack>
          </generatoritem>
          <generatoritem id="Outline Text1">
            <name>ほんまっけあんずちょっとしか食べてなかったよ</name>
            <duration>22166.1117</duration>
            <rate>
              <timebase>30</timebase>
              <ntsc>true</ntsc>
            </rate>
            <start>19167.613199999967</start>
            <end>19268.012699999963</end>
            <in>19167.613199999967</in>
            <out>19268.012699999963</out>
            <enabled>true</enabled>
            <anamorphic>false</anamorphic>
            <alphatype>black</alphatype>
            <masterclipid>Outline Text1</masterclipid>
            <effect>
              <name>Outline Text</name>
              <effectid>Outline Text</effectid>
              <effectcategory>Text</effectcategory>
              <effecttype>generator</effecttype>
              <mediatype>video</mediatype>
              <parameter>
                <parameterid>part1</parameterid>
                <name>Text Settings</name>
                <value/>
              </parameter>
              <parameter>
                <parameterid>str</parameterid>
                <name>Text</name>
                <value>ほんまっけあんずちょっとしか食べてなかったよ</value>
              </parameter>
              <parameter>
                <parameterid>font</parameterid>
                <name>Font</name>
                <value>HiraginoSans-W6</value>
              </parameter>
              <parameter>
                <parameterid>style</parameterid>
                <name>Style</name>
                <valuemin>1</valuemin>
                <valuemax>1</valuemax>
                <valuelist>
                  <valueentry>
                    <name>Regular</name>
                    <value>1</value>
                  </valueentry>
                </valuelist>
                <value>1</value>
              </parameter>
              <parameter>
                <parameterid>align</parameterid>
                <name>Alignment</name>
                <valuemin>1</valuemin>
                <valuemax>3</valuemax>
                <valuelist>
                  <valueentry>
                    <name>Left</name>
                    <value>1</value>
                  </valueentry>
                  <valueentry>
                    <name>Center</name>
                    <value>2</value>
                  </valueentry>
                  <valueentry>
                    <name>Right</name>
                    <value>3</value>
                  </valueentry>
                </valuelist>
                <value>2</value>
              </parameter>
              <parameter>
                <parameterid>size</parameterid>
                <name>Size</name>
                <valuemin>0</valuemin>
                <valuemax>200</valuemax>
                <value>24</value>
              </parameter>
              <parameter>
                <parameterid>track</parameterid>
                <name>Tracking</name>
                <valuemin>0</valuemin>
                <valuemax>100</valuemax>
                <value>1</value>
              </parameter>
              <parameter>
                <parameterid>lead</parameterid>
                <name>Leading</name>
                <valuemin>-100</valuemin>
                <valuemax>100</valuemax>
                <value>0</value>
              </parameter>
              <parameter>
                <parameterid>aspect</parameterid>
                <name>Aspect</name>
                <valuemin>0</valuemin>
                <valuemax>4</valuemax>
                <value>1</value>
              </parameter>
              <parameter>
                <parameterid>linewidth</parameterid>
                <name>Line Width</name>
                <valuemin>0</valuemin>
                <valuemax>200</valuemax>
                <value>2</value>
              </parameter>
              <parameter>
                <parameterid>linesoft</parameterid>
                <name>Line Softness</name>
                <valuemin>0</valuemin>
                <valuemax>100</valuemax>
                <value>5</value>
              </parameter>
              <parameter>
                <parameterid>textopacity</parameterid>
                <name>Text Opacity</name>
                <valuemin>0</valuemin>
                <valuemax>100</valuemax>
                <value>100</value>
              </parameter>
              <parameter>
                <parameterid>center</parameterid>
                <name>Center</name>
                <value>
                  <horiz>0</horiz>
                  <vert>0.4703703703703703</vert>
                </value>
              </parameter>
              <parameter>
                <parameterid>textcolor</parameterid>
                <name>Text Color</name>
                <value>
                  <alpha>255</alpha>
                  <red>255</red>
                  <green>255</green>
                  <blue>255</blue>
                </value>
              </parameter>
              <parameter>
                <parameterid>supertext</parameterid>
                <name>Text Graphic</name>
              </parameter>
              <parameter>
                <parameterid>linecolor</parameterid>
                <name>Line Color</name>
                <value>
                  <alpha>255</alpha>
                  <red>0</red>
                  <green>0</green>
                  <blue>0</blue>
                </value>
              </parameter>
              <parameter>
                <parameterid>superline</parameterid>
                <name>Line Graphic</name>
              </parameter>
              <parameter>
                <parameterid>part2</parameterid>
                <name>Background Settings</name>
              </parameter>
              <parameter>
                <parameterid>xscale</parameterid>
                <name>Horizontal Size</name>
                <valuemin>0</valuemin>
                <valuemax>200</valuemax>
                <value>0</value>
              </parameter>
              <parameter>
                <parameterid>yscale</parameterid>
                <name>Vertical Size</name>
                <valuemin>0</valuemin>
                <valuemax>200</valuemax>
                <value>0</value>
              </parameter>
              <parameter>
                <parameterid>xoffset</parameterid>
                <name>Horizontal Offset</name>
                <valuemin>-100</valuemin>
                <valuemax>100</valuemax>
                <value>0</value>
              </parameter>
              <parameter>
                <parameterid>yoffset</parameterid>
                <name>Vertical Offset</name>
                <valuemin>-100</valuemin>
                <valuemax>100</valuemax>
                <value>0</value>
              </parameter>
              <parameter>
                <parameterid>backsoft</parameterid>
                <name>Back Soft</name>
                <valuemin>0</valuemin>
                <valuemax>100</valuemax>
                <value>0</value>
              </parameter>
              <parameter>
                <parameterid>backopacity</parameterid>
                <name>Back Opacity</name>
                <valuemin>0</valuemin>
                <valuemax>100</valuemax>
                <value>50</value>
              </parameter>
              <parameter>
                <parameterid>backcolor</parameterid>
                <name>Back Color</name>
                <value>
                  <alpha>255</alpha>
                  <red>255</red>
                  <green>255</green>
                  <blue>255</blue>
                </value>
              </parameter>
              <parameter>
                <parameterid>superback</parameterid>
                <name>Back Graphic</name>
              </parameter>
              <parameter>
                <parameterid>crop</parameterid>
                <name>Crop</name>
                <value>false</value>
              </parameter>
              <parameter>
                <parameterid>autokern</parameterid>
                <name>Auto Kerning</name>
                <value>true</value>
              </parameter>
            </effect>
            <sourcetrack>
              <mediatype>video</mediatype>
            </sourcetrack>
          </generatoritem>
          <generatoritem id="Outline Text1">
            <name>大丈夫上って下から</name>
            <duration>22166.1117</duration>
            <rate>
              <timebase>30</timebase>
              <ntsc>true</ntsc>
            </rate>
            <start>19268.012699999963</start>
            <end>19307.573099999965</end>
            <in>19268.012699999963</in>
            <out>19307.573099999965</out>
            <enabled>true</enabled>
            <anamorphic>false</anamorphic>
            <alphatype>black</alphatype>
            <masterclipid>Outline Text1</masterclipid>
            <effect>
              <name>Outline Text</name>
              <effectid>Outline Text</effectid>
              <effectcategory>Text</effectcategory>
              <effecttype>generator</effecttype>
              <mediatype>video</mediatype>
              <parameter>
                <parameterid>part1</parameterid>
                <name>Text Settings</name>
                <value/>
              </parameter>
              <parameter>
                <parameterid>str</parameterid>
                <name>Text</name>
                <value>大丈夫上って下から</value>
              </parameter>
              <parameter>
                <parameterid>font</parameterid>
                <name>Font</name>
                <value>HiraginoSans-W6</value>
              </parameter>
              <parameter>
                <parameterid>style</parameterid>
                <name>Style</name>
                <valuemin>1</valuemin>
                <valuemax>1</valuemax>
                <valuelist>
                  <valueentry>
                    <name>Regular</name>
                    <value>1</value>
                  </valueentry>
                </valuelist>
                <value>1</value>
              </parameter>
              <parameter>
                <parameterid>align</parameterid>
                <name>Alignment</name>
                <valuemin>1</valuemin>
                <valuemax>3</valuemax>
                <valuelist>
                  <valueentry>
                    <name>Left</name>
                    <value>1</value>
                  </valueentry>
                  <valueentry>
                    <name>Center</name>
                    <value>2</value>
                  </valueentry>
                  <valueentry>
                    <name>Right</name>
                    <value>3</value>
                  </valueentry>
                </valuelist>
                <value>2</value>
              </parameter>
              <parameter>
                <parameterid>size</parameterid>
                <name>Size</name>
                <valuemin>0</valuemin>
                <valuemax>200</valuemax>
                <value>24</value>
              </parameter>
              <parameter>
                <parameterid>track</parameterid>
                <name>Tracking</name>
                <valuemin>0</valuemin>
                <valuemax>100</valuemax>
                <value>1</value>
              </parameter>
              <parameter>
                <parameterid>lead</parameterid>
                <name>Leading</name>
                <valuemin>-100</valuemin>
                <valuemax>100</valuemax>
                <value>0</value>
              </parameter>
              <parameter>
                <parameterid>aspect</parameterid>
                <name>Aspect</name>
                <valuemin>0</valuemin>
                <valuemax>4</valuemax>
                <value>1</value>
              </parameter>
              <parameter>
                <parameterid>linewidth</parameterid>
                <name>Line Width</name>
                <valuemin>0</valuemin>
                <valuemax>200</valuemax>
                <value>2</value>
              </parameter>
              <parameter>
                <parameterid>linesoft</parameterid>
                <name>Line Softness</name>
                <valuemin>0</valuemin>
                <valuemax>100</valuemax>
                <value>5</value>
              </parameter>
              <parameter>
                <parameterid>textopacity</parameterid>
                <name>Text Opacity</name>
                <valuemin>0</valuemin>
                <valuemax>100</valuemax>
                <value>100</value>
              </parameter>
              <parameter>
                <parameterid>center</parameterid>
                <name>Center</name>
                <value>
                  <horiz>0</horiz>
                  <vert>0.4703703703703703</vert>
                </value>
              </parameter>
              <parameter>
                <parameterid>textcolor</parameterid>
                <name>Text Color</name>
                <value>
                  <alpha>255</alpha>
                  <red>255</red>
                  <green>255</green>
                  <blue>255</blue>
                </value>
              </parameter>
              <parameter>
                <parameterid>supertext</parameterid>
                <name>Text Graphic</name>
              </parameter>
              <parameter>
                <parameterid>linecolor</parameterid>
                <name>Line Color</name>
                <value>
                  <alpha>255</alpha>
                  <red>0</red>
                  <green>0</green>
                  <blue>0</blue>
                </value>
              </parameter>
              <parameter>
                <parameterid>superline</parameterid>
                <name>Line Graphic</name>
              </parameter>
              <parameter>
                <parameterid>part2</parameterid>
                <name>Background Settings</name>
              </parameter>
              <parameter>
                <parameterid>xscale</parameterid>
                <name>Horizontal Size</name>
                <valuemin>0</valuemin>
                <valuemax>200</valuemax>
                <value>0</value>
              </parameter>
              <parameter>
                <parameterid>yscale</parameterid>
                <name>Vertical Size</name>
                <valuemin>0</valuemin>
                <valuemax>200</valuemax>
                <value>0</value>
              </parameter>
              <parameter>
                <parameterid>xoffset</parameterid>
                <name>Horizontal Offset</name>
                <valuemin>-100</valuemin>
                <valuemax>100</valuemax>
                <value>0</value>
              </parameter>
              <parameter>
                <parameterid>yoffset</parameterid>
                <name>Vertical Offset</name>
                <valuemin>-100</valuemin>
                <valuemax>100</valuemax>
                <value>0</value>
              </parameter>
              <parameter>
                <parameterid>backsoft</parameterid>
                <name>Back Soft</name>
                <valuemin>0</valuemin>
                <valuemax>100</valuemax>
                <value>0</value>
              </parameter>
              <parameter>
                <parameterid>backopacity</parameterid>
                <name>Back Opacity</name>
                <valuemin>0</valuemin>
                <valuemax>100</valuemax>
                <value>50</value>
              </parameter>
              <parameter>
                <parameterid>backcolor</parameterid>
                <name>Back Color</name>
                <value>
                  <alpha>255</alpha>
                  <red>255</red>
                  <green>255</green>
                  <blue>255</blue>
                </value>
              </parameter>
              <parameter>
                <parameterid>superback</parameterid>
                <name>Back Graphic</name>
              </parameter>
              <parameter>
                <parameterid>crop</parameterid>
                <name>Crop</name>
                <value>false</value>
              </parameter>
              <parameter>
                <parameterid>autokern</parameterid>
                <name>Auto Kerning</name>
                <value>true</value>
              </parameter>
            </effect>
            <sourcetrack>
              <mediatype>video</mediatype>
            </sourcetrack>
          </generatoritem>
          <generatoritem id="Outline Text1">
            <name>しっかり噛んで噛んで</name>
            <duration>22166.1117</duration>
            <rate>
              <timebase>30</timebase>
              <ntsc>true</ntsc>
            </rate>
            <start>19307.573099999965</start>
            <end>19372.30829999997</end>
            <in>19307.573099999965</in>
            <out>19372.30829999997</out>
            <enabled>true</enabled>
            <anamorphic>false</anamorphic>
            <alphatype>black</alphatype>
            <masterclipid>Outline Text1</masterclipid>
            <effect>
              <name>Outline Text</name>
              <effectid>Outline Text</effectid>
              <effectcategory>Text</effectcategory>
              <effecttype>generator</effecttype>
              <mediatype>video</mediatype>
              <parameter>
                <parameterid>part1</parameterid>
                <name>Text Settings</name>
                <value/>
              </parameter>
              <parameter>
                <parameterid>str</parameterid>
                <name>Text</name>
                <value>しっかり噛んで噛んで</value>
              </parameter>
              <parameter>
                <parameterid>font</parameterid>
                <name>Font</name>
                <value>HiraginoSans-W6</value>
              </parameter>
              <parameter>
                <parameterid>style</parameterid>
                <name>Style</name>
                <valuemin>1</valuemin>
                <valuemax>1</valuemax>
                <valuelist>
                  <valueentry>
                    <name>Regular</name>
                    <value>1</value>
                  </valueentry>
                </valuelist>
                <value>1</value>
              </parameter>
              <parameter>
                <parameterid>align</parameterid>
                <name>Alignment</name>
                <valuemin>1</valuemin>
                <valuemax>3</valuemax>
                <valuelist>
                  <valueentry>
                    <name>Left</name>
                    <value>1</value>
                  </valueentry>
                  <valueentry>
                    <name>Center</name>
                    <value>2</value>
                  </valueentry>
                  <valueentry>
                    <name>Right</name>
                    <value>3</value>
                  </valueentry>
                </valuelist>
                <value>2</value>
              </parameter>
              <parameter>
                <parameterid>size</parameterid>
                <name>Size</name>
                <valuemin>0</valuemin>
                <valuemax>200</valuemax>
                <value>24</value>
              </parameter>
              <parameter>
                <parameterid>track</parameterid>
                <name>Tracking</name>
                <valuemin>0</valuemin>
                <valuemax>100</valuemax>
                <value>1</value>
              </parameter>
              <parameter>
                <parameterid>lead</parameterid>
                <name>Leading</name>
                <valuemin>-100</valuemin>
                <valuemax>100</valuemax>
                <value>0</value>
              </parameter>
              <parameter>
                <parameterid>aspect</parameterid>
                <name>Aspect</name>
                <valuemin>0</valuemin>
                <valuemax>4</valuemax>
                <value>1</value>
              </parameter>
              <parameter>
                <parameterid>linewidth</parameterid>
                <name>Line Width</name>
                <valuemin>0</valuemin>
                <valuemax>200</valuemax>
                <value>2</value>
              </parameter>
              <parameter>
                <parameterid>linesoft</parameterid>
                <name>Line Softness</name>
                <valuemin>0</valuemin>
                <valuemax>100</valuemax>
                <value>5</value>
              </parameter>
              <parameter>
                <parameterid>textopacity</parameterid>
                <name>Text Opacity</name>
                <valuemin>0</valuemin>
                <valuemax>100</valuemax>
                <value>100</value>
              </parameter>
              <parameter>
                <parameterid>center</parameterid>
                <name>Center</name>
                <value>
                  <horiz>0</horiz>
                  <vert>0.4703703703703703</vert>
                </value>
              </parameter>
              <parameter>
                <parameterid>textcolor</parameterid>
                <name>Text Color</name>
                <value>
                  <alpha>255</alpha>
                  <red>255</red>
                  <green>255</green>
                  <blue>255</blue>
                </value>
              </parameter>
              <parameter>
                <parameterid>supertext</parameterid>
                <name>Text Graphic</name>
              </parameter>
              <parameter>
                <parameterid>linecolor</parameterid>
                <name>Line Color</name>
                <value>
                  <alpha>255</alpha>
                  <red>0</red>
                  <green>0</green>
                  <blue>0</blue>
                </value>
              </parameter>
              <parameter>
                <parameterid>superline</parameterid>
                <name>Line Graphic</name>
              </parameter>
              <parameter>
                <parameterid>part2</parameterid>
                <name>Background Settings</name>
              </parameter>
              <parameter>
                <parameterid>xscale</parameterid>
                <name>Horizontal Size</name>
                <valuemin>0</valuemin>
                <valuemax>200</valuemax>
                <value>0</value>
              </parameter>
              <parameter>
                <parameterid>yscale</parameterid>
                <name>Vertical Size</name>
                <valuemin>0</valuemin>
                <valuemax>200</valuemax>
                <value>0</value>
              </parameter>
              <parameter>
                <parameterid>xoffset</parameterid>
                <name>Horizontal Offset</name>
                <valuemin>-100</valuemin>
                <valuemax>100</valuemax>
                <value>0</value>
              </parameter>
              <parameter>
                <parameterid>yoffset</parameterid>
                <name>Vertical Offset</name>
                <valuemin>-100</valuemin>
                <valuemax>100</valuemax>
                <value>0</value>
              </parameter>
              <parameter>
                <parameterid>backsoft</parameterid>
                <name>Back Soft</name>
                <valuemin>0</valuemin>
                <valuemax>100</valuemax>
                <value>0</value>
              </parameter>
              <parameter>
                <parameterid>backopacity</parameterid>
                <name>Back Opacity</name>
                <valuemin>0</valuemin>
                <valuemax>100</valuemax>
                <value>50</value>
              </parameter>
              <parameter>
                <parameterid>backcolor</parameterid>
                <name>Back Color</name>
                <value>
                  <alpha>255</alpha>
                  <red>255</red>
                  <green>255</green>
                  <blue>255</blue>
                </value>
              </parameter>
              <parameter>
                <parameterid>superback</parameterid>
                <name>Back Graphic</name>
              </parameter>
              <parameter>
                <parameterid>crop</parameterid>
                <name>Crop</name>
                <value>false</value>
              </parameter>
              <parameter>
                <parameterid>autokern</parameterid>
                <name>Auto Kerning</name>
                <value>true</value>
              </parameter>
            </effect>
            <sourcetrack>
              <mediatype>video</mediatype>
            </sourcetrack>
          </generatoritem>
          <generatoritem id="Outline Text1">
            <name>あそうそうそううんうんうんあんず感じれた?</name>
            <duration>22166.1117</duration>
            <rate>
              <timebase>30</timebase>
              <ntsc>true</ntsc>
            </rate>
            <start>19372.30829999997</start>
            <end>19502.37809999997</end>
            <in>19372.30829999997</in>
            <out>19502.37809999997</out>
            <enabled>true</enabled>
            <anamorphic>false</anamorphic>
            <alphatype>black</alphatype>
            <masterclipid>Outline Text1</masterclipid>
            <effect>
              <name>Outline Text</name>
              <effectid>Outline Text</effectid>
              <effectcategory>Text</effectcategory>
              <effecttype>generator</effecttype>
              <mediatype>video</mediatype>
              <parameter>
                <parameterid>part1</parameterid>
                <name>Text Settings</name>
                <value/>
              </parameter>
              <parameter>
                <parameterid>str</parameterid>
                <name>Text</name>
                <value>あそうそうそううんうんうんあんず感じれた?</value>
              </parameter>
              <parameter>
                <parameterid>font</parameterid>
                <name>Font</name>
                <value>HiraginoSans-W6</value>
              </parameter>
              <parameter>
                <parameterid>style</parameterid>
                <name>Style</name>
                <valuemin>1</valuemin>
                <valuemax>1</valuemax>
                <valuelist>
                  <valueentry>
                    <name>Regular</name>
                    <value>1</value>
                  </valueentry>
                </valuelist>
                <value>1</value>
              </parameter>
              <parameter>
                <parameterid>align</parameterid>
                <name>Alignment</name>
                <valuemin>1</valuemin>
                <valuemax>3</valuemax>
                <valuelist>
                  <valueentry>
                    <name>Left</name>
                    <value>1</value>
                  </valueentry>
                  <valueentry>
                    <name>Center</name>
                    <value>2</value>
                  </valueentry>
                  <valueentry>
                    <name>Right</name>
                    <value>3</value>
                  </valueentry>
                </valuelist>
                <value>2</value>
              </parameter>
              <parameter>
                <parameterid>size</parameterid>
                <name>Size</name>
                <valuemin>0</valuemin>
                <valuemax>200</valuemax>
                <value>24</value>
              </parameter>
              <parameter>
                <parameterid>track</parameterid>
                <name>Tracking</name>
                <valuemin>0</valuemin>
                <valuemax>100</valuemax>
                <value>1</value>
              </parameter>
              <parameter>
                <parameterid>lead</parameterid>
                <name>Leading</name>
                <valuemin>-100</valuemin>
                <valuemax>100</valuemax>
                <value>0</value>
              </parameter>
              <parameter>
                <parameterid>aspect</parameterid>
                <name>Aspect</name>
                <valuemin>0</valuemin>
                <valuemax>4</valuemax>
                <value>1</value>
              </parameter>
              <parameter>
                <parameterid>linewidth</parameterid>
                <name>Line Width</name>
                <valuemin>0</valuemin>
                <valuemax>200</valuemax>
                <value>2</value>
              </parameter>
              <parameter>
                <parameterid>linesoft</parameterid>
                <name>Line Softness</name>
                <valuemin>0</valuemin>
                <valuemax>100</valuemax>
                <value>5</value>
              </parameter>
              <parameter>
                <parameterid>textopacity</parameterid>
                <name>Text Opacity</name>
                <valuemin>0</valuemin>
                <valuemax>100</valuemax>
                <value>100</value>
              </parameter>
              <parameter>
                <parameterid>center</parameterid>
                <name>Center</name>
                <value>
                  <horiz>0</horiz>
                  <vert>0.4703703703703703</vert>
                </value>
              </parameter>
              <parameter>
                <parameterid>textcolor</parameterid>
                <name>Text Color</name>
                <value>
                  <alpha>255</alpha>
                  <red>255</red>
                  <green>255</green>
                  <blue>255</blue>
                </value>
              </parameter>
              <parameter>
                <parameterid>supertext</parameterid>
                <name>Text Graphic</name>
              </parameter>
              <parameter>
                <parameterid>linecolor</parameterid>
                <name>Line Color</name>
                <value>
                  <alpha>255</alpha>
                  <red>0</red>
                  <green>0</green>
                  <blue>0</blue>
                </value>
              </parameter>
              <parameter>
                <parameterid>superline</parameterid>
                <name>Line Graphic</name>
              </parameter>
              <parameter>
                <parameterid>part2</parameterid>
                <name>Background Settings</name>
              </parameter>
              <parameter>
                <parameterid>xscale</parameterid>
                <name>Horizontal Size</name>
                <valuemin>0</valuemin>
                <valuemax>200</valuemax>
                <value>0</value>
              </parameter>
              <parameter>
                <parameterid>yscale</parameterid>
                <name>Vertical Size</name>
                <valuemin>0</valuemin>
                <valuemax>200</valuemax>
                <value>0</value>
              </parameter>
              <parameter>
                <parameterid>xoffset</parameterid>
                <name>Horizontal Offset</name>
                <valuemin>-100</valuemin>
                <valuemax>100</valuemax>
                <value>0</value>
              </parameter>
              <parameter>
                <parameterid>yoffset</parameterid>
                <name>Vertical Offset</name>
                <valuemin>-100</valuemin>
                <valuemax>100</valuemax>
                <value>0</value>
              </parameter>
              <parameter>
                <parameterid>backsoft</parameterid>
                <name>Back Soft</name>
                <valuemin>0</valuemin>
                <valuemax>100</valuemax>
                <value>0</value>
              </parameter>
              <parameter>
                <parameterid>backopacity</parameterid>
                <name>Back Opacity</name>
                <valuemin>0</valuemin>
                <valuemax>100</valuemax>
                <value>50</value>
              </parameter>
              <parameter>
                <parameterid>backcolor</parameterid>
                <name>Back Color</name>
                <value>
                  <alpha>255</alpha>
                  <red>255</red>
                  <green>255</green>
                  <blue>255</blue>
                </value>
              </parameter>
              <parameter>
                <parameterid>superback</parameterid>
                <name>Back Graphic</name>
              </parameter>
              <parameter>
                <parameterid>crop</parameterid>
                <name>Crop</name>
                <value>false</value>
              </parameter>
              <parameter>
                <parameterid>autokern</parameterid>
                <name>Auto Kerning</name>
                <value>true</value>
              </parameter>
            </effect>
            <sourcetrack>
              <mediatype>video</mediatype>
            </sourcetrack>
          </generatoritem>
          <generatoritem id="Outline Text1">
            <name>うんおいしいです</name>
            <duration>22166.1117</duration>
            <rate>
              <timebase>30</timebase>
              <ntsc>true</ntsc>
            </rate>
            <start>19502.37809999997</start>
            <end>19581.19919999997</end>
            <in>19502.37809999997</in>
            <out>19581.19919999997</out>
            <enabled>true</enabled>
            <anamorphic>false</anamorphic>
            <alphatype>black</alphatype>
            <masterclipid>Outline Text1</masterclipid>
            <effect>
              <name>Outline Text</name>
              <effectid>Outline Text</effectid>
              <effectcategory>Text</effectcategory>
              <effecttype>generator</effecttype>
              <mediatype>video</mediatype>
              <parameter>
                <parameterid>part1</parameterid>
                <name>Text Settings</name>
                <value/>
              </parameter>
              <parameter>
                <parameterid>str</parameterid>
                <name>Text</name>
                <value>うんおいしいです</value>
              </parameter>
              <parameter>
                <parameterid>font</parameterid>
                <name>Font</name>
                <value>HiraginoSans-W6</value>
              </parameter>
              <parameter>
                <parameterid>style</parameterid>
                <name>Style</name>
                <valuemin>1</valuemin>
                <valuemax>1</valuemax>
                <valuelist>
                  <valueentry>
                    <name>Regular</name>
                    <value>1</value>
                  </valueentry>
                </valuelist>
                <value>1</value>
              </parameter>
              <parameter>
                <parameterid>align</parameterid>
                <name>Alignment</name>
                <valuemin>1</valuemin>
                <valuemax>3</valuemax>
                <valuelist>
                  <valueentry>
                    <name>Left</name>
                    <value>1</value>
                  </valueentry>
                  <valueentry>
                    <name>Center</name>
                    <value>2</value>
                  </valueentry>
                  <valueentry>
                    <name>Right</name>
                    <value>3</value>
                  </valueentry>
                </valuelist>
                <value>2</value>
              </parameter>
              <parameter>
                <parameterid>size</parameterid>
                <name>Size</name>
                <valuemin>0</valuemin>
                <valuemax>200</valuemax>
                <value>24</value>
              </parameter>
              <parameter>
                <parameterid>track</parameterid>
                <name>Tracking</name>
                <valuemin>0</valuemin>
                <valuemax>100</valuemax>
                <value>1</value>
              </parameter>
              <parameter>
                <parameterid>lead</parameterid>
                <name>Leading</name>
                <valuemin>-100</valuemin>
                <valuemax>100</valuemax>
                <value>0</value>
              </parameter>
              <parameter>
                <parameterid>aspect</parameterid>
                <name>Aspect</name>
                <valuemin>0</valuemin>
                <valuemax>4</valuemax>
                <value>1</value>
              </parameter>
              <parameter>
                <parameterid>linewidth</parameterid>
                <name>Line Width</name>
                <valuemin>0</valuemin>
                <valuemax>200</valuemax>
                <value>2</value>
              </parameter>
              <parameter>
                <parameterid>linesoft</parameterid>
                <name>Line Softness</name>
                <valuemin>0</valuemin>
                <valuemax>100</valuemax>
                <value>5</value>
              </parameter>
              <parameter>
                <parameterid>textopacity</parameterid>
                <name>Text Opacity</name>
                <valuemin>0</valuemin>
                <valuemax>100</valuemax>
                <value>100</value>
              </parameter>
              <parameter>
                <parameterid>center</parameterid>
                <name>Center</name>
                <value>
                  <horiz>0</horiz>
                  <vert>0.4703703703703703</vert>
                </value>
              </parameter>
              <parameter>
                <parameterid>textcolor</parameterid>
                <name>Text Color</name>
                <value>
                  <alpha>255</alpha>
                  <red>255</red>
                  <green>255</green>
                  <blue>255</blue>
                </value>
              </parameter>
              <parameter>
                <parameterid>supertext</parameterid>
                <name>Text Graphic</name>
              </parameter>
              <parameter>
                <parameterid>linecolor</parameterid>
                <name>Line Color</name>
                <value>
                  <alpha>255</alpha>
                  <red>0</red>
                  <green>0</green>
                  <blue>0</blue>
                </value>
              </parameter>
              <parameter>
                <parameterid>superline</parameterid>
                <name>Line Graphic</name>
              </parameter>
              <parameter>
                <parameterid>part2</parameterid>
                <name>Background Settings</name>
              </parameter>
              <parameter>
                <parameterid>xscale</parameterid>
                <name>Horizontal Size</name>
                <valuemin>0</valuemin>
                <valuemax>200</valuemax>
                <value>0</value>
              </parameter>
              <parameter>
                <parameterid>yscale</parameterid>
                <name>Vertical Size</name>
                <valuemin>0</valuemin>
                <valuemax>200</valuemax>
                <value>0</value>
              </parameter>
              <parameter>
                <parameterid>xoffset</parameterid>
                <name>Horizontal Offset</name>
                <valuemin>-100</valuemin>
                <valuemax>100</valuemax>
                <value>0</value>
              </parameter>
              <parameter>
                <parameterid>yoffset</parameterid>
                <name>Vertical Offset</name>
                <valuemin>-100</valuemin>
                <valuemax>100</valuemax>
                <value>0</value>
              </parameter>
              <parameter>
                <parameterid>backsoft</parameterid>
                <name>Back Soft</name>
                <valuemin>0</valuemin>
                <valuemax>100</valuemax>
                <value>0</value>
              </parameter>
              <parameter>
                <parameterid>backopacity</parameterid>
                <name>Back Opacity</name>
                <valuemin>0</valuemin>
                <valuemax>100</valuemax>
                <value>50</value>
              </parameter>
              <parameter>
                <parameterid>backcolor</parameterid>
                <name>Back Color</name>
                <value>
                  <alpha>255</alpha>
                  <red>255</red>
                  <green>255</green>
                  <blue>255</blue>
                </value>
              </parameter>
              <parameter>
                <parameterid>superback</parameterid>
                <name>Back Graphic</name>
              </parameter>
              <parameter>
                <parameterid>crop</parameterid>
                <name>Crop</name>
                <value>false</value>
              </parameter>
              <parameter>
                <parameterid>autokern</parameterid>
                <name>Auto Kerning</name>
                <value>true</value>
              </parameter>
            </effect>
            <sourcetrack>
              <mediatype>video</mediatype>
            </sourcetrack>
          </generatoritem>
          <generatoritem id="Outline Text1">
            <name>あんずうんうん</name>
            <duration>22166.1117</duration>
            <rate>
              <timebase>30</timebase>
              <ntsc>true</ntsc>
            </rate>
            <start>19581.19919999997</start>
            <end>19744.835399999967</end>
            <in>19581.19919999997</in>
            <out>19744.835399999967</out>
            <enabled>true</enabled>
            <anamorphic>false</anamorphic>
            <alphatype>black</alphatype>
            <masterclipid>Outline Text1</masterclipid>
            <effect>
              <name>Outline Text</name>
              <effectid>Outline Text</effectid>
              <effectcategory>Text</effectcategory>
              <effecttype>generator</effecttype>
              <mediatype>video</mediatype>
              <parameter>
                <parameterid>part1</parameterid>
                <name>Text Settings</name>
                <value/>
              </parameter>
              <parameter>
                <parameterid>str</parameterid>
                <name>Text</name>
                <value>あんずうんうん</value>
              </parameter>
              <parameter>
                <parameterid>font</parameterid>
                <name>Font</name>
                <value>HiraginoSans-W6</value>
              </parameter>
              <parameter>
                <parameterid>style</parameterid>
                <name>Style</name>
                <valuemin>1</valuemin>
                <valuemax>1</valuemax>
                <valuelist>
                  <valueentry>
                    <name>Regular</name>
                    <value>1</value>
                  </valueentry>
                </valuelist>
                <value>1</value>
              </parameter>
              <parameter>
                <parameterid>align</parameterid>
                <name>Alignment</name>
                <valuemin>1</valuemin>
                <valuemax>3</valuemax>
                <valuelist>
                  <valueentry>
                    <name>Left</name>
                    <value>1</value>
                  </valueentry>
                  <valueentry>
                    <name>Center</name>
                    <value>2</value>
                  </valueentry>
                  <valueentry>
                    <name>Right</name>
                    <value>3</value>
                  </valueentry>
                </valuelist>
                <value>2</value>
              </parameter>
              <parameter>
                <parameterid>size</parameterid>
                <name>Size</name>
                <valuemin>0</valuemin>
                <valuemax>200</valuemax>
                <value>24</value>
              </parameter>
              <parameter>
                <parameterid>track</parameterid>
                <name>Tracking</name>
                <valuemin>0</valuemin>
                <valuemax>100</valuemax>
                <value>1</value>
              </parameter>
              <parameter>
                <parameterid>lead</parameterid>
                <name>Leading</name>
                <valuemin>-100</valuemin>
                <valuemax>100</valuemax>
                <value>0</value>
              </parameter>
              <parameter>
                <parameterid>aspect</parameterid>
                <name>Aspect</name>
                <valuemin>0</valuemin>
                <valuemax>4</valuemax>
                <value>1</value>
              </parameter>
              <parameter>
                <parameterid>linewidth</parameterid>
                <name>Line Width</name>
                <valuemin>0</valuemin>
                <valuemax>200</valuemax>
                <value>2</value>
              </parameter>
              <parameter>
                <parameterid>linesoft</parameterid>
                <name>Line Softness</name>
                <valuemin>0</valuemin>
                <valuemax>100</valuemax>
                <value>5</value>
              </parameter>
              <parameter>
                <parameterid>textopacity</parameterid>
                <name>Text Opacity</name>
                <valuemin>0</valuemin>
                <valuemax>100</valuemax>
                <value>100</value>
              </parameter>
              <parameter>
                <parameterid>center</parameterid>
                <name>Center</name>
                <value>
                  <horiz>0</horiz>
                  <vert>0.4703703703703703</vert>
                </value>
              </parameter>
              <parameter>
                <parameterid>textcolor</parameterid>
                <name>Text Color</name>
                <value>
                  <alpha>255</alpha>
                  <red>255</red>
                  <green>255</green>
                  <blue>255</blue>
                </value>
              </parameter>
              <parameter>
                <parameterid>supertext</parameterid>
                <name>Text Graphic</name>
              </parameter>
              <parameter>
                <parameterid>linecolor</parameterid>
                <name>Line Color</name>
                <value>
                  <alpha>255</alpha>
                  <red>0</red>
                  <green>0</green>
                  <blue>0</blue>
                </value>
              </parameter>
              <parameter>
                <parameterid>superline</parameterid>
                <name>Line Graphic</name>
              </parameter>
              <parameter>
                <parameterid>part2</parameterid>
                <name>Background Settings</name>
              </parameter>
              <parameter>
                <parameterid>xscale</parameterid>
                <name>Horizontal Size</name>
                <valuemin>0</valuemin>
                <valuemax>200</valuemax>
                <value>0</value>
              </parameter>
              <parameter>
                <parameterid>yscale</parameterid>
                <name>Vertical Size</name>
                <valuemin>0</valuemin>
                <valuemax>200</valuemax>
                <value>0</value>
              </parameter>
              <parameter>
                <parameterid>xoffset</parameterid>
                <name>Horizontal Offset</name>
                <valuemin>-100</valuemin>
                <valuemax>100</valuemax>
                <value>0</value>
              </parameter>
              <parameter>
                <parameterid>yoffset</parameterid>
                <name>Vertical Offset</name>
                <valuemin>-100</valuemin>
                <valuemax>100</valuemax>
                <value>0</value>
              </parameter>
              <parameter>
                <parameterid>backsoft</parameterid>
                <name>Back Soft</name>
                <valuemin>0</valuemin>
                <valuemax>100</valuemax>
                <value>0</value>
              </parameter>
              <parameter>
                <parameterid>backopacity</parameterid>
                <name>Back Opacity</name>
                <valuemin>0</valuemin>
                <valuemax>100</valuemax>
                <value>50</value>
              </parameter>
              <parameter>
                <parameterid>backcolor</parameterid>
                <name>Back Color</name>
                <value>
                  <alpha>255</alpha>
                  <red>255</red>
                  <green>255</green>
                  <blue>255</blue>
                </value>
              </parameter>
              <parameter>
                <parameterid>superback</parameterid>
                <name>Back Graphic</name>
              </parameter>
              <parameter>
                <parameterid>crop</parameterid>
                <name>Crop</name>
                <value>false</value>
              </parameter>
              <parameter>
                <parameterid>autokern</parameterid>
                <name>Auto Kerning</name>
                <value>true</value>
              </parameter>
            </effect>
            <sourcetrack>
              <mediatype>video</mediatype>
            </sourcetrack>
          </generatoritem>
          <generatoritem id="Outline Text1">
            <name>楽屋みたいな食べ物の分け方してる</name>
            <duration>22166.1117</duration>
            <rate>
              <timebase>30</timebase>
              <ntsc>true</ntsc>
            </rate>
            <start>19744.835399999967</start>
            <end>19805.674499999965</end>
            <in>19744.835399999967</in>
            <out>19805.674499999965</out>
            <enabled>true</enabled>
            <anamorphic>false</anamorphic>
            <alphatype>black</alphatype>
            <masterclipid>Outline Text1</masterclipid>
            <effect>
              <name>Outline Text</name>
              <effectid>Outline Text</effectid>
              <effectcategory>Text</effectcategory>
              <effecttype>generator</effecttype>
              <mediatype>video</mediatype>
              <parameter>
                <parameterid>part1</parameterid>
                <name>Text Settings</name>
                <value/>
              </parameter>
              <parameter>
                <parameterid>str</parameterid>
                <name>Text</name>
                <value>楽屋みたいな食べ物の分け方してる</value>
              </parameter>
              <parameter>
                <parameterid>font</parameterid>
                <name>Font</name>
                <value>HiraginoSans-W6</value>
              </parameter>
              <parameter>
                <parameterid>style</parameterid>
                <name>Style</name>
                <valuemin>1</valuemin>
                <valuemax>1</valuemax>
                <valuelist>
                  <valueentry>
                    <name>Regular</name>
                    <value>1</value>
                  </valueentry>
                </valuelist>
                <value>1</value>
              </parameter>
              <parameter>
                <parameterid>align</parameterid>
                <name>Alignment</name>
                <valuemin>1</valuemin>
                <valuemax>3</valuemax>
                <valuelist>
                  <valueentry>
                    <name>Left</name>
                    <value>1</value>
                  </valueentry>
                  <valueentry>
                    <name>Center</name>
                    <value>2</value>
                  </valueentry>
                  <valueentry>
                    <name>Right</name>
                    <value>3</value>
                  </valueentry>
                </valuelist>
                <value>2</value>
              </parameter>
              <parameter>
                <parameterid>size</parameterid>
                <name>Size</name>
                <valuemin>0</valuemin>
                <valuemax>200</valuemax>
                <value>24</value>
              </parameter>
              <parameter>
                <parameterid>track</parameterid>
                <name>Tracking</name>
                <valuemin>0</valuemin>
                <valuemax>100</valuemax>
                <value>1</value>
              </parameter>
              <parameter>
                <parameterid>lead</parameterid>
                <name>Leading</name>
                <valuemin>-100</valuemin>
                <valuemax>100</valuemax>
                <value>0</value>
              </parameter>
              <parameter>
                <parameterid>aspect</parameterid>
                <name>Aspect</name>
                <valuemin>0</valuemin>
                <valuemax>4</valuemax>
                <value>1</value>
              </parameter>
              <parameter>
                <parameterid>linewidth</parameterid>
                <name>Line Width</name>
                <valuemin>0</valuemin>
                <valuemax>200</valuemax>
                <value>2</value>
              </parameter>
              <parameter>
                <parameterid>linesoft</parameterid>
                <name>Line Softness</name>
                <valuemin>0</valuemin>
                <valuemax>100</valuemax>
                <value>5</value>
              </parameter>
              <parameter>
                <parameterid>textopacity</parameterid>
                <name>Text Opacity</name>
                <valuemin>0</valuemin>
                <valuemax>100</valuemax>
                <value>100</value>
              </parameter>
              <parameter>
                <parameterid>center</parameterid>
                <name>Center</name>
                <value>
                  <horiz>0</horiz>
                  <vert>0.4703703703703703</vert>
                </value>
              </parameter>
              <parameter>
                <parameterid>textcolor</parameterid>
                <name>Text Color</name>
                <value>
                  <alpha>255</alpha>
                  <red>255</red>
                  <green>255</green>
                  <blue>255</blue>
                </value>
              </parameter>
              <parameter>
                <parameterid>supertext</parameterid>
                <name>Text Graphic</name>
              </parameter>
              <parameter>
                <parameterid>linecolor</parameterid>
                <name>Line Color</name>
                <value>
                  <alpha>255</alpha>
                  <red>0</red>
                  <green>0</green>
                  <blue>0</blue>
                </value>
              </parameter>
              <parameter>
                <parameterid>superline</parameterid>
                <name>Line Graphic</name>
              </parameter>
              <parameter>
                <parameterid>part2</parameterid>
                <name>Background Settings</name>
              </parameter>
              <parameter>
                <parameterid>xscale</parameterid>
                <name>Horizontal Size</name>
                <valuemin>0</valuemin>
                <valuemax>200</valuemax>
                <value>0</value>
              </parameter>
              <parameter>
                <parameterid>yscale</parameterid>
                <name>Vertical Size</name>
                <valuemin>0</valuemin>
                <valuemax>200</valuemax>
                <value>0</value>
              </parameter>
              <parameter>
                <parameterid>xoffset</parameterid>
                <name>Horizontal Offset</name>
                <valuemin>-100</valuemin>
                <valuemax>100</valuemax>
                <value>0</value>
              </parameter>
              <parameter>
                <parameterid>yoffset</parameterid>
                <name>Vertical Offset</name>
                <valuemin>-100</valuemin>
                <valuemax>100</valuemax>
                <value>0</value>
              </parameter>
              <parameter>
                <parameterid>backsoft</parameterid>
                <name>Back Soft</name>
                <valuemin>0</valuemin>
                <valuemax>100</valuemax>
                <value>0</value>
              </parameter>
              <parameter>
                <parameterid>backopacity</parameterid>
                <name>Back Opacity</name>
                <valuemin>0</valuemin>
                <valuemax>100</valuemax>
                <value>50</value>
              </parameter>
              <parameter>
                <parameterid>backcolor</parameterid>
                <name>Back Color</name>
                <value>
                  <alpha>255</alpha>
                  <red>255</red>
                  <green>255</green>
                  <blue>255</blue>
                </value>
              </parameter>
              <parameter>
                <parameterid>superback</parameterid>
                <name>Back Graphic</name>
              </parameter>
              <parameter>
                <parameterid>crop</parameterid>
                <name>Crop</name>
                <value>false</value>
              </parameter>
              <parameter>
                <parameterid>autokern</parameterid>
                <name>Auto Kerning</name>
                <value>true</value>
              </parameter>
            </effect>
            <sourcetrack>
              <mediatype>video</mediatype>
            </sourcetrack>
          </generatoritem>
          <generatoritem id="Outline Text1">
            <name>なかなかねうん</name>
            <duration>22166.1117</duration>
            <rate>
              <timebase>30</timebase>
              <ntsc>true</ntsc>
            </rate>
            <start>19805.674499999965</start>
            <end>19893.486599999964</end>
            <in>19805.674499999965</in>
            <out>19893.486599999964</out>
            <enabled>true</enabled>
            <anamorphic>false</anamorphic>
            <alphatype>black</alphatype>
            <masterclipid>Outline Text1</masterclipid>
            <effect>
              <name>Outline Text</name>
              <effectid>Outline Text</effectid>
              <effectcategory>Text</effectcategory>
              <effecttype>generator</effecttype>
              <mediatype>video</mediatype>
              <parameter>
                <parameterid>part1</parameterid>
                <name>Text Settings</name>
                <value/>
              </parameter>
              <parameter>
                <parameterid>str</parameterid>
                <name>Text</name>
                <value>なかなかねうん</value>
              </parameter>
              <parameter>
                <parameterid>font</parameterid>
                <name>Font</name>
                <value>HiraginoSans-W6</value>
              </parameter>
              <parameter>
                <parameterid>style</parameterid>
                <name>Style</name>
                <valuemin>1</valuemin>
                <valuemax>1</valuemax>
                <valuelist>
                  <valueentry>
                    <name>Regular</name>
                    <value>1</value>
                  </valueentry>
                </valuelist>
                <value>1</value>
              </parameter>
              <parameter>
                <parameterid>align</parameterid>
                <name>Alignment</name>
                <valuemin>1</valuemin>
                <valuemax>3</valuemax>
                <valuelist>
                  <valueentry>
                    <name>Left</name>
                    <value>1</value>
                  </valueentry>
                  <valueentry>
                    <name>Center</name>
                    <value>2</value>
                  </valueentry>
                  <valueentry>
                    <name>Right</name>
                    <value>3</value>
                  </valueentry>
                </valuelist>
                <value>2</value>
              </parameter>
              <parameter>
                <parameterid>size</parameterid>
                <name>Size</name>
                <valuemin>0</valuemin>
                <valuemax>200</valuemax>
                <value>24</value>
              </parameter>
              <parameter>
                <parameterid>track</parameterid>
                <name>Tracking</name>
                <valuemin>0</valuemin>
                <valuemax>100</valuemax>
                <value>1</value>
              </parameter>
              <parameter>
                <parameterid>lead</parameterid>
                <name>Leading</name>
                <valuemin>-100</valuemin>
                <valuemax>100</valuemax>
                <value>0</value>
              </parameter>
              <parameter>
                <parameterid>aspect</parameterid>
                <name>Aspect</name>
                <valuemin>0</valuemin>
                <valuemax>4</valuemax>
                <value>1</value>
              </parameter>
              <parameter>
                <parameterid>linewidth</parameterid>
                <name>Line Width</name>
                <valuemin>0</valuemin>
                <valuemax>200</valuemax>
                <value>2</value>
              </parameter>
              <parameter>
                <parameterid>linesoft</parameterid>
                <name>Line Softness</name>
                <valuemin>0</valuemin>
                <valuemax>100</valuemax>
                <value>5</value>
              </parameter>
              <parameter>
                <parameterid>textopacity</parameterid>
                <name>Text Opacity</name>
                <valuemin>0</valuemin>
                <valuemax>100</valuemax>
                <value>100</value>
              </parameter>
              <parameter>
                <parameterid>center</parameterid>
                <name>Center</name>
                <value>
                  <horiz>0</horiz>
                  <vert>0.4703703703703703</vert>
                </value>
              </parameter>
              <parameter>
                <parameterid>textcolor</parameterid>
                <name>Text Color</name>
                <value>
                  <alpha>255</alpha>
                  <red>255</red>
                  <green>255</green>
                  <blue>255</blue>
                </value>
              </parameter>
              <parameter>
                <parameterid>supertext</parameterid>
                <name>Text Graphic</name>
              </parameter>
              <parameter>
                <parameterid>linecolor</parameterid>
                <name>Line Color</name>
                <value>
                  <alpha>255</alpha>
                  <red>0</red>
                  <green>0</green>
                  <blue>0</blue>
                </value>
              </parameter>
              <parameter>
                <parameterid>superline</parameterid>
                <name>Line Graphic</name>
              </parameter>
              <parameter>
                <parameterid>part2</parameterid>
                <name>Background Settings</name>
              </parameter>
              <parameter>
                <parameterid>xscale</parameterid>
                <name>Horizontal Size</name>
                <valuemin>0</valuemin>
                <valuemax>200</valuemax>
                <value>0</value>
              </parameter>
              <parameter>
                <parameterid>yscale</parameterid>
                <name>Vertical Size</name>
                <valuemin>0</valuemin>
                <valuemax>200</valuemax>
                <value>0</value>
              </parameter>
              <parameter>
                <parameterid>xoffset</parameterid>
                <name>Horizontal Offset</name>
                <valuemin>-100</valuemin>
                <valuemax>100</valuemax>
                <value>0</value>
              </parameter>
              <parameter>
                <parameterid>yoffset</parameterid>
                <name>Vertical Offset</name>
                <valuemin>-100</valuemin>
                <valuemax>100</valuemax>
                <value>0</value>
              </parameter>
              <parameter>
                <parameterid>backsoft</parameterid>
                <name>Back Soft</name>
                <valuemin>0</valuemin>
                <valuemax>100</valuemax>
                <value>0</value>
              </parameter>
              <parameter>
                <parameterid>backopacity</parameterid>
                <name>Back Opacity</name>
                <valuemin>0</valuemin>
                <valuemax>100</valuemax>
                <value>50</value>
              </parameter>
              <parameter>
                <parameterid>backcolor</parameterid>
                <name>Back Color</name>
                <value>
                  <alpha>255</alpha>
                  <red>255</red>
                  <green>255</green>
                  <blue>255</blue>
                </value>
              </parameter>
              <parameter>
                <parameterid>superback</parameterid>
                <name>Back Graphic</name>
              </parameter>
              <parameter>
                <parameterid>crop</parameterid>
                <name>Crop</name>
                <value>false</value>
              </parameter>
              <parameter>
                <parameterid>autokern</parameterid>
                <name>Auto Kerning</name>
                <value>true</value>
              </parameter>
            </effect>
            <sourcetrack>
              <mediatype>video</mediatype>
            </sourcetrack>
          </generatoritem>
          <generatoritem id="Outline Text1">
            <name>おいしい美味しいですうん肉まんの買ったけどね</name>
            <duration>22166.1117</duration>
            <rate>
              <timebase>30</timebase>
              <ntsc>true</ntsc>
            </rate>
            <start>19893.486599999964</start>
            <end>20114.065799999968</end>
            <in>19893.486599999964</in>
            <out>20114.065799999968</out>
            <enabled>true</enabled>
            <anamorphic>false</anamorphic>
            <alphatype>black</alphatype>
            <masterclipid>Outline Text1</masterclipid>
            <effect>
              <name>Outline Text</name>
              <effectid>Outline Text</effectid>
              <effectcategory>Text</effectcategory>
              <effecttype>generator</effecttype>
              <mediatype>video</mediatype>
              <parameter>
                <parameterid>part1</parameterid>
                <name>Text Settings</name>
                <value/>
              </parameter>
              <parameter>
                <parameterid>str</parameterid>
                <name>Text</name>
                <value>おいしい美味しいですうん肉まんの買ったけどね</value>
              </parameter>
              <parameter>
                <parameterid>font</parameterid>
                <name>Font</name>
                <value>HiraginoSans-W6</value>
              </parameter>
              <parameter>
                <parameterid>style</parameterid>
                <name>Style</name>
                <valuemin>1</valuemin>
                <valuemax>1</valuemax>
                <valuelist>
                  <valueentry>
                    <name>Regular</name>
                    <value>1</value>
                  </valueentry>
                </valuelist>
                <value>1</value>
              </parameter>
              <parameter>
                <parameterid>align</parameterid>
                <name>Alignment</name>
                <valuemin>1</valuemin>
                <valuemax>3</valuemax>
                <valuelist>
                  <valueentry>
                    <name>Left</name>
                    <value>1</value>
                  </valueentry>
                  <valueentry>
                    <name>Center</name>
                    <value>2</value>
                  </valueentry>
                  <valueentry>
                    <name>Right</name>
                    <value>3</value>
                  </valueentry>
                </valuelist>
                <value>2</value>
              </parameter>
              <parameter>
                <parameterid>size</parameterid>
                <name>Size</name>
                <valuemin>0</valuemin>
                <valuemax>200</valuemax>
                <value>24</value>
              </parameter>
              <parameter>
                <parameterid>track</parameterid>
                <name>Tracking</name>
                <valuemin>0</valuemin>
                <valuemax>100</valuemax>
                <value>1</value>
              </parameter>
              <parameter>
                <parameterid>lead</parameterid>
                <name>Leading</name>
                <valuemin>-100</valuemin>
                <valuemax>100</valuemax>
                <value>0</value>
              </parameter>
              <parameter>
                <parameterid>aspect</parameterid>
                <name>Aspect</name>
                <valuemin>0</valuemin>
                <valuemax>4</valuemax>
                <value>1</value>
              </parameter>
              <parameter>
                <parameterid>linewidth</parameterid>
                <name>Line Width</name>
                <valuemin>0</valuemin>
                <valuemax>200</valuemax>
                <value>2</value>
              </parameter>
              <parameter>
                <parameterid>linesoft</parameterid>
                <name>Line Softness</name>
                <valuemin>0</valuemin>
                <valuemax>100</valuemax>
                <value>5</value>
              </parameter>
              <parameter>
                <parameterid>textopacity</parameterid>
                <name>Text Opacity</name>
                <valuemin>0</valuemin>
                <valuemax>100</valuemax>
                <value>100</value>
              </parameter>
              <parameter>
                <parameterid>center</parameterid>
                <name>Center</name>
                <value>
                  <horiz>0</horiz>
                  <vert>0.4703703703703703</vert>
                </value>
              </parameter>
              <parameter>
                <parameterid>textcolor</parameterid>
                <name>Text Color</name>
                <value>
                  <alpha>255</alpha>
                  <red>255</red>
                  <green>255</green>
                  <blue>255</blue>
                </value>
              </parameter>
              <parameter>
                <parameterid>supertext</parameterid>
                <name>Text Graphic</name>
              </parameter>
              <parameter>
                <parameterid>linecolor</parameterid>
                <name>Line Color</name>
                <value>
                  <alpha>255</alpha>
                  <red>0</red>
                  <green>0</green>
                  <blue>0</blue>
                </value>
              </parameter>
              <parameter>
                <parameterid>superline</parameterid>
                <name>Line Graphic</name>
              </parameter>
              <parameter>
                <parameterid>part2</parameterid>
                <name>Background Settings</name>
              </parameter>
              <parameter>
                <parameterid>xscale</parameterid>
                <name>Horizontal Size</name>
                <valuemin>0</valuemin>
                <valuemax>200</valuemax>
                <value>0</value>
              </parameter>
              <parameter>
                <parameterid>yscale</parameterid>
                <name>Vertical Size</name>
                <valuemin>0</valuemin>
                <valuemax>200</valuemax>
                <value>0</value>
              </parameter>
              <parameter>
                <parameterid>xoffset</parameterid>
                <name>Horizontal Offset</name>
                <valuemin>-100</valuemin>
                <valuemax>100</valuemax>
                <value>0</value>
              </parameter>
              <parameter>
                <parameterid>yoffset</parameterid>
                <name>Vertical Offset</name>
                <valuemin>-100</valuemin>
                <valuemax>100</valuemax>
                <value>0</value>
              </parameter>
              <parameter>
                <parameterid>backsoft</parameterid>
                <name>Back Soft</name>
                <valuemin>0</valuemin>
                <valuemax>100</valuemax>
                <value>0</value>
              </parameter>
              <parameter>
                <parameterid>backopacity</parameterid>
                <name>Back Opacity</name>
                <valuemin>0</valuemin>
                <valuemax>100</valuemax>
                <value>50</value>
              </parameter>
              <parameter>
                <parameterid>backcolor</parameterid>
                <name>Back Color</name>
                <value>
                  <alpha>255</alpha>
                  <red>255</red>
                  <green>255</green>
                  <blue>255</blue>
                </value>
              </parameter>
              <parameter>
                <parameterid>superback</parameterid>
                <name>Back Graphic</name>
              </parameter>
              <parameter>
                <parameterid>crop</parameterid>
                <name>Crop</name>
                <value>false</value>
              </parameter>
              <parameter>
                <parameterid>autokern</parameterid>
                <name>Auto Kerning</name>
                <value>true</value>
              </parameter>
            </effect>
            <sourcetrack>
              <mediatype>video</mediatype>
            </sourcetrack>
          </generatoritem>
          <generatoritem id="Outline Text1">
            <name>残念もう美味しい新しいお店見つけられてね</name>
            <duration>22166.1117</duration>
            <rate>
              <timebase>30</timebase>
              <ntsc>true</ntsc>
            </rate>
            <start>20114.065799999968</start>
            <end>20244.43529999997</end>
            <in>20114.065799999968</in>
            <out>20244.43529999997</out>
            <enabled>true</enabled>
            <anamorphic>false</anamorphic>
            <alphatype>black</alphatype>
            <masterclipid>Outline Text1</masterclipid>
            <effect>
              <name>Outline Text</name>
              <effectid>Outline Text</effectid>
              <effectcategory>Text</effectcategory>
              <effecttype>generator</effecttype>
              <mediatype>video</mediatype>
              <parameter>
                <parameterid>part1</parameterid>
                <name>Text Settings</name>
                <value/>
              </parameter>
              <parameter>
                <parameterid>str</parameterid>
                <name>Text</name>
                <value>残念もう美味しい新しいお店見つけられてね</value>
              </parameter>
              <parameter>
                <parameterid>font</parameterid>
                <name>Font</name>
                <value>HiraginoSans-W6</value>
              </parameter>
              <parameter>
                <parameterid>style</parameterid>
                <name>Style</name>
                <valuemin>1</valuemin>
                <valuemax>1</valuemax>
                <valuelist>
                  <valueentry>
                    <name>Regular</name>
                    <value>1</value>
                  </valueentry>
                </valuelist>
                <value>1</value>
              </parameter>
              <parameter>
                <parameterid>align</parameterid>
                <name>Alignment</name>
                <valuemin>1</valuemin>
                <valuemax>3</valuemax>
                <valuelist>
                  <valueentry>
                    <name>Left</name>
                    <value>1</value>
                  </valueentry>
                  <valueentry>
                    <name>Center</name>
                    <value>2</value>
                  </valueentry>
                  <valueentry>
                    <name>Right</name>
                    <value>3</value>
                  </valueentry>
                </valuelist>
                <value>2</value>
              </parameter>
              <parameter>
                <parameterid>size</parameterid>
                <name>Size</name>
                <valuemin>0</valuemin>
                <valuemax>200</valuemax>
                <value>24</value>
              </parameter>
              <parameter>
                <parameterid>track</parameterid>
                <name>Tracking</name>
                <valuemin>0</valuemin>
                <valuemax>100</valuemax>
                <value>1</value>
              </parameter>
              <parameter>
                <parameterid>lead</parameterid>
                <name>Leading</name>
                <valuemin>-100</valuemin>
                <valuemax>100</valuemax>
                <value>0</value>
              </parameter>
              <parameter>
                <parameterid>aspect</parameterid>
                <name>Aspect</name>
                <valuemin>0</valuemin>
                <valuemax>4</valuemax>
                <value>1</value>
              </parameter>
              <parameter>
                <parameterid>linewidth</parameterid>
                <name>Line Width</name>
                <valuemin>0</valuemin>
                <valuemax>200</valuemax>
                <value>2</value>
              </parameter>
              <parameter>
                <parameterid>linesoft</parameterid>
                <name>Line Softness</name>
                <valuemin>0</valuemin>
                <valuemax>100</valuemax>
                <value>5</value>
              </parameter>
              <parameter>
                <parameterid>textopacity</parameterid>
                <name>Text Opacity</name>
                <valuemin>0</valuemin>
                <valuemax>100</valuemax>
                <value>100</value>
              </parameter>
              <parameter>
                <parameterid>center</parameterid>
                <name>Center</name>
                <value>
                  <horiz>0</horiz>
                  <vert>0.4703703703703703</vert>
                </value>
              </parameter>
              <parameter>
                <parameterid>textcolor</parameterid>
                <name>Text Color</name>
                <value>
                  <alpha>255</alpha>
                  <red>255</red>
                  <green>255</green>
                  <blue>255</blue>
                </value>
              </parameter>
              <parameter>
                <parameterid>supertext</parameterid>
                <name>Text Graphic</name>
              </parameter>
              <parameter>
                <parameterid>linecolor</parameterid>
                <name>Line Color</name>
                <value>
                  <alpha>255</alpha>
                  <red>0</red>
                  <green>0</green>
                  <blue>0</blue>
                </value>
              </parameter>
              <parameter>
                <parameterid>superline</parameterid>
                <name>Line Graphic</name>
              </parameter>
              <parameter>
                <parameterid>part2</parameterid>
                <name>Background Settings</name>
              </parameter>
              <parameter>
                <parameterid>xscale</parameterid>
                <name>Horizontal Size</name>
                <valuemin>0</valuemin>
                <valuemax>200</valuemax>
                <value>0</value>
              </parameter>
              <parameter>
                <parameterid>yscale</parameterid>
                <name>Vertical Size</name>
                <valuemin>0</valuemin>
                <valuemax>200</valuemax>
                <value>0</value>
              </parameter>
              <parameter>
                <parameterid>xoffset</parameterid>
                <name>Horizontal Offset</name>
                <valuemin>-100</valuemin>
                <valuemax>100</valuemax>
                <value>0</value>
              </parameter>
              <parameter>
                <parameterid>yoffset</parameterid>
                <name>Vertical Offset</name>
                <valuemin>-100</valuemin>
                <valuemax>100</valuemax>
                <value>0</value>
              </parameter>
              <parameter>
                <parameterid>backsoft</parameterid>
                <name>Back Soft</name>
                <valuemin>0</valuemin>
                <valuemax>100</valuemax>
                <value>0</value>
              </parameter>
              <parameter>
                <parameterid>backopacity</parameterid>
                <name>Back Opacity</name>
                <valuemin>0</valuemin>
                <valuemax>100</valuemax>
                <value>50</value>
              </parameter>
              <parameter>
                <parameterid>backcolor</parameterid>
                <name>Back Color</name>
                <value>
                  <alpha>255</alpha>
                  <red>255</red>
                  <green>255</green>
                  <blue>255</blue>
                </value>
              </parameter>
              <parameter>
                <parameterid>superback</parameterid>
                <name>Back Graphic</name>
              </parameter>
              <parameter>
                <parameterid>crop</parameterid>
                <name>Crop</name>
                <value>false</value>
              </parameter>
              <parameter>
                <parameterid>autokern</parameterid>
                <name>Auto Kerning</name>
                <value>true</value>
              </parameter>
            </effect>
            <sourcetrack>
              <mediatype>video</mediatype>
            </sourcetrack>
          </generatoritem>
          <generatoritem id="Outline Text1">
            <name>他の種類も食べてみたいね</name>
            <duration>22166.1117</duration>
            <rate>
              <timebase>30</timebase>
              <ntsc>true</ntsc>
            </rate>
            <start>20244.43529999997</start>
            <end>20295.08459999997</end>
            <in>20244.43529999997</in>
            <out>20295.08459999997</out>
            <enabled>true</enabled>
            <anamorphic>false</anamorphic>
            <alphatype>black</alphatype>
            <masterclipid>Outline Text1</masterclipid>
            <effect>
              <name>Outline Text</name>
              <effectid>Outline Text</effectid>
              <effectcategory>Text</effectcategory>
              <effecttype>generator</effecttype>
              <mediatype>video</mediatype>
              <parameter>
                <parameterid>part1</parameterid>
                <name>Text Settings</name>
                <value/>
              </parameter>
              <parameter>
                <parameterid>str</parameterid>
                <name>Text</name>
                <value>他の種類も食べてみたいね</value>
              </parameter>
              <parameter>
                <parameterid>font</parameterid>
                <name>Font</name>
                <value>HiraginoSans-W6</value>
              </parameter>
              <parameter>
                <parameterid>style</parameterid>
                <name>Style</name>
                <valuemin>1</valuemin>
                <valuemax>1</valuemax>
                <valuelist>
                  <valueentry>
                    <name>Regular</name>
                    <value>1</value>
                  </valueentry>
                </valuelist>
                <value>1</value>
              </parameter>
              <parameter>
                <parameterid>align</parameterid>
                <name>Alignment</name>
                <valuemin>1</valuemin>
                <valuemax>3</valuemax>
                <valuelist>
                  <valueentry>
                    <name>Left</name>
                    <value>1</value>
                  </valueentry>
                  <valueentry>
                    <name>Center</name>
                    <value>2</value>
                  </valueentry>
                  <valueentry>
                    <name>Right</name>
                    <value>3</value>
                  </valueentry>
                </valuelist>
                <value>2</value>
              </parameter>
              <parameter>
                <parameterid>size</parameterid>
                <name>Size</name>
                <valuemin>0</valuemin>
                <valuemax>200</valuemax>
                <value>24</value>
              </parameter>
              <parameter>
                <parameterid>track</parameterid>
                <name>Tracking</name>
                <valuemin>0</valuemin>
                <valuemax>100</valuemax>
                <value>1</value>
              </parameter>
              <parameter>
                <parameterid>lead</parameterid>
                <name>Leading</name>
                <valuemin>-100</valuemin>
                <valuemax>100</valuemax>
                <value>0</value>
              </parameter>
              <parameter>
                <parameterid>aspect</parameterid>
                <name>Aspect</name>
                <valuemin>0</valuemin>
                <valuemax>4</valuemax>
                <value>1</value>
              </parameter>
              <parameter>
                <parameterid>linewidth</parameterid>
                <name>Line Width</name>
                <valuemin>0</valuemin>
                <valuemax>200</valuemax>
                <value>2</value>
              </parameter>
              <parameter>
                <parameterid>linesoft</parameterid>
                <name>Line Softness</name>
                <valuemin>0</valuemin>
                <valuemax>100</valuemax>
                <value>5</value>
              </parameter>
              <parameter>
                <parameterid>textopacity</parameterid>
                <name>Text Opacity</name>
                <valuemin>0</valuemin>
                <valuemax>100</valuemax>
                <value>100</value>
              </parameter>
              <parameter>
                <parameterid>center</parameterid>
                <name>Center</name>
                <value>
                  <horiz>0</horiz>
                  <vert>0.4703703703703703</vert>
                </value>
              </parameter>
              <parameter>
                <parameterid>textcolor</parameterid>
                <name>Text Color</name>
                <value>
                  <alpha>255</alpha>
                  <red>255</red>
                  <green>255</green>
                  <blue>255</blue>
                </value>
              </parameter>
              <parameter>
                <parameterid>supertext</parameterid>
                <name>Text Graphic</name>
              </parameter>
              <parameter>
                <parameterid>linecolor</parameterid>
                <name>Line Color</name>
                <value>
                  <alpha>255</alpha>
                  <red>0</red>
                  <green>0</green>
                  <blue>0</blue>
                </value>
              </parameter>
              <parameter>
                <parameterid>superline</parameterid>
                <name>Line Graphic</name>
              </parameter>
              <parameter>
                <parameterid>part2</parameterid>
                <name>Background Settings</name>
              </parameter>
              <parameter>
                <parameterid>xscale</parameterid>
                <name>Horizontal Size</name>
                <valuemin>0</valuemin>
                <valuemax>200</valuemax>
                <value>0</value>
              </parameter>
              <parameter>
                <parameterid>yscale</parameterid>
                <name>Vertical Size</name>
                <valuemin>0</valuemin>
                <valuemax>200</valuemax>
                <value>0</value>
              </parameter>
              <parameter>
                <parameterid>xoffset</parameterid>
                <name>Horizontal Offset</name>
                <valuemin>-100</valuemin>
                <valuemax>100</valuemax>
                <value>0</value>
              </parameter>
              <parameter>
                <parameterid>yoffset</parameterid>
                <name>Vertical Offset</name>
                <valuemin>-100</valuemin>
                <valuemax>100</valuemax>
                <value>0</value>
              </parameter>
              <parameter>
                <parameterid>backsoft</parameterid>
                <name>Back Soft</name>
                <valuemin>0</valuemin>
                <valuemax>100</valuemax>
                <value>0</value>
              </parameter>
              <parameter>
                <parameterid>backopacity</parameterid>
                <name>Back Opacity</name>
                <valuemin>0</valuemin>
                <valuemax>100</valuemax>
                <value>50</value>
              </parameter>
              <parameter>
                <parameterid>backcolor</parameterid>
                <name>Back Color</name>
                <value>
                  <alpha>255</alpha>
                  <red>255</red>
                  <green>255</green>
                  <blue>255</blue>
                </value>
              </parameter>
              <parameter>
                <parameterid>superback</parameterid>
                <name>Back Graphic</name>
              </parameter>
              <parameter>
                <parameterid>crop</parameterid>
                <name>Crop</name>
                <value>false</value>
              </parameter>
              <parameter>
                <parameterid>autokern</parameterid>
                <name>Auto Kerning</name>
                <value>true</value>
              </parameter>
            </effect>
            <sourcetrack>
              <mediatype>video</mediatype>
            </sourcetrack>
          </generatoritem>
          <generatoritem id="Outline Text1">
            <name>あんずなんてさグミとかでしか食べたことないからさ甘酒にあんずが入ってるやつを飲んだことがある</name>
            <duration>22166.1117</duration>
            <rate>
              <timebase>30</timebase>
              <ntsc>true</ntsc>
            </rate>
            <start>20295.08459999997</start>
            <end>20531.847599999965</end>
            <in>20295.08459999997</in>
            <out>20531.847599999965</out>
            <enabled>true</enabled>
            <anamorphic>false</anamorphic>
            <alphatype>black</alphatype>
            <masterclipid>Outline Text1</masterclipid>
            <effect>
              <name>Outline Text</name>
              <effectid>Outline Text</effectid>
              <effectcategory>Text</effectcategory>
              <effecttype>generator</effecttype>
              <mediatype>video</mediatype>
              <parameter>
                <parameterid>part1</parameterid>
                <name>Text Settings</name>
                <value/>
              </parameter>
              <parameter>
                <parameterid>str</parameterid>
                <name>Text</name>
                <value>あんずなんてさグミとかでしか食べたことないからさ甘酒にあんずが入ってるやつを飲んだことがある</value>
              </parameter>
              <parameter>
                <parameterid>font</parameterid>
                <name>Font</name>
                <value>HiraginoSans-W6</value>
              </parameter>
              <parameter>
                <parameterid>style</parameterid>
                <name>Style</name>
                <valuemin>1</valuemin>
                <valuemax>1</valuemax>
                <valuelist>
                  <valueentry>
                    <name>Regular</name>
                    <value>1</value>
                  </valueentry>
                </valuelist>
                <value>1</value>
              </parameter>
              <parameter>
                <parameterid>align</parameterid>
                <name>Alignment</name>
                <valuemin>1</valuemin>
                <valuemax>3</valuemax>
                <valuelist>
                  <valueentry>
                    <name>Left</name>
                    <value>1</value>
                  </valueentry>
                  <valueentry>
                    <name>Center</name>
                    <value>2</value>
                  </valueentry>
                  <valueentry>
                    <name>Right</name>
                    <value>3</value>
                  </valueentry>
                </valuelist>
                <value>2</value>
              </parameter>
              <parameter>
                <parameterid>size</parameterid>
                <name>Size</name>
                <valuemin>0</valuemin>
                <valuemax>200</valuemax>
                <value>24</value>
              </parameter>
              <parameter>
                <parameterid>track</parameterid>
                <name>Tracking</name>
                <valuemin>0</valuemin>
                <valuemax>100</valuemax>
                <value>1</value>
              </parameter>
              <parameter>
                <parameterid>lead</parameterid>
                <name>Leading</name>
                <valuemin>-100</valuemin>
                <valuemax>100</valuemax>
                <value>0</value>
              </parameter>
              <parameter>
                <parameterid>aspect</parameterid>
                <name>Aspect</name>
                <valuemin>0</valuemin>
                <valuemax>4</valuemax>
                <value>1</value>
              </parameter>
              <parameter>
                <parameterid>linewidth</parameterid>
                <name>Line Width</name>
                <valuemin>0</valuemin>
                <valuemax>200</valuemax>
                <value>2</value>
              </parameter>
              <parameter>
                <parameterid>linesoft</parameterid>
                <name>Line Softness</name>
                <valuemin>0</valuemin>
                <valuemax>100</valuemax>
                <value>5</value>
              </parameter>
              <parameter>
                <parameterid>textopacity</parameterid>
                <name>Text Opacity</name>
                <valuemin>0</valuemin>
                <valuemax>100</valuemax>
                <value>100</value>
              </parameter>
              <parameter>
                <parameterid>center</parameterid>
                <name>Center</name>
                <value>
                  <horiz>0</horiz>
                  <vert>0.4703703703703703</vert>
                </value>
              </parameter>
              <parameter>
                <parameterid>textcolor</parameterid>
                <name>Text Color</name>
                <value>
                  <alpha>255</alpha>
                  <red>255</red>
                  <green>255</green>
                  <blue>255</blue>
                </value>
              </parameter>
              <parameter>
                <parameterid>supertext</parameterid>
                <name>Text Graphic</name>
              </parameter>
              <parameter>
                <parameterid>linecolor</parameterid>
                <name>Line Color</name>
                <value>
                  <alpha>255</alpha>
                  <red>0</red>
                  <green>0</green>
                  <blue>0</blue>
                </value>
              </parameter>
              <parameter>
                <parameterid>superline</parameterid>
                <name>Line Graphic</name>
              </parameter>
              <parameter>
                <parameterid>part2</parameterid>
                <name>Background Settings</name>
              </parameter>
              <parameter>
                <parameterid>xscale</parameterid>
                <name>Horizontal Size</name>
                <valuemin>0</valuemin>
                <valuemax>200</valuemax>
                <value>0</value>
              </parameter>
              <parameter>
                <parameterid>yscale</parameterid>
                <name>Vertical Size</name>
                <valuemin>0</valuemin>
                <valuemax>200</valuemax>
                <value>0</value>
              </parameter>
              <parameter>
                <parameterid>xoffset</parameterid>
                <name>Horizontal Offset</name>
                <valuemin>-100</valuemin>
                <valuemax>100</valuemax>
                <value>0</value>
              </parameter>
              <parameter>
                <parameterid>yoffset</parameterid>
                <name>Vertical Offset</name>
                <valuemin>-100</valuemin>
                <valuemax>100</valuemax>
                <value>0</value>
              </parameter>
              <parameter>
                <parameterid>backsoft</parameterid>
                <name>Back Soft</name>
                <valuemin>0</valuemin>
                <valuemax>100</valuemax>
                <value>0</value>
              </parameter>
              <parameter>
                <parameterid>backopacity</parameterid>
                <name>Back Opacity</name>
                <valuemin>0</valuemin>
                <valuemax>100</valuemax>
                <value>50</value>
              </parameter>
              <parameter>
                <parameterid>backcolor</parameterid>
                <name>Back Color</name>
                <value>
                  <alpha>255</alpha>
                  <red>255</red>
                  <green>255</green>
                  <blue>255</blue>
                </value>
              </parameter>
              <parameter>
                <parameterid>superback</parameterid>
                <name>Back Graphic</name>
              </parameter>
              <parameter>
                <parameterid>crop</parameterid>
                <name>Crop</name>
                <value>false</value>
              </parameter>
              <parameter>
                <parameterid>autokern</parameterid>
                <name>Auto Kerning</name>
                <value>true</value>
              </parameter>
            </effect>
            <sourcetrack>
              <mediatype>video</mediatype>
            </sourcetrack>
          </generatoritem>
          <generatoritem id="Outline Text1">
            <name>あんず酒?甘酒</name>
            <duration>22166.1117</duration>
            <rate>
              <timebase>30</timebase>
              <ntsc>true</ntsc>
            </rate>
            <start>20531.847599999965</start>
            <end>20590.58879999997</end>
            <in>20531.847599999965</in>
            <out>20590.58879999997</out>
            <enabled>true</enabled>
            <anamorphic>false</anamorphic>
            <alphatype>black</alphatype>
            <masterclipid>Outline Text1</masterclipid>
            <effect>
              <name>Outline Text</name>
              <effectid>Outline Text</effectid>
              <effectcategory>Text</effectcategory>
              <effecttype>generator</effecttype>
              <mediatype>video</mediatype>
              <parameter>
                <parameterid>part1</parameterid>
                <name>Text Settings</name>
                <value/>
              </parameter>
              <parameter>
                <parameterid>str</parameterid>
                <name>Text</name>
                <value>あんず酒?甘酒</value>
              </parameter>
              <parameter>
                <parameterid>font</parameterid>
                <name>Font</name>
                <value>HiraginoSans-W6</value>
              </parameter>
              <parameter>
                <parameterid>style</parameterid>
                <name>Style</name>
                <valuemin>1</valuemin>
                <valuemax>1</valuemax>
                <valuelist>
                  <valueentry>
                    <name>Regular</name>
                    <value>1</value>
                  </valueentry>
                </valuelist>
                <value>1</value>
              </parameter>
              <parameter>
                <parameterid>align</parameterid>
                <name>Alignment</name>
                <valuemin>1</valuemin>
                <valuemax>3</valuemax>
                <valuelist>
                  <valueentry>
                    <name>Left</name>
                    <value>1</value>
                  </valueentry>
                  <valueentry>
                    <name>Center</name>
                    <value>2</value>
                  </valueentry>
                  <valueentry>
                    <name>Right</name>
                    <value>3</value>
                  </valueentry>
                </valuelist>
                <value>2</value>
              </parameter>
              <parameter>
                <parameterid>size</parameterid>
                <name>Size</name>
                <valuemin>0</valuemin>
                <valuemax>200</valuemax>
                <value>24</value>
              </parameter>
              <parameter>
                <parameterid>track</parameterid>
                <name>Tracking</name>
                <valuemin>0</valuemin>
                <valuemax>100</valuemax>
                <value>1</value>
              </parameter>
              <parameter>
                <parameterid>lead</parameterid>
                <name>Leading</name>
                <valuemin>-100</valuemin>
                <valuemax>100</valuemax>
                <value>0</value>
              </parameter>
              <parameter>
                <parameterid>aspect</parameterid>
                <name>Aspect</name>
                <valuemin>0</valuemin>
                <valuemax>4</valuemax>
                <value>1</value>
              </parameter>
              <parameter>
                <parameterid>linewidth</parameterid>
                <name>Line Width</name>
                <valuemin>0</valuemin>
                <valuemax>200</valuemax>
                <value>2</value>
              </parameter>
              <parameter>
                <parameterid>linesoft</parameterid>
                <name>Line Softness</name>
                <valuemin>0</valuemin>
                <valuemax>100</valuemax>
                <value>5</value>
              </parameter>
              <parameter>
                <parameterid>textopacity</parameterid>
                <name>Text Opacity</name>
                <valuemin>0</valuemin>
                <valuemax>100</valuemax>
                <value>100</value>
              </parameter>
              <parameter>
                <parameterid>center</parameterid>
                <name>Center</name>
                <value>
                  <horiz>0</horiz>
                  <vert>0.4703703703703703</vert>
                </value>
              </parameter>
              <parameter>
                <parameterid>textcolor</parameterid>
                <name>Text Color</name>
                <value>
                  <alpha>255</alpha>
                  <red>255</red>
                  <green>255</green>
                  <blue>255</blue>
                </value>
              </parameter>
              <parameter>
                <parameterid>supertext</parameterid>
                <name>Text Graphic</name>
              </parameter>
              <parameter>
                <parameterid>linecolor</parameterid>
                <name>Line Color</name>
                <value>
                  <alpha>255</alpha>
                  <red>0</red>
                  <green>0</green>
                  <blue>0</blue>
                </value>
              </parameter>
              <parameter>
                <parameterid>superline</parameterid>
                <name>Line Graphic</name>
              </parameter>
              <parameter>
                <parameterid>part2</parameterid>
                <name>Background Settings</name>
              </parameter>
              <parameter>
                <parameterid>xscale</parameterid>
                <name>Horizontal Size</name>
                <valuemin>0</valuemin>
                <valuemax>200</valuemax>
                <value>0</value>
              </parameter>
              <parameter>
                <parameterid>yscale</parameterid>
                <name>Vertical Size</name>
                <valuemin>0</valuemin>
                <valuemax>200</valuemax>
                <value>0</value>
              </parameter>
              <parameter>
                <parameterid>xoffset</parameterid>
                <name>Horizontal Offset</name>
                <valuemin>-100</valuemin>
                <valuemax>100</valuemax>
                <value>0</value>
              </parameter>
              <parameter>
                <parameterid>yoffset</parameterid>
                <name>Vertical Offset</name>
                <valuemin>-100</valuemin>
                <valuemax>100</valuemax>
                <value>0</value>
              </parameter>
              <parameter>
                <parameterid>backsoft</parameterid>
                <name>Back Soft</name>
                <valuemin>0</valuemin>
                <valuemax>100</valuemax>
                <value>0</value>
              </parameter>
              <parameter>
                <parameterid>backopacity</parameterid>
                <name>Back Opacity</name>
                <valuemin>0</valuemin>
                <valuemax>100</valuemax>
                <value>50</value>
              </parameter>
              <parameter>
                <parameterid>backcolor</parameterid>
                <name>Back Color</name>
                <value>
                  <alpha>255</alpha>
                  <red>255</red>
                  <green>255</green>
                  <blue>255</blue>
                </value>
              </parameter>
              <parameter>
                <parameterid>superback</parameterid>
                <name>Back Graphic</name>
              </parameter>
              <parameter>
                <parameterid>crop</parameterid>
                <name>Crop</name>
                <value>false</value>
              </parameter>
              <parameter>
                <parameterid>autokern</parameterid>
                <name>Auto Kerning</name>
                <value>true</value>
              </parameter>
            </effect>
            <sourcetrack>
              <mediatype>video</mediatype>
            </sourcetrack>
          </generatoritem>
          <generatoritem id="Outline Text1">
            <name>あんず酒ですよ</name>
            <duration>22166.1117</duration>
            <rate>
              <timebase>30</timebase>
              <ntsc>true</ntsc>
            </rate>
            <start>20590.58879999997</start>
            <end>20636.742599999965</end>
            <in>20590.58879999997</in>
            <out>20636.742599999965</out>
            <enabled>true</enabled>
            <anamorphic>false</anamorphic>
            <alphatype>black</alphatype>
            <masterclipid>Outline Text1</masterclipid>
            <effect>
              <name>Outline Text</name>
              <effectid>Outline Text</effectid>
              <effectcategory>Text</effectcategory>
              <effecttype>generator</effecttype>
              <mediatype>video</mediatype>
              <parameter>
                <parameterid>part1</parameterid>
                <name>Text Settings</name>
                <value/>
              </parameter>
              <parameter>
                <parameterid>str</parameterid>
                <name>Text</name>
                <value>あんず酒ですよ</value>
              </parameter>
              <parameter>
                <parameterid>font</parameterid>
                <name>Font</name>
                <value>HiraginoSans-W6</value>
              </parameter>
              <parameter>
                <parameterid>style</parameterid>
                <name>Style</name>
                <valuemin>1</valuemin>
                <valuemax>1</valuemax>
                <valuelist>
                  <valueentry>
                    <name>Regular</name>
                    <value>1</value>
                  </valueentry>
                </valuelist>
                <value>1</value>
              </parameter>
              <parameter>
                <parameterid>align</parameterid>
                <name>Alignment</name>
                <valuemin>1</valuemin>
                <valuemax>3</valuemax>
                <valuelist>
                  <valueentry>
                    <name>Left</name>
                    <value>1</value>
                  </valueentry>
                  <valueentry>
                    <name>Center</name>
                    <value>2</value>
                  </valueentry>
                  <valueentry>
                    <name>Right</name>
                    <value>3</value>
                  </valueentry>
                </valuelist>
                <value>2</value>
              </parameter>
              <parameter>
                <parameterid>size</parameterid>
                <name>Size</name>
                <valuemin>0</valuemin>
                <valuemax>200</valuemax>
                <value>24</value>
              </parameter>
              <parameter>
                <parameterid>track</parameterid>
                <name>Tracking</name>
                <valuemin>0</valuemin>
                <valuemax>100</valuemax>
                <value>1</value>
              </parameter>
              <parameter>
                <parameterid>lead</parameterid>
                <name>Leading</name>
                <valuemin>-100</valuemin>
                <valuemax>100</valuemax>
                <value>0</value>
              </parameter>
              <parameter>
                <parameterid>aspect</parameterid>
                <name>Aspect</name>
                <valuemin>0</valuemin>
                <valuemax>4</valuemax>
                <value>1</value>
              </parameter>
              <parameter>
                <parameterid>linewidth</parameterid>
                <name>Line Width</name>
                <valuemin>0</valuemin>
                <valuemax>200</valuemax>
                <value>2</value>
              </parameter>
              <parameter>
                <parameterid>linesoft</parameterid>
                <name>Line Softness</name>
                <valuemin>0</valuemin>
                <valuemax>100</valuemax>
                <value>5</value>
              </parameter>
              <parameter>
                <parameterid>textopacity</parameterid>
                <name>Text Opacity</name>
                <valuemin>0</valuemin>
                <valuemax>100</valuemax>
                <value>100</value>
              </parameter>
              <parameter>
                <parameterid>center</parameterid>
                <name>Center</name>
                <value>
                  <horiz>0</horiz>
                  <vert>0.4703703703703703</vert>
                </value>
              </parameter>
              <parameter>
                <parameterid>textcolor</parameterid>
                <name>Text Color</name>
                <value>
                  <alpha>255</alpha>
                  <red>255</red>
                  <green>255</green>
                  <blue>255</blue>
                </value>
              </parameter>
              <parameter>
                <parameterid>supertext</parameterid>
                <name>Text Graphic</name>
              </parameter>
              <parameter>
                <parameterid>linecolor</parameterid>
                <name>Line Color</name>
                <value>
                  <alpha>255</alpha>
                  <red>0</red>
                  <green>0</green>
                  <blue>0</blue>
                </value>
              </parameter>
              <parameter>
                <parameterid>superline</parameterid>
                <name>Line Graphic</name>
              </parameter>
              <parameter>
                <parameterid>part2</parameterid>
                <name>Background Settings</name>
              </parameter>
              <parameter>
                <parameterid>xscale</parameterid>
                <name>Horizontal Size</name>
                <valuemin>0</valuemin>
                <valuemax>200</valuemax>
                <value>0</value>
              </parameter>
              <parameter>
                <parameterid>yscale</parameterid>
                <name>Vertical Size</name>
                <valuemin>0</valuemin>
                <valuemax>200</valuemax>
                <value>0</value>
              </parameter>
              <parameter>
                <parameterid>xoffset</parameterid>
                <name>Horizontal Offset</name>
                <valuemin>-100</valuemin>
                <valuemax>100</valuemax>
                <value>0</value>
              </parameter>
              <parameter>
                <parameterid>yoffset</parameterid>
                <name>Vertical Offset</name>
                <valuemin>-100</valuemin>
                <valuemax>100</valuemax>
                <value>0</value>
              </parameter>
              <parameter>
                <parameterid>backsoft</parameterid>
                <name>Back Soft</name>
                <valuemin>0</valuemin>
                <valuemax>100</valuemax>
                <value>0</value>
              </parameter>
              <parameter>
                <parameterid>backopacity</parameterid>
                <name>Back Opacity</name>
                <valuemin>0</valuemin>
                <valuemax>100</valuemax>
                <value>50</value>
              </parameter>
              <parameter>
                <parameterid>backcolor</parameterid>
                <name>Back Color</name>
                <value>
                  <alpha>255</alpha>
                  <red>255</red>
                  <green>255</green>
                  <blue>255</blue>
                </value>
              </parameter>
              <parameter>
                <parameterid>superback</parameterid>
                <name>Back Graphic</name>
              </parameter>
              <parameter>
                <parameterid>crop</parameterid>
                <name>Crop</name>
                <value>false</value>
              </parameter>
              <parameter>
                <parameterid>autokern</parameterid>
                <name>Auto Kerning</name>
                <value>true</value>
              </parameter>
            </effect>
            <sourcetrack>
              <mediatype>video</mediatype>
            </sourcetrack>
          </generatoritem>
          <generatoritem id="Outline Text1">
            <name>甘酒甘酒にあんずが入ってる鎌倉の足湯屋さんにありました</name>
            <duration>22166.1117</duration>
            <rate>
              <timebase>30</timebase>
              <ntsc>true</ntsc>
            </rate>
            <start>20636.742599999965</start>
            <end>20930.748299999967</end>
            <in>20636.742599999965</in>
            <out>20930.748299999967</out>
            <enabled>true</enabled>
            <anamorphic>false</anamorphic>
            <alphatype>black</alphatype>
            <masterclipid>Outline Text1</masterclipid>
            <effect>
              <name>Outline Text</name>
              <effectid>Outline Text</effectid>
              <effectcategory>Text</effectcategory>
              <effecttype>generator</effecttype>
              <mediatype>video</mediatype>
              <parameter>
                <parameterid>part1</parameterid>
                <name>Text Settings</name>
                <value/>
              </parameter>
              <parameter>
                <parameterid>str</parameterid>
                <name>Text</name>
                <value>甘酒甘酒にあんずが入ってる鎌倉の足湯屋さんにありました</value>
              </parameter>
              <parameter>
                <parameterid>font</parameterid>
                <name>Font</name>
                <value>HiraginoSans-W6</value>
              </parameter>
              <parameter>
                <parameterid>style</parameterid>
                <name>Style</name>
                <valuemin>1</valuemin>
                <valuemax>1</valuemax>
                <valuelist>
                  <valueentry>
                    <name>Regular</name>
                    <value>1</value>
                  </valueentry>
                </valuelist>
                <value>1</value>
              </parameter>
              <parameter>
                <parameterid>align</parameterid>
                <name>Alignment</name>
                <valuemin>1</valuemin>
                <valuemax>3</valuemax>
                <valuelist>
                  <valueentry>
                    <name>Left</name>
                    <value>1</value>
                  </valueentry>
                  <valueentry>
                    <name>Center</name>
                    <value>2</value>
                  </valueentry>
                  <valueentry>
                    <name>Right</name>
                    <value>3</value>
                  </valueentry>
                </valuelist>
                <value>2</value>
              </parameter>
              <parameter>
                <parameterid>size</parameterid>
                <name>Size</name>
                <valuemin>0</valuemin>
                <valuemax>200</valuemax>
                <value>24</value>
              </parameter>
              <parameter>
                <parameterid>track</parameterid>
                <name>Tracking</name>
                <valuemin>0</valuemin>
                <valuemax>100</valuemax>
                <value>1</value>
              </parameter>
              <parameter>
                <parameterid>lead</parameterid>
                <name>Leading</name>
                <valuemin>-100</valuemin>
                <valuemax>100</valuemax>
                <value>0</value>
              </parameter>
              <parameter>
                <parameterid>aspect</parameterid>
                <name>Aspect</name>
                <valuemin>0</valuemin>
                <valuemax>4</valuemax>
                <value>1</value>
              </parameter>
              <parameter>
                <parameterid>linewidth</parameterid>
                <name>Line Width</name>
                <valuemin>0</valuemin>
                <valuemax>200</valuemax>
                <value>2</value>
              </parameter>
              <parameter>
                <parameterid>linesoft</parameterid>
                <name>Line Softness</name>
                <valuemin>0</valuemin>
                <valuemax>100</valuemax>
                <value>5</value>
              </parameter>
              <parameter>
                <parameterid>textopacity</parameterid>
                <name>Text Opacity</name>
                <valuemin>0</valuemin>
                <valuemax>100</valuemax>
                <value>100</value>
              </parameter>
              <parameter>
                <parameterid>center</parameterid>
                <name>Center</name>
                <value>
                  <horiz>0</horiz>
                  <vert>0.4703703703703703</vert>
                </value>
              </parameter>
              <parameter>
                <parameterid>textcolor</parameterid>
                <name>Text Color</name>
                <value>
                  <alpha>255</alpha>
                  <red>255</red>
                  <green>255</green>
                  <blue>255</blue>
                </value>
              </parameter>
              <parameter>
                <parameterid>supertext</parameterid>
                <name>Text Graphic</name>
              </parameter>
              <parameter>
                <parameterid>linecolor</parameterid>
                <name>Line Color</name>
                <value>
                  <alpha>255</alpha>
                  <red>0</red>
                  <green>0</green>
                  <blue>0</blue>
                </value>
              </parameter>
              <parameter>
                <parameterid>superline</parameterid>
                <name>Line Graphic</name>
              </parameter>
              <parameter>
                <parameterid>part2</parameterid>
                <name>Background Settings</name>
              </parameter>
              <parameter>
                <parameterid>xscale</parameterid>
                <name>Horizontal Size</name>
                <valuemin>0</valuemin>
                <valuemax>200</valuemax>
                <value>0</value>
              </parameter>
              <parameter>
                <parameterid>yscale</parameterid>
                <name>Vertical Size</name>
                <valuemin>0</valuemin>
                <valuemax>200</valuemax>
                <value>0</value>
              </parameter>
              <parameter>
                <parameterid>xoffset</parameterid>
                <name>Horizontal Offset</name>
                <valuemin>-100</valuemin>
                <valuemax>100</valuemax>
                <value>0</value>
              </parameter>
              <parameter>
                <parameterid>yoffset</parameterid>
                <name>Vertical Offset</name>
                <valuemin>-100</valuemin>
                <valuemax>100</valuemax>
                <value>0</value>
              </parameter>
              <parameter>
                <parameterid>backsoft</parameterid>
                <name>Back Soft</name>
                <valuemin>0</valuemin>
                <valuemax>100</valuemax>
                <value>0</value>
              </parameter>
              <parameter>
                <parameterid>backopacity</parameterid>
                <name>Back Opacity</name>
                <valuemin>0</valuemin>
                <valuemax>100</valuemax>
                <value>50</value>
              </parameter>
              <parameter>
                <parameterid>backcolor</parameterid>
                <name>Back Color</name>
                <value>
                  <alpha>255</alpha>
                  <red>255</red>
                  <green>255</green>
                  <blue>255</blue>
                </value>
              </parameter>
              <parameter>
                <parameterid>superback</parameterid>
                <name>Back Graphic</name>
              </parameter>
              <parameter>
                <parameterid>crop</parameterid>
                <name>Crop</name>
                <value>false</value>
              </parameter>
              <parameter>
                <parameterid>autokern</parameterid>
                <name>Auto Kerning</name>
                <value>true</value>
              </parameter>
            </effect>
            <sourcetrack>
              <mediatype>video</mediatype>
            </sourcetrack>
          </generatoritem>
          <generatoritem id="Outline Text1">
            <name>アンジュの甘酒美味しいねこういうガチャガチャのチャウナキーホルダーです</name>
            <duration>22166.1117</duration>
            <rate>
              <timebase>30</timebase>
              <ntsc>true</ntsc>
            </rate>
            <start>20930.748299999967</start>
            <end>21412.366199999968</end>
            <in>20930.748299999967</in>
            <out>21412.366199999968</out>
            <enabled>true</enabled>
            <anamorphic>false</anamorphic>
            <alphatype>black</alphatype>
            <masterclipid>Outline Text1</masterclipid>
            <effect>
              <name>Outline Text</name>
              <effectid>Outline Text</effectid>
              <effectcategory>Text</effectcategory>
              <effecttype>generator</effecttype>
              <mediatype>video</mediatype>
              <parameter>
                <parameterid>part1</parameterid>
                <name>Text Settings</name>
                <value/>
              </parameter>
              <parameter>
                <parameterid>str</parameterid>
                <name>Text</name>
                <value>アンジュの甘酒美味しいねこういうガチャガチャのチャウナキーホルダーです</value>
              </parameter>
              <parameter>
                <parameterid>font</parameterid>
                <name>Font</name>
                <value>HiraginoSans-W6</value>
              </parameter>
              <parameter>
                <parameterid>style</parameterid>
                <name>Style</name>
                <valuemin>1</valuemin>
                <valuemax>1</valuemax>
                <valuelist>
                  <valueentry>
                    <name>Regular</name>
                    <value>1</value>
                  </valueentry>
                </valuelist>
                <value>1</value>
              </parameter>
              <parameter>
                <parameterid>align</parameterid>
                <name>Alignment</name>
                <valuemin>1</valuemin>
                <valuemax>3</valuemax>
                <valuelist>
                  <valueentry>
                    <name>Left</name>
                    <value>1</value>
                  </valueentry>
                  <valueentry>
                    <name>Center</name>
                    <value>2</value>
                  </valueentry>
                  <valueentry>
                    <name>Right</name>
                    <value>3</value>
                  </valueentry>
                </valuelist>
                <value>2</value>
              </parameter>
              <parameter>
                <parameterid>size</parameterid>
                <name>Size</name>
                <valuemin>0</valuemin>
                <valuemax>200</valuemax>
                <value>24</value>
              </parameter>
              <parameter>
                <parameterid>track</parameterid>
                <name>Tracking</name>
                <valuemin>0</valuemin>
                <valuemax>100</valuemax>
                <value>1</value>
              </parameter>
              <parameter>
                <parameterid>lead</parameterid>
                <name>Leading</name>
                <valuemin>-100</valuemin>
                <valuemax>100</valuemax>
                <value>0</value>
              </parameter>
              <parameter>
                <parameterid>aspect</parameterid>
                <name>Aspect</name>
                <valuemin>0</valuemin>
                <valuemax>4</valuemax>
                <value>1</value>
              </parameter>
              <parameter>
                <parameterid>linewidth</parameterid>
                <name>Line Width</name>
                <valuemin>0</valuemin>
                <valuemax>200</valuemax>
                <value>2</value>
              </parameter>
              <parameter>
                <parameterid>linesoft</parameterid>
                <name>Line Softness</name>
                <valuemin>0</valuemin>
                <valuemax>100</valuemax>
                <value>5</value>
              </parameter>
              <parameter>
                <parameterid>textopacity</parameterid>
                <name>Text Opacity</name>
                <valuemin>0</valuemin>
                <valuemax>100</valuemax>
                <value>100</value>
              </parameter>
              <parameter>
                <parameterid>center</parameterid>
                <name>Center</name>
                <value>
                  <horiz>0</horiz>
                  <vert>0.4703703703703703</vert>
                </value>
              </parameter>
              <parameter>
                <parameterid>textcolor</parameterid>
                <name>Text Color</name>
                <value>
                  <alpha>255</alpha>
                  <red>255</red>
                  <green>255</green>
                  <blue>255</blue>
                </value>
              </parameter>
              <parameter>
                <parameterid>supertext</parameterid>
                <name>Text Graphic</name>
              </parameter>
              <parameter>
                <parameterid>linecolor</parameterid>
                <name>Line Color</name>
                <value>
                  <alpha>255</alpha>
                  <red>0</red>
                  <green>0</green>
                  <blue>0</blue>
                </value>
              </parameter>
              <parameter>
                <parameterid>superline</parameterid>
                <name>Line Graphic</name>
              </parameter>
              <parameter>
                <parameterid>part2</parameterid>
                <name>Background Settings</name>
              </parameter>
              <parameter>
                <parameterid>xscale</parameterid>
                <name>Horizontal Size</name>
                <valuemin>0</valuemin>
                <valuemax>200</valuemax>
                <value>0</value>
              </parameter>
              <parameter>
                <parameterid>yscale</parameterid>
                <name>Vertical Size</name>
                <valuemin>0</valuemin>
                <valuemax>200</valuemax>
                <value>0</value>
              </parameter>
              <parameter>
                <parameterid>xoffset</parameterid>
                <name>Horizontal Offset</name>
                <valuemin>-100</valuemin>
                <valuemax>100</valuemax>
                <value>0</value>
              </parameter>
              <parameter>
                <parameterid>yoffset</parameterid>
                <name>Vertical Offset</name>
                <valuemin>-100</valuemin>
                <valuemax>100</valuemax>
                <value>0</value>
              </parameter>
              <parameter>
                <parameterid>backsoft</parameterid>
                <name>Back Soft</name>
                <valuemin>0</valuemin>
                <valuemax>100</valuemax>
                <value>0</value>
              </parameter>
              <parameter>
                <parameterid>backopacity</parameterid>
                <name>Back Opacity</name>
                <valuemin>0</valuemin>
                <valuemax>100</valuemax>
                <value>50</value>
              </parameter>
              <parameter>
                <parameterid>backcolor</parameterid>
                <name>Back Color</name>
                <value>
                  <alpha>255</alpha>
                  <red>255</red>
                  <green>255</green>
                  <blue>255</blue>
                </value>
              </parameter>
              <parameter>
                <parameterid>superback</parameterid>
                <name>Back Graphic</name>
              </parameter>
              <parameter>
                <parameterid>crop</parameterid>
                <name>Crop</name>
                <value>false</value>
              </parameter>
              <parameter>
                <parameterid>autokern</parameterid>
                <name>Auto Kerning</name>
                <value>true</value>
              </parameter>
            </effect>
            <sourcetrack>
              <mediatype>video</mediatype>
            </sourcetrack>
          </generatoritem>
          <generatoritem id="Outline Text1">
            <name>みんなメンバーカラーをつけててずっとね</name>
            <duration>22166.1117</duration>
            <rate>
              <timebase>30</timebase>
              <ntsc>true</ntsc>
            </rate>
            <start>21412.366199999968</start>
            <end>21483.095399999966</end>
            <in>21412.366199999968</in>
            <out>21483.095399999966</out>
            <enabled>true</enabled>
            <anamorphic>false</anamorphic>
            <alphatype>black</alphatype>
            <masterclipid>Outline Text1</masterclipid>
            <effect>
              <name>Outline Text</name>
              <effectid>Outline Text</effectid>
              <effectcategory>Text</effectcategory>
              <effecttype>generator</effecttype>
              <mediatype>video</mediatype>
              <parameter>
                <parameterid>part1</parameterid>
                <name>Text Settings</name>
                <value/>
              </parameter>
              <parameter>
                <parameterid>str</parameterid>
                <name>Text</name>
                <value>みんなメンバーカラーをつけててずっとね</value>
              </parameter>
              <parameter>
                <parameterid>font</parameterid>
                <name>Font</name>
                <value>HiraginoSans-W6</value>
              </parameter>
              <parameter>
                <parameterid>style</parameterid>
                <name>Style</name>
                <valuemin>1</valuemin>
                <valuemax>1</valuemax>
                <valuelist>
                  <valueentry>
                    <name>Regular</name>
                    <value>1</value>
                  </valueentry>
                </valuelist>
                <value>1</value>
              </parameter>
              <parameter>
                <parameterid>align</parameterid>
                <name>Alignment</name>
                <valuemin>1</valuemin>
                <valuemax>3</valuemax>
                <valuelist>
                  <valueentry>
                    <name>Left</name>
                    <value>1</value>
                  </valueentry>
                  <valueentry>
                    <name>Center</name>
                    <value>2</value>
                  </valueentry>
                  <valueentry>
                    <name>Right</name>
                    <value>3</value>
                  </valueentry>
                </valuelist>
                <value>2</value>
              </parameter>
              <parameter>
                <parameterid>size</parameterid>
                <name>Size</name>
                <valuemin>0</valuemin>
                <valuemax>200</valuemax>
                <value>24</value>
              </parameter>
              <parameter>
                <parameterid>track</parameterid>
                <name>Tracking</name>
                <valuemin>0</valuemin>
                <valuemax>100</valuemax>
                <value>1</value>
              </parameter>
              <parameter>
                <parameterid>lead</parameterid>
                <name>Leading</name>
                <valuemin>-100</valuemin>
                <valuemax>100</valuemax>
                <value>0</value>
              </parameter>
              <parameter>
                <parameterid>aspect</parameterid>
                <name>Aspect</name>
                <valuemin>0</valuemin>
                <valuemax>4</valuemax>
                <value>1</value>
              </parameter>
              <parameter>
                <parameterid>linewidth</parameterid>
                <name>Line Width</name>
                <valuemin>0</valuemin>
                <valuemax>200</valuemax>
                <value>2</value>
              </parameter>
              <parameter>
                <parameterid>linesoft</parameterid>
                <name>Line Softness</name>
                <valuemin>0</valuemin>
                <valuemax>100</valuemax>
                <value>5</value>
              </parameter>
              <parameter>
                <parameterid>textopacity</parameterid>
                <name>Text Opacity</name>
                <valuemin>0</valuemin>
                <valuemax>100</valuemax>
                <value>100</value>
              </parameter>
              <parameter>
                <parameterid>center</parameterid>
                <name>Center</name>
                <value>
                  <horiz>0</horiz>
                  <vert>0.4703703703703703</vert>
                </value>
              </parameter>
              <parameter>
                <parameterid>textcolor</parameterid>
                <name>Text Color</name>
                <value>
                  <alpha>255</alpha>
                  <red>255</red>
                  <green>255</green>
                  <blue>255</blue>
                </value>
              </parameter>
              <parameter>
                <parameterid>supertext</parameterid>
                <name>Text Graphic</name>
              </parameter>
              <parameter>
                <parameterid>linecolor</parameterid>
                <name>Line Color</name>
                <value>
                  <alpha>255</alpha>
                  <red>0</red>
                  <green>0</green>
                  <blue>0</blue>
                </value>
              </parameter>
              <parameter>
                <parameterid>superline</parameterid>
                <name>Line Graphic</name>
              </parameter>
              <parameter>
                <parameterid>part2</parameterid>
                <name>Background Settings</name>
              </parameter>
              <parameter>
                <parameterid>xscale</parameterid>
                <name>Horizontal Size</name>
                <valuemin>0</valuemin>
                <valuemax>200</valuemax>
                <value>0</value>
              </parameter>
              <parameter>
                <parameterid>yscale</parameterid>
                <name>Vertical Size</name>
                <valuemin>0</valuemin>
                <valuemax>200</valuemax>
                <value>0</value>
              </parameter>
              <parameter>
                <parameterid>xoffset</parameterid>
                <name>Horizontal Offset</name>
                <valuemin>-100</valuemin>
                <valuemax>100</valuemax>
                <value>0</value>
              </parameter>
              <parameter>
                <parameterid>yoffset</parameterid>
                <name>Vertical Offset</name>
                <valuemin>-100</valuemin>
                <valuemax>100</valuemax>
                <value>0</value>
              </parameter>
              <parameter>
                <parameterid>backsoft</parameterid>
                <name>Back Soft</name>
                <valuemin>0</valuemin>
                <valuemax>100</valuemax>
                <value>0</value>
              </parameter>
              <parameter>
                <parameterid>backopacity</parameterid>
                <name>Back Opacity</name>
                <valuemin>0</valuemin>
                <valuemax>100</valuemax>
                <value>50</value>
              </parameter>
              <parameter>
                <parameterid>backcolor</parameterid>
                <name>Back Color</name>
                <value>
                  <alpha>255</alpha>
                  <red>255</red>
                  <green>255</green>
                  <blue>255</blue>
                </value>
              </parameter>
              <parameter>
                <parameterid>superback</parameterid>
                <name>Back Graphic</name>
              </parameter>
              <parameter>
                <parameterid>crop</parameterid>
                <name>Crop</name>
                <value>false</value>
              </parameter>
              <parameter>
                <parameterid>autokern</parameterid>
                <name>Auto Kerning</name>
                <value>true</value>
              </parameter>
            </effect>
            <sourcetrack>
              <mediatype>video</mediatype>
            </sourcetrack>
          </generatoritem>
          <generatoritem id="Outline Text1">
            <name>私の紫だけが当たらなくて</name>
            <duration>22166.1117</duration>
            <rate>
              <timebase>30</timebase>
              <ntsc>true</ntsc>
            </rate>
            <start>21483.095399999966</start>
            <end>21581.996399999967</end>
            <in>21483.095399999966</in>
            <out>21581.996399999967</out>
            <enabled>true</enabled>
            <anamorphic>false</anamorphic>
            <alphatype>black</alphatype>
            <masterclipid>Outline Text1</masterclipid>
            <effect>
              <name>Outline Text</name>
              <effectid>Outline Text</effectid>
              <effectcategory>Text</effectcategory>
              <effecttype>generator</effecttype>
              <mediatype>video</mediatype>
              <parameter>
                <parameterid>part1</parameterid>
                <name>Text Settings</name>
                <value/>
              </parameter>
              <parameter>
                <parameterid>str</parameterid>
                <name>Text</name>
                <value>私の紫だけが当たらなくて</value>
              </parameter>
              <parameter>
                <parameterid>font</parameterid>
                <name>Font</name>
                <value>HiraginoSans-W6</value>
              </parameter>
              <parameter>
                <parameterid>style</parameterid>
                <name>Style</name>
                <valuemin>1</valuemin>
                <valuemax>1</valuemax>
                <valuelist>
                  <valueentry>
                    <name>Regular</name>
                    <value>1</value>
                  </valueentry>
                </valuelist>
                <value>1</value>
              </parameter>
              <parameter>
                <parameterid>align</parameterid>
                <name>Alignment</name>
                <valuemin>1</valuemin>
                <valuemax>3</valuemax>
                <valuelist>
                  <valueentry>
                    <name>Left</name>
                    <value>1</value>
                  </valueentry>
                  <valueentry>
                    <name>Center</name>
                    <value>2</value>
                  </valueentry>
                  <valueentry>
                    <name>Right</name>
                    <value>3</value>
                  </valueentry>
                </valuelist>
                <value>2</value>
              </parameter>
              <parameter>
                <parameterid>size</parameterid>
                <name>Size</name>
                <valuemin>0</valuemin>
                <valuemax>200</valuemax>
                <value>24</value>
              </parameter>
              <parameter>
                <parameterid>track</parameterid>
                <name>Tracking</name>
                <valuemin>0</valuemin>
                <valuemax>100</valuemax>
                <value>1</value>
              </parameter>
              <parameter>
                <parameterid>lead</parameterid>
                <name>Leading</name>
                <valuemin>-100</valuemin>
                <valuemax>100</valuemax>
                <value>0</value>
              </parameter>
              <parameter>
                <parameterid>aspect</parameterid>
                <name>Aspect</name>
                <valuemin>0</valuemin>
                <valuemax>4</valuemax>
                <value>1</value>
              </parameter>
              <parameter>
                <parameterid>linewidth</parameterid>
                <name>Line Width</name>
                <valuemin>0</valuemin>
                <valuemax>200</valuemax>
                <value>2</value>
              </parameter>
              <parameter>
                <parameterid>linesoft</parameterid>
                <name>Line Softness</name>
                <valuemin>0</valuemin>
                <valuemax>100</valuemax>
                <value>5</value>
              </parameter>
              <parameter>
                <parameterid>textopacity</parameterid>
                <name>Text Opacity</name>
                <valuemin>0</valuemin>
                <valuemax>100</valuemax>
                <value>100</value>
              </parameter>
              <parameter>
                <parameterid>center</parameterid>
                <name>Center</name>
                <value>
                  <horiz>0</horiz>
                  <vert>0.4703703703703703</vert>
                </value>
              </parameter>
              <parameter>
                <parameterid>textcolor</parameterid>
                <name>Text Color</name>
                <value>
                  <alpha>255</alpha>
                  <red>255</red>
                  <green>255</green>
                  <blue>255</blue>
                </value>
              </parameter>
              <parameter>
                <parameterid>supertext</parameterid>
                <name>Text Graphic</name>
              </parameter>
              <parameter>
                <parameterid>linecolor</parameterid>
                <name>Line Color</name>
                <value>
                  <alpha>255</alpha>
                  <red>0</red>
                  <green>0</green>
                  <blue>0</blue>
                </value>
              </parameter>
              <parameter>
                <parameterid>superline</parameterid>
                <name>Line Graphic</name>
              </parameter>
              <parameter>
                <parameterid>part2</parameterid>
                <name>Background Settings</name>
              </parameter>
              <parameter>
                <parameterid>xscale</parameterid>
                <name>Horizontal Size</name>
                <valuemin>0</valuemin>
                <valuemax>200</valuemax>
                <value>0</value>
              </parameter>
              <parameter>
                <parameterid>yscale</parameterid>
                <name>Vertical Size</name>
                <valuemin>0</valuemin>
                <valuemax>200</valuemax>
                <value>0</value>
              </parameter>
              <parameter>
                <parameterid>xoffset</parameterid>
                <name>Horizontal Offset</name>
                <valuemin>-100</valuemin>
                <valuemax>100</valuemax>
                <value>0</value>
              </parameter>
              <parameter>
                <parameterid>yoffset</parameterid>
                <name>Vertical Offset</name>
                <valuemin>-100</valuemin>
                <valuemax>100</valuemax>
                <value>0</value>
              </parameter>
              <parameter>
                <parameterid>backsoft</parameterid>
                <name>Back Soft</name>
                <valuemin>0</valuemin>
                <valuemax>100</valuemax>
                <value>0</value>
              </parameter>
              <parameter>
                <parameterid>backopacity</parameterid>
                <name>Back Opacity</name>
                <valuemin>0</valuemin>
                <valuemax>100</valuemax>
                <value>50</value>
              </parameter>
              <parameter>
                <parameterid>backcolor</parameterid>
                <name>Back Color</name>
                <value>
                  <alpha>255</alpha>
                  <red>255</red>
                  <green>255</green>
                  <blue>255</blue>
                </value>
              </parameter>
              <parameter>
                <parameterid>superback</parameterid>
                <name>Back Graphic</name>
              </parameter>
              <parameter>
                <parameterid>crop</parameterid>
                <name>Crop</name>
                <value>false</value>
              </parameter>
              <parameter>
                <parameterid>autokern</parameterid>
                <name>Auto Kerning</name>
                <value>true</value>
              </parameter>
            </effect>
            <sourcetrack>
              <mediatype>video</mediatype>
            </sourcetrack>
          </generatoritem>
          <generatoritem id="Outline Text1">
            <name>私オレンジのアヒルつけてたんですけど</name>
            <duration>22166.1117</duration>
            <rate>
              <timebase>30</timebase>
              <ntsc>true</ntsc>
            </rate>
            <start>21581.996399999967</start>
            <end>21653.32499999998</end>
            <in>21581.996399999967</in>
            <out>21653.32499999998</out>
            <enabled>true</enabled>
            <anamorphic>false</anamorphic>
            <alphatype>black</alphatype>
            <masterclipid>Outline Text1</masterclipid>
            <effect>
              <name>Outline Text</name>
              <effectid>Outline Text</effectid>
              <effectcategory>Text</effectcategory>
              <effecttype>generator</effecttype>
              <mediatype>video</mediatype>
              <parameter>
                <parameterid>part1</parameterid>
                <name>Text Settings</name>
                <value/>
              </parameter>
              <parameter>
                <parameterid>str</parameterid>
                <name>Text</name>
                <value>私オレンジのアヒルつけてたんですけど</value>
              </parameter>
              <parameter>
                <parameterid>font</parameterid>
                <name>Font</name>
                <value>HiraginoSans-W6</value>
              </parameter>
              <parameter>
                <parameterid>style</parameterid>
                <name>Style</name>
                <valuemin>1</valuemin>
                <valuemax>1</valuemax>
                <valuelist>
                  <valueentry>
                    <name>Regular</name>
                    <value>1</value>
                  </valueentry>
                </valuelist>
                <value>1</value>
              </parameter>
              <parameter>
                <parameterid>align</parameterid>
                <name>Alignment</name>
                <valuemin>1</valuemin>
                <valuemax>3</valuemax>
                <valuelist>
                  <valueentry>
                    <name>Left</name>
                    <value>1</value>
                  </valueentry>
                  <valueentry>
                    <name>Center</name>
                    <value>2</value>
                  </valueentry>
                  <valueentry>
                    <name>Right</name>
                    <value>3</value>
                  </valueentry>
                </valuelist>
                <value>2</value>
              </parameter>
              <parameter>
                <parameterid>size</parameterid>
                <name>Size</name>
                <valuemin>0</valuemin>
                <valuemax>200</valuemax>
                <value>24</value>
              </parameter>
              <parameter>
                <parameterid>track</parameterid>
                <name>Tracking</name>
                <valuemin>0</valuemin>
                <valuemax>100</valuemax>
                <value>1</value>
              </parameter>
              <parameter>
                <parameterid>lead</parameterid>
                <name>Leading</name>
                <valuemin>-100</valuemin>
                <valuemax>100</valuemax>
                <value>0</value>
              </parameter>
              <parameter>
                <parameterid>aspect</parameterid>
                <name>Aspect</name>
                <valuemin>0</valuemin>
                <valuemax>4</valuemax>
                <value>1</value>
              </parameter>
              <parameter>
                <parameterid>linewidth</parameterid>
                <name>Line Width</name>
                <valuemin>0</valuemin>
                <valuemax>200</valuemax>
                <value>2</value>
              </parameter>
              <parameter>
                <parameterid>linesoft</parameterid>
                <name>Line Softness</name>
                <valuemin>0</valuemin>
                <valuemax>100</valuemax>
                <value>5</value>
              </parameter>
              <parameter>
                <parameterid>textopacity</parameterid>
                <name>Text Opacity</name>
                <valuemin>0</valuemin>
                <valuemax>100</valuemax>
                <value>100</value>
              </parameter>
              <parameter>
                <parameterid>center</parameterid>
                <name>Center</name>
                <value>
                  <horiz>0</horiz>
                  <vert>0.4703703703703703</vert>
                </value>
              </parameter>
              <parameter>
                <parameterid>textcolor</parameterid>
                <name>Text Color</name>
                <value>
                  <alpha>255</alpha>
                  <red>255</red>
                  <green>255</green>
                  <blue>255</blue>
                </value>
              </parameter>
              <parameter>
                <parameterid>supertext</parameterid>
                <name>Text Graphic</name>
              </parameter>
              <parameter>
                <parameterid>linecolor</parameterid>
                <name>Line Color</name>
                <value>
                  <alpha>255</alpha>
                  <red>0</red>
                  <green>0</green>
                  <blue>0</blue>
                </value>
              </parameter>
              <parameter>
                <parameterid>superline</parameterid>
                <name>Line Graphic</name>
              </parameter>
              <parameter>
                <parameterid>part2</parameterid>
                <name>Background Settings</name>
              </parameter>
              <parameter>
                <parameterid>xscale</parameterid>
                <name>Horizontal Size</name>
                <valuemin>0</valuemin>
                <valuemax>200</valuemax>
                <value>0</value>
              </parameter>
              <parameter>
                <parameterid>yscale</parameterid>
                <name>Vertical Size</name>
                <valuemin>0</valuemin>
                <valuemax>200</valuemax>
                <value>0</value>
              </parameter>
              <parameter>
                <parameterid>xoffset</parameterid>
                <name>Horizontal Offset</name>
                <valuemin>-100</valuemin>
                <valuemax>100</valuemax>
                <value>0</value>
              </parameter>
              <parameter>
                <parameterid>yoffset</parameterid>
                <name>Vertical Offset</name>
                <valuemin>-100</valuemin>
                <valuemax>100</valuemax>
                <value>0</value>
              </parameter>
              <parameter>
                <parameterid>backsoft</parameterid>
                <name>Back Soft</name>
                <valuemin>0</valuemin>
                <valuemax>100</valuemax>
                <value>0</value>
              </parameter>
              <parameter>
                <parameterid>backopacity</parameterid>
                <name>Back Opacity</name>
                <valuemin>0</valuemin>
                <valuemax>100</valuemax>
                <value>50</value>
              </parameter>
              <parameter>
                <parameterid>backcolor</parameterid>
                <name>Back Color</name>
                <value>
                  <alpha>255</alpha>
                  <red>255</red>
                  <green>255</green>
                  <blue>255</blue>
                </value>
              </parameter>
              <parameter>
                <parameterid>superback</parameterid>
                <name>Back Graphic</name>
              </parameter>
              <parameter>
                <parameterid>crop</parameterid>
                <name>Crop</name>
                <value>false</value>
              </parameter>
              <parameter>
                <parameterid>autokern</parameterid>
                <name>Auto Kerning</name>
                <value>true</value>
              </parameter>
            </effect>
            <sourcetrack>
              <mediatype>video</mediatype>
            </sourcetrack>
          </generatoritem>
          <generatoritem id="Outline Text1">
            <name>スタッフさんが散財したいっていう日に</name>
            <duration>22166.1117</duration>
            <rate>
              <timebase>30</timebase>
              <ntsc>true</ntsc>
            </rate>
            <start>21653.32499999998</start>
            <end>21742.335899999984</end>
            <in>21653.32499999998</in>
            <out>21742.335899999984</out>
            <enabled>true</enabled>
            <anamorphic>false</anamorphic>
            <alphatype>black</alphatype>
            <masterclipid>Outline Text1</masterclipid>
            <effect>
              <name>Outline Text</name>
              <effectid>Outline Text</effectid>
              <effectcategory>Text</effectcategory>
              <effecttype>generator</effecttype>
              <mediatype>video</mediatype>
              <parameter>
                <parameterid>part1</parameterid>
                <name>Text Settings</name>
                <value/>
              </parameter>
              <parameter>
                <parameterid>str</parameterid>
                <name>Text</name>
                <value>スタッフさんが散財したいっていう日に</value>
              </parameter>
              <parameter>
                <parameterid>font</parameterid>
                <name>Font</name>
                <value>HiraginoSans-W6</value>
              </parameter>
              <parameter>
                <parameterid>style</parameterid>
                <name>Style</name>
                <valuemin>1</valuemin>
                <valuemax>1</valuemax>
                <valuelist>
                  <valueentry>
                    <name>Regular</name>
                    <value>1</value>
                  </valueentry>
                </valuelist>
                <value>1</value>
              </parameter>
              <parameter>
                <parameterid>align</parameterid>
                <name>Alignment</name>
                <valuemin>1</valuemin>
                <valuemax>3</valuemax>
                <valuelist>
                  <valueentry>
                    <name>Left</name>
                    <value>1</value>
                  </valueentry>
                  <valueentry>
                    <name>Center</name>
                    <value>2</value>
                  </valueentry>
                  <valueentry>
                    <name>Right</name>
                    <value>3</value>
                  </valueentry>
                </valuelist>
                <value>2</value>
              </parameter>
              <parameter>
                <parameterid>size</parameterid>
                <name>Size</name>
                <valuemin>0</valuemin>
                <valuemax>200</valuemax>
                <value>24</value>
              </parameter>
              <parameter>
                <parameterid>track</parameterid>
                <name>Tracking</name>
                <valuemin>0</valuemin>
                <valuemax>100</valuemax>
                <value>1</value>
              </parameter>
              <parameter>
                <parameterid>lead</parameterid>
                <name>Leading</name>
                <valuemin>-100</valuemin>
                <valuemax>100</valuemax>
                <value>0</value>
              </parameter>
              <parameter>
                <parameterid>aspect</parameterid>
                <name>Aspect</name>
                <valuemin>0</valuemin>
                <valuemax>4</valuemax>
                <value>1</value>
              </parameter>
              <parameter>
                <parameterid>linewidth</parameterid>
                <name>Line Width</name>
                <valuemin>0</valuemin>
                <valuemax>200</valuemax>
                <value>2</value>
              </parameter>
              <parameter>
                <parameterid>linesoft</parameterid>
                <name>Line Softness</name>
                <valuemin>0</valuemin>
                <valuemax>100</valuemax>
                <value>5</value>
              </parameter>
              <parameter>
                <parameterid>textopacity</parameterid>
                <name>Text Opacity</name>
                <valuemin>0</valuemin>
                <valuemax>100</valuemax>
                <value>100</value>
              </parameter>
              <parameter>
                <parameterid>center</parameterid>
                <name>Center</name>
                <value>
                  <horiz>0</horiz>
                  <vert>0.4703703703703703</vert>
                </value>
              </parameter>
              <parameter>
                <parameterid>textcolor</parameterid>
                <name>Text Color</name>
                <value>
                  <alpha>255</alpha>
                  <red>255</red>
                  <green>255</green>
                  <blue>255</blue>
                </value>
              </parameter>
              <parameter>
                <parameterid>supertext</parameterid>
                <name>Text Graphic</name>
              </parameter>
              <parameter>
                <parameterid>linecolor</parameterid>
                <name>Line Color</name>
                <value>
                  <alpha>255</alpha>
                  <red>0</red>
                  <green>0</green>
                  <blue>0</blue>
                </value>
              </parameter>
              <parameter>
                <parameterid>superline</parameterid>
                <name>Line Graphic</name>
              </parameter>
              <parameter>
                <parameterid>part2</parameterid>
                <name>Background Settings</name>
              </parameter>
              <parameter>
                <parameterid>xscale</parameterid>
                <name>Horizontal Size</name>
                <valuemin>0</valuemin>
                <valuemax>200</valuemax>
                <value>0</value>
              </parameter>
              <parameter>
                <parameterid>yscale</parameterid>
                <name>Vertical Size</name>
                <valuemin>0</valuemin>
                <valuemax>200</valuemax>
                <value>0</value>
              </parameter>
              <parameter>
                <parameterid>xoffset</parameterid>
                <name>Horizontal Offset</name>
                <valuemin>-100</valuemin>
                <valuemax>100</valuemax>
                <value>0</value>
              </parameter>
              <parameter>
                <parameterid>yoffset</parameterid>
                <name>Vertical Offset</name>
                <valuemin>-100</valuemin>
                <valuemax>100</valuemax>
                <value>0</value>
              </parameter>
              <parameter>
                <parameterid>backsoft</parameterid>
                <name>Back Soft</name>
                <valuemin>0</valuemin>
                <valuemax>100</valuemax>
                <value>0</value>
              </parameter>
              <parameter>
                <parameterid>backopacity</parameterid>
                <name>Back Opacity</name>
                <valuemin>0</valuemin>
                <valuemax>100</valuemax>
                <value>50</value>
              </parameter>
              <parameter>
                <parameterid>backcolor</parameterid>
                <name>Back Color</name>
                <value>
                  <alpha>255</alpha>
                  <red>255</red>
                  <green>255</green>
                  <blue>255</blue>
                </value>
              </parameter>
              <parameter>
                <parameterid>superback</parameterid>
                <name>Back Graphic</name>
              </parameter>
              <parameter>
                <parameterid>crop</parameterid>
                <name>Crop</name>
                <value>false</value>
              </parameter>
              <parameter>
                <parameterid>autokern</parameterid>
                <name>Auto Kerning</name>
                <value>true</value>
              </parameter>
            </effect>
            <sourcetrack>
              <mediatype>video</mediatype>
            </sourcetrack>
          </generatoritem>
          <generatoritem id="Outline Text1">
            <name>これのガチャガチャを回してきてくれて</name>
            <duration>22166.1117</duration>
            <rate>
              <timebase>30</timebase>
              <ntsc>true</ntsc>
            </rate>
            <start>21742.335899999984</start>
            <end>21804.07409999999</end>
            <in>21742.335899999984</in>
            <out>21804.07409999999</out>
            <enabled>true</enabled>
            <anamorphic>false</anamorphic>
            <alphatype>black</alphatype>
            <masterclipid>Outline Text1</masterclipid>
            <effect>
              <name>Outline Text</name>
              <effectid>Outline Text</effectid>
              <effectcategory>Text</effectcategory>
              <effecttype>generator</effecttype>
              <mediatype>video</mediatype>
              <parameter>
                <parameterid>part1</parameterid>
                <name>Text Settings</name>
                <value/>
              </parameter>
              <parameter>
                <parameterid>str</parameterid>
                <name>Text</name>
                <value>これのガチャガチャを回してきてくれて</value>
              </parameter>
              <parameter>
                <parameterid>font</parameterid>
                <name>Font</name>
                <value>HiraginoSans-W6</value>
              </parameter>
              <parameter>
                <parameterid>style</parameterid>
                <name>Style</name>
                <valuemin>1</valuemin>
                <valuemax>1</valuemax>
                <valuelist>
                  <valueentry>
                    <name>Regular</name>
                    <value>1</value>
                  </valueentry>
                </valuelist>
                <value>1</value>
              </parameter>
              <parameter>
                <parameterid>align</parameterid>
                <name>Alignment</name>
                <valuemin>1</valuemin>
                <valuemax>3</valuemax>
                <valuelist>
                  <valueentry>
                    <name>Left</name>
                    <value>1</value>
                  </valueentry>
                  <valueentry>
                    <name>Center</name>
                    <value>2</value>
                  </valueentry>
                  <valueentry>
                    <name>Right</name>
                    <value>3</value>
                  </valueentry>
                </valuelist>
                <value>2</value>
              </parameter>
              <parameter>
                <parameterid>size</parameterid>
                <name>Size</name>
                <valuemin>0</valuemin>
                <valuemax>200</valuemax>
                <value>24</value>
              </parameter>
              <parameter>
                <parameterid>track</parameterid>
                <name>Tracking</name>
                <valuemin>0</valuemin>
                <valuemax>100</valuemax>
                <value>1</value>
              </parameter>
              <parameter>
                <parameterid>lead</parameterid>
                <name>Leading</name>
                <valuemin>-100</valuemin>
                <valuemax>100</valuemax>
                <value>0</value>
              </parameter>
              <parameter>
                <parameterid>aspect</parameterid>
                <name>Aspect</name>
                <valuemin>0</valuemin>
                <valuemax>4</valuemax>
                <value>1</value>
              </parameter>
              <parameter>
                <parameterid>linewidth</parameterid>
                <name>Line Width</name>
                <valuemin>0</valuemin>
                <valuemax>200</valuemax>
                <value>2</value>
              </parameter>
              <parameter>
                <parameterid>linesoft</parameterid>
                <name>Line Softness</name>
                <valuemin>0</valuemin>
                <valuemax>100</valuemax>
                <value>5</value>
              </parameter>
              <parameter>
                <parameterid>textopacity</parameterid>
                <name>Text Opacity</name>
                <valuemin>0</valuemin>
                <valuemax>100</valuemax>
                <value>100</value>
              </parameter>
              <parameter>
                <parameterid>center</parameterid>
                <name>Center</name>
                <value>
                  <horiz>0</horiz>
                  <vert>0.4703703703703703</vert>
                </value>
              </parameter>
              <parameter>
                <parameterid>textcolor</parameterid>
                <name>Text Color</name>
                <value>
                  <alpha>255</alpha>
                  <red>255</red>
                  <green>255</green>
                  <blue>255</blue>
                </value>
              </parameter>
              <parameter>
                <parameterid>supertext</parameterid>
                <name>Text Graphic</name>
              </parameter>
              <parameter>
                <parameterid>linecolor</parameterid>
                <name>Line Color</name>
                <value>
                  <alpha>255</alpha>
                  <red>0</red>
                  <green>0</green>
                  <blue>0</blue>
                </value>
              </parameter>
              <parameter>
                <parameterid>superline</parameterid>
                <name>Line Graphic</name>
              </parameter>
              <parameter>
                <parameterid>part2</parameterid>
                <name>Background Settings</name>
              </parameter>
              <parameter>
                <parameterid>xscale</parameterid>
                <name>Horizontal Size</name>
                <valuemin>0</valuemin>
                <valuemax>200</valuemax>
                <value>0</value>
              </parameter>
              <parameter>
                <parameterid>yscale</parameterid>
                <name>Vertical Size</name>
                <valuemin>0</valuemin>
                <valuemax>200</valuemax>
                <value>0</value>
              </parameter>
              <parameter>
                <parameterid>xoffset</parameterid>
                <name>Horizontal Offset</name>
                <valuemin>-100</valuemin>
                <valuemax>100</valuemax>
                <value>0</value>
              </parameter>
              <parameter>
                <parameterid>yoffset</parameterid>
                <name>Vertical Offset</name>
                <valuemin>-100</valuemin>
                <valuemax>100</valuemax>
                <value>0</value>
              </parameter>
              <parameter>
                <parameterid>backsoft</parameterid>
                <name>Back Soft</name>
                <valuemin>0</valuemin>
                <valuemax>100</valuemax>
                <value>0</value>
              </parameter>
              <parameter>
                <parameterid>backopacity</parameterid>
                <name>Back Opacity</name>
                <valuemin>0</valuemin>
                <valuemax>100</valuemax>
                <value>50</value>
              </parameter>
              <parameter>
                <parameterid>backcolor</parameterid>
                <name>Back Color</name>
                <value>
                  <alpha>255</alpha>
                  <red>255</red>
                  <green>255</green>
                  <blue>255</blue>
                </value>
              </parameter>
              <parameter>
                <parameterid>superback</parameterid>
                <name>Back Graphic</name>
              </parameter>
              <parameter>
                <parameterid>crop</parameterid>
                <name>Crop</name>
                <value>false</value>
              </parameter>
              <parameter>
                <parameterid>autokern</parameterid>
                <name>Auto Kerning</name>
                <value>true</value>
              </parameter>
            </effect>
            <sourcetrack>
              <mediatype>video</mediatype>
            </sourcetrack>
          </generatoritem>
          <generatoritem id="Outline Text1">
            <name>紫を当ててきてくれたので</name>
            <duration>22166.1117</duration>
            <rate>
              <timebase>30</timebase>
              <ntsc>true</ntsc>
            </rate>
            <start>21804.07409999999</start>
            <end>21868.209899999994</end>
            <in>21804.07409999999</in>
            <out>21868.209899999994</out>
            <enabled>true</enabled>
            <anamorphic>false</anamorphic>
            <alphatype>black</alphatype>
            <masterclipid>Outline Text1</masterclipid>
            <effect>
              <name>Outline Text</name>
              <effectid>Outline Text</effectid>
              <effectcategory>Text</effectcategory>
              <effecttype>generator</effecttype>
              <mediatype>video</mediatype>
              <parameter>
                <parameterid>part1</parameterid>
                <name>Text Settings</name>
                <value/>
              </parameter>
              <parameter>
                <parameterid>str</parameterid>
                <name>Text</name>
                <value>紫を当ててきてくれたので</value>
              </parameter>
              <parameter>
                <parameterid>font</parameterid>
                <name>Font</name>
                <value>HiraginoSans-W6</value>
              </parameter>
              <parameter>
                <parameterid>style</parameterid>
                <name>Style</name>
                <valuemin>1</valuemin>
                <valuemax>1</valuemax>
                <valuelist>
                  <valueentry>
                    <name>Regular</name>
                    <value>1</value>
                  </valueentry>
                </valuelist>
                <value>1</value>
              </parameter>
              <parameter>
                <parameterid>align</parameterid>
                <name>Alignment</name>
                <valuemin>1</valuemin>
                <valuemax>3</valuemax>
                <valuelist>
                  <valueentry>
                    <name>Left</name>
                    <value>1</value>
                  </valueentry>
                  <valueentry>
                    <name>Center</name>
                    <value>2</value>
                  </valueentry>
                  <valueentry>
                    <name>Right</name>
                    <value>3</value>
                  </valueentry>
                </valuelist>
                <value>2</value>
              </parameter>
              <parameter>
                <parameterid>size</parameterid>
                <name>Size</name>
                <valuemin>0</valuemin>
                <valuemax>200</valuemax>
                <value>24</value>
              </parameter>
              <parameter>
                <parameterid>track</parameterid>
                <name>Tracking</name>
                <valuemin>0</valuemin>
                <valuemax>100</valuemax>
                <value>1</value>
              </parameter>
              <parameter>
                <parameterid>lead</parameterid>
                <name>Leading</name>
                <valuemin>-100</valuemin>
                <valuemax>100</valuemax>
                <value>0</value>
              </parameter>
              <parameter>
                <parameterid>aspect</parameterid>
                <name>Aspect</name>
                <valuemin>0</valuemin>
                <valuemax>4</valuemax>
                <value>1</value>
              </parameter>
              <parameter>
                <parameterid>linewidth</parameterid>
                <name>Line Width</name>
                <valuemin>0</valuemin>
                <valuemax>200</valuemax>
                <value>2</value>
              </parameter>
              <parameter>
                <parameterid>linesoft</parameterid>
                <name>Line Softness</name>
                <valuemin>0</valuemin>
                <valuemax>100</valuemax>
                <value>5</value>
              </parameter>
              <parameter>
                <parameterid>textopacity</parameterid>
                <name>Text Opacity</name>
                <valuemin>0</valuemin>
                <valuemax>100</valuemax>
                <value>100</value>
              </parameter>
              <parameter>
                <parameterid>center</parameterid>
                <name>Center</name>
                <value>
                  <horiz>0</horiz>
                  <vert>0.4703703703703703</vert>
                </value>
              </parameter>
              <parameter>
                <parameterid>textcolor</parameterid>
                <name>Text Color</name>
                <value>
                  <alpha>255</alpha>
                  <red>255</red>
                  <green>255</green>
                  <blue>255</blue>
                </value>
              </parameter>
              <parameter>
                <parameterid>supertext</parameterid>
                <name>Text Graphic</name>
              </parameter>
              <parameter>
                <parameterid>linecolor</parameterid>
                <name>Line Color</name>
                <value>
                  <alpha>255</alpha>
                  <red>0</red>
                  <green>0</green>
                  <blue>0</blue>
                </value>
              </parameter>
              <parameter>
                <parameterid>superline</parameterid>
                <name>Line Graphic</name>
              </parameter>
              <parameter>
                <parameterid>part2</parameterid>
                <name>Background Settings</name>
              </parameter>
              <parameter>
                <parameterid>xscale</parameterid>
                <name>Horizontal Size</name>
                <valuemin>0</valuemin>
                <valuemax>200</valuemax>
                <value>0</value>
              </parameter>
              <parameter>
                <parameterid>yscale</parameterid>
                <name>Vertical Size</name>
                <valuemin>0</valuemin>
                <valuemax>200</valuemax>
                <value>0</value>
              </parameter>
              <parameter>
                <parameterid>xoffset</parameterid>
                <name>Horizontal Offset</name>
                <valuemin>-100</valuemin>
                <valuemax>100</valuemax>
                <value>0</value>
              </parameter>
              <parameter>
                <parameterid>yoffset</parameterid>
                <name>Vertical Offset</name>
                <valuemin>-100</valuemin>
                <valuemax>100</valuemax>
                <value>0</value>
              </parameter>
              <parameter>
                <parameterid>backsoft</parameterid>
                <name>Back Soft</name>
                <valuemin>0</valuemin>
                <valuemax>100</valuemax>
                <value>0</value>
              </parameter>
              <parameter>
                <parameterid>backopacity</parameterid>
                <name>Back Opacity</name>
                <valuemin>0</valuemin>
                <valuemax>100</valuemax>
                <value>50</value>
              </parameter>
              <parameter>
                <parameterid>backcolor</parameterid>
                <name>Back Color</name>
                <value>
                  <alpha>255</alpha>
                  <red>255</red>
                  <green>255</green>
                  <blue>255</blue>
                </value>
              </parameter>
              <parameter>
                <parameterid>superback</parameterid>
                <name>Back Graphic</name>
              </parameter>
              <parameter>
                <parameterid>crop</parameterid>
                <name>Crop</name>
                <value>false</value>
              </parameter>
              <parameter>
                <parameterid>autokern</parameterid>
                <name>Auto Kerning</name>
                <value>true</value>
              </parameter>
            </effect>
            <sourcetrack>
              <mediatype>video</mediatype>
            </sourcetrack>
          </generatoritem>
          <generatoritem id="Outline Text1">
            <name>ついに私も紫になりました</name>
            <duration>22166.1117</duration>
            <rate>
              <timebase>30</timebase>
              <ntsc>true</ntsc>
            </rate>
            <start>21868.209899999994</start>
            <end>21931.146899999996</end>
            <in>21868.209899999994</in>
            <out>21931.146899999996</out>
            <enabled>true</enabled>
            <anamorphic>false</anamorphic>
            <alphatype>black</alphatype>
            <masterclipid>Outline Text1</masterclipid>
            <effect>
              <name>Outline Text</name>
              <effectid>Outline Text</effectid>
              <effectcategory>Text</effectcategory>
              <effecttype>generator</effecttype>
              <mediatype>video</mediatype>
              <parameter>
                <parameterid>part1</parameterid>
                <name>Text Settings</name>
                <value/>
              </parameter>
              <parameter>
                <parameterid>str</parameterid>
                <name>Text</name>
                <value>ついに私も紫になりました</value>
              </parameter>
              <parameter>
                <parameterid>font</parameterid>
                <name>Font</name>
                <value>HiraginoSans-W6</value>
              </parameter>
              <parameter>
                <parameterid>style</parameterid>
                <name>Style</name>
                <valuemin>1</valuemin>
                <valuemax>1</valuemax>
                <valuelist>
                  <valueentry>
                    <name>Regular</name>
                    <value>1</value>
                  </valueentry>
                </valuelist>
                <value>1</value>
              </parameter>
              <parameter>
                <parameterid>align</parameterid>
                <name>Alignment</name>
                <valuemin>1</valuemin>
                <valuemax>3</valuemax>
                <valuelist>
                  <valueentry>
                    <name>Left</name>
                    <value>1</value>
                  </valueentry>
                  <valueentry>
                    <name>Center</name>
                    <value>2</value>
                  </valueentry>
                  <valueentry>
                    <name>Right</name>
                    <value>3</value>
                  </valueentry>
                </valuelist>
                <value>2</value>
              </parameter>
              <parameter>
                <parameterid>size</parameterid>
                <name>Size</name>
                <valuemin>0</valuemin>
                <valuemax>200</valuemax>
                <value>24</value>
              </parameter>
              <parameter>
                <parameterid>track</parameterid>
                <name>Tracking</name>
                <valuemin>0</valuemin>
                <valuemax>100</valuemax>
                <value>1</value>
              </parameter>
              <parameter>
                <parameterid>lead</parameterid>
                <name>Leading</name>
                <valuemin>-100</valuemin>
                <valuemax>100</valuemax>
                <value>0</value>
              </parameter>
              <parameter>
                <parameterid>aspect</parameterid>
                <name>Aspect</name>
                <valuemin>0</valuemin>
                <valuemax>4</valuemax>
                <value>1</value>
              </parameter>
              <parameter>
                <parameterid>linewidth</parameterid>
                <name>Line Width</name>
                <valuemin>0</valuemin>
                <valuemax>200</valuemax>
                <value>2</value>
              </parameter>
              <parameter>
                <parameterid>linesoft</parameterid>
                <name>Line Softness</name>
                <valuemin>0</valuemin>
                <valuemax>100</valuemax>
                <value>5</value>
              </parameter>
              <parameter>
                <parameterid>textopacity</parameterid>
                <name>Text Opacity</name>
                <valuemin>0</valuemin>
                <valuemax>100</valuemax>
                <value>100</value>
              </parameter>
              <parameter>
                <parameterid>center</parameterid>
                <name>Center</name>
                <value>
                  <horiz>0</horiz>
                  <vert>0.4703703703703703</vert>
                </value>
              </parameter>
              <parameter>
                <parameterid>textcolor</parameterid>
                <name>Text Color</name>
                <value>
                  <alpha>255</alpha>
                  <red>255</red>
                  <green>255</green>
                  <blue>255</blue>
                </value>
              </parameter>
              <parameter>
                <parameterid>supertext</parameterid>
                <name>Text Graphic</name>
              </parameter>
              <parameter>
                <parameterid>linecolor</parameterid>
                <name>Line Color</name>
                <value>
                  <alpha>255</alpha>
                  <red>0</red>
                  <green>0</green>
                  <blue>0</blue>
                </value>
              </parameter>
              <parameter>
                <parameterid>superline</parameterid>
                <name>Line Graphic</name>
              </parameter>
              <parameter>
                <parameterid>part2</parameterid>
                <name>Background Settings</name>
              </parameter>
              <parameter>
                <parameterid>xscale</parameterid>
                <name>Horizontal Size</name>
                <valuemin>0</valuemin>
                <valuemax>200</valuemax>
                <value>0</value>
              </parameter>
              <parameter>
                <parameterid>yscale</parameterid>
                <name>Vertical Size</name>
                <valuemin>0</valuemin>
                <valuemax>200</valuemax>
                <value>0</value>
              </parameter>
              <parameter>
                <parameterid>xoffset</parameterid>
                <name>Horizontal Offset</name>
                <valuemin>-100</valuemin>
                <valuemax>100</valuemax>
                <value>0</value>
              </parameter>
              <parameter>
                <parameterid>yoffset</parameterid>
                <name>Vertical Offset</name>
                <valuemin>-100</valuemin>
                <valuemax>100</valuemax>
                <value>0</value>
              </parameter>
              <parameter>
                <parameterid>backsoft</parameterid>
                <name>Back Soft</name>
                <valuemin>0</valuemin>
                <valuemax>100</valuemax>
                <value>0</value>
              </parameter>
              <parameter>
                <parameterid>backopacity</parameterid>
                <name>Back Opacity</name>
                <valuemin>0</valuemin>
                <valuemax>100</valuemax>
                <value>50</value>
              </parameter>
              <parameter>
                <parameterid>backcolor</parameterid>
                <name>Back Color</name>
                <value>
                  <alpha>255</alpha>
                  <red>255</red>
                  <green>255</green>
                  <blue>255</blue>
                </value>
              </parameter>
              <parameter>
                <parameterid>superback</parameterid>
                <name>Back Graphic</name>
              </parameter>
              <parameter>
                <parameterid>crop</parameterid>
                <name>Crop</name>
                <value>false</value>
              </parameter>
              <parameter>
                <parameterid>autokern</parameterid>
                <name>Auto Kerning</name>
                <value>true</value>
              </parameter>
            </effect>
            <sourcetrack>
              <mediatype>video</mediatype>
            </sourcetrack>
          </generatoritem>
          <generatoritem id="Outline Text1">
            <name>ファンの方も一緒につけてくれてる人が多くて嬉しいです</name>
            <duration>22166.1117</duration>
            <rate>
              <timebase>30</timebase>
              <ntsc>true</ntsc>
            </rate>
            <start>21931.146899999996</start>
            <end>22040.237699999998</end>
            <in>21931.146899999996</in>
            <out>22040.237699999998</out>
            <enabled>true</enabled>
            <anamorphic>false</anamorphic>
            <alphatype>black</alphatype>
            <masterclipid>Outline Text1</masterclipid>
            <effect>
              <name>Outline Text</name>
              <effectid>Outline Text</effectid>
              <effectcategory>Text</effectcategory>
              <effecttype>generator</effecttype>
              <mediatype>video</mediatype>
              <parameter>
                <parameterid>part1</parameterid>
                <name>Text Settings</name>
                <value/>
              </parameter>
              <parameter>
                <parameterid>str</parameterid>
                <name>Text</name>
                <value>ファンの方も一緒につけてくれてる人が多くて嬉しいです</value>
              </parameter>
              <parameter>
                <parameterid>font</parameterid>
                <name>Font</name>
                <value>HiraginoSans-W6</value>
              </parameter>
              <parameter>
                <parameterid>style</parameterid>
                <name>Style</name>
                <valuemin>1</valuemin>
                <valuemax>1</valuemax>
                <valuelist>
                  <valueentry>
                    <name>Regular</name>
                    <value>1</value>
                  </valueentry>
                </valuelist>
                <value>1</value>
              </parameter>
              <parameter>
                <parameterid>align</parameterid>
                <name>Alignment</name>
                <valuemin>1</valuemin>
                <valuemax>3</valuemax>
                <valuelist>
                  <valueentry>
                    <name>Left</name>
                    <value>1</value>
                  </valueentry>
                  <valueentry>
                    <name>Center</name>
                    <value>2</value>
                  </valueentry>
                  <valueentry>
                    <name>Right</name>
                    <value>3</value>
                  </valueentry>
                </valuelist>
                <value>2</value>
              </parameter>
              <parameter>
                <parameterid>size</parameterid>
                <name>Size</name>
                <valuemin>0</valuemin>
                <valuemax>200</valuemax>
                <value>24</value>
              </parameter>
              <parameter>
                <parameterid>track</parameterid>
                <name>Tracking</name>
                <valuemin>0</valuemin>
                <valuemax>100</valuemax>
                <value>1</value>
              </parameter>
              <parameter>
                <parameterid>lead</parameterid>
                <name>Leading</name>
                <valuemin>-100</valuemin>
                <valuemax>100</valuemax>
                <value>0</value>
              </parameter>
              <parameter>
                <parameterid>aspect</parameterid>
                <name>Aspect</name>
                <valuemin>0</valuemin>
                <valuemax>4</valuemax>
                <value>1</value>
              </parameter>
              <parameter>
                <parameterid>linewidth</parameterid>
                <name>Line Width</name>
                <valuemin>0</valuemin>
                <valuemax>200</valuemax>
                <value>2</value>
              </parameter>
              <parameter>
                <parameterid>linesoft</parameterid>
                <name>Line Softness</name>
                <valuemin>0</valuemin>
                <valuemax>100</valuemax>
                <value>5</value>
              </parameter>
              <parameter>
                <parameterid>textopacity</parameterid>
                <name>Text Opacity</name>
                <valuemin>0</valuemin>
                <valuemax>100</valuemax>
                <value>100</value>
              </parameter>
              <parameter>
                <parameterid>center</parameterid>
                <name>Center</name>
                <value>
                  <horiz>0</horiz>
                  <vert>0.4703703703703703</vert>
                </value>
              </parameter>
              <parameter>
                <parameterid>textcolor</parameterid>
                <name>Text Color</name>
                <value>
                  <alpha>255</alpha>
                  <red>255</red>
                  <green>255</green>
                  <blue>255</blue>
                </value>
              </parameter>
              <parameter>
                <parameterid>supertext</parameterid>
                <name>Text Graphic</name>
              </parameter>
              <parameter>
                <parameterid>linecolor</parameterid>
                <name>Line Color</name>
                <value>
                  <alpha>255</alpha>
                  <red>0</red>
                  <green>0</green>
                  <blue>0</blue>
                </value>
              </parameter>
              <parameter>
                <parameterid>superline</parameterid>
                <name>Line Graphic</name>
              </parameter>
              <parameter>
                <parameterid>part2</parameterid>
                <name>Background Settings</name>
              </parameter>
              <parameter>
                <parameterid>xscale</parameterid>
                <name>Horizontal Size</name>
                <valuemin>0</valuemin>
                <valuemax>200</valuemax>
                <value>0</value>
              </parameter>
              <parameter>
                <parameterid>yscale</parameterid>
                <name>Vertical Size</name>
                <valuemin>0</valuemin>
                <valuemax>200</valuemax>
                <value>0</value>
              </parameter>
              <parameter>
                <parameterid>xoffset</parameterid>
                <name>Horizontal Offset</name>
                <valuemin>-100</valuemin>
                <valuemax>100</valuemax>
                <value>0</value>
              </parameter>
              <parameter>
                <parameterid>yoffset</parameterid>
                <name>Vertical Offset</name>
                <valuemin>-100</valuemin>
                <valuemax>100</valuemax>
                <value>0</value>
              </parameter>
              <parameter>
                <parameterid>backsoft</parameterid>
                <name>Back Soft</name>
                <valuemin>0</valuemin>
                <valuemax>100</valuemax>
                <value>0</value>
              </parameter>
              <parameter>
                <parameterid>backopacity</parameterid>
                <name>Back Opacity</name>
                <valuemin>0</valuemin>
                <valuemax>100</valuemax>
                <value>50</value>
              </parameter>
              <parameter>
                <parameterid>backcolor</parameterid>
                <name>Back Color</name>
                <value>
                  <alpha>255</alpha>
                  <red>255</red>
                  <green>255</green>
                  <blue>255</blue>
                </value>
              </parameter>
              <parameter>
                <parameterid>superback</parameterid>
                <name>Back Graphic</name>
              </parameter>
              <parameter>
                <parameterid>crop</parameterid>
                <name>Crop</name>
                <value>false</value>
              </parameter>
              <parameter>
                <parameterid>autokern</parameterid>
                <name>Auto Kerning</name>
                <value>true</value>
              </parameter>
            </effect>
            <sourcetrack>
              <mediatype>video</mediatype>
            </sourcetrack>
          </generatoritem>
          <generatoritem id="Outline Text1">
            <name>ジャラジャラつけてる人もいてね</name>
            <duration>22166.1117</duration>
            <rate>
              <timebase>30</timebase>
              <ntsc>true</ntsc>
            </rate>
            <start>22040.237699999998</start>
            <end>22129.5483</end>
            <in>22040.237699999998</in>
            <out>22129.5483</out>
            <enabled>true</enabled>
            <anamorphic>false</anamorphic>
            <alphatype>black</alphatype>
            <masterclipid>Outline Text1</masterclipid>
            <effect>
              <name>Outline Text</name>
              <effectid>Outline Text</effectid>
              <effectcategory>Text</effectcategory>
              <effecttype>generator</effecttype>
              <mediatype>video</mediatype>
              <parameter>
                <parameterid>part1</parameterid>
                <name>Text Settings</name>
                <value/>
              </parameter>
              <parameter>
                <parameterid>str</parameterid>
                <name>Text</name>
                <value>ジャラジャラつけてる人もいてね</value>
              </parameter>
              <parameter>
                <parameterid>font</parameterid>
                <name>Font</name>
                <value>HiraginoSans-W6</value>
              </parameter>
              <parameter>
                <parameterid>style</parameterid>
                <name>Style</name>
                <valuemin>1</valuemin>
                <valuemax>1</valuemax>
                <valuelist>
                  <valueentry>
                    <name>Regular</name>
                    <value>1</value>
                  </valueentry>
                </valuelist>
                <value>1</value>
              </parameter>
              <parameter>
                <parameterid>align</parameterid>
                <name>Alignment</name>
                <valuemin>1</valuemin>
                <valuemax>3</valuemax>
                <valuelist>
                  <valueentry>
                    <name>Left</name>
                    <value>1</value>
                  </valueentry>
                  <valueentry>
                    <name>Center</name>
                    <value>2</value>
                  </valueentry>
                  <valueentry>
                    <name>Right</name>
                    <value>3</value>
                  </valueentry>
                </valuelist>
                <value>2</value>
              </parameter>
              <parameter>
                <parameterid>size</parameterid>
                <name>Size</name>
                <valuemin>0</valuemin>
                <valuemax>200</valuemax>
                <value>24</value>
              </parameter>
              <parameter>
                <parameterid>track</parameterid>
                <name>Tracking</name>
                <valuemin>0</valuemin>
                <valuemax>100</valuemax>
                <value>1</value>
              </parameter>
              <parameter>
                <parameterid>lead</parameterid>
                <name>Leading</name>
                <valuemin>-100</valuemin>
                <valuemax>100</valuemax>
                <value>0</value>
              </parameter>
              <parameter>
                <parameterid>aspect</parameterid>
                <name>Aspect</name>
                <valuemin>0</valuemin>
                <valuemax>4</valuemax>
                <value>1</value>
              </parameter>
              <parameter>
                <parameterid>linewidth</parameterid>
                <name>Line Width</name>
                <valuemin>0</valuemin>
                <valuemax>200</valuemax>
                <value>2</value>
              </parameter>
              <parameter>
                <parameterid>linesoft</parameterid>
                <name>Line Softness</name>
                <valuemin>0</valuemin>
                <valuemax>100</valuemax>
                <value>5</value>
              </parameter>
              <parameter>
                <parameterid>textopacity</parameterid>
                <name>Text Opacity</name>
                <valuemin>0</valuemin>
                <valuemax>100</valuemax>
                <value>100</value>
              </parameter>
              <parameter>
                <parameterid>center</parameterid>
                <name>Center</name>
                <value>
                  <horiz>0</horiz>
                  <vert>0.4703703703703703</vert>
                </value>
              </parameter>
              <parameter>
                <parameterid>textcolor</parameterid>
                <name>Text Color</name>
                <value>
                  <alpha>255</alpha>
                  <red>255</red>
                  <green>255</green>
                  <blue>255</blue>
                </value>
              </parameter>
              <parameter>
                <parameterid>supertext</parameterid>
                <name>Text Graphic</name>
              </parameter>
              <parameter>
                <parameterid>linecolor</parameterid>
                <name>Line Color</name>
                <value>
                  <alpha>255</alpha>
                  <red>0</red>
                  <green>0</green>
                  <blue>0</blue>
                </value>
              </parameter>
              <parameter>
                <parameterid>superline</parameterid>
                <name>Line Graphic</name>
              </parameter>
              <parameter>
                <parameterid>part2</parameterid>
                <name>Background Settings</name>
              </parameter>
              <parameter>
                <parameterid>xscale</parameterid>
                <name>Horizontal Size</name>
                <valuemin>0</valuemin>
                <valuemax>200</valuemax>
                <value>0</value>
              </parameter>
              <parameter>
                <parameterid>yscale</parameterid>
                <name>Vertical Size</name>
                <valuemin>0</valuemin>
                <valuemax>200</valuemax>
                <value>0</value>
              </parameter>
              <parameter>
                <parameterid>xoffset</parameterid>
                <name>Horizontal Offset</name>
                <valuemin>-100</valuemin>
                <valuemax>100</valuemax>
                <value>0</value>
              </parameter>
              <parameter>
                <parameterid>yoffset</parameterid>
                <name>Vertical Offset</name>
                <valuemin>-100</valuemin>
                <valuemax>100</valuemax>
                <value>0</value>
              </parameter>
              <parameter>
                <parameterid>backsoft</parameterid>
                <name>Back Soft</name>
                <valuemin>0</valuemin>
                <valuemax>100</valuemax>
                <value>0</value>
              </parameter>
              <parameter>
                <parameterid>backopacity</parameterid>
                <name>Back Opacity</name>
                <valuemin>0</valuemin>
                <valuemax>100</valuemax>
                <value>50</value>
              </parameter>
              <parameter>
                <parameterid>backcolor</parameterid>
                <name>Back Color</name>
                <value>
                  <alpha>255</alpha>
                  <red>255</red>
                  <green>255</green>
                  <blue>255</blue>
                </value>
              </parameter>
              <parameter>
                <parameterid>superback</parameterid>
                <name>Back Graphic</name>
              </parameter>
              <parameter>
                <parameterid>crop</parameterid>
                <name>Crop</name>
                <value>false</value>
              </parameter>
              <parameter>
                <parameterid>autokern</parameterid>
                <name>Auto Kerning</name>
                <value>true</value>
              </parameter>
            </effect>
            <sourcetrack>
              <mediatype>video</mediatype>
            </sourcetrack>
          </generatoritem>
          <generatoritem id="Outline Text1">
            <name>嬉しかったです</name>
            <duration>22166.1117</duration>
            <rate>
              <timebase>30</timebase>
              <ntsc>true</ntsc>
            </rate>
            <start>22129.5483</start>
            <end>22166.1117</end>
            <in>22129.5483</in>
            <out>22166.1117</out>
            <enabled>true</enabled>
            <anamorphic>false</anamorphic>
            <alphatype>black</alphatype>
            <masterclipid>Outline Text1</masterclipid>
            <effect>
              <name>Outline Text</name>
              <effectid>Outline Text</effectid>
              <effectcategory>Text</effectcategory>
              <effecttype>generator</effecttype>
              <mediatype>video</mediatype>
              <parameter>
                <parameterid>part1</parameterid>
                <name>Text Settings</name>
                <value/>
              </parameter>
              <parameter>
                <parameterid>str</parameterid>
                <name>Text</name>
                <value>嬉しかったです</value>
              </parameter>
              <parameter>
                <parameterid>font</parameterid>
                <name>Font</name>
                <value>HiraginoSans-W6</value>
              </parameter>
              <parameter>
                <parameterid>style</parameterid>
                <name>Style</name>
                <valuemin>1</valuemin>
                <valuemax>1</valuemax>
                <valuelist>
                  <valueentry>
                    <name>Regular</name>
                    <value>1</value>
                  </valueentry>
                </valuelist>
                <value>1</value>
              </parameter>
              <parameter>
                <parameterid>align</parameterid>
                <name>Alignment</name>
                <valuemin>1</valuemin>
                <valuemax>3</valuemax>
                <valuelist>
                  <valueentry>
                    <name>Left</name>
                    <value>1</value>
                  </valueentry>
                  <valueentry>
                    <name>Center</name>
                    <value>2</value>
                  </valueentry>
                  <valueentry>
                    <name>Right</name>
                    <value>3</value>
                  </valueentry>
                </valuelist>
                <value>2</value>
              </parameter>
              <parameter>
                <parameterid>size</parameterid>
                <name>Size</name>
                <valuemin>0</valuemin>
                <valuemax>200</valuemax>
                <value>24</value>
              </parameter>
              <parameter>
                <parameterid>track</parameterid>
                <name>Tracking</name>
                <valuemin>0</valuemin>
                <valuemax>100</valuemax>
                <value>1</value>
              </parameter>
              <parameter>
                <parameterid>lead</parameterid>
                <name>Leading</name>
                <valuemin>-100</valuemin>
                <valuemax>100</valuemax>
                <value>0</value>
              </parameter>
              <parameter>
                <parameterid>aspect</parameterid>
                <name>Aspect</name>
                <valuemin>0</valuemin>
                <valuemax>4</valuemax>
                <value>1</value>
              </parameter>
              <parameter>
                <parameterid>linewidth</parameterid>
                <name>Line Width</name>
                <valuemin>0</valuemin>
                <valuemax>200</valuemax>
                <value>2</value>
              </parameter>
              <parameter>
                <parameterid>linesoft</parameterid>
                <name>Line Softness</name>
                <valuemin>0</valuemin>
                <valuemax>100</valuemax>
                <value>5</value>
              </parameter>
              <parameter>
                <parameterid>textopacity</parameterid>
                <name>Text Opacity</name>
                <valuemin>0</valuemin>
                <valuemax>100</valuemax>
                <value>100</value>
              </parameter>
              <parameter>
                <parameterid>center</parameterid>
                <name>Center</name>
                <value>
                  <horiz>0</horiz>
                  <vert>0.4703703703703703</vert>
                </value>
              </parameter>
              <parameter>
                <parameterid>textcolor</parameterid>
                <name>Text Color</name>
                <value>
                  <alpha>255</alpha>
                  <red>255</red>
                  <green>255</green>
                  <blue>255</blue>
                </value>
              </parameter>
              <parameter>
                <parameterid>supertext</parameterid>
                <name>Text Graphic</name>
              </parameter>
              <parameter>
                <parameterid>linecolor</parameterid>
                <name>Line Color</name>
                <value>
                  <alpha>255</alpha>
                  <red>0</red>
                  <green>0</green>
                  <blue>0</blue>
                </value>
              </parameter>
              <parameter>
                <parameterid>superline</parameterid>
                <name>Line Graphic</name>
              </parameter>
              <parameter>
                <parameterid>part2</parameterid>
                <name>Background Settings</name>
              </parameter>
              <parameter>
                <parameterid>xscale</parameterid>
                <name>Horizontal Size</name>
                <valuemin>0</valuemin>
                <valuemax>200</valuemax>
                <value>0</value>
              </parameter>
              <parameter>
                <parameterid>yscale</parameterid>
                <name>Vertical Size</name>
                <valuemin>0</valuemin>
                <valuemax>200</valuemax>
                <value>0</value>
              </parameter>
              <parameter>
                <parameterid>xoffset</parameterid>
                <name>Horizontal Offset</name>
                <valuemin>-100</valuemin>
                <valuemax>100</valuemax>
                <value>0</value>
              </parameter>
              <parameter>
                <parameterid>yoffset</parameterid>
                <name>Vertical Offset</name>
                <valuemin>-100</valuemin>
                <valuemax>100</valuemax>
                <value>0</value>
              </parameter>
              <parameter>
                <parameterid>backsoft</parameterid>
                <name>Back Soft</name>
                <valuemin>0</valuemin>
                <valuemax>100</valuemax>
                <value>0</value>
              </parameter>
              <parameter>
                <parameterid>backopacity</parameterid>
                <name>Back Opacity</name>
                <valuemin>0</valuemin>
                <valuemax>100</valuemax>
                <value>50</value>
              </parameter>
              <parameter>
                <parameterid>backcolor</parameterid>
                <name>Back Color</name>
                <value>
                  <alpha>255</alpha>
                  <red>255</red>
                  <green>255</green>
                  <blue>255</blue>
                </value>
              </parameter>
              <parameter>
                <parameterid>superback</parameterid>
                <name>Back Graphic</name>
              </parameter>
              <parameter>
                <parameterid>crop</parameterid>
                <name>Crop</name>
                <value>false</value>
              </parameter>
              <parameter>
                <parameterid>autokern</parameterid>
                <name>Auto Kerning</name>
                <value>true</value>
              </parameter>
            </effect>
            <sourcetrack>
              <mediatype>video</mediatype>
            </sourcetrack>
          </generatoritem>
        </track>
      </video>
      <audio>
        <in>0</in>
        <out>22166.1117</out>
        <channelcount>2</channelcount>
        <duration>22166.1117</duration>
        <track>
          <clipitem>
            <name>街ブラ恵比寿02修正文字起こし.mp4</name>
            <enabled>true</enabled>
            <in>0</in>
            <out>150.7491</out>
            <start>0</start>
            <end>150.7491</end>
            <file id="街ブラ恵比寿02修正文字起こし.mp4"/>
            <sourcetrack>
              <mediatype>audio</mediatype>
              <trackindex>1</trackindex>
            </sourcetrack>
          </clipitem>
          <clipitem>
            <name>街ブラ恵比寿02修正文字起こし.mp4</name>
            <enabled>true</enabled>
            <in>150.7491</in>
            <out>287.712</out>
            <start>150.7491</start>
            <end>287.712</end>
            <file id="街ブラ恵比寿02修正文字起こし.mp4"/>
            <sourcetrack>
              <mediatype>audio</mediatype>
              <trackindex>1</trackindex>
            </sourcetrack>
          </clipitem>
          <clipitem>
            <name>街ブラ恵比寿02修正文字起こし.mp4</name>
            <enabled>true</enabled>
            <in>287.712</in>
            <out>362.9366999999999</out>
            <start>287.712</start>
            <end>362.9366999999999</end>
            <file id="街ブラ恵比寿02修正文字起こし.mp4"/>
            <sourcetrack>
              <mediatype>audio</mediatype>
              <trackindex>1</trackindex>
            </sourcetrack>
          </clipitem>
          <clipitem>
            <name>街ブラ恵比寿02修正文字起こし.mp4</name>
            <enabled>true</enabled>
            <in>362.9367</in>
            <out>424.0754999999999</out>
            <start>362.9366999999999</start>
            <end>424.07549999999986</end>
            <file id="街ブラ恵比寿02修正文字起こし.mp4"/>
            <sourcetrack>
              <mediatype>audio</mediatype>
              <trackindex>1</trackindex>
            </sourcetrack>
          </clipitem>
          <clipitem>
            <name>街ブラ恵比寿02修正文字起こし.mp4</name>
            <enabled>true</enabled>
            <in>424.0755</in>
            <out>741.4577999999999</out>
            <start>424.07549999999986</start>
            <end>741.4577999999998</end>
            <file id="街ブラ恵比寿02修正文字起こし.mp4"/>
            <sourcetrack>
              <mediatype>audio</mediatype>
              <trackindex>1</trackindex>
            </sourcetrack>
          </clipitem>
          <clipitem>
            <name>街ブラ恵比寿02修正文字起こし.mp4</name>
            <enabled>true</enabled>
            <in>741.4577999999999</in>
            <out>824.4747</out>
            <start>741.4577999999998</start>
            <end>824.4746999999999</end>
            <file id="街ブラ恵比寿02修正文字起こし.mp4"/>
            <sourcetrack>
              <mediatype>audio</mediatype>
              <trackindex>1</trackindex>
            </sourcetrack>
          </clipitem>
          <clipitem>
            <name>街ブラ恵比寿02修正文字起こし.mp4</name>
            <enabled>true</enabled>
            <in>824.4747</in>
            <out>871.5276</out>
            <start>824.4746999999999</start>
            <end>871.5275999999999</end>
            <file id="街ブラ恵比寿02修正文字起こし.mp4"/>
            <sourcetrack>
              <mediatype>audio</mediatype>
              <trackindex>1</trackindex>
            </sourcetrack>
          </clipitem>
          <clipitem>
            <name>街ブラ恵比寿02修正文字起こし.mp4</name>
            <enabled>true</enabled>
            <in>871.5275999999999</in>
            <out>1139.4594000000002</out>
            <start>871.5275999999999</start>
            <end>1139.4594000000002</end>
            <file id="街ブラ恵比寿02修正文字起こし.mp4"/>
            <sourcetrack>
              <mediatype>audio</mediatype>
              <trackindex>1</trackindex>
            </sourcetrack>
          </clipitem>
          <clipitem>
            <name>街ブラ恵比寿02修正文字起こし.mp4</name>
            <enabled>true</enabled>
            <in>1139.4594</in>
            <out>1272.8258999999998</out>
            <start>1139.4594000000002</start>
            <end>1272.8259</end>
            <file id="街ブラ恵比寿02修正文字起こし.mp4"/>
            <sourcetrack>
              <mediatype>audio</mediatype>
              <trackindex>1</trackindex>
            </sourcetrack>
          </clipitem>
          <clipitem>
            <name>街ブラ恵比寿02修正文字起こし.mp4</name>
            <enabled>true</enabled>
            <in>1272.8258999999998</in>
            <out>1405.8927</out>
            <start>1272.8259</start>
            <end>1405.8927000000003</end>
            <file id="街ブラ恵比寿02修正文字起こし.mp4"/>
            <sourcetrack>
              <mediatype>audio</mediatype>
              <trackindex>1</trackindex>
            </sourcetrack>
          </clipitem>
          <clipitem>
            <name>街ブラ恵比寿02修正文字起こし.mp4</name>
            <enabled>true</enabled>
            <in>1405.8926999999999</in>
            <out>1443.3551999999997</out>
            <start>1405.8927000000003</start>
            <end>1443.3552000000002</end>
            <file id="街ブラ恵比寿02修正文字起こし.mp4"/>
            <sourcetrack>
              <mediatype>audio</mediatype>
              <trackindex>1</trackindex>
            </sourcetrack>
          </clipitem>
          <clipitem>
            <name>街ブラ恵比寿02修正文字起こし.mp4</name>
            <enabled>true</enabled>
            <in>1443.3551999999997</in>
            <out>1624.0743</out>
            <start>1443.3552000000002</start>
            <end>1624.0743000000004</end>
            <file id="街ブラ恵比寿02修正文字起こし.mp4"/>
            <sourcetrack>
              <mediatype>audio</mediatype>
              <trackindex>1</trackindex>
            </sourcetrack>
          </clipitem>
          <clipitem>
            <name>街ブラ恵比寿02修正文字起こし.mp4</name>
            <enabled>true</enabled>
            <in>1624.0742999999998</in>
            <out>1760.1381000000001</out>
            <start>1624.0743000000004</start>
            <end>1760.1381000000008</end>
            <file id="街ブラ恵比寿02修正文字起こし.mp4"/>
            <sourcetrack>
              <mediatype>audio</mediatype>
              <trackindex>1</trackindex>
            </sourcetrack>
          </clipitem>
          <clipitem>
            <name>街ブラ恵比寿02修正文字起こし.mp4</name>
            <enabled>true</enabled>
            <in>1760.1381</in>
            <out>1909.3887000000002</out>
            <start>1760.1381000000008</start>
            <end>1909.388700000001</end>
            <file id="街ブラ恵比寿02修正文字起こし.mp4"/>
            <sourcetrack>
              <mediatype>audio</mediatype>
              <trackindex>1</trackindex>
            </sourcetrack>
          </clipitem>
          <clipitem>
            <name>街ブラ恵比寿02修正文字起こし.mp4</name>
            <enabled>true</enabled>
            <in>1909.3887</in>
            <out>2031.966</out>
            <start>1909.388700000001</start>
            <end>2031.966000000001</end>
            <file id="街ブラ恵比寿02修正文字起こし.mp4"/>
            <sourcetrack>
              <mediatype>audio</mediatype>
              <trackindex>1</trackindex>
            </sourcetrack>
          </clipitem>
          <clipitem>
            <name>街ブラ恵比寿02修正文字起こし.mp4</name>
            <enabled>true</enabled>
            <in>2031.966</in>
            <out>2317.879800000001</out>
            <start>2031.966000000001</start>
            <end>2317.879800000002</end>
            <file id="街ブラ恵比寿02修正文字起こし.mp4"/>
            <sourcetrack>
              <mediatype>audio</mediatype>
              <trackindex>1</trackindex>
            </sourcetrack>
          </clipitem>
          <clipitem>
            <name>街ブラ恵比寿02修正文字起こし.mp4</name>
            <enabled>true</enabled>
            <in>2317.8798</in>
            <out>2377.8198</out>
            <start>2317.879800000002</start>
            <end>2377.819800000002</end>
            <file id="街ブラ恵比寿02修正文字起こし.mp4"/>
            <sourcetrack>
              <mediatype>audio</mediatype>
              <trackindex>1</trackindex>
            </sourcetrack>
          </clipitem>
          <clipitem>
            <name>街ブラ恵比寿02修正文字起こし.mp4</name>
            <enabled>true</enabled>
            <in>2377.8198</in>
            <out>2458.1394</out>
            <start>2377.819800000002</start>
            <end>2458.1394000000023</end>
            <file id="街ブラ恵比寿02修正文字起こし.mp4"/>
            <sourcetrack>
              <mediatype>audio</mediatype>
              <trackindex>1</trackindex>
            </sourcetrack>
          </clipitem>
          <clipitem>
            <name>街ブラ恵比寿02修正文字起こし.mp4</name>
            <enabled>true</enabled>
            <in>2458.1393999999996</in>
            <out>2548.9484999999995</out>
            <start>2458.1394000000023</start>
            <end>2548.948500000002</end>
            <file id="街ブラ恵比寿02修正文字起こし.mp4"/>
            <sourcetrack>
              <mediatype>audio</mediatype>
              <trackindex>1</trackindex>
            </sourcetrack>
          </clipitem>
          <clipitem>
            <name>街ブラ恵比寿02修正文字起こし.mp4</name>
            <enabled>true</enabled>
            <in>2548.9485</in>
            <out>2720.6765999999993</out>
            <start>2548.948500000002</start>
            <end>2720.6766000000016</end>
            <file id="街ブラ恵比寿02修正文字起こし.mp4"/>
            <sourcetrack>
              <mediatype>audio</mediatype>
              <trackindex>1</trackindex>
            </sourcetrack>
          </clipitem>
          <clipitem>
            <name>街ブラ恵比寿02修正文字起こし.mp4</name>
            <enabled>true</enabled>
            <in>2720.6766</in>
            <out>2805.192</out>
            <start>2720.6766000000016</start>
            <end>2805.192000000002</end>
            <file id="街ブラ恵比寿02修正文字起こし.mp4"/>
            <sourcetrack>
              <mediatype>audio</mediatype>
              <trackindex>1</trackindex>
            </sourcetrack>
          </clipitem>
          <clipitem>
            <name>街ブラ恵比寿02修正文字起こし.mp4</name>
            <enabled>true</enabled>
            <in>2805.1919999999996</in>
            <out>2895.7014000000004</out>
            <start>2805.192000000002</start>
            <end>2895.7014000000026</end>
            <file id="街ブラ恵比寿02修正文字起こし.mp4"/>
            <sourcetrack>
              <mediatype>audio</mediatype>
              <trackindex>1</trackindex>
            </sourcetrack>
          </clipitem>
          <clipitem>
            <name>街ブラ恵比寿02修正文字起こし.mp4</name>
            <enabled>true</enabled>
            <in>2895.7014</in>
            <out>2943.6533999999997</out>
            <start>2895.7014000000026</start>
            <end>2943.6534000000024</end>
            <file id="街ブラ恵比寿02修正文字起こし.mp4"/>
            <sourcetrack>
              <mediatype>audio</mediatype>
              <trackindex>1</trackindex>
            </sourcetrack>
          </clipitem>
          <clipitem>
            <name>街ブラ恵比寿02修正文字起こし.mp4</name>
            <enabled>true</enabled>
            <in>2943.6533999999997</in>
            <out>3019.7772</out>
            <start>2943.6534000000024</start>
            <end>3019.7772000000027</end>
            <file id="街ブラ恵比寿02修正文字起こし.mp4"/>
            <sourcetrack>
              <mediatype>audio</mediatype>
              <trackindex>1</trackindex>
            </sourcetrack>
          </clipitem>
          <clipitem>
            <name>街ブラ恵比寿02修正文字起こし.mp4</name>
            <enabled>true</enabled>
            <in>3019.7772</in>
            <out>3077.6193</out>
            <start>3019.7772000000027</start>
            <end>3077.6193000000026</end>
            <file id="街ブラ恵比寿02修正文字起こし.mp4"/>
            <sourcetrack>
              <mediatype>audio</mediatype>
              <trackindex>1</trackindex>
            </sourcetrack>
          </clipitem>
          <clipitem>
            <name>街ブラ恵比寿02修正文字起こし.mp4</name>
            <enabled>true</enabled>
            <in>3077.6193</in>
            <out>3145.6512</out>
            <start>3077.6193000000026</start>
            <end>3145.651200000002</end>
            <file id="街ブラ恵比寿02修正文字起こし.mp4"/>
            <sourcetrack>
              <mediatype>audio</mediatype>
              <trackindex>1</trackindex>
            </sourcetrack>
          </clipitem>
          <clipitem>
            <name>街ブラ恵比寿02修正文字起こし.mp4</name>
            <enabled>true</enabled>
            <in>3145.6512</in>
            <out>3262.234499999999</out>
            <start>3145.651200000002</start>
            <end>3262.234500000002</end>
            <file id="街ブラ恵比寿02修正文字起こし.mp4"/>
            <sourcetrack>
              <mediatype>audio</mediatype>
              <trackindex>1</trackindex>
            </sourcetrack>
          </clipitem>
          <clipitem>
            <name>街ブラ恵比寿02修正文字起こし.mp4</name>
            <enabled>true</enabled>
            <in>3262.2344999999996</in>
            <out>3286.2104999999992</out>
            <start>3262.234500000002</start>
            <end>3286.2105000000015</end>
            <file id="街ブラ恵比寿02修正文字起こし.mp4"/>
            <sourcetrack>
              <mediatype>audio</mediatype>
              <trackindex>1</trackindex>
            </sourcetrack>
          </clipitem>
          <clipitem>
            <name>街ブラ恵比寿02修正文字起こし.mp4</name>
            <enabled>true</enabled>
            <in>3286.2105</in>
            <out>3341.6549999999997</out>
            <start>3286.2105000000015</start>
            <end>3341.655000000001</end>
            <file id="街ブラ恵比寿02修正文字起こし.mp4"/>
            <sourcetrack>
              <mediatype>audio</mediatype>
              <trackindex>1</trackindex>
            </sourcetrack>
          </clipitem>
          <clipitem>
            <name>街ブラ恵比寿02修正文字起こし.mp4</name>
            <enabled>true</enabled>
            <in>3341.6549999999997</in>
            <out>3380.0165999999995</out>
            <start>3341.655000000001</start>
            <end>3380.016600000001</end>
            <file id="街ブラ恵比寿02修正文字起こし.mp4"/>
            <sourcetrack>
              <mediatype>audio</mediatype>
              <trackindex>1</trackindex>
            </sourcetrack>
          </clipitem>
          <clipitem>
            <name>街ブラ恵比寿02修正文字起こし.mp4</name>
            <enabled>true</enabled>
            <in>3380.0166</in>
            <out>3414.1824</out>
            <start>3380.016600000001</start>
            <end>3414.1824000000006</end>
            <file id="街ブラ恵比寿02修正文字起こし.mp4"/>
            <sourcetrack>
              <mediatype>audio</mediatype>
              <trackindex>1</trackindex>
            </sourcetrack>
          </clipitem>
          <clipitem>
            <name>街ブラ恵比寿02修正文字起こし.mp4</name>
            <enabled>true</enabled>
            <in>3414.1824</in>
            <out>3445.3511999999996</out>
            <start>3414.1824000000006</start>
            <end>3445.3512000000005</end>
            <file id="街ブラ恵比寿02修正文字起こし.mp4"/>
            <sourcetrack>
              <mediatype>audio</mediatype>
              <trackindex>1</trackindex>
            </sourcetrack>
          </clipitem>
          <clipitem>
            <name>街ブラ恵比寿02修正文字起こし.mp4</name>
            <enabled>true</enabled>
            <in>3445.3511999999996</in>
            <out>3602.6937000000003</out>
            <start>3445.3512000000005</start>
            <end>3602.693700000001</end>
            <file id="街ブラ恵比寿02修正文字起こし.mp4"/>
            <sourcetrack>
              <mediatype>audio</mediatype>
              <trackindex>1</trackindex>
            </sourcetrack>
          </clipitem>
          <clipitem>
            <name>街ブラ恵比寿02修正文字起こし.mp4</name>
            <enabled>true</enabled>
            <in>3602.6937</in>
            <out>3648.8474999999994</out>
            <start>3602.693700000001</start>
            <end>3648.8475000000008</end>
            <file id="街ブラ恵比寿02修正文字起こし.mp4"/>
            <sourcetrack>
              <mediatype>audio</mediatype>
              <trackindex>1</trackindex>
            </sourcetrack>
          </clipitem>
          <clipitem>
            <name>街ブラ恵比寿02修正文字起こし.mp4</name>
            <enabled>true</enabled>
            <in>3648.8475</in>
            <out>3764.831399999999</out>
            <start>3648.8475000000008</start>
            <end>3764.8314</end>
            <file id="街ブラ恵比寿02修正文字起こし.mp4"/>
            <sourcetrack>
              <mediatype>audio</mediatype>
              <trackindex>1</trackindex>
            </sourcetrack>
          </clipitem>
          <clipitem>
            <name>街ブラ恵比寿02修正文字起こし.mp4</name>
            <enabled>true</enabled>
            <in>3764.8314</in>
            <out>3879.3167999999996</out>
            <start>3764.8314</start>
            <end>3879.3167999999996</end>
            <file id="街ブラ恵比寿02修正文字起こし.mp4"/>
            <sourcetrack>
              <mediatype>audio</mediatype>
              <trackindex>1</trackindex>
            </sourcetrack>
          </clipitem>
          <clipitem>
            <name>街ブラ恵比寿02修正文字起こし.mp4</name>
            <enabled>true</enabled>
            <in>3879.3167999999996</in>
            <out>3966.229799999999</out>
            <start>3879.3167999999996</start>
            <end>3966.229799999999</end>
            <file id="街ブラ恵比寿02修正文字起こし.mp4"/>
            <sourcetrack>
              <mediatype>audio</mediatype>
              <trackindex>1</trackindex>
            </sourcetrack>
          </clipitem>
          <clipitem>
            <name>街ブラ恵比寿02修正文字起こし.mp4</name>
            <enabled>true</enabled>
            <in>3966.2298</in>
            <out>3991.4046</out>
            <start>3966.229799999999</start>
            <end>3991.4045999999994</end>
            <file id="街ブラ恵比寿02修正文字起こし.mp4"/>
            <sourcetrack>
              <mediatype>audio</mediatype>
              <trackindex>1</trackindex>
            </sourcetrack>
          </clipitem>
          <clipitem>
            <name>街ブラ恵比寿02修正文字起こし.mp4</name>
            <enabled>true</enabled>
            <in>3991.4046</in>
            <out>4076.519400000001</out>
            <start>3991.4045999999994</start>
            <end>4076.5194</end>
            <file id="街ブラ恵比寿02修正文字起こし.mp4"/>
            <sourcetrack>
              <mediatype>audio</mediatype>
              <trackindex>1</trackindex>
            </sourcetrack>
          </clipitem>
          <clipitem>
            <name>街ブラ恵比寿02修正文字起こし.mp4</name>
            <enabled>true</enabled>
            <in>4076.5194</in>
            <out>4152.942899999999</out>
            <start>4076.5194</start>
            <end>4152.942899999999</end>
            <file id="街ブラ恵比寿02修正文字起こし.mp4"/>
            <sourcetrack>
              <mediatype>audio</mediatype>
              <trackindex>1</trackindex>
            </sourcetrack>
          </clipitem>
          <clipitem>
            <name>街ブラ恵比寿02修正文字起こし.mp4</name>
            <enabled>true</enabled>
            <in>4152.9429</in>
            <out>4253.042700000001</out>
            <start>4152.942899999999</start>
            <end>4253.0427</end>
            <file id="街ブラ恵比寿02修正文字起こし.mp4"/>
            <sourcetrack>
              <mediatype>audio</mediatype>
              <trackindex>1</trackindex>
            </sourcetrack>
          </clipitem>
          <clipitem>
            <name>街ブラ恵比寿02修正文字起こし.mp4</name>
            <enabled>true</enabled>
            <in>4253.0427</in>
            <out>4411.284300000001</out>
            <start>4253.0427</start>
            <end>4411.284300000001</end>
            <file id="街ブラ恵比寿02修正文字起こし.mp4"/>
            <sourcetrack>
              <mediatype>audio</mediatype>
              <trackindex>1</trackindex>
            </sourcetrack>
          </clipitem>
          <clipitem>
            <name>街ブラ恵比寿02修正文字起こし.mp4</name>
            <enabled>true</enabled>
            <in>4411.284299999999</in>
            <out>4682.2131</out>
            <start>4411.284300000001</start>
            <end>4682.213100000001</end>
            <file id="街ブラ恵比寿02修正文字起こし.mp4"/>
            <sourcetrack>
              <mediatype>audio</mediatype>
              <trackindex>1</trackindex>
            </sourcetrack>
          </clipitem>
          <clipitem>
            <name>街ブラ恵比寿02修正文字起こし.mp4</name>
            <enabled>true</enabled>
            <in>4682.2131</in>
            <out>4748.746499999999</out>
            <start>4682.213100000001</start>
            <end>4748.746500000001</end>
            <file id="街ブラ恵比寿02修正文字起こし.mp4"/>
            <sourcetrack>
              <mediatype>audio</mediatype>
              <trackindex>1</trackindex>
            </sourcetrack>
          </clipitem>
          <clipitem>
            <name>街ブラ恵比寿02修正文字起こし.mp4</name>
            <enabled>true</enabled>
            <in>4748.746499999999</in>
            <out>5004.390600000001</out>
            <start>4748.746500000001</start>
            <end>5004.390600000002</end>
            <file id="街ブラ恵比寿02修正文字起こし.mp4"/>
            <sourcetrack>
              <mediatype>audio</mediatype>
              <trackindex>1</trackindex>
            </sourcetrack>
          </clipitem>
          <clipitem>
            <name>街ブラ恵比寿02修正文字起こし.mp4</name>
            <enabled>true</enabled>
            <in>5004.3906</in>
            <out>5151.5433</out>
            <start>5004.390600000002</start>
            <end>5151.543300000003</end>
            <file id="街ブラ恵比寿02修正文字起こし.mp4"/>
            <sourcetrack>
              <mediatype>audio</mediatype>
              <trackindex>1</trackindex>
            </sourcetrack>
          </clipitem>
          <clipitem>
            <name>街ブラ恵比寿02修正文字起こし.mp4</name>
            <enabled>true</enabled>
            <in>5151.543299999999</in>
            <out>5229.465299999999</out>
            <start>5151.543300000003</start>
            <end>5229.465300000003</end>
            <file id="街ブラ恵比寿02修正文字起こし.mp4"/>
            <sourcetrack>
              <mediatype>audio</mediatype>
              <trackindex>1</trackindex>
            </sourcetrack>
          </clipitem>
          <clipitem>
            <name>街ブラ恵比寿02修正文字起こし.mp4</name>
            <enabled>true</enabled>
            <in>5229.4653</in>
            <out>5296.598100000001</out>
            <start>5229.465300000003</start>
            <end>5296.598100000004</end>
            <file id="街ブラ恵比寿02修正文字起こし.mp4"/>
            <sourcetrack>
              <mediatype>audio</mediatype>
              <trackindex>1</trackindex>
            </sourcetrack>
          </clipitem>
          <clipitem>
            <name>街ブラ恵比寿02修正文字起こし.mp4</name>
            <enabled>true</enabled>
            <in>5296.598099999999</in>
            <out>5348.446199999999</out>
            <start>5296.598100000004</start>
            <end>5348.446200000003</end>
            <file id="街ブラ恵比寿02修正文字起こし.mp4"/>
            <sourcetrack>
              <mediatype>audio</mediatype>
              <trackindex>1</trackindex>
            </sourcetrack>
          </clipitem>
          <clipitem>
            <name>街ブラ恵比寿02修正文字起こし.mp4</name>
            <enabled>true</enabled>
            <in>5348.4462</in>
            <out>5429.9646</out>
            <start>5348.446200000003</start>
            <end>5429.964600000003</end>
            <file id="街ブラ恵比寿02修正文字起こし.mp4"/>
            <sourcetrack>
              <mediatype>audio</mediatype>
              <trackindex>1</trackindex>
            </sourcetrack>
          </clipitem>
          <clipitem>
            <name>街ブラ恵比寿02修正文字起こし.mp4</name>
            <enabled>true</enabled>
            <in>5429.9646</in>
            <out>5474.919599999999</out>
            <start>5429.964600000003</start>
            <end>5474.919600000003</end>
            <file id="街ブラ恵比寿02修正文字起こし.mp4"/>
            <sourcetrack>
              <mediatype>audio</mediatype>
              <trackindex>1</trackindex>
            </sourcetrack>
          </clipitem>
          <clipitem>
            <name>街ブラ恵比寿02修正文字起こし.mp4</name>
            <enabled>true</enabled>
            <in>5474.9196</in>
            <out>5617.576799999998</out>
            <start>5474.919600000003</start>
            <end>5617.576800000001</end>
            <file id="街ブラ恵比寿02修正文字起こし.mp4"/>
            <sourcetrack>
              <mediatype>audio</mediatype>
              <trackindex>1</trackindex>
            </sourcetrack>
          </clipitem>
          <clipitem>
            <name>街ブラ恵比寿02修正文字起こし.mp4</name>
            <enabled>true</enabled>
            <in>5617.5768</in>
            <out>5693.4009</out>
            <start>5617.576800000001</start>
            <end>5693.400900000001</end>
            <file id="街ブラ恵比寿02修正文字起こし.mp4"/>
            <sourcetrack>
              <mediatype>audio</mediatype>
              <trackindex>1</trackindex>
            </sourcetrack>
          </clipitem>
          <clipitem>
            <name>街ブラ恵比寿02修正文字起こし.mp4</name>
            <enabled>true</enabled>
            <in>5693.4009</in>
            <out>5787.206999999999</out>
            <start>5693.400900000001</start>
            <end>5787.207</end>
            <file id="街ブラ恵比寿02修正文字起こし.mp4"/>
            <sourcetrack>
              <mediatype>audio</mediatype>
              <trackindex>1</trackindex>
            </sourcetrack>
          </clipitem>
          <clipitem>
            <name>街ブラ恵比寿02修正文字起こし.mp4</name>
            <enabled>true</enabled>
            <in>5787.206999999999</in>
            <out>5823.170999999999</out>
            <start>5787.207</start>
            <end>5823.171</end>
            <file id="街ブラ恵比寿02修正文字起こし.mp4"/>
            <sourcetrack>
              <mediatype>audio</mediatype>
              <trackindex>1</trackindex>
            </sourcetrack>
          </clipitem>
          <clipitem>
            <name>街ブラ恵比寿02修正文字起こし.mp4</name>
            <enabled>true</enabled>
            <in>5823.171</in>
            <out>6072.5214000000005</out>
            <start>5823.171</start>
            <end>6072.5214000000005</end>
            <file id="街ブラ恵比寿02修正文字起こし.mp4"/>
            <sourcetrack>
              <mediatype>audio</mediatype>
              <trackindex>1</trackindex>
            </sourcetrack>
          </clipitem>
          <clipitem>
            <name>街ブラ恵比寿02修正文字起こし.mp4</name>
            <enabled>true</enabled>
            <in>6072.5214</in>
            <out>6121.072799999998</out>
            <start>6072.5214000000005</start>
            <end>6121.072799999999</end>
            <file id="街ブラ恵比寿02修正文字起こし.mp4"/>
            <sourcetrack>
              <mediatype>audio</mediatype>
              <trackindex>1</trackindex>
            </sourcetrack>
          </clipitem>
          <clipitem>
            <name>街ブラ恵比寿02修正文字起こし.mp4</name>
            <enabled>true</enabled>
            <in>6121.0728</in>
            <out>6163.0307999999995</out>
            <start>6121.072799999999</start>
            <end>6163.030799999999</end>
            <file id="街ブラ恵比寿02修正文字起こし.mp4"/>
            <sourcetrack>
              <mediatype>audio</mediatype>
              <trackindex>1</trackindex>
            </sourcetrack>
          </clipitem>
          <clipitem>
            <name>街ブラ恵比寿02修正文字起こし.mp4</name>
            <enabled>true</enabled>
            <in>6163.0307999999995</in>
            <out>6223.5702</out>
            <start>6163.030799999999</start>
            <end>6223.570199999999</end>
            <file id="街ブラ恵比寿02修正文字起こし.mp4"/>
            <sourcetrack>
              <mediatype>audio</mediatype>
              <trackindex>1</trackindex>
            </sourcetrack>
          </clipitem>
          <clipitem>
            <name>街ブラ恵比寿02修正文字起こし.mp4</name>
            <enabled>true</enabled>
            <in>6223.5702</in>
            <out>6360.5331</out>
            <start>6223.570199999999</start>
            <end>6360.533099999999</end>
            <file id="街ブラ恵比寿02修正文字起こし.mp4"/>
            <sourcetrack>
              <mediatype>audio</mediatype>
              <trackindex>1</trackindex>
            </sourcetrack>
          </clipitem>
          <clipitem>
            <name>街ブラ恵比寿02修正文字起こし.mp4</name>
            <enabled>true</enabled>
            <in>6360.5331</in>
            <out>6477.715800000001</out>
            <start>6360.533099999999</start>
            <end>6477.7158</end>
            <file id="街ブラ恵比寿02修正文字起こし.mp4"/>
            <sourcetrack>
              <mediatype>audio</mediatype>
              <trackindex>1</trackindex>
            </sourcetrack>
          </clipitem>
          <clipitem>
            <name>街ブラ恵比寿02修正文字起こし.mp4</name>
            <enabled>true</enabled>
            <in>6477.715799999999</in>
            <out>6585.607799999999</out>
            <start>6477.7158</start>
            <end>6585.6078</end>
            <file id="街ブラ恵比寿02修正文字起こし.mp4"/>
            <sourcetrack>
              <mediatype>audio</mediatype>
              <trackindex>1</trackindex>
            </sourcetrack>
          </clipitem>
          <clipitem>
            <name>街ブラ恵比寿02修正文字起こし.mp4</name>
            <enabled>true</enabled>
            <in>6585.6078</in>
            <out>6677.915400000001</out>
            <start>6585.6078</start>
            <end>6677.915400000001</end>
            <file id="街ブラ恵比寿02修正文字起こし.mp4"/>
            <sourcetrack>
              <mediatype>audio</mediatype>
              <trackindex>1</trackindex>
            </sourcetrack>
          </clipitem>
          <clipitem>
            <name>街ブラ恵比寿02修正文字起こし.mp4</name>
            <enabled>true</enabled>
            <in>6677.9154</in>
            <out>6849.6435</out>
            <start>6677.915400000001</start>
            <end>6849.643500000001</end>
            <file id="街ブラ恵比寿02修正文字起こし.mp4"/>
            <sourcetrack>
              <mediatype>audio</mediatype>
              <trackindex>1</trackindex>
            </sourcetrack>
          </clipitem>
          <clipitem>
            <name>街ブラ恵比寿02修正文字起こし.mp4</name>
            <enabled>true</enabled>
            <in>6849.6435</in>
            <out>6927.2658</out>
            <start>6849.643500000001</start>
            <end>6927.265800000001</end>
            <file id="街ブラ恵比寿02修正文字起こし.mp4"/>
            <sourcetrack>
              <mediatype>audio</mediatype>
              <trackindex>1</trackindex>
            </sourcetrack>
          </clipitem>
          <clipitem>
            <name>街ブラ恵比寿02修正文字起こし.mp4</name>
            <enabled>true</enabled>
            <in>6927.265799999999</in>
            <out>6961.731299999999</out>
            <start>6927.265800000001</start>
            <end>6961.7313</end>
            <file id="街ブラ恵比寿02修正文字起こし.mp4"/>
            <sourcetrack>
              <mediatype>audio</mediatype>
              <trackindex>1</trackindex>
            </sourcetrack>
          </clipitem>
          <clipitem>
            <name>街ブラ恵比寿02修正文字起こし.mp4</name>
            <enabled>true</enabled>
            <in>6961.7312999999995</in>
            <out>7223.9688</out>
            <start>6961.7313</start>
            <end>7223.968800000001</end>
            <file id="街ブラ恵比寿02修正文字起こし.mp4"/>
            <sourcetrack>
              <mediatype>audio</mediatype>
              <trackindex>1</trackindex>
            </sourcetrack>
          </clipitem>
          <clipitem>
            <name>街ブラ恵比寿02修正文字起こし.mp4</name>
            <enabled>true</enabled>
            <in>7223.9688</in>
            <out>7309.982699999999</out>
            <start>7223.968800000001</start>
            <end>7309.9827</end>
            <file id="街ブラ恵比寿02修正文字起こし.mp4"/>
            <sourcetrack>
              <mediatype>audio</mediatype>
              <trackindex>1</trackindex>
            </sourcetrack>
          </clipitem>
          <clipitem>
            <name>街ブラ恵比寿02修正文字起こし.mp4</name>
            <enabled>true</enabled>
            <in>7309.9827</in>
            <out>7330.961700000001</out>
            <start>7309.9827</start>
            <end>7330.961700000001</end>
            <file id="街ブラ恵比寿02修正文字起こし.mp4"/>
            <sourcetrack>
              <mediatype>audio</mediatype>
              <trackindex>1</trackindex>
            </sourcetrack>
          </clipitem>
          <clipitem>
            <name>街ブラ恵比寿02修正文字起こし.mp4</name>
            <enabled>true</enabled>
            <in>7330.9617</in>
            <out>7347.744900000001</out>
            <start>7330.961700000001</start>
            <end>7347.744900000001</end>
            <file id="街ブラ恵比寿02修正文字起こし.mp4"/>
            <sourcetrack>
              <mediatype>audio</mediatype>
              <trackindex>1</trackindex>
            </sourcetrack>
          </clipitem>
          <clipitem>
            <name>街ブラ恵比寿02修正文字起こし.mp4</name>
            <enabled>true</enabled>
            <in>7347.7449</in>
            <out>7414.278299999998</out>
            <start>7347.744900000001</start>
            <end>7414.2783</end>
            <file id="街ブラ恵比寿02修正文字起こし.mp4"/>
            <sourcetrack>
              <mediatype>audio</mediatype>
              <trackindex>1</trackindex>
            </sourcetrack>
          </clipitem>
          <clipitem>
            <name>街ブラ恵比寿02修正文字起こし.mp4</name>
            <enabled>true</enabled>
            <in>7414.278299999999</in>
            <out>7474.2182999999995</out>
            <start>7414.2783</start>
            <end>7474.2183</end>
            <file id="街ブラ恵比寿02修正文字起こし.mp4"/>
            <sourcetrack>
              <mediatype>audio</mediatype>
              <trackindex>1</trackindex>
            </sourcetrack>
          </clipitem>
          <clipitem>
            <name>街ブラ恵比寿02修正文字起こし.mp4</name>
            <enabled>true</enabled>
            <in>7474.2182999999995</in>
            <out>7523.0694</out>
            <start>7474.2183</start>
            <end>7523.069400000001</end>
            <file id="街ブラ恵比寿02修正文字起こし.mp4"/>
            <sourcetrack>
              <mediatype>audio</mediatype>
              <trackindex>1</trackindex>
            </sourcetrack>
          </clipitem>
          <clipitem>
            <name>街ブラ恵比寿02修正文字起こし.mp4</name>
            <enabled>true</enabled>
            <in>7523.0694</in>
            <out>7604.587799999999</out>
            <start>7523.069400000001</start>
            <end>7604.5878</end>
            <file id="街ブラ恵比寿02修正文字起こし.mp4"/>
            <sourcetrack>
              <mediatype>audio</mediatype>
              <trackindex>1</trackindex>
            </sourcetrack>
          </clipitem>
          <clipitem>
            <name>街ブラ恵比寿02修正文字起こし.mp4</name>
            <enabled>true</enabled>
            <in>7604.5878</in>
            <out>7838.3538</out>
            <start>7604.5878</start>
            <end>7838.3538</end>
            <file id="街ブラ恵比寿02修正文字起こし.mp4"/>
            <sourcetrack>
              <mediatype>audio</mediatype>
              <trackindex>1</trackindex>
            </sourcetrack>
          </clipitem>
          <clipitem>
            <name>街ブラ恵比寿02修正文字起こし.mp4</name>
            <enabled>true</enabled>
            <in>7838.3538</in>
            <out>8019.072900000003</out>
            <start>7838.3538</start>
            <end>8019.072900000003</end>
            <file id="街ブラ恵比寿02修正文字起こし.mp4"/>
            <sourcetrack>
              <mediatype>audio</mediatype>
              <trackindex>1</trackindex>
            </sourcetrack>
          </clipitem>
          <clipitem>
            <name>街ブラ恵比寿02修正文字起こし.mp4</name>
            <enabled>true</enabled>
            <in>8019.072899999999</in>
            <out>8172.8189999999995</out>
            <start>8019.072900000003</start>
            <end>8172.819000000003</end>
            <file id="街ブラ恵比寿02修正文字起こし.mp4"/>
            <sourcetrack>
              <mediatype>audio</mediatype>
              <trackindex>1</trackindex>
            </sourcetrack>
          </clipitem>
          <clipitem>
            <name>街ブラ恵比寿02修正文字起こし.mp4</name>
            <enabled>true</enabled>
            <in>8172.8189999999995</in>
            <out>8298.393300000002</out>
            <start>8172.819000000003</start>
            <end>8298.393300000005</end>
            <file id="街ブラ恵比寿02修正文字起こし.mp4"/>
            <sourcetrack>
              <mediatype>audio</mediatype>
              <trackindex>1</trackindex>
            </sourcetrack>
          </clipitem>
          <clipitem>
            <name>街ブラ恵比寿02修正文字起こし.mp4</name>
            <enabled>true</enabled>
            <in>8298.3933</in>
            <out>8501.889600000004</out>
            <start>8298.393300000005</start>
            <end>8501.889600000008</end>
            <file id="街ブラ恵比寿02修正文字起こし.mp4"/>
            <sourcetrack>
              <mediatype>audio</mediatype>
              <trackindex>1</trackindex>
            </sourcetrack>
          </clipitem>
          <clipitem>
            <name>街ブラ恵比寿02修正文字起こし.mp4</name>
            <enabled>true</enabled>
            <in>8501.8896</in>
            <out>8629.561800000001</out>
            <start>8501.889600000008</start>
            <end>8629.56180000001</end>
            <file id="街ブラ恵比寿02修正文字起こし.mp4"/>
            <sourcetrack>
              <mediatype>audio</mediatype>
              <trackindex>1</trackindex>
            </sourcetrack>
          </clipitem>
          <clipitem>
            <name>街ブラ恵比寿02修正文字起こし.mp4</name>
            <enabled>true</enabled>
            <in>8629.5618</in>
            <out>8815.375800000002</out>
            <start>8629.56180000001</start>
            <end>8815.37580000001</end>
            <file id="街ブラ恵比寿02修正文字起こし.mp4"/>
            <sourcetrack>
              <mediatype>audio</mediatype>
              <trackindex>1</trackindex>
            </sourcetrack>
          </clipitem>
          <clipitem>
            <name>街ブラ恵比寿02修正文字起こし.mp4</name>
            <enabled>true</enabled>
            <in>8815.3758</in>
            <out>8906.484599999998</out>
            <start>8815.37580000001</start>
            <end>8906.48460000001</end>
            <file id="街ブラ恵比寿02修正文字起こし.mp4"/>
            <sourcetrack>
              <mediatype>audio</mediatype>
              <trackindex>1</trackindex>
            </sourcetrack>
          </clipitem>
          <clipitem>
            <name>街ブラ恵比寿02修正文字起こし.mp4</name>
            <enabled>true</enabled>
            <in>8906.4846</in>
            <out>9076.714200000004</out>
            <start>8906.48460000001</start>
            <end>9076.714200000013</end>
            <file id="街ブラ恵比寿02修正文字起こし.mp4"/>
            <sourcetrack>
              <mediatype>audio</mediatype>
              <trackindex>1</trackindex>
            </sourcetrack>
          </clipitem>
          <clipitem>
            <name>街ブラ恵比寿02修正文字起こし.mp4</name>
            <enabled>true</enabled>
            <in>9076.7142</in>
            <out>9136.6542</out>
            <start>9076.714200000013</start>
            <end>9136.654200000014</end>
            <file id="街ブラ恵比寿02修正文字起こし.mp4"/>
            <sourcetrack>
              <mediatype>audio</mediatype>
              <trackindex>1</trackindex>
            </sourcetrack>
          </clipitem>
          <clipitem>
            <name>街ブラ恵比寿02修正文字起こし.mp4</name>
            <enabled>true</enabled>
            <in>9136.6542</in>
            <out>9187.902900000001</out>
            <start>9136.654200000014</start>
            <end>9187.902900000016</end>
            <file id="街ブラ恵比寿02修正文字起こし.mp4"/>
            <sourcetrack>
              <mediatype>audio</mediatype>
              <trackindex>1</trackindex>
            </sourcetrack>
          </clipitem>
          <clipitem>
            <name>街ブラ恵比寿02修正文字起こし.mp4</name>
            <enabled>true</enabled>
            <in>9187.9029</in>
            <out>9250.839900000003</out>
            <start>9187.902900000016</start>
            <end>9250.839900000017</end>
            <file id="街ブラ恵比寿02修正文字起こし.mp4"/>
            <sourcetrack>
              <mediatype>audio</mediatype>
              <trackindex>1</trackindex>
            </sourcetrack>
          </clipitem>
          <clipitem>
            <name>街ブラ恵比寿02修正文字起こし.mp4</name>
            <enabled>true</enabled>
            <in>9250.8399</in>
            <out>9314.975699999997</out>
            <start>9250.839900000017</start>
            <end>9314.975700000015</end>
            <file id="街ブラ恵比寿02修正文字起こし.mp4"/>
            <sourcetrack>
              <mediatype>audio</mediatype>
              <trackindex>1</trackindex>
            </sourcetrack>
          </clipitem>
          <clipitem>
            <name>街ブラ恵比寿02修正文字起こし.mp4</name>
            <enabled>true</enabled>
            <in>9314.975699999999</in>
            <out>9333.5571</out>
            <start>9314.975700000015</start>
            <end>9333.557100000015</end>
            <file id="街ブラ恵比寿02修正文字起こし.mp4"/>
            <sourcetrack>
              <mediatype>audio</mediatype>
              <trackindex>1</trackindex>
            </sourcetrack>
          </clipitem>
          <clipitem>
            <name>街ブラ恵比寿02修正文字起こし.mp4</name>
            <enabled>true</enabled>
            <in>9333.5571</in>
            <out>9369.820800000001</out>
            <start>9333.557100000015</start>
            <end>9369.820800000016</end>
            <file id="街ブラ恵比寿02修正文字起こし.mp4"/>
            <sourcetrack>
              <mediatype>audio</mediatype>
              <trackindex>1</trackindex>
            </sourcetrack>
          </clipitem>
          <clipitem>
            <name>街ブラ恵比寿02修正文字起こし.mp4</name>
            <enabled>true</enabled>
            <in>9369.8208</in>
            <out>10016.273699999998</out>
            <start>9369.820800000016</start>
            <end>10016.273700000014</end>
            <file id="街ブラ恵比寿02修正文字起こし.mp4"/>
            <sourcetrack>
              <mediatype>audio</mediatype>
              <trackindex>1</trackindex>
            </sourcetrack>
          </clipitem>
          <clipitem>
            <name>街ブラ恵比寿02修正文字起こし.mp4</name>
            <enabled>true</enabled>
            <in>10016.2737</in>
            <out>10212.8769</out>
            <start>10016.273700000014</start>
            <end>10212.876900000014</end>
            <file id="街ブラ恵比寿02修正文字起こし.mp4"/>
            <sourcetrack>
              <mediatype>audio</mediatype>
              <trackindex>1</trackindex>
            </sourcetrack>
          </clipitem>
          <clipitem>
            <name>街ブラ恵比寿02修正文字起こし.mp4</name>
            <enabled>true</enabled>
            <in>10212.8769</in>
            <out>10277.012699999997</out>
            <start>10212.876900000014</start>
            <end>10277.012700000012</end>
            <file id="街ブラ恵比寿02修正文字起こし.mp4"/>
            <sourcetrack>
              <mediatype>audio</mediatype>
              <trackindex>1</trackindex>
            </sourcetrack>
          </clipitem>
          <clipitem>
            <name>街ブラ恵比寿02修正文字起こし.mp4</name>
            <enabled>true</enabled>
            <in>10277.012700000001</in>
            <out>10407.082499999999</out>
            <start>10277.012700000012</start>
            <end>10407.08250000001</end>
            <file id="街ブラ恵比寿02修正文字起こし.mp4"/>
            <sourcetrack>
              <mediatype>audio</mediatype>
              <trackindex>1</trackindex>
            </sourcetrack>
          </clipitem>
          <clipitem>
            <name>街ブラ恵比寿02修正文字起こし.mp4</name>
            <enabled>true</enabled>
            <in>10407.0825</in>
            <out>10460.129399999998</out>
            <start>10407.08250000001</start>
            <end>10460.129400000007</end>
            <file id="街ブラ恵比寿02修正文字起こし.mp4"/>
            <sourcetrack>
              <mediatype>audio</mediatype>
              <trackindex>1</trackindex>
            </sourcetrack>
          </clipitem>
          <clipitem>
            <name>街ブラ恵比寿02修正文字起こし.mp4</name>
            <enabled>true</enabled>
            <in>10460.1294</in>
            <out>10529.6598</out>
            <start>10460.129400000007</start>
            <end>10529.659800000007</end>
            <file id="街ブラ恵比寿02修正文字起こし.mp4"/>
            <sourcetrack>
              <mediatype>audio</mediatype>
              <trackindex>1</trackindex>
            </sourcetrack>
          </clipitem>
          <clipitem>
            <name>街ブラ恵比寿02修正文字起こし.mp4</name>
            <enabled>true</enabled>
            <in>10529.6598</in>
            <out>10594.095299999999</out>
            <start>10529.659800000007</start>
            <end>10594.095300000008</end>
            <file id="街ブラ恵比寿02修正文字起こし.mp4"/>
            <sourcetrack>
              <mediatype>audio</mediatype>
              <trackindex>1</trackindex>
            </sourcetrack>
          </clipitem>
          <clipitem>
            <name>街ブラ恵比寿02修正文字起こし.mp4</name>
            <enabled>true</enabled>
            <in>10594.095299999999</in>
            <out>10908.480600000003</out>
            <start>10594.095300000008</start>
            <end>10908.48060000001</end>
            <file id="街ブラ恵比寿02修正文字起こし.mp4"/>
            <sourcetrack>
              <mediatype>audio</mediatype>
              <trackindex>1</trackindex>
            </sourcetrack>
          </clipitem>
          <clipitem>
            <name>街ブラ恵比寿02修正文字起こし.mp4</name>
            <enabled>true</enabled>
            <in>10908.4806</in>
            <out>10947.141899999999</out>
            <start>10908.48060000001</start>
            <end>10947.14190000001</end>
            <file id="街ブラ恵比寿02修正文字起こし.mp4"/>
            <sourcetrack>
              <mediatype>audio</mediatype>
              <trackindex>1</trackindex>
            </sourcetrack>
          </clipitem>
          <clipitem>
            <name>街ブラ恵比寿02修正文字起こし.mp4</name>
            <enabled>true</enabled>
            <in>10947.141899999999</in>
            <out>10961.527499999998</out>
            <start>10947.14190000001</start>
            <end>10961.527500000007</end>
            <file id="街ブラ恵比寿02修正文字起こし.mp4"/>
            <sourcetrack>
              <mediatype>audio</mediatype>
              <trackindex>1</trackindex>
            </sourcetrack>
          </clipitem>
          <clipitem>
            <name>街ブラ恵比寿02修正文字起こし.mp4</name>
            <enabled>true</enabled>
            <in>10961.5275</in>
            <out>11029.259699999999</out>
            <start>10961.527500000007</start>
            <end>11029.259700000008</end>
            <file id="街ブラ恵比寿02修正文字起こし.mp4"/>
            <sourcetrack>
              <mediatype>audio</mediatype>
              <trackindex>1</trackindex>
            </sourcetrack>
          </clipitem>
          <clipitem>
            <name>街ブラ恵比寿02修正文字起こし.mp4</name>
            <enabled>true</enabled>
            <in>11029.259699999999</in>
            <out>11122.766099999999</out>
            <start>11029.259700000008</start>
            <end>11122.766100000008</end>
            <file id="街ブラ恵比寿02修正文字起こし.mp4"/>
            <sourcetrack>
              <mediatype>audio</mediatype>
              <trackindex>1</trackindex>
            </sourcetrack>
          </clipitem>
          <clipitem>
            <name>街ブラ恵比寿02修正文字起こし.mp4</name>
            <enabled>true</enabled>
            <in>11122.766099999999</in>
            <out>11278.610099999998</out>
            <start>11122.766100000008</start>
            <end>11278.610100000005</end>
            <file id="街ブラ恵比寿02修正文字起こし.mp4"/>
            <sourcetrack>
              <mediatype>audio</mediatype>
              <trackindex>1</trackindex>
            </sourcetrack>
          </clipitem>
          <clipitem>
            <name>街ブラ恵比寿02修正文字起こし.mp4</name>
            <enabled>true</enabled>
            <in>11278.6101</in>
            <out>11339.748899999997</out>
            <start>11278.610100000005</start>
            <end>11339.748900000002</end>
            <file id="街ブラ恵比寿02修正文字起こし.mp4"/>
            <sourcetrack>
              <mediatype>audio</mediatype>
              <trackindex>1</trackindex>
            </sourcetrack>
          </clipitem>
          <clipitem>
            <name>街ブラ恵比寿02修正文字起こし.mp4</name>
            <enabled>true</enabled>
            <in>11339.7489</in>
            <out>11437.1514</out>
            <start>11339.748900000002</start>
            <end>11437.151400000004</end>
            <file id="街ブラ恵比寿02修正文字起こし.mp4"/>
            <sourcetrack>
              <mediatype>audio</mediatype>
              <trackindex>1</trackindex>
            </sourcetrack>
          </clipitem>
          <clipitem>
            <name>街ブラ恵比寿02修正文字起こし.mp4</name>
            <enabled>true</enabled>
            <in>11437.151399999999</in>
            <out>11512.376100000003</out>
            <start>11437.151400000004</start>
            <end>11512.376100000009</end>
            <file id="街ブラ恵比寿02修正文字起こし.mp4"/>
            <sourcetrack>
              <mediatype>audio</mediatype>
              <trackindex>1</trackindex>
            </sourcetrack>
          </clipitem>
          <clipitem>
            <name>街ブラ恵比寿02修正文字起こし.mp4</name>
            <enabled>true</enabled>
            <in>11512.3761</in>
            <out>11565.7227</out>
            <start>11512.376100000009</start>
            <end>11565.72270000001</end>
            <file id="街ブラ恵比寿02修正文字起こし.mp4"/>
            <sourcetrack>
              <mediatype>audio</mediatype>
              <trackindex>1</trackindex>
            </sourcetrack>
          </clipitem>
          <clipitem>
            <name>街ブラ恵比寿02修正文字起こし.mp4</name>
            <enabled>true</enabled>
            <in>11565.7227</in>
            <out>11638.849499999998</out>
            <start>11565.72270000001</start>
            <end>11638.849500000008</end>
            <file id="街ブラ恵比寿02修正文字起こし.mp4"/>
            <sourcetrack>
              <mediatype>audio</mediatype>
              <trackindex>1</trackindex>
            </sourcetrack>
          </clipitem>
          <clipitem>
            <name>街ブラ恵比寿02修正文字起こし.mp4</name>
            <enabled>true</enabled>
            <in>11638.8495</in>
            <out>11724.264000000001</out>
            <start>11638.849500000008</start>
            <end>11724.264000000008</end>
            <file id="街ブラ恵比寿02修正文字起こし.mp4"/>
            <sourcetrack>
              <mediatype>audio</mediatype>
              <trackindex>1</trackindex>
            </sourcetrack>
          </clipitem>
          <clipitem>
            <name>街ブラ恵比寿02修正文字起こし.mp4</name>
            <enabled>true</enabled>
            <in>11724.264</in>
            <out>11781.506699999998</out>
            <start>11724.264000000008</start>
            <end>11781.506700000007</end>
            <file id="街ブラ恵比寿02修正文字起こし.mp4"/>
            <sourcetrack>
              <mediatype>audio</mediatype>
              <trackindex>1</trackindex>
            </sourcetrack>
          </clipitem>
          <clipitem>
            <name>街ブラ恵比寿02修正文字起こし.mp4</name>
            <enabled>true</enabled>
            <in>11781.5067</in>
            <out>11889.3987</out>
            <start>11781.506700000007</start>
            <end>11889.398700000007</end>
            <file id="街ブラ恵比寿02修正文字起こし.mp4"/>
            <sourcetrack>
              <mediatype>audio</mediatype>
              <trackindex>1</trackindex>
            </sourcetrack>
          </clipitem>
          <clipitem>
            <name>街ブラ恵比寿02修正文字起こし.mp4</name>
            <enabled>true</enabled>
            <in>11889.3987</in>
            <out>11953.234799999998</out>
            <start>11889.398700000007</start>
            <end>11953.234800000007</end>
            <file id="街ブラ恵比寿02修正文字起こし.mp4"/>
            <sourcetrack>
              <mediatype>audio</mediatype>
              <trackindex>1</trackindex>
            </sourcetrack>
          </clipitem>
          <clipitem>
            <name>街ブラ恵比寿02修正文字起こし.mp4</name>
            <enabled>true</enabled>
            <in>11953.234799999998</in>
            <out>12120.167699999995</out>
            <start>11953.234800000007</start>
            <end>12120.167700000004</end>
            <file id="街ブラ恵比寿02修正文字起こし.mp4"/>
            <sourcetrack>
              <mediatype>audio</mediatype>
              <trackindex>1</trackindex>
            </sourcetrack>
          </clipitem>
          <clipitem>
            <name>街ブラ恵比寿02修正文字起こし.mp4</name>
            <enabled>true</enabled>
            <in>12120.1677</in>
            <out>12289.198499999999</out>
            <start>12120.167700000004</start>
            <end>12289.198500000002</end>
            <file id="街ブラ恵比寿02修正文字起こし.mp4"/>
            <sourcetrack>
              <mediatype>audio</mediatype>
              <trackindex>1</trackindex>
            </sourcetrack>
          </clipitem>
          <clipitem>
            <name>街ブラ恵比寿02修正文字起こし.mp4</name>
            <enabled>true</enabled>
            <in>12289.1985</in>
            <out>12370.7169</out>
            <start>12289.198500000002</start>
            <end>12370.716900000001</end>
            <file id="街ブラ恵比寿02修正文字起こし.mp4"/>
            <sourcetrack>
              <mediatype>audio</mediatype>
              <trackindex>1</trackindex>
            </sourcetrack>
          </clipitem>
          <clipitem>
            <name>街ブラ恵比寿02修正文字起こし.mp4</name>
            <enabled>true</enabled>
            <in>12370.7169</in>
            <out>12425.561999999998</out>
            <start>12370.716900000001</start>
            <end>12425.562</end>
            <file id="街ブラ恵比寿02修正文字起こし.mp4"/>
            <sourcetrack>
              <mediatype>audio</mediatype>
              <trackindex>1</trackindex>
            </sourcetrack>
          </clipitem>
          <clipitem>
            <name>街ブラ恵比寿02修正文字起こし.mp4</name>
            <enabled>true</enabled>
            <in>12425.562</in>
            <out>12493.2942</out>
            <start>12425.562</start>
            <end>12493.2942</end>
            <file id="街ブラ恵比寿02修正文字起こし.mp4"/>
            <sourcetrack>
              <mediatype>audio</mediatype>
              <trackindex>1</trackindex>
            </sourcetrack>
          </clipitem>
          <clipitem>
            <name>街ブラ恵比寿02修正文字起こし.mp4</name>
            <enabled>true</enabled>
            <in>12493.2942</in>
            <out>12530.7567</out>
            <start>12493.2942</start>
            <end>12530.7567</end>
            <file id="街ブラ恵比寿02修正文字起こし.mp4"/>
            <sourcetrack>
              <mediatype>audio</mediatype>
              <trackindex>1</trackindex>
            </sourcetrack>
          </clipitem>
          <clipitem>
            <name>街ブラ恵比寿02修正文字起こし.mp4</name>
            <enabled>true</enabled>
            <in>12530.7567</in>
            <out>12559.527900000001</out>
            <start>12530.7567</start>
            <end>12559.527900000001</end>
            <file id="街ブラ恵比寿02修正文字起こし.mp4"/>
            <sourcetrack>
              <mediatype>audio</mediatype>
              <trackindex>1</trackindex>
            </sourcetrack>
          </clipitem>
          <clipitem>
            <name>街ブラ恵比寿02修正文字起こし.mp4</name>
            <enabled>true</enabled>
            <in>12559.5279</in>
            <out>12611.0763</out>
            <start>12559.527900000001</start>
            <end>12611.076300000002</end>
            <file id="街ブラ恵比寿02修正文字起こし.mp4"/>
            <sourcetrack>
              <mediatype>audio</mediatype>
              <trackindex>1</trackindex>
            </sourcetrack>
          </clipitem>
          <clipitem>
            <name>街ブラ恵比寿02修正文字起こし.mp4</name>
            <enabled>true</enabled>
            <in>12611.0763</in>
            <out>12686.0013</out>
            <start>12611.076300000002</start>
            <end>12686.001300000002</end>
            <file id="街ブラ恵比寿02修正文字起こし.mp4"/>
            <sourcetrack>
              <mediatype>audio</mediatype>
              <trackindex>1</trackindex>
            </sourcetrack>
          </clipitem>
          <clipitem>
            <name>街ブラ恵比寿02修正文字起こし.mp4</name>
            <enabled>true</enabled>
            <in>12686.0013</in>
            <out>12736.650599999999</out>
            <start>12686.001300000002</start>
            <end>12736.6506</end>
            <file id="街ブラ恵比寿02修正文字起こし.mp4"/>
            <sourcetrack>
              <mediatype>audio</mediatype>
              <trackindex>1</trackindex>
            </sourcetrack>
          </clipitem>
          <clipitem>
            <name>街ブラ恵比寿02修正文字起こし.mp4</name>
            <enabled>true</enabled>
            <in>12736.6506</in>
            <out>12940.1469</out>
            <start>12736.6506</start>
            <end>12940.1469</end>
            <file id="街ブラ恵比寿02修正文字起こし.mp4"/>
            <sourcetrack>
              <mediatype>audio</mediatype>
              <trackindex>1</trackindex>
            </sourcetrack>
          </clipitem>
          <clipitem>
            <name>街ブラ恵比寿02修正文字起こし.mp4</name>
            <enabled>true</enabled>
            <in>12940.1469</in>
            <out>13007.2797</out>
            <start>12940.1469</start>
            <end>13007.2797</end>
            <file id="街ブラ恵比寿02修正文字起こし.mp4"/>
            <sourcetrack>
              <mediatype>audio</mediatype>
              <trackindex>1</trackindex>
            </sourcetrack>
          </clipitem>
          <clipitem>
            <name>街ブラ恵比寿02修正文字起こし.mp4</name>
            <enabled>true</enabled>
            <in>13007.2797</in>
            <out>13122.963899999997</out>
            <start>13007.2797</start>
            <end>13122.963899999997</end>
            <file id="街ブラ恵比寿02修正文字起こし.mp4"/>
            <sourcetrack>
              <mediatype>audio</mediatype>
              <trackindex>1</trackindex>
            </sourcetrack>
          </clipitem>
          <clipitem>
            <name>街ブラ恵比寿02修正文字起こし.mp4</name>
            <enabled>true</enabled>
            <in>13122.963899999999</in>
            <out>13209.277499999998</out>
            <start>13122.963899999997</start>
            <end>13209.277499999995</end>
            <file id="街ブラ恵比寿02修正文字起こし.mp4"/>
            <sourcetrack>
              <mediatype>audio</mediatype>
              <trackindex>1</trackindex>
            </sourcetrack>
          </clipitem>
          <clipitem>
            <name>街ブラ恵比寿02修正文字起こし.mp4</name>
            <enabled>true</enabled>
            <in>13209.2775</in>
            <out>13256.630099999998</out>
            <start>13209.277499999995</start>
            <end>13256.630099999993</end>
            <file id="街ブラ恵比寿02修正文字起こし.mp4"/>
            <sourcetrack>
              <mediatype>audio</mediatype>
              <trackindex>1</trackindex>
            </sourcetrack>
          </clipitem>
          <clipitem>
            <name>街ブラ恵比寿02修正文字起こし.mp4</name>
            <enabled>true</enabled>
            <in>13256.630099999998</in>
            <out>13345.341300000002</out>
            <start>13256.630099999993</start>
            <end>13345.341299999996</end>
            <file id="街ブラ恵比寿02修正文字起こし.mp4"/>
            <sourcetrack>
              <mediatype>audio</mediatype>
              <trackindex>1</trackindex>
            </sourcetrack>
          </clipitem>
          <clipitem>
            <name>街ブラ恵比寿02修正文字起こし.mp4</name>
            <enabled>true</enabled>
            <in>13345.3413</in>
            <out>13447.2393</out>
            <start>13345.341299999996</start>
            <end>13447.239299999996</end>
            <file id="街ブラ恵比寿02修正文字起こし.mp4"/>
            <sourcetrack>
              <mediatype>audio</mediatype>
              <trackindex>1</trackindex>
            </sourcetrack>
          </clipitem>
          <clipitem>
            <name>街ブラ恵比寿02修正文字起こし.mp4</name>
            <enabled>true</enabled>
            <in>13447.2393</in>
            <out>13705.280999999997</out>
            <start>13447.239299999996</start>
            <end>13705.280999999995</end>
            <file id="街ブラ恵比寿02修正文字起こし.mp4"/>
            <sourcetrack>
              <mediatype>audio</mediatype>
              <trackindex>1</trackindex>
            </sourcetrack>
          </clipitem>
          <clipitem>
            <name>街ブラ恵比寿02修正文字起こし.mp4</name>
            <enabled>true</enabled>
            <in>13705.280999999999</in>
            <out>13716.0702</out>
            <start>13705.280999999995</start>
            <end>13716.070199999995</end>
            <file id="街ブラ恵比寿02修正文字起こし.mp4"/>
            <sourcetrack>
              <mediatype>audio</mediatype>
              <trackindex>1</trackindex>
            </sourcetrack>
          </clipitem>
          <clipitem>
            <name>街ブラ恵比寿02修正文字起こし.mp4</name>
            <enabled>true</enabled>
            <in>13716.0702</in>
            <out>13756.529700000001</out>
            <start>13716.070199999995</start>
            <end>13756.529699999996</end>
            <file id="街ブラ恵比寿02修正文字起こし.mp4"/>
            <sourcetrack>
              <mediatype>audio</mediatype>
              <trackindex>1</trackindex>
            </sourcetrack>
          </clipitem>
          <clipitem>
            <name>街ブラ恵比寿02修正文字起こし.mp4</name>
            <enabled>true</enabled>
            <in>13756.5297</in>
            <out>14000.785199999998</out>
            <start>13756.529699999996</start>
            <end>14000.785199999995</end>
            <file id="街ブラ恵比寿02修正文字起こし.mp4"/>
            <sourcetrack>
              <mediatype>audio</mediatype>
              <trackindex>1</trackindex>
            </sourcetrack>
          </clipitem>
          <clipitem>
            <name>街ブラ恵比寿02修正文字起こし.mp4</name>
            <enabled>true</enabled>
            <in>14000.7852</in>
            <out>14061.624300000001</out>
            <start>14000.785199999995</start>
            <end>14061.624299999996</end>
            <file id="街ブラ恵比寿02修正文字起こし.mp4"/>
            <sourcetrack>
              <mediatype>audio</mediatype>
              <trackindex>1</trackindex>
            </sourcetrack>
          </clipitem>
          <clipitem>
            <name>街ブラ恵比寿02修正文字起こし.mp4</name>
            <enabled>true</enabled>
            <in>14061.6243</in>
            <out>14441.044499999998</out>
            <start>14061.624299999996</start>
            <end>14441.044499999995</end>
            <file id="街ブラ恵比寿02修正文字起こし.mp4"/>
            <sourcetrack>
              <mediatype>audio</mediatype>
              <trackindex>1</trackindex>
            </sourcetrack>
          </clipitem>
          <clipitem>
            <name>街ブラ恵比寿02修正文字起こし.mp4</name>
            <enabled>true</enabled>
            <in>14441.0445</in>
            <out>14532.1533</out>
            <start>14441.044499999995</start>
            <end>14532.153299999994</end>
            <file id="街ブラ恵比寿02修正文字起こし.mp4"/>
            <sourcetrack>
              <mediatype>audio</mediatype>
              <trackindex>1</trackindex>
            </sourcetrack>
          </clipitem>
          <clipitem>
            <name>街ブラ恵比寿02修正文字起こし.mp4</name>
            <enabled>true</enabled>
            <in>14532.1533</in>
            <out>14554.930499999999</out>
            <start>14532.153299999994</start>
            <end>14554.930499999993</end>
            <file id="街ブラ恵比寿02修正文字起こし.mp4"/>
            <sourcetrack>
              <mediatype>audio</mediatype>
              <trackindex>1</trackindex>
            </sourcetrack>
          </clipitem>
          <clipitem>
            <name>街ブラ恵比寿02修正文字起こし.mp4</name>
            <enabled>true</enabled>
            <in>14554.930499999999</in>
            <out>14777.607599999992</out>
            <start>14554.930499999993</start>
            <end>14777.607599999987</end>
            <file id="街ブラ恵比寿02修正文字起こし.mp4"/>
            <sourcetrack>
              <mediatype>audio</mediatype>
              <trackindex>1</trackindex>
            </sourcetrack>
          </clipitem>
          <clipitem>
            <name>街ブラ恵比寿02修正文字起こし.mp4</name>
            <enabled>true</enabled>
            <in>14777.6076</in>
            <out>14812.073099999998</out>
            <start>14777.607599999987</start>
            <end>14812.073099999987</end>
            <file id="街ブラ恵比寿02修正文字起こし.mp4"/>
            <sourcetrack>
              <mediatype>audio</mediatype>
              <trackindex>1</trackindex>
            </sourcetrack>
          </clipitem>
          <clipitem>
            <name>街ブラ恵比寿02修正文字起こし.mp4</name>
            <enabled>true</enabled>
            <in>14812.0731</in>
            <out>14840.2449</out>
            <start>14812.073099999987</start>
            <end>14840.244899999987</end>
            <file id="街ブラ恵比寿02修正文字起こし.mp4"/>
            <sourcetrack>
              <mediatype>audio</mediatype>
              <trackindex>1</trackindex>
            </sourcetrack>
          </clipitem>
          <clipitem>
            <name>街ブラ恵比寿02修正文字起こし.mp4</name>
            <enabled>true</enabled>
            <in>14840.2449</in>
            <out>14931.053999999998</out>
            <start>14840.244899999987</start>
            <end>14931.053999999986</end>
            <file id="街ブラ恵比寿02修正文字起こし.mp4"/>
            <sourcetrack>
              <mediatype>audio</mediatype>
              <trackindex>1</trackindex>
            </sourcetrack>
          </clipitem>
          <clipitem>
            <name>街ブラ恵比寿02修正文字起こし.mp4</name>
            <enabled>true</enabled>
            <in>14931.053999999998</in>
            <out>15041.643299999998</out>
            <start>14931.053999999986</start>
            <end>15041.643299999983</end>
            <file id="街ブラ恵比寿02修正文字起こし.mp4"/>
            <sourcetrack>
              <mediatype>audio</mediatype>
              <trackindex>1</trackindex>
            </sourcetrack>
          </clipitem>
          <clipitem>
            <name>街ブラ恵比寿02修正文字起こし.mp4</name>
            <enabled>true</enabled>
            <in>15041.6433</in>
            <out>15050.034899999999</out>
            <start>15041.643299999983</start>
            <end>15050.034899999982</end>
            <file id="街ブラ恵比寿02修正文字起こし.mp4"/>
            <sourcetrack>
              <mediatype>audio</mediatype>
              <trackindex>1</trackindex>
            </sourcetrack>
          </clipitem>
          <clipitem>
            <name>街ブラ恵比寿02修正文字起こし.mp4</name>
            <enabled>true</enabled>
            <in>15050.0349</in>
            <out>15174.7101</out>
            <start>15050.034899999982</start>
            <end>15174.710099999984</end>
            <file id="街ブラ恵比寿02修正文字起こし.mp4"/>
            <sourcetrack>
              <mediatype>audio</mediatype>
              <trackindex>1</trackindex>
            </sourcetrack>
          </clipitem>
          <clipitem>
            <name>街ブラ恵比寿02修正文字起こし.mp4</name>
            <enabled>true</enabled>
            <in>15174.710099999998</in>
            <out>15289.495199999998</out>
            <start>15174.710099999984</start>
            <end>15289.495199999983</end>
            <file id="街ブラ恵比寿02修正文字起こし.mp4"/>
            <sourcetrack>
              <mediatype>audio</mediatype>
              <trackindex>1</trackindex>
            </sourcetrack>
          </clipitem>
          <clipitem>
            <name>街ブラ恵比寿02修正文字起こし.mp4</name>
            <enabled>true</enabled>
            <in>15289.4952</in>
            <out>15355.4292</out>
            <start>15289.495199999983</start>
            <end>15355.429199999982</end>
            <file id="街ブラ恵比寿02修正文字起こし.mp4"/>
            <sourcetrack>
              <mediatype>audio</mediatype>
              <trackindex>1</trackindex>
            </sourcetrack>
          </clipitem>
          <clipitem>
            <name>街ブラ恵比寿02修正文字起こし.mp4</name>
            <enabled>true</enabled>
            <in>15355.4292</in>
            <out>15498.685800000007</out>
            <start>15355.429199999982</start>
            <end>15498.685799999988</end>
            <file id="街ブラ恵比寿02修正文字起こし.mp4"/>
            <sourcetrack>
              <mediatype>audio</mediatype>
              <trackindex>1</trackindex>
            </sourcetrack>
          </clipitem>
          <clipitem>
            <name>街ブラ恵比寿02修正文字起こし.mp4</name>
            <enabled>true</enabled>
            <in>15498.6858</in>
            <out>15641.043300000003</out>
            <start>15498.685799999988</start>
            <end>15641.043299999992</end>
            <file id="街ブラ恵比寿02修正文字起こし.mp4"/>
            <sourcetrack>
              <mediatype>audio</mediatype>
              <trackindex>1</trackindex>
            </sourcetrack>
          </clipitem>
          <clipitem>
            <name>街ブラ恵比寿02修正文字起こし.mp4</name>
            <enabled>true</enabled>
            <in>15641.0433</in>
            <out>15884.6994</out>
            <start>15641.043299999992</start>
            <end>15884.699399999992</end>
            <file id="街ブラ恵比寿02修正文字起こし.mp4"/>
            <sourcetrack>
              <mediatype>audio</mediatype>
              <trackindex>1</trackindex>
            </sourcetrack>
          </clipitem>
          <clipitem>
            <name>街ブラ恵比寿02修正文字起こし.mp4</name>
            <enabled>true</enabled>
            <in>15884.6994</in>
            <out>15924.859199999999</out>
            <start>15884.699399999992</start>
            <end>15924.859199999994</end>
            <file id="街ブラ恵比寿02修正文字起こし.mp4"/>
            <sourcetrack>
              <mediatype>audio</mediatype>
              <trackindex>1</trackindex>
            </sourcetrack>
          </clipitem>
          <clipitem>
            <name>街ブラ恵比寿02修正文字起こし.mp4</name>
            <enabled>true</enabled>
            <in>15924.859199999999</in>
            <out>16054.029899999998</out>
            <start>15924.859199999994</start>
            <end>16054.02989999999</end>
            <file id="街ブラ恵比寿02修正文字起こし.mp4"/>
            <sourcetrack>
              <mediatype>audio</mediatype>
              <trackindex>1</trackindex>
            </sourcetrack>
          </clipitem>
          <clipitem>
            <name>街ブラ恵比寿02修正文字起こし.mp4</name>
            <enabled>true</enabled>
            <in>16054.029899999998</in>
            <out>16187.096699999996</out>
            <start>16054.02989999999</start>
            <end>16187.09669999999</end>
            <file id="街ブラ恵比寿02修正文字起こし.mp4"/>
            <sourcetrack>
              <mediatype>audio</mediatype>
              <trackindex>1</trackindex>
            </sourcetrack>
          </clipitem>
          <clipitem>
            <name>街ブラ恵比寿02修正文字起こし.mp4</name>
            <enabled>true</enabled>
            <in>16187.0967</in>
            <out>16272.511199999997</out>
            <start>16187.09669999999</start>
            <end>16272.511199999986</end>
            <file id="街ブラ恵比寿02修正文字起こし.mp4"/>
            <sourcetrack>
              <mediatype>audio</mediatype>
              <trackindex>1</trackindex>
            </sourcetrack>
          </clipitem>
          <clipitem>
            <name>街ブラ恵比寿02修正文字起こし.mp4</name>
            <enabled>true</enabled>
            <in>16272.5112</in>
            <out>16322.860799999999</out>
            <start>16272.511199999986</start>
            <end>16322.860799999986</end>
            <file id="街ブラ恵比寿02修正文字起こし.mp4"/>
            <sourcetrack>
              <mediatype>audio</mediatype>
              <trackindex>1</trackindex>
            </sourcetrack>
          </clipitem>
          <clipitem>
            <name>街ブラ恵比寿02修正文字起こし.mp4</name>
            <enabled>true</enabled>
            <in>16322.860799999999</in>
            <out>16387.2963</out>
            <start>16322.860799999986</start>
            <end>16387.296299999987</end>
            <file id="街ブラ恵比寿02修正文字起こし.mp4"/>
            <sourcetrack>
              <mediatype>audio</mediatype>
              <trackindex>1</trackindex>
            </sourcetrack>
          </clipitem>
          <clipitem>
            <name>街ブラ恵比寿02修正文字起こし.mp4</name>
            <enabled>true</enabled>
            <in>16387.296299999998</in>
            <out>16437.9456</out>
            <start>16387.296299999987</start>
            <end>16437.94559999999</end>
            <file id="街ブラ恵比寿02修正文字起こし.mp4"/>
            <sourcetrack>
              <mediatype>audio</mediatype>
              <trackindex>1</trackindex>
            </sourcetrack>
          </clipitem>
          <clipitem>
            <name>街ブラ恵比寿02修正文字起こし.mp4</name>
            <enabled>true</enabled>
            <in>16437.9456</in>
            <out>16624.958399999996</out>
            <start>16437.94559999999</start>
            <end>16624.958399999985</end>
            <file id="街ブラ恵比寿02修正文字起こし.mp4"/>
            <sourcetrack>
              <mediatype>audio</mediatype>
              <trackindex>1</trackindex>
            </sourcetrack>
          </clipitem>
          <clipitem>
            <name>街ブラ恵比寿02修正文字起こし.mp4</name>
            <enabled>true</enabled>
            <in>16624.9584</in>
            <out>16634.249099999997</out>
            <start>16624.958399999985</start>
            <end>16634.249099999986</end>
            <file id="街ブラ恵比寿02修正文字起こし.mp4"/>
            <sourcetrack>
              <mediatype>audio</mediatype>
              <trackindex>1</trackindex>
            </sourcetrack>
          </clipitem>
          <clipitem>
            <name>街ブラ恵比寿02修正文字起こし.mp4</name>
            <enabled>true</enabled>
            <in>16634.249099999997</in>
            <out>16835.947199999995</out>
            <start>16634.249099999986</start>
            <end>16835.94719999998</end>
            <file id="街ブラ恵比寿02修正文字起こし.mp4"/>
            <sourcetrack>
              <mediatype>audio</mediatype>
              <trackindex>1</trackindex>
            </sourcetrack>
          </clipitem>
          <clipitem>
            <name>街ブラ恵比寿02修正文字起こし.mp4</name>
            <enabled>true</enabled>
            <in>16835.9472</in>
            <out>16893.7893</out>
            <start>16835.94719999998</start>
            <end>16893.789299999982</end>
            <file id="街ブラ恵比寿02修正文字起こし.mp4"/>
            <sourcetrack>
              <mediatype>audio</mediatype>
              <trackindex>1</trackindex>
            </sourcetrack>
          </clipitem>
          <clipitem>
            <name>街ブラ恵比寿02修正文字起こし.mp4</name>
            <enabled>true</enabled>
            <in>16893.7893</in>
            <out>16960.322699999997</out>
            <start>16893.789299999982</start>
            <end>16960.322699999982</end>
            <file id="街ブラ恵比寿02修正文字起こし.mp4"/>
            <sourcetrack>
              <mediatype>audio</mediatype>
              <trackindex>1</trackindex>
            </sourcetrack>
          </clipitem>
          <clipitem>
            <name>街ブラ恵比寿02修正文字起こし.mp4</name>
            <enabled>true</enabled>
            <in>16960.322699999997</in>
            <out>16992.090899999996</out>
            <start>16960.322699999982</start>
            <end>16992.09089999998</end>
            <file id="街ブラ恵比寿02修正文字起こし.mp4"/>
            <sourcetrack>
              <mediatype>audio</mediatype>
              <trackindex>1</trackindex>
            </sourcetrack>
          </clipitem>
          <clipitem>
            <name>街ブラ恵比寿02修正文字起こし.mp4</name>
            <enabled>true</enabled>
            <in>16992.0909</in>
            <out>17022.6603</out>
            <start>16992.09089999998</start>
            <end>17022.660299999978</end>
            <file id="街ブラ恵比寿02修正文字起こし.mp4"/>
            <sourcetrack>
              <mediatype>audio</mediatype>
              <trackindex>1</trackindex>
            </sourcetrack>
          </clipitem>
          <clipitem>
            <name>街ブラ恵比寿02修正文字起こし.mp4</name>
            <enabled>true</enabled>
            <in>17022.6603</in>
            <out>17064.3186</out>
            <start>17022.660299999978</start>
            <end>17064.31859999998</end>
            <file id="街ブラ恵比寿02修正文字起こし.mp4"/>
            <sourcetrack>
              <mediatype>audio</mediatype>
              <trackindex>1</trackindex>
            </sourcetrack>
          </clipitem>
          <clipitem>
            <name>街ブラ恵比寿02修正文字起こし.mp4</name>
            <enabled>true</enabled>
            <in>17064.3186</in>
            <out>17090.991899999994</out>
            <start>17064.31859999998</start>
            <end>17090.991899999975</end>
            <file id="街ブラ恵比寿02修正文字起こし.mp4"/>
            <sourcetrack>
              <mediatype>audio</mediatype>
              <trackindex>1</trackindex>
            </sourcetrack>
          </clipitem>
          <clipitem>
            <name>街ブラ恵比寿02修正文字起こし.mp4</name>
            <enabled>true</enabled>
            <in>17090.991899999997</in>
            <out>17184.797999999995</out>
            <start>17090.991899999975</start>
            <end>17184.79799999997</end>
            <file id="街ブラ恵比寿02修正文字起こし.mp4"/>
            <sourcetrack>
              <mediatype>audio</mediatype>
              <trackindex>1</trackindex>
            </sourcetrack>
          </clipitem>
          <clipitem>
            <name>街ブラ恵比寿02修正文字起こし.mp4</name>
            <enabled>true</enabled>
            <in>17184.798</in>
            <out>17275.007699999995</out>
            <start>17184.79799999997</start>
            <end>17275.00769999997</end>
            <file id="街ブラ恵比寿02修正文字起こし.mp4"/>
            <sourcetrack>
              <mediatype>audio</mediatype>
              <trackindex>1</trackindex>
            </sourcetrack>
          </clipitem>
          <clipitem>
            <name>街ブラ恵比寿02修正文字起こし.mp4</name>
            <enabled>true</enabled>
            <in>17275.0077</in>
            <out>17346.036599999996</out>
            <start>17275.00769999997</start>
            <end>17346.036599999963</end>
            <file id="街ブラ恵比寿02修正文字起こし.mp4"/>
            <sourcetrack>
              <mediatype>audio</mediatype>
              <trackindex>1</trackindex>
            </sourcetrack>
          </clipitem>
          <clipitem>
            <name>街ブラ恵比寿02修正文字起こし.mp4</name>
            <enabled>true</enabled>
            <in>17346.0366</in>
            <out>17420.362199999996</out>
            <start>17346.036599999963</start>
            <end>17420.362199999963</end>
            <file id="街ブラ恵比寿02修正文字起こし.mp4"/>
            <sourcetrack>
              <mediatype>audio</mediatype>
              <trackindex>1</trackindex>
            </sourcetrack>
          </clipitem>
          <clipitem>
            <name>街ブラ恵比寿02修正文字起こし.mp4</name>
            <enabled>true</enabled>
            <in>17420.3622</in>
            <out>17546.53589999999</out>
            <start>17420.362199999963</start>
            <end>17546.535899999955</end>
            <file id="街ブラ恵比寿02修正文字起こし.mp4"/>
            <sourcetrack>
              <mediatype>audio</mediatype>
              <trackindex>1</trackindex>
            </sourcetrack>
          </clipitem>
          <clipitem>
            <name>街ブラ恵比寿02修正文字起こし.mp4</name>
            <enabled>true</enabled>
            <in>17546.5359</in>
            <out>17727.8544</out>
            <start>17546.535899999955</start>
            <end>17727.854399999953</end>
            <file id="街ブラ恵比寿02修正文字起こし.mp4"/>
            <sourcetrack>
              <mediatype>audio</mediatype>
              <trackindex>1</trackindex>
            </sourcetrack>
          </clipitem>
          <clipitem>
            <name>街ブラ恵比寿02修正文字起こし.mp4</name>
            <enabled>true</enabled>
            <in>17727.8544</in>
            <out>17790.7914</out>
            <start>17727.854399999953</start>
            <end>17790.791399999955</end>
            <file id="街ブラ恵比寿02修正文字起こし.mp4"/>
            <sourcetrack>
              <mediatype>audio</mediatype>
              <trackindex>1</trackindex>
            </sourcetrack>
          </clipitem>
          <clipitem>
            <name>街ブラ恵比寿02修正文字起こし.mp4</name>
            <enabled>true</enabled>
            <in>17790.7914</in>
            <out>18178.902899999997</out>
            <start>17790.791399999955</start>
            <end>18178.902899999954</end>
            <file id="街ブラ恵比寿02修正文字起こし.mp4"/>
            <sourcetrack>
              <mediatype>audio</mediatype>
              <trackindex>1</trackindex>
            </sourcetrack>
          </clipitem>
          <clipitem>
            <name>街ブラ恵比寿02修正文字起こし.mp4</name>
            <enabled>true</enabled>
            <in>18178.9029</in>
            <out>18457.324200000003</out>
            <start>18178.902899999954</start>
            <end>18457.324199999955</end>
            <file id="街ブラ恵比寿02修正文字起こし.mp4"/>
            <sourcetrack>
              <mediatype>audio</mediatype>
              <trackindex>1</trackindex>
            </sourcetrack>
          </clipitem>
          <clipitem>
            <name>街ブラ恵比寿02修正文字起こし.mp4</name>
            <enabled>true</enabled>
            <in>18457.3242</in>
            <out>18689.5917</out>
            <start>18457.324199999955</start>
            <end>18689.591699999957</end>
            <file id="街ブラ恵比寿02修正文字起こし.mp4"/>
            <sourcetrack>
              <mediatype>audio</mediatype>
              <trackindex>1</trackindex>
            </sourcetrack>
          </clipitem>
          <clipitem>
            <name>街ブラ恵比寿02修正文字起こし.mp4</name>
            <enabled>true</enabled>
            <in>18689.5917</in>
            <out>18764.516700000004</out>
            <start>18689.591699999957</start>
            <end>18764.51669999996</end>
            <file id="街ブラ恵比寿02修正文字起こし.mp4"/>
            <sourcetrack>
              <mediatype>audio</mediatype>
              <trackindex>1</trackindex>
            </sourcetrack>
          </clipitem>
          <clipitem>
            <name>街ブラ恵比寿02修正文字起こし.mp4</name>
            <enabled>true</enabled>
            <in>18764.5167</in>
            <out>18861.6195</out>
            <start>18764.51669999996</start>
            <end>18861.61949999996</end>
            <file id="街ブラ恵比寿02修正文字起こし.mp4"/>
            <sourcetrack>
              <mediatype>audio</mediatype>
              <trackindex>1</trackindex>
            </sourcetrack>
          </clipitem>
          <clipitem>
            <name>街ブラ恵比寿02修正文字起こし.mp4</name>
            <enabled>true</enabled>
            <in>18861.6195</in>
            <out>18982.998000000007</out>
            <start>18861.61949999996</start>
            <end>18982.997999999963</end>
            <file id="街ブラ恵比寿02修正文字起こし.mp4"/>
            <sourcetrack>
              <mediatype>audio</mediatype>
              <trackindex>1</trackindex>
            </sourcetrack>
          </clipitem>
          <clipitem>
            <name>街ブラ恵比寿02修正文字起こし.mp4</name>
            <enabled>true</enabled>
            <in>18982.998</in>
            <out>19047.4335</out>
            <start>18982.997999999963</start>
            <end>19047.433499999963</end>
            <file id="街ブラ恵比寿02修正文字起こし.mp4"/>
            <sourcetrack>
              <mediatype>audio</mediatype>
              <trackindex>1</trackindex>
            </sourcetrack>
          </clipitem>
          <clipitem>
            <name>街ブラ恵比寿02修正文字起こし.mp4</name>
            <enabled>true</enabled>
            <in>19047.4335</in>
            <out>19118.162699999997</out>
            <start>19047.433499999963</start>
            <end>19118.162699999964</end>
            <file id="街ブラ恵比寿02修正文字起こし.mp4"/>
            <sourcetrack>
              <mediatype>audio</mediatype>
              <trackindex>1</trackindex>
            </sourcetrack>
          </clipitem>
          <clipitem>
            <name>街ブラ恵比寿02修正文字起こし.mp4</name>
            <enabled>true</enabled>
            <in>19118.162699999997</in>
            <out>19167.6132</out>
            <start>19118.162699999964</start>
            <end>19167.613199999967</end>
            <file id="街ブラ恵比寿02修正文字起こし.mp4"/>
            <sourcetrack>
              <mediatype>audio</mediatype>
              <trackindex>1</trackindex>
            </sourcetrack>
          </clipitem>
          <clipitem>
            <name>街ブラ恵比寿02修正文字起こし.mp4</name>
            <enabled>true</enabled>
            <in>19167.613199999996</in>
            <out>19268.012699999996</out>
            <start>19167.613199999967</start>
            <end>19268.012699999963</end>
            <file id="街ブラ恵比寿02修正文字起こし.mp4"/>
            <sourcetrack>
              <mediatype>audio</mediatype>
              <trackindex>1</trackindex>
            </sourcetrack>
          </clipitem>
          <clipitem>
            <name>街ブラ恵比寿02修正文字起こし.mp4</name>
            <enabled>true</enabled>
            <in>19268.0127</in>
            <out>19307.5731</out>
            <start>19268.012699999963</start>
            <end>19307.573099999965</end>
            <file id="街ブラ恵比寿02修正文字起こし.mp4"/>
            <sourcetrack>
              <mediatype>audio</mediatype>
              <trackindex>1</trackindex>
            </sourcetrack>
          </clipitem>
          <clipitem>
            <name>街ブラ恵比寿02修正文字起こし.mp4</name>
            <enabled>true</enabled>
            <in>19307.5731</in>
            <out>19372.308300000004</out>
            <start>19307.573099999965</start>
            <end>19372.30829999997</end>
            <file id="街ブラ恵比寿02修正文字起こし.mp4"/>
            <sourcetrack>
              <mediatype>audio</mediatype>
              <trackindex>1</trackindex>
            </sourcetrack>
          </clipitem>
          <clipitem>
            <name>街ブラ恵比寿02修正文字起こし.mp4</name>
            <enabled>true</enabled>
            <in>19372.3083</in>
            <out>19502.378099999998</out>
            <start>19372.30829999997</start>
            <end>19502.37809999997</end>
            <file id="街ブラ恵比寿02修正文字起こし.mp4"/>
            <sourcetrack>
              <mediatype>audio</mediatype>
              <trackindex>1</trackindex>
            </sourcetrack>
          </clipitem>
          <clipitem>
            <name>街ブラ恵比寿02修正文字起こし.mp4</name>
            <enabled>true</enabled>
            <in>19502.378099999998</in>
            <out>19581.1992</out>
            <start>19502.37809999997</start>
            <end>19581.19919999997</end>
            <file id="街ブラ恵比寿02修正文字起こし.mp4"/>
            <sourcetrack>
              <mediatype>audio</mediatype>
              <trackindex>1</trackindex>
            </sourcetrack>
          </clipitem>
          <clipitem>
            <name>街ブラ恵比寿02修正文字起こし.mp4</name>
            <enabled>true</enabled>
            <in>19581.1992</in>
            <out>19744.835399999996</out>
            <start>19581.19919999997</start>
            <end>19744.835399999967</end>
            <file id="街ブラ恵比寿02修正文字起こし.mp4"/>
            <sourcetrack>
              <mediatype>audio</mediatype>
              <trackindex>1</trackindex>
            </sourcetrack>
          </clipitem>
          <clipitem>
            <name>街ブラ恵比寿02修正文字起こし.mp4</name>
            <enabled>true</enabled>
            <in>19744.8354</in>
            <out>19805.6745</out>
            <start>19744.835399999967</start>
            <end>19805.674499999965</end>
            <file id="街ブラ恵比寿02修正文字起こし.mp4"/>
            <sourcetrack>
              <mediatype>audio</mediatype>
              <trackindex>1</trackindex>
            </sourcetrack>
          </clipitem>
          <clipitem>
            <name>街ブラ恵比寿02修正文字起こし.mp4</name>
            <enabled>true</enabled>
            <in>19805.6745</in>
            <out>19893.4866</out>
            <start>19805.674499999965</start>
            <end>19893.486599999964</end>
            <file id="街ブラ恵比寿02修正文字起こし.mp4"/>
            <sourcetrack>
              <mediatype>audio</mediatype>
              <trackindex>1</trackindex>
            </sourcetrack>
          </clipitem>
          <clipitem>
            <name>街ブラ恵比寿02修正文字起こし.mp4</name>
            <enabled>true</enabled>
            <in>19893.4866</in>
            <out>20114.065800000004</out>
            <start>19893.486599999964</start>
            <end>20114.065799999968</end>
            <file id="街ブラ恵比寿02修正文字起こし.mp4"/>
            <sourcetrack>
              <mediatype>audio</mediatype>
              <trackindex>1</trackindex>
            </sourcetrack>
          </clipitem>
          <clipitem>
            <name>街ブラ恵比寿02修正文字起こし.mp4</name>
            <enabled>true</enabled>
            <in>20114.0658</in>
            <out>20244.4353</out>
            <start>20114.065799999968</start>
            <end>20244.43529999997</end>
            <file id="街ブラ恵比寿02修正文字起こし.mp4"/>
            <sourcetrack>
              <mediatype>audio</mediatype>
              <trackindex>1</trackindex>
            </sourcetrack>
          </clipitem>
          <clipitem>
            <name>街ブラ恵比寿02修正文字起こし.mp4</name>
            <enabled>true</enabled>
            <in>20244.4353</in>
            <out>20295.084600000002</out>
            <start>20244.43529999997</start>
            <end>20295.08459999997</end>
            <file id="街ブラ恵比寿02修正文字起こし.mp4"/>
            <sourcetrack>
              <mediatype>audio</mediatype>
              <trackindex>1</trackindex>
            </sourcetrack>
          </clipitem>
          <clipitem>
            <name>街ブラ恵比寿02修正文字起こし.mp4</name>
            <enabled>true</enabled>
            <in>20295.0846</in>
            <out>20531.847599999994</out>
            <start>20295.08459999997</start>
            <end>20531.847599999965</end>
            <file id="街ブラ恵比寿02修正文字起こし.mp4"/>
            <sourcetrack>
              <mediatype>audio</mediatype>
              <trackindex>1</trackindex>
            </sourcetrack>
          </clipitem>
          <clipitem>
            <name>街ブラ恵比寿02修正文字起こし.mp4</name>
            <enabled>true</enabled>
            <in>20531.8476</in>
            <out>20590.5888</out>
            <start>20531.847599999965</start>
            <end>20590.58879999997</end>
            <file id="街ブラ恵比寿02修正文字起こし.mp4"/>
            <sourcetrack>
              <mediatype>audio</mediatype>
              <trackindex>1</trackindex>
            </sourcetrack>
          </clipitem>
          <clipitem>
            <name>街ブラ恵比寿02修正文字起こし.mp4</name>
            <enabled>true</enabled>
            <in>20590.588799999998</in>
            <out>20636.742599999998</out>
            <start>20590.58879999997</start>
            <end>20636.742599999965</end>
            <file id="街ブラ恵比寿02修正文字起こし.mp4"/>
            <sourcetrack>
              <mediatype>audio</mediatype>
              <trackindex>1</trackindex>
            </sourcetrack>
          </clipitem>
          <clipitem>
            <name>街ブラ恵比寿02修正文字起こし.mp4</name>
            <enabled>true</enabled>
            <in>20636.7426</in>
            <out>20930.748300000003</out>
            <start>20636.742599999965</start>
            <end>20930.748299999967</end>
            <file id="街ブラ恵比寿02修正文字起こし.mp4"/>
            <sourcetrack>
              <mediatype>audio</mediatype>
              <trackindex>1</trackindex>
            </sourcetrack>
          </clipitem>
          <clipitem>
            <name>街ブラ恵比寿02修正文字起こし.mp4</name>
            <enabled>true</enabled>
            <in>20930.7483</in>
            <out>21412.366199999997</out>
            <start>20930.748299999967</start>
            <end>21412.366199999968</end>
            <file id="街ブラ恵比寿02修正文字起こし.mp4"/>
            <sourcetrack>
              <mediatype>audio</mediatype>
              <trackindex>1</trackindex>
            </sourcetrack>
          </clipitem>
          <clipitem>
            <name>街ブラ恵比寿02修正文字起こし.mp4</name>
            <enabled>true</enabled>
            <in>21412.3662</in>
            <out>21483.095400000002</out>
            <start>21412.366199999968</start>
            <end>21483.095399999966</end>
            <file id="街ブラ恵比寿02修正文字起こし.mp4"/>
            <sourcetrack>
              <mediatype>audio</mediatype>
              <trackindex>1</trackindex>
            </sourcetrack>
          </clipitem>
          <clipitem>
            <name>街ブラ恵比寿02修正文字起こし.mp4</name>
            <enabled>true</enabled>
            <in>21483.095400000002</in>
            <out>21581.996400000004</out>
            <start>21483.095399999966</start>
            <end>21581.996399999967</end>
            <file id="街ブラ恵比寿02修正文字起こし.mp4"/>
            <sourcetrack>
              <mediatype>audio</mediatype>
              <trackindex>1</trackindex>
            </sourcetrack>
          </clipitem>
          <clipitem>
            <name>街ブラ恵比寿02修正文字起こし.mp4</name>
            <enabled>true</enabled>
            <in>21581.9964</in>
            <out>21653.325000000008</out>
            <start>21581.996399999967</start>
            <end>21653.32499999998</end>
            <file id="街ブラ恵比寿02修正文字起こし.mp4"/>
            <sourcetrack>
              <mediatype>audio</mediatype>
              <trackindex>1</trackindex>
            </sourcetrack>
          </clipitem>
          <clipitem>
            <name>街ブラ恵比寿02修正文字起こし.mp4</name>
            <enabled>true</enabled>
            <in>21653.325</in>
            <out>21742.335900000002</out>
            <start>21653.32499999998</start>
            <end>21742.335899999984</end>
            <file id="街ブラ恵比寿02修正文字起こし.mp4"/>
            <sourcetrack>
              <mediatype>audio</mediatype>
              <trackindex>1</trackindex>
            </sourcetrack>
          </clipitem>
          <clipitem>
            <name>街ブラ恵比寿02修正文字起こし.mp4</name>
            <enabled>true</enabled>
            <in>21742.3359</in>
            <out>21804.07410000001</out>
            <start>21742.335899999984</start>
            <end>21804.07409999999</end>
            <file id="街ブラ恵比寿02修正文字起こし.mp4"/>
            <sourcetrack>
              <mediatype>audio</mediatype>
              <trackindex>1</trackindex>
            </sourcetrack>
          </clipitem>
          <clipitem>
            <name>街ブラ恵比寿02修正文字起こし.mp4</name>
            <enabled>true</enabled>
            <in>21804.074099999998</in>
            <out>21868.2099</out>
            <start>21804.07409999999</start>
            <end>21868.209899999994</end>
            <file id="街ブラ恵比寿02修正文字起こし.mp4"/>
            <sourcetrack>
              <mediatype>audio</mediatype>
              <trackindex>1</trackindex>
            </sourcetrack>
          </clipitem>
          <clipitem>
            <name>街ブラ恵比寿02修正文字起こし.mp4</name>
            <enabled>true</enabled>
            <in>21868.209899999998</in>
            <out>21931.1469</out>
            <start>21868.209899999994</start>
            <end>21931.146899999996</end>
            <file id="街ブラ恵比寿02修正文字起こし.mp4"/>
            <sourcetrack>
              <mediatype>audio</mediatype>
              <trackindex>1</trackindex>
            </sourcetrack>
          </clipitem>
          <clipitem>
            <name>街ブラ恵比寿02修正文字起こし.mp4</name>
            <enabled>true</enabled>
            <in>21931.1469</in>
            <out>22040.2377</out>
            <start>21931.146899999996</start>
            <end>22040.237699999998</end>
            <file id="街ブラ恵比寿02修正文字起こし.mp4"/>
            <sourcetrack>
              <mediatype>audio</mediatype>
              <trackindex>1</trackindex>
            </sourcetrack>
          </clipitem>
          <clipitem>
            <name>街ブラ恵比寿02修正文字起こし.mp4</name>
            <enabled>true</enabled>
            <in>22040.237699999998</in>
            <out>22129.5483</out>
            <start>22040.237699999998</start>
            <end>22129.5483</end>
            <file id="街ブラ恵比寿02修正文字起こし.mp4"/>
            <sourcetrack>
              <mediatype>audio</mediatype>
              <trackindex>1</trackindex>
            </sourcetrack>
          </clipitem>
          <clipitem>
            <name>街ブラ恵比寿02修正文字起こし.mp4</name>
            <enabled>true</enabled>
            <in>22129.5483</in>
            <out>22166.1117</out>
            <start>22129.5483</start>
            <end>22166.1117</end>
            <file id="街ブラ恵比寿02修正文字起こし.mp4"/>
            <sourcetrack>
              <mediatype>audio</mediatype>
              <trackindex>1</trackindex>
            </sourcetrack>
          </clipitem>
        </track>
        <track>
          <clipitem>
            <name>街ブラ恵比寿02修正文字起こし.mp4</name>
            <enabled>true</enabled>
            <in>0</in>
            <out>150.7491</out>
            <start>0</start>
            <end>150.7491</end>
            <file id="街ブラ恵比寿02修正文字起こし.mp4"/>
            <sourcetrack>
              <mediatype>audio</mediatype>
              <trackindex>2</trackindex>
            </sourcetrack>
          </clipitem>
          <clipitem>
            <name>街ブラ恵比寿02修正文字起こし.mp4</name>
            <enabled>true</enabled>
            <in>150.7491</in>
            <out>287.712</out>
            <start>150.7491</start>
            <end>287.712</end>
            <file id="街ブラ恵比寿02修正文字起こし.mp4"/>
            <sourcetrack>
              <mediatype>audio</mediatype>
              <trackindex>2</trackindex>
            </sourcetrack>
          </clipitem>
          <clipitem>
            <name>街ブラ恵比寿02修正文字起こし.mp4</name>
            <enabled>true</enabled>
            <in>287.712</in>
            <out>362.9366999999999</out>
            <start>287.712</start>
            <end>362.9366999999999</end>
            <file id="街ブラ恵比寿02修正文字起こし.mp4"/>
            <sourcetrack>
              <mediatype>audio</mediatype>
              <trackindex>2</trackindex>
            </sourcetrack>
          </clipitem>
          <clipitem>
            <name>街ブラ恵比寿02修正文字起こし.mp4</name>
            <enabled>true</enabled>
            <in>362.9367</in>
            <out>424.0754999999999</out>
            <start>362.9366999999999</start>
            <end>424.07549999999986</end>
            <file id="街ブラ恵比寿02修正文字起こし.mp4"/>
            <sourcetrack>
              <mediatype>audio</mediatype>
              <trackindex>2</trackindex>
            </sourcetrack>
          </clipitem>
          <clipitem>
            <name>街ブラ恵比寿02修正文字起こし.mp4</name>
            <enabled>true</enabled>
            <in>424.0755</in>
            <out>741.4577999999999</out>
            <start>424.07549999999986</start>
            <end>741.4577999999998</end>
            <file id="街ブラ恵比寿02修正文字起こし.mp4"/>
            <sourcetrack>
              <mediatype>audio</mediatype>
              <trackindex>2</trackindex>
            </sourcetrack>
          </clipitem>
          <clipitem>
            <name>街ブラ恵比寿02修正文字起こし.mp4</name>
            <enabled>true</enabled>
            <in>741.4577999999999</in>
            <out>824.4747</out>
            <start>741.4577999999998</start>
            <end>824.4746999999999</end>
            <file id="街ブラ恵比寿02修正文字起こし.mp4"/>
            <sourcetrack>
              <mediatype>audio</mediatype>
              <trackindex>2</trackindex>
            </sourcetrack>
          </clipitem>
          <clipitem>
            <name>街ブラ恵比寿02修正文字起こし.mp4</name>
            <enabled>true</enabled>
            <in>824.4747</in>
            <out>871.5276</out>
            <start>824.4746999999999</start>
            <end>871.5275999999999</end>
            <file id="街ブラ恵比寿02修正文字起こし.mp4"/>
            <sourcetrack>
              <mediatype>audio</mediatype>
              <trackindex>2</trackindex>
            </sourcetrack>
          </clipitem>
          <clipitem>
            <name>街ブラ恵比寿02修正文字起こし.mp4</name>
            <enabled>true</enabled>
            <in>871.5275999999999</in>
            <out>1139.4594000000002</out>
            <start>871.5275999999999</start>
            <end>1139.4594000000002</end>
            <file id="街ブラ恵比寿02修正文字起こし.mp4"/>
            <sourcetrack>
              <mediatype>audio</mediatype>
              <trackindex>2</trackindex>
            </sourcetrack>
          </clipitem>
          <clipitem>
            <name>街ブラ恵比寿02修正文字起こし.mp4</name>
            <enabled>true</enabled>
            <in>1139.4594</in>
            <out>1272.8258999999998</out>
            <start>1139.4594000000002</start>
            <end>1272.8259</end>
            <file id="街ブラ恵比寿02修正文字起こし.mp4"/>
            <sourcetrack>
              <mediatype>audio</mediatype>
              <trackindex>2</trackindex>
            </sourcetrack>
          </clipitem>
          <clipitem>
            <name>街ブラ恵比寿02修正文字起こし.mp4</name>
            <enabled>true</enabled>
            <in>1272.8258999999998</in>
            <out>1405.8927</out>
            <start>1272.8259</start>
            <end>1405.8927000000003</end>
            <file id="街ブラ恵比寿02修正文字起こし.mp4"/>
            <sourcetrack>
              <mediatype>audio</mediatype>
              <trackindex>2</trackindex>
            </sourcetrack>
          </clipitem>
          <clipitem>
            <name>街ブラ恵比寿02修正文字起こし.mp4</name>
            <enabled>true</enabled>
            <in>1405.8926999999999</in>
            <out>1443.3551999999997</out>
            <start>1405.8927000000003</start>
            <end>1443.3552000000002</end>
            <file id="街ブラ恵比寿02修正文字起こし.mp4"/>
            <sourcetrack>
              <mediatype>audio</mediatype>
              <trackindex>2</trackindex>
            </sourcetrack>
          </clipitem>
          <clipitem>
            <name>街ブラ恵比寿02修正文字起こし.mp4</name>
            <enabled>true</enabled>
            <in>1443.3551999999997</in>
            <out>1624.0743</out>
            <start>1443.3552000000002</start>
            <end>1624.0743000000004</end>
            <file id="街ブラ恵比寿02修正文字起こし.mp4"/>
            <sourcetrack>
              <mediatype>audio</mediatype>
              <trackindex>2</trackindex>
            </sourcetrack>
          </clipitem>
          <clipitem>
            <name>街ブラ恵比寿02修正文字起こし.mp4</name>
            <enabled>true</enabled>
            <in>1624.0742999999998</in>
            <out>1760.1381000000001</out>
            <start>1624.0743000000004</start>
            <end>1760.1381000000008</end>
            <file id="街ブラ恵比寿02修正文字起こし.mp4"/>
            <sourcetrack>
              <mediatype>audio</mediatype>
              <trackindex>2</trackindex>
            </sourcetrack>
          </clipitem>
          <clipitem>
            <name>街ブラ恵比寿02修正文字起こし.mp4</name>
            <enabled>true</enabled>
            <in>1760.1381</in>
            <out>1909.3887000000002</out>
            <start>1760.1381000000008</start>
            <end>1909.388700000001</end>
            <file id="街ブラ恵比寿02修正文字起こし.mp4"/>
            <sourcetrack>
              <mediatype>audio</mediatype>
              <trackindex>2</trackindex>
            </sourcetrack>
          </clipitem>
          <clipitem>
            <name>街ブラ恵比寿02修正文字起こし.mp4</name>
            <enabled>true</enabled>
            <in>1909.3887</in>
            <out>2031.966</out>
            <start>1909.388700000001</start>
            <end>2031.966000000001</end>
            <file id="街ブラ恵比寿02修正文字起こし.mp4"/>
            <sourcetrack>
              <mediatype>audio</mediatype>
              <trackindex>2</trackindex>
            </sourcetrack>
          </clipitem>
          <clipitem>
            <name>街ブラ恵比寿02修正文字起こし.mp4</name>
            <enabled>true</enabled>
            <in>2031.966</in>
            <out>2317.879800000001</out>
            <start>2031.966000000001</start>
            <end>2317.879800000002</end>
            <file id="街ブラ恵比寿02修正文字起こし.mp4"/>
            <sourcetrack>
              <mediatype>audio</mediatype>
              <trackindex>2</trackindex>
            </sourcetrack>
          </clipitem>
          <clipitem>
            <name>街ブラ恵比寿02修正文字起こし.mp4</name>
            <enabled>true</enabled>
            <in>2317.8798</in>
            <out>2377.8198</out>
            <start>2317.879800000002</start>
            <end>2377.819800000002</end>
            <file id="街ブラ恵比寿02修正文字起こし.mp4"/>
            <sourcetrack>
              <mediatype>audio</mediatype>
              <trackindex>2</trackindex>
            </sourcetrack>
          </clipitem>
          <clipitem>
            <name>街ブラ恵比寿02修正文字起こし.mp4</name>
            <enabled>true</enabled>
            <in>2377.8198</in>
            <out>2458.1394</out>
            <start>2377.819800000002</start>
            <end>2458.1394000000023</end>
            <file id="街ブラ恵比寿02修正文字起こし.mp4"/>
            <sourcetrack>
              <mediatype>audio</mediatype>
              <trackindex>2</trackindex>
            </sourcetrack>
          </clipitem>
          <clipitem>
            <name>街ブラ恵比寿02修正文字起こし.mp4</name>
            <enabled>true</enabled>
            <in>2458.1393999999996</in>
            <out>2548.9484999999995</out>
            <start>2458.1394000000023</start>
            <end>2548.948500000002</end>
            <file id="街ブラ恵比寿02修正文字起こし.mp4"/>
            <sourcetrack>
              <mediatype>audio</mediatype>
              <trackindex>2</trackindex>
            </sourcetrack>
          </clipitem>
          <clipitem>
            <name>街ブラ恵比寿02修正文字起こし.mp4</name>
            <enabled>true</enabled>
            <in>2548.9485</in>
            <out>2720.6765999999993</out>
            <start>2548.948500000002</start>
            <end>2720.6766000000016</end>
            <file id="街ブラ恵比寿02修正文字起こし.mp4"/>
            <sourcetrack>
              <mediatype>audio</mediatype>
              <trackindex>2</trackindex>
            </sourcetrack>
          </clipitem>
          <clipitem>
            <name>街ブラ恵比寿02修正文字起こし.mp4</name>
            <enabled>true</enabled>
            <in>2720.6766</in>
            <out>2805.192</out>
            <start>2720.6766000000016</start>
            <end>2805.192000000002</end>
            <file id="街ブラ恵比寿02修正文字起こし.mp4"/>
            <sourcetrack>
              <mediatype>audio</mediatype>
              <trackindex>2</trackindex>
            </sourcetrack>
          </clipitem>
          <clipitem>
            <name>街ブラ恵比寿02修正文字起こし.mp4</name>
            <enabled>true</enabled>
            <in>2805.1919999999996</in>
            <out>2895.7014000000004</out>
            <start>2805.192000000002</start>
            <end>2895.7014000000026</end>
            <file id="街ブラ恵比寿02修正文字起こし.mp4"/>
            <sourcetrack>
              <mediatype>audio</mediatype>
              <trackindex>2</trackindex>
            </sourcetrack>
          </clipitem>
          <clipitem>
            <name>街ブラ恵比寿02修正文字起こし.mp4</name>
            <enabled>true</enabled>
            <in>2895.7014</in>
            <out>2943.6533999999997</out>
            <start>2895.7014000000026</start>
            <end>2943.6534000000024</end>
            <file id="街ブラ恵比寿02修正文字起こし.mp4"/>
            <sourcetrack>
              <mediatype>audio</mediatype>
              <trackindex>2</trackindex>
            </sourcetrack>
          </clipitem>
          <clipitem>
            <name>街ブラ恵比寿02修正文字起こし.mp4</name>
            <enabled>true</enabled>
            <in>2943.6533999999997</in>
            <out>3019.7772</out>
            <start>2943.6534000000024</start>
            <end>3019.7772000000027</end>
            <file id="街ブラ恵比寿02修正文字起こし.mp4"/>
            <sourcetrack>
              <mediatype>audio</mediatype>
              <trackindex>2</trackindex>
            </sourcetrack>
          </clipitem>
          <clipitem>
            <name>街ブラ恵比寿02修正文字起こし.mp4</name>
            <enabled>true</enabled>
            <in>3019.7772</in>
            <out>3077.6193</out>
            <start>3019.7772000000027</start>
            <end>3077.6193000000026</end>
            <file id="街ブラ恵比寿02修正文字起こし.mp4"/>
            <sourcetrack>
              <mediatype>audio</mediatype>
              <trackindex>2</trackindex>
            </sourcetrack>
          </clipitem>
          <clipitem>
            <name>街ブラ恵比寿02修正文字起こし.mp4</name>
            <enabled>true</enabled>
            <in>3077.6193</in>
            <out>3145.6512</out>
            <start>3077.6193000000026</start>
            <end>3145.651200000002</end>
            <file id="街ブラ恵比寿02修正文字起こし.mp4"/>
            <sourcetrack>
              <mediatype>audio</mediatype>
              <trackindex>2</trackindex>
            </sourcetrack>
          </clipitem>
          <clipitem>
            <name>街ブラ恵比寿02修正文字起こし.mp4</name>
            <enabled>true</enabled>
            <in>3145.6512</in>
            <out>3262.234499999999</out>
            <start>3145.651200000002</start>
            <end>3262.234500000002</end>
            <file id="街ブラ恵比寿02修正文字起こし.mp4"/>
            <sourcetrack>
              <mediatype>audio</mediatype>
              <trackindex>2</trackindex>
            </sourcetrack>
          </clipitem>
          <clipitem>
            <name>街ブラ恵比寿02修正文字起こし.mp4</name>
            <enabled>true</enabled>
            <in>3262.2344999999996</in>
            <out>3286.2104999999992</out>
            <start>3262.234500000002</start>
            <end>3286.2105000000015</end>
            <file id="街ブラ恵比寿02修正文字起こし.mp4"/>
            <sourcetrack>
              <mediatype>audio</mediatype>
              <trackindex>2</trackindex>
            </sourcetrack>
          </clipitem>
          <clipitem>
            <name>街ブラ恵比寿02修正文字起こし.mp4</name>
            <enabled>true</enabled>
            <in>3286.2105</in>
            <out>3341.6549999999997</out>
            <start>3286.2105000000015</start>
            <end>3341.655000000001</end>
            <file id="街ブラ恵比寿02修正文字起こし.mp4"/>
            <sourcetrack>
              <mediatype>audio</mediatype>
              <trackindex>2</trackindex>
            </sourcetrack>
          </clipitem>
          <clipitem>
            <name>街ブラ恵比寿02修正文字起こし.mp4</name>
            <enabled>true</enabled>
            <in>3341.6549999999997</in>
            <out>3380.0165999999995</out>
            <start>3341.655000000001</start>
            <end>3380.016600000001</end>
            <file id="街ブラ恵比寿02修正文字起こし.mp4"/>
            <sourcetrack>
              <mediatype>audio</mediatype>
              <trackindex>2</trackindex>
            </sourcetrack>
          </clipitem>
          <clipitem>
            <name>街ブラ恵比寿02修正文字起こし.mp4</name>
            <enabled>true</enabled>
            <in>3380.0166</in>
            <out>3414.1824</out>
            <start>3380.016600000001</start>
            <end>3414.1824000000006</end>
            <file id="街ブラ恵比寿02修正文字起こし.mp4"/>
            <sourcetrack>
              <mediatype>audio</mediatype>
              <trackindex>2</trackindex>
            </sourcetrack>
          </clipitem>
          <clipitem>
            <name>街ブラ恵比寿02修正文字起こし.mp4</name>
            <enabled>true</enabled>
            <in>3414.1824</in>
            <out>3445.3511999999996</out>
            <start>3414.1824000000006</start>
            <end>3445.3512000000005</end>
            <file id="街ブラ恵比寿02修正文字起こし.mp4"/>
            <sourcetrack>
              <mediatype>audio</mediatype>
              <trackindex>2</trackindex>
            </sourcetrack>
          </clipitem>
          <clipitem>
            <name>街ブラ恵比寿02修正文字起こし.mp4</name>
            <enabled>true</enabled>
            <in>3445.3511999999996</in>
            <out>3602.6937000000003</out>
            <start>3445.3512000000005</start>
            <end>3602.693700000001</end>
            <file id="街ブラ恵比寿02修正文字起こし.mp4"/>
            <sourcetrack>
              <mediatype>audio</mediatype>
              <trackindex>2</trackindex>
            </sourcetrack>
          </clipitem>
          <clipitem>
            <name>街ブラ恵比寿02修正文字起こし.mp4</name>
            <enabled>true</enabled>
            <in>3602.6937</in>
            <out>3648.8474999999994</out>
            <start>3602.693700000001</start>
            <end>3648.8475000000008</end>
            <file id="街ブラ恵比寿02修正文字起こし.mp4"/>
            <sourcetrack>
              <mediatype>audio</mediatype>
              <trackindex>2</trackindex>
            </sourcetrack>
          </clipitem>
          <clipitem>
            <name>街ブラ恵比寿02修正文字起こし.mp4</name>
            <enabled>true</enabled>
            <in>3648.8475</in>
            <out>3764.831399999999</out>
            <start>3648.8475000000008</start>
            <end>3764.8314</end>
            <file id="街ブラ恵比寿02修正文字起こし.mp4"/>
            <sourcetrack>
              <mediatype>audio</mediatype>
              <trackindex>2</trackindex>
            </sourcetrack>
          </clipitem>
          <clipitem>
            <name>街ブラ恵比寿02修正文字起こし.mp4</name>
            <enabled>true</enabled>
            <in>3764.8314</in>
            <out>3879.3167999999996</out>
            <start>3764.8314</start>
            <end>3879.3167999999996</end>
            <file id="街ブラ恵比寿02修正文字起こし.mp4"/>
            <sourcetrack>
              <mediatype>audio</mediatype>
              <trackindex>2</trackindex>
            </sourcetrack>
          </clipitem>
          <clipitem>
            <name>街ブラ恵比寿02修正文字起こし.mp4</name>
            <enabled>true</enabled>
            <in>3879.3167999999996</in>
            <out>3966.229799999999</out>
            <start>3879.3167999999996</start>
            <end>3966.229799999999</end>
            <file id="街ブラ恵比寿02修正文字起こし.mp4"/>
            <sourcetrack>
              <mediatype>audio</mediatype>
              <trackindex>2</trackindex>
            </sourcetrack>
          </clipitem>
          <clipitem>
            <name>街ブラ恵比寿02修正文字起こし.mp4</name>
            <enabled>true</enabled>
            <in>3966.2298</in>
            <out>3991.4046</out>
            <start>3966.229799999999</start>
            <end>3991.4045999999994</end>
            <file id="街ブラ恵比寿02修正文字起こし.mp4"/>
            <sourcetrack>
              <mediatype>audio</mediatype>
              <trackindex>2</trackindex>
            </sourcetrack>
          </clipitem>
          <clipitem>
            <name>街ブラ恵比寿02修正文字起こし.mp4</name>
            <enabled>true</enabled>
            <in>3991.4046</in>
            <out>4076.519400000001</out>
            <start>3991.4045999999994</start>
            <end>4076.5194</end>
            <file id="街ブラ恵比寿02修正文字起こし.mp4"/>
            <sourcetrack>
              <mediatype>audio</mediatype>
              <trackindex>2</trackindex>
            </sourcetrack>
          </clipitem>
          <clipitem>
            <name>街ブラ恵比寿02修正文字起こし.mp4</name>
            <enabled>true</enabled>
            <in>4076.5194</in>
            <out>4152.942899999999</out>
            <start>4076.5194</start>
            <end>4152.942899999999</end>
            <file id="街ブラ恵比寿02修正文字起こし.mp4"/>
            <sourcetrack>
              <mediatype>audio</mediatype>
              <trackindex>2</trackindex>
            </sourcetrack>
          </clipitem>
          <clipitem>
            <name>街ブラ恵比寿02修正文字起こし.mp4</name>
            <enabled>true</enabled>
            <in>4152.9429</in>
            <out>4253.042700000001</out>
            <start>4152.942899999999</start>
            <end>4253.0427</end>
            <file id="街ブラ恵比寿02修正文字起こし.mp4"/>
            <sourcetrack>
              <mediatype>audio</mediatype>
              <trackindex>2</trackindex>
            </sourcetrack>
          </clipitem>
          <clipitem>
            <name>街ブラ恵比寿02修正文字起こし.mp4</name>
            <enabled>true</enabled>
            <in>4253.0427</in>
            <out>4411.284300000001</out>
            <start>4253.0427</start>
            <end>4411.284300000001</end>
            <file id="街ブラ恵比寿02修正文字起こし.mp4"/>
            <sourcetrack>
              <mediatype>audio</mediatype>
              <trackindex>2</trackindex>
            </sourcetrack>
          </clipitem>
          <clipitem>
            <name>街ブラ恵比寿02修正文字起こし.mp4</name>
            <enabled>true</enabled>
            <in>4411.284299999999</in>
            <out>4682.2131</out>
            <start>4411.284300000001</start>
            <end>4682.213100000001</end>
            <file id="街ブラ恵比寿02修正文字起こし.mp4"/>
            <sourcetrack>
              <mediatype>audio</mediatype>
              <trackindex>2</trackindex>
            </sourcetrack>
          </clipitem>
          <clipitem>
            <name>街ブラ恵比寿02修正文字起こし.mp4</name>
            <enabled>true</enabled>
            <in>4682.2131</in>
            <out>4748.746499999999</out>
            <start>4682.213100000001</start>
            <end>4748.746500000001</end>
            <file id="街ブラ恵比寿02修正文字起こし.mp4"/>
            <sourcetrack>
              <mediatype>audio</mediatype>
              <trackindex>2</trackindex>
            </sourcetrack>
          </clipitem>
          <clipitem>
            <name>街ブラ恵比寿02修正文字起こし.mp4</name>
            <enabled>true</enabled>
            <in>4748.746499999999</in>
            <out>5004.390600000001</out>
            <start>4748.746500000001</start>
            <end>5004.390600000002</end>
            <file id="街ブラ恵比寿02修正文字起こし.mp4"/>
            <sourcetrack>
              <mediatype>audio</mediatype>
              <trackindex>2</trackindex>
            </sourcetrack>
          </clipitem>
          <clipitem>
            <name>街ブラ恵比寿02修正文字起こし.mp4</name>
            <enabled>true</enabled>
            <in>5004.3906</in>
            <out>5151.5433</out>
            <start>5004.390600000002</start>
            <end>5151.543300000003</end>
            <file id="街ブラ恵比寿02修正文字起こし.mp4"/>
            <sourcetrack>
              <mediatype>audio</mediatype>
              <trackindex>2</trackindex>
            </sourcetrack>
          </clipitem>
          <clipitem>
            <name>街ブラ恵比寿02修正文字起こし.mp4</name>
            <enabled>true</enabled>
            <in>5151.543299999999</in>
            <out>5229.465299999999</out>
            <start>5151.543300000003</start>
            <end>5229.465300000003</end>
            <file id="街ブラ恵比寿02修正文字起こし.mp4"/>
            <sourcetrack>
              <mediatype>audio</mediatype>
              <trackindex>2</trackindex>
            </sourcetrack>
          </clipitem>
          <clipitem>
            <name>街ブラ恵比寿02修正文字起こし.mp4</name>
            <enabled>true</enabled>
            <in>5229.4653</in>
            <out>5296.598100000001</out>
            <start>5229.465300000003</start>
            <end>5296.598100000004</end>
            <file id="街ブラ恵比寿02修正文字起こし.mp4"/>
            <sourcetrack>
              <mediatype>audio</mediatype>
              <trackindex>2</trackindex>
            </sourcetrack>
          </clipitem>
          <clipitem>
            <name>街ブラ恵比寿02修正文字起こし.mp4</name>
            <enabled>true</enabled>
            <in>5296.598099999999</in>
            <out>5348.446199999999</out>
            <start>5296.598100000004</start>
            <end>5348.446200000003</end>
            <file id="街ブラ恵比寿02修正文字起こし.mp4"/>
            <sourcetrack>
              <mediatype>audio</mediatype>
              <trackindex>2</trackindex>
            </sourcetrack>
          </clipitem>
          <clipitem>
            <name>街ブラ恵比寿02修正文字起こし.mp4</name>
            <enabled>true</enabled>
            <in>5348.4462</in>
            <out>5429.9646</out>
            <start>5348.446200000003</start>
            <end>5429.964600000003</end>
            <file id="街ブラ恵比寿02修正文字起こし.mp4"/>
            <sourcetrack>
              <mediatype>audio</mediatype>
              <trackindex>2</trackindex>
            </sourcetrack>
          </clipitem>
          <clipitem>
            <name>街ブラ恵比寿02修正文字起こし.mp4</name>
            <enabled>true</enabled>
            <in>5429.9646</in>
            <out>5474.919599999999</out>
            <start>5429.964600000003</start>
            <end>5474.919600000003</end>
            <file id="街ブラ恵比寿02修正文字起こし.mp4"/>
            <sourcetrack>
              <mediatype>audio</mediatype>
              <trackindex>2</trackindex>
            </sourcetrack>
          </clipitem>
          <clipitem>
            <name>街ブラ恵比寿02修正文字起こし.mp4</name>
            <enabled>true</enabled>
            <in>5474.9196</in>
            <out>5617.576799999998</out>
            <start>5474.919600000003</start>
            <end>5617.576800000001</end>
            <file id="街ブラ恵比寿02修正文字起こし.mp4"/>
            <sourcetrack>
              <mediatype>audio</mediatype>
              <trackindex>2</trackindex>
            </sourcetrack>
          </clipitem>
          <clipitem>
            <name>街ブラ恵比寿02修正文字起こし.mp4</name>
            <enabled>true</enabled>
            <in>5617.5768</in>
            <out>5693.4009</out>
            <start>5617.576800000001</start>
            <end>5693.400900000001</end>
            <file id="街ブラ恵比寿02修正文字起こし.mp4"/>
            <sourcetrack>
              <mediatype>audio</mediatype>
              <trackindex>2</trackindex>
            </sourcetrack>
          </clipitem>
          <clipitem>
            <name>街ブラ恵比寿02修正文字起こし.mp4</name>
            <enabled>true</enabled>
            <in>5693.4009</in>
            <out>5787.206999999999</out>
            <start>5693.400900000001</start>
            <end>5787.207</end>
            <file id="街ブラ恵比寿02修正文字起こし.mp4"/>
            <sourcetrack>
              <mediatype>audio</mediatype>
              <trackindex>2</trackindex>
            </sourcetrack>
          </clipitem>
          <clipitem>
            <name>街ブラ恵比寿02修正文字起こし.mp4</name>
            <enabled>true</enabled>
            <in>5787.206999999999</in>
            <out>5823.170999999999</out>
            <start>5787.207</start>
            <end>5823.171</end>
            <file id="街ブラ恵比寿02修正文字起こし.mp4"/>
            <sourcetrack>
              <mediatype>audio</mediatype>
              <trackindex>2</trackindex>
            </sourcetrack>
          </clipitem>
          <clipitem>
            <name>街ブラ恵比寿02修正文字起こし.mp4</name>
            <enabled>true</enabled>
            <in>5823.171</in>
            <out>6072.5214000000005</out>
            <start>5823.171</start>
            <end>6072.5214000000005</end>
            <file id="街ブラ恵比寿02修正文字起こし.mp4"/>
            <sourcetrack>
              <mediatype>audio</mediatype>
              <trackindex>2</trackindex>
            </sourcetrack>
          </clipitem>
          <clipitem>
            <name>街ブラ恵比寿02修正文字起こし.mp4</name>
            <enabled>true</enabled>
            <in>6072.5214</in>
            <out>6121.072799999998</out>
            <start>6072.5214000000005</start>
            <end>6121.072799999999</end>
            <file id="街ブラ恵比寿02修正文字起こし.mp4"/>
            <sourcetrack>
              <mediatype>audio</mediatype>
              <trackindex>2</trackindex>
            </sourcetrack>
          </clipitem>
          <clipitem>
            <name>街ブラ恵比寿02修正文字起こし.mp4</name>
            <enabled>true</enabled>
            <in>6121.0728</in>
            <out>6163.0307999999995</out>
            <start>6121.072799999999</start>
            <end>6163.030799999999</end>
            <file id="街ブラ恵比寿02修正文字起こし.mp4"/>
            <sourcetrack>
              <mediatype>audio</mediatype>
              <trackindex>2</trackindex>
            </sourcetrack>
          </clipitem>
          <clipitem>
            <name>街ブラ恵比寿02修正文字起こし.mp4</name>
            <enabled>true</enabled>
            <in>6163.0307999999995</in>
            <out>6223.5702</out>
            <start>6163.030799999999</start>
            <end>6223.570199999999</end>
            <file id="街ブラ恵比寿02修正文字起こし.mp4"/>
            <sourcetrack>
              <mediatype>audio</mediatype>
              <trackindex>2</trackindex>
            </sourcetrack>
          </clipitem>
          <clipitem>
            <name>街ブラ恵比寿02修正文字起こし.mp4</name>
            <enabled>true</enabled>
            <in>6223.5702</in>
            <out>6360.5331</out>
            <start>6223.570199999999</start>
            <end>6360.533099999999</end>
            <file id="街ブラ恵比寿02修正文字起こし.mp4"/>
            <sourcetrack>
              <mediatype>audio</mediatype>
              <trackindex>2</trackindex>
            </sourcetrack>
          </clipitem>
          <clipitem>
            <name>街ブラ恵比寿02修正文字起こし.mp4</name>
            <enabled>true</enabled>
            <in>6360.5331</in>
            <out>6477.715800000001</out>
            <start>6360.533099999999</start>
            <end>6477.7158</end>
            <file id="街ブラ恵比寿02修正文字起こし.mp4"/>
            <sourcetrack>
              <mediatype>audio</mediatype>
              <trackindex>2</trackindex>
            </sourcetrack>
          </clipitem>
          <clipitem>
            <name>街ブラ恵比寿02修正文字起こし.mp4</name>
            <enabled>true</enabled>
            <in>6477.715799999999</in>
            <out>6585.607799999999</out>
            <start>6477.7158</start>
            <end>6585.6078</end>
            <file id="街ブラ恵比寿02修正文字起こし.mp4"/>
            <sourcetrack>
              <mediatype>audio</mediatype>
              <trackindex>2</trackindex>
            </sourcetrack>
          </clipitem>
          <clipitem>
            <name>街ブラ恵比寿02修正文字起こし.mp4</name>
            <enabled>true</enabled>
            <in>6585.6078</in>
            <out>6677.915400000001</out>
            <start>6585.6078</start>
            <end>6677.915400000001</end>
            <file id="街ブラ恵比寿02修正文字起こし.mp4"/>
            <sourcetrack>
              <mediatype>audio</mediatype>
              <trackindex>2</trackindex>
            </sourcetrack>
          </clipitem>
          <clipitem>
            <name>街ブラ恵比寿02修正文字起こし.mp4</name>
            <enabled>true</enabled>
            <in>6677.9154</in>
            <out>6849.6435</out>
            <start>6677.915400000001</start>
            <end>6849.643500000001</end>
            <file id="街ブラ恵比寿02修正文字起こし.mp4"/>
            <sourcetrack>
              <mediatype>audio</mediatype>
              <trackindex>2</trackindex>
            </sourcetrack>
          </clipitem>
          <clipitem>
            <name>街ブラ恵比寿02修正文字起こし.mp4</name>
            <enabled>true</enabled>
            <in>6849.6435</in>
            <out>6927.2658</out>
            <start>6849.643500000001</start>
            <end>6927.265800000001</end>
            <file id="街ブラ恵比寿02修正文字起こし.mp4"/>
            <sourcetrack>
              <mediatype>audio</mediatype>
              <trackindex>2</trackindex>
            </sourcetrack>
          </clipitem>
          <clipitem>
            <name>街ブラ恵比寿02修正文字起こし.mp4</name>
            <enabled>true</enabled>
            <in>6927.265799999999</in>
            <out>6961.731299999999</out>
            <start>6927.265800000001</start>
            <end>6961.7313</end>
            <file id="街ブラ恵比寿02修正文字起こし.mp4"/>
            <sourcetrack>
              <mediatype>audio</mediatype>
              <trackindex>2</trackindex>
            </sourcetrack>
          </clipitem>
          <clipitem>
            <name>街ブラ恵比寿02修正文字起こし.mp4</name>
            <enabled>true</enabled>
            <in>6961.7312999999995</in>
            <out>7223.9688</out>
            <start>6961.7313</start>
            <end>7223.968800000001</end>
            <file id="街ブラ恵比寿02修正文字起こし.mp4"/>
            <sourcetrack>
              <mediatype>audio</mediatype>
              <trackindex>2</trackindex>
            </sourcetrack>
          </clipitem>
          <clipitem>
            <name>街ブラ恵比寿02修正文字起こし.mp4</name>
            <enabled>true</enabled>
            <in>7223.9688</in>
            <out>7309.982699999999</out>
            <start>7223.968800000001</start>
            <end>7309.9827</end>
            <file id="街ブラ恵比寿02修正文字起こし.mp4"/>
            <sourcetrack>
              <mediatype>audio</mediatype>
              <trackindex>2</trackindex>
            </sourcetrack>
          </clipitem>
          <clipitem>
            <name>街ブラ恵比寿02修正文字起こし.mp4</name>
            <enabled>true</enabled>
            <in>7309.9827</in>
            <out>7330.961700000001</out>
            <start>7309.9827</start>
            <end>7330.961700000001</end>
            <file id="街ブラ恵比寿02修正文字起こし.mp4"/>
            <sourcetrack>
              <mediatype>audio</mediatype>
              <trackindex>2</trackindex>
            </sourcetrack>
          </clipitem>
          <clipitem>
            <name>街ブラ恵比寿02修正文字起こし.mp4</name>
            <enabled>true</enabled>
            <in>7330.9617</in>
            <out>7347.744900000001</out>
            <start>7330.961700000001</start>
            <end>7347.744900000001</end>
            <file id="街ブラ恵比寿02修正文字起こし.mp4"/>
            <sourcetrack>
              <mediatype>audio</mediatype>
              <trackindex>2</trackindex>
            </sourcetrack>
          </clipitem>
          <clipitem>
            <name>街ブラ恵比寿02修正文字起こし.mp4</name>
            <enabled>true</enabled>
            <in>7347.7449</in>
            <out>7414.278299999998</out>
            <start>7347.744900000001</start>
            <end>7414.2783</end>
            <file id="街ブラ恵比寿02修正文字起こし.mp4"/>
            <sourcetrack>
              <mediatype>audio</mediatype>
              <trackindex>2</trackindex>
            </sourcetrack>
          </clipitem>
          <clipitem>
            <name>街ブラ恵比寿02修正文字起こし.mp4</name>
            <enabled>true</enabled>
            <in>7414.278299999999</in>
            <out>7474.2182999999995</out>
            <start>7414.2783</start>
            <end>7474.2183</end>
            <file id="街ブラ恵比寿02修正文字起こし.mp4"/>
            <sourcetrack>
              <mediatype>audio</mediatype>
              <trackindex>2</trackindex>
            </sourcetrack>
          </clipitem>
          <clipitem>
            <name>街ブラ恵比寿02修正文字起こし.mp4</name>
            <enabled>true</enabled>
            <in>7474.2182999999995</in>
            <out>7523.0694</out>
            <start>7474.2183</start>
            <end>7523.069400000001</end>
            <file id="街ブラ恵比寿02修正文字起こし.mp4"/>
            <sourcetrack>
              <mediatype>audio</mediatype>
              <trackindex>2</trackindex>
            </sourcetrack>
          </clipitem>
          <clipitem>
            <name>街ブラ恵比寿02修正文字起こし.mp4</name>
            <enabled>true</enabled>
            <in>7523.0694</in>
            <out>7604.587799999999</out>
            <start>7523.069400000001</start>
            <end>7604.5878</end>
            <file id="街ブラ恵比寿02修正文字起こし.mp4"/>
            <sourcetrack>
              <mediatype>audio</mediatype>
              <trackindex>2</trackindex>
            </sourcetrack>
          </clipitem>
          <clipitem>
            <name>街ブラ恵比寿02修正文字起こし.mp4</name>
            <enabled>true</enabled>
            <in>7604.5878</in>
            <out>7838.3538</out>
            <start>7604.5878</start>
            <end>7838.3538</end>
            <file id="街ブラ恵比寿02修正文字起こし.mp4"/>
            <sourcetrack>
              <mediatype>audio</mediatype>
              <trackindex>2</trackindex>
            </sourcetrack>
          </clipitem>
          <clipitem>
            <name>街ブラ恵比寿02修正文字起こし.mp4</name>
            <enabled>true</enabled>
            <in>7838.3538</in>
            <out>8019.072900000003</out>
            <start>7838.3538</start>
            <end>8019.072900000003</end>
            <file id="街ブラ恵比寿02修正文字起こし.mp4"/>
            <sourcetrack>
              <mediatype>audio</mediatype>
              <trackindex>2</trackindex>
            </sourcetrack>
          </clipitem>
          <clipitem>
            <name>街ブラ恵比寿02修正文字起こし.mp4</name>
            <enabled>true</enabled>
            <in>8019.072899999999</in>
            <out>8172.8189999999995</out>
            <start>8019.072900000003</start>
            <end>8172.819000000003</end>
            <file id="街ブラ恵比寿02修正文字起こし.mp4"/>
            <sourcetrack>
              <mediatype>audio</mediatype>
              <trackindex>2</trackindex>
            </sourcetrack>
          </clipitem>
          <clipitem>
            <name>街ブラ恵比寿02修正文字起こし.mp4</name>
            <enabled>true</enabled>
            <in>8172.8189999999995</in>
            <out>8298.393300000002</out>
            <start>8172.819000000003</start>
            <end>8298.393300000005</end>
            <file id="街ブラ恵比寿02修正文字起こし.mp4"/>
            <sourcetrack>
              <mediatype>audio</mediatype>
              <trackindex>2</trackindex>
            </sourcetrack>
          </clipitem>
          <clipitem>
            <name>街ブラ恵比寿02修正文字起こし.mp4</name>
            <enabled>true</enabled>
            <in>8298.3933</in>
            <out>8501.889600000004</out>
            <start>8298.393300000005</start>
            <end>8501.889600000008</end>
            <file id="街ブラ恵比寿02修正文字起こし.mp4"/>
            <sourcetrack>
              <mediatype>audio</mediatype>
              <trackindex>2</trackindex>
            </sourcetrack>
          </clipitem>
          <clipitem>
            <name>街ブラ恵比寿02修正文字起こし.mp4</name>
            <enabled>true</enabled>
            <in>8501.8896</in>
            <out>8629.561800000001</out>
            <start>8501.889600000008</start>
            <end>8629.56180000001</end>
            <file id="街ブラ恵比寿02修正文字起こし.mp4"/>
            <sourcetrack>
              <mediatype>audio</mediatype>
              <trackindex>2</trackindex>
            </sourcetrack>
          </clipitem>
          <clipitem>
            <name>街ブラ恵比寿02修正文字起こし.mp4</name>
            <enabled>true</enabled>
            <in>8629.5618</in>
            <out>8815.375800000002</out>
            <start>8629.56180000001</start>
            <end>8815.37580000001</end>
            <file id="街ブラ恵比寿02修正文字起こし.mp4"/>
            <sourcetrack>
              <mediatype>audio</mediatype>
              <trackindex>2</trackindex>
            </sourcetrack>
          </clipitem>
          <clipitem>
            <name>街ブラ恵比寿02修正文字起こし.mp4</name>
            <enabled>true</enabled>
            <in>8815.3758</in>
            <out>8906.484599999998</out>
            <start>8815.37580000001</start>
            <end>8906.48460000001</end>
            <file id="街ブラ恵比寿02修正文字起こし.mp4"/>
            <sourcetrack>
              <mediatype>audio</mediatype>
              <trackindex>2</trackindex>
            </sourcetrack>
          </clipitem>
          <clipitem>
            <name>街ブラ恵比寿02修正文字起こし.mp4</name>
            <enabled>true</enabled>
            <in>8906.4846</in>
            <out>9076.714200000004</out>
            <start>8906.48460000001</start>
            <end>9076.714200000013</end>
            <file id="街ブラ恵比寿02修正文字起こし.mp4"/>
            <sourcetrack>
              <mediatype>audio</mediatype>
              <trackindex>2</trackindex>
            </sourcetrack>
          </clipitem>
          <clipitem>
            <name>街ブラ恵比寿02修正文字起こし.mp4</name>
            <enabled>true</enabled>
            <in>9076.7142</in>
            <out>9136.6542</out>
            <start>9076.714200000013</start>
            <end>9136.654200000014</end>
            <file id="街ブラ恵比寿02修正文字起こし.mp4"/>
            <sourcetrack>
              <mediatype>audio</mediatype>
              <trackindex>2</trackindex>
            </sourcetrack>
          </clipitem>
          <clipitem>
            <name>街ブラ恵比寿02修正文字起こし.mp4</name>
            <enabled>true</enabled>
            <in>9136.6542</in>
            <out>9187.902900000001</out>
            <start>9136.654200000014</start>
            <end>9187.902900000016</end>
            <file id="街ブラ恵比寿02修正文字起こし.mp4"/>
            <sourcetrack>
              <mediatype>audio</mediatype>
              <trackindex>2</trackindex>
            </sourcetrack>
          </clipitem>
          <clipitem>
            <name>街ブラ恵比寿02修正文字起こし.mp4</name>
            <enabled>true</enabled>
            <in>9187.9029</in>
            <out>9250.839900000003</out>
            <start>9187.902900000016</start>
            <end>9250.839900000017</end>
            <file id="街ブラ恵比寿02修正文字起こし.mp4"/>
            <sourcetrack>
              <mediatype>audio</mediatype>
              <trackindex>2</trackindex>
            </sourcetrack>
          </clipitem>
          <clipitem>
            <name>街ブラ恵比寿02修正文字起こし.mp4</name>
            <enabled>true</enabled>
            <in>9250.8399</in>
            <out>9314.975699999997</out>
            <start>9250.839900000017</start>
            <end>9314.975700000015</end>
            <file id="街ブラ恵比寿02修正文字起こし.mp4"/>
            <sourcetrack>
              <mediatype>audio</mediatype>
              <trackindex>2</trackindex>
            </sourcetrack>
          </clipitem>
          <clipitem>
            <name>街ブラ恵比寿02修正文字起こし.mp4</name>
            <enabled>true</enabled>
            <in>9314.975699999999</in>
            <out>9333.5571</out>
            <start>9314.975700000015</start>
            <end>9333.557100000015</end>
            <file id="街ブラ恵比寿02修正文字起こし.mp4"/>
            <sourcetrack>
              <mediatype>audio</mediatype>
              <trackindex>2</trackindex>
            </sourcetrack>
          </clipitem>
          <clipitem>
            <name>街ブラ恵比寿02修正文字起こし.mp4</name>
            <enabled>true</enabled>
            <in>9333.5571</in>
            <out>9369.820800000001</out>
            <start>9333.557100000015</start>
            <end>9369.820800000016</end>
            <file id="街ブラ恵比寿02修正文字起こし.mp4"/>
            <sourcetrack>
              <mediatype>audio</mediatype>
              <trackindex>2</trackindex>
            </sourcetrack>
          </clipitem>
          <clipitem>
            <name>街ブラ恵比寿02修正文字起こし.mp4</name>
            <enabled>true</enabled>
            <in>9369.8208</in>
            <out>10016.273699999998</out>
            <start>9369.820800000016</start>
            <end>10016.273700000014</end>
            <file id="街ブラ恵比寿02修正文字起こし.mp4"/>
            <sourcetrack>
              <mediatype>audio</mediatype>
              <trackindex>2</trackindex>
            </sourcetrack>
          </clipitem>
          <clipitem>
            <name>街ブラ恵比寿02修正文字起こし.mp4</name>
            <enabled>true</enabled>
            <in>10016.2737</in>
            <out>10212.8769</out>
            <start>10016.273700000014</start>
            <end>10212.876900000014</end>
            <file id="街ブラ恵比寿02修正文字起こし.mp4"/>
            <sourcetrack>
              <mediatype>audio</mediatype>
              <trackindex>2</trackindex>
            </sourcetrack>
          </clipitem>
          <clipitem>
            <name>街ブラ恵比寿02修正文字起こし.mp4</name>
            <enabled>true</enabled>
            <in>10212.8769</in>
            <out>10277.012699999997</out>
            <start>10212.876900000014</start>
            <end>10277.012700000012</end>
            <file id="街ブラ恵比寿02修正文字起こし.mp4"/>
            <sourcetrack>
              <mediatype>audio</mediatype>
              <trackindex>2</trackindex>
            </sourcetrack>
          </clipitem>
          <clipitem>
            <name>街ブラ恵比寿02修正文字起こし.mp4</name>
            <enabled>true</enabled>
            <in>10277.012700000001</in>
            <out>10407.082499999999</out>
            <start>10277.012700000012</start>
            <end>10407.08250000001</end>
            <file id="街ブラ恵比寿02修正文字起こし.mp4"/>
            <sourcetrack>
              <mediatype>audio</mediatype>
              <trackindex>2</trackindex>
            </sourcetrack>
          </clipitem>
          <clipitem>
            <name>街ブラ恵比寿02修正文字起こし.mp4</name>
            <enabled>true</enabled>
            <in>10407.0825</in>
            <out>10460.129399999998</out>
            <start>10407.08250000001</start>
            <end>10460.129400000007</end>
            <file id="街ブラ恵比寿02修正文字起こし.mp4"/>
            <sourcetrack>
              <mediatype>audio</mediatype>
              <trackindex>2</trackindex>
            </sourcetrack>
          </clipitem>
          <clipitem>
            <name>街ブラ恵比寿02修正文字起こし.mp4</name>
            <enabled>true</enabled>
            <in>10460.1294</in>
            <out>10529.6598</out>
            <start>10460.129400000007</start>
            <end>10529.659800000007</end>
            <file id="街ブラ恵比寿02修正文字起こし.mp4"/>
            <sourcetrack>
              <mediatype>audio</mediatype>
              <trackindex>2</trackindex>
            </sourcetrack>
          </clipitem>
          <clipitem>
            <name>街ブラ恵比寿02修正文字起こし.mp4</name>
            <enabled>true</enabled>
            <in>10529.6598</in>
            <out>10594.095299999999</out>
            <start>10529.659800000007</start>
            <end>10594.095300000008</end>
            <file id="街ブラ恵比寿02修正文字起こし.mp4"/>
            <sourcetrack>
              <mediatype>audio</mediatype>
              <trackindex>2</trackindex>
            </sourcetrack>
          </clipitem>
          <clipitem>
            <name>街ブラ恵比寿02修正文字起こし.mp4</name>
            <enabled>true</enabled>
            <in>10594.095299999999</in>
            <out>10908.480600000003</out>
            <start>10594.095300000008</start>
            <end>10908.48060000001</end>
            <file id="街ブラ恵比寿02修正文字起こし.mp4"/>
            <sourcetrack>
              <mediatype>audio</mediatype>
              <trackindex>2</trackindex>
            </sourcetrack>
          </clipitem>
          <clipitem>
            <name>街ブラ恵比寿02修正文字起こし.mp4</name>
            <enabled>true</enabled>
            <in>10908.4806</in>
            <out>10947.141899999999</out>
            <start>10908.48060000001</start>
            <end>10947.14190000001</end>
            <file id="街ブラ恵比寿02修正文字起こし.mp4"/>
            <sourcetrack>
              <mediatype>audio</mediatype>
              <trackindex>2</trackindex>
            </sourcetrack>
          </clipitem>
          <clipitem>
            <name>街ブラ恵比寿02修正文字起こし.mp4</name>
            <enabled>true</enabled>
            <in>10947.141899999999</in>
            <out>10961.527499999998</out>
            <start>10947.14190000001</start>
            <end>10961.527500000007</end>
            <file id="街ブラ恵比寿02修正文字起こし.mp4"/>
            <sourcetrack>
              <mediatype>audio</mediatype>
              <trackindex>2</trackindex>
            </sourcetrack>
          </clipitem>
          <clipitem>
            <name>街ブラ恵比寿02修正文字起こし.mp4</name>
            <enabled>true</enabled>
            <in>10961.5275</in>
            <out>11029.259699999999</out>
            <start>10961.527500000007</start>
            <end>11029.259700000008</end>
            <file id="街ブラ恵比寿02修正文字起こし.mp4"/>
            <sourcetrack>
              <mediatype>audio</mediatype>
              <trackindex>2</trackindex>
            </sourcetrack>
          </clipitem>
          <clipitem>
            <name>街ブラ恵比寿02修正文字起こし.mp4</name>
            <enabled>true</enabled>
            <in>11029.259699999999</in>
            <out>11122.766099999999</out>
            <start>11029.259700000008</start>
            <end>11122.766100000008</end>
            <file id="街ブラ恵比寿02修正文字起こし.mp4"/>
            <sourcetrack>
              <mediatype>audio</mediatype>
              <trackindex>2</trackindex>
            </sourcetrack>
          </clipitem>
          <clipitem>
            <name>街ブラ恵比寿02修正文字起こし.mp4</name>
            <enabled>true</enabled>
            <in>11122.766099999999</in>
            <out>11278.610099999998</out>
            <start>11122.766100000008</start>
            <end>11278.610100000005</end>
            <file id="街ブラ恵比寿02修正文字起こし.mp4"/>
            <sourcetrack>
              <mediatype>audio</mediatype>
              <trackindex>2</trackindex>
            </sourcetrack>
          </clipitem>
          <clipitem>
            <name>街ブラ恵比寿02修正文字起こし.mp4</name>
            <enabled>true</enabled>
            <in>11278.6101</in>
            <out>11339.748899999997</out>
            <start>11278.610100000005</start>
            <end>11339.748900000002</end>
            <file id="街ブラ恵比寿02修正文字起こし.mp4"/>
            <sourcetrack>
              <mediatype>audio</mediatype>
              <trackindex>2</trackindex>
            </sourcetrack>
          </clipitem>
          <clipitem>
            <name>街ブラ恵比寿02修正文字起こし.mp4</name>
            <enabled>true</enabled>
            <in>11339.7489</in>
            <out>11437.1514</out>
            <start>11339.748900000002</start>
            <end>11437.151400000004</end>
            <file id="街ブラ恵比寿02修正文字起こし.mp4"/>
            <sourcetrack>
              <mediatype>audio</mediatype>
              <trackindex>2</trackindex>
            </sourcetrack>
          </clipitem>
          <clipitem>
            <name>街ブラ恵比寿02修正文字起こし.mp4</name>
            <enabled>true</enabled>
            <in>11437.151399999999</in>
            <out>11512.376100000003</out>
            <start>11437.151400000004</start>
            <end>11512.376100000009</end>
            <file id="街ブラ恵比寿02修正文字起こし.mp4"/>
            <sourcetrack>
              <mediatype>audio</mediatype>
              <trackindex>2</trackindex>
            </sourcetrack>
          </clipitem>
          <clipitem>
            <name>街ブラ恵比寿02修正文字起こし.mp4</name>
            <enabled>true</enabled>
            <in>11512.3761</in>
            <out>11565.7227</out>
            <start>11512.376100000009</start>
            <end>11565.72270000001</end>
            <file id="街ブラ恵比寿02修正文字起こし.mp4"/>
            <sourcetrack>
              <mediatype>audio</mediatype>
              <trackindex>2</trackindex>
            </sourcetrack>
          </clipitem>
          <clipitem>
            <name>街ブラ恵比寿02修正文字起こし.mp4</name>
            <enabled>true</enabled>
            <in>11565.7227</in>
            <out>11638.849499999998</out>
            <start>11565.72270000001</start>
            <end>11638.849500000008</end>
            <file id="街ブラ恵比寿02修正文字起こし.mp4"/>
            <sourcetrack>
              <mediatype>audio</mediatype>
              <trackindex>2</trackindex>
            </sourcetrack>
          </clipitem>
          <clipitem>
            <name>街ブラ恵比寿02修正文字起こし.mp4</name>
            <enabled>true</enabled>
            <in>11638.8495</in>
            <out>11724.264000000001</out>
            <start>11638.849500000008</start>
            <end>11724.264000000008</end>
            <file id="街ブラ恵比寿02修正文字起こし.mp4"/>
            <sourcetrack>
              <mediatype>audio</mediatype>
              <trackindex>2</trackindex>
            </sourcetrack>
          </clipitem>
          <clipitem>
            <name>街ブラ恵比寿02修正文字起こし.mp4</name>
            <enabled>true</enabled>
            <in>11724.264</in>
            <out>11781.506699999998</out>
            <start>11724.264000000008</start>
            <end>11781.506700000007</end>
            <file id="街ブラ恵比寿02修正文字起こし.mp4"/>
            <sourcetrack>
              <mediatype>audio</mediatype>
              <trackindex>2</trackindex>
            </sourcetrack>
          </clipitem>
          <clipitem>
            <name>街ブラ恵比寿02修正文字起こし.mp4</name>
            <enabled>true</enabled>
            <in>11781.5067</in>
            <out>11889.3987</out>
            <start>11781.506700000007</start>
            <end>11889.398700000007</end>
            <file id="街ブラ恵比寿02修正文字起こし.mp4"/>
            <sourcetrack>
              <mediatype>audio</mediatype>
              <trackindex>2</trackindex>
            </sourcetrack>
          </clipitem>
          <clipitem>
            <name>街ブラ恵比寿02修正文字起こし.mp4</name>
            <enabled>true</enabled>
            <in>11889.3987</in>
            <out>11953.234799999998</out>
            <start>11889.398700000007</start>
            <end>11953.234800000007</end>
            <file id="街ブラ恵比寿02修正文字起こし.mp4"/>
            <sourcetrack>
              <mediatype>audio</mediatype>
              <trackindex>2</trackindex>
            </sourcetrack>
          </clipitem>
          <clipitem>
            <name>街ブラ恵比寿02修正文字起こし.mp4</name>
            <enabled>true</enabled>
            <in>11953.234799999998</in>
            <out>12120.167699999995</out>
            <start>11953.234800000007</start>
            <end>12120.167700000004</end>
            <file id="街ブラ恵比寿02修正文字起こし.mp4"/>
            <sourcetrack>
              <mediatype>audio</mediatype>
              <trackindex>2</trackindex>
            </sourcetrack>
          </clipitem>
          <clipitem>
            <name>街ブラ恵比寿02修正文字起こし.mp4</name>
            <enabled>true</enabled>
            <in>12120.1677</in>
            <out>12289.198499999999</out>
            <start>12120.167700000004</start>
            <end>12289.198500000002</end>
            <file id="街ブラ恵比寿02修正文字起こし.mp4"/>
            <sourcetrack>
              <mediatype>audio</mediatype>
              <trackindex>2</trackindex>
            </sourcetrack>
          </clipitem>
          <clipitem>
            <name>街ブラ恵比寿02修正文字起こし.mp4</name>
            <enabled>true</enabled>
            <in>12289.1985</in>
            <out>12370.7169</out>
            <start>12289.198500000002</start>
            <end>12370.716900000001</end>
            <file id="街ブラ恵比寿02修正文字起こし.mp4"/>
            <sourcetrack>
              <mediatype>audio</mediatype>
              <trackindex>2</trackindex>
            </sourcetrack>
          </clipitem>
          <clipitem>
            <name>街ブラ恵比寿02修正文字起こし.mp4</name>
            <enabled>true</enabled>
            <in>12370.7169</in>
            <out>12425.561999999998</out>
            <start>12370.716900000001</start>
            <end>12425.562</end>
            <file id="街ブラ恵比寿02修正文字起こし.mp4"/>
            <sourcetrack>
              <mediatype>audio</mediatype>
              <trackindex>2</trackindex>
            </sourcetrack>
          </clipitem>
          <clipitem>
            <name>街ブラ恵比寿02修正文字起こし.mp4</name>
            <enabled>true</enabled>
            <in>12425.562</in>
            <out>12493.2942</out>
            <start>12425.562</start>
            <end>12493.2942</end>
            <file id="街ブラ恵比寿02修正文字起こし.mp4"/>
            <sourcetrack>
              <mediatype>audio</mediatype>
              <trackindex>2</trackindex>
            </sourcetrack>
          </clipitem>
          <clipitem>
            <name>街ブラ恵比寿02修正文字起こし.mp4</name>
            <enabled>true</enabled>
            <in>12493.2942</in>
            <out>12530.7567</out>
            <start>12493.2942</start>
            <end>12530.7567</end>
            <file id="街ブラ恵比寿02修正文字起こし.mp4"/>
            <sourcetrack>
              <mediatype>audio</mediatype>
              <trackindex>2</trackindex>
            </sourcetrack>
          </clipitem>
          <clipitem>
            <name>街ブラ恵比寿02修正文字起こし.mp4</name>
            <enabled>true</enabled>
            <in>12530.7567</in>
            <out>12559.527900000001</out>
            <start>12530.7567</start>
            <end>12559.527900000001</end>
            <file id="街ブラ恵比寿02修正文字起こし.mp4"/>
            <sourcetrack>
              <mediatype>audio</mediatype>
              <trackindex>2</trackindex>
            </sourcetrack>
          </clipitem>
          <clipitem>
            <name>街ブラ恵比寿02修正文字起こし.mp4</name>
            <enabled>true</enabled>
            <in>12559.5279</in>
            <out>12611.0763</out>
            <start>12559.527900000001</start>
            <end>12611.076300000002</end>
            <file id="街ブラ恵比寿02修正文字起こし.mp4"/>
            <sourcetrack>
              <mediatype>audio</mediatype>
              <trackindex>2</trackindex>
            </sourcetrack>
          </clipitem>
          <clipitem>
            <name>街ブラ恵比寿02修正文字起こし.mp4</name>
            <enabled>true</enabled>
            <in>12611.0763</in>
            <out>12686.0013</out>
            <start>12611.076300000002</start>
            <end>12686.001300000002</end>
            <file id="街ブラ恵比寿02修正文字起こし.mp4"/>
            <sourcetrack>
              <mediatype>audio</mediatype>
              <trackindex>2</trackindex>
            </sourcetrack>
          </clipitem>
          <clipitem>
            <name>街ブラ恵比寿02修正文字起こし.mp4</name>
            <enabled>true</enabled>
            <in>12686.0013</in>
            <out>12736.650599999999</out>
            <start>12686.001300000002</start>
            <end>12736.6506</end>
            <file id="街ブラ恵比寿02修正文字起こし.mp4"/>
            <sourcetrack>
              <mediatype>audio</mediatype>
              <trackindex>2</trackindex>
            </sourcetrack>
          </clipitem>
          <clipitem>
            <name>街ブラ恵比寿02修正文字起こし.mp4</name>
            <enabled>true</enabled>
            <in>12736.6506</in>
            <out>12940.1469</out>
            <start>12736.6506</start>
            <end>12940.1469</end>
            <file id="街ブラ恵比寿02修正文字起こし.mp4"/>
            <sourcetrack>
              <mediatype>audio</mediatype>
              <trackindex>2</trackindex>
            </sourcetrack>
          </clipitem>
          <clipitem>
            <name>街ブラ恵比寿02修正文字起こし.mp4</name>
            <enabled>true</enabled>
            <in>12940.1469</in>
            <out>13007.2797</out>
            <start>12940.1469</start>
            <end>13007.2797</end>
            <file id="街ブラ恵比寿02修正文字起こし.mp4"/>
            <sourcetrack>
              <mediatype>audio</mediatype>
              <trackindex>2</trackindex>
            </sourcetrack>
          </clipitem>
          <clipitem>
            <name>街ブラ恵比寿02修正文字起こし.mp4</name>
            <enabled>true</enabled>
            <in>13007.2797</in>
            <out>13122.963899999997</out>
            <start>13007.2797</start>
            <end>13122.963899999997</end>
            <file id="街ブラ恵比寿02修正文字起こし.mp4"/>
            <sourcetrack>
              <mediatype>audio</mediatype>
              <trackindex>2</trackindex>
            </sourcetrack>
          </clipitem>
          <clipitem>
            <name>街ブラ恵比寿02修正文字起こし.mp4</name>
            <enabled>true</enabled>
            <in>13122.963899999999</in>
            <out>13209.277499999998</out>
            <start>13122.963899999997</start>
            <end>13209.277499999995</end>
            <file id="街ブラ恵比寿02修正文字起こし.mp4"/>
            <sourcetrack>
              <mediatype>audio</mediatype>
              <trackindex>2</trackindex>
            </sourcetrack>
          </clipitem>
          <clipitem>
            <name>街ブラ恵比寿02修正文字起こし.mp4</name>
            <enabled>true</enabled>
            <in>13209.2775</in>
            <out>13256.630099999998</out>
            <start>13209.277499999995</start>
            <end>13256.630099999993</end>
            <file id="街ブラ恵比寿02修正文字起こし.mp4"/>
            <sourcetrack>
              <mediatype>audio</mediatype>
              <trackindex>2</trackindex>
            </sourcetrack>
          </clipitem>
          <clipitem>
            <name>街ブラ恵比寿02修正文字起こし.mp4</name>
            <enabled>true</enabled>
            <in>13256.630099999998</in>
            <out>13345.341300000002</out>
            <start>13256.630099999993</start>
            <end>13345.341299999996</end>
            <file id="街ブラ恵比寿02修正文字起こし.mp4"/>
            <sourcetrack>
              <mediatype>audio</mediatype>
              <trackindex>2</trackindex>
            </sourcetrack>
          </clipitem>
          <clipitem>
            <name>街ブラ恵比寿02修正文字起こし.mp4</name>
            <enabled>true</enabled>
            <in>13345.3413</in>
            <out>13447.2393</out>
            <start>13345.341299999996</start>
            <end>13447.239299999996</end>
            <file id="街ブラ恵比寿02修正文字起こし.mp4"/>
            <sourcetrack>
              <mediatype>audio</mediatype>
              <trackindex>2</trackindex>
            </sourcetrack>
          </clipitem>
          <clipitem>
            <name>街ブラ恵比寿02修正文字起こし.mp4</name>
            <enabled>true</enabled>
            <in>13447.2393</in>
            <out>13705.280999999997</out>
            <start>13447.239299999996</start>
            <end>13705.280999999995</end>
            <file id="街ブラ恵比寿02修正文字起こし.mp4"/>
            <sourcetrack>
              <mediatype>audio</mediatype>
              <trackindex>2</trackindex>
            </sourcetrack>
          </clipitem>
          <clipitem>
            <name>街ブラ恵比寿02修正文字起こし.mp4</name>
            <enabled>true</enabled>
            <in>13705.280999999999</in>
            <out>13716.0702</out>
            <start>13705.280999999995</start>
            <end>13716.070199999995</end>
            <file id="街ブラ恵比寿02修正文字起こし.mp4"/>
            <sourcetrack>
              <mediatype>audio</mediatype>
              <trackindex>2</trackindex>
            </sourcetrack>
          </clipitem>
          <clipitem>
            <name>街ブラ恵比寿02修正文字起こし.mp4</name>
            <enabled>true</enabled>
            <in>13716.0702</in>
            <out>13756.529700000001</out>
            <start>13716.070199999995</start>
            <end>13756.529699999996</end>
            <file id="街ブラ恵比寿02修正文字起こし.mp4"/>
            <sourcetrack>
              <mediatype>audio</mediatype>
              <trackindex>2</trackindex>
            </sourcetrack>
          </clipitem>
          <clipitem>
            <name>街ブラ恵比寿02修正文字起こし.mp4</name>
            <enabled>true</enabled>
            <in>13756.5297</in>
            <out>14000.785199999998</out>
            <start>13756.529699999996</start>
            <end>14000.785199999995</end>
            <file id="街ブラ恵比寿02修正文字起こし.mp4"/>
            <sourcetrack>
              <mediatype>audio</mediatype>
              <trackindex>2</trackindex>
            </sourcetrack>
          </clipitem>
          <clipitem>
            <name>街ブラ恵比寿02修正文字起こし.mp4</name>
            <enabled>true</enabled>
            <in>14000.7852</in>
            <out>14061.624300000001</out>
            <start>14000.785199999995</start>
            <end>14061.624299999996</end>
            <file id="街ブラ恵比寿02修正文字起こし.mp4"/>
            <sourcetrack>
              <mediatype>audio</mediatype>
              <trackindex>2</trackindex>
            </sourcetrack>
          </clipitem>
          <clipitem>
            <name>街ブラ恵比寿02修正文字起こし.mp4</name>
            <enabled>true</enabled>
            <in>14061.6243</in>
            <out>14441.044499999998</out>
            <start>14061.624299999996</start>
            <end>14441.044499999995</end>
            <file id="街ブラ恵比寿02修正文字起こし.mp4"/>
            <sourcetrack>
              <mediatype>audio</mediatype>
              <trackindex>2</trackindex>
            </sourcetrack>
          </clipitem>
          <clipitem>
            <name>街ブラ恵比寿02修正文字起こし.mp4</name>
            <enabled>true</enabled>
            <in>14441.0445</in>
            <out>14532.1533</out>
            <start>14441.044499999995</start>
            <end>14532.153299999994</end>
            <file id="街ブラ恵比寿02修正文字起こし.mp4"/>
            <sourcetrack>
              <mediatype>audio</mediatype>
              <trackindex>2</trackindex>
            </sourcetrack>
          </clipitem>
          <clipitem>
            <name>街ブラ恵比寿02修正文字起こし.mp4</name>
            <enabled>true</enabled>
            <in>14532.1533</in>
            <out>14554.930499999999</out>
            <start>14532.153299999994</start>
            <end>14554.930499999993</end>
            <file id="街ブラ恵比寿02修正文字起こし.mp4"/>
            <sourcetrack>
              <mediatype>audio</mediatype>
              <trackindex>2</trackindex>
            </sourcetrack>
          </clipitem>
          <clipitem>
            <name>街ブラ恵比寿02修正文字起こし.mp4</name>
            <enabled>true</enabled>
            <in>14554.930499999999</in>
            <out>14777.607599999992</out>
            <start>14554.930499999993</start>
            <end>14777.607599999987</end>
            <file id="街ブラ恵比寿02修正文字起こし.mp4"/>
            <sourcetrack>
              <mediatype>audio</mediatype>
              <trackindex>2</trackindex>
            </sourcetrack>
          </clipitem>
          <clipitem>
            <name>街ブラ恵比寿02修正文字起こし.mp4</name>
            <enabled>true</enabled>
            <in>14777.6076</in>
            <out>14812.073099999998</out>
            <start>14777.607599999987</start>
            <end>14812.073099999987</end>
            <file id="街ブラ恵比寿02修正文字起こし.mp4"/>
            <sourcetrack>
              <mediatype>audio</mediatype>
              <trackindex>2</trackindex>
            </sourcetrack>
          </clipitem>
          <clipitem>
            <name>街ブラ恵比寿02修正文字起こし.mp4</name>
            <enabled>true</enabled>
            <in>14812.0731</in>
            <out>14840.2449</out>
            <start>14812.073099999987</start>
            <end>14840.244899999987</end>
            <file id="街ブラ恵比寿02修正文字起こし.mp4"/>
            <sourcetrack>
              <mediatype>audio</mediatype>
              <trackindex>2</trackindex>
            </sourcetrack>
          </clipitem>
          <clipitem>
            <name>街ブラ恵比寿02修正文字起こし.mp4</name>
            <enabled>true</enabled>
            <in>14840.2449</in>
            <out>14931.053999999998</out>
            <start>14840.244899999987</start>
            <end>14931.053999999986</end>
            <file id="街ブラ恵比寿02修正文字起こし.mp4"/>
            <sourcetrack>
              <mediatype>audio</mediatype>
              <trackindex>2</trackindex>
            </sourcetrack>
          </clipitem>
          <clipitem>
            <name>街ブラ恵比寿02修正文字起こし.mp4</name>
            <enabled>true</enabled>
            <in>14931.053999999998</in>
            <out>15041.643299999998</out>
            <start>14931.053999999986</start>
            <end>15041.643299999983</end>
            <file id="街ブラ恵比寿02修正文字起こし.mp4"/>
            <sourcetrack>
              <mediatype>audio</mediatype>
              <trackindex>2</trackindex>
            </sourcetrack>
          </clipitem>
          <clipitem>
            <name>街ブラ恵比寿02修正文字起こし.mp4</name>
            <enabled>true</enabled>
            <in>15041.6433</in>
            <out>15050.034899999999</out>
            <start>15041.643299999983</start>
            <end>15050.034899999982</end>
            <file id="街ブラ恵比寿02修正文字起こし.mp4"/>
            <sourcetrack>
              <mediatype>audio</mediatype>
              <trackindex>2</trackindex>
            </sourcetrack>
          </clipitem>
          <clipitem>
            <name>街ブラ恵比寿02修正文字起こし.mp4</name>
            <enabled>true</enabled>
            <in>15050.0349</in>
            <out>15174.7101</out>
            <start>15050.034899999982</start>
            <end>15174.710099999984</end>
            <file id="街ブラ恵比寿02修正文字起こし.mp4"/>
            <sourcetrack>
              <mediatype>audio</mediatype>
              <trackindex>2</trackindex>
            </sourcetrack>
          </clipitem>
          <clipitem>
            <name>街ブラ恵比寿02修正文字起こし.mp4</name>
            <enabled>true</enabled>
            <in>15174.710099999998</in>
            <out>15289.495199999998</out>
            <start>15174.710099999984</start>
            <end>15289.495199999983</end>
            <file id="街ブラ恵比寿02修正文字起こし.mp4"/>
            <sourcetrack>
              <mediatype>audio</mediatype>
              <trackindex>2</trackindex>
            </sourcetrack>
          </clipitem>
          <clipitem>
            <name>街ブラ恵比寿02修正文字起こし.mp4</name>
            <enabled>true</enabled>
            <in>15289.4952</in>
            <out>15355.4292</out>
            <start>15289.495199999983</start>
            <end>15355.429199999982</end>
            <file id="街ブラ恵比寿02修正文字起こし.mp4"/>
            <sourcetrack>
              <mediatype>audio</mediatype>
              <trackindex>2</trackindex>
            </sourcetrack>
          </clipitem>
          <clipitem>
            <name>街ブラ恵比寿02修正文字起こし.mp4</name>
            <enabled>true</enabled>
            <in>15355.4292</in>
            <out>15498.685800000007</out>
            <start>15355.429199999982</start>
            <end>15498.685799999988</end>
            <file id="街ブラ恵比寿02修正文字起こし.mp4"/>
            <sourcetrack>
              <mediatype>audio</mediatype>
              <trackindex>2</trackindex>
            </sourcetrack>
          </clipitem>
          <clipitem>
            <name>街ブラ恵比寿02修正文字起こし.mp4</name>
            <enabled>true</enabled>
            <in>15498.6858</in>
            <out>15641.043300000003</out>
            <start>15498.685799999988</start>
            <end>15641.043299999992</end>
            <file id="街ブラ恵比寿02修正文字起こし.mp4"/>
            <sourcetrack>
              <mediatype>audio</mediatype>
              <trackindex>2</trackindex>
            </sourcetrack>
          </clipitem>
          <clipitem>
            <name>街ブラ恵比寿02修正文字起こし.mp4</name>
            <enabled>true</enabled>
            <in>15641.0433</in>
            <out>15884.6994</out>
            <start>15641.043299999992</start>
            <end>15884.699399999992</end>
            <file id="街ブラ恵比寿02修正文字起こし.mp4"/>
            <sourcetrack>
              <mediatype>audio</mediatype>
              <trackindex>2</trackindex>
            </sourcetrack>
          </clipitem>
          <clipitem>
            <name>街ブラ恵比寿02修正文字起こし.mp4</name>
            <enabled>true</enabled>
            <in>15884.6994</in>
            <out>15924.859199999999</out>
            <start>15884.699399999992</start>
            <end>15924.859199999994</end>
            <file id="街ブラ恵比寿02修正文字起こし.mp4"/>
            <sourcetrack>
              <mediatype>audio</mediatype>
              <trackindex>2</trackindex>
            </sourcetrack>
          </clipitem>
          <clipitem>
            <name>街ブラ恵比寿02修正文字起こし.mp4</name>
            <enabled>true</enabled>
            <in>15924.859199999999</in>
            <out>16054.029899999998</out>
            <start>15924.859199999994</start>
            <end>16054.02989999999</end>
            <file id="街ブラ恵比寿02修正文字起こし.mp4"/>
            <sourcetrack>
              <mediatype>audio</mediatype>
              <trackindex>2</trackindex>
            </sourcetrack>
          </clipitem>
          <clipitem>
            <name>街ブラ恵比寿02修正文字起こし.mp4</name>
            <enabled>true</enabled>
            <in>16054.029899999998</in>
            <out>16187.096699999996</out>
            <start>16054.02989999999</start>
            <end>16187.09669999999</end>
            <file id="街ブラ恵比寿02修正文字起こし.mp4"/>
            <sourcetrack>
              <mediatype>audio</mediatype>
              <trackindex>2</trackindex>
            </sourcetrack>
          </clipitem>
          <clipitem>
            <name>街ブラ恵比寿02修正文字起こし.mp4</name>
            <enabled>true</enabled>
            <in>16187.0967</in>
            <out>16272.511199999997</out>
            <start>16187.09669999999</start>
            <end>16272.511199999986</end>
            <file id="街ブラ恵比寿02修正文字起こし.mp4"/>
            <sourcetrack>
              <mediatype>audio</mediatype>
              <trackindex>2</trackindex>
            </sourcetrack>
          </clipitem>
          <clipitem>
            <name>街ブラ恵比寿02修正文字起こし.mp4</name>
            <enabled>true</enabled>
            <in>16272.5112</in>
            <out>16322.860799999999</out>
            <start>16272.511199999986</start>
            <end>16322.860799999986</end>
            <file id="街ブラ恵比寿02修正文字起こし.mp4"/>
            <sourcetrack>
              <mediatype>audio</mediatype>
              <trackindex>2</trackindex>
            </sourcetrack>
          </clipitem>
          <clipitem>
            <name>街ブラ恵比寿02修正文字起こし.mp4</name>
            <enabled>true</enabled>
            <in>16322.860799999999</in>
            <out>16387.2963</out>
            <start>16322.860799999986</start>
            <end>16387.296299999987</end>
            <file id="街ブラ恵比寿02修正文字起こし.mp4"/>
            <sourcetrack>
              <mediatype>audio</mediatype>
              <trackindex>2</trackindex>
            </sourcetrack>
          </clipitem>
          <clipitem>
            <name>街ブラ恵比寿02修正文字起こし.mp4</name>
            <enabled>true</enabled>
            <in>16387.296299999998</in>
            <out>16437.9456</out>
            <start>16387.296299999987</start>
            <end>16437.94559999999</end>
            <file id="街ブラ恵比寿02修正文字起こし.mp4"/>
            <sourcetrack>
              <mediatype>audio</mediatype>
              <trackindex>2</trackindex>
            </sourcetrack>
          </clipitem>
          <clipitem>
            <name>街ブラ恵比寿02修正文字起こし.mp4</name>
            <enabled>true</enabled>
            <in>16437.9456</in>
            <out>16624.958399999996</out>
            <start>16437.94559999999</start>
            <end>16624.958399999985</end>
            <file id="街ブラ恵比寿02修正文字起こし.mp4"/>
            <sourcetrack>
              <mediatype>audio</mediatype>
              <trackindex>2</trackindex>
            </sourcetrack>
          </clipitem>
          <clipitem>
            <name>街ブラ恵比寿02修正文字起こし.mp4</name>
            <enabled>true</enabled>
            <in>16624.9584</in>
            <out>16634.249099999997</out>
            <start>16624.958399999985</start>
            <end>16634.249099999986</end>
            <file id="街ブラ恵比寿02修正文字起こし.mp4"/>
            <sourcetrack>
              <mediatype>audio</mediatype>
              <trackindex>2</trackindex>
            </sourcetrack>
          </clipitem>
          <clipitem>
            <name>街ブラ恵比寿02修正文字起こし.mp4</name>
            <enabled>true</enabled>
            <in>16634.249099999997</in>
            <out>16835.947199999995</out>
            <start>16634.249099999986</start>
            <end>16835.94719999998</end>
            <file id="街ブラ恵比寿02修正文字起こし.mp4"/>
            <sourcetrack>
              <mediatype>audio</mediatype>
              <trackindex>2</trackindex>
            </sourcetrack>
          </clipitem>
          <clipitem>
            <name>街ブラ恵比寿02修正文字起こし.mp4</name>
            <enabled>true</enabled>
            <in>16835.9472</in>
            <out>16893.7893</out>
            <start>16835.94719999998</start>
            <end>16893.789299999982</end>
            <file id="街ブラ恵比寿02修正文字起こし.mp4"/>
            <sourcetrack>
              <mediatype>audio</mediatype>
              <trackindex>2</trackindex>
            </sourcetrack>
          </clipitem>
          <clipitem>
            <name>街ブラ恵比寿02修正文字起こし.mp4</name>
            <enabled>true</enabled>
            <in>16893.7893</in>
            <out>16960.322699999997</out>
            <start>16893.789299999982</start>
            <end>16960.322699999982</end>
            <file id="街ブラ恵比寿02修正文字起こし.mp4"/>
            <sourcetrack>
              <mediatype>audio</mediatype>
              <trackindex>2</trackindex>
            </sourcetrack>
          </clipitem>
          <clipitem>
            <name>街ブラ恵比寿02修正文字起こし.mp4</name>
            <enabled>true</enabled>
            <in>16960.322699999997</in>
            <out>16992.090899999996</out>
            <start>16960.322699999982</start>
            <end>16992.09089999998</end>
            <file id="街ブラ恵比寿02修正文字起こし.mp4"/>
            <sourcetrack>
              <mediatype>audio</mediatype>
              <trackindex>2</trackindex>
            </sourcetrack>
          </clipitem>
          <clipitem>
            <name>街ブラ恵比寿02修正文字起こし.mp4</name>
            <enabled>true</enabled>
            <in>16992.0909</in>
            <out>17022.6603</out>
            <start>16992.09089999998</start>
            <end>17022.660299999978</end>
            <file id="街ブラ恵比寿02修正文字起こし.mp4"/>
            <sourcetrack>
              <mediatype>audio</mediatype>
              <trackindex>2</trackindex>
            </sourcetrack>
          </clipitem>
          <clipitem>
            <name>街ブラ恵比寿02修正文字起こし.mp4</name>
            <enabled>true</enabled>
            <in>17022.6603</in>
            <out>17064.3186</out>
            <start>17022.660299999978</start>
            <end>17064.31859999998</end>
            <file id="街ブラ恵比寿02修正文字起こし.mp4"/>
            <sourcetrack>
              <mediatype>audio</mediatype>
              <trackindex>2</trackindex>
            </sourcetrack>
          </clipitem>
          <clipitem>
            <name>街ブラ恵比寿02修正文字起こし.mp4</name>
            <enabled>true</enabled>
            <in>17064.3186</in>
            <out>17090.991899999994</out>
            <start>17064.31859999998</start>
            <end>17090.991899999975</end>
            <file id="街ブラ恵比寿02修正文字起こし.mp4"/>
            <sourcetrack>
              <mediatype>audio</mediatype>
              <trackindex>2</trackindex>
            </sourcetrack>
          </clipitem>
          <clipitem>
            <name>街ブラ恵比寿02修正文字起こし.mp4</name>
            <enabled>true</enabled>
            <in>17090.991899999997</in>
            <out>17184.797999999995</out>
            <start>17090.991899999975</start>
            <end>17184.79799999997</end>
            <file id="街ブラ恵比寿02修正文字起こし.mp4"/>
            <sourcetrack>
              <mediatype>audio</mediatype>
              <trackindex>2</trackindex>
            </sourcetrack>
          </clipitem>
          <clipitem>
            <name>街ブラ恵比寿02修正文字起こし.mp4</name>
            <enabled>true</enabled>
            <in>17184.798</in>
            <out>17275.007699999995</out>
            <start>17184.79799999997</start>
            <end>17275.00769999997</end>
            <file id="街ブラ恵比寿02修正文字起こし.mp4"/>
            <sourcetrack>
              <mediatype>audio</mediatype>
              <trackindex>2</trackindex>
            </sourcetrack>
          </clipitem>
          <clipitem>
            <name>街ブラ恵比寿02修正文字起こし.mp4</name>
            <enabled>true</enabled>
            <in>17275.0077</in>
            <out>17346.036599999996</out>
            <start>17275.00769999997</start>
            <end>17346.036599999963</end>
            <file id="街ブラ恵比寿02修正文字起こし.mp4"/>
            <sourcetrack>
              <mediatype>audio</mediatype>
              <trackindex>2</trackindex>
            </sourcetrack>
          </clipitem>
          <clipitem>
            <name>街ブラ恵比寿02修正文字起こし.mp4</name>
            <enabled>true</enabled>
            <in>17346.0366</in>
            <out>17420.362199999996</out>
            <start>17346.036599999963</start>
            <end>17420.362199999963</end>
            <file id="街ブラ恵比寿02修正文字起こし.mp4"/>
            <sourcetrack>
              <mediatype>audio</mediatype>
              <trackindex>2</trackindex>
            </sourcetrack>
          </clipitem>
          <clipitem>
            <name>街ブラ恵比寿02修正文字起こし.mp4</name>
            <enabled>true</enabled>
            <in>17420.3622</in>
            <out>17546.53589999999</out>
            <start>17420.362199999963</start>
            <end>17546.535899999955</end>
            <file id="街ブラ恵比寿02修正文字起こし.mp4"/>
            <sourcetrack>
              <mediatype>audio</mediatype>
              <trackindex>2</trackindex>
            </sourcetrack>
          </clipitem>
          <clipitem>
            <name>街ブラ恵比寿02修正文字起こし.mp4</name>
            <enabled>true</enabled>
            <in>17546.5359</in>
            <out>17727.8544</out>
            <start>17546.535899999955</start>
            <end>17727.854399999953</end>
            <file id="街ブラ恵比寿02修正文字起こし.mp4"/>
            <sourcetrack>
              <mediatype>audio</mediatype>
              <trackindex>2</trackindex>
            </sourcetrack>
          </clipitem>
          <clipitem>
            <name>街ブラ恵比寿02修正文字起こし.mp4</name>
            <enabled>true</enabled>
            <in>17727.8544</in>
            <out>17790.7914</out>
            <start>17727.854399999953</start>
            <end>17790.791399999955</end>
            <file id="街ブラ恵比寿02修正文字起こし.mp4"/>
            <sourcetrack>
              <mediatype>audio</mediatype>
              <trackindex>2</trackindex>
            </sourcetrack>
          </clipitem>
          <clipitem>
            <name>街ブラ恵比寿02修正文字起こし.mp4</name>
            <enabled>true</enabled>
            <in>17790.7914</in>
            <out>18178.902899999997</out>
            <start>17790.791399999955</start>
            <end>18178.902899999954</end>
            <file id="街ブラ恵比寿02修正文字起こし.mp4"/>
            <sourcetrack>
              <mediatype>audio</mediatype>
              <trackindex>2</trackindex>
            </sourcetrack>
          </clipitem>
          <clipitem>
            <name>街ブラ恵比寿02修正文字起こし.mp4</name>
            <enabled>true</enabled>
            <in>18178.9029</in>
            <out>18457.324200000003</out>
            <start>18178.902899999954</start>
            <end>18457.324199999955</end>
            <file id="街ブラ恵比寿02修正文字起こし.mp4"/>
            <sourcetrack>
              <mediatype>audio</mediatype>
              <trackindex>2</trackindex>
            </sourcetrack>
          </clipitem>
          <clipitem>
            <name>街ブラ恵比寿02修正文字起こし.mp4</name>
            <enabled>true</enabled>
            <in>18457.3242</in>
            <out>18689.5917</out>
            <start>18457.324199999955</start>
            <end>18689.591699999957</end>
            <file id="街ブラ恵比寿02修正文字起こし.mp4"/>
            <sourcetrack>
              <mediatype>audio</mediatype>
              <trackindex>2</trackindex>
            </sourcetrack>
          </clipitem>
          <clipitem>
            <name>街ブラ恵比寿02修正文字起こし.mp4</name>
            <enabled>true</enabled>
            <in>18689.5917</in>
            <out>18764.516700000004</out>
            <start>18689.591699999957</start>
            <end>18764.51669999996</end>
            <file id="街ブラ恵比寿02修正文字起こし.mp4"/>
            <sourcetrack>
              <mediatype>audio</mediatype>
              <trackindex>2</trackindex>
            </sourcetrack>
          </clipitem>
          <clipitem>
            <name>街ブラ恵比寿02修正文字起こし.mp4</name>
            <enabled>true</enabled>
            <in>18764.5167</in>
            <out>18861.6195</out>
            <start>18764.51669999996</start>
            <end>18861.61949999996</end>
            <file id="街ブラ恵比寿02修正文字起こし.mp4"/>
            <sourcetrack>
              <mediatype>audio</mediatype>
              <trackindex>2</trackindex>
            </sourcetrack>
          </clipitem>
          <clipitem>
            <name>街ブラ恵比寿02修正文字起こし.mp4</name>
            <enabled>true</enabled>
            <in>18861.6195</in>
            <out>18982.998000000007</out>
            <start>18861.61949999996</start>
            <end>18982.997999999963</end>
            <file id="街ブラ恵比寿02修正文字起こし.mp4"/>
            <sourcetrack>
              <mediatype>audio</mediatype>
              <trackindex>2</trackindex>
            </sourcetrack>
          </clipitem>
          <clipitem>
            <name>街ブラ恵比寿02修正文字起こし.mp4</name>
            <enabled>true</enabled>
            <in>18982.998</in>
            <out>19047.4335</out>
            <start>18982.997999999963</start>
            <end>19047.433499999963</end>
            <file id="街ブラ恵比寿02修正文字起こし.mp4"/>
            <sourcetrack>
              <mediatype>audio</mediatype>
              <trackindex>2</trackindex>
            </sourcetrack>
          </clipitem>
          <clipitem>
            <name>街ブラ恵比寿02修正文字起こし.mp4</name>
            <enabled>true</enabled>
            <in>19047.4335</in>
            <out>19118.162699999997</out>
            <start>19047.433499999963</start>
            <end>19118.162699999964</end>
            <file id="街ブラ恵比寿02修正文字起こし.mp4"/>
            <sourcetrack>
              <mediatype>audio</mediatype>
              <trackindex>2</trackindex>
            </sourcetrack>
          </clipitem>
          <clipitem>
            <name>街ブラ恵比寿02修正文字起こし.mp4</name>
            <enabled>true</enabled>
            <in>19118.162699999997</in>
            <out>19167.6132</out>
            <start>19118.162699999964</start>
            <end>19167.613199999967</end>
            <file id="街ブラ恵比寿02修正文字起こし.mp4"/>
            <sourcetrack>
              <mediatype>audio</mediatype>
              <trackindex>2</trackindex>
            </sourcetrack>
          </clipitem>
          <clipitem>
            <name>街ブラ恵比寿02修正文字起こし.mp4</name>
            <enabled>true</enabled>
            <in>19167.613199999996</in>
            <out>19268.012699999996</out>
            <start>19167.613199999967</start>
            <end>19268.012699999963</end>
            <file id="街ブラ恵比寿02修正文字起こし.mp4"/>
            <sourcetrack>
              <mediatype>audio</mediatype>
              <trackindex>2</trackindex>
            </sourcetrack>
          </clipitem>
          <clipitem>
            <name>街ブラ恵比寿02修正文字起こし.mp4</name>
            <enabled>true</enabled>
            <in>19268.0127</in>
            <out>19307.5731</out>
            <start>19268.012699999963</start>
            <end>19307.573099999965</end>
            <file id="街ブラ恵比寿02修正文字起こし.mp4"/>
            <sourcetrack>
              <mediatype>audio</mediatype>
              <trackindex>2</trackindex>
            </sourcetrack>
          </clipitem>
          <clipitem>
            <name>街ブラ恵比寿02修正文字起こし.mp4</name>
            <enabled>true</enabled>
            <in>19307.5731</in>
            <out>19372.308300000004</out>
            <start>19307.573099999965</start>
            <end>19372.30829999997</end>
            <file id="街ブラ恵比寿02修正文字起こし.mp4"/>
            <sourcetrack>
              <mediatype>audio</mediatype>
              <trackindex>2</trackindex>
            </sourcetrack>
          </clipitem>
          <clipitem>
            <name>街ブラ恵比寿02修正文字起こし.mp4</name>
            <enabled>true</enabled>
            <in>19372.3083</in>
            <out>19502.378099999998</out>
            <start>19372.30829999997</start>
            <end>19502.37809999997</end>
            <file id="街ブラ恵比寿02修正文字起こし.mp4"/>
            <sourcetrack>
              <mediatype>audio</mediatype>
              <trackindex>2</trackindex>
            </sourcetrack>
          </clipitem>
          <clipitem>
            <name>街ブラ恵比寿02修正文字起こし.mp4</name>
            <enabled>true</enabled>
            <in>19502.378099999998</in>
            <out>19581.1992</out>
            <start>19502.37809999997</start>
            <end>19581.19919999997</end>
            <file id="街ブラ恵比寿02修正文字起こし.mp4"/>
            <sourcetrack>
              <mediatype>audio</mediatype>
              <trackindex>2</trackindex>
            </sourcetrack>
          </clipitem>
          <clipitem>
            <name>街ブラ恵比寿02修正文字起こし.mp4</name>
            <enabled>true</enabled>
            <in>19581.1992</in>
            <out>19744.835399999996</out>
            <start>19581.19919999997</start>
            <end>19744.835399999967</end>
            <file id="街ブラ恵比寿02修正文字起こし.mp4"/>
            <sourcetrack>
              <mediatype>audio</mediatype>
              <trackindex>2</trackindex>
            </sourcetrack>
          </clipitem>
          <clipitem>
            <name>街ブラ恵比寿02修正文字起こし.mp4</name>
            <enabled>true</enabled>
            <in>19744.8354</in>
            <out>19805.6745</out>
            <start>19744.835399999967</start>
            <end>19805.674499999965</end>
            <file id="街ブラ恵比寿02修正文字起こし.mp4"/>
            <sourcetrack>
              <mediatype>audio</mediatype>
              <trackindex>2</trackindex>
            </sourcetrack>
          </clipitem>
          <clipitem>
            <name>街ブラ恵比寿02修正文字起こし.mp4</name>
            <enabled>true</enabled>
            <in>19805.6745</in>
            <out>19893.4866</out>
            <start>19805.674499999965</start>
            <end>19893.486599999964</end>
            <file id="街ブラ恵比寿02修正文字起こし.mp4"/>
            <sourcetrack>
              <mediatype>audio</mediatype>
              <trackindex>2</trackindex>
            </sourcetrack>
          </clipitem>
          <clipitem>
            <name>街ブラ恵比寿02修正文字起こし.mp4</name>
            <enabled>true</enabled>
            <in>19893.4866</in>
            <out>20114.065800000004</out>
            <start>19893.486599999964</start>
            <end>20114.065799999968</end>
            <file id="街ブラ恵比寿02修正文字起こし.mp4"/>
            <sourcetrack>
              <mediatype>audio</mediatype>
              <trackindex>2</trackindex>
            </sourcetrack>
          </clipitem>
          <clipitem>
            <name>街ブラ恵比寿02修正文字起こし.mp4</name>
            <enabled>true</enabled>
            <in>20114.0658</in>
            <out>20244.4353</out>
            <start>20114.065799999968</start>
            <end>20244.43529999997</end>
            <file id="街ブラ恵比寿02修正文字起こし.mp4"/>
            <sourcetrack>
              <mediatype>audio</mediatype>
              <trackindex>2</trackindex>
            </sourcetrack>
          </clipitem>
          <clipitem>
            <name>街ブラ恵比寿02修正文字起こし.mp4</name>
            <enabled>true</enabled>
            <in>20244.4353</in>
            <out>20295.084600000002</out>
            <start>20244.43529999997</start>
            <end>20295.08459999997</end>
            <file id="街ブラ恵比寿02修正文字起こし.mp4"/>
            <sourcetrack>
              <mediatype>audio</mediatype>
              <trackindex>2</trackindex>
            </sourcetrack>
          </clipitem>
          <clipitem>
            <name>街ブラ恵比寿02修正文字起こし.mp4</name>
            <enabled>true</enabled>
            <in>20295.0846</in>
            <out>20531.847599999994</out>
            <start>20295.08459999997</start>
            <end>20531.847599999965</end>
            <file id="街ブラ恵比寿02修正文字起こし.mp4"/>
            <sourcetrack>
              <mediatype>audio</mediatype>
              <trackindex>2</trackindex>
            </sourcetrack>
          </clipitem>
          <clipitem>
            <name>街ブラ恵比寿02修正文字起こし.mp4</name>
            <enabled>true</enabled>
            <in>20531.8476</in>
            <out>20590.5888</out>
            <start>20531.847599999965</start>
            <end>20590.58879999997</end>
            <file id="街ブラ恵比寿02修正文字起こし.mp4"/>
            <sourcetrack>
              <mediatype>audio</mediatype>
              <trackindex>2</trackindex>
            </sourcetrack>
          </clipitem>
          <clipitem>
            <name>街ブラ恵比寿02修正文字起こし.mp4</name>
            <enabled>true</enabled>
            <in>20590.588799999998</in>
            <out>20636.742599999998</out>
            <start>20590.58879999997</start>
            <end>20636.742599999965</end>
            <file id="街ブラ恵比寿02修正文字起こし.mp4"/>
            <sourcetrack>
              <mediatype>audio</mediatype>
              <trackindex>2</trackindex>
            </sourcetrack>
          </clipitem>
          <clipitem>
            <name>街ブラ恵比寿02修正文字起こし.mp4</name>
            <enabled>true</enabled>
            <in>20636.7426</in>
            <out>20930.748300000003</out>
            <start>20636.742599999965</start>
            <end>20930.748299999967</end>
            <file id="街ブラ恵比寿02修正文字起こし.mp4"/>
            <sourcetrack>
              <mediatype>audio</mediatype>
              <trackindex>2</trackindex>
            </sourcetrack>
          </clipitem>
          <clipitem>
            <name>街ブラ恵比寿02修正文字起こし.mp4</name>
            <enabled>true</enabled>
            <in>20930.7483</in>
            <out>21412.366199999997</out>
            <start>20930.748299999967</start>
            <end>21412.366199999968</end>
            <file id="街ブラ恵比寿02修正文字起こし.mp4"/>
            <sourcetrack>
              <mediatype>audio</mediatype>
              <trackindex>2</trackindex>
            </sourcetrack>
          </clipitem>
          <clipitem>
            <name>街ブラ恵比寿02修正文字起こし.mp4</name>
            <enabled>true</enabled>
            <in>21412.3662</in>
            <out>21483.095400000002</out>
            <start>21412.366199999968</start>
            <end>21483.095399999966</end>
            <file id="街ブラ恵比寿02修正文字起こし.mp4"/>
            <sourcetrack>
              <mediatype>audio</mediatype>
              <trackindex>2</trackindex>
            </sourcetrack>
          </clipitem>
          <clipitem>
            <name>街ブラ恵比寿02修正文字起こし.mp4</name>
            <enabled>true</enabled>
            <in>21483.095400000002</in>
            <out>21581.996400000004</out>
            <start>21483.095399999966</start>
            <end>21581.996399999967</end>
            <file id="街ブラ恵比寿02修正文字起こし.mp4"/>
            <sourcetrack>
              <mediatype>audio</mediatype>
              <trackindex>2</trackindex>
            </sourcetrack>
          </clipitem>
          <clipitem>
            <name>街ブラ恵比寿02修正文字起こし.mp4</name>
            <enabled>true</enabled>
            <in>21581.9964</in>
            <out>21653.325000000008</out>
            <start>21581.996399999967</start>
            <end>21653.32499999998</end>
            <file id="街ブラ恵比寿02修正文字起こし.mp4"/>
            <sourcetrack>
              <mediatype>audio</mediatype>
              <trackindex>2</trackindex>
            </sourcetrack>
          </clipitem>
          <clipitem>
            <name>街ブラ恵比寿02修正文字起こし.mp4</name>
            <enabled>true</enabled>
            <in>21653.325</in>
            <out>21742.335900000002</out>
            <start>21653.32499999998</start>
            <end>21742.335899999984</end>
            <file id="街ブラ恵比寿02修正文字起こし.mp4"/>
            <sourcetrack>
              <mediatype>audio</mediatype>
              <trackindex>2</trackindex>
            </sourcetrack>
          </clipitem>
          <clipitem>
            <name>街ブラ恵比寿02修正文字起こし.mp4</name>
            <enabled>true</enabled>
            <in>21742.3359</in>
            <out>21804.07410000001</out>
            <start>21742.335899999984</start>
            <end>21804.07409999999</end>
            <file id="街ブラ恵比寿02修正文字起こし.mp4"/>
            <sourcetrack>
              <mediatype>audio</mediatype>
              <trackindex>2</trackindex>
            </sourcetrack>
          </clipitem>
          <clipitem>
            <name>街ブラ恵比寿02修正文字起こし.mp4</name>
            <enabled>true</enabled>
            <in>21804.074099999998</in>
            <out>21868.2099</out>
            <start>21804.07409999999</start>
            <end>21868.209899999994</end>
            <file id="街ブラ恵比寿02修正文字起こし.mp4"/>
            <sourcetrack>
              <mediatype>audio</mediatype>
              <trackindex>2</trackindex>
            </sourcetrack>
          </clipitem>
          <clipitem>
            <name>街ブラ恵比寿02修正文字起こし.mp4</name>
            <enabled>true</enabled>
            <in>21868.209899999998</in>
            <out>21931.1469</out>
            <start>21868.209899999994</start>
            <end>21931.146899999996</end>
            <file id="街ブラ恵比寿02修正文字起こし.mp4"/>
            <sourcetrack>
              <mediatype>audio</mediatype>
              <trackindex>2</trackindex>
            </sourcetrack>
          </clipitem>
          <clipitem>
            <name>街ブラ恵比寿02修正文字起こし.mp4</name>
            <enabled>true</enabled>
            <in>21931.1469</in>
            <out>22040.2377</out>
            <start>21931.146899999996</start>
            <end>22040.237699999998</end>
            <file id="街ブラ恵比寿02修正文字起こし.mp4"/>
            <sourcetrack>
              <mediatype>audio</mediatype>
              <trackindex>2</trackindex>
            </sourcetrack>
          </clipitem>
          <clipitem>
            <name>街ブラ恵比寿02修正文字起こし.mp4</name>
            <enabled>true</enabled>
            <in>22040.237699999998</in>
            <out>22129.5483</out>
            <start>22040.237699999998</start>
            <end>22129.5483</end>
            <file id="街ブラ恵比寿02修正文字起こし.mp4"/>
            <sourcetrack>
              <mediatype>audio</mediatype>
              <trackindex>2</trackindex>
            </sourcetrack>
          </clipitem>
          <clipitem>
            <name>街ブラ恵比寿02修正文字起こし.mp4</name>
            <enabled>true</enabled>
            <in>22129.5483</in>
            <out>22166.1117</out>
            <start>22129.5483</start>
            <end>22166.1117</end>
            <file id="街ブラ恵比寿02修正文字起こし.mp4"/>
            <sourcetrack>
              <mediatype>audio</mediatype>
              <trackindex>2</trackindex>
            </sourcetrack>
          </clipitem>
        </track>
      </audio>
    </media>
  </sequence>
</xmeml>